<svg xmlns="http://www.w3.org/2000/svg" width="160" height="320" viewBox="0 0 160 320">
  <title>illustration-big-ben</title>
  <g>
    <path d="M59.706,201.226a6.187,6.187,0,0,0-.224,1.285,4.12,4.12,0,0,0,2.331,4.162,4.508,4.508,0,0,0,1.685.238c2.289-.047,3.454-2.321,5.478-2.632,1.94-.3,1.839,2.393,3.077,3.209a2.723,2.723,0,0,0,2.856-.118,6.489,6.489,0,0,0,1.993-2.231,15.306,15.306,0,0,1,1.685-2.5c.81-.873,1.877-1.477,2.679-2.357a2.871,2.871,0,0,0,.681-3.257c-.771-1.274-2.613-1.177-4-1.733-1.269-.51-2.185-1.619-3.29-2.425s-2.721-1.279-3.792-.427c-2.345,1.863-.609,4.866-4.619,4.989-1.254.038-2.5-.222-3.754-.184a1.345,1.345,0,0,0-.635.132,1.434,1.434,0,0,0-.44.469A11.769,11.769,0,0,0,59.706,201.226Z"/>
    <path d="M140.55,169.973c-1.075-3.083-8.3-5.718-10.27-7.8-5.355-5.656,6.325-19.868-.448-25.262a8.131,8.131,0,0,0-3.346-1.227,25.329,25.329,0,0,1-8.224-3.527,7.106,7.106,0,0,1-2.464-2.387c-.843-1.558-.6-3.455-.318-5.2.736-4.619,1.828-8.783,1.8-13.344-.027-5.181.741-9.972,3.513-14.466,1.531-2.481,3.6-4.99,3.341-7.893-.255-2.822-2.1-5.973-2.855-8.721-.915-3.345-1.891-6.675-2.681-10.058-1.756-7.507-3.3-15.669-1.588-23.328.5-2.244,1.684-4.274,2.4-6.459s.9-4.767-.458-6.621a4.414,4.414,0,0,0-.444-.508,9.167,9.167,0,0,1,.064-2.946c.736-2.765,3.764-4.883,5.672-6.815a5.538,5.538,0,0,0,1.069-1.333,5.539,5.539,0,0,0,.433-2.2c.154-2.643.177-5.644-1.717-7.493a6.182,6.182,0,0,0-4.6-1.529c-3.706.165-7.1,1.67-8.184,5.449a4.328,4.328,0,0,0-.109,2.345c1.036,3.676,4.821,5.542,3.382,10.114-.8,2.535-2.954,3.219-4.676,4.889a12.7,12.7,0,0,0-3.271,6.1,26.482,26.482,0,0,1-.988,3.634,16.318,16.318,0,0,1-2.015,3.293c-4.37,6.011-9.363,11.505-13.715,17.636a111.4,111.4,0,0,1-11.482,13.5,7.858,7.858,0,0,0-1.534,1.956c-.843,1.738-.3,3.791-.357,5.722-.118,4.227-1.964,8.864-2.575,13.082a83.063,83.063,0,0,1-2.285,10.031c-1.979,7.14-5.445,13.585-12.861,16.127-1.025.352-2.133.367-3.184.632-2.831.715-4.943,3.205-5.981,5.935s-2.813,17.983-2.939,20.9a6.131,6.131,0,0,1-.581,2.829c-1.238,2.154-8.953,1.158-10.505,3.446-3.788,5.586-1.745,11.614-1.8,17.643-.06,6.686-6,12.594-7.288,19.112-.353,1.789-.438,3.62-.738,5.418-1.055,6.318-4.009,11.792-4.37,18.2-.321,5.674-2.771,12.23-.39,17.794,1.59,3.717,8.254,5.464,8.654,9.632.463,4.81-1.412,10.009-3.658,14.178S21,268.636,19.815,273.228a34.446,34.446,0,0,0-.687,10.318,29.99,29.99,0,0,0,1.566,9.236c2.864,7.519,9.258,10.489,16.826,10.724,7.652.238,15.047,2.283,22.618,2.474,2.831.071,5.662-.425,8.486-.222,6.3.453,12,4.327,18.309,4.591a16.763,16.763,0,0,0,16.09-10.971,32.606,32.606,0,0,0,1.323-8.813q.822-14.232,1.642-28.465c.6-10.165,8.016-4.126,15.387-8.254a6.907,6.907,0,0,0,1.433-1.066c2.552-2.46,2.951-6.334,3.291-9.862,1.124-11.658,10.633-52.683,13.762-63.969C140.676,176.009,141.555,172.854,140.55,169.973ZM93.322,103.508c.216-.52.587-.963.807-1.481.49-1.151.173-2.464.135-3.715s.433-2.748,1.649-3.048l2.077-.576c1.231.117,1.876,1.605,1.748,2.834s-.747,2.361-.929,3.584c-.248,1.667.3,3.535-.614,4.954a2.761,2.761,0,0,1-4.873-2.552ZM82.044,98.931c.111-2.294.759-5.033,2.939-5.756a1.725,1.725,0,0,1,1.151-.031c.915.355,1.016,1.666.589,2.551s-1.195,1.576-1.577,2.48a8.049,8.049,0,0,0-.243,3.511,4.3,4.3,0,0,1-.9,3.326c-.844.831-2.614.666-2.878-.488l-1.113.739C81.841,103.879,81.932,101.224,82.044,98.931ZM77.8,152.452c.476-1.263.083-2.661-.12-4s-.1-2.923.994-3.71a4.245,4.245,0,0,1,2.945-.415l.969.21a2.855,2.855,0,0,1,1.359,4.942,7.047,7.047,0,0,0-1,.863c-1.138,1.479.873,3.621.318,5.4a2.548,2.548,0,0,1-2.365,1.612,5.35,5.35,0,0,1-2.871-.9,2.362,2.362,0,0,1-1.114-1.123C76.564,154.361,77.431,153.421,77.8,152.452Zm-15.1-1c-.138-1.29-.549-2.55-.562-3.847a4.546,4.546,0,0,1,2.171-4.114,2.917,2.917,0,0,1,4.043,1.438c.512,1.694-.939,3.353-1.064,5.118a12.875,12.875,0,0,0,.555,3.209,3,3,0,0,1-.793,3,3.609,3.609,0,0,1-1.7.53,3.331,3.331,0,0,1-2.039-.164,1.169,1.169,0,0,1-.437-1.736l-1.194.176A4.207,4.207,0,0,0,62.692,151.453Zm30.592,48.6a17.264,17.264,0,0,1-1.919,5.944c-1.148,1.849-2.97,3.225-4,5.141-1.222,2.262-1.251,5.111-2.854,7.121-1.012,1.27-2.518,2.026-3.771,3.059-1.671,1.378-2.879,3.242-4.5,4.676a12.068,12.068,0,0,1-9.7,2.729,50.26,50.26,0,0,1-10.483-3.132c-4.216-1.719-8.089-4.7-9.991-8.833a14.057,14.057,0,0,1,.518-12.559c1.085-1.925,2.655-3.646,3.137-5.8.755-3.378-1.358-6.774-1.225-10.233a8.106,8.106,0,0,1,4.211-6.711c4.228-2.247,5.524-6.856,9.578-9.059,4.57-2.483,10.155-1.313,14.616.6,2.895,1.239,5.525,2.367,7.824,4.5,1.9,1.764,4.519,3.095,5.236,5.791.58,2.178-.245,4.692.9,6.632a27.009,27.009,0,0,0,1.754,2.115C94.252,194.253,93.807,197.332,93.284,200.049Zm5.726-44.771a5.4,5.4,0,0,0-.763,1.275c-.377,1.138.284,2.563-.464,3.5a1.893,1.893,0,0,1-2.429.224,4.361,4.361,0,0,1-1.536-2.133c-.511-1.256-.773-2.852.157-3.837.356-.376.862-.629,1.085-1.1.5-1.039-.7-2.058-1.047-3.156a2.546,2.546,0,0,1,1.942-3.074A3.175,3.175,0,0,1,99.3,148.8l.828,1.014A7.33,7.33,0,0,1,99.01,155.278Zm12.694,3.3c.01.853.306,1.691.249,2.542a2.954,2.954,0,0,1-3.033,2.705,2.571,2.571,0,0,1-2.14-3.275c.368-.958,1.364-1.658,1.446-2.68.154-1.915-2.96-3.277-2.2-5.04a2.041,2.041,0,0,1,1.387-1.039,3.857,3.857,0,0,1,2.979.416l2.108.74C113.1,154.77,111.684,156.655,111.7,158.576Zm-7.484-52.613a3.647,3.647,0,0,1,.268-1.435c.407-1.363.468-2.812.9-4.166a4.1,4.1,0,0,1,2.779-2.966l2.311.951a14.112,14.112,0,0,1-.015,5.514,4.809,4.809,0,0,1-3.721,3.678A2.187,2.187,0,0,1,104.22,105.963Zm20.261,93.621c-.838,2.451-.774,5.048-1.009,7.592-.69,7.462-3.964,14.551-7.2,21.511-.91,1.957-2.352,4.247-4.828,4.288a5.116,5.116,0,0,1-2.883-.973c-3.788-2.554-4.251-7.354-3.172-11.36s3.359-7.764,3.954-11.841c.5-3.45-.223-6.991.571-10.4.911-3.914,7.189-15.08,13.23-13.96C131.245,185.943,125.735,195.918,124.481,199.584Z"/>
    <path d="M112.667,70.118c.494,1.593,1.34,3.058,1.867,4.64a6.089,6.089,0,0,1-.114,4.857c-.819,1.454-2.9,2.243-4.246,1.258a4.8,4.8,0,0,1-1.47-3.027,14.178,14.178,0,0,1-.465-4.376,4.79,4.79,0,0,1,2.11-3.7" fill="#fff"/>
    <path d="M116.854,137.851a11.911,11.911,0,0,1,6.184,2.293c1.478,1.095,2.711,3.313,1.44,4.643a2.912,2.912,0,0,1-1.746.762,6.358,6.358,0,0,1-6.908-5.894" fill="#fff"/>
    <path d="M95.947,286.64a17.786,17.786,0,0,1-1.815,4.3,7.067,7.067,0,0,0-.9,4.5c.335,1.525,1.866,2.87,3.379,2.486,1.665-.422,2.264-2.434,2.577-4.123a12.657,12.657,0,0,0,.3-4.249,4.3,4.3,0,0,0-2.337-3.367" fill="#fff"/>
    <path d="M40.137,218.484c.49,1.931,2.343,3.127,3.829,4.454s2.766,3.5,1.759,5.215a3.826,3.826,0,0,1-1.811,1.458,7.422,7.422,0,0,1-7.874-1.238,6.89,6.89,0,0,1-1.59-7.731c.593-1.276,1.836-2.433,3.233-2.26" fill="#fff"/>
  </g>
</svg>
