<svg id="Layer_1" data-name="Layer 1" xmlns="http://www.w3.org/2000/svg" viewBox="0 0 64 64"><defs><style>.cls-1{fill:#fff;}</style></defs><title>image-jamkid-price</title><polygon points="32 9.13 36.2 10.87 40.75 10.87 43.97 14.08 48.17 15.82 49.92 20.03 53.13 23.25 53.13 27.8 54.88 32 53.13 36.2 53.13 40.75 49.92 43.97 48.17 48.17 43.97 49.92 40.75 53.13 36.2 53.13 32 54.88 27.8 53.13 23.25 53.13 20.03 49.92 15.82 48.17 14.08 43.97 10.87 40.75 10.87 36.2 9.13 32 10.87 27.8 10.87 23.25 14.08 20.03 15.82 15.82 20.03 14.08 23.25 10.87 27.8 10.87 32 9.13"/><path class="cls-1" d="M18.71,38.24c-.25,0-.53-.11-.53-.45a6.42,6.42,0,0,1,1.09-2.1,1.58,1.58,0,0,1-1.18-1.4c0-.58.41-1,1.12-1,.27,0,.42.11.42.3a.89.89,0,0,0-.46.8,1,1,0,0,0,.75,1,1,1,0,0,0,.8-1,2.19,2.19,0,0,0-.47-1.19,4.21,4.21,0,0,1-.92-2.39c0-1.26,1.39-2.92,2.53-2.92l.33,0a11.08,11.08,0,0,0,.75-2.47h.28c.34,0,.66.11.66.48s-.71,1.21-1.3,2.12a1.57,1.57,0,0,1,.74,1.49c0,1.16-.7,2.48-1.53,2.48-.25,0-.38-.09-.42-.27A5,5,0,0,0,22.27,29c0-.34-.06-.6-.19-.69a2.74,2.74,0,0,0-1.53,2.44,3,3,0,0,0,.6,1.68,3.24,3.24,0,0,1,.69,1.75A1.62,1.62,0,0,1,20,35.82l-.36,0a15.5,15.5,0,0,0-.71,2.42Z"/><path class="cls-1" d="M22.92,36.15a.35.35,0,0,1-.33-.38c0-.41.38-.67,1-1.07,1.67-.94,4.09-4.13,4.09-6.35a.38.38,0,0,0-.1-.31c-.72.15-2.35,2.8-2.35,4.51a2.5,2.5,0,0,0,0,.33.51.51,0,0,1-.28.08c-.32,0-.69-.28-.69-1.12,0-2.06,1.53-4.26,3.05-4.26a1.26,1.26,0,0,1,1.42,1.3c0,1.17-1,4-4.37,5.86.43,0,.79.1,1.11.1a1.18,1.18,0,0,0,1-.48c.14,0,.22.19.22.39a1.41,1.41,0,0,1-1.36,1.37c-.72,0-1.22-.52-1.75-.52C23.23,35.61,23.07,35.83,22.92,36.15Z"/><path class="cls-1" d="M27.3,36.7c0-.89.47-1.53,1.13-1.53a.79.79,0,0,1,.5.18,4.27,4.27,0,0,0-.52,1.82.74.74,0,0,0,.26.69c1-.18,2-2.72,2-4.16a1.36,1.36,0,0,0-.18-.8c-.48.23-.84.89-1.44,1.63-.36,0-.71-.05-.7-.42a7.27,7.27,0,0,1,.55-1.56,41.7,41.7,0,0,0,1.73-4.8,2.11,2.11,0,0,1,.43-.05c.58,0,.69,1.75,1.68,2.36a2.63,2.63,0,0,0,.25-1.2,2,2,0,0,0-.23-1,.42.42,0,0,1,.33-.18c.47,0,.71.57.71,1.16,0,1-.6,2.12-1.65,2.12-.56,0-1-.9-1.23-1.58-.41,1.12-1.07,2.81-1.63,4.13.45-.61.79-1.05,1.34-1.05.76,0,1.2.63,1.2,1.5,0,2-1.34,4.42-3,4.42A1.47,1.47,0,0,1,27.3,36.7Z"/><path class="cls-1" d="M33.53,34.35c.48,0,.94.22.94.55s-.59,1.25-1.12,1.25a.8.8,0,0,1-.74-.71C32.61,35.16,33,34.35,33.53,34.35Z"/><path class="cls-1" d="M38.84,27.9c0-.25.32-.32.61-.32a1.18,1.18,0,0,1,1.23,1.26,10.6,10.6,0,0,1-.92,3.72,10.59,10.59,0,0,1-1.68,2.92,1.94,1.94,0,0,1-1.38.66c-.66,0-1.25-.53-1.25-1.55a10,10,0,0,1,.94-3.53C37.11,29.4,37.82,28,38.84,27.9Zm-1.31,3.67a11.83,11.83,0,0,0-1,3.44c0,.32,0,.53.18.65.45-.17,1.3-1.91,2-3.69a11.72,11.72,0,0,0,.94-3.39c0-.36-.09-.46-.27-.51A11.77,11.77,0,0,0,37.53,31.58Z"/><path class="cls-1" d="M43.85,27.9c0-.25.32-.32.61-.32a1.18,1.18,0,0,1,1.23,1.26,10.59,10.59,0,0,1-.91,3.72,10.69,10.69,0,0,1-1.68,2.92,1.94,1.94,0,0,1-1.39.66c-.66,0-1.25-.53-1.25-1.55a10.07,10.07,0,0,1,.94-3.53C42.12,29.4,42.83,28,43.85,27.9Zm-1.31,3.67a11.83,11.83,0,0,0-1,3.44c0,.32,0,.53.18.65.45-.17,1.3-1.91,2-3.69a11.78,11.78,0,0,0,.94-3.39c0-.36-.09-.46-.27-.51A11.81,11.81,0,0,0,42.54,31.58Z"/><path class="cls-1" d="M24.26,43.74a33.91,33.91,0,0,1,16.61-3.33,33.41,33.41,0,0,0-16.15,4.21.5.5,0,0,1-.49-.87Z"/><path class="cls-1" d="M26.25,22.59c-.81,0-1.47-.29-1.47-1s.66-1,1.47-1,1.47.3,1.47,1S27.06,22.59,26.25,22.59Zm0-1.63c-.56,0-1,.17-1,.65s.46.65,1,.65,1-.12,1-.65S26.81,21,26.25,21Z"/><polygon class="cls-1" points="31.75 21.04 31.13 21.04 31.13 22.5 30.76 22.5 28.91 21.06 28.91 22.14 29.55 22.14 29.55 22.5 27.93 22.5 27.93 22.14 28.56 22.14 28.56 21.04 27.93 21.04 27.93 20.69 29.05 20.69 30.77 22.01 30.77 21.04 30.13 21.04 30.13 20.69 31.75 20.69 31.75 21.04"/><polygon class="cls-1" points="35.3 22.5 32.1 22.5 32.1 22.15 32.73 22.15 32.73 21.04 32.1 21.04 32.1 20.69 33.81 20.69 33.81 21.04 33.13 21.04 33.13 22.15 34.96 22.15 34.96 21.65 35.3 21.65 35.3 22.5"/><polygon class="cls-1" points="38.72 21.04 38.06 21.04 36.98 21.75 36.98 22.14 37.6 22.14 37.6 22.5 35.95 22.5 35.95 22.14 36.54 22.14 36.54 21.76 35.4 21.04 34.74 21.04 34.74 20.69 36.67 20.69 36.67 21.04 36.09 21.04 36.8 21.48 37.48 21.04 36.93 21.04 36.93 20.69 38.72 20.69 38.72 21.04"/></svg>