<svg id="Layer_1" data-name="Layer 1" xmlns="http://www.w3.org/2000/svg" viewBox="0 0 88 120"><defs><style>.cls-1{fill:#fff;}</style></defs><title>image-jamkid-mascot-arms</title><path d="M35.17,24.86a8.31,8.31,0,0,0-4.38,2,5.14,5.14,0,0,0-1.62,3.72A5.66,5.66,0,0,0,31,34.68a6.35,6.35,0,0,0,4.39,1.73h.21a2,2,0,0,0-.11-4h-.09a2.34,2.34,0,0,1-1.64-.63,1.69,1.69,0,0,1-.57-1.17,1.12,1.12,0,0,1,.4-.84,4.44,4.44,0,0,1,2.31-1,2,2,0,0,0-.71-3.94Z"/><path class="cls-1" d="M32.79,33.81c0-1.59.7-2.87,2.29-2.87a2.87,2.87,0,1,1,0,5.74C33.5,36.69,32.79,35.4,32.79,33.81Z"/><path d="M32.79,33.81h.5a3,3,0,0,1,.45-1.74,1.52,1.52,0,0,1,1.33-.63,2.37,2.37,0,1,1,0,4.74,1.52,1.52,0,0,1-1.33-.63,3,3,0,0,1-.45-1.74h-1a4,4,0,0,0,.64,2.32,2.53,2.53,0,0,0,2.14,1,3.37,3.37,0,1,0,0-6.74,2.53,2.53,0,0,0-2.14,1,4,4,0,0,0-.64,2.32Z"/><path class="cls-1" d="M40.44,33.81c0,1.83-.81,3.31-2.63,3.31a3.31,3.31,0,0,1,0-6.61C39.63,30.51,40.44,32,40.44,33.81Z"/><path d="M40.44,33.81h-.5a3.53,3.53,0,0,1-.54,2,1.83,1.83,0,0,1-1.59.76,2.81,2.81,0,0,1,0-5.61,1.83,1.83,0,0,1,1.59.76,3.53,3.53,0,0,1,.54,2h1a4.5,4.5,0,0,0-.73-2.63A2.84,2.84,0,0,0,37.81,30a3.81,3.81,0,0,0,0,7.61,2.84,2.84,0,0,0,2.41-1.18,4.5,4.5,0,0,0,.73-2.63Z"/><path d="M50.66,27.1a8.3,8.3,0,0,0,2,4.38,5.14,5.14,0,0,0,3.72,1.62,5.66,5.66,0,0,0,4.07-1.81,6.35,6.35,0,0,0,1.73-4.39v-.2a2,2,0,1,0-4,.1v.1a2.35,2.35,0,0,1-.63,1.64,1.69,1.69,0,0,1-1.17.57,1.12,1.12,0,0,1-.84-.4,4.42,4.42,0,0,1-1-2.31,2,2,0,1,0-3.94.71Z"/><path class="cls-1" d="M58.4,30.34c-1.12-1.12-1.54-2.53-.41-3.65a2.87,2.87,0,1,1,4.06,4.06C60.93,31.88,59.53,31.46,58.4,30.34Z"/><path d="M58.4,30.34l.35-.35a2.72,2.72,0,0,1-.93-1.81A1.56,1.56,0,0,1,58.34,27,2.37,2.37,0,0,1,61.7,30.4a1.56,1.56,0,0,1-1.13.52A2.72,2.72,0,0,1,58.76,30l-.35.35-.35.35a3.69,3.69,0,0,0,2.52,1.22,2.57,2.57,0,0,0,1.84-.81,3.37,3.37,0,1,0-4.77-4.77,2.57,2.57,0,0,0-.81,1.84,3.69,3.69,0,0,0,1.22,2.52Z"/><path class="cls-1" d="M63.81,24.94c1.29,1.29,1.77,2.91.48,4.2a3.31,3.31,0,1,1-4.67-4.67C60.9,23.17,62.52,23.65,63.81,24.94Z"/><path d="M63.81,24.94l-.35.35a3.2,3.2,0,0,1,1.09,2.13,1.87,1.87,0,0,1-.62,1.36,2.81,2.81,0,0,1-4-4,1.87,1.87,0,0,1,1.36-.62,3.21,3.21,0,0,1,2.13,1.09l.35-.35.35-.35a4.17,4.17,0,0,0-2.84-1.39,2.88,2.88,0,0,0-2.06.91,3.81,3.81,0,1,0,5.38,5.38,2.88,2.88,0,0,0,.91-2.06,4.17,4.17,0,0,0-1.39-2.84Z"/><path class="cls-1" d="M64,25.93h0l.21.09.08.21-.09.21-.21.08a1,1,0,1,0,0,2.06A2.35,2.35,0,1,0,64,23.88"/><path d="M63.82,26.39h0v0l.46-.18-.46-.2v0h0l.19.46V26h0a1.53,1.53,0,0,0-1.53,1.51h0v0A1.53,1.53,0,0,0,64,29.08h0a2.85,2.85,0,0,0,2-.81h0a2.85,2.85,0,0,0,.87-2v0a2.85,2.85,0,0,0-2.81-2.85.5.5,0,0,0,0,1,1.85,1.85,0,0,1,1.83,1.85v0a1.85,1.85,0,0,1-.56,1.3h0a1.85,1.85,0,0,1-1.29.52h0a.53.53,0,0,1-.52-.53h0A.53.53,0,0,1,64,27h0l.2,0,.21-.08a.5.5,0,0,0,.27-.27l.09-.21a.5.5,0,0,0,0-.38l-.08-.21a.5.5,0,0,0-.27-.27l-.21-.09a.5.5,0,1,0-.39.92Z"/><path class="cls-1" d="M62.39,25.35h.23l.15.17v.23l-.17.15a1,1,0,1,0,.67,1.94,2.35,2.35,0,0,0-1.54-4.45"/><path d="M62.36,25.85h0v0l.37-.33-.5,0v0h0l.33.37-.16-.47a1.53,1.53,0,1,0,1,2.89,2.85,2.85,0,0,0,.32-5.26h0a2.85,2.85,0,0,0-2.18-.13.5.5,0,1,0,.33.95A1.85,1.85,0,0,1,63.3,24h0a1.85,1.85,0,0,1-.21,3.42l-.17,0a.53.53,0,0,1-.5-.36l0-.17a.53.53,0,0,1,.36-.5l.17-.1.17-.15a.5.5,0,0,0,.17-.34v-.23a.5.5,0,0,0-.12-.36L63,25a.5.5,0,0,0-.34-.17h-.23a.5.5,0,1,0-.06,1Z"/><path class="cls-1" d="M61.86,25.69h0a6.09,6.09,0,0,0,1.47-2.38A6.94,6.94,0,0,0,63.66,21a1.27,1.27,0,1,0-2.54.05,4.41,4.41,0,0,1-.21,1.48,7.36,7.36,0,0,1-1.31,2"/><path d="M62.21,26a6.59,6.59,0,0,0,1.59-2.58,7.38,7.38,0,0,0,.36-2.32V21h0a1.77,1.77,0,0,0-1.77-1.73h0l0,.5v-.5A1.77,1.77,0,0,0,60.62,21v.06l.5,0h-.5v.1a3.86,3.86,0,0,1-.18,1.21h0a4.62,4.62,0,0,1-.49.87,6.94,6.94,0,0,1-.7.89.5.5,0,1,0,.71.7,7.83,7.83,0,0,0,.82-1,5.31,5.31,0,0,0,.61-1.11h0a4.86,4.86,0,0,0,.23-1.52V21l-.29,0h.29v0l-.29,0h.29a.77.77,0,0,1,.75-.77h0a.77.77,0,0,1,.77.75h0v.15a6.38,6.38,0,0,1-.31,2,5.58,5.58,0,0,1-1.35,2.19.5.5,0,1,0,.71.71Z"/><path class="cls-1" d="M60.82,27.84l1.43-.59a1.35,1.35,0,1,0-1-2.49l-1.43.59"/><path d="M61,28.31l1.43-.59A1.85,1.85,0,1,0,61,24.3l-1.43.59a.5.5,0,0,0,.38.92l1.43-.59a.85.85,0,1,1,.65,1.57l-1.43.59a.5.5,0,0,0,.38.92Z"/></svg>