<svg id="Layer_1" data-name="Layer 1" xmlns="http://www.w3.org/2000/svg" xmlns:xlink="http://www.w3.org/1999/xlink" viewBox="0 0 168 120"><defs><style>.cls-1{fill:none;}.cls-2{fill:#fff;}.cls-3{clip-path:url(#clip-path);}</style><clipPath id="clip-path"><rect class="cls-1" x="40" y="88.01" width="96" height="7.99"/></clipPath></defs><title>image-jamkid-body</title><path class="cls-2" d="M84.48,87.1a25.54,25.54,0,0,1-2.22,1.81l-.58.42-.42.29-.64.42a19.17,19.17,0,0,1-2.73,1.37A18.25,18.25,0,0,1,66,91.9q-.71-.22-1.4-.49c-.43-.17-1-.42-1.12-.5l-1.27-.67-2.52-1.39c-1.67-.94-3.33-1.92-5-2.95A8.14,8.14,0,0,1,60.59,71c1.9.36,3.78.78,5.65,1.23l2.79.7,1.39.37c.34.11.2,0,.21,0l0-.09a.77.77,0,0,0-.67-.43l-.21,0,0,0h0l.14-.1.58-.42a25.36,25.36,0,0,1,2.43-1.51A10.09,10.09,0,0,1,84.48,87.1Z"/><path d="M84.48,87.1l-.34-.37A25.05,25.05,0,0,1,82,88.5l.3.4L82,88.5l-.58.42.29.41-.28-.41L81,89.2l-.63.42.28.42-.26-.43a18.67,18.67,0,0,1-2.66,1.34,17.33,17.33,0,0,1-6.42,1.21,18,18,0,0,1-5.11-.74h0q-.69-.21-1.37-.47l-.18.47.19-.46-.67-.28-.27-.12-.08,0h0l-.08.14.09-.13h0l-.08.14.09-.13,0,0-1.29-.69L60,88.42h0c-1.67-.94-3.32-1.91-5-2.94a7.65,7.65,0,0,1,5.49-14c1.89.36,3.76.77,5.63,1.22h0l2.79.7,1.38.37.13-.48-.15.48a1.2,1.2,0,0,0,.36.07.52.52,0,0,0,.27-.07l.19-.19.06-.25a.51.51,0,0,0,0-.21l0-.05h0l-.35.2.37-.17,0,0-.35.2.37-.17-.44.2h.49a.46.46,0,0,0,0-.2l-.44.2h0l.43.25a.5.5,0,0,0,.07-.25h-.5l.43.25-.43-.25.2.46a.5.5,0,0,0,.23-.2l-.43-.25.2.46.43-.19L71.08,73v0a1.26,1.26,0,0,0-1.12-.71h-.06l-.27.06-.07,0-.1.06.47.88h0l0,0,.18-.13h0l.58-.42-.29-.41.28.41a24.87,24.87,0,0,1,2.38-1.48,9.59,9.59,0,0,1,11,15.47l.34.36.34.36a10.63,10.63,0,0,0,3.35-7.75,10.58,10.58,0,0,0-15.55-9.33,25.86,25.86,0,0,0-2.48,1.54h0l-.59.42h0l-.14.1.29.41-.22-.45h0l.22.45.24.44,0,0-.24-.44.12.49.21,0-.12-.49v.5l.22.14.45-.22-.47.17,0,.09.47-.17-.2-.46a.5.5,0,0,0-.3.46.49.49,0,0,0,.05.23l0,0h0l.35-.2-.37.16,0,0,.35-.2-.37.16.44-.19h-.48a.46.46,0,0,0,0,.19l.44-.19h0l-.43-.24-.06.24h.49l-.43-.24.43.23-.16-.46a.49.49,0,0,0-.27.23l.43.23-.16-.46.15.43v-.45l-.15,0,.15.43v-.14l0-.31h0v.32l0-.31v0h0v0l-.1,0h0l-1.4-.37-2.8-.7h0c-1.87-.45-3.76-.87-5.67-1.23a8.64,8.64,0,0,0-6.21,15.81c1.65,1,3.32,2,5,3h0L62,90.68l1.27.67.23-.44-.29.41.23.13c.25.12.66.29,1,.42h0q.71.27,1.44.5h0a19,19,0,0,0,5.39.78,18.33,18.33,0,0,0,6.79-1.28,19.67,19.67,0,0,0,2.8-1.41h0l.65-.43h0l.43-.3h0l.58-.42h0a26,26,0,0,0,2.26-1.84Z"/><circle cx="102.19" cy="71.21" r="23"/><path d="M129.53,90a23,23,0,1,0-43.39,2.44C100.64,92.34,115,90.28,129.53,90Z"/><g class="cls-3"><ellipse cx="92.01" cy="89.81" rx="42.28" ry="5.04"/><path d="M134.29,89.81h-.5s0,.08-.1.19a3.63,3.63,0,0,1-1.34.78,30.43,30.43,0,0,1-5.73,1.41C119,93.49,106.36,94.35,92,94.35a266.44,266.44,0,0,1-29.84-1.47,62.91,62.91,0,0,1-9-1.59,10.65,10.65,0,0,1-2.35-.9,2,2,0,0,1-.51-.39c-.09-.11-.1-.16-.1-.19s0-.08.1-.19a3.63,3.63,0,0,1,1.34-.78,30.44,30.44,0,0,1,5.73-1.41C65,86.12,77.67,85.27,92,85.27a266.4,266.4,0,0,1,29.84,1.47,62.93,62.93,0,0,1,9,1.59,10.66,10.66,0,0,1,2.35.9,2,2,0,0,1,.51.39c.09.11.1.16.1.19h1a1.29,1.29,0,0,0-.34-.84,4.45,4.45,0,0,0-1.73-1.06,31.28,31.28,0,0,0-5.93-1.47c-7.69-1.31-20.4-2.17-34.78-2.17a267.32,267.32,0,0,0-30,1.48,63.81,63.81,0,0,0-9.14,1.62,11.54,11.54,0,0,0-2.58,1,3,3,0,0,0-.77.61,1.21,1.21,0,0,0,0,1.68,4.45,4.45,0,0,0,1.73,1.06,31.27,31.27,0,0,0,5.93,1.47c7.69,1.31,20.4,2.16,34.78,2.17a267.36,267.36,0,0,0,30-1.48,63.8,63.8,0,0,0,9.14-1.62,11.54,11.54,0,0,0,2.58-1,3,3,0,0,0,.77-.61,1.29,1.29,0,0,0,.34-.84Z"/></g></svg>