<svg id="Layer_1" data-name="Layer 1" xmlns="http://www.w3.org/2000/svg" viewBox="0 0 88 120"><title>image-jamkid-mascot-stars-02</title><polygon points="64.56 37.51 65.02 38.44 66.05 38.59 65.31 39.31 65.48 40.34 64.56 39.85 63.64 40.34 63.82 39.31 63.07 38.59 64.1 38.44 64.56 37.51"/><path d="M64.56,37.51l-.45.22.46.93a.5.5,0,0,0,.38.27h0l0,0a.5.5,0,0,0-.14.44v0h0a.5.5,0,0,0-.47,0h0v0a.5.5,0,0,0-.14-.44l0,0h0a.5.5,0,0,0,.38-.27l.46-.93-.45-.22-.45.22.45-.22-.45-.22-.34.7-.77.11a.5.5,0,0,0-.28.85l.56.54-.13.76a.5.5,0,0,0,.73.53l.69-.36.69.36a.5.5,0,0,0,.73-.53l-.13-.76.56-.54a.5.5,0,0,0-.28-.85L65.35,38l-.34-.7a.5.5,0,0,0-.9,0Z"/><polygon points="38.15 46.03 38.44 46.62 39.08 46.71 38.61 47.17 38.73 47.81 38.15 47.51 37.57 47.81 37.68 47.17 37.21 46.71 37.86 46.62 38.15 46.03"/><path d="M38.15,46l-.45.22.29.59a.5.5,0,0,0,.38.27l.65.09.07-.49-.35-.36-.47.46a.5.5,0,0,0-.14.44l.11.64.49-.09.23-.44-.58-.3a.5.5,0,0,0-.47,0l-.58.3.23.44.49.08.11-.64a.5.5,0,0,0-.14-.44l-.47-.46-.35.36.07.49.65-.09a.5.5,0,0,0,.38-.27l.29-.59L38.15,46l-.45.22.45-.22-.45-.22-.17.35-.39.06a.5.5,0,0,0-.28.85l.28.27-.07.39a.5.5,0,0,0,.73.53l.35-.18.35.18a.5.5,0,0,0,.73-.53l-.07-.39.28-.27a.5.5,0,0,0-.28-.85l-.39-.06-.17-.35a.5.5,0,0,0-.9,0Z"/><polygon points="51.52 45.7 51.55 46.27 52.03 46.58 51.5 46.78 51.36 47.33 51.01 46.89 50.44 46.93 50.75 46.45 50.53 45.92 51.09 46.07 51.52 45.7"/><path d="M51.52,45.7l-.5,0,0,.57a.5.5,0,0,0,.24.4l.49.3.26-.42-.18-.47-.54.2a.5.5,0,0,0-.31.35l-.14.56.49.12.39-.31-.36-.45a.5.5,0,0,0-.43-.19l-.57,0,0,.5.42.27.31-.48a.5.5,0,0,0,0-.46L51,45.73l-.46.19-.13.48.55.15a.5.5,0,0,0,.45-.1l.44-.37-.32-.38-.5,0,.5,0-.32-.38-.24.2-.3-.08a.5.5,0,0,0-.59.67l.12.29-.17.26a.5.5,0,0,0,.45.77l.31,0,.19.24a.5.5,0,0,0,.88-.19l.07-.3.29-.11a.5.5,0,0,0,.09-.89L52,46v-.31a.5.5,0,0,0-.82-.36Z"/></svg>