<svg id="Layer_1" data-name="Layer 1" xmlns="http://www.w3.org/2000/svg" viewBox="0 0 88 120"><title>image-jamkid-mascot-shadow</title><ellipse cx="44" cy="54.1" rx="13.29" ry="2.05"/><path d="M57.29,54.1H57L56.8,54v.05H57L56.8,54l.06,0-.05,0v0l.06,0-.05,0a.88.88,0,0,1-.29.2,7.49,7.49,0,0,1-1.71.54A55.7,55.7,0,0,1,44,55.65a64.62,64.62,0,0,1-9.32-.59,15.47,15.47,0,0,1-2.75-.63,2.62,2.62,0,0,1-.64-.31L31.2,54l-.05,0,.06,0v0l-.05,0,.06,0L31,54.1h.16V54L31,54.1h0l.15.05V54.1H31l.15.05-.06,0,.05,0v0l-.06,0,.05,0a.87.87,0,0,1,.29-.2,7.49,7.49,0,0,1,1.71-.54A55.67,55.67,0,0,1,44,52.55a64.58,64.58,0,0,1,9.32.59,15.45,15.45,0,0,1,2.75.63,2.62,2.62,0,0,1,.64.31l.08.08.05,0-.06,0h0l.05,0-.06,0L57,54.1h-.16v.05L57,54.1h.84a.88.88,0,0,0-.15-.48,1.73,1.73,0,0,0-.67-.54,8.4,8.4,0,0,0-2-.63,56.56,56.56,0,0,0-11-.89,65.54,65.54,0,0,0-9.47.61,16.35,16.35,0,0,0-2.94.68,3.53,3.53,0,0,0-.9.45,1.34,1.34,0,0,0-.32.33.85.85,0,0,0,0,1,1.73,1.73,0,0,0,.67.54,8.4,8.4,0,0,0,2,.63,56.59,56.59,0,0,0,11,.89A65.58,65.58,0,0,0,53.47,56a16.34,16.34,0,0,0,2.94-.68,3.52,3.52,0,0,0,.9-.45,1.34,1.34,0,0,0,.32-.33.88.88,0,0,0,.15-.48Z"/></svg>