<svg id="Layer_1" data-name="Layer 1" xmlns="http://www.w3.org/2000/svg" viewBox="0 0 90 138.33"><defs><style>.cls-1,.cls-2,.cls-3,.cls-4,.cls-5{stroke:#000;}.cls-1,.cls-3{stroke-miterlimit:10;}.cls-2{fill:#fff;}.cls-2,.cls-3,.cls-4,.cls-6{stroke-linecap:round;}.cls-2,.cls-4,.cls-5,.cls-6{stroke-linejoin:round;}.cls-3,.cls-4,.cls-5,.cls-6{fill:none;}.cls-6{stroke:#fff;}</style></defs><title>kyle-body</title><ellipse class="cls-1" cx="42.71" cy="131.27" rx="25.19" ry="2.53"/><polygon class="cls-2" points="27.54 84.85 30.28 108.52 31.93 124.97 38.87 124.97 40.17 113.53 41.07 108.52 43.26 84.85 27.54 84.85"/><path class="cls-2" d="M38,130.72H25.89V129c0-1.59,4-4,6.22-4h6.95v4.66A1.1,1.1,0,0,1,38,130.72Z"/><path class="cls-2" d="M33.48,108.46a2.72,2.72,0,1,1-2.83-4.64"/><polygon class="cls-2" points="34.01 124.97 31.85 124.97 30.75 122.47 34.01 122.47 34.01 124.97"/><line class="cls-2" x1="25.89" y1="128.99" x2="39.06" y2="128.99"/><polygon class="cls-2" points="56.47 84.85 55.22 108.52 53.57 124.97 46.62 124.97 45.32 113.53 44.43 108.52 42.23 84.85 56.47 84.85"/><path class="cls-2" d="M47.54,130.72H59.6V129c0-1.59-4-4-6.22-4H46.44v4.66A1.1,1.1,0,0,0,47.54,130.72Z"/><path class="cls-2" d="M52,108.46a2.72,2.72,0,1,0,2.83-4.64"/><polygon class="cls-2" points="51.49 124.97 53.65 124.97 54.75 122.47 51.49 122.47 51.49 124.97"/><line class="cls-2" x1="59.6" y1="128.99" x2="46.44" y2="128.99"/><rect class="cls-2" x="21.18" y="56.32" width="5.81" height="33.89"/><path class="cls-2" d="M23.46,89.84,23,92.55a1.6,1.6,0,0,1-3.14-.6c.43-2.26.72-3.75.91-4.77-.37-2.37,0-4.41,1-5.62"/><path class="cls-2" d="M22.63,87.51l-.76,5.67A1.6,1.6,0,1,0,25,93.6l.69-4.87"/><path class="cls-2" d="M24.93,87.18l0,6.52a1.6,1.6,0,0,0,3.2,0l0-6.35"/><path class="cls-2" d="M21.18,62.81V52.08c0-12.92,9.64-12.48,21.53-12.48s21.53-.44,21.53,12.48v6.26a4.46,4.46,0,0,1-4.46,4.46Z"/><rect x="21.18" y="62.81" width="5.81" height="1.65"/><path d="M31.42,45.37a17.63,17.63,0,0,0,22.58,0,14.1,14.1,0,0,0,3.48-4.54c-3.86-1.33-9-1.23-14.77-1.23s-10.91-.1-14.77,1.23A14.1,14.1,0,0,0,31.42,45.37Z"/><path class="cls-3" d="M57.89,63.49l0-8.4a5,5,0,0,1,6-.07"/><path d="M58.34,66.5h0A6.66,6.66,0,0,0,65,59.85V47.09a6.66,6.66,0,0,0-6.66-6.66h0Z"/><polyline class="cls-2" points="58.44 53.12 58.44 77.62 26.99 77.62 26.99 53.12"/><polygon class="cls-2" points="44.03 77.62 41.4 77.62 26.99 77.62 29.97 124.6 40.05 124.6 42.71 87.71 45.37 124.6 55.45 124.6 57.44 77.62 44.03 77.62"/><line class="cls-2" x1="41.17" y1="87.49" x2="44.14" y2="87.49"/><path class="cls-4" d="M58.12,80.93a4.19,4.19,0,0,1-5.92,0"/><path class="cls-4" d="M32.91,80.93a4.19,4.19,0,0,1-5.92,0"/><path class="cls-4" d="M51.49,125a5,5,0,0,0,6.18,2.19"/><path class="cls-4" d="M51.49,125a5,5,0,0,0,6.18,2.19"/><path class="cls-4" d="M34,125a5,5,0,0,1-6.18,2.19"/><path d="M37.81,69.26c-.11.34-.21.76-.32,1.11a.13.13,0,0,1-.21.08,7.75,7.75,0,0,1-1.08-.74c-1.08.95-2.07,1.89-3,2.84-.29.26-.63,0-.37-.32,1.05-1.21,1.66-1.92,3.6-4.36.37-.47.66-.92.95-1.31s.42-.63.32-.79-.34-.08-.76.11-1,.58-1.44.81a1.64,1.64,0,0,0,.21.32c.08.08.08.13,0,.24a4.77,4.77,0,0,1-.6.92c-.13.16-.24.24-.37.08a10.79,10.79,0,0,1-2-8.83c.05-.26.21-.34.4-.24l1,.52c.11.05.11.13.08.24s-.05.26-.08.42a12.4,12.4,0,0,0,1.73,0c.29,0,.4-.05.42-.18s-.05-.18-.24-.29c-1.89-1-3.81-1.76-4.39-2-.34-.16-.21-.47.13-.37l1.36.37c.21-.42.42-.95.68-1.36a1.42,1.42,0,0,0,.29-.79c0-.21-.13-.42.08-.34.18-.11,0-.32.18-.32a.44.44,0,0,1,.24.08c.16-.32.13-.52.24-.52s.18,0,.24.34c.11-.13.26-.08.24.24,0,0,.05-.4.16-.42s.21.08.21.26c.16-.32.55-.52.68-.4s0,.21-.11.32c-.42.4-.34.42-.08.26.52-.32.16.32-.05.55.29-.18.34-.29.47-.24s-.24.34-.05.47.08.26-.05.26a1.74,1.74,0,0,0-1.31.87,6.35,6.35,0,0,0-.58,1.24c.55.16,1.26.32,1.6.4s.52.13.5.24a1.27,1.27,0,0,0,0,.63c0,.11.08.08.11,0a5.45,5.45,0,0,1,.79-1.42,2.49,2.49,0,0,1-.32-.66.72.72,0,0,1,0-.52,2,2,0,0,1,.58-.76,3.14,3.14,0,0,1-.08-.74c0-2,1.92-3.73,4.94-3.73a8.91,8.91,0,0,1,6,2.08.07.07,0,0,1,0,.11c-.44.26-.68.37-1.16.66a.2.2,0,0,1-.24,0l-.63-.42a14.47,14.47,0,0,0-.87,1.89c-.05.13-.11.13-.18.08a4.1,4.1,0,0,0-.71-.44c-.11-.05-.13-.13-.05-.21a18.86,18.86,0,0,0,1.31-1.58,8.05,8.05,0,0,0-3.58-.81c-1.87,0-3.26.84-3.39,2.23a3.14,3.14,0,0,1,1.24-.26.7.7,0,0,1,.37.13,2.71,2.71,0,0,1,.74.71,4.61,4.61,0,0,1,.89-.11A6.18,6.18,0,0,1,46.14,57c.11.08.21,0,.16-.08a1.25,1.25,0,0,0-.18-.32c-.08-.11-.05-.13.11-.24a45.11,45.11,0,0,0,5.31-4.15c.34-.29.63-.05.32.29-.66.71-1.34,1.44-2.1,2.29A7.7,7.7,0,0,1,51,56.47c.32-.16.63-.29,1-.5s.52.11.24.32-.63.4-.95.6a10.82,10.82,0,0,1,1.08,4.78,11,11,0,0,1-.52,3.44c-.05.16-.16.16-.24.08A8.51,8.51,0,0,1,50.62,64a.37.37,0,0,1-.08-.34,10,10,0,0,0,.18-2,9,9,0,0,0-.79-3.78,9,9,0,0,0-1.63,1.55.36.36,0,0,0-.05.37,6.76,6.76,0,0,1,.32,2A5.51,5.51,0,0,1,48.44,63a19.19,19.19,0,0,0,4.89,4.55c.34.26.08.55-.21.37-.66-.42-1.36-.84-2.05-1.21a7,7,0,0,1-.92,1.39,9.33,9.33,0,0,1,.74.68c.32.32,0,.66-.32.42s-.5-.44-.79-.68a9.73,9.73,0,0,1-7.38,3.21A10.13,10.13,0,0,1,38.61,71c-.16.24-.29.5-.44.79s-.5.18-.37-.16c.37-.95.79-1.95,1.26-3.47.21-.71-.05-.92-.6-.42l-1.13,1,.42.32A.15.15,0,0,1,37.81,69.26Zm-.5-4c.08,0,.13,0,.05-.11a2.42,2.42,0,0,1-.45-.66,5.88,5.88,0,0,1-.52-2.84.26.26,0,0,0-.11-.13,8.44,8.44,0,0,0-2.21-.55c0,.29,0,.52,0,.74a9.1,9.1,0,0,0,1.13,4.57A15.06,15.06,0,0,0,36.58,65c.05-.05.08,0,.13,0A1.62,1.62,0,0,0,37.32,65.21Zm2.13.95c.18.13.34-.05.18-.21A6,6,0,0,1,38,61.66a5.08,5.08,0,0,1,2.18-4.26c.34-.24.29-.47.05-.34a5.2,5.2,0,0,0-2.89,4.55A5.06,5.06,0,0,0,39.44,66.16Zm-1.66-8.8a1.79,1.79,0,0,0,.18.44c.08.13.24.05.18-.08a.6.6,0,0,1,0-.63A7.2,7.2,0,0,1,39.26,56c.16-.13.05-.26-.08-.18a3.77,3.77,0,0,0-1.29,1.05A.46.46,0,0,0,37.79,57.36ZM48.56,67.68a5.31,5.31,0,0,0-1.29-.95.24.24,0,0,1-.08-.34,3.4,3.4,0,0,0,.42-1c.08-.37-.05-.4-.24-.08a4.86,4.86,0,0,1-.87,1.16A5.89,5.89,0,0,1,42.44,68h-.37a.28.28,0,0,0-.24.13,4.29,4.29,0,0,0-.55,1.31c-.11.4-.52.4-.44-.05a3.48,3.48,0,0,0,.08-1.11c0-.34-.26-.37-.5-.05a12.19,12.19,0,0,0-1.13,1.66,9.22,9.22,0,0,0,3.1.52A8.05,8.05,0,0,0,48.56,67.68ZM39.79,60.4a5.86,5.86,0,0,0,.79,3,3.34,3.34,0,0,0,2.81,1.81,2.8,2.8,0,0,0,2.47-1.31l-.74-1.21H45a2.07,2.07,0,0,1-1.52.74c-.66,0-1.16-.52-1.58-1.21C41.29,61,41,60,41.6,60c.32,0,.74.68,1.29,1.79H43l1.24-.81c-.5-1.5-1.52-2.47-2.55-2.47A1.84,1.84,0,0,0,39.79,60.4ZM49,57.57a3.57,3.57,0,0,0,.58-.32,6,6,0,0,0-.89-1.31l-.32.37C47.56,57.28,47.35,58.4,49,57.57Zm.69,8.38A4.61,4.61,0,0,0,49,65.6c-.32-.13-.66-.21-.79-.11s-.13.4.11.71a7.4,7.4,0,0,0,.71.89A5,5,0,0,0,49.72,65.95Z"/><path d="M27,40.43h0a0,0,0,0,1,0,0V79.92a0,0,0,0,1,0,0H20.33a0,0,0,0,1,0,0V47.09A6.66,6.66,0,0,1,27,40.43Z"/><path class="cls-5" d="M27,79.92H20.33V47.09A6.66,6.66,0,0,1,27,40.43h0"/><polygon points="31.71 84.85 26 84.85 26.99 40.43 31.71 40.43 31.71 84.85"/><line class="cls-6" x1="26.99" y1="84.35" x2="27.78" y2="49.47"/><path class="cls-6" d="M21.33,78.43V47.59c0-7,6.52-6.13,7.53-6.13"/><polyline class="cls-5" points="26.99 40.43 31.71 40.43 31.71 84.85 26 84.85 26.62 57.08"/><path d="M58.34,40.75v-.32H53.62V84.85h5.71l-1-44.1C58.06,40.81,57.93,40.81,58.34,40.75Z"/><path class="cls-6" d="M64,63.52V47.59c0-6.59-6.34-6.36-7.51-6.48"/><path class="cls-5" d="M58.34,66.5h1.13A5.53,5.53,0,0,0,65,61V47.09a6.66,6.66,0,0,0-6.66-6.66h0"/><line class="cls-6" x1="58.34" y1="84.35" x2="57.55" y2="49.47"/><polyline class="cls-5" points="58.34 40.43 53.62 40.43 53.62 84.85 59.33 84.85 58.5 47.79 58.42 43.92"/><polygon points="57.06 43.54 28.36 43.54 26.09 37.78 59.33 37.78 57.06 43.54"/><polyline class="cls-6" points="29.48 43.05 27.21 38.76 58.21 38.76 55.94 43.05"/><polyline class="cls-4" points="28.36 43.54 26.09 37.78 59.33 37.78 57.06 43.54"/></svg>