<?xml version="1.0" encoding="utf-8"?>
<!-- Generator: Adobe Illustrator 22.0.1, SVG Export Plug-In . SVG Version: 6.00 Build 0)  -->
<svg version="1.1" id="Layer_1" xmlns="http://www.w3.org/2000/svg" xmlns:xlink="http://www.w3.org/1999/xlink" x="0px" y="0px"
	 viewBox="0 0 190 90" style="enable-background:new 0 0 190 90;" xml:space="preserve">
<title>logo-fieldnotes</title>
<path d="M40.7,37h6.7V26.9h7.3v-5.7h-7.3v-4.3h8.1v-5.7H40.7V37z M44.3,66.9L44.3,66.9L32,51.2h-6.7v25.7H32V61.1h0.1l12.3,15.8h6.7
	V51.2h-6.7v15.7H44.3z M97.8,31.3h-8v-4.4h7.5v-5.7h-7.5v-4.3h8v-5.7H83.2V37h14.6V31.3z M72.3,11.2h-6.7V37h6.7L72.3,11.2z
	 M74.7,50.3c-7.4,0-14.2,5.5-14.2,13.2c0,8.3,6,14.2,14.2,14.2c8.3,0,14.2-5.9,14.2-14.2C89,55.8,82.2,50.3,74.7,50.3z M74.7,71.3
	c-4.1,0-7.3-3.4-7.3-7.4c0-0.1,0-0.2,0-0.3c0-3.5,3.3-6.8,7.3-6.8S82,60,82,63.6c0.2,4.1-3,7.5-7,7.7C74.9,71.3,74.8,71.3,74.7,71.3
	z M176.9,53.7c0-0.6-0.4-0.9-1-0.9h-1.1v3h0.8v-1.1l0,0l0.7,1.1h1l-0.9-1.2C176.7,54.4,176.9,54.1,176.9,53.7z M175.6,54.1
	L175.6,54.1l-0.1-0.7h0.1c0.3,0,0.5,0,0.5,0.4C176.1,54.1,175.8,54.1,175.6,54.1L175.6,54.1z M154.4,24.1c0-7.2-5.9-12.9-13-12.9
	c0,0,0,0-0.1,0h-9.5V37h9.5C148.5,37.1,154.3,31.3,154.4,24.1C154.4,24.1,154.4,24.1,154.4,24.1z M140,31.3h-1.5V16.9h1.6
	c4.3,0,7.3,2.6,7.3,7.2C147.5,29.1,144,31.3,140,31.3z M175.7,51.2c-1.7,0-3.1,1.4-3.1,3.1s1.4,3.1,3.1,3.1s3.1-1.4,3.1-3.1
	C178.8,52.6,177.4,51.2,175.7,51.2z M175.7,56.6c-1.2,0-2.3-1-2.3-2.2c0,0,0,0,0-0.1c-0.1-1.2,0.9-2.2,2.1-2.3c0.1,0,0.1,0,0.2,0
	c1.2,0,2.3,1,2.3,2.2c0,0,0,0,0,0.1c0.1,1.2-0.9,2.2-2.1,2.3C175.8,56.6,175.8,56.6,175.7,56.6z M160,61.2l-1.7-0.5
	c-1.2-0.4-3-1-3-2.5c0-1.4,1.6-2.2,2.9-2.2c1.6,0,3.2,0.6,4.4,1.7l2.7-5.2c-2.5-1.3-5.3-2.1-8.1-2.1c-5.2,0-8.9,3.4-8.9,8.6
	c0,5,2.8,6.1,7,7.3c1.4,0.4,4.1,1.1,4.1,2.9s-1.7,2.6-3.2,2.6c-2.2-0.1-4.3-1.1-5.9-2.7l-2.9,5.4c2.6,1.8,5.8,2.9,9,2.9
	c2.6,0.1,5.2-0.8,7.3-2.4c1.9-1.8,2.8-4.3,2.7-6.9C166.4,64.1,163.6,62.3,160,61.2z M115.2,11.2h-6.7V37h14.7v-5.7h-8V11.2z
	 M123.3,76.9h14.6v-5.7h-8v-4.4h7.5v-5.7H130v-4.3h8v-5.7h-14.6v25.8L123.3,76.9z M96.6,56.9h5.5V77h6.7V56.9h5.5v-5.7H96.5
	L96.6,56.9L96.6,56.9z"/>
</svg>
