<svg id="Layer_1" data-name="Layer 1" xmlns="http://www.w3.org/2000/svg" viewBox="0 0 200 40"><title>logo-tradecraft</title><path d="M58.91,18.1v-.9c1.7-1,2.7-1.9,3.2-3.3h.7V17h3.3v1.2h-3.3v7.5c0,2.3.4,3,1.7,3a2.06,2.06,0,0,0,1.9-1.1l.6.5a3.24,3.24,0,0,1-3.3,1.9c-2.2,0-3.3-1.1-3.3-3V18.3h-1.5Z"/><path d="M72.61,25.6c0,2.7.1,2.9,2,3v.9h-6.5v-.9c1.9-.1,2.1-.4,2.1-2.9V22.8c0-4.5,0-4.6-2.2-4.6v-.9l4.3-.9.3,3h.1A5.09,5.09,0,0,1,77,16.1c1.1,0,1.7.5,1.7,1.4a1.24,1.24,0,0,1-1.4,1.3c-1,0-1.3-.6-1.9-.6-.9,0-1.9,1.3-2.4,3a12,12,0,0,0-.4,3.5v.9Z"/><path d="M87.51,21.2v-1c0-2-.8-3-2.6-3-1.1,0-1.4.3-1.9,1.6-.4.9-.6,1.2-1.3,1.2a1.06,1.06,0,0,1-1.2-1.2c0-1.6,1.7-2.5,4.8-2.5,3.3,0,4.5,1,4.5,3.8v5.5c0,1.9.4,2.8,1.1,2.8a1.22,1.22,0,0,0,1.2-.5l.3.6a3.1,3.1,0,0,1-2.7,1.3c-1.4,0-2.1-1-2.1-2.6h-.1a4.93,4.93,0,0,1-4.3,2.6c-2,0-3.3-1.2-3.3-2.9s1-2.8,4-4.1Zm0,1.1c-3.8,1.4-5,2.7-5,4.2a1.79,1.79,0,0,0,2,1.8c1.7,0,3.1-1.8,3.1-4.1V22.3Z"/><path d="M104.41,27.5h0a5.11,5.11,0,0,1-4.3,2.3c-3.7,0-6.4-2.8-6.4-6.8a6.33,6.33,0,0,1,6.4-6.7,5.44,5.44,0,0,1,3.9,1.6V15.4a28.54,28.54,0,0,0-.1-3.6c-.2-.7-.8-1-2.5-1v-.7l5-.9V23.4a20.3,20.3,0,0,0,.2,4.3c.2.8.5,1,2,1v.8l-4.1.3V27.5Zm-.5-5.4c0-1.7-.1-2.4-.7-3.1a3.93,3.93,0,0,0-3.2-1.5c-2.3,0-3.6,2.1-3.6,5.4,0,3.5,1.3,5.7,3.6,5.7a4.09,4.09,0,0,0,3.2-1.5c.5-.7.6-1.6.6-3.4V22.1Z"/><path d="M120.71,27.3a6.39,6.39,0,0,1-5.2,2.5c-3.8,0-6.4-2.7-6.4-6.6a6.57,6.57,0,0,1,6.7-6.9c3.1,0,5,1.8,5,5,0,.4-.1.5-.8.5h-8.1a3.75,3.75,0,0,0-.1,1.1c0,3.4,1.7,5.6,4.3,5.6a4.83,4.83,0,0,0,3.7-1.9Zm-4.1-6.7c1.3,0,1.5-.1,1.5-.7a2.47,2.47,0,0,0-2.7-2.5c-1.7,0-2.9,1.1-3.3,3.2Z"/><path d="M134,27.5a6.92,6.92,0,0,1-5.3,2.3c-3.5,0-5.9-2.7-5.9-6.7,0-4.2,2.7-6.9,6.8-6.9,2.5,0,4.3.9,4.3,2.2,0,.6-.5,1-1.2,1s-.9-.2-1.5-1a2.28,2.28,0,0,0-2.1-1c-2.3,0-3.5,1.8-3.5,5.3,0,3.7,1.4,5.7,3.9,5.7a5.11,5.11,0,0,0,3.8-1.7Z"/><path d="M140.21,25.6c0,2.7.1,2.9,2,3v.9h-6.5v-.9c1.9-.1,2.1-.4,2.1-2.9V22.8c0-4.5,0-4.6-2.2-4.6v-.9l4.3-.9.3,3h.1a5.09,5.09,0,0,1,4.3-3.3c1.1,0,1.7.5,1.7,1.4a1.24,1.24,0,0,1-1.4,1.3c-1,0-1.4-.6-1.9-.6-.9,0-1.9,1.3-2.4,3a12,12,0,0,0-.4,3.5Z"/><path d="M155,21.2v-1c0-2-.8-3-2.6-3-1.1,0-1.4.3-1.9,1.6-.4.9-.6,1.2-1.3,1.2a1.06,1.06,0,0,1-1.2-1.2c0-1.6,1.7-2.5,4.8-2.5,3.3,0,4.5,1,4.5,3.8v5.5c0,1.9.4,2.8,1.1,2.8a1.22,1.22,0,0,0,1.2-.5l.3.6a3.1,3.1,0,0,1-2.7,1.3c-1.4,0-2.1-1-2.1-2.6H155a4.93,4.93,0,0,1-4.3,2.6c-2,0-3.3-1.2-3.3-2.9s1-2.8,4-4.1Zm0,1.1c-3.8,1.4-5,2.7-5,4.2a1.79,1.79,0,0,0,2,1.8c1.7,0,3.1-1.8,3.1-4.1V22.3Z"/><path d="M160.61,16.9h2.8V15.1c0-3.8,2.1-6,5.7-6,2,0,3.4.7,3.4,1.7a1.13,1.13,0,0,1-1.1,1.2c-.4,0-.8-.2-1.5-.8a2.35,2.35,0,0,0-1.8-.8,2.13,2.13,0,0,0-2.1,1.5,7.6,7.6,0,0,0-.4,3.2V17h4v1.2h-4v7.5c0,2.4.5,3,2.6,3.1v.9h-7v-.9c1.9-.1,2.1-.4,2.1-2.9V18.2h-2.8V16.9Z"/><path d="M171.91,18.1v-.9c1.7-1,2.7-1.9,3.2-3.3h.7V17h3.3v1.2h-3.3v7.5c0,2.3.4,3,1.7,3a2.06,2.06,0,0,0,1.9-1.1l.6.5a3.24,3.24,0,0,1-3.3,1.9c-2.2,0-3.3-1.1-3.3-3V18.3h-1.5Z"/><rect x="36.32" y="6.38" width="7.6" height="15.2" transform="translate(1.86 32.46) rotate(-45)"/><rect x="26.13" y="23.02" width="15.2" height="6.7" transform="translate(-8.77 31.58) rotate(-45)"/><rect x="20.13" y="17.01" width="15.2" height="6.7" transform="translate(-6.27 25.57) rotate(-45)"/></svg>