<svg id="Layer_1" data-name="Layer 1" xmlns="http://www.w3.org/2000/svg" viewBox="0 0 200 40"><title>logo-fontself</title><path d="M147,34.62q-4.89-4.88-9.77-9.78a7,7,0,0,1,.3-9.95q4.59-4.55,9.15-9.15a7,7,0,0,1,10.21.05q4.61,4.63,9.24,9.25A7,7,0,0,1,166,25.16q-4.63,4.61-9.25,9.24C152.8,38.34,147.93,35.54,147,34.62Zm5.29-3.73,3.16-3.16-3.66-3.58,4.13-4.1-3.76-3.74-7.23,7.23Zm.1-21.73L141.53,20l3,3,10.85-10.9Z"/><path d="M31.82,16.5h1.87c.07-2.36.42-4.57,2.58-5.94A7,7,0,0,1,41.84,10l-.16,3.36c-2.9-.18-3.71.54-3.49,3.14H41v3.29H38.2v11H33.73v-11H31.82Z"/><path d="M56.2,23.57c0,4.61-3.06,7.6-7.69,7.58A7,7,0,0,1,41.2,23.7c0-4.62,3.09-7.6,7.77-7.57C53.3,16.16,56.22,19.17,56.2,23.57Zm-7.43-4.23c-4,0-4,8.68,0,8.61C52.57,27.88,52.56,19.37,48.77,19.34Z"/><path d="M58.07,16.51h3.75l.24,1.92a3.06,3.06,0,0,0,.27-.25,5.37,5.37,0,0,1,5.84-1.8,4.76,4.76,0,0,1,3.39,4.42,44,44,0,0,1,.14,4.53c0,1.81,0,3.61,0,5.49-1.43,0-2.81,0-4.19,0-.1,0-.27-.37-.27-.57,0-2.36,0-4.71,0-7.07a7.56,7.56,0,0,0-.14-1.57,2,2,0,0,0-2.2-1.83,2.43,2.43,0,0,0-2.28,2,6.94,6.94,0,0,0-.08,1.13c0,2.38,0,4.75,0,7.13,0,.23,0,.46,0,.74H58.07Z"/><path d="M99.43,25.06a2.62,2.62,0,0,0,1.74,2.3,7.78,7.78,0,0,0,4.22.3c.66-.09,1.31-.27,2-.42.17.89.37,1.78.51,2.69,0,.13-.25.39-.43.46a13.68,13.68,0,0,1-5.71.68,8.84,8.84,0,0,1-1.49-.24,6.27,6.27,0,0,1-5-5.37A8.23,8.23,0,0,1,97,18.52a7.21,7.21,0,0,1,8.58-1.62,6.15,6.15,0,0,1,3.1,5,26.31,26.31,0,0,1,0,3.18ZM104.61,22a2.46,2.46,0,0,0-2.46-2.86A2.73,2.73,0,0,0,99.48,22Z"/><path d="M118.29,16.52c0-2.39.41-4.55,2.49-5.92a7,7,0,0,1,5.66-.63l-.17,3.38c-1-.11-2.09-.43-2.89.45a3.47,3.47,0,0,0-.63,2.67h2.83v3.3h-2.8v11h-4.46v-11h-1.87V16.52Z"/><path d="M92.8,19.85c-1.15-.21-2.21-.42-3.28-.58s-2.15,1.16-1.05,2a8.5,8.5,0,0,0,1.47.7A17.54,17.54,0,0,1,92.26,23a4.2,4.2,0,0,1-.16,7.12,8.12,8.12,0,0,1-5.31.92,22.18,22.18,0,0,1-3-.71c-.38-.1-.53-.3-.39-.74.27-.86.45-1.74.67-2.64a8.72,8.72,0,0,0,4.11,1c2-.09,2-1.71,1-2.19-.54-.27-1.12-.46-1.67-.72a16.45,16.45,0,0,1-2-1,4,4,0,0,1-.23-6.64,6.75,6.75,0,0,1,4.95-1.27,23,23,0,0,1,2.76.59c.4.09.53.32.41.73C93.17,18.32,93,19.15,92.8,19.85Z"/><path d="M74.86,19.78H73V16.5h1.86c0-.72,0-1.38,0-2s.17-.73.66-.85c1.22-.3,2.42-.64,3.71-1v3.85h3.17v3.3H79.21c0,.64,0,1.23,0,1.81,0,1.32,0,2.65,0,4,.09,1.55.63,2,2.17,1.93.27,0,.54,0,.89-.08,0,1,0,2.07,0,3.1a.45.45,0,0,1-.28.33,7.42,7.42,0,0,1-4.88-.19c-1.73-.8-2.19-2.37-2.26-4.07-.08-2,0-4,0-5.93C74.86,20.38,74.86,20.13,74.86,19.78Z"/><path d="M115,30.81h-4.36V10H115Z"/><path d="M128.9,31.3a1.54,1.54,0,0,1-1.55-1.57A1.59,1.59,0,0,1,129,28.14a1.61,1.61,0,0,1,1.56,1.59A1.57,1.57,0,0,1,128.9,31.3Zm0-2.82a1.24,1.24,0,0,0-1.26,1.27A1.29,1.29,0,0,0,128.9,31a1.28,1.28,0,0,0,1.29-1.26A1.23,1.23,0,0,0,128.92,28.48Z"/><path d="M129.63,29.34c-.39.13-.83-.54-1,.11-.07.21,0,.64.09.68a2.66,2.66,0,0,0,1,0c-.22.2-.41.5-.54.47a1.33,1.33,0,0,1-.85-.45.8.8,0,0,1,.3-1.15A.7.7,0,0,1,129.63,29.34Z"/></svg>