<svg id="Layer_1" data-name="Layer 1" xmlns="http://www.w3.org/2000/svg" viewBox="0 0 200 40"><defs><style>.cls-1{fill:none;stroke:#fff;stroke-width:3px;}</style></defs><title>logo-abstract</title><g id="Logos"><g id="abstract-logo"><path id="Combined-Shape-Copy-6" d="M53,36.36c12.8,0,16-3.2,16-16s-3.2-16-16-16-16,3.2-16,16S40.23,36.36,53,36.36Z"/><g id="paths"><polyline id="Path-2" class="cls-1" points="44.53 13.36 60.03 13.36 60.03 28.86"/><circle id="Oval" class="cls-1" cx="50.41" cy="22.98" r="4.63"/></g><g id="wordmark"><path id="Fill-1" d="M81.68,22.5c1.49-4.15,2.09-5.83,2.64-7.53.79,2.47,1.61,4.77,2.57,7.53Zm1-10.58L76.28,28.86h3.29l1.37-4h6.69l1.34,4h3.31L86.09,11.92Z"/><path id="Fill-4" d="M99,26.75c-1.78,0-2.81-1.46-2.81-4,0-2.28,1.2-3.72,2.9-3.72s2.59,1.46,2.59,3.86-1,3.86-2.69,3.86m-2.73-8.23v-6.6H93.47V28.86h2.69V27.3a4,4,0,0,0,3.55,1.8c3,0,4.92-2.3,4.92-6.21s-1.8-6.21-4.61-6.21A4.59,4.59,0,0,0,96.28,18.52Z"/><path id="Fill-6" d="M110.53,18.71a3,3,0,0,1,2.67,1.68L115.28,19a5.31,5.31,0,0,0-4.71-2.4c-3,0-4.64,1.73-4.64,3.6s1.18,2.91,3,3.48l1.27.41c1.8.58,2.21.91,2.21,1.71s-.67,1.25-1.9,1.25a3.36,3.36,0,0,1-3.05-1.95l-2.19,1.44a5.89,5.89,0,0,0,5.12,2.69c3,0,4.83-1.61,4.83-3.82,0-1.92-1.2-2.91-3.31-3.58l-1.27-.38c-1.54-.48-1.92-.82-1.92-1.54s.58-1.18,1.78-1.18"/><path id="Fill-8" d="M121,19.17h2.31V16.92H121V13h-2.8l0,3.91h-1.87v2.25h1.88v6.55a3.72,3.72,0,0,0,.67,2.53,3,3,0,0,0,2.45.87,8.45,8.45,0,0,0,2.09-.26V26.6a3.47,3.47,0,0,1-1.15.22c-.87,0-1.22-.43-1.22-1.66Z"/><path id="Fill-10" d="M127.56,16.92h-2.69v12h2.81V23.33a4.8,4.8,0,0,1,.63-2.75,2.78,2.78,0,0,1,2.56-1.19,3.82,3.82,0,0,1,1,.16V16.92a3.31,3.31,0,0,0-1-.16,3.42,3.42,0,0,0-3.31,2Z"/><path id="Fill-17" d="M140,23.83a3.48,3.48,0,0,1-.53,1.9A2.9,2.9,0,0,1,137,27c-1.25,0-1.83-.65-1.83-1.51a1.48,1.48,0,0,1,1-1.47,11.75,11.75,0,0,1,3.82-.72Zm2.68-2.52c0-1.87-.25-2.86-1-3.56a4.9,4.9,0,0,0-3.58-1.15c-3.05,0-5,1.44-5.17,4l2.7.24a2,2,0,0,1,2.26-2.07,2.32,2.32,0,0,1,1.66.5,1.93,1.93,0,0,1,.46,1.44v.65a18.73,18.73,0,0,0-5.38,1,3.3,3.3,0,0,0-2.19,3.2,3.43,3.43,0,0,0,3.73,3.51,4.81,4.81,0,0,0,3.92-1.71c.26,1.2,1.1,1.64,2.61,1.64a3.85,3.85,0,0,0,1.28-.19V27c-1.08.2-1.27-.44-1.28-1.38Z"/><path id="Fill-12" d="M147.44,22.82c0-2.66,1.25-3.89,2.88-3.89,1.13,0,2,.53,2.33,2.11l2.52-.86a4.61,4.61,0,0,0-4.78-3.6c-3.58,0-5.84,2.38-5.84,6.29s2.21,6.34,5.69,6.34a4.9,4.9,0,0,0,5-3.43l-2.52-.86a2.21,2.21,0,0,1-2.33,1.94C148.55,26.85,147.44,25.46,147.44,22.82Z"/><path id="Fill-8-2" data-name="Fill-8" d="M160.59,19.17h2.31V16.92h-2.31V13h-2.8l0,3.91h-1.87v2.25h1.88v6.55a3.72,3.72,0,0,0,.67,2.53,3,3,0,0,0,2.45.87,8.45,8.45,0,0,0,2.09-.26V26.6a3.47,3.47,0,0,1-1.15.22c-.87,0-1.22-.43-1.22-1.66Z"/></g></g></g></svg>