<svg xmlns="http://www.w3.org/2000/svg" width="362" height="216" viewBox="0 0 362 216">
  <title>logo-stickermule</title>
  <path d="M20.7,210.2c-6,0-11.3-.7-16.1-5.4l6.2-6.2c3.1,3.1,7.2,3.6,10.1,3.6,3.3,0,6.7-1.1,6.7-3.9,0-1.9-1-3.2-4-3.5l-6-.6c-6.8-.7-11-3.6-11-10.6,0-7.8,6.9-12.1,14.6-12.1,5.9,0,10.8,1,14.5,4.4l-5.8,5.9c-2.2-2-5.5-2.5-8.8-2.5-3.8,0-5.4,1.7-5.4,3.6,0,1.4.6,3,3.9,3.3l6,.6c7.5.7,11.3,4.7,11.3,11.1C36.7,206.2,29.6,210.2,20.7,210.2Z"/>
  <path d="M53.2,209.8c-7.7,0-11-5.4-11-10.8V180.3h-4V173h4V161.8h9.4V173h6.7v7.2H51.6v18.2c0,2.2,1,3.4,3.3,3.4h3.4v8Z"/>
  <path d="M62.5,165.5v-7.7h9.7v7.7Zm.2,44.3V172h9.4v37.8Z"/>
  <path d="M93.5,210.2c-7.6,0-16.9-4.1-16.9-19.4s9.4-19.3,16.9-19.3c5.2,0,9.2,1.6,12.5,5.1L99.6,183c-2-2.1-3.6-3-6.1-3a6.5,6.5,0,0,0-5.4,2.5c-1.5,1.8-2.1,4.4-2.1,8.4s.7,6.6,2.1,8.4a6.5,6.5,0,0,0,5.4,2.5c2.5,0,4.1-.9,6.1-3l6.4,6.3A16.226,16.226,0,0,1,93.5,210.2Z"/>
  <path d="M132,209.8,122.7,194l-4,4.5v11.3h-9.4V158.1h9.4v29.3l12.6-15.5h11.4l-13.5,15.3,14.5,22.6Z"/>
  <path d="M151.6,193.8c0,4.9,3,8.4,8.3,8.4a10.608,10.608,0,0,0,8.6-3.6l5.7,5.6c-3.8,3.8-7.6,6-14.4,6-8.9,0-17.5-4.1-17.5-19.4,0-12.3,6.7-19.3,16.5-19.3,10.5,0,16.5,7.7,16.5,18.1v4.2Zm13.5-10.5a6.44,6.44,0,0,0-6.3-3.9,6.584,6.584,0,0,0-6.3,3.9,10.719,10.719,0,0,0-.9,4.1H166A10.719,10.719,0,0,0,165.1,183.3Z"/>
  <path d="M200.3,182.3a6.267,6.267,0,0,0-5-2.3c-2.9,0-6.1,2.2-6.1,7v22.8h-9.4V172H189v3.6a12.805,12.805,0,0,1,9.5-4.1,11.085,11.085,0,0,1,8.9,3.6Z"/>
  <path d="M249.9,171.5a14.544,14.544,0,0,0-11.3,4.8,11.628,11.628,0,0,0-10-4.8,13.155,13.155,0,0,0-9.4,3.9V172H210v37.8h9.4V186.9c0-5.2,3.3-6.9,6.3-6.9s6.2,1.7,6.2,6.9v22.9h9.4V186.7c0-4.9,3.4-6.7,6.3-6.7,3,0,6.2,1.7,6.2,6.9v22.9h9.4V185.6a14.67,14.67,0,0,0-4.1-10.8A13.181,13.181,0,0,0,249.9,171.5Z"/>
  <path d="M290.9,194.8c0,5.2-3.3,6.9-6.3,6.9s-6.2-1.7-6.2-6.9V172H269v24.2c0,4.1.8,7.7,3.8,10.7a12.326,12.326,0,0,0,8.9,3.3,12.758,12.758,0,0,0,9.4-3.9v3.5h9.2V172h-9.4Z"/>
  <path d="M315.8,198.4V158.1h-9.4V199c0,5.4,3.3,10.8,11,10.8h5.4v-8h-3.6C316.8,201.8,315.8,200.7,315.8,198.4Z"/>
  <path d="M357.5,189.6c0-10.4-6-18.1-16.5-18.1-9.8,0-16.5,7-16.5,19.3,0,15.3,8.6,19.4,17.5,19.4,6.8,0,10.5-2.1,14.4-6l-5.7-5.6a10.475,10.475,0,0,1-8.6,3.6c-5.3,0-8.3-3.6-8.3-8.4h23.7Zm-23.7-2.2a10.719,10.719,0,0,1,.9-4.1,6.44,6.44,0,0,1,6.3-3.9,6.584,6.584,0,0,1,6.3,3.9,10.719,10.719,0,0,1,.9,4.1Z"/>
  <path d="M198.5,147c-1.3.6-3.1.5-5,.6-1.6,0-3.9.1-4.8-.8a3.057,3.057,0,0,1-.7-2,9.693,9.693,0,0,1,.3-2.3c.2-.9.4-2.1,0-2.5-.4-.6-1.9-.3-2.6-.8-.8-.5-1-1.5-1.3-2.8a10.375,10.375,0,0,0-.4-1,22.7,22.7,0,0,1,.8-6.3c.5-2,1-3.9,1.4-5.8a38.271,38.271,0,0,0,.5-9,18.124,18.124,0,0,1-.1-4c.2-1.2.7-2.2,1-3.4.1-.4,0-.8.1-1.2,0-.4.3-.7.3-1,0-.8-.2-1.8-.3-2.8a61.713,61.713,0,0,1,.2-8.7c.1-.8.4-1.7-.1-2.1a66,66,0,0,0-7.9.8c-6.9.9-15.6,1-22.3-.3a12.5,12.5,0,0,1-1.9-.3,32.023,32.023,0,0,1-12.5-5.8c-.5-.4-1.1-.9-1.7-1.3a15.5,15.5,0,0,0-1.7-1.3,6.479,6.479,0,0,0-7.4,1.9c-.4.7-.8,1.6-1.2,2.4a25.571,25.571,0,0,0-1.1,2.4c-1.8,4.1-3.8,8-5.6,12.1-1,2.4-2.2,5-3,7.6-1.6,5.6-.1,13.2,1.2,18.5a9.385,9.385,0,0,0,.6,1.5,9.625,9.625,0,0,0,2.3,3.9c.5.5,1.4.7,2,1.2a11.935,11.935,0,0,1,1.9,3c.2.4.6,1,.9,1.5.7,1.2.9,2.3-.4,3a11.239,11.239,0,0,1-3.9.8c-.6.2-.4,1-.8,1.4a9.128,9.128,0,0,1-1.7.8,13.812,13.812,0,0,1-6.4,0,3.033,3.033,0,0,1-1.7-1.4c-.4-1.1.5-2.6-.3-3.4-.4-.4-1.1-.3-1.8-.6a4.091,4.091,0,0,1-2.3-2.5c-1.1-2.8-.4-7.1-.5-10.5,0-1-.2-2.1-.2-3.2-.1-2-.5-4-.8-6a21.386,21.386,0,0,0-.6-2.7c-.3-1.4-.6-3-1-4.4a6.318,6.318,0,0,1,.1-4.5c.1-.4.5-.7.8-1.2a7.1,7.1,0,0,0,.4-2.4c-.2-.4-1.2-.1-1.4-.5-.6-4.4-1.2-8.7-1.6-13.3-.1-1.5-.1-3.1-.3-4.7-.3-3.1,0-6.3-.3-9.3-.1-1.5-.5-2.9-.7-4.3-.5-4-1.6-9.1-.8-13.3a15.593,15.593,0,0,1,3-6.8,32.462,32.462,0,0,1,3.5-3.9,35.254,35.254,0,0,1,4.1-3.4,11.729,11.729,0,0,1,3-1.9,21.694,21.694,0,0,1,8.5-2.1,46.648,46.648,0,0,1,9.9.4c3,.5,6,1.1,9,1.7,2.9.6,5.7,1.4,8.5,2.1a10.375,10.375,0,0,1,1,.4,27.971,27.971,0,0,1,2.8.6,36.5,36.5,0,0,0,9,1,38,38,0,0,0,9.2-.8,10.413,10.413,0,0,0,1.2-.5c.4-.2,1-.1,1.4-.3.3-.1.6-.4.9-.5a31.352,31.352,0,0,0,4.4-2.5,15.509,15.509,0,0,1,3.6-2.1,16.673,16.673,0,0,1,2-.8,21.887,21.887,0,0,0,4.1-1.6,42.117,42.117,0,0,0,4.4-3.9c1.5-1.3,3-2.5,4.6-3.8,3.2-2.5,6.4-4.8,9.4-7.2a36.531,36.531,0,0,1,5-3.4c3.5-2,7-4.3,12-4.7a30.087,30.087,0,0,1,6,.1,5.663,5.663,0,0,0,1.8.3c.5-.1.9-.9,1.3-1.6a26.907,26.907,0,0,0,1.9-3.8c.4-1,.2-2,1.2-1.9,1,0,.9,2.7.9,3.7.1,1.2-.1,2.8.1,3.6a1.946,1.946,0,0,0,1.7,1.4c.6,0,.9-.4,1.4-.8.5-.3,1-.5,1.4-.8a20.057,20.057,0,0,0,2.6-2.5c.7-.7,1.8-2.3,2.9-2.2,2,.2,0,3.1-.4,4.1-1,2.3-2,3.9-3.2,6.1-.5.9-1.6,2.1-1.6,3,0,.6.5,1.1.8,1.7.1.3.2.7.3,1a45.8,45.8,0,0,1,1.7,5.6c.5,1.5.8,3.2,1.4,4.7.5,1.5,1.3,2.9,1.9,4.3a6.985,6.985,0,0,1,.3,1.2c1.3,3.2,2.5,6.9,4,10a10.865,10.865,0,0,1,1.5,4.7c0,2-1.1,3-2,4.5-.5.8-1.2,2-1.9,2.3-.5.2-1.2,0-1.7.1-.8.1-1.3.6-2,.7a4.126,4.126,0,0,1-4.1-2.6,8.807,8.807,0,0,1-.2-1.7c-.4-2.2-1.5-3.3-3.1-4.8a17.039,17.039,0,0,0-3-2.3c-1.8-.9-3.7-1.5-5.6-2.5a3.571,3.571,0,0,0-2.1-.6c-1,.2-2,1.8-2.8,2.8-4.9,6.4-9.2,13-13.9,19.3-3.1,4.2-6.5,8.4-9,13.2a37.13,37.13,0,0,0-1.5,4c-.5,1.4-.7,2.9-1.2,4.3-1.8,5.2-2.4,11.6-4.1,17.1-.2.6-.2,1.2-.4,1.9-.8,2.8-1.5,6-2.4,9a32.615,32.615,0,0,0-1,8.1c-.1,2.7-.2,6.6.8,8.3.5.9,2.4,1.3,3.1,2.2.5.7.8,2,1.3,2.8.3.6,1.3,1.9,1.2,2.8a1.916,1.916,0,0,1-1.2,1.4c-.6.3-1.4.1-2,.4C198.9,145.8,199.2,146.6,198.5,147Z"/>
</svg>
