<svg xmlns="http://www.w3.org/2000/svg" width="608" height="608" viewBox="0 0 608 608">
  <title>content-circle</title>
  <g>
    <path d="M30.206,410.355l-.571.2a5.392,5.392,0,0,0-.168,4.573c.729,1.4,2.7,2.175,3.979,1.243A4.524,4.524,0,0,0,30.206,410.355Z" fill="#fff"/>
    <path d="M16.773,387.941l-1,.787c-2.235,1.108-2.792,4.2-1.977,6.557s2.613,4.218,4.152,6.184a15.8,15.8,0,0,0,3.709,3.96c1.542.966,3.778,1.132,5.035-.184A18.588,18.588,0,0,0,16.773,387.941Z" fill="#fff"/>
    <path d="M597.6,207.1c-5.114-4.818-12.079-7.552-17.039-12.514-5.392-5.394-7.842-12.8-10.556-19.806C560.178,149.434,537.72,115.66,514,94c-7.525-6.872-12.182-11.6-20.48-15.647-13.84-6.757-29.191-11-41.486-20.1-7.472-5.529-13.5-12.635-20.557-18.643-28.916-24.617-71.479-28-109.795-23s-75.6,17.081-114.232,18.771c-14.961.653-30.255-.227-44.608,3.873-19.83,5.663-35.411,20.07-50.154,33.99C106.972,78.639,99.539,88.39,94,94c-11.626,11.776-20.642,19.99-28.163,34.435-11.707,22.487-14.947,48.2-25.322,71.281C29.567,224.073,9.78,246.977,7.238,274.168c-2.81,30.07-15.471,64.426,5.355,91.644,5.786,7.562,13.728,13.411,19.528,20.959,15.549,20.241,12.93,48.061,20.51,72.125C58.987,479.073,75.612,502.507,94,514c9.181,5.738,17.078,4.1,27.794,6.374,15.45,3.276,31.665,2.768,46.837,7.075,19.783,5.616,36.019,18.849,53.179,29.831,22.574,14.449,47.68,16.652,72.653,24.793,24.773,8.076,84.214,14.248,110.511,9.817C459.857,582.643,484,569,514,514c52.814-96.825,55.7-69.03,66.53-96.718,4.156-10.625,6.371-21.84,8.57-32.99,5.831-29.581,1.662-59.162,7.492-88.744q3.975-20.163,7.949-40.325C607.815,238.612,610.174,218.95,597.6,207.1Z" fill="#fff"/>
  </g>
</svg>
