<svg id="Layer_1" data-name="Layer 1" xmlns="http://www.w3.org/2000/svg" viewBox="0 0 224 160"><defs><style>.cls-1{fill:#fff;}.cls-2{fill:none;stroke:#000;stroke-miterlimit:10;}</style></defs><title>image-logo-ttsf</title><path class="cls-1" d="M110.83,152.67a161,161,0,0,1-34.25-3.59,76.74,76.74,0,0,0-16.52-1.67c-7.6,0-16.11.84-28.46,2.81a19.23,19.23,0,0,1-3,.24,18.83,18.83,0,0,1-14.29-6.62,18.41,18.41,0,0,1-4.29-15,319.68,319.68,0,0,0,0-97.72,18.34,18.34,0,0,1,4.27-14.95A18.85,18.85,0,0,1,28.57,9.54a19.33,19.33,0,0,1,3,.24C43.68,11.71,52.45,12.57,60,12.57a78.52,78.52,0,0,0,15.33-1.4,196.17,196.17,0,0,1,37.83-3.83,161,161,0,0,1,34.25,3.59,76.72,76.72,0,0,0,16.52,1.67c7.6,0,16.11-.84,28.46-2.81a19.23,19.23,0,0,1,3-.24,18.83,18.83,0,0,1,14.29,6.62,18.41,18.41,0,0,1,4.29,15,319.68,319.68,0,0,0,0,97.72,18.34,18.34,0,0,1-4.27,15,18.85,18.85,0,0,1-14.31,6.62h0a19.33,19.33,0,0,1-3-.24c-12.08-1.92-20.84-2.78-28.41-2.78a78.45,78.45,0,0,0-15.33,1.4A196.17,196.17,0,0,1,110.83,152.67Z"/><path d="M113.17,9.83a158.49,158.49,0,0,1,33.72,3.53,79.22,79.22,0,0,0,17.06,1.72c7.73,0,16.36-.85,28.86-2.84a16.73,16.73,0,0,1,2.62-.21,16.33,16.33,0,0,1,12.39,5.75,15.94,15.94,0,0,1,3.71,13,322.18,322.18,0,0,0,0,98.48,15.87,15.87,0,0,1-3.69,12.94A16.36,16.36,0,0,1,195.43,148a16.81,16.81,0,0,1-2.64-.21c-12.38-2-21-2.81-28.8-2.81a80.93,80.93,0,0,0-15.81,1.45,193.65,193.65,0,0,1-37.34,3.79,158.49,158.49,0,0,1-33.72-3.53,79.22,79.22,0,0,0-17.06-1.72c-7.73,0-16.37.85-28.86,2.84a16.72,16.72,0,0,1-2.62.21,16.33,16.33,0,0,1-12.39-5.75,15.94,15.94,0,0,1-3.71-13,322.18,322.18,0,0,0,0-98.48,15.87,15.87,0,0,1,3.69-12.94A16.36,16.36,0,0,1,28.57,12a16.82,16.82,0,0,1,2.64.21c12.38,2,21,2.81,28.8,2.81a80.93,80.93,0,0,0,15.81-1.45,193.64,193.64,0,0,1,37.34-3.79m0-5A198.16,198.16,0,0,0,74.86,8.71,76.16,76.16,0,0,1,60,10.07c-8.33,0-17.43-1.06-28-2.75A21.76,21.76,0,0,0,28.57,7,21.29,21.29,0,0,0,7.52,31.5a315.72,315.72,0,0,1,0,97,21.33,21.33,0,0,0,21,24.51,21.66,21.66,0,0,0,3.41-.27c10.57-1.68,19.69-2.78,28.07-2.78a74.34,74.34,0,0,1,16,1.61,163,163,0,0,0,34.79,3.65,198.17,198.17,0,0,0,38.31-3.88A76.16,76.16,0,0,1,164,149.93c8.33,0,17.43,1.06,28,2.75a21.75,21.75,0,0,0,3.42.27,21.3,21.3,0,0,0,21.05-24.45,315.72,315.72,0,0,1,0-97A21.33,21.33,0,0,0,195.42,7a21.66,21.66,0,0,0-3.41.27c-10.57,1.68-19.69,2.78-28.07,2.78a74.34,74.34,0,0,1-16-1.61,163,163,0,0,0-34.79-3.65Z"/><path class="cls-1" d="M113.17,7.83a160.5,160.5,0,0,1,34.15,3.58,77.25,77.25,0,0,0,16.63,1.68c7.62,0,16.16-.84,28.54-2.81a18.74,18.74,0,0,1,2.94-.23,18.33,18.33,0,0,1,13.91,6.45,17.92,17.92,0,0,1,4.17,14.6,320.18,320.18,0,0,0,0,97.87,17.85,17.85,0,0,1-4.15,14.55A18.35,18.35,0,0,1,195.43,150a18.82,18.82,0,0,1-3-.24c-12.11-1.93-20.89-2.79-28.49-2.79a79,79,0,0,0-15.42,1.41,195.66,195.66,0,0,1-37.73,3.82,160.49,160.49,0,0,1-34.15-3.58,77.25,77.25,0,0,0-16.63-1.68c-7.62,0-16.16.84-28.54,2.81a18.74,18.74,0,0,1-2.94.23,18.33,18.33,0,0,1-13.91-6.45,17.92,17.92,0,0,1-4.17-14.6,320.18,320.18,0,0,0,0-97.87,17.85,17.85,0,0,1,4.15-14.55A18.35,18.35,0,0,1,28.57,10a18.82,18.82,0,0,1,3,.24C43.63,12.21,52.42,13.07,60,13.07a79,79,0,0,0,15.42-1.41,195.64,195.64,0,0,1,37.73-3.82m0-3A198.16,198.16,0,0,0,74.86,8.71,76.16,76.16,0,0,1,60,10.07c-8.33,0-17.43-1.06-28-2.75A21.76,21.76,0,0,0,28.57,7,21.29,21.29,0,0,0,7.52,31.5a315.72,315.72,0,0,1,0,97,21.33,21.33,0,0,0,21,24.51,21.66,21.66,0,0,0,3.41-.27c10.57-1.68,19.69-2.78,28.07-2.78a74.34,74.34,0,0,1,16,1.61,163,163,0,0,0,34.79,3.65,198.17,198.17,0,0,0,38.31-3.88A76.16,76.16,0,0,1,164,149.93c8.33,0,17.43,1.06,28,2.75a21.75,21.75,0,0,0,3.42.27,21.3,21.3,0,0,0,21.05-24.45,315.72,315.72,0,0,1,0-97A21.33,21.33,0,0,0,195.42,7a21.66,21.66,0,0,0-3.41.27c-10.57,1.68-19.69,2.78-28.07,2.78a74.34,74.34,0,0,1-16-1.61,163,163,0,0,0-34.79-3.65Z"/><path d="M73.6,67c.19-1.67.46-4.24.6-5.88,2.52.52,4.93,1.15,7.37,1.48,8.31,1.11,8.6-1,9-3.33-4,2-8.14,1.81-12.28.89-3.37-.75-4.58-2.54-4.47-5.91.06-1.89,0-3.78,0-5.8H85.84c-.08,1.56-.17,3.09-.22,4.62-.08,2.12.58,3,2.21,3,1.79,0,2.76-1,2.77-3,0-1.54,0-3.08,0-4.7h12.05c0,4.82.14,9.53-.05,14.22s-5.23,6-10.06,6.16C87.47,68.94,78.24,69.06,73.6,67Z"/><path d="M118.83,61.94v6.45H106.29v-20h12.63v2.23c3.63-3.11,7.73-3,11.88-2.3a6.57,6.57,0,0,1,5.59,6.64,24.34,24.34,0,0,1-.25,4.63,5.53,5.53,0,0,1-5.06,5C122,65.51,120.86,63.43,118.83,61.94Zm6-5.68a2.63,2.63,0,0,0-.82-2c-1.21-1.1-4.05-.53-4.94.84C116.35,59.25,124.18,59.43,124.82,56.26Z"/><path d="M74,70h12.5v6.68A21.41,21.41,0,0,1,90.18,74a13,13,0,0,1,10.21-.19,4.73,4.73,0,0,1,3.24,4.6c0,3.65,0,7.3,0,11.08H91.22c0-2,0-4,0-6s-.52-2.61-2-2.64a2.53,2.53,0,0,0-2.72,2.72c0,1.94,0,3.89,0,5.94H74Z"/><path d="M47.85,106.76a27.39,27.39,0,0,0,12,3.13,11.75,11.75,0,0,0,3-.18c.41-.08.74-.61,1.1-.94-.42-.27-.82-.73-1.27-.79-2.08-.27-4.19-.34-6.26-.67a29.81,29.81,0,0,1-5.06-1.23,4.49,4.49,0,0,1-3.33-4.2,4.55,4.55,0,0,1,2.85-4.56,20.07,20.07,0,0,1,5.54-1.66c6.86-.78,13.66-.07,20.41,1.09v6c-2.82-.75-5.51-1.61-8.27-2.17a41.48,41.48,0,0,0-5.82-.47,2.35,2.35,0,0,0-1.3.27,1.78,1.78,0,0,0-.78,1c0,.18.55.67.89.72,1.88.26,3.78.33,5.65.65a46.35,46.35,0,0,1,6.69,1.49c2.43.8,3.64,2.51,3.53,4.49a5,5,0,0,1-3.58,4.87,35.28,35.28,0,0,1-7.61,1.42,59.44,59.44,0,0,1-17.12-1.38,1.34,1.34,0,0,1-1.25-1.63C47.91,110.44,47.85,108.8,47.85,106.76Z"/><path d="M107.17,73.34h12.38c0,2.16,0,4.29,0,6.43,0,1.71.65,2.47,2.08,2.48a2.53,2.53,0,0,0,2.68-2.46c.05-2.1,0-4.2,0-6.41h12.58V89.51h-12.5v-3.9c-3.5,4.67-8,4.84-12.7,3.95-3-.57-4.53-2.72-4.53-5.82C107.17,80.33,107.17,76.92,107.17,73.34Z"/><path d="M149.91,57.62A2.79,2.79,0,0,0,153,59.7c3.73-.21,7.45-.54,11.18-.82l1.28-.07c.15,1.39.35,2.72.4,4,0,.35-.39,1-.67,1-6.89,1-13.81,1.86-20.73.38-6.28-1.34-7.3-6.8-5.83-11.55.84-2.73,3.32-3.69,5.93-4.2a43.09,43.09,0,0,1,17.41.08c2.73.58,3.94,2,4,4.34s-.68,3.48-2.9,4.14a29,29,0,0,1-10.71.74Zm.07-2.76a45.07,45.07,0,0,0,4.73-.32c1-.18,1.36-1.69.46-2a7.71,7.71,0,0,0-3.57-.3C150.52,52.35,150,53.31,150,54.86Z"/><path d="M93.72,104.59h9.77v6h-9.6v3.83H80.18V95.95h23.59v6.14h-10Z"/><path d="M162,84.21c3.62.61,7.09,1.21,10.56,1.75a5.43,5.43,0,0,0,2.08-.09c.38-.09.67-.58,1-.88-.32-.27-.61-.72-1-.77-1.72-.27-3.47-.38-5.2-.64a38.93,38.93,0,0,1-4.68-.92,3.78,3.78,0,0,1-3.14-3.38c-.2-2.16.48-3.94,2.53-4.79a18.58,18.58,0,0,1,5-1.42,65.55,65.55,0,0,1,18.22.86c.36.06.91.57.92.89,0,1.29-.1,2.58-.18,3.89-2.45-.54-4.81-1.12-7.19-1.57a19.15,19.15,0,0,0-4.17-.39c-.7,0-1.38.63-2.07,1a8,8,0,0,0,2,.91c2.56.39,5.17.51,7.71,1,2,.38,3.91,1,4.43,3.44s-.28,4.65-2.7,5.48a31.17,31.17,0,0,1-7.42,1.51,53.1,53.1,0,0,1-16.07-1.33c-.85-.19-1.07-.56-1-1.32C161.78,86.27,161.88,85.12,162,84.21Z"/><path d="M66.61,54V64.57H52.12V54.13H47.34v-8.2H71.57V54Z"/><path d="M71.56,71V79H66.67V89.53H52.18V79.07H47.33V71Z"/><path d="M140.51,89.51V73.37h10.37l-.27,3.46a7.12,7.12,0,0,1,4.81-3.71,6.51,6.51,0,0,1,.89-.14c3.79-.24,3.72-.24,3.39,3.54-.16,1.88,0,3.78,0,5.76-.87-.15-1.45-.26-2-.35a3,3,0,0,0-3.78,3.12c0,1.44,0,2.89,0,4.44Z"/><path class="cls-2" d="M192,7.31c-17.62,2.81-31.21,4-44.06,1.17C123.89,3.23,99,3.95,74.86,8.71,62.48,11.15,49.19,10.05,32,7.32A21.31,21.31,0,0,0,7.52,31.5a315.72,315.72,0,0,1,0,97A21.33,21.33,0,0,0,32,152.69c17.62-2.81,31.21-4,44.06-1.17,24.06,5.25,48.93,4.54,73.09-.23,12.37-2.44,25.67-1.34,42.86,1.4a21.31,21.31,0,0,0,24.47-24.18,315.72,315.72,0,0,1,0-97A21.33,21.33,0,0,0,192,7.31Z"/></svg>