<svg xmlns="http://www.w3.org/2000/svg" width="1360" height="487.2" viewBox="0 0 1360 487.2">
  <title>logo-futurefonts</title>
  <path d="M136.84,194.31c0,10.35,0,23.23.5,35.6-24-1.52-86.09-1-106.54,0,1.26-45.44.5-155.26,0-217.37,37.11,1.51,117.39,1.51,159.3,0-.76,28.28-1,67.66,0,88.36-54.28,4.54-72.46-8.33-75.23-51.75H80.29C80,52.43,80,56,80,59.75,80,114.28,119.42,135,173.19,135c5.3,0,11.61-.25,16.91-.25v59.33c-17.66.98-35.59.98-53.26.23ZM312,13c-1,30-1.51,78.77-.5,103.76.25,14.64,6.31,20.45,16.16,20.45,10.1,0,16.91-7.32,17.17-20.2.25-9.59.76-66.65.25-104.52,21.71,1.51,72,1,90.63,0-1,45.44-.51,155.26,0,217.37-18.93-.76-57.06-1-78.51,0,1.26-18.43,2.78-44.69,3.53-66.9H335c-6.06,49.73-23,69.43-57.81,69.43-42.67,0-57.06-23.48-56.8-65.38.25-43.42.5-125,0-154.25C247.42,13.8,282.25,15.57,312,13Zm324.2,0c-1.26,20.2-1,67.91,0,85.33-24.24-.5-71.19-.5-114.62-.5C516,131.19,530.67,136,566.27,136c16.66,0,37.36-.51,62.36-1.52-1.26,16.92.25,69.93,1.51,94.42-23.48,2-41.91,1-68.67,1-63.62,0-94.17-12.87-94.17-62.36,0-23,12.88-50.49,23.23-69.43-9.85,0-19.19.25-27.26.25,1-19.69,1-62.1,0-85.58,66.14.01,159.04.52,172.93.22Zm116.88,0c-1,30-1.51,78.77-.5,103.76.25,14.64,6.31,20.45,16.16,20.45,10.1,0,16.91-7.32,17.17-20.2.25-9.59.76-66.65.25-104.52,21.71,1.51,72,1,90.63,0-1,45.44-.51,155.26,0,217.37-18.93-.76-57.06-1-78.51,0,1.26-18.43,2.78-44.69,3.53-66.9H776.06c-6.06,49.73-23,69.43-57.81,69.43-42.67,0-57.06-23.48-56.8-65.38.25-43.42.5-125,0-154.25C688.46,13.8,723.29,15.57,753.08,13ZM1083.8,232.17c-46.45,0-59.33-10.86-59.33-63.37,0-14.14-4.8-18.43-31.81-17.17,0,38.37.25,71.7.5,78.26-20.45-1-68.42-.76-86.09,0,1.26-45.44.5-155.26,0-217.37,32.82,1.26,65.39,1.77,98.21.5,78.77-2.78,117.39,9.34,117.39,52.76,0,30.55-14.39,50.24-77.76,52.76v28.78c26,3,55,1,78.77-2.27-1.26,15.65-.5,61.35,1.26,82.55a205.443,205.443,0,0,1-41.14,4.57ZM992.41,50.66V116.3c28.78-.51,38.37-5.3,38.37-34.84.01-26.26-5.78-32.57-38.37-30.8Zm229.24,146.68h30.55c3.53-30,15.65-40.14,75.48-38.88,0,15.65,0,42.92,1.51,71.45-43.93-1.52-142.13-.51-180.25,0,1-45.44.5-155.26,0-217.37,43.17,2,130,2.27,178.74,0-.76,26.26-.76,53.77-.76,69.17-43.42,2.27-64.38-6.82-72.71-32.57h-29.29v3.79c0,42.41,25,53.27,91.39,53.27v27.52c-68.16-.51-94.67,9.85-94.67,53.77ZM136.84,438.31c0,10.35,0,23.23.5,35.6-24-1.52-86.09-1-106.54,0,1.26-45.44.5-155.26,0-217.37,37.11,1.51,117.39,1.51,159.3,0-.76,28.28-1,67.66,0,88.36-54.28,4.54-72.46-8.33-75.23-51.75H80.29C80,296.43,80,300,80,303.75,80,358.28,119.42,379,173.19,379c5.3,0,11.61-.25,16.91-.25v59.33c-17.66.98-35.59.98-53.26.23Zm308.25-73.72c0,83.06-45.95,109.82-115.37,110.07-72,0-114.36-26.76-114.36-109.82S260,254.77,329,254.77C401.41,254.52,445.09,281.53,445.09,364.59Zm-113.61,30.8c13.88,0,25.5-7.57,25.5-28.53,0-23.48-10.35-28.27-24.24-27,1-15.4,1-33.32.76-51.25H308a238.551,238.551,0,0,0-7.83,59.83c.01,32.05,8.83,46.95,31.31,46.95ZM594,473.65c1-30,1.51-78.77.5-103.76-.25-14.64-6.31-20.45-16.16-20.45-10.1,0-16.91,7.32-17.17,20.2-.25,9.59-.76,66.65-.25,104.52-21.71-1.52-72-1-90.63,0,1-45.44.5-155.26,0-217.37,18.93.76,57.05,1,78.51,0-1.26,18.43-2.78,44.69-3.53,66.9h25.75c6.06-49.73,23-69.43,57.81-69.43,42.67,0,57.05,23.48,56.8,65.39-.25,43.42-.51,125,0,154.25-26.96-1.01-61.8-2.77-91.63-.25ZM886.13,257c-1.26,20.2-1,67.91,0,85.33-24.24-.5-71.19-.5-114.62-.5C766,375.19,780.6,380,816.2,380c16.66,0,37.36-.51,62.36-1.52-1.26,16.92.25,69.93,1.51,94.42-23.48,2-41.91,1-68.67,1-63.62,0-94.17-12.87-94.17-62.36,0-23,12.88-50.49,23.23-69.43-9.85,0-19.19.25-27.27.25,1-19.69,1-62.1,0-85.58,66.15.01,159.06.52,172.94.22Zm25.25,56.09c0-42.92,36.86-57.56,114.11-57.56,21.71,0,65.13,1.26,93.91,1-1,27.27-1.26,65.64,0,88.11-62.61.5-82.3-11.36-85.33-54H999a113.881,113.881,0,0,0-1,15.15c0,35.6,23,48.47,77.5,60.59,34.33,7.57,47.46,23.23,47.46,54.53,0,38.88-26.51,53.27-107,53.27-53.77,0-85.08-2.27-104.26-2.78,1-27,1.26-63.87,0-88.87,69.68,1.77,84.83,23.73,87.1,58.57h31.05c2-7.83,3.53-15.15,3.53-21,0-32.31-18.93-40.14-70.18-53C927.53,358.28,911.38,340.61,911.38,313.09Zm416.04-56.55c-.25,33.58-.5,80-.5,109.06s.25,75.48.5,109.06c-21.46-1-55-.76-89.62-.76s-68.16-.25-89.62.76c.25-33.58.5-80,.5-109.06s-.25-75.48-.5-109.06c21.46,1,55,.76,89.62.76S1306,257.55,1327.42,256.54ZM1165.6,449.67c12.62-17.67,38.37-54.78,60.08-84.32-22-30-48-67.41-60.34-84.57,3,23.73,7.83,68.92,8.33,84.82C1173.17,381.5,1168.38,425.68,1165.6,449.67Zm138.35,8.08c-15.9-14.89-49-50.49-66.4-84.82-17.42,34.33-50.74,70.18-66.4,84.82,17.92-2.78,45.95-7.83,66.65-7.83C1258.25,449.92,1286,454.72,1303.95,457.75Zm-132.29-184.3c15.9,14.89,48.72,50.24,66.14,84.32,17.42-34.08,50.24-69.43,66.14-84.32-17.92,3-45.69,7.83-66.14,7.83S1189.58,276.48,1171.66,273.45Zm138.6,7.32c-12.62,17.17-38.37,54.78-60.59,84.82,22.22,30,48,67.66,60.59,84.83-3-23.73-7.83-68.92-8.33-84.83C1302.43,349.69,1307.23,304.51,1310.26,280.77Z"/>
</svg>
