<svg id="Layer_1" data-name="Layer 1" xmlns="http://www.w3.org/2000/svg" xmlns:xlink="http://www.w3.org/1999/xlink" viewBox="0 0 256 256"><defs><style>.cls-1,.cls-26,.cls-30,.cls-31{fill:none;}.cls-2,.cls-22,.cls-23,.cls-24,.cls-26,.cls-29,.cls-30,.cls-31{stroke:#000;}.cls-2,.cls-23,.cls-24,.cls-26,.cls-31{stroke-miterlimit:10;}.cls-3,.cls-32{font-size:6px;}.cls-12,.cls-16,.cls-22,.cls-23,.cls-24,.cls-27,.cls-3,.cls-32{fill:#fff;}.cls-3{font-family:ColtSoft-Black, Colt Soft;}.cls-4{letter-spacing:-0.01em;}.cls-5{letter-spacing:-0.03em;}.cls-6{letter-spacing:0em;}.cls-7{letter-spacing:-0.05em;}.cls-8{font-size:14px;}.cls-9{letter-spacing:-0.02em;}.cls-10{letter-spacing:0em;}.cls-11{letter-spacing:-0.04em;}.cls-12{font-size:16px;font-family:CardinalCd-Sb, Cardinal Grotesque Condensed;letter-spacing:-0.01em;}.cls-12,.cls-16{font-weight:700;}.cls-13{letter-spacing:0em;}.cls-14{letter-spacing:-0.01em;}.cls-15{letter-spacing:-0.01em;}.cls-16{font-size:4.13px;font-family:Cornbread-Bold, Cornbread;}.cls-17{letter-spacing:-0.1em;}.cls-18{letter-spacing:0em;}.cls-19{letter-spacing:-0.02em;}.cls-20{letter-spacing:0em;}.cls-21{letter-spacing:-0.01em;}.cls-22,.cls-23,.cls-29,.cls-30,.cls-31{stroke-linecap:round;}.cls-22,.cls-29,.cls-30{stroke-linejoin:round;}.cls-25{clip-path:url(#clip-path);}.cls-28{clip-path:url(#clip-path-2);}.cls-32{font-family:CardinalSmCd-Rg, Cardinal Grotesque Semi Condensed;}.cls-33{letter-spacing:-0.02em;}.cls-34{letter-spacing:0.01em;}.cls-35{letter-spacing:0em;}.cls-36{letter-spacing:0em;}.cls-37{letter-spacing:0em;}.cls-38{letter-spacing:0em;}.cls-39{letter-spacing:0.01em;}.cls-40{letter-spacing:0em;}.cls-41{letter-spacing:0em;}.cls-42{letter-spacing:0em;}.cls-43{letter-spacing:0em;}.cls-44{letter-spacing:-0.01em;}.cls-45{letter-spacing:0em;}.cls-46{letter-spacing:-0.04em;}.cls-47{letter-spacing:0.01em;}.cls-48{letter-spacing:0.01em;}.cls-49{letter-spacing:-0.01em;}.cls-50{letter-spacing:0em;}.cls-51{letter-spacing:0em;}.cls-52{letter-spacing:-0.01em;}.cls-53{letter-spacing:0.01em;}.cls-54{letter-spacing:-0.04em;}.cls-55{letter-spacing:-0.01em;}.cls-56{letter-spacing:0.01em;}.cls-57{letter-spacing:0em;}.cls-58{letter-spacing:0.01em;}.cls-59{letter-spacing:0em;}.cls-60{letter-spacing:0em;}.cls-61{letter-spacing:-0.01em;}.cls-62{letter-spacing:0em;}.cls-63{letter-spacing:-0.01em;}.cls-64{letter-spacing:0.01em;}.cls-65{letter-spacing:-0.01em;}.cls-66{letter-spacing:0em;}.cls-67{letter-spacing:-0.01em;}.cls-68{letter-spacing:-0.02em;}.cls-69{letter-spacing:-0.01em;}.cls-70{letter-spacing:-0.03em;}.cls-71{letter-spacing:0em;}.cls-72{letter-spacing:0em;}.cls-73{letter-spacing:0.01em;}</style><clipPath id="clip-path"><path class="cls-1" d="M54.29,82.75c3.64-10,12.83-12,22-8.68S91.25,84.88,87.61,94.88s-14,15.38-23.25,12S50.65,92.75,54.29,82.75Z"/></clipPath><clipPath id="clip-path-2"><path class="cls-1" d="M60.66,99.44A6,6,0,0,0,72,103.56Z"/></clipPath></defs><title>Artboard 1</title><rect class="cls-2" width="256" height="185.89"/><text class="cls-3" transform="translate(78.85 28.25)">LEARN F<tspan class="cls-4" x="54.36" y="0">R</tspan><tspan class="cls-5" x="63.19" y="0">O</tspan><tspan class="cls-6" x="71.97" y="0">M</tspan><tspan class="cls-7" x="83.95" y="0"> </tspan><tspan x="85.85" y="0">AN</tspan><tspan class="cls-8"><tspan x="-7.49" y="16.8">EX</tspan><tspan class="cls-9" x="32.71" y="16.8">P</tspan><tspan class="cls-10" x="52.54" y="16.8">ER</tspan><tspan class="cls-11" x="93.19" y="16.8">T</tspan></tspan></text><text class="cls-12" transform="translate(128.64 81.5)">K<tspan class="cls-13" x="4.03" y="0">yle </tspan><tspan class="cls-14" x="15.41" y="0">W</tspan><tspan class="cls-15" x="21.41" y="0">a</tspan><tspan class="cls-13" x="25.31" y="0">yne Benson</tspan></text><text class="cls-16" transform="translate(128.64 90.23)">of <tspan class="cls-17" x="5.27" y="0">V</tspan><tspan x="8.33" y="0">e</tspan><tspan class="cls-18" x="10.61" y="0">r</tspan><tspan class="cls-19" x="12.59" y="0">y</tspan><tspan class="cls-20" x="15.15" y="0"> </tspan><tspan class="cls-21" x="16.12" y="0">C</tspan><tspan x="19.2" y="0">o</tspan><tspan class="cls-19" x="21.66" y="0">o</tspan><tspan x="24.05" y="0">l Studio</tspan></text><ellipse class="cls-2" cx="65.83" cy="196.77" rx="25.19" ry="2.53"/><polygon class="cls-22" points="50.66 150.35 53.4 174.01 55.05 190.47 61.99 190.47 64.29 179.03 64.19 174.01 66.38 150.35 50.66 150.35"/><polygon points="65.22 161.74 52.1 161.74 51.75 159.79 65.83 159.79 65.22 161.74"/><path class="cls-22" d="M61.08,196.22H49v-1.73c0-1.59,4-4,6.22-4h6.95v4.66A1.1,1.1,0,0,1,61.08,196.22Z"/><path class="cls-22" d="M56.6,174a2.72,2.72,0,1,1-2.83-4.64"/><polygon class="cls-22" points="57.12 190.47 54.97 190.47 53.87 187.97 57.12 187.97 57.12 190.47"/><line class="cls-22" x1="49.01" y1="194.49" x2="62.17" y2="194.49"/><polygon class="cls-22" points="81.08 150.35 78.33 174.01 76.69 190.47 69.74 190.47 67.44 179.03 67.55 174.01 65.35 150.35 81.08 150.35"/><polygon points="79.64 161.74 66.53 161.74 66.17 159.79 80.25 159.79 79.64 161.74"/><path class="cls-22" d="M70.65,196.22H82.72v-1.73c0-1.59-4-4-6.22-4H69.56v4.66A1.1,1.1,0,0,0,70.65,196.22Z"/><path class="cls-22" d="M75.13,174A2.72,2.72,0,1,0,78,169.33"/><polygon class="cls-22" points="74.61 190.47 76.77 190.47 77.86 187.97 74.61 187.97 74.61 190.47"/><line class="cls-22" x1="82.72" y1="194.49" x2="69.56" y2="194.49"/><rect class="cls-22" x="44.3" y="121.82" width="5.81" height="33.89"/><path class="cls-22" d="M46.58,155.34,46.12,158a1.6,1.6,0,0,1-3.14-.6c.43-2.26.72-3.75.91-4.77-.37-2.37,0-4.41,1-5.62"/><path class="cls-22" d="M45.75,153,45,158.68a1.6,1.6,0,0,0,3.17.42l.69-4.87"/><path class="cls-22" d="M48.05,152.68l0,6.52a1.6,1.6,0,0,0,3.2,0l0-6.35"/><path class="cls-22" d="M44.3,128.31V117.58c0-12.92,9.64-12.48,21.53-12.48s21.53-.44,21.53,12.48v10.73Z"/><rect x="44.3" y="128.31" width="5.81" height="1.65"/><path d="M54.54,110.87a17.63,17.63,0,0,0,22.58,0,14.1,14.1,0,0,0,3.48-4.54c-3.86-1.33-9-1.23-14.77-1.23s-10.91-.1-14.77,1.23A14.1,14.1,0,0,0,54.54,110.87Z"/><path class="cls-23" d="M81,120.6a5.87,5.87,0,0,1,6.46-.07v2.71A5.75,5.75,0,0,1,81.75,129H81Z"/><ellipse class="cls-24" cx="54.73" cy="92.99" rx="6.03" ry="5.38" transform="matrix(0.34, -0.94, 0.94, 0.34, -51.38, 112.61)"/><ellipse class="cls-24" cx="80.69" cy="102.45" rx="6.03" ry="5.38" transform="translate(-43.17 143.23) rotate(-70)"/><path class="cls-24" d="M54.29,82.75c3.64-10,12.83-12,22-8.68S91.25,84.88,87.61,94.88s-14,15.38-23.25,12S50.65,92.75,54.29,82.75Z"/><g class="cls-25"><path class="cls-26" d="M116,94.49a19.24,19.24,0,0,0-.79-2.3,20.22,20.22,0,0,0,.64-12.59C113.05,69.33,104.08,66.5,94.62,69S78.8,78.51,81.56,88.78a20.94,20.94,0,0,0,1.26,3.43,14.81,14.81,0,0,0-1.1,11.46c2.75,10.27,12.65,16.55,22.11,14S118.71,104.76,116,94.49Z"/><path class="cls-26" d="M32.82,64.23A19.24,19.24,0,0,1,34.9,63a20.22,20.22,0,0,1,7.6-10.05c8.71-6.1,17.41-2.5,23,5.52s6,17.42-2.68,23.52a20.94,20.94,0,0,1-3.16,1.82,14.81,14.81,0,0,1-6.52,9.49c-8.71,6.1-20.33,4.54-25.94-3.48S24.11,70.33,32.82,64.23Z"/></g><path class="cls-22" d="M88.21,93.24C92,82.69,86.42,75,77.21,71.61s-18.49-1-22.33,9.5c3.66-.27,10-1.06,18.18,1.9S85.57,90.66,88.21,93.24Z"/><path class="cls-22" d="M79,82.58C80.43,78.71,78.8,76,76,75s-5.79,0-7.2,3.84h0A17.86,17.86,0,0,1,79,82.58Z"/><path class="cls-22" d="M72.73,74.78c6.36-.86,7.42,4.49,10.5,4.37-1.39,1.61-4.9.63-5.22.51,3.1.91,1,2.92,1,2.92a17.37,17.37,0,0,0-10.25-3.73S69.81,75.32,72.73,74.78Z"/><path class="cls-23" d="M79.85,104.26a13.88,13.88,0,0,1-.45,1.5c-2.59,7.13-9.61,8.41-16.73,5.82S51,103.49,53.59,96.36a13.88,13.88,0,0,1,.62-1.44"/><polyline class="cls-22" points="63.44 94.51 64.6 93.97 65.14 95.13"/><polyline class="cls-22" points="73.04 98.01 72.5 96.85 71.34 97.39"/><path class="cls-23" d="M67.34,90.41l-2.94-.49A1.1,1.1,0,1,0,64,92.08l2.94.49a1.1,1.1,0,0,0,.36-2.16"/><path class="cls-23" d="M75.26,93.87,72.7,92.36a1.1,1.1,0,0,0-1.12,1.89l2.56,1.52a1.1,1.1,0,0,0,1.12-1.89"/><line class="cls-23" x1="55.81" y1="96.84" x2="56.91" y2="95.92"/><line class="cls-23" x1="57.5" y1="97.46" x2="58.6" y2="96.53"/><line class="cls-23" x1="59.19" y1="98.07" x2="60.29" y2="97.15"/><line class="cls-23" x1="77.39" y1="104.69" x2="77.14" y2="103.28"/><line class="cls-23" x1="75.7" y1="104.08" x2="75.45" y2="102.67"/><line class="cls-23" x1="74.01" y1="103.46" x2="73.76" y2="102.05"/><line class="cls-27" x1="68.95" y1="94.31" x2="67.59" y2="98.04"/><path d="M69.42,94.48,69,98.55a1.55,1.55,0,0,1-3.08-.32,1.57,1.57,0,0,1,.26-.71l2.3-3.39a.52.52,0,0,1,.94.34Z"/><path class="cls-27" d="M60.66,99.44A6,6,0,0,0,72,103.56Z"/><g class="cls-28"><path class="cls-29" d="M59.73,102a6,6,0,0,0,11.34,4.13l-1.55-.56-.42-.45-.61.07L62.3,103l-.42-.45-.61.07Z"/><circle class="cls-22" cx="66.36" cy="109.43" r="4.43" transform="translate(-59.17 134.37) rotate(-70)"/><path class="cls-22" d="M65.23,105.68a4.43,4.43,0,1,0-2.14,5.89"/></g><path class="cls-30" d="M60.66,99.44A6,6,0,0,0,72,103.56Z"/><path class="cls-22" d="M80.07,83.15a13.72,13.72,0,0,0,2.7,1.27c.74.37.6,3.57-1.61,2.67a14.06,14.06,0,0,1-3.5-2"/><polygon class="cls-22" points="76.84 81.2 75.34 84.51 78.53 86.12 80.06 83.15 76.84 81.2"/><path class="cls-27" d="M105.66,110.59a1.59,1.59,0,0,0-1.69-.34l.88-1a1.6,1.6,0,0,0-.19-2.25,1.58,1.58,0,0,0-1.91-.08l.2-.31a1.6,1.6,0,0,0-2.69-1.73l-1.09,1.7a1.6,1.6,0,0,0-2.9-1.32l-2.63,4.93a5.35,5.35,0,0,0-.87-1.08,1.83,1.83,0,1,0-2.5,2.67,1.77,1.77,0,0,1,.49.77,5.85,5.85,0,0,1,.22,1.22l-5.81,6.67-3.66,4.24v.05c-.86.67-1.08,2.33-1,3.27a4.45,4.45,0,0,0,.86,2.51,1.66,1.66,0,0,0,.71,1.3v0a5.08,5.08,0,0,0,7.16-.53l9.27-10.75.14-.16c1.46-.5,2.76-2,3.7-4l3.39-3.48A1.6,1.6,0,0,0,105.66,110.59Z"/><line class="cls-31" x1="83.93" y1="121.82" x2="85.16" y2="120.39"/><path class="cls-31" d="M98.47,120.52l-9.27,10.75a5.08,5.08,0,1,1-7.69-6.64"/><line class="cls-22" x1="90.77" y1="113.89" x2="85.16" y2="120.39"/><path class="cls-22" d="M97.26,110.13l1.82-3.42a1.6,1.6,0,1,0-2.82-1.51l-3.06,5.74"/><path class="cls-22" d="M101.52,112.63l1.88-2a1.6,1.6,0,0,1,2.29,2.24l-3.39,3.48c-1.45,3.18-3.75,5-6.17,3.95"/><path class="cls-22" d="M95.94,117.89c-.66.84-3.47.6-4.48-1.82a5.94,5.94,0,0,1-.39-1.52,12,12,0,0,0-.32-2.05,1.77,1.77,0,0,0-.49-.77h0a1.83,1.83,0,1,1,2.5-2.67,5.41,5.41,0,0,1,1.12,1.47,6.12,6.12,0,0,1,.53,1.49,4.77,4.77,0,0,0,1.46,2.08"/><path class="cls-22" d="M101.17,113.58l3.68-4.37a1.6,1.6,0,0,0-2.45-2.06l-3.2,3.74"/><path class="cls-22" d="M99.42,112l3.53-5.49a1.6,1.6,0,1,0-2.69-1.73l-3.44,5.34"/><path class="cls-30" d="M96.7,110.44a11.6,11.6,0,0,1,4.72,4"/><polyline class="cls-22" points="81.56 118.62 81.56 143.12 50.11 143.12 50.11 118.62"/><rect class="cls-22" x="50.11" y="143.12" width="31.45" height="16.68"/><line class="cls-22" x1="65.83" y1="159.8" x2="65.83" y2="152.99"/><line class="cls-22" x1="64.29" y1="152.99" x2="67.26" y2="152.99"/><path class="cls-30" d="M81.24,146.43a4.19,4.19,0,0,1-5.92,0"/><path class="cls-30" d="M56,146.43a4.19,4.19,0,0,1-5.92,0"/><path d="M76.67,120.77a1.27,1.27,0,1,1,1.27-1.27A1.17,1.17,0,0,1,76.67,120.77Z"/><polygon points="73.99 118.44 71.67 118.44 73.87 122.74 73.87 124.13 75.87 124.13 75.87 122.15 73.99 118.44"/><polygon points="56.15 124.13 53.72 118.44 56.2 118.44 58.14 123.23 57.89 124.13 56.15 124.13"/><rect x="66.38" y="118.44" width="2.12" height="5.69"/><rect x="60.62" y="118.44" width="2.16" height="5.69"/><rect x="72.59" y="125.02" width="2.13" height="5.72"/><path d="M69.2,121v-2.52h.67a1.81,1.81,0,0,1,1.33.39,1.29,1.29,0,0,1,.31,1c0,.81-.51,1.15-1.64,1.15Z"/><path d="M56.51,130.78c-1.54,0-2.27-.91-2.29-2.87a3.22,3.22,0,0,1,.69-2.35,2.16,2.16,0,0,1,1.6-.57h.08v5.79Z"/><path d="M62.51,130.78c-1.54,0-2.27-.91-2.29-2.87a3.22,3.22,0,0,1,.69-2.35,2.17,2.17,0,0,1,1.6-.57h.08v5.79Z"/><path d="M63.28,130.78V125h.08c1.54,0,2.27.9,2.29,2.84a3.26,3.26,0,0,1-.7,2.38,2.15,2.15,0,0,1-1.59.57Z"/><path d="M68.7,130.78c-1.54,0-2.27-.91-2.29-2.87a3.22,3.22,0,0,1,.69-2.35,2.16,2.16,0,0,1,1.6-.57h.08v5.79Z"/><path d="M69.47,130.78V125h.08c1.54,0,2.27.9,2.29,2.84a3.26,3.26,0,0,1-.7,2.38,2.15,2.15,0,0,1-1.59.57Z"/><path d="M71.29,124.2a1.86,1.86,0,0,1-2.1-2.07v-.55h.74a1.93,1.93,0,0,1,1.44.46,2,2,0,0,1,.44,1.46v.7Z"/><path d="M75.29,130.72v0c0-1.74.77-2.78,2-2.78h.14v2.81Z"/><path d="M58.77,120.89a1.32,1.32,0,1,1,1.32-1.32A1.21,1.21,0,0,1,58.77,120.89Z"/><path d="M58.45,127.47a1.32,1.32,0,1,1,1.32-1.32A1.21,1.21,0,0,1,58.45,127.47Z"/><path d="M65.25,120.87c-1.24,0-1.81-.74-1.83-2.38v0h2.15v2.42Z"/><path d="M63.41,124.13h0c0-1.65.59-2.4,1.83-2.4h.32v2.4Z"/><path d="M57.13,130.71V130c0-1.31.49-1.88,1.64-1.88h.66v.5c0,1-.32,2.1-1.82,2.1Z"/><path class="cls-30" d="M74.61,190.47a5,5,0,0,0,6.18,2.19"/><path class="cls-30" d="M74.61,190.47a5,5,0,0,0,6.18,2.19"/><path class="cls-30" d="M57.12,190.47a5,5,0,0,1-6.18,2.19"/><text class="cls-32" transform="translate(129.67 105.7)"><tspan class="cls-33">K<tspan class="cls-34" x="2.05" y="0">yle</tspan><tspan class="cls-35" x="6.95" y="0"> </tspan><tspan class="cls-34" x="7.82" y="0">g</tspan><tspan class="cls-36" x="9.96" y="0">ot</tspan><tspan class="cls-37" x="13.48" y="0"> </tspan><tspan class="cls-36" x="14.34" y="0">s</tspan><tspan class="cls-38" x="16.28" y="0">t</tspan><tspan class="cls-37" x="17.74" y="0">a</tspan><tspan class="cls-39" x="19.77" y="0">r</tspan><tspan class="cls-40" x="21.15" y="0">t</tspan><tspan class="cls-34" x="22.6" y="0">ed in 2008 </tspan><tspan class="cls-35" x="41.79" y="0">a</tspan><tspan class="cls-34" x="43.81" y="0">s a</tspan><tspan class="cls-36" x="48.66" y="0"> </tspan><tspan class="cls-38" x="49.52" y="0">w</tspan><tspan class="cls-37" x="52.31" y="0">e</tspan><tspan class="cls-41" x="54.33" y="0">b </tspan><tspan class="cls-37" x="57.29" y="0">d</tspan><tspan class="cls-42" x="59.38" y="0">e</tspan><tspan class="cls-43" x="61.38" y="0">v</tspan><tspan class="cls-34" x="63.3" y="0">elope</tspan><tspan class="cls-44" x="72.51" y="0">r</tspan><tspan class="cls-37" x="73.77" y="0"> </tspan><tspan class="cls-45" x="74.64" y="0">f</tspan><tspan class="cls-37" x="75.97" y="0">o</tspan><tspan class="cls-44" x="78.03" y="0">r</tspan><tspan class="cls-37" x="79.29" y="0" xml:space="preserve"> In</tspan><tspan class="cls-40" x="83.29" y="0">t</tspan><tspan class="cls-34" x="84.73" y="0">ern</tspan><tspan class="cls-36" x="90.21" y="0">et</tspan><tspan class="cls-37" x="93.69" y="0"> </tspan></tspan><tspan class="cls-37"><tspan x="0" y="7.2">En</tspan><tspan class="cls-40" x="4.04" y="7.2">t</tspan><tspan class="cls-34" x="5.48" y="7.2">erprises. In 2015 he </tspan><tspan class="cls-36" x="38.98" y="7.2">r</tspan><tspan x="40.32" y="7.2">ecei</tspan><tspan class="cls-43" x="47.36" y="7.2">v</tspan><tspan class="cls-34" x="49.28" y="7.2">ed a</tspan><tspan class="cls-43" x="56.3" y="7.2"> </tspan><tspan class="cls-46" x="57.12" y="7.2">T</tspan><tspan x="58.72" y="7.2">ype Design Ce</tspan><tspan class="cls-47" x="82.55" y="7.2">r</tspan><tspan x="83.94" y="7.2">ti</tspan><tspan class="cls-48" x="86.39" y="7.2">f</tspan><tspan class="cls-34" x="87.77" y="7.2">i</tspan><tspan class="cls-35" x="88.73" y="7.2">c</tspan><tspan class="cls-49" x="90.76" y="7.2">a</tspan><tspan class="cls-40" x="92.71" y="7.2">t</tspan><tspan class="cls-34" x="94.15" y="7.2">e f</tspan><tspan class="cls-50" x="98.42" y="7.2">r</tspan><tspan x="99.76" y="7.2">om </tspan><tspan x="0" y="14.4">Coope</tspan><tspan class="cls-44" x="10.7" y="14.4">r</tspan><tspan x="11.96" y="14.4" xml:space="preserve"> Unio</tspan><tspan class="cls-47" x="20.33" y="14.4">n</tspan><tspan class="cls-34" x="22.44" y="14.4">. He </tspan><tspan class="cls-45" x="29.28" y="14.4">f</tspan><tspan x="30.62" y="14.4">ormed</tspan><tspan class="cls-51" x="41.39" y="14.4"> </tspan><tspan class="cls-52" x="42.23" y="14.4">V</tspan><tspan x="44.28" y="14.4">e</tspan><tspan class="cls-53" x="46.3" y="14.4">r</tspan><tspan class="cls-43" x="47.72" y="14.4">y</tspan><tspan class="cls-34" x="49.61" y="14.4" xml:space="preserve"> Cool Studi</tspan><tspan class="cls-41" x="67.72" y="14.4">o</tspan><tspan x="69.77" y="14.4" xml:space="preserve"> in Ma</tspan><tspan class="cls-50" x="79.59" y="14.4">r</tspan><tspan x="80.93" y="14.4">ch 201</tspan><tspan class="cls-54" x="91.97" y="14.4">7</tspan><tspan x="93.44" y="14.4">, 20 </tspan><tspan x="0" y="21.6">months </tspan><tspan class="cls-55" x="13.8" y="21.6">a</tspan><tspan class="cls-56" x="15.76" y="21.6">f</tspan><tspan class="cls-40" x="17.15" y="21.6">t</tspan><tspan class="cls-34" x="18.59" y="21.6">e</tspan><tspan class="cls-52" x="20.61" y="21.6">r</tspan><tspan class="cls-34" x="21.87" y="21.6" xml:space="preserve"> buying</tspan><tspan class="cls-57" x="34.03" y="21.6"> </tspan><tspan x="34.88" y="21.6">the</tspan><tspan class="cls-35" x="40.49" y="21.6"> </tspan><tspan x="41.36" y="21.6">domai</tspan><tspan class="cls-47" x="51.74" y="21.6">n</tspan><tspan class="cls-34" x="53.85" y="21.6">.</tspan></tspan><tspan class="cls-37" x="0" y="36">His</tspan><tspan class="cls-50" x="5.32" y="36"> </tspan><tspan class="cls-37" x="6.17" y="36">type h</tspan><tspan class="cls-41" x="16.74" y="36">a</tspan><tspan class="cls-37" x="18.76" y="36">s been used </tspan><tspan class="cls-42" x="39.69" y="36">b</tspan><tspan class="cls-43" x="41.76" y="36">y</tspan><tspan x="43.65" y="36"> </tspan><tspan class="cls-34" x="44.49" y="36">Apple, BlueHo</tspan><tspan class="cls-50" x="67.42" y="36">s</tspan><tspan class="cls-58" x="69.36" y="36">t</tspan><tspan class="cls-37" x="70.9" y="36">, Qu</tspan><tspan class="cls-48" x="76.98" y="36">a</tspan><tspan class="cls-34" x="79.02" y="36">ltrics and</tspan><tspan class="cls-35" x="94.86" y="36"> </tspan><tspan class="cls-34" x="95.72" y="36">on </tspan><tspan class="cls-37"><tspan x="0" y="43.2">po</tspan><tspan class="cls-36" x="4.21" y="43.2">s</tspan><tspan class="cls-59" x="6.15" y="43.2">t</tspan><tspan x="7.6" y="43.2">e</tspan><tspan class="cls-60" x="9.62" y="43.2">r</tspan><tspan x="10.95" y="43.2">s in his mom</tspan><tspan class="cls-61" x="32.11" y="43.2">&apos;</tspan><tspan class="cls-34" x="32.56" y="43.2">s</tspan><tspan class="cls-35" x="34.52" y="43.2"> </tspan><tspan class="cls-34" x="35.38" y="43.2">cl</tspan><tspan class="cls-35" x="38.37" y="43.2">a</tspan><tspan class="cls-62" x="40.4" y="43.2">s</tspan><tspan x="42.34" y="43.2">s</tspan><tspan class="cls-50" x="44.3" y="43.2">r</tspan><tspan x="45.64" y="43.2">oo</tspan><tspan class="cls-47" x="49.76" y="43.2">m</tspan><tspan class="cls-34" x="53.02" y="43.2">. His be</tspan><tspan class="cls-36" x="64.87" y="43.2">st </tspan><tspan x="69.13" y="43.2">t</tspan><tspan class="cls-38" x="70.63" y="43.2">w</tspan><tspan x="73.42" y="43.2">e</tspan><tspan class="cls-50" x="75.45" y="43.2">et</tspan><tspan class="cls-34" x="78.93" y="43.2" xml:space="preserve"> h</tspan><tspan class="cls-41" x="81.89" y="43.2">a</tspan><tspan x="83.91" y="43.2">s </tspan><tspan class="cls-38" x="86.74" y="43.2">5</tspan><tspan class="cls-63" x="88.96" y="43.2">7</tspan><tspan class="cls-62" x="90.64" y="43.2"> </tspan><tspan class="cls-64" x="91.5" y="43.2">“</tspan><tspan class="cls-40" x="92.93" y="43.2">f</tspan><tspan class="cls-65" x="94.26" y="43.2">a</tspan><tspan class="cls-45" x="96.18" y="43.2">v</tspan><tspan class="cls-34" x="98.1" y="43.2">e</tspan><tspan class="cls-52" x="100.12" y="43.2">s</tspan><tspan class="cls-66" x="101.98" y="43.2">”</tspan><tspan x="103.34" y="43.2">, </tspan><tspan x="0" y="50.4">which is </tspan><tspan class="cls-48" x="14.68" y="50.4">5</tspan><tspan class="cls-67" x="16.94" y="50.4">-</tspan><tspan x="18.13" y="50.4">10</tspan><tspan class="cls-36" x="21.97" y="50.4"> </tspan><tspan class="cls-34" x="22.82" y="50.4">times </tspan><tspan class="cls-68" x="33.36" y="50.4">K</tspan><tspan class="cls-34" x="35.4" y="50.4">yl</tspan><tspan class="cls-69" x="38.29" y="50.4">e</tspan><tspan class="cls-70" x="40.2" y="50.4">’</tspan><tspan x="40.79" y="50.4">s </tspan><tspan class="cls-65" x="43.62" y="50.4">a</tspan><tspan class="cls-45" x="45.54" y="50.4">v</tspan><tspan x="47.46" y="50.4">e</tspan><tspan class="cls-38" x="49.48" y="50.4">r</tspan><tspan class="cls-35" x="50.81" y="50.4">a</tspan><tspan class="cls-34" x="52.83" y="50.4">ge numbe</tspan><tspan class="cls-52" x="69.38" y="50.4">r</tspan><tspan class="cls-35" x="70.63" y="50.4"> </tspan><tspan class="cls-50" x="71.5" y="50.4">o</tspan><tspan class="cls-62" x="73.54" y="50.4">f </tspan><tspan class="cls-48" x="75.76" y="50.4">“</tspan><tspan class="cls-59" x="77.19" y="50.4">f</tspan><tspan class="cls-65" x="78.52" y="50.4">a</tspan><tspan class="cls-45" x="80.44" y="50.4">v</tspan><tspan x="82.36" y="50.4">e</tspan><tspan class="cls-52" x="84.38" y="50.4">s</tspan><tspan class="cls-71" x="86.23" y="50.4">”</tspan><tspan x="87.64" y="50.4" xml:space="preserve"> pe</tspan><tspan class="cls-44" x="92.68" y="50.4">r</tspan><tspan class="cls-36" x="93.94" y="50.4"> </tspan><tspan class="cls-34" x="94.8" y="50.4">t</tspan><tspan class="cls-72" x="96.29" y="50.4">w</tspan><tspan x="99.09" y="50.4">e</tspan><tspan class="cls-50" x="101.11" y="50.4">e</tspan><tspan class="cls-73" x="103.11" y="50.4">t</tspan><tspan class="cls-34" x="104.65" y="50.4">.</tspan></tspan></text></svg>