<svg xmlns="http://www.w3.org/2000/svg" width="1024" height="32" viewBox="0 0 1024 32">
  <title>bg-goo-bottom</title>
  <g>
    <path d="M1024,32C905,32,908.6,18.993,878.1,17.581c-30.5-.77-30.491-8.83-61-10.022-30.506-1.125-30.522,7.712-61.029,7.164-30.508-.528-30.5-5.635-61.011-6.237-30.511-.539-30.515,2.743-61.027,2.407C603.524,10.6,603.525,9.4,573.011,9.2,542.5,9.062,542.5,8.222,511.984,8.2c-30.514.027-30.516-5.966-61.032-5.774-30.516.265-30.507,10.373-61.019,10.614-30.51.281-30.524-11.249-61.035-10.547-30.51.748-30.5,5-61.01,5.739-30.5.837-30.5,4.007-61,4.812-30.5.866-30.507-.845-61.008.262C106.365,15.444,108,32,0,32Z"/>
    <path d="M330.559,8.746c-1.1.375-2.382,1.121-2.279,2.279.09,1.017,1.2,1.577,2.174,1.893,5.364,1.744,11.09,1.947,16.728,2.134,2.661.089,7.1,1.469,7.62-1.81.416-2.629-2.016-3.226-3.7-4.112C345.3,6.075,336.525,6.714,330.559,8.746Z" fill="#fff"/>
    <path d="M838.113,16.413a11.936,11.936,0,0,0-8.018-1.992c-1.162.133-2.556.734-2.575,1.9-.016,1.039,1.083,1.707,2.063,2.055a16.173,16.173,0,0,0,8,.709" fill="#fff"/>
    <path d="M819.52,17.735a2.916,2.916,0,0,0,4.216-2.236,7.813,7.813,0,0,0-10.363,1.075,4.366,4.366,0,0,0,3.713,2.148" fill="#fff"/>
  </g>
</svg>
