<svg xmlns="http://www.w3.org/2000/svg" width="1024" height="32" viewBox="0 0 1024 32">
  <title>bg-goo-top</title>
  <g>
    <path d="M0,0C119,0,115.4,13.007,145.9,14.419c30.5.77,30.491,8.83,61,10.022,30.506,1.125,30.522-7.712,61.029-7.164,30.508.528,30.5,5.635,61.011,6.237,30.511.539,30.515-2.743,61.027-2.407,30.514.292,30.513,1.494,61.027,1.69,30.514.141,30.514.981,61.027,1.008,30.514-.027,30.516,5.966,61.032,5.774,30.516-.265,30.507-10.373,61.019-10.614,30.51-.281,30.524,11.249,61.035,10.547,30.51-.748,30.5-5,61.01-5.739,30.5-.837,30.5-4.007,61-4.812,30.5-.866,30.507.845,61.008-.262C917.635,16.556,916,0,1024,0Z"/>
    <path d="M718.637,17.643c1.036-.528,2.2-1.448,1.932-2.58-.234-.993-1.416-1.39-2.422-1.564-5.558-.961-11.255-.345-16.862.273-2.646.292-7.238-.441-7.284,2.879-.037,2.661,2.456,2.905,4.25,3.542C704.434,22.388,713.023,20.506,718.637,17.643Z" fill="#fff"/>
    <path d="M216.393,18.724a11.941,11.941,0,0,0,8.261-.116c1.09-.424,2.285-1.361,2-2.5-.249-1.009-1.483-1.375-2.519-1.462A16.171,16.171,0,0,0,216.228,16" fill="#fff"/>
    <path d="M234.036,12.71a2.915,2.915,0,0,0-3.507,3.236,7.812,7.812,0,0,0,9.747-3.68,4.368,4.368,0,0,0-4.138-1.131" fill="#fff"/>
  </g>
</svg>
