<svg xmlns="http://www.w3.org/2000/svg" width="94" height="420" viewBox="0 0 94 420">
  <title>content-circle-left</title>
  <path d="M514-94H0V514H608V-94ZM15.774,294.728l1-.787a18.588,18.588,0,0,1,9.92,17.3c-1.257,1.316-3.493,1.15-5.035.184a15.8,15.8,0,0,1-3.709-3.96c-1.539-1.966-3.337-3.824-4.152-6.184S13.539,295.836,15.774,294.728Zm13.861,21.824.571-.2a4.524,4.524,0,0,1,3.24,6.013c-1.274.932-3.25.157-3.979-1.243A5.392,5.392,0,0,1,29.635,316.552ZM570,80.783c2.714,7,5.164,14.412,10.556,19.806,4.96,4.962,11.925,7.7,17.039,12.514,12.576,11.847,10.217,31.509,6.943,48.12q-3.973,20.163-7.949,40.325c-5.83,29.582-1.661,59.163-7.492,88.744-2.2,11.15-4.414,22.365-8.57,32.99C569.7,350.97,566.814,323.175,514,420c-30,55-54.143,68.643-109.026,77.89-26.3,4.431-85.738-1.741-110.511-9.817-24.973-8.141-50.079-10.344-72.653-24.793-17.16-10.982-33.4-24.215-53.179-29.831-15.172-4.307-31.387-3.8-46.837-7.075C111.078,424.1,103.181,425.738,94,420c-18.388-11.493-35.013-34.927-41.369-55.1-7.58-24.064-4.961-51.884-20.51-72.125-5.8-7.548-13.742-13.4-19.528-20.959-20.826-27.218-8.165-61.574-5.355-91.644,2.542-27.191,22.329-50.095,33.277-74.452C50.89,82.636,54.13,56.922,65.837,34.435,73.358,19.99,82.374,11.776,94,0c5.539-5.61,12.972-15.361,18.688-20.759,14.743-13.92,30.324-28.327,50.154-33.99,14.353-4.1,29.647-3.22,44.608-3.873,38.629-1.69,75.915-13.769,114.232-18.771s80.879-1.615,109.795,23c7.057,6.008,13.085,13.114,20.557,18.643,12.3,9.1,27.646,13.344,41.486,20.1C501.818-11.6,506.475-6.872,514,0,537.72,21.66,560.178,55.434,570,80.783Z"/>
</svg>
