<svg xmlns="http://www.w3.org/2000/svg" width="420" height="94" viewBox="0 0 420 94">
  <title>content-circle-bottom</title>
  <path d="M420-514H-94V94H514V-514ZM-78.226-125.272l1-.787a18.588,18.588,0,0,1,9.92,17.3c-1.257,1.316-3.493,1.15-5.035.184a15.8,15.8,0,0,1-3.709-3.96c-1.539-1.966-3.337-3.824-4.152-6.184S-80.461-124.164-78.226-125.272Zm13.861,21.824.571-.2a4.524,4.524,0,0,1,3.24,6.013c-1.274.932-3.25.157-3.979-1.243A5.392,5.392,0,0,1-64.365-103.448ZM476-339.217c2.714,7,5.164,14.412,10.556,19.806,4.96,4.962,11.925,7.7,17.039,12.514,12.576,11.847,10.217,31.509,6.943,48.12q-3.974,20.163-7.949,40.325c-5.83,29.582-1.661,59.163-7.492,88.744-2.2,11.15-4.414,22.365-8.57,32.99C475.7-69.03,472.814-96.825,420,0c-30,55-54.143,68.643-109.026,77.89-26.3,4.431-85.738-1.741-110.511-9.817C175.49,59.932,150.384,57.729,127.81,43.28,110.65,32.3,94.414,19.065,74.631,13.449,59.459,9.142,43.244,9.65,27.794,6.374,17.078,4.1,9.181,5.738,0,0-18.388-11.493-35.013-34.927-41.369-55.1c-7.58-24.064-4.961-51.884-20.51-72.125-5.8-7.548-13.742-13.4-19.528-20.959-20.826-27.218-8.165-61.574-5.355-91.644,2.542-27.191,22.329-50.1,33.277-74.452,10.375-23.08,13.615-48.794,25.322-71.281C-20.642-400.01-11.626-408.224,0-420c5.539-5.61,12.972-15.361,18.688-20.759,14.743-13.92,30.324-28.327,50.154-33.99,14.353-4.1,29.647-3.22,44.608-3.873,38.629-1.69,75.915-13.769,114.232-18.771s80.879-1.615,109.795,23c7.057,6.008,13.085,13.114,20.557,18.643,12.3,9.1,27.646,13.344,41.486,20.1,8.3,4.051,12.955,8.775,20.48,15.647C443.72-398.34,466.178-364.566,476-339.217Z"/>
</svg>
