<svg xmlns="http://www.w3.org/2000/svg" width="420" height="94" viewBox="0 0 420 94">
  <title>content-circle-top</title>
  <path d="M420,0H-94V608H514V0ZM-78.226,388.728l1-.787a18.588,18.588,0,0,1,9.92,17.3c-1.257,1.316-3.493,1.15-5.035.184a15.8,15.8,0,0,1-3.709-3.96c-1.539-1.966-3.337-3.824-4.152-6.184S-80.461,389.836-78.226,388.728Zm13.861,21.824.571-.2a4.524,4.524,0,0,1,3.24,6.013c-1.274.932-3.25.157-3.979-1.243A5.392,5.392,0,0,1-64.365,410.552ZM476,174.783c2.714,7,5.164,14.412,10.556,19.806,4.96,4.962,11.925,7.7,17.039,12.514,12.576,11.847,10.217,31.509,6.943,48.12q-3.974,20.163-7.949,40.325c-5.83,29.582-1.661,59.163-7.492,88.744-2.2,11.15-4.414,22.365-8.57,32.99C475.7,444.97,472.814,417.175,420,514c-30,55-54.143,68.643-109.026,77.89-26.3,4.431-85.738-1.741-110.511-9.817-24.973-8.141-50.079-10.344-72.653-24.793-17.16-10.982-33.4-24.215-53.179-29.831-15.172-4.307-31.387-3.8-46.837-7.075C17.078,518.1,9.181,519.738,0,514c-18.388-11.493-35.013-34.927-41.369-55.1-7.58-24.064-4.961-51.884-20.51-72.125-5.8-7.548-13.742-13.4-19.528-20.959-20.826-27.218-8.165-61.574-5.355-91.644,2.542-27.191,22.329-50.095,33.277-74.452,10.375-23.08,13.615-48.794,25.322-71.281C-20.642,113.99-11.626,105.776,0,94c5.539-5.61,12.972-15.361,18.688-20.759,14.743-13.92,30.324-28.327,50.154-33.99,14.353-4.1,29.647-3.22,44.608-3.873,38.629-1.69,75.915-13.769,114.232-18.771s80.879-1.615,109.795,23c7.057,6.008,13.085,13.114,20.557,18.643,12.3,9.1,27.646,13.344,41.486,20.1C407.818,82.4,412.475,87.128,420,94,443.72,115.66,466.178,149.434,476,174.783Z"/>
</svg>
