<?xml version="1.0" encoding="UTF-8"?>
<svg width="56px" height="76px" viewBox="0 0 56 76" version="1.1" xmlns="http://www.w3.org/2000/svg" xmlns:xlink="http://www.w3.org/1999/xlink">
    <!-- Generator: Sketch 45.1 (43504) - http://www.bohemiancoding.com/sketch -->
    <title>Development gradient</title>
    <desc>Created with Sketch.</desc>
    <defs>
        <radialGradient cx="48.1271476%" cy="50%" fx="48.1271476%" fy="50%" r="113.020149%" gradientTransform="translate(0.481271,0.500000),scale(0.160000,1.000000),rotate(-90.000000),scale(1.000000,3.310914),translate(-0.481271,-0.500000)" id="radialGradient-1">
            <stop stop-color="#474747" offset="0%"></stop>
            <stop stop-color="#FFFFFF" offset="100%"></stop>
        </radialGradient>
        <linearGradient x1="50%" y1="100%" x2="50%" y2="0%" id="linearGradient-2">
            <stop stop-color="#2F855C" offset="0%"></stop>
            <stop stop-color="#53C78D" offset="100%"></stop>
        </linearGradient>
    </defs>
    <g id="Page-1" stroke="none" stroke-width="1" fill="none" fill-rule="evenodd">
        <g id="Development-gradient">
            <g id="list-icon-development" transform="translate(1.000000, 1.000000)">
                <ellipse id="Oval-3" fill="url(#radialGradient-1)" cx="27.5" cy="73" rx="12.5" ry="2"></ellipse>
                <path d="M0.0477648803,25.9834711 C0.0159216268,27.0413223 0,27.8347107 0,28.3636364 C0,48.0991736 24.6543438,71.3057851 24.9537893,71.5041322 C25.2532348,71.8016529 26.2513863,72 27.2495379,72 C28.2476895,72 29.1460259,71.8016529 29.4454713,71.5041322 C30.1441774,70.9090909 54,46.6115702 54,28.3636364 C54,27.9669421 54,27.6694215 54,27.2727273 C54,27.0743802 54,26.9752066 54,26.7768595 C54,12 41.922366,0 27.0499076,0 C12.4768946,0 0.447025509,11.6033058 0.0477648803,25.9834711 Z" id="Shape" stroke="#454545" stroke-width="0.5" fill="url(#linearGradient-2)" fill-rule="nonzero"></path>
                <g id="shovel" transform="translate(8.000000, 8.000000)" fill-rule="nonzero" fill="#C3E6BD">
                    <path d="M15.0697674,27.3488372 C16.1860465,28.4651163 17.3023256,29.5813953 18.4186047,30.6976744 C18.6046512,30.8837209 18.5116279,30.9767442 18.4186047,31.0697674 C16.2790698,33.2093023 14.2325581,35.255814 12.0930233,37.3953488 C9.6744186,39.7209302 5.95348837,40.1860465 3.1627907,38.5116279 C1.20930233,37.3023256 0.279069767,35.5348837 0.186046512,33.2093023 C0.0930232558,30.8837209 0.837209302,28.8372093 2.51162791,27.1627907 C4.46511628,25.2093023 6.41860465,23.255814 8.37209302,21.2093023 C8.55813953,21.0232558 8.65116279,21.0232558 8.93023256,21.2093023 C10.0465116,22.4186047 11.255814,23.5348837 12.372093,24.744186 C12.372093,24.9302326 14.8837209,27.3488372 15.0697674,27.3488372 Z" id="Shape"></path>
                    <path d="M27.255814,10.4186047 C26.5116279,9.58139535 26.0465116,8.74418605 25.8604651,7.62790698 C25.6744186,6.04651163 26.0465116,4.65116279 27.1627907,3.44186047 C28.0930233,2.41860465 29.1162791,1.48837209 30.0465116,0.558139535 C30.2325581,0.372093023 30.3255814,0.465116279 30.4186047,0.651162791 C31.4418605,1.6744186 32.5581395,2.79069767 33.5813953,3.81395349 C35.5348837,5.76744186 37.4883721,7.72093023 39.4418605,9.6744186 C39.627907,9.86046512 39.627907,9.95348837 39.4418605,10.1395349 C38.6046512,10.9767442 37.6744186,11.9069767 36.8372093,12.744186 C34.7906977,14.7906977 31.8139535,14.7906977 29.6744186,12.8372093 C29.5813953,12.744186 29.4883721,12.744186 29.4883721,12.6511628 C28.744186,11.9069767 28,11.1627907 27.255814,10.4186047 Z M32.9302326,11.7209302 C33.8604651,11.7209302 34.4186047,11.5348837 34.8837209,11.0697674 C35.255814,10.6976744 35.627907,10.3255814 36,10.0465116 C36.1860465,9.86046512 36.0930233,9.86046512 36,9.6744186 C34.1395349,7.81395349 32.2790698,5.95348837 30.5116279,4.18604651 C30.3255814,4 30.2325581,4.09302326 30.1395349,4.18604651 C29.8604651,4.46511628 29.5813953,4.74418605 29.3023256,5.02325581 C28.1860465,6.13953488 28.1860465,7.62790698 29.3023256,8.74418605 C30.0465116,9.48837209 30.7906977,10.2325581 31.627907,11.0697674 C31.9069767,11.4418605 32.4651163,11.7209302 32.9302326,11.7209302 Z" id="Shape"></path>
                    <path d="M27.255814,10.4186047 C28,11.1627907 28.744186,11.9069767 29.4883721,12.6511628 C29.3023256,12.9302326 29.0232558,13.1162791 28.744186,13.3953488 C24.1860465,17.9534884 19.5348837,22.4186047 14.9767442,26.9767442 C14.8837209,27.0697674 14.7906977,27.1627907 14.6976744,27.255814 C13.9534884,26.5116279 13.2093023,25.7674419 12.4651163,25.0232558 C17.3023256,20.2790698 22.0465116,15.5348837 26.8837209,10.8837209 C26.9767442,10.6046512 27.1627907,10.5116279 27.255814,10.4186047 Z" id="Shape"></path>
                </g>
            </g>
        </g>
    </g>
</svg>