<svg xmlns="http://www.w3.org/2000/svg" width="192" height="192" viewBox="0 0 192 192">
  <title>illustration-thumbs-up</title>
  <g>
    <g>
      <path d="M95.451,142.6l1.7.844c-.034-.051-.061-.106-.1-.155C96.52,143.063,95.98,142.838,95.451,142.6Z"/>
      <path d="M171.278,81.081c-1.287-1.249-2.994-2.208-3.648-3.877-.741-1.894.6-3.386.344-5.163-.2-1.394-1.555-2.874-2.392-3.936l-5.276-6.691a9.36,9.36,0,0,0-2.078-2.125c-2.411-1.591-5.613-.663-8.482-1-3.177-.367-6.076-2.334-9.273-2.288a20.143,20.143,0,0,0-5.031,1.1c-3.166.883-15.994,3.545-13.136-3.466.442-1.083,1.093-2.079,1.444-3.195,1.035-3.29-.7-6.727-1.4-10.106-.665-3.242-.485-6.948-2.719-9.39-.805-.882-1.858-1.5-2.72-2.327a43.14,43.14,0,0,1-3.139-4.1,11.976,11.976,0,0,0-11.12-4.115c-1.272.225-2.509.661-3.8.773-1.64.142-3.35-.24-4.907.3-2.114.728-3.318,2.9-4.271,4.924q-1.539,3.264-2.886,6.613c-.7,1.749-1.366,3.737-.614,5.466.355.816.994,1.477,1.395,2.271,1.315,2.6-1.844,5.3-.456,8,.2.385.471.73.645,1.127a4.1,4.1,0,0,1,.011,2.7c-1,3.723-3.922,6.649-7.137,8.777a3.118,3.118,0,0,0-1.214,1.148,4.646,4.646,0,0,0-.248,1.339c-.245,1.731-1.593,2.4-2.565,3.659A18.02,18.02,0,0,0,74.226,72.3c-1.04,2.893-.392,6.306-1.674,9.092-1.744,3.79-9.444,2.568-13.046,4.366a18.311,18.311,0,0,0-8.96,10.313c-1.863,5.061-5.663,6.387-10.9,7.715a66.563,66.563,0,0,1-12.477,2c-3.068.2-9.947,2.653-7.271,7.034.352.576.889,1.016,1.265,1.575,1.725,2.568-.546,5.822-1.386,8.8a9.449,9.449,0,0,0,1.055,7.454c1.038,1.67,2.576,2.971,3.725,4.566,2.139,2.967,2.791,6.713,4.019,10.159s3.472,6.977,7.033,7.813c2.279.536,4.887-.1,6.851,1.18,1.475.959,2.151,2.731,3.163,4.17,7.422,10.561,17.227-4.707,26.065-3.946a33.638,33.638,0,0,1,5.877,1.537,20.683,20.683,0,0,0,9.322.375,40.721,40.721,0,0,0,6.828-2.165,5.978,5.978,0,0,0,3.8-2.966c2.286-3.47,2.595-5.773,6.477-3.44,3.275,1.969,7.385,1.948,11.138,1.23a17.378,17.378,0,0,1,3.369-.477c1.617.013,3.191.591,4.807.594,3.234.006,5.977-2.219,8.538-4.194,6.138-4.733,12.278-2.988,19.368-3.992a21.541,21.541,0,0,0,6.549-2.456l8.087-4.086a6.179,6.179,0,0,0,2.1-1.459,11.07,11.07,0,0,0,1.18-2.4c.822-1.754,2.322-3.083,3.432-4.671,3.174-4.542.864-9.379-1.251-13.7a9.852,9.852,0,0,1-1.211-5.163,5.2,5.2,0,0,1,.371-1.478c.695-1.658,2.239-2.8,3.212-4.306,2.149-3.333,1.1-7.633.745-11.278C174.119,86.92,173.683,83.417,171.278,81.081Zm-74.4,65.159a9.591,9.591,0,0,1-1.484,2.079,17.719,17.719,0,0,1-4.473,3.278,7.911,7.911,0,0,1-3.265,1.295,7.866,7.866,0,0,1-2.426-.324c-5.851-1.41-10.181-4.069-11.363-10.485-.64-3.473-.067-7.724-2.861-9.885-1.829-1.414-4.486-1.3-6.363-2.65-4.461-3.208-.983-10.931-4.136-15.431a23.911,23.911,0,0,0-2.34-2.491c-4.651-4.951-3.324-11.319-.3-16.6a7.853,7.853,0,0,1,2.77-3.259c1.5-.811,5.209-.659,6.383.817,1.293,1.625-.208,4.11.912,6.042.627,1.081,1.856,1.744,2.364,2.886.487,1.094.2,2.355.2,3.553a9.566,9.566,0,0,0,2.711,6.213c3.443,3.8,10.9,6.579,11.754,12.144.378,2.454.079,5.12,1.326,7.267,1.2,2.062,3.666,3.309,4.379,5.586.27.859.255,1.788.536,2.644C92.392,142.53,98.775,142.355,96.878,146.24Zm21.193-63.466c-.76-3.7,3.706-5.928,5.815-8.08a2.261,2.261,0,0,0,.714-2.082c-.341-1.259-1.962-1.558-3.265-1.617a7.811,7.811,0,0,0-3.042.262,7.851,7.851,0,0,0-3.339,3.088c-2.508,3.462-5.146,7.429-4.463,11.649a18.837,18.837,0,0,1,.38,2.252,18.742,18.742,0,0,0-.056,2.9c.431,2.178,2.98,3.132,5.167,3.514,1.163.2,8.458,2.145,5.248,4.074-.4.237-.9.267-1.261.556a1.689,1.689,0,0,0-.418,1.665c.472,2.309.6,5.026-1.788,6.469-1.273.768-2.848.8-4.25,1.3-1.562.552-3.174,2.284-1.822,3.814,1.374,1.557,3.561-.059,5.145,0,1.722.06,2.939,1.77,4.6,2.236.736.206,2.953-.483,3.385-.081.7.65-.374,3.169-.494,4.092a19.156,19.156,0,0,0,.949,8.942,22.957,22.957,0,0,0,3.02,5.455c1.229,1.741,3.194,1.824,2.554,4.256a10.269,10.269,0,0,1-1.012,2.746,8.776,8.776,0,0,1-2.793,2.4,3.61,3.61,0,0,1-1.06.415,3.8,3.8,0,0,1-1.6-.377c-1.412-.4-2.849.406-4.147,1.09-4.286,2.261-7.343-1.113-11.537-1.308a6.025,6.025,0,0,1-1.866-.209,5.217,5.217,0,0,1-1.708-1.353c-3.258-3.247-8.385-5.19-9.487-9.655-.415-1.686-.2-3.626-1.284-4.983a16.349,16.349,0,0,1-1.3-1.438c-1.027-1.667.39-3.808.152-5.751-.28-2.274-2.646-3.595-4.729-4.549l-4.826-2.209a6.448,6.448,0,0,1-2.431-1.6,9.748,9.748,0,0,1-1.239-2.811,9.532,9.532,0,0,0-2.733-3.866c-.952-.807-2.169-1.605-2.247-2.851a7.419,7.419,0,0,1,.524-2.161,8.355,8.355,0,0,0-.263-3.664c-.319-1.529-.561-3.4.733-4.561,1.1-.99,1.912-.378,3.106-.634,2.928-.628,3.476-3.529,2.644-6.183-.7-2.247-2.128-4.269-2.452-6.6-.566-4.07,2.351-7.81,5.562-10.376,1.529-1.223,3.242-2.407,3.983-4.219.442-1.084.49-2.3.977-3.367a12.633,12.633,0,0,1,2.006-2.67A15.016,15.016,0,0,0,94.9,44.032a14.732,14.732,0,0,1-.684-3.968c.071-1.2.582-2.4.327-3.579-.2-.947-.891-1.768-.935-2.736-.073-1.638,1.6-2.706,2.824-3.8,2.178-1.952,4.219-6.025,7.721-4.033,1.608.915,2.727,2.53,4.34,3.436,1.3.733,2.923,1,3.918,2.119,1.01,1.135,1.071,2.792,1.413,4.272.516,2.235,1.754,4.225,2.642,6.34a21.717,21.717,0,0,1-.237,16.967c-.768,1.754-2.251,3.679-1.039,5.641,1.088,1.761,3.574,1.485,5.391.924a81.879,81.879,0,0,1,11.3-2.536l5.567-.893c3.343-.537,7.116-.973,9.8,1.091.634.487,1.173,1.1,1.834,1.546,1.466,1,3.354,1.119,4.976,1.841,3.48,1.547,5.2,5.894,4.333,9.6a12.2,12.2,0,0,1-7.443,8.094c-1.088.443-2.229.764-3.269,1.311-2.376,1.249-4.007,3.549-6.154,5.161a3.037,3.037,0,0,1-1.395.673,5.463,5.463,0,0,1-1.908-.368c-2.339-.57-4.681.733-7.054,1.141-3.363.579-6.745-.659-9.933-1.875-1.068-.408-2.288-.989-2.5-2.112-.15-.79.274-1.578.284-2.383C119.035,84.81,118.292,83.849,118.071,82.774Zm45.311,43.541a4.249,4.249,0,0,1-.711.775c-.779.64-1.764.973-2.591,1.548-2.153,1.5-3.182,4.552-5.709,5.249-1.022.282-2.121.107-3.152.348a12.075,12.075,0,0,0-2.284.973,12.011,12.011,0,0,1-9.16.365,6.833,6.833,0,0,1-3.174-2.188c-2.363-3.186-7.518-8.662-3.972-12.935,2.919-3.515,9.254-1.777,13.02-1.267a5.592,5.592,0,0,0,1.964.034,11,11,0,0,0,2.128-.982,5.76,5.76,0,0,1,4.2-.238,4.125,4.125,0,0,0,1.511.37,2.758,2.758,0,0,0,1.507-.743,19.328,19.328,0,0,1,3.65-2.831C167.4,111.551,166.149,122.538,163.382,126.315Zm3.791-34.58a22.317,22.317,0,0,1-.947,4.79c-1.168,4.246-2.469,8.718-5.676,11.735a12.12,12.12,0,0,1-4.065,2.523,6.581,6.581,0,0,1-2.356.477c-1.147-.014-2.263-.464-3.41-.419a9.636,9.636,0,0,0-2.658.678,23.787,23.787,0,0,1-16.175-.392c-1.881-.74-3.944-2.208-3.724-4.217a6.168,6.168,0,0,0,.178-1.427c-.089-.691-.661-1.2-1.021-1.8-2.826-4.691,5.1-6.4,7.844-6.682a31.949,31.949,0,0,0,6.853-2,90.237,90.237,0,0,0,13.791-6.458c2.3-1.288,4.579-4.169,7.23-3.677a4.206,4.206,0,0,1,1.872.918A7.136,7.136,0,0,1,167.173,91.735Z"/>
    </g>
    <path d="M34.239,112.949c2.632-2.515,6.635-2.75,10.275-2.841a4.677,4.677,0,0,1,1.883.211,2.448,2.448,0,0,1,.828,3.752c-1.286,1.375-3.56.757-5.382,1.233-1.648.43-2.877,1.76-4.265,2.747s-3.365,1.629-4.733.614a4.594,4.594,0,0,1-.285-4.535" fill="#fff"/>
    <path d="M152.505,60.787c1.934-.147,4.263-.109,5.308,1.524a1.226,1.226,0,0,1,.232.872c-.141.721-1.095.866-1.829.846l-1.727-.047a3.269,3.269,0,0,1-1.982-.485c-.543-.43-.685-1.408-.092-1.768" fill="#fff"/>
    <path d="M87.58,116.421c-.415-.5-1.256.2-1.178.847s.588,1.144.833,1.746a20.229,20.229,0,0,1,.4,2.131c.2.7.891,1.379,1.57,1.126a1.638,1.638,0,0,0,.828-1.16,4.538,4.538,0,0,0,.129-2.773,2.066,2.066,0,0,0-2.143-1.461" fill="#fff"/>
  </g>
</svg>
