<svg xmlns="http://www.w3.org/2000/svg" width="96" height="96" viewBox="0 0 96 96">
  <title>illustration-strawberry</title>
  <g>
    <path d="M27.626,59.085c.062.1.12.2.181.3.485.81.46,1.356,1.559,1.644,2.8.732,2.691-3.988,1.106-5.221a5.4,5.4,0,0,0-2.926-.908,7.6,7.6,0,0,0-2.631.153,3.476,3.476,0,0,0-2.1,1.5,2.275,2.275,0,0,0,.077,2.492,1.947,1.947,0,0,0,2.409.48,12.271,12.271,0,0,1,1.223-.844A.792.792,0,0,1,27.626,59.085Z"/>
    <path d="M45.049,62.939a1.773,1.773,0,0,0,.159,1.051,1.367,1.367,0,0,0,1.538.672c.915-.153.957-1.255,1.668-1.375a1.329,1.329,0,0,1,.467.07,3.781,3.781,0,0,1,.757.1c.387.162.52.63.761.973a1.56,1.56,0,0,0,2.691-.239,2.531,2.531,0,0,0-.071-1.9,6.216,6.216,0,0,0-1.363-2.177,1.44,1.44,0,0,0-.451-.345,1.632,1.632,0,0,0-.65-.082l-1.338.015a3.549,3.549,0,0,0-2.85.864A3.934,3.934,0,0,0,45.049,62.939Z"/>
    <path d="M87.963,29.457a1.087,1.087,0,0,0-.519-.487,17.373,17.373,0,0,0-2.936-1.255,18.386,18.386,0,0,0-6.124-1.343c-2.907.012-5.8,1-8.69,1.282-1.314.126-5.166,1.806-5.763-.075a1.69,1.69,0,0,1,.444-1.4c1.744-2.494,4.547-2.658,6.18-5.134a12.919,12.919,0,0,0,1.994-7.794c-.207-3.8-1.8-7.425-3.734-10.788C67.333-.111,63.669-.4,61.229,1.441a7.325,7.325,0,0,1-.939.682,5.79,5.79,0,0,1-1.263.415c-5.285,1.4-9.095,6.481-8.621,11.5.166,1.746.786,3.454.752,5.206a4.654,4.654,0,0,1-1.783,3.7c-1.213.895-2.824.731-3.095-.948-.364-2.264.967-4.061-.361-6.353a3.742,3.742,0,0,1-.446-.892,4.235,4.235,0,0,1-.006-1.252c.08-2.136-1.719-4.029-3.842-4.916-2.261-.946-4.662-.754-7.016-1.186-2.172-.4-4.293-1.677-6.5-.663-.382.177-.772.477-.761.87a1.682,1.682,0,0,0,.39.782c.725,1.143.133,2.581.2,3.9a7.888,7.888,0,0,0,.813,2.706l1.368,3.132A5.5,5.5,0,0,0,31,19.668c1.168,1.294,6.682,3.119,4.264,5.375-1.51,1.408-4.841,1.5-6.826,1.945a30.4,30.4,0,0,0-8.627,2.951c-2.444,1.42-3.914,3.915-5.661,6.21a25.918,25.918,0,0,0-3.871,6.7c-.892,2.417-2.657,4.769-2.978,7.337-.861,6.895.93,13.985,1.912,20.816a26.933,26.933,0,0,0,1.3,5.895,26.984,26.984,0,0,0,3.53,5.911c2.4,3.333,4.859,6.729,8.2,9.121,6.524,4.672,17.371,4.89,24.332,1.047A57.6,57.6,0,0,0,57.1,84.827l8.315-7.539c1.818-1.647,4.523-2.994,6.123-4.712,1.684-1.8,2.044-4.96,3.257-7.1,1.542-2.718,4.053-5.185,4.811-8.169.768-3.027-.078-6.134-.718-9.183-.554-2.641-.445-5.633-2.066-7.838-1.044-1.419-7.011-3.518-5.879-5.4,1.365-2.276,6.054.4,7.74.843,4.912,1.281,7.828-1.41,9.22-5.6A1,1,0,0,0,87.963,29.457ZM56.093,11.311a8.923,8.923,0,0,0,.558-1.03,19.613,19.613,0,0,1,.841-2.173,5,5,0,0,1,2.564-1.839,17.838,17.838,0,0,1,3.29-.95c.016.952-.866,1.634-1.395,2.425a7.2,7.2,0,0,0-.905,2.7,26.343,26.343,0,0,0-.683,5.9.968.968,0,0,0,.224.7.7.7,0,0,0,.976-.2,2.417,2.417,0,0,0,.331-1.062,8.4,8.4,0,0,1,1.529-3.574,4.778,4.778,0,0,0,1.046-1.76,11.135,11.135,0,0,1,.175-1.538A1.887,1.887,0,0,1,66.13,7.805c3.48-.613,4.031,3.421,2.679,5.884a8.534,8.534,0,0,1-1.868,1.995c-.687.675-1,1.642-1.7,2.313-.361.348-.813.593-1.16.955a1.273,1.273,0,0,0-.361,1.365,6.237,6.237,0,0,1,.412.656c.14.428-.18.862-.491,1.188-.938.981-2.244,1.7-3.123,2.679a2.254,2.254,0,0,0-.581,1.518c.007.441.271.863.282,1.29a3.139,3.139,0,0,1-2.87-1.691,12.2,12.2,0,0,0-.56-1.557c-.165-.264-.4-.48-.551-.754-.425-.788-.006-1.737.155-2.618.359-1.965-1.067-3.445-1.6-5.211C54.187,13.786,55.193,12.759,56.093,11.311ZM40.914,40.827c.426-.843,1.156-1.64,1.585-2.494.917-1.826.1-4.418,1.613-5.787,1.982-1.79,4-1.147,4.392,1.527a3.737,3.737,0,0,0-2.249,3.3.482.482,0,0,0,.136.413.389.389,0,0,0,.288.05c.626-.093.926-.829,1.476-1.142a4.639,4.639,0,0,1,.735-.269c1.622-.586,1.274-2.476,3.331-1.735,1.764.636,1.022,1.947.3,3.221-.824,1.449-1.989,5.153-3.664,5.776-.892.332-1.9.018-2.83.242a2.346,2.346,0,0,1-.849.148,3.34,3.34,0,0,1-.683-.256A1.6,1.6,0,0,0,42.476,44.9a17.308,17.308,0,0,1-1.346-1.335A2.369,2.369,0,0,1,40.914,40.827ZM71.855,50.842c1.024,2.535-1.7,5.091-1.729,7.793a5.82,5.82,0,0,1-.083,1.97,4.579,4.579,0,0,1-1.293,1.551A9.551,9.551,0,0,0,65.818,68a6.365,6.365,0,0,1-.658,3.03c-1.476,2.18-4.136,1.115-5.486,3.428a15.028,15.028,0,0,1-1.66,2.825c-1.07,1.148-2.709,1.512-4.118,2.206-2.406,1.187-4.187,3.388-6.572,4.618-2.834,1.462-5.34-.43-8.035-1.292a6.586,6.586,0,0,0-3.318-.408c-1.1.235-2.1,1.194-1.9,2.215.089.459.382.984.055,1.342a1.266,1.266,0,0,1-1.07.211c-6.571-.7-10.919-4.151-14.949-9.164a7.474,7.474,0,0,1-1.422-2.287c-.479-1.473-.008-3.085-.206-4.621-.2-1.592-1.108-3-1.591-4.532a17.622,17.622,0,0,1-.591-4.736c-.157-4.668-1.85-11.9.729-16.137,1.694-2.779,5.116-3.642,6.78-6.59.958-1.7,4.357-3.86,6.15-4.837,1.284-.7,2.888-.546,4.375-.688a10.346,10.346,0,0,0,3.916-1.18,10.72,10.72,0,0,1,2.491-1.214,4.162,4.162,0,0,1,1.192-.108,11.99,11.99,0,0,0-3.143,3.376,7.408,7.408,0,0,0-1.415,4.168c.007.7.149,1.4.091,2.1a16.646,16.646,0,0,1-.636,2.494,6.655,6.655,0,0,0,.192,2.64c.147,1.188.074,2.417.224,3.616.1.821-.263,1.609.418,2.28a3.632,3.632,0,0,0,1.393.751,6.341,6.341,0,0,0,2.98.449,2.674,2.674,0,0,0,2.245-1.793c.109-.412.163-.952.574-1.067.329-.093.634.176.92.366a3.872,3.872,0,0,0,3.3.116A19.265,19.265,0,0,1,50.4,49.12c2.606-.4,4.457-2.448,5.772-4.483a27.987,27.987,0,0,0,3.451-7.628,5.681,5.681,0,0,0,2.122.354c1.648-.046,3.475-.392,4.809.493a3.818,3.818,0,0,1,1.489,3.058c.064,1.152-.14,2.311-.033,3.46a6.7,6.7,0,0,0,1.581,3.7A11.512,11.512,0,0,1,71.855,50.842Z"/>
    <path d="M37.2,11.664c.654-.294,1.4.3,1.661.962s.247,1.416.5,2.088.964,1.286,1.633,1.029a1.45,1.45,0,0,0,.566-.448,3.1,3.1,0,0,0,.566-3.051A2.477,2.477,0,0,0,39.534,10.7" fill="#fff"/>
    <path d="M73.973,41.291c-.441-.321-.935.365-.991.908a5.281,5.281,0,0,0,.514,2.868,1.573,1.573,0,0,0,.721.807,1.271,1.271,0,0,0,1.559-.967,3.683,3.683,0,0,0-.246-2.036" fill="#fff"/>
    <path d="M37.834,85.093a3.252,3.252,0,0,1,2.779,2.365,4.437,4.437,0,0,1-3.557.263,7.38,7.38,0,0,1,.07-2.264" fill="#fff"/>
    <path d="M36.587,68.785c.585-.28,1.038-.831,1.671-.977a1.7,1.7,0,0,1,1.856,1.078,2.452,2.452,0,0,1-.343,2.223,4.559,4.559,0,0,1-1.807,1.446,7.481,7.481,0,0,1-6.919-.131,4.475,4.475,0,0,1-1.237-1.01c-1.055-1.29-1.043-4.266,1.008-4.5C32.972,66.676,34.175,69.936,36.587,68.785Z"/>
  </g>
</svg>
