<svg xmlns="http://www.w3.org/2000/svg" width="256" height="96" viewBox="0 0 256 96">
  <title>illustration-friends</title>
  <g>
    <g>
      <path d="M32.561,13.22c2.854-2.605,6.814-4.478,10.55-3.49,1.118.3,2.161.834,3.278,1.135,2.012.543,4.171.3,6.187.827s4.011,2.343,3.577,4.381c-.238,1.119-1.172,2.1-1.019,3.234.174,1.294,1.675,1.97,2.98,2.02s2.646-.276,3.9.086c1.005.289,1.885,1,2.927,1.088a12.455,12.455,0,0,0,1.587-.107,2.719,2.719,0,0,1,2.731,1.52,3.6,3.6,0,0,1-.494,2.779,5.314,5.314,0,0,0-.872,2.729c.079.966,1.091,1.906,1.97,1.5,1.113-.514.693-2.2,1.176-3.33A3.085,3.085,0,0,1,72.462,26.2a4.807,4.807,0,0,1,3.272-.577,3.223,3.223,0,0,1,2.432,2.129,4.9,4.9,0,0,1,.025,2.067,25.069,25.069,0,0,1-1.476,5.555,5.277,5.277,0,0,1-2.36,3.072A3.811,3.811,0,0,1,69.778,36.7c-.416-.685-.779-1.561-1.564-1.72-.9-.183-1.67.811-1.7,1.731a8.854,8.854,0,0,0,.663,2.668c.65,2.25.126,4.651-.4,6.933-.375,1.63-.881,3.442-2.334,4.269-1.795,1.02-4,.021-5.985-.535-2.3-.643-4.976-.784-6.544-2.584-1.717-1.971-1.251-5.021-.215-7.421s2.564-4.691,2.717-7.3a15.311,15.311,0,0,1,.175-3.225c.248-.892.821-1.665,1.077-2.554a1.962,1.962,0,0,0-.81-2.4,2.01,2.01,0,0,1-2.629.585A12.076,12.076,0,0,1,49.905,23.3a5.281,5.281,0,0,0-4.279-1.281,3.343,3.343,0,0,0-2.742,3.226,1.69,1.69,0,0,0,.344.993c.836,1.008,2.421.156,3.726.04,1.975-.174,3.678,1.726,3.891,3.7A8.363,8.363,0,0,1,49,35.495a3.07,3.07,0,0,1-1.676,1.4,2.9,2.9,0,0,1-2-.489,11.151,11.151,0,0,1-3.313-2.881c-1.3.515-1.324,2.3-1.248,3.7.125,2.3-.332,5.013-2.38,6.058-1.438.735-3.168.371-4.738-.009L30.472,42.5c-1.876-.455-4.029-1.145-4.691-2.958a4.83,4.83,0,0,1,0-2.725,12.868,12.868,0,0,1,1.5-3.724c.248-.413.529-.9.338-1.346-.273-.633-1.167-.554-1.844-.681a2.91,2.91,0,0,1-2.135-2.306,5.891,5.891,0,0,1,.4-3.26,4.851,4.851,0,0,1,2.126-2.71c1.129-.645,2.194-.536,2.666-1.894s.179-2.751.889-4.152A12.672,12.672,0,0,1,32.561,13.22Z"/>
      <path d="M83.249,21.177a7.942,7.942,0,0,1,3.9-1.429,9.653,9.653,0,0,1,5.156.263c1.934.8,3.247,2.606,4.282,4.424.782,1.373,1.473,3.064.768,4.478a3.844,3.844,0,0,1-2.6,1.819c-1.06.262-2.167.271-3.245.448a1.909,1.909,0,0,0-1.391.71c-.462.754.21,1.737,1,2.132a15.333,15.333,0,0,1,2.436,1.026c1.283.953,1.319,2.826,1.232,4.422a10.141,10.141,0,0,1-.716,3.845c-.3.64-.739,1.21-1.046,1.848-.862,1.793-.622,3.888-.686,5.877s-.646,4.237-2.419,5.14a5.02,5.02,0,0,1-2.09.463,20.712,20.712,0,0,1-5.664-.831A14,14,0,0,1,77.552,54.1a4.749,4.749,0,0,1-2.285-4.123,12.2,12.2,0,0,1,1.045-3.048c1.031-2.793.552-6.13,2.256-8.571A5.759,5.759,0,0,0,79.924,34.5a2.793,2.793,0,0,1,1.256-2.669c1.286-.887,3.741-.439,4.784-1.349,1.275-1.113-2.194-1.9-2.99-2.737A4.684,4.684,0,0,1,83.249,21.177Z"/>
      <path d="M107.2,33.431a18.877,18.877,0,0,0-4.9,1.608,13.143,13.143,0,0,0-6.01,7.15,19.022,19.022,0,0,0-.751,9.422,5.612,5.612,0,0,0,.831,2.447,11.62,11.62,0,0,0,1.622,1.558c1.814,1.709,2.7,4.4,4.908,5.556a9.147,9.147,0,0,0,2.6.764l11.62,2.2a7.708,7.708,0,0,0,1.916.2,4.894,4.894,0,0,0,3.659-2.373A9.866,9.866,0,0,0,124,57.671c.2-1.934-.051-4.239-1.717-5.243-1.6-.966-3.633-.232-5.482.061a11.083,11.083,0,0,1-7.253-1.36c-.731-.426-1.5-1.288-1.053-2.009a1.309,1.309,0,0,1,1.639-.3c.553.25.991.7,1.521,1,2.323,1.3,5.146-.734,7.8-.559a21.338,21.338,0,0,0,2.59.308c2.214-.124,3.7-2.446,4.013-4.641a9.594,9.594,0,0,0-2.278-7.6c-2.058-2.328-4.771-2.93-7.684-3.449C112.936,33.315,110.431,32.741,107.2,33.431Z"/>
      <path d="M130.172,42.278a4.665,4.665,0,0,1,.859-2.184c1.7-2.177,5.113-1.639,7.7-.655,2.11.8,4.507,2.3,4.363,4.551a19.257,19.257,0,0,1-.822,2.786c-.208.949.137,2.189,1.092,2.367,1.166-.413,1.192-2.025,1.775-3.117a5.8,5.8,0,0,1,3.454-2.751,14.665,14.665,0,0,0,2.251-.3c.33-.1.641-.256.971-.358a4.447,4.447,0,0,1,3.933.945,18.768,18.768,0,0,1,4.876,6.183,11.415,11.415,0,0,1,.731,7.287c-.275,1.158-.409,2.861.764,3.06.8.136,1.407-.67,1.8-1.378,1.164-2.118,1.643-4.479,3.232-6.352a5.9,5.9,0,0,1,3.163-2.051,8.818,8.818,0,0,1,3.591.239,11.264,11.264,0,0,1,2.956.9,8.779,8.779,0,0,1,3.488,3.992,9.163,9.163,0,0,1,.913,2.18c.153.716-.117,1.446.516,2.018a1.7,1.7,0,0,0,2.452-.705,5.06,5.06,0,0,0,.279-2.88c-.245-2.589-.346-5.4,1.11-7.558a7.454,7.454,0,0,1,6.514-2.956,13.427,13.427,0,0,1,6.889,2.636,4.482,4.482,0,0,1,2.144,2.7,4.916,4.916,0,0,1-.276,2.093l-3.069,10.843a41.055,41.055,0,0,1-1.32,4.106,28.108,28.108,0,0,0-1.786,4.706c-.466,2.271-.032,4.853-1.393,6.73a5.59,5.59,0,0,1-4.144,2.057,16.537,16.537,0,0,1-4.725-.555c-2.21-.479-4.916-1.508-5.024-3.766-.051-1.049.53-2.019.705-3.055s-.381-2.388-1.43-2.338c-.826,2.334-2,4.884-4.325,5.725a8.881,8.881,0,0,1-4.5.01,15.115,15.115,0,0,1-5.676-1.769,7.634,7.634,0,0,1-3.435-5.608c-.207-2.139.326-4.76-1.383-6.064-1.074,1.226-.977,3.046-.927,4.676s-.143,3.524-1.5,4.425a4.61,4.61,0,0,1-2.617.561,20.2,20.2,0,0,1-10.211-2.906,3.4,3.4,0,0,1-1.288-1.157,3.432,3.432,0,0,1,.1-2.772c1.306-3.668,3.724-7.5,2.343-11.143-.49-1.293-1.894-2.51-3.145-1.922-.969.455-1.228,1.687-1.369,2.747l-.81,6.114c-.247,1.863-.612,3.937-2.129,5.048a6.145,6.145,0,0,1-4.437.708,22.729,22.729,0,0,1-7.112-2.143,3.089,3.089,0,0,1-1.352-1.047c-1.058-1.739-.2-3.9.518-5.59a14.554,14.554,0,0,0,1.244-2.9c.167-.971-.246-1.851.281-2.788a9.931,9.931,0,0,0,1.4-2.409c.236-1.021-.239-2.085-.119-3.126a8.727,8.727,0,0,1,1.184-2.72A11.681,11.681,0,0,0,130.172,42.278Z"/>
      <path d="M108.227,42.778a4.5,4.5,0,0,1,4.489-2.22,2.144,2.144,0,0,1,.962.353,1.806,1.806,0,0,1,.075,2.563,3.379,3.379,0,0,1-2.641.921,6.225,6.225,0,0,1-3.223-1.023" fill="#fff"/>
      <path d="M174.113,60.834a3.678,3.678,0,0,0-.609,1.5,1.259,1.259,0,0,0,.727,1.325c-.687-.231-.4,1.622-.3,1.835a3.6,3.6,0,0,0,2.237,1.492,2.058,2.058,0,0,0,2.454-1.851C179.222,62.516,176.548,56.723,174.113,60.834Z" fill="#fff"/>
      <path d="M217.783,58.506c-1.954-.837-3.9-1.785-5.96-1.458-4.822.767-11.072,2.129-12.252,7.815a5.027,5.027,0,0,0,.242,3.092,7.576,7.576,0,0,0,1.256,1.758,15.611,15.611,0,0,0,2.5,2.466,12.623,12.623,0,0,0,3.514,1.662,33.139,33.139,0,0,0,7.729,1.566,3.3,3.3,0,0,1-3.327,2.113,9.648,9.648,0,0,1-4-1.322l-4.524-2.28a4.452,4.452,0,0,0-2.733-.7,3.329,3.329,0,0,0-2.291,2.4c-.359,1.1-.4,2.286-.712,3.405-.471,1.713-1.558,3.452-.979,5.132.482,1.4,1.951,2.171,3.317,2.741a46.78,46.78,0,0,0,5.862,2,12.084,12.084,0,0,0,2.733.483c.956.03,1.906-.138,2.861-.185,4.386-.217,9.533,2.118,13.582-.211a14,14,0,0,0,3.053-2.139,4.713,4.713,0,0,0,1.5-3.316,17.229,17.229,0,0,1-.128-1.766c.029-.354.134-.7.17-1.051.182-1.787-1.352-3.233-2.747-4.364a18.063,18.063,0,0,0-5.854-3.48,15.588,15.588,0,0,0-4.178-.957c-1.785-.094-3.9.231-5.071-1.114.728-1.35,2.577-1.562,4.1-1.358a17.347,17.347,0,0,1,7.033,2.724,28.919,28.919,0,0,0,3.508,2.184,5.21,5.21,0,0,0,4.012.332,4.913,4.913,0,0,0,2.277-2.044c1.716-2.761,1.415-7.553-1.565-9.373a20.047,20.047,0,0,0-5.361-2.659c-2.022-.545-4.117-.8-6.1-1.506C218.756,58.917,218.269,58.715,217.783,58.506Z"/>
    </g>
    <path d="M50.167,13.8a7.633,7.633,0,0,1,2.511.7,1.17,1.17,0,0,1,.544.425,1.286,1.286,0,0,1-.174,1.177c-.367.711-.839,1.5-1.628,1.639a1.811,1.811,0,0,1-1.089-.2c-1.427-.7-2.061-2.4-3.307-3.38a2.45,2.45,0,0,1-.607-.562.6.6,0,0,1,.046-.759.791.791,0,0,1,.6-.111,6.037,6.037,0,0,1,2.257.691" fill="#fff"/>
    <path d="M91.751,22.872a4.98,4.98,0,0,1,2.309,2.98,1.471,1.471,0,0,1,.065.595c-.1.682-.953.984-1.635.883a2.937,2.937,0,0,1-2.414-2.673c-.044-.8.472-1.756,1.269-1.69" fill="#fff"/>
    <path d="M120.027,38.619c.708.33.9,1.23.986,2.007a2.663,2.663,0,0,0,.864,2.089,2.055,2.055,0,0,0,.908.266c.374.037.839-.018.986-.364a.882.882,0,0,0,.019-.489,4.817,4.817,0,0,0-3.161-3.7" fill="#fff"/>
    <path d="M104.536,42.962c-.126.5.474.837.944,1.045s.983.757.651,1.149c-.2.24-.582.2-.885.114a5.208,5.208,0,0,1-.873-.318,1.66,1.66,0,0,1-.907-.875.785.785,0,0,1,.5-1.025" fill="#fff"/>
    <path d="M139.864,45.3c-.364.711-1.051,1.3-1.1,2.1a1.466,1.466,0,0,0,1.373,1.492,2.286,2.286,0,0,0,.01-3.253" fill="#fff"/>
    <path d="M155.672,49.307c.758.059,1.056.994,1.189,1.742s.5,1.68,1.264,1.656a1.083,1.083,0,0,0,.938-.9,2.481,2.481,0,0,0-.2-1.371,7.64,7.64,0,0,0-1.271-2.154,2.326,2.326,0,0,0-1.129-.832,1,1,0,0,0-1.188.523" fill="#fff"/>
    <path d="M196.97,55.972a1.347,1.347,0,0,1-1.018-.264c-2.112-1.227-2.534-4.768.419-5.3C199.287,49.891,198.468,55.517,196.97,55.972Z" fill="#fff"/>
    <path d="M230.213,68.928a1.266,1.266,0,0,1-.351.718,1.358,1.358,0,0,1-.685.243,3,3,0,0,1-2.387-.338,3.139,3.139,0,0,1-.843-1.6c-.537-1.806-1.78-4.539,1.25-3.853A3.892,3.892,0,0,1,230.213,68.928Z" fill="#fff"/>
    <path d="M224.156,77.516a2.848,2.848,0,0,1,1.748,3.859,1.028,1.028,0,0,1-.264.354.931.931,0,0,1-.511.169,2.021,2.021,0,0,1-1.924-1.217,2.415,2.415,0,0,1,.282-2.3" fill="#fff"/>
  </g>
</svg>
