<svg xmlns="http://www.w3.org/2000/svg" width="192" height="80" viewBox="0 0 192 80">
  <title>illustration-cool</title>
  <g>
    <path d="M156.27,60.24c-.647-3.653-4.031-4.018-7.021-3.818-1.787.119-3.439-1.442-5.226-1.32l-3.282.224a2.771,2.771,0,0,1-1.152-.084,1.79,1.79,0,0,1-1.053-1.4c-.281-1.653.961-2.715,1.367-4.169a9.791,9.791,0,0,1,1.206-3.332c1.667-2.526,4.006-4.633,5.137-7.494A19.651,19.651,0,0,0,147.2,35c.309-1.749.58-3.7-.409-5.176-1.207-1.8-3.565-2.007-5.464-2.59A11.956,11.956,0,0,0,134.7,27.1a7.21,7.21,0,0,0-3.008,1.276,7.289,7.289,0,0,0-2.04,3.519,30.057,30.057,0,0,0-1.443,8.3c-.041,1.3-.554,3.1-1.828,2.861-.589-.112-.969-.668-1.3-1.165a23.755,23.755,0,0,0-24.731-9.98c-1.538.326-7.611,3.8-8.049,1.27a4.573,4.573,0,0,1,.155-1.464c.318-2.041-.873-3.979-2.012-5.7q-1.485-2.245-2.971-4.491a20.047,20.047,0,0,0-3-3.823c-2.639-2.423-6.38-3.256-9.959-3.417a26.711,26.711,0,0,0-13.652,2.8A18.976,18.976,0,0,0,51.7,27.365a12.843,12.843,0,0,1-1.061,2.668c-1.466,2.351-5.75,1.831-8.149,2.063a8.378,8.378,0,0,1-3.68-.191,7.06,7.06,0,0,1-2.3-1.55,11.085,11.085,0,0,1-2.96-4,5.54,5.54,0,0,1,.25-4.84c1.34-2.174,4.809-3.25,6.872-1.52.146.122.286.251.423.384a14.214,14.214,0,0,0,2,1.856,5.433,5.433,0,0,0,6.3-.763,9.948,9.948,0,0,0,2.965-5.983,11.352,11.352,0,0,0,.063-3.768A8.71,8.71,0,0,0,43.5,4.753c-10,.768-21.774.562-26.982,10.9a6.555,6.555,0,0,0-.87,4.022c.094.516.289,1.011.362,1.531.188,1.33-.434,2.627-.651,3.953a13.263,13.263,0,0,0,.776,5.753c.869,3,1.8,6.11,3.9,8.421a15.547,15.547,0,0,0,3.554,2.774A31.77,31.77,0,0,0,43.82,46.356a10.291,10.291,0,0,0,3.72-1.047c1.422-.789,1.99-3.522,3.333-3.361,1.7.2,2.956,3.153,3.652,4.371A13.947,13.947,0,0,0,61.1,51.861a39.479,39.479,0,0,0,8.4,2.362,24.54,24.54,0,0,0,6.476.694c2.172-.15,5.509-.25,6.265-2.292.3-.8,1.61-.558,2.054.176a9.562,9.562,0,0,1,.615,2.483c.454,1.637,1.96,2.724,2.937,4.114.953,1.356,1.409,3.026,2.449,4.317,1.319,1.638,3.384,2.445,5.353,3.184a45.241,45.241,0,0,0,11.249,3.148c5.137.514,8.762-1.113,12.676-4.181a2.672,2.672,0,0,0,1.417-2.691,7.088,7.088,0,0,1,.381-2.783,2.347,2.347,0,0,1,2.125-1.533c1.56-.008,1.146.781.675,1.857-.9,2.058-.193,3.692,1.839,4.88a13.564,13.564,0,0,0,4.41,1.365,22.86,22.86,0,0,0,4.482.538,19.7,19.7,0,0,1,2.812-.017,12.2,12.2,0,0,1,3.166,1.081,39.42,39.42,0,0,0,4.382,1.585,9.034,9.034,0,0,0,5.309.343c2.072-.677,3.477-2.6,4.465-4.542A9.3,9.3,0,0,0,156.27,60.24ZM78.008,35.6c-.445.652-1.25.939-1.873,1.425A13.537,13.537,0,0,0,74.2,39.4a2.845,2.845,0,0,1-2.625,1.268c-.915-.2-1.492-1.07-2.161-1.725a5.593,5.593,0,0,0-2.167-1.316,10.77,10.77,0,0,1-1.535-.505,1.6,1.6,0,0,1-.95-1.22c-.058-.829.767-1.4,1.419-1.919a8.623,8.623,0,0,0,2.611-4.021,1.974,1.974,0,0,1,.675-.98c.617-.408,1.411.019,2.333.727a11.321,11.321,0,0,0,2.4,1.64c1.072.446,2.242.418,3.178,1.218A2.4,2.4,0,0,1,78.008,35.6Zm33.82,15.048c-.559.719-1.536,1.02-2.085,1.746-.71.94-.644,2.489-1.7,3a2.322,2.322,0,0,1-2.16-.382A5.413,5.413,0,0,0,103.849,54a13.766,13.766,0,0,1-2.053-.021,3.127,3.127,0,0,1-1.4-1.122c-.457-.544-.94-1.28-.605-1.907a2.333,2.333,0,0,1,.694-.661,4.107,4.107,0,0,0,1.453-2.282c.186-.784-.132-1.637.029-2.393a1.632,1.632,0,0,1,.052-.194c.758-2.237,2.488-.278,3.569.365a10.069,10.069,0,0,0,3.79,1.327,5.334,5.334,0,0,1,1.746.385A2.193,2.193,0,0,1,111.828,50.651Z"/>
    <path d="M176.049,31.449a11.879,11.879,0,0,0-1.834-1.106,9.518,9.518,0,0,0-3.464-1.128c-3.379-.275-8.3,3.233-7.579,6.956.166.855.589,1.644.755,2.5.6,3.1-2.22,5.98-2,9.125.062.875.361,1.727.36,2.6a12.671,12.671,0,0,1-1.147,3.885c-.435,1.287-.516,2.9.49,3.813.582.529,1.413.7,2.017,1.208s.791,1.665.059,1.952a1.8,1.8,0,0,1-.863.015,5.42,5.42,0,0,0-5.618,4.29,6.626,6.626,0,0,0,3.006,6.655,8.573,8.573,0,0,0,7.463.643,7.247,7.247,0,0,0,4.143-3.5,4.7,4.7,0,0,0-.666-5.185c-.7-.721-2.769-1.375-2.793-2.511-.013-.629.627-1.094,1.247-1.2.973-.16,1.623.2,2.41-.43a3.91,3.91,0,0,0,1.476-2.928c-.074-.918-.727-1.707-.834-2.622a5.378,5.378,0,0,1,1.106-3.1,15.293,15.293,0,0,0,1.389-3.307c.363-1.259.279-2.641.648-3.869a15.119,15.119,0,0,1,1.88-3.446,6.717,6.717,0,0,0,1.33-3.5,6.688,6.688,0,0,0-.617-2.318,9.954,9.954,0,0,0-1.184-2.334A5.954,5.954,0,0,0,176.049,31.449Z"/>
    <path d="M49.008,13.632a1.963,1.963,0,0,1-.958,1.436,2.236,2.236,0,0,1-1.37.049,2.345,2.345,0,0,1-1.357-.64,4.253,4.253,0,0,1-.525-1c-.728-1.509-3.293-4.66.085-5.014C47.508,8.191,49.5,11.312,49.008,13.632Z" fill="#fff"/>
    <path d="M84.888,28.926a2.528,2.528,0,0,1-3.039.1,2.833,2.833,0,0,1-1.037-2.912c.17-.7.582-1.489.164-2.077-.8-1.13-5.913-.756-5.259-3.171.327-1.211,2.714-1.025,3.587-.9a4.871,4.871,0,0,1,4.1,2.846C84.221,24.408,86.817,27.249,84.888,28.926Z" fill="#fff"/>
    <path d="M142.277,30.681a1.952,1.952,0,0,0-1.349,2.1,2.317,2.317,0,0,0,1.5,1.965,2.005,2.005,0,0,0,2.291-.785,1.9,1.9,0,0,0-1.009-2.691" fill="#fff"/>
    <path d="M148.885,58.9a1.012,1.012,0,0,0,.963.142,5.436,5.436,0,0,1,.979-.277,1.547,1.547,0,0,1,1.517,1.142,2.308,2.308,0,0,1-.417,1.943,2.139,2.139,0,0,1-1.339.908,1.34,1.34,0,0,1-1.407-.65c-.357-.722.1-1.75-.467-2.318" fill="#fff"/>
    <path d="M172.887,36.972c.7.693.159,1.688.59,2.343.557.848,1.464.13,1.978-.62a4.266,4.266,0,0,0,.108-4.014c-.432-.953-1.335-2.131-2.526-1.668a3.868,3.868,0,0,0-1.532,1.95C171.212,36.275,172.067,36.156,172.887,36.972Z" fill="#fff"/>
    <path d="M167.025,64.886a1.738,1.738,0,0,1,1.532.761,2.531,2.531,0,0,1,.392,1.71,2.318,2.318,0,0,1-1.234,1.906,1.47,1.47,0,0,1-1.963-.761,2.4,2.4,0,0,1,.336-1.689" fill="#fff"/>
    <path d="M120.566,46.078a1.865,1.865,0,0,1-1.292.239,2.069,2.069,0,0,1-1.472-.848c-.451-.7-.331-1.607-.851-2.272-.383-.491-1.338-.7-1.4-1.418-.076-.934,1.254-1.436,1.963-1.615a2.8,2.8,0,0,1,2.922.63C121.344,41.888,121.948,45.151,120.566,46.078Z" fill="#fff"/>
  </g>
</svg>
