<svg xmlns="http://www.w3.org/2000/svg" width="160" height="256" viewBox="0 0 160 256">
  <title>illustration-burst-right</title>
  <g>
    <g>
      <path d="M100.239,203.383c.7,2.7,1.412,5.552.673,8.243-.914,3.334-3.828,5.682-6.654,7.673-3.949,2.783-8.57,5.45-13.327,4.611-3.787-.667-6.813-3.423-9.611-6.061l-8.248-7.776c-8.958-8.445-13.206-19.368-21.278-28.361a7.38,7.38,0,0,1-2.109-3.49,5.006,5.006,0,0,1,2.545-4.783,14.72,14.72,0,0,1,5.454-1.678,7.654,7.654,0,0,1,2.131-.158,8.2,8.2,0,0,1,3.305,1.5c7.422,4.691,17.505,10.055,25.932,12.4C90.952,188.8,96.882,190.537,100.239,203.383Z"/>
      <path d="M86.093,192.778c4.368-.077,7.6,5.639,5.275,9.34-1.385,1.786-4.39.76-5.776-1.026s-2.028-4.128-3.695-5.654a6.132,6.132,0,0,1-1.485-1.519,2.11,2.11,0,0,1,2.571-2.751" fill="#fff"/>
    </g>
    <g>
      <path d="M102.255,106.279c2.449-1.048,4.562-2.743,6.922-3.979a20.355,20.355,0,0,1,29.116,12.827c1.839,6.95-.13,14.4-3.358,20.823a12.244,12.244,0,0,1-3.88,5c-4.725,3.085-10.8-.478-16.411-1.117-3.756-.428-7.531.528-11.311.5a43.388,43.388,0,0,1-9.312-1.438c-7.854-1.8-44.036-5.439-32.624-17.823C72.277,109.262,89.275,111.835,102.255,106.279Z"/>
      <path d="M125.463,110.3c-4.261-3.677-10.833-1.195-15.654,1.709a2.8,2.8,0,0,0-1.248,1.17c-.681,1.6,1.653,2.72,3.385,2.908l9.944,1.085a7.982,7.982,0,0,0,4.589-.406c1.382-.725,2.213-2.694,1.222-3.9" fill="#fff"/>
    </g>
    <g>
      <path d="M37.33,69.155,39,58.046a20.444,20.444,0,0,1,.847-3.887,20.176,20.176,0,0,1,3.45-5.5c3.05-3.854,6.189-7.724,10.162-10.616s8.936-4.744,13.8-4.032c4.165.61,7.86,3.016,11.015,5.8a9.845,9.845,0,0,1,1.47,1.523c1.173,1.6,1.4,3.685,1.581,5.661.41,4.391.7,9.238-1.943,12.77-1.787,2.387-4.617,3.727-7.373,4.867a31.742,31.742,0,0,0-7.079,3.548,48.012,48.012,0,0,0-3.686,3.351,33.4,33.4,0,0,1-18.739,8.611,8.72,8.72,0,0,1-5.058-.562C33.307,77.4,36.84,72.4,37.33,69.155Z"/>
      <path d="M71.278,40.715l-10.154,1.5c-1.573,1.279-.666,4,1.027,5.119s3.827,1.279,5.713,2.024a7.4,7.4,0,0,0,3.335.951,3.657,3.657,0,0,0,2.9-3.45,10.694,10.694,0,0,0-1.052-4.726" fill="#fff"/>
    </g>
  </g>
</svg>
