<svg xmlns="http://www.w3.org/2000/svg" width="160" height="128" viewBox="0 0 160 128">
  <title>illustration-number-2</title>
  <g>
    <path d="M69.307,79.33a4.27,4.27,0,0,0-1.122-1.915c-1.294-1.11-3.262-.585-4.864,0l-10.5,3.817c-1.4.509-3.367.818-4.038-.514-.373-.74-.1-1.642-.289-2.449a7.593,7.593,0,0,0-1.366-2.25,2.016,2.016,0,0,1-.108-2.444,25.617,25.617,0,0,0,10.861.6c2.559-.411,5.351-1.47,6.358-3.858a6.68,6.68,0,0,0-.157-4.817c-.974-2.676-3.666-5.228-6.373-4.344-1.478.483-2.539,1.878-4.04,2.281-1.051.282-2.46.211-2.869,1.218a5.984,5.984,0,0,0-.174,1.188c-.315,1.68-2.5,2.087-4.213,2.117a2.653,2.653,0,0,1-1.343-.214,2.671,2.671,0,0,1-1.018-1.959q-.577-3-1.156-6a14.466,14.466,0,0,1-.389-3.837c.218-2.817,1.974-5.99.2-8.188a6.378,6.378,0,0,0-3.658-1.779c-2.506-.6-5.19-1.188-7.606-.29s-4.2,3.937-2.841,6.128a19.04,19.04,0,0,0,1.373,1.628c2.521,3.2.7,8.656,3.727,11.383a4.185,4.185,0,0,1,1.231,1.294A2.522,2.522,0,0,1,35,67.5a11.2,11.2,0,0,1-.668,2.41,4.474,4.474,0,0,1-1.735,2.3,2.084,2.084,0,0,1-2.656-.36,5.051,5.051,0,0,1-.5-2.419c-.3-2.24-2.247-3.875-3.135-5.954-.982-2.3-.59-4.936-.962-7.411s-2.149-5.192-4.643-4.972a5.556,5.556,0,0,0-2.705,1.242c-2.349,1.732-4.469,4.179-4.633,7.094-.231,4.095,3.292,7.264,5.507,10.717a20.283,20.283,0,0,0,1.983,2.992c.5.532,2.042,1.3,2.123,1.969.228,1.891-3.506,2.815-4.826,2.878-4.046.194-7.82-2.423-11.418,1.023a6.318,6.318,0,0,0-.493,8.5,3.829,3.829,0,0,0,2.636,1.34,5.754,5.754,0,0,0,1.979-.426L19.068,85.6a4.27,4.27,0,0,1,2.945-.271c1.889.773,1.535,3.838-.138,5.008S17.991,91.4,15.95,91.388s-4.343.269-5.594,1.882c-1.142,1.475-1,3.54-.769,5.392a5.558,5.558,0,0,0,1.023,3.059,4.07,4.07,0,0,0,4.135.889,26.157,26.157,0,0,0,4.042-1.873A14.778,14.778,0,0,1,26.7,99.43c-1.254,3.578,2.652,7.066,2.506,10.855-.069,1.765-.748,4.115.853,4.862a2.937,2.937,0,0,0,1.5.151,19.87,19.87,0,0,0,7.149-2.014,3.267,3.267,0,0,0,1.323-1.005,3.221,3.221,0,0,0,.412-1.678,17.147,17.147,0,0,0-3.819-11.458,4.209,4.209,0,0,1-.887-1.383,2.567,2.567,0,0,1,1.448-2.8,7.5,7.5,0,0,1,3.333-.6,3.7,3.7,0,0,1,2.036.337c1.149.7,1.181,2.3,1.405,3.63.584,3.454,3.333,6.627,2.552,10.041a16.5,16.5,0,0,0,5.211.127,5.582,5.582,0,0,0,4.125-2.894c1.06-2.325-.2-5-1.437-7.234l-2.732-4.947a1.985,1.985,0,0,1,.7-3.231c2.522-1.73,5.621-3.536,8.454-2.382.936.382,1.735,1.063,2.692,1.39,2.25.767,4.82-.755,5.825-2.91A9.412,9.412,0,0,0,69.307,79.33ZM37.79,85.652c-.827-.062-1.791-.305-2.387.271-.442.427-.491,1.17-.981,1.541a1.257,1.257,0,0,1-1.514-.127,2.46,2.46,0,0,1-.742-1.429,4.931,4.931,0,0,1,.237-2.746c.231-.592.576-1.267.258-1.818a3.228,3.228,0,0,0-.636-.632c-2.677-2.563,2.689-4.166,4.569-3.383,3.016,1.255.366,4.22,2.212,6.223.246.266.573.488.674.835C39.711,85.184,38.617,85.714,37.79,85.652Z"/>
    <path d="M39.485,48.822a9.556,9.556,0,0,0-2.909-.064c-.285.317-.07.834.241,1.125s.719.506.9.891a2.65,2.65,0,0,1-.13,1.656c-.121.552.024,1.3.581,1.4.42.073.783-.287,1.034-.632a8.192,8.192,0,0,0,1.275-2.674c.107-.4.037-1.007-.379-1" fill="#fff"/>
    <path d="M59.889,63.723a2.074,2.074,0,0,0-2.193.546,3.382,3.382,0,0,0-.861,2.183A2.114,2.114,0,0,0,57.4,68.2a1.806,1.806,0,0,0,2.3-.238,5.272,5.272,0,0,0,1.209-2.192" fill="#fff"/>
    <path d="M64.954,80.386a3.214,3.214,0,0,0-1.587-.087,1.1,1.1,0,0,0-.846,1.187c.252,1.093,2.381.894,2.473,2.013.026.321-.152.666-.008.954a.65.65,0,0,0,.83.226,1.9,1.9,0,0,0,.692-.633,5.005,5.005,0,0,0,1.275-2.5c.084-.946-.613-2.022-1.561-1.962" fill="#fff"/>
    <path d="M22.4,55.861l-.071-.732a2.158,2.158,0,0,0-2.612,3.318,6.736,6.736,0,0,1,.989,1.092,10.74,10.74,0,0,1,.318,1.028c.129.336.433.659.789.611.318-.043.521-.354.662-.641a7.869,7.869,0,0,0,.806-3.408" fill="#fff"/>
    <path d="M25.067,66.1a1.982,1.982,0,0,0,1.527,3.494l.022-1.924" fill="#fff"/>
    <path d="M13.094,79.14a4.364,4.364,0,0,0-3.586.511c-.422.274-.833.756-.66,1.228s.768.572,1.262.6l2.314.157a2.637,2.637,0,0,0,1.6-.227.913.913,0,0,0,.248-1.385" fill="#fff"/>
    <path d="M17.746,93.246a5.141,5.141,0,0,0-2.971.106,1.778,1.778,0,0,0-.915,2.471,6.294,6.294,0,0,0,5.048-1.287" fill="#fff"/>
  </g>
  <g>
    <path d="M97.612,16.552c2.479-.359,4.75-1.683,7.1-2.614,8.442-3.344,18.3-1.528,26.132,3.067a11.2,11.2,0,0,1,4.348,3.9c1.123,2.011,1.094,4.447,1.726,6.663.869,3.046,1.908,5.267,2.009,8.45.1,3.25.578,6.3-.59,9.456C137.291,48.3,134.9,50.8,131.916,51.2c-1.154.154-2.343,0-3.479.253-2.442.552-4.061,2.833-6.226,4.09-4.734,2.748-11.758.481-15.468,4.505-1.972,2.138-2.2,5.328-2.086,8.234.06,1.562.435,3.459,1.918,3.951,1.412.468,2.782-.672,4.028-1.486,4.043-2.641,9.538-2.276,13.493-5.047,1.413-.989,2.579-2.351,4.146-3.071,1.759-.808,3.8-.706,5.643-1.292,2.035-.647,3.7-2.084,5.521-3.2s4.063-1.942,6.064-1.2c2.485.922,3.552,3.782,4.325,6.317L153.2,74.428c1.744,5.718,1.444,12.574-5.241,14.925-2.185.769-4.582.736-6.786,1.45a33.157,33.157,0,0,0-4.255,1.982c-1.487.727-3.035,1.321-4.581,1.915l-15.953,6.122c-2.742,1.052-5.567,2.12-8.5,2.083-1.981-.024-3.954-.555-5.924-.344a40.71,40.71,0,0,0-4.265,1.018c-9.026,1.965-17.3-6.836-17.62-15.5-.088-2.343.569-4.7.225-7.014-.232-1.566-.91-3.032-1.211-4.586-.762-3.932.942-7.877,2.6-11.521a16.765,16.765,0,0,1,3.547-5.633A16.7,16.7,0,0,1,88.4,57.213l5.545-3.121c5.435-3.058,12.167-1.777,17.378-5,1.733-1.071,3.2-3.332,2.119-5.06-.772-1.235-2.5-1.513-3.917-1.169a36.764,36.764,0,0,0-4.034,1.667c-2.629.982-5.551.8-8.263,1.52-3.844,1.023-6.959,3.763-10.446,5.677-4.546,2.5-16.015,6.428-18.107-1.21-.518-1.891-.087-3.966-.742-5.815-.739-2.088-2.722-3.506-3.659-5.513-1.617-3.462.253-7.469,2.088-10.821A7.576,7.576,0,0,1,67.8,26.319c1.368-1.241,3.4-1.318,5.1-2.054,2.241-.974,3.785-3.057,5.8-4.438a21.154,21.154,0,0,1,4.722-2.2,19.938,19.938,0,0,1,6.731-1.619c2.249,0,4.463.753,6.707.617C97.114,16.614,97.364,16.587,97.612,16.552Z"/>
    <path d="M127.5,25.88a3.779,3.779,0,0,1-4.545.818,12.9,12.9,0,0,1-2.422-2.259c-.843-.8-2.023-1.072-2.835-1.778-.951-.825-.872-1.544-.146-2.592a5.991,5.991,0,0,1,3.485-2.291c1.908-.374,2.866,1,4.4,1.878C127.663,20.922,129.609,23.432,127.5,25.88Z" fill="#fff"/>
    <path d="M142.045,63.715a2.243,2.243,0,0,1,1.175-.113,2.323,2.323,0,0,1,.976.6,10.277,10.277,0,0,1,1.694,1.992c.738,1.133,1.223,2.69.43,3.786a3.287,3.287,0,0,1-3.1.981,17.626,17.626,0,0,0-3.378-.427c-.754.058-1.6.3-2.2-.154a2.115,2.115,0,0,1-.654-1.506,3.934,3.934,0,0,1,.123-1.826C137.627,65.651,140.717,64.126,142.045,63.715Z" fill="#fff"/>
  </g>
</svg>
