<svg xmlns="http://www.w3.org/2000/svg" width="192" height="192" viewBox="0 0 192 192">
  <title>illustration-ampersand</title>
  <g>
    <path d="M62.737,61.611c3.64,2.863,7.943,4.827,12.722,4.152,8.313-1.174,19.739-10.407,20.554-19.19.634-6.837-7.134-18.913-12.231-23.062-9.965-8.112-19.813-11.847-32.77-7.332a24.093,24.093,0,0,1-3.885,1.194c-2.456.413-4.986-.2-7.457.1C33.185,18.28,27.3,26,22.781,30.249c-4.694,4.407-18.3,13-13.967,20.776a18.817,18.817,0,0,1,1.435,2.407,7.281,7.281,0,0,1,.3,2.621c-.094,13.438.131,24.561,11.473,34.028,4.169,3.48,9.527,6.034,14.907,5.3,3.283-.451,6.388-2.095,9.7-2.026s6.945,3.161,5.7,6.233c-.8,1.989-3.122,2.787-5.107,3.6a28.281,28.281,0,0,0-17.121,24.608c-.1,3.025.285,6.111-.465,9.044-.666,2.605-2.2,4.943-2.718,7.581-.821,4.179,1,8.383,2.892,12.2,1.953,3.943,4.068,7.887,7.151,11.026,5.854,5.961,14.44,8.293,22.709,9.5,10.68,1.552,21.514,1.628,32.307,1.7,6.774.045,13.786.043,19.981-2.7,6.372-2.82,11.424-8.438,16.484-13.073a23.646,23.646,0,0,0,3.757-4.023c2.375-3.507,2.7-8,4.447-11.856,2.086-4.614,6.31-8.984,5.12-13.9a25.21,25.21,0,0,0-1.7-4.007c-2.026-4.656-1.144-9.854-2.782-14.74-1.677-5-3.789-9.888-4.265-15.2-.683-7.628,3.865-16.748,11.522-16.9,3.415-.069,6.647,1.706,9.136,4.045a9.887,9.887,0,0,1,3.278,5.362c.345,2.105-.625,4.532-2.612,5.306-.993-4.3-7.491-5.409-10.647-2.324s-3.013,8.47-.723,12.244,6.221,6.228,10.178,8.184c5.577,2.756,12.118,4.815,17.938,2.62,7.152-2.7,10.58-10.647,13.253-17.808,1.648-4.415,3.324-9.04,2.765-13.719-.981-8.207-11.849-20.017-19.555-22.371-3.044-.929-6.231-1.405-9.17-2.626-4.582-1.9-8.5-5.586-13.419-6.24-5.152-.684-11.33,1.137-16.515,1.51a40.442,40.442,0,0,0-12.465,2.47c-8.028,3.289-13.737,10.166-17.9,17.559A12.33,12.33,0,0,0,96.326,81.4c-.228,2.372.752,4.7.832,7.079C97.272,91.9,95.533,95.2,95.8,98.6c.162,2.057,1.047,3.984,1.45,6.008.709,3.563-.237,12.044-1.959,15.158-1.332,2.41-4.345,4.119-6.892,3.074-2.283-2.013,1.524-6.085-.076-8.675a4.075,4.075,0,0,0-3.241-1.543c-8.161-.7-15.338,7.725-14.573,15.881s8.083,14.782,16.155,16.175a14.382,14.382,0,0,0,7.844-.577,16.342,16.342,0,0,0,5.819-4.5,37.125,37.125,0,0,0,9.181-21.32,14.972,14.972,0,0,1,1.043-5.525c.848-1.686,2.83-2.993,4.607-2.358,2.24.8,2.576,3.778,2.522,6.156-.2,9.014-.666,18.663-6.046,25.9-7.7,10.361-22.366,11.971-35.274,12.231-3.121.063-6.452.042-9.062-1.669a15.929,15.929,0,0,1-4.393-5.207c-3.843-6.181-7.846-13.222-6.224-20.317.99-4.333,4.018-8.111,4.357-12.543a15.917,15.917,0,0,1,.39-3.973c1.115-3.269,5.2-4.129,8.258-5.73a13.687,13.687,0,0,0-2.35-25.217c-6.43-1.962-13.62.946-20.011-1.14-7.555-2.465-11.43-11.416-10.6-19.32,1.069-10.128,11.325-24.046,23.006-22.7,10.841,1.25-.529,12.4-1.905,17.046a4.119,4.119,0,0,0-.15,2.423,4.7,4.7,0,0,0,1.172,1.68A35.757,35.757,0,0,0,62.737,61.611Z"/>
    <path d="M166.25,76.432c1.167-.892,2.966-.149,3.776,1.076a11.963,11.963,0,0,1,1.267,4.19c.313,1.436.93,2.965,2.248,3.615,1.807.891,4.127-.473,4.783-2.378a6.9,6.9,0,0,0-1.056-5.747,12.769,12.769,0,0,0-13.429-5.5,4.84,4.84,0,0,0,.6,4.169" fill="#fff"/>
    <path d="M80.4,38.662c1.3.707,2.694,1.907,2.4,3.353-.363,1.757-2.772,2.078-3.986,3.4-1.33,1.449-.821,4,.757,5.178a5.527,5.527,0,0,0,5.6.246,7.372,7.372,0,0,0-4.561-13.879" fill="#fff"/>
    <path d="M62.01,89.019c-.962,2.146-.745,5.212,1.391,6.2a6.05,6.05,0,0,0,2.612.359,5.581,5.581,0,0,0,3.548-.851c1.73-1.418,1.016-4.443-.8-5.757s-4.2-1.4-6.442-1.445" fill="#fff"/>
    <path d="M81.281,126.536l-.39,1.51c-.317,1.226-.6,2.642.14,3.668a4.024,4.024,0,0,0,3.219,1.231,23.22,23.22,0,0,0,8.541-1.27,11.511,11.511,0,0,0-8.436-6.067" fill="#fff"/>
    <path d="M150.446,62.211c-2.538.986-6.095-.427-7.724,1.756-1.139,1.527-.241,3.87,1.348,4.922s3.6,1.164,5.5,1.244c1.479.063,3.1.082,4.26-.837s1.262-3.147-.135-3.638" fill="#fff"/>
  </g>
</svg>
