<svg xmlns="http://www.w3.org/2000/svg" width="192" height="192" viewBox="0 0 192 192">
  <title>illustration-bread</title>
  <g>
    <path d="M179.869,123.032c-.375-2.861-.515-5.764-.874-8.6-.318-2.515-1.56-4.723-2.077-7.206-.569-2.725-.591-5.548-1.255-8.252-1.106-4.511-4.9-10.082-7.27-14.115a11.778,11.778,0,0,1-1.219-2.468c-1.206-3.981-4.545-7.062-7.209-10.31a14.571,14.571,0,0,1-2.54-3.878c-1.21-3.155-.113-6.744-.808-10.051-.451-2.144-1.632-4.063-2.25-6.165-1.063-3.617-.4-7.526-1.1-11.231-.942-4.983-4.323-9.241-8.4-12.26-3.838-2.846-8.191-4.188-12.356-6.365-3.393-1.774-6.526-3.072-10.539-2.736-1.574.132-3.128.471-4.706.54-2.132.094-4.03-.554-6.1-.638a23.674,23.674,0,0,0-7.258.922A35.072,35.072,0,0,0,97.4,23.1a77.625,77.625,0,0,0-10.326,6.125c-2.229,1.656-4.311,3.57-6.831,4.738-6.813,3.157-14.775.156-22.276.5-5.646.257-11.006,2.429-16.236,4.571-5.375,2.2-10.871,4.169-16,6.913a52.976,52.976,0,0,0-7.267,4.751c-1.872,1.435-4.264,2.277-5.5,4.4-.941,1.61-1.408,3.456-2.287,5.1-.719,1.345-1.7,2.541-2.34,3.927-1.421,3.1-.911,6.708-.371,10.08L9.576,84.306a28.409,28.409,0,0,0,1.377,5.885c2.766,7.079,10.821,11.148,13.222,18.359.553,1.66.773,3.409,1.2,5.106.733,2.93,2.126,5.789,2.322,8.835.183,2.856-.811,5.86-.131,8.7.356,1.486,1.3,2.767,1.763,4.224.815,2.563.066,5.348.319,8.025a21.441,21.441,0,0,0,1.142,4.613l2.193,6.7c.75,2.288,3.436,5.438,5.127,7.164a24.631,24.631,0,0,0,5.047,3.658,55.8,55.8,0,0,0,9.516,4.763c2.919,1.08,5.475,3.349,8.685,3.562a47.771,47.771,0,0,0,5.148-.412,32.474,32.474,0,0,1,3.777.188,16.321,16.321,0,0,0,7.264-.76,39.766,39.766,0,0,0,5.427-3.23c3.363-2,7.63-1.889,11.31-3.5,3.042-1.331,5.335-3.6,8.682-4.362,1.286-.292,2.611-.418,3.864-.828,1.186-.387,2.28-1.02,3.465-1.409,2.141-.7,14.942-3.837,17.191-3.705,8.237.485,18.65,1.523,25.579-4.062a6.551,6.551,0,0,1,2.094-1.362,7.625,7.625,0,0,1,3.235.185c4.954.707,8.333-4.35,11.913-7.136,4.388-3.414,8.493-7.8,9.562-13.448A21.9,21.9,0,0,0,179.869,123.032Zm-10.5,7.86c-1,2.1-2.665,3.568-4.7,5.509-7,6.686-16.839,9.5-26.205,10.8-11.9,1.649-34.88,4.86-45.657,10.16-5.041,2.479-9.6,6.088-15.029,7.521s-12.371-.277-14.306-5.55c-.9-2.446-.55-5.148-.777-7.743-.462-5.275-3.246-9.9-5.3-14.665a44.544,44.544,0,0,1-2.408-5.967c-.618-2.37.157-4.8-.759-7.186-.41-1.067-1.043-2.033-1.556-3.055a14.936,14.936,0,0,1-1.45-4.675c-.379-2.776.025-5.648-.656-8.367-1.707-6.81-9.366-10.3-12.848-16.4-1.986-3.477-2.484-7.582-2.876-11.567-.3-3.077.346-6.4-.047-9.378-.354-2.679-1.4-4.345.753-6.8,1.945-2.218,5.17-4.171,7.5-6.046a30.9,30.9,0,0,1,12.712-5.94c1.468-.3,2.995-.172,4.436-.58,2.811-.8,5.274-2.474,8.129-3.3a17.438,17.438,0,0,1,8.982-.186c1.586.393,3.118,1.012,4.731,1.272a11.578,11.578,0,0,0,7.825-1.738c2.337-1.4,2.942-3.479,4.274-5.746,1.947-3.31,5.55-5.268,9.126-6.668,7.488-2.932,16.082-2.095,23.965-2.358,5.759-.192,13.536-.613,17.1,4.871a20.971,20.971,0,0,1,2.158,5.126c2.129,6.656,4.278,13.747,2.547,20.518a10.748,10.748,0,0,0-.649,4.087c.385,2.735,3.108,5.586,4.1,8.17,1.3,3.372,4.141,5.892,6.344,8.661,6.573,8.262,8.588,19.145,10.395,29.548.814,4.686,1.65,9.522,1.083,14.288A10.561,10.561,0,0,1,169.37,130.892Z"/>
    <path d="M69.784,105.211c-1.543,3.878-.834,8.3.554,12.239a20.194,20.194,0,0,0,5.131,8.2c1.891,1.74,5.106,2.6,6.373,4.916.69,1.262.656,2.86,1.509,4.018a3.514,3.514,0,0,0,4.824.534,4.188,4.188,0,0,0,1.064-4.91,7.92,7.92,0,0,1-.775-1.741c-.579-3.065,5.81-5.357,7.806-6.843,2.587-1.928,5.7-4.591,5.622-8.136-.051-2.222-.85-4.379-.869-6.6-.012-1.346.263-2.684.241-4.03-.059-3.576-2.673-7.153-6.216-7.644-.938-.13-1.893-.052-2.839-.1a47.006,47.006,0,0,1-6.291-1.258c-2.1-.4-4.438-.411-6.2.8-1.306.9-2.114,2.338-3.148,3.539C74.091,101.07,71.38,101.2,69.784,105.211Z"/>
    <path d="M111.762,100.812a11.784,11.784,0,0,0,6.443,8.894,6.5,6.5,0,0,0,2.541.8,13.132,13.132,0,0,0,2.944-.392c3.169-.534,10.225-1.251,11.609,2.735a8.6,8.6,0,0,1,.03,3.543,3.737,3.737,0,0,0,.964,3.289,4.091,4.091,0,0,0,2.547.648,9.713,9.713,0,0,0,4.089-.6,3.954,3.954,0,0,0,2.472-3.1A4.675,4.675,0,0,0,143.6,113a5.513,5.513,0,0,1-1.012-1.042,4.364,4.364,0,0,1-.2-3.165c.248-1.3,2.652-6.338,2.322-7.4,2.156-9.647-7.236-21.858-17.51-20.388-3.988.57-9.275,3.159-10.865,6.741-.516,1.162.949,2.656.5,3.708-.425,1-2.39,1.417-3.036,2.478C112.47,96.11,111.477,98.159,111.762,100.812Z"/>
    <path d="M119.692,116.509c1.525-.784,2.984-1.463,4.411.271a8.366,8.366,0,0,1,1.381,3.185l1.365,4.943a8.762,8.762,0,0,1,.462,3.934c-.293,1.527-1.37,2.786-1.857,4.263-.518,1.571-.335,3.275-.478,4.923s-.763,3.448-2.251,4.172c-2.354,1.146-4.867-1.029-7.326-1.928a40.284,40.284,0,0,0-5.188-1c-1.723-.383-3.51-1.292-4.138-2.94-.546-1.436-.16-3.272-1.242-4.362-.828-.835-2.17-.84-3.207-1.4-2.367-1.265-2.2-5-.349-6.945,1.106-1.159,3.707-3.1,5.289-1.757a3.178,3.178,0,0,1,1,2.138,4.487,4.487,0,0,0,.326,1.873,2.719,2.719,0,0,0,1.135.947,7.041,7.041,0,0,0,2.762.887,9.948,9.948,0,0,0,2.794-.324,7.09,7.09,0,0,0,4.056-1.837,3.6,3.6,0,0,0,.451-3.924,24.542,24.542,0,0,1-1.41-2.187C117.042,117.842,118.548,117.1,119.692,116.509Z"/>
    <path d="M93.731,102.792a3.225,3.225,0,0,1-1.113,3.683c-2.669,1.886-10.071-1.157-7.65-4.985,1.258-1.991,1.906-.725,3.638-.553C90.56,101.132,92.782,100.336,93.731,102.792Z" fill="#fff"/>
    <path d="M131.562,87.394a5.38,5.38,0,0,0,.872.874,5.883,5.883,0,0,0,1.524.511,3.631,3.631,0,0,1-2.019,6.973c-1.5-.395-2.564-1.673-3.67-2.759-1.428-1.4-3.94-3.916-2.156-6.023C127.406,85.442,130.375,86.139,131.562,87.394Z" fill="#fff"/>
    <path d="M137.45,99.03a8.163,8.163,0,0,1-2.7,1.057,2.846,2.846,0,0,0-2.1,1.826,2.173,2.173,0,0,0,2.085,2.358,4.226,4.226,0,0,0,3.133-1.472c.833-.852,1.462-2.285.659-3.166" fill="#fff"/>
    <path d="M120.255,97.842a2.6,2.6,0,0,0-1.84,2.85,1.562,1.562,0,0,0,.639,1.078c.233.146.513.2.738.36.409.286.543.828.868,1.207a1.866,1.866,0,0,0,2.7-.171,3.208,3.208,0,0,0,.479-2.909c-.264-.986-1.052-2.006-2.068-1.9" fill="#fff"/>
    <path d="M92.477,111.808a4.427,4.427,0,0,1-2.012,2.684c-.755.447-1.64.663-2.35,1.179a1.841,1.841,0,0,0-.756,2.273,2.011,2.011,0,0,0,1.309.794,5.739,5.739,0,0,0,5.852-2.173,3.329,3.329,0,0,0,.7-2.55,2.546,2.546,0,0,0-1.789-1.865" fill="#fff"/>
    <path d="M76.732,108.582a2.365,2.365,0,0,0-2.208,2.163,5.267,5.267,0,0,0,.9,3.213,18.2,18.2,0,0,1,1.64,2.968,2.44,2.44,0,0,0,2.638-1.764,6.447,6.447,0,0,0-.1-3.438c-.257-1.136-.765-2.467-1.911-2.677" fill="#fff"/>
    <path d="M118.946,24.767c.631-.605,1.661-.1,2.365.42a6.866,6.866,0,0,0,3.7,1.724c1.384.035,2.867-1.219,2.5-2.553a2.83,2.83,0,0,0-1.686-1.628,8.61,8.61,0,0,0-7.941.463l.168.646" fill="#fff"/>
    <path d="M105.238,24.158c1.154-.573,2.7-1.092,3.6-.17,1.013,1.039.04,2.9-1.3,3.453a4.4,4.4,0,0,1-3.784-.254,1.742,1.742,0,0,1-1.046-1.466c.053-.882,1.1-1.3,1.975-1.437" fill="#fff"/>
    <path d="M38.1,47.635c1.1-1.1,2.932-.612,4.43-.19s3.525.472,4.155-.95a1.137,1.137,0,0,0,.083-.776,1.5,1.5,0,0,0-.542-.687,7.193,7.193,0,0,0-9.682.931" fill="#fff"/>
  </g>
</svg>
