<svg xmlns="http://www.w3.org/2000/svg" width="192" height="112" viewBox="0 0 192 112">
  <title>illustration-fun</title>
  <g>
    <path d="M186.806,34.494c-1.853-2.265-5.654-2.868-7.772-.85-1.353-.938-1.423-3.479-.626-4.92s1.94-2.889,1.736-4.523a2.74,2.74,0,0,1-.044-1.331c2.419-6.108-.748-13.9-6.68-16.721a13.544,13.544,0,0,0-17.037,5.462c-1.291,2.328-2.558,5.528-5.218,5.426a8.9,8.9,0,0,1-3.272-1.318c-3.414-1.618-7.705-.529-10.488,2.028a16.159,16.159,0,0,0-4.655,10.074c-.124,1.046-1.981.538-2.773-.157a24.047,24.047,0,0,1-1.881-2.53c-1.84-2.1-5.114-1.9-7.876-1.479-3.278.5-6.7,1.151-9.288,3.218s-4,6.012-2.2,8.8c.656,1.02,1.65,1.774,2.4,2.729,2.493,3.181,1.774,7.727.931,11.68-.437,2.044-1.515,4.6-3.6,4.434-1.771-.143-2.642-2.251-2.759-4.025-.245-3.685,1.029-7.436.2-11.036a10.92,10.92,0,0,0-8.314-7.89,13.593,13.593,0,0,0-11.3,3,7.9,7.9,0,0,1-2.5,1.7c-1.886.593-3.885-.722-5.011-2.346s-1.711-3.571-2.821-5.206a9.894,9.894,0,0,0-12.231-3.16c-1.7.862-3.139,2.228-4.923,2.911-1.736.664-3.666.626-5.443,1.172a22.228,22.228,0,0,0-4.381,2.21c-5.634,3.221-14.925,3.806-20.837,6.483l-10.7,4.844A37.48,37.48,0,0,0,11.5,46.312,21.055,21.055,0,0,0,2.86,62.031a26.647,26.647,0,0,0,5.3,17.377,14.771,14.771,0,0,0,4.47,4.281c3.165,1.79,7.066,1.662,10.634.961,5.249-1.032,10.637-3.531,13.126-8.266,1.445-2.749,1.75-5.933,2.029-9.026.184-2.033.3-4.3-1.007-5.872a5.886,5.886,0,0,0-1.946-1.433,10.491,10.491,0,0,0-9.862.157,8.453,8.453,0,0,0-4.019,8.75c.159.725-.711,1.362-1.449,1.436a1.792,1.792,0,0,1-1.784-1.069c-.557-1.35.678-2.755.82-4.208a15.083,15.083,0,0,0-.071-1.711,4.734,4.734,0,0,1,1.841-3.8c.8-.612,1.8-.951,2.58-1.587a27.875,27.875,0,0,0,2.062-2.3c1.913-1.944,4.834-2.392,7.539-2.738a6.577,6.577,0,0,1,6.98,3.455c2.079,4.136,2.009,8.982,1.893,13.61a14.477,14.477,0,0,1-.964,5.854,14.49,14.49,0,0,1-2.111,3.013L33.93,84.889a11.363,11.363,0,0,0-1.772,2.564,7.949,7.949,0,0,0-.243,5.086,10.9,10.9,0,0,0,6.179,7.567,9.33,9.33,0,0,0,8.484-.832c1.564-1.027,2.835-2.542,4.592-3.186a28.538,28.538,0,0,1,4.017-.7,16.652,16.652,0,0,0,5-2.294c2.9-1.744,5.851-3.53,8.066-6.089a19.354,19.354,0,0,0-.872-6.542,6.65,6.65,0,0,0-3.967-4.56c-2.058-.689-4.622-.081-6.22-1.551a3.507,3.507,0,0,1-.04-4.78,4.488,4.488,0,0,1,4.905-.919c1.661.687,2.83,2.174,4.23,3.3s3.438,1.9,4.956.939a4.914,4.914,0,0,0,4.4-1.291,8.679,8.679,0,0,0,2.049-4.025,8.048,8.048,0,0,0-.443-6.037,16.819,16.819,0,0,1-1.126-1.8,13.2,13.2,0,0,1-.511-3.056,6.5,6.5,0,0,0-5.164-5.17,1.113,1.113,0,0,1,.3-1.423,2.522,2.522,0,0,1,1.5-.467c2.228-.119,4.752.7,6.515-.671.855-.662,1.7-1.846,2.7-1.444.829.332.887,1.466.8,2.356a4.3,4.3,0,0,0,3.066,4.088,4.64,4.64,0,0,0,4.908-1.391A1.99,1.99,0,0,1,91.787,54.9a7.536,7.536,0,0,1-1.365,2.818A16.469,16.469,0,0,0,89.1,72.288a10.04,10.04,0,0,0,2.578,3.9,9.746,9.746,0,0,0,6.778,2.1,28.965,28.965,0,0,0,7.1-1.451,15.5,15.5,0,0,0,4.707-1.967,5.247,5.247,0,0,0,2.408-4.284,20.948,20.948,0,0,0-.75-3.15,2.749,2.749,0,0,1,.878-2.917c1.08-.669,2.461.015,3.537.689,1.818,1.14,2.849,3.535,4.879,4.233a11.353,11.353,0,0,0,5.43.032,16.607,16.607,0,0,0,4.557-1.167,5.61,5.61,0,0,0,3.126-3.343c.388-1.362.148-3.044,1.208-3.985a4,4,0,0,1,2.944-.6l7.064.41a19.314,19.314,0,0,0,10.935-2.285c3.214-1.921,5.516-5.877,4.365-9.44a19.588,19.588,0,0,0-1.755-3.385c-1.94-3.486-2.672-7.5-3.239-11.45-.313-2.181-.544-4.57.628-6.435s4.341-2.5,5.488-.621a4.947,4.947,0,0,1,.154,3.589,39.217,39.217,0,0,0-1.257,9.992c.168,3.363,1.347,6.82,3.895,9.022,4.553,3.934,11.742,2.562,16.8-.69a15.38,15.38,0,0,0,5.946-6.291A8.087,8.087,0,0,0,186.806,34.494ZM66.072,47.47a4.077,4.077,0,0,1-1.221,2.785,19.356,19.356,0,0,1-2,.885c-1.256.726-1.64,2.318-2.07,3.7-.274.881-.806,1.89-1.728,1.925a2.412,2.412,0,0,1-1.477-.671,2.866,2.866,0,0,1-1.491-2.405q-.279-1.959-.559-3.918a10.443,10.443,0,0,1-.137-1.681l-.155.132a3.133,3.133,0,0,1,.156-.35,3.877,3.877,0,0,1,.088-.615,3.606,3.606,0,0,1,3.336-2.671,7.481,7.481,0,0,1,3.474-1.316c1.716-.114,3.626.949,3.867,2.653A5.307,5.307,0,0,1,66.072,47.47Zm74.687-7.548a13.185,13.185,0,0,1-1.886,5.827l-1.889,3.72c-.346.68-.882,1.47-1.639,1.376s-1.128-1.012-1.837-1.279c-.682-.256-1.415.16-2.137.246a3.241,3.241,0,0,1-3.045-1.87,9.514,9.514,0,0,1-.82-3.682l-.225-2.631c-.218-2.542-.132-7.761,3.68-7.414,1.394.127,2.62,1.632,3.95,2.056,1.477.47,3.313-.11,4.637.81A3.409,3.409,0,0,1,140.759,39.922Z"/>
    <path d="M72.368,30.693a1.143,1.143,0,0,1-.057.891,1.322,1.322,0,0,1-.838.456,1.78,1.78,0,0,1-1.3,0c-.491-.273-.653-.911-1.078-1.262s-1.188-.412-1.518-.809c-.592-.714-.5-1.333.305-1.937C69.655,26.7,71.958,29.029,72.368,30.693Z" fill="#fff"/>
    <path d="M69.442,54.322a3.113,3.113,0,0,1,2.324,2.337,1.911,1.911,0,0,1-.188,1.428,1.745,1.745,0,0,1-2.226.448,3.149,3.149,0,0,1-1.428-1.961,1.419,1.419,0,0,0-.275-.608c-.726-.75-4,.915-2.914-1.657C65.639,52.171,68.059,54.019,69.442,54.322Z" fill="#fff"/>
    <path d="M30.452,62.107a4.134,4.134,0,0,1,2.509-.228c.809.275,1.394,1.328.884,2.015a1.781,1.781,0,0,1-1.053.575,6.345,6.345,0,0,1-2.667.061,1.684,1.684,0,0,1-1.214-.691c-.235-.42.034-1.1.513-1.061" fill="#fff"/>
    <path d="M95.829,36.361c.519-.469,1.351.049,1.711.649s.625,1.359,1.282,1.6a1.348,1.348,0,0,0,1.627-.854,2.027,2.027,0,0,0-.416-1.91,4.256,4.256,0,0,0-3.94-1.124,1.381,1.381,0,0,0-.926.407c-.214.272-.131.776.21.838" fill="#fff"/>
    <path d="M121.57,26.348a3.576,3.576,0,0,1,2.6-.421,2.408,2.408,0,0,1,1.789,1.822,1.828,1.828,0,0,1-1.3,2.065.8.8,0,0,1-.506-.032c-.243-.115-.36-.389-.54-.588a2.213,2.213,0,0,0-1.256-.543A2.162,2.162,0,0,1,121.1,28.1c-.307-.348-.28-1.012.156-1.173" fill="#fff"/>
    <path d="M169.476,8.518a2.5,2.5,0,0,1,2.573.412,5.893,5.893,0,0,1,1.574,2.221c.393.841.667,1.982-.043,2.58a2.256,2.256,0,0,1-1.015.4A1.613,1.613,0,0,1,171.172,14a2.624,2.624,0,0,1-.482-.8c-.4-.728-1.195-1.135-1.76-1.743s-.811-1.725-.116-2.18" fill="#fff"/>
    <path d="M182.387,35.821c-.866-.121-1.6.6-2.173,1.261a1.138,1.138,0,0,0-.3.5c-.108.527.53.9,1.066.938a2.959,2.959,0,0,1,1.568.242c.306.217.462.6.759.826a1.436,1.436,0,0,0,1.975-.574,2.056,2.056,0,0,0-1.953-3.1" fill="#fff"/>
  </g>
</svg>
