<svg xmlns="http://www.w3.org/2000/svg" width="160" height="256" viewBox="0 0 160 256">
  <title>illustration-burst-left</title>
  <g>
    <g>
      <path d="M64.381,112.727l-4.633-.966c-7.412-1.546-19.968-8.1-27.5-7.331-5.079.52-5.282,7.256-8.676,11.07-2.231,2.506-3.508,5.7-4.618,8.87-1.764,5.032-3.232,10.391-2.332,15.646S21.4,150.358,26.69,151.043c3.609.468,7.237-1.114,10.855-.727,4.6.49,8.465,4.065,13.077,4.367,6.57.43,11.866-5.791,18.41-6.52,5.2-.58,10.256,2.414,15.483,2.118,4.848-.275,9.04-3.3,13.568-5.057,3.342-1.3,6.918-1.91,10.255-3.221,13.316-5.233,8.55-14.518-1.394-17.954A345.749,345.749,0,0,0,64.381,112.727Z"/>
      <path d="M74.431,76.184c-2.608-.192-5.346.14-7.74-.909-3.733-1.636-5.42-6.053-8.757-8.392-2.475-1.736-6.01-2.52-7.085-5.346a7.8,7.8,0,0,1-.211-3.648c.57-5.063,2.127-10.422,6.165-13.53,4.476-3.446,10.818-3.194,16.236-1.595s10.476,4.361,16.006,5.517c2.276.477,4.848.806,6.3,2.626s1.2,4.419,1.85,6.65c1.177,4.009,5.108,6.442,7.83,9.611a18.4,18.4,0,0,1,4.384,12.477C108.706,100.282,83.043,76.819,74.431,76.184Z"/>
      <path d="M103.3,189.678c-2.888,1.873-6.568,2.18-9.482,4.01-3.725,2.339-5.585,6.731-8.733,9.8a47.152,47.152,0,0,0-3.839,3.6c-2.788,3.408-2.819,8.485-1.009,12.5,2.848,6.319,9.9,10.322,16.827,10.026a20.9,20.9,0,0,0,16.822-10.657c1.29-2.287,2.172-4.786,3.472-7.067,1.723-3.022,4.186-5.684,5.177-9.019,1.944-6.542,5.6-17.654-2.028-21.86C112.014,176.34,109.08,185.927,103.3,189.678Z"/>
    </g>
    <path d="M91.943,68.915c1.668.945,2.33,2.957,3.083,4.72s2.066,3.65,3.983,3.69a3.509,3.509,0,0,0,3.247-3.581A5.721,5.721,0,0,0,99.589,69.3a16.882,16.882,0,0,0-4.959-2.05" fill="#fff"/>
    <path d="M93.458,128.885A3.945,3.945,0,0,0,87.609,130a4.809,4.809,0,0,0,1.663,6.033,6.19,6.19,0,0,0,6.5-.036,4.823,4.823,0,0,0,2.407-3.275,2.952,2.952,0,0,0-1.983-3.276" fill="#fff"/>
    <path d="M117.272,189.869c.239,1.765-.931,3.408-2.221,4.635s-2.8,2.307-3.608,3.9-.528,3.926,1.105,4.636c1.973.857,3.944-1.151,5.119-2.953a13.6,13.6,0,0,0,2.231-4.728,5.028,5.028,0,0,0-1.419-4.809" fill="#fff"/>
  </g>
</svg>
