<svg xmlns="http://www.w3.org/2000/svg" width="160" height="160" viewBox="0 0 160 160">
  <title>illustration-swirl</title>
  <g>
    <path d="M89.459,74.327c-.6-3.14-5.112-4.657-7.488-2.518a9.092,9.092,0,0,0-1.691,2.348L79,76.413c-1.251,2.2-2.506,4.963-1.172,7.113.386.622.955,1.109,1.395,1.7.919,1.22,1.229,2.784,1.913,4.149A8.572,8.572,0,0,0,92.96,92.576c1.13-.735,2.075-1.745,3.266-2.374,1.787-.945,3.905-.93,5.882-1.346a10.889,10.889,0,0,0,6.666-4.137,7.874,7.874,0,0,0,.94-7.614,12.7,12.7,0,0,1-.97-2.184,9.848,9.848,0,0,1,.009-2.759,9.968,9.968,0,0,0-3.362-7.906c-2.642-2.3-6.662-3.393-7.87-6.679-4.9-.443-9.968-1.1-14.865-1.547a18.8,18.8,0,0,0-7.424.318,18.809,18.809,0,0,0-6.126,3.931c-3.856,3.254-7.89,6.766-9.432,11.57-1,3.115-.841,6.479-1.5,9.683-.77,3.713-2.649,7.443-1.7,11.115.647,2.511,2.517,4.5,4.318,6.361,5.493,5.689,11.506,11.669,19.277,13.13,4.263.8,8.649.143,12.937-.516,4.561-.7,9.375-1.514,12.905-4.487,2.175-1.832,3.742-4.4,6.222-5.8,1.651-.929,3.574-1.254,5.3-2.045,3.633-1.67,6.059-5.3,7.209-9.134s1.194-7.891,1.229-11.89c.05-5.614.068-11.4-2.065-16.6-1.8-4.377-4.993-8.008-8.132-11.548-1.712-1.931-3.493-3.914-5.833-5-2.5-1.161-5.349-1.171-8.086-1.48-8.829-.995-17.4-5.282-26.2-4.079a42.9,42.9,0,0,0-9.477,2.827c-5.719,2.2-11.609,4.5-15.99,8.788-3.131,3.061-5.3,6.953-7.384,10.8-4.63,8.537-9.208,18.5-5.811,27.6.729,1.953,1.806,3.768,2.463,5.747,1.174,3.542.94,7.381,1.542,11.064,1.756,10.725,13.082,21.45,24.243,20.335,2-.2,4.459-.193,5.473,1.542a3.984,3.984,0,0,1,.347,2.6,7.99,7.99,0,0,1-2.893,5,7.335,7.335,0,0,0-1.925,1.744,7,7,0,0,0-.623,2.125,8.958,8.958,0,0,1-7.564,6.753c-3.29.358-6.769,1.877-9.552.087a23.93,23.93,0,0,1-3.274-3.16c-4.64-4.437-12.647-4.518-16.328-9.779-2.974-4.25-1.919-10.339-4.737-14.695-1.4-2.162-3.613-3.665-5.2-5.694-5.5-7.038-1.846-17.292-3.4-26.084-.451-2.547-1.354-4.992-1.872-7.526A25.929,25.929,0,0,1,23.222,54.29a13.945,13.945,0,0,0,3.055-2.643A20.651,20.651,0,0,0,28.1,47.69c3.192-7.076,12.152-9.133,18.008-14.23,2.916-2.538,5.1-5.89,8.262-8.112,4.261-2.993,9.77-3.56,14.972-3.317s10.389,1.2,15.585.849c3.987-.265,7.837-1.352,11.787-1.867,1.621-.211,3.413.167,4.892-.025,1.862-.24,3.372-1.428,5.213-1.708,2.28-.347,4.467,1.111,6.773,1.162a16.791,16.791,0,0,1,2.634-.011c2.2.4,3.381,2.731,4.551,4.642,1.7,2.779,4.127,4.371,6.263,6.7,1.944,2.114,3.158,5.253,6.47,5.528a7.172,7.172,0,0,1,2.284.276c1.526.657,1.787,2.679,2.747,4.034.906,1.279,2.429,1.932,3.795,2.7,3.588,2.02,6.619,5.54,6.863,9.651a18.35,18.35,0,0,1-.774,5.43c-2.43,9.851-6.274,20.825-6.274,31.065-.664,4.078-1.4,8.325-3.844,11.654-4.135,5.624-11.811,7.026-17.782,10.643-3.576,2.167-6.608,5.192-10.346,7.067A38.879,38.879,0,0,1,99.747,122.8c-6.216,1.162-12.712,2.312-18.776.518-5.382-1.592-10.037-5.415-15.6-6.171a30.533,30.533,0,0,1-4.68-.629c-3.216-.962-5.429-3.988-6.559-7.149s-1.409-6.553-2.165-9.824C50.6,93.628,47.668,88.057,47.239,82a26.6,26.6,0,0,1,3.1-13.819A34.808,34.808,0,0,1,79.448,49.6a68.272,68.272,0,0,1,7.672.292l6.816.516c5.591.423,11.583,1,15.875,4.611,4.678,3.932,6.121,10.416,7.289,16.414.931,4.78,1.8,10.008-.5,14.3a20.58,20.58,0,0,1-2.733,3.679c-3.183,3.66-6.523,7.293-10.689,9.775s-9.327,3.7-13.938,2.193c-3.006-.981-5.538-3.011-8-5-5.229-4.232-10.856-9.158-11.622-15.842a14.4,14.4,0,0,1,4.6-11.924,17.465,17.465,0,0,1,12.149-4.442A15.167,15.167,0,0,1,97.83,69.279c2.732,3.342,3.42,8.44,1.068,12.059s-7.884,4.949-11.287,2.293C88.558,81.018,88.512,76.94,89.459,74.327Z"/>
    <path d="M113.223,28.855a23.075,23.075,0,0,1,3.224,2.642c.879,1.081,1.185,2.845.155,3.784a2.48,2.48,0,0,1-.925.508,7.429,7.429,0,0,1-1.173.245C95.34,38.9,108.558,24.869,113.223,28.855Z" fill="#fff"/>
    <path d="M142.051,58.952c-3.475,4.032-7.943-5.587-3.395-9.308C144.447,44.905,144.31,56.33,142.051,58.952Z" fill="#fff"/>
    <path d="M55.287,130.433a2.678,2.678,0,0,0-3.4,3.615,8.006,8.006,0,0,1,.707,1.417c.169.713-.131,1.573.348,2.129a1.8,1.8,0,0,0,1.247.468,7.847,7.847,0,0,0,4.87-.914,4.145,4.145,0,0,0,2-4.277c-.458-1.865-2.383-2.915-4.117-3.739" fill="#fff"/>
    <path d="M27.224,73.047A6.642,6.642,0,0,0,26.749,80c.422.776,1,1.457,1.468,2.2,2.985,4.741,1.27,10.872,1.337,16.474a6.822,6.822,0,0,0,.6,3.108,2.841,2.841,0,0,0,2.541,1.632c1.365-.087,2.306-1.416,2.769-2.7a10.15,10.15,0,0,0,.348-5.641c-.587-2.6-2.181-4.885-2.722-7.492a19.312,19.312,0,0,1-.206-4.605l.4-11.359c.065-1.878-.459-4.624-2.96-3.741C29.546,68.146,27.811,72.249,27.224,73.047Z" fill="#fff"/>
  </g>
</svg>
