<svg id="Layer_1" data-name="Layer 1" xmlns="http://www.w3.org/2000/svg" viewBox="0 0 88 120"><defs><style>.cls-1{fill:#fff;}</style></defs><title>image-jamkid-mascot-legs</title><path d="M40.12,32.54l-3.55,8.17a2,2,0,0,0,3.67,1.6l3.55-8.17a2,2,0,0,0-3.67-1.6"/><path class="cls-1" d="M32.42,37.65c1.67-2.57,4.47-2,5.69,1,3.26,1.51,2.45,3.08,1.57,4.17"/><path d="M32.84,37.92A2.66,2.66,0,0,1,35,36.5a2.25,2.25,0,0,1,1.43.56,4.35,4.35,0,0,1,1.21,1.75.5.5,0,0,0,.25.27,5.07,5.07,0,0,1,1.68,1.12,1.28,1.28,0,0,1,.38.87,2.46,2.46,0,0,1-.67,1.41.5.5,0,1,0,.78.63,3.37,3.37,0,0,0,.89-2,2.29,2.29,0,0,0-.63-1.53,6,6,0,0,0-2-1.36l-.21.45.46-.19a5.34,5.34,0,0,0-1.51-2.15A3.25,3.25,0,0,0,35,35.5a3.65,3.65,0,0,0-3,1.88.5.5,0,1,0,.84.54Z"/><path class="cls-1" d="M38.34,40.53c1,.82,1.46,2,1,2.54s-1.68.39-2.7-.43-.86-1.35-.39-1.93S37.33,39.71,38.34,40.53Z"/><path d="M38.34,40.53l-.31.39a3.24,3.24,0,0,1,.75.85,1.51,1.51,0,0,1,.24.73.4.4,0,0,1-.08.26.54.54,0,0,1-.44.15A2.69,2.69,0,0,1,37,42.25a2.26,2.26,0,0,1-.48-.49.46.46,0,0,1-.09-.25.87.87,0,0,1,.26-.49,1.72,1.72,0,0,1,.36-.35.52.52,0,0,1,.3-.1,1.24,1.24,0,0,1,.73.35l.31-.39.31-.39a2.2,2.2,0,0,0-1.36-.57,1.53,1.53,0,0,0-.86.27,2.68,2.68,0,0,0-.58.55,1.8,1.8,0,0,0-.48,1.12,1.45,1.45,0,0,0,.25.79,3.21,3.21,0,0,0,.69.73,3.64,3.64,0,0,0,2.18.88,1.52,1.52,0,0,0,1.22-.52,1.4,1.4,0,0,0,.3-.89,2.48,2.48,0,0,0-.38-1.24,4.24,4.24,0,0,0-1-1.12Z"/><path class="cls-1" d="M35.79,38.19c1.27,1,1.05,1.79.46,2.51s-1.32,1.15-2.59.12-1.83-2.45-1.24-3.17S34.51,37.17,35.79,38.19Z"/><path d="M35.79,38.19l-.31.39a2.68,2.68,0,0,1,.61.64.79.79,0,0,1,.14.42,1.27,1.27,0,0,1-.36.75,2,2,0,0,1-.43.42.72.72,0,0,1-.4.13,1.78,1.78,0,0,1-1-.5,4.17,4.17,0,0,1-1-1.09,2,2,0,0,1-.32-1,.62.62,0,0,1,.12-.41.79.79,0,0,1,.65-.23,3.47,3.47,0,0,1,2,.85l.31-.39.31-.39a4.43,4.43,0,0,0-2.64-1.07,1.78,1.78,0,0,0-1.42.6,1.62,1.62,0,0,0-.35,1,3,3,0,0,0,.46,1.48,5.16,5.16,0,0,0,1.2,1.36,2.73,2.73,0,0,0,1.68.72,1.72,1.72,0,0,0,1-.29,2.93,2.93,0,0,0,.67-.63,2.22,2.22,0,0,0,.58-1.38,1.78,1.78,0,0,0-.29-.94,3.64,3.64,0,0,0-.83-.9Z"/><path d="M44.26,34.14l3.55,8.17a2,2,0,1,0,3.67-1.6l-3.55-8.17a2,2,0,1,0-3.67,1.6"/><path class="cls-1" d="M55.63,37.65c-1.67-2.57-4.47-2-5.69,1-3.26,1.51-2.45,3.08-1.57,4.17"/><path d="M56.05,37.38a3.65,3.65,0,0,0-3-1.88,3.25,3.25,0,0,0-2.06.78,5.34,5.34,0,0,0-1.51,2.15l.46.19-.21-.45a6,6,0,0,0-2,1.36,2.29,2.29,0,0,0-.63,1.53,3.37,3.37,0,0,0,.89,2,.5.5,0,1,0,.78-.63,2.45,2.45,0,0,1-.67-1.41,1.28,1.28,0,0,1,.38-.87,5.08,5.08,0,0,1,1.68-1.12.5.5,0,0,0,.25-.27,4.35,4.35,0,0,1,1.21-1.75A2.25,2.25,0,0,1,53,36.5a2.66,2.66,0,0,1,2.17,1.42.5.5,0,1,0,.84-.54Z"/><path class="cls-1" d="M49.71,40.53c-1,.82-1.46,2-1,2.54s1.68.39,2.7-.43.86-1.35.39-1.93S50.73,39.71,49.71,40.53Z"/><path d="M49.71,40.53l-.31-.39a4.23,4.23,0,0,0-1,1.12A2.48,2.48,0,0,0,48,42.49a1.4,1.4,0,0,0,.3.89,1.52,1.52,0,0,0,1.22.52A3.64,3.64,0,0,0,51.72,43a3.21,3.21,0,0,0,.69-.73,1.45,1.45,0,0,0,.25-.79,1.8,1.8,0,0,0-.48-1.12,2.67,2.67,0,0,0-.58-.55,1.53,1.53,0,0,0-.86-.27,2.19,2.19,0,0,0-1.36.57l.31.39.31.39a1.24,1.24,0,0,1,.73-.35.53.53,0,0,1,.3.1,1.71,1.71,0,0,1,.35.35.88.88,0,0,1,.26.49.46.46,0,0,1-.09.25,2.25,2.25,0,0,1-.48.49,2.69,2.69,0,0,1-1.55.66.54.54,0,0,1-.44-.15.4.4,0,0,1-.08-.26,1.51,1.51,0,0,1,.24-.73,3.24,3.24,0,0,1,.75-.85Z"/><path class="cls-1" d="M52.27,38.19c-1.27,1-1.05,1.79-.46,2.51s1.32,1.15,2.59.12,1.83-2.45,1.24-3.17S53.54,37.17,52.27,38.19Z"/><path d="M52.27,38.19,52,37.8a3.65,3.65,0,0,0-.83.9,1.78,1.78,0,0,0-.29.94A2.21,2.21,0,0,0,51.41,41a2.92,2.92,0,0,0,.67.63,1.72,1.72,0,0,0,1,.29,2.73,2.73,0,0,0,1.68-.72,5.16,5.16,0,0,0,1.2-1.36,3,3,0,0,0,.46-1.48,1.62,1.62,0,0,0-.34-1,1.78,1.78,0,0,0-1.43-.61A4.42,4.42,0,0,0,52,37.8l.31.39.31.39a3.47,3.47,0,0,1,2-.85.79.79,0,0,1,.65.23.63.63,0,0,1,.12.41,2,2,0,0,1-.32,1,4.17,4.17,0,0,1-1,1.09,1.78,1.78,0,0,1-1,.5.72.72,0,0,1-.4-.13,2,2,0,0,1-.43-.42,1.26,1.26,0,0,1-.36-.75.79.79,0,0,1,.14-.42,2.68,2.68,0,0,1,.61-.64Z"/></svg>