<svg id="Layer_1" data-name="Layer 1" xmlns="http://www.w3.org/2000/svg" xmlns:xlink="http://www.w3.org/1999/xlink" viewBox="0 0 512 256"><defs><style>.cls-1,.cls-11,.cls-3,.cls-8,.cls-9{fill:none;}.cls-2,.cls-4,.cls-6{fill:#fff;}.cls-11,.cls-12,.cls-3{stroke:#fff;}.cls-12,.cls-3{stroke-miterlimit:10;}.cls-4,.cls-5,.cls-6,.cls-7,.cls-8,.cls-9{stroke:#000;stroke-linecap:round;}.cls-11,.cls-4,.cls-5,.cls-6,.cls-7,.cls-8,.cls-9{stroke-linejoin:round;}.cls-4,.cls-7,.cls-8{stroke-width:1.02px;}.cls-10{clip-path:url(#clip-path);}</style><clipPath id="clip-path"><polygon class="cls-1" points="43.23 179.33 32.96 195.22 56.1 195.22 56.1 179.33 43.23 179.33"/></clipPath></defs><title>image-location-tc</title><rect x="-34.78" y="-28.64" width="554.08" height="284.64"/><rect class="cls-2" x="-34.78" y="214.06" width="554.08" height="48.67"/><rect class="cls-3" x="76.8" y="-33.61" width="27.45" height="237.73"/><rect class="cls-3" x="104.25" y="125.79" width="78.08" height="78.33"/><rect class="cls-3" x="104.25" y="125.79" width="78.08" height="19.98"/><rect class="cls-3" x="212.86" y="125.79" width="306.45" height="19.98"/><rect class="cls-3" x="212.86" y="76.61" width="306.45" height="19.98"/><rect class="cls-3" x="212.86" y="-33.61" width="306.45" height="44.82"/><rect class="cls-3" x="134.42" y="145.77" width="47.91" height="19.98"/><rect class="cls-3" x="134.42" y="165.75" width="47.91" height="19.98"/><rect class="cls-3" x="-40.11" y="125.79" width="116.91" height="19.98"/><rect class="cls-3" x="-40.11" y="145.77" width="116.91" height="19.98"/><rect class="cls-3" x="-40.11" y="165.75" width="116.91" height="19.98"/><rect class="cls-3" x="116.86" y="29.97" width="41.87" height="46.64"/><rect class="cls-3" x="170.99" y="29.97" width="41.87" height="46.64"/><rect class="cls-3" x="224.19" y="29.97" width="29.14" height="46.64"/><rect class="cls-3" x="303.05" y="29.97" width="29.14" height="46.64"/><rect class="cls-3" x="341.24" y="29.97" width="29.14" height="46.64"/><rect class="cls-3" x="379.43" y="29.97" width="29.14" height="46.64"/><rect class="cls-3" x="417.63" y="29.97" width="29.14" height="46.64"/><rect class="cls-3" x="182.33" y="96.48" width="30.53" height="107.65"/><line class="cls-3" x1="519.3" y1="214.06" x2="-34.78" y2="214.06"/><line class="cls-3" x1="519.3" y1="204.13" x2="-34.78" y2="204.13"/><rect class="cls-3" x="104.25" y="145.77" width="30.17" height="58.36"/><rect class="cls-3" x="80.86" y="123.77" width="19.33" height="24.02"/><rect class="cls-3" x="137.13" y="109.16" width="12.31" height="10.3"/><rect class="cls-3" x="137.13" y="115.35" width="12.31" height="4.12"/><rect class="cls-3" x="14.12" y="109.16" width="12.31" height="10.3"/><rect class="cls-3" x="14.12" y="115.35" width="12.31" height="4.12"/><rect class="cls-3" x="33.86" y="125.79" width="42.94" height="78.33"/><rect class="cls-3" x="-9.08" y="125.79" width="42.94" height="78.33"/><rect class="cls-3" x="-36.13" y="29.97" width="46.83" height="46.64"/><rect class="cls-3" x="22.97" y="29.97" width="41.87" height="46.64"/><rect class="cls-4" x="12.87" y="213.28" width="13.72" height="3.46" transform="translate(39.46 430.02) rotate(-180)"/><circle class="cls-5" cx="41.73" cy="213.26" r="9.9"/><circle class="cls-5" cx="93.65" cy="213.26" r="9.9"/><polygon class="cls-6" points="17.32 211.56 114.1 211.56 114.1 200.02 98.54 195.11 83.27 176.91 38.95 176.91 29.57 191.31 17.29 196.94 17.32 211.56"/><line class="cls-6" x1="113.52" y1="202.6" x2="105.96" y2="202.6"/><line class="cls-6" x1="113.52" y1="205.15" x2="105.96" y2="205.15"/><line class="cls-6" x1="113.52" y1="207.71" x2="105.96" y2="207.71"/><line class="cls-6" x1="113.52" y1="210.27" x2="105.96" y2="210.27"/><ellipse class="cls-5" cx="64.27" cy="222.01" rx="52.27" ry="1.47"/><polygon class="cls-4" points="15.63 211.56 116.53 211.56 115.79 217.54 16.37 217.54 15.63 211.56"/><polygon class="cls-4" points="103.06 211.56 116.53 211.56 115.79 217.54 103.8 217.54 103.06 211.56"/><path class="cls-7" d="M97.23,217.54a11.6,11.6,0,1,0-22,0Z"/><circle class="cls-4" cx="86.25" cy="213.26" r="9.9"/><circle class="cls-8" cx="86.25" cy="213.26" r="4.75"/><circle class="cls-8" cx="86.25" cy="213.26" r="4.75"/><line class="cls-8" x1="86.25" y1="213.26" x2="86.25" y2="218.01"/><line class="cls-8" x1="86.25" y1="213.26" x2="82.14" y2="215.63"/><line class="cls-8" x1="86.25" y1="213.26" x2="82.14" y2="210.88"/><line class="cls-8" x1="86.25" y1="213.26" x2="86.25" y2="208.51"/><line class="cls-8" x1="86.25" y1="213.26" x2="90.37" y2="210.88"/><line class="cls-8" x1="86.25" y1="213.26" x2="90.37" y2="215.63"/><polyline class="cls-9" points="17.54 203.82 19.74 203.82 20.48 211.56 18.59 211.56"/><polyline class="cls-9" points="84.73 179.33 80.64 179.33 91.97 195.11 98.54 195.11"/><polygon class="cls-5" points="74.51 179.33 85.5 195.22 61.31 195.22 61.31 179.33 74.51 179.33"/><polygon class="cls-9" points="74.51 179.33 85.5 195.22 61.31 195.22 61.31 179.33 74.51 179.33"/><polygon points="43.23 179.33 32.96 195.22 56.1 195.22 56.1 179.33 43.23 179.33"/><g class="cls-10"><polygon class="cls-2" points="52.85 179.33 42.58 195.22 65.72 195.22 65.72 179.33 52.85 179.33"/></g><polygon points="45.04 195.22 42.65 188.58 37.65 188.58 32.96 195.22 45.04 195.22"/><path class="cls-11" d="M45,195.22l-1.61-4.45a3.31,3.31,0,0,0-3.11-2.18H37.64"/><path class="cls-11" d="M38.7,195.22l-1.61-4.45A3.31,3.31,0,0,0,34,188.58h-.78"/><polygon class="cls-9" points="43.23 179.33 32.96 195.22 56.1 195.22 56.1 179.33 43.23 179.33"/><polyline class="cls-9" points="17.63 199.09 27.59 194.58 29.57 191.31"/><polyline class="cls-9" points="91.97 195.11 105.96 200.02 114.1 200.02"/><line class="cls-4" x1="58.7" y1="176.91" x2="58.7" y2="211.56"/><polyline class="cls-9" points="76.35 177.65 89.2 195.85 89.2 202.19"/><polyline class="cls-9" points="41.9 176.91 29.12 196.7 29.12 203.46"/><path class="cls-6" d="M39.11,174.18H83.27a0,0,0,0,1,0,0v.9a1.83,1.83,0,0,1-1.83,1.83H40.94a1.83,1.83,0,0,1-1.83-1.83v-.9a0,0,0,0,1,0,0Z" transform="translate(122.38 351.09) rotate(-180)"/><path class="cls-6" d="M39.11,174.18H75.66a0,0,0,0,1,0,0v.9a1.83,1.83,0,0,1-1.83,1.83H40.94a1.83,1.83,0,0,1-1.83-1.83v-.9a0,0,0,0,1,0,0Z" transform="translate(114.77 351.09) rotate(-180)"/><line class="cls-9" x1="105.96" y1="200.02" x2="105.96" y2="211.56"/><polygon class="cls-6" points="103.43 211.56 108.48 211.56 108.48 205.15 104.17 205.15 103.43 211.56"/><polygon class="cls-6" points="112.47 211.56 116.05 211.56 116.05 205.15 113.21 205.15 112.47 211.56"/><path class="cls-7" d="M45.94,217.54a11.6,11.6,0,1,0-22,0Z"/><circle class="cls-4" cx="34.96" cy="213.26" r="9.9"/><circle class="cls-8" cx="34.96" cy="213.26" r="4.75"/><circle class="cls-8" cx="34.96" cy="213.26" r="4.75"/><line class="cls-8" x1="34.96" y1="213.26" x2="34.96" y2="218.01"/><line class="cls-8" x1="34.96" y1="213.26" x2="30.84" y2="215.63"/><line class="cls-8" x1="34.96" y1="213.26" x2="30.84" y2="210.88"/><line class="cls-8" x1="34.96" y1="213.26" x2="34.96" y2="208.51"/><line class="cls-8" x1="34.96" y1="213.26" x2="39.07" y2="210.88"/><line class="cls-8" x1="34.96" y1="213.26" x2="39.07" y2="215.63"/><line class="cls-5" x1="61.31" y1="198.2" x2="66.03" y2="198.2"/><line class="cls-5" x1="33.15" y1="198.2" x2="37.87" y2="198.2"/><line class="cls-9" x1="98.54" y1="195.11" x2="91" y2="189.92"/><rect class="cls-6" x="107.58" y="149.29" width="23.5" height="23.5"/><polygon points="118.37 158.95 118.32 158.99 115.33 161.98 116.58 163.23 116.63 163.28 119.66 160.24 118.37 158.95"/><polygon points="118.84 158.48 121.9 161.54 121.95 161.5 123.33 160.11 120.27 157.04 118.88 158.43 118.84 158.48"/><polygon points="121.43 162.01 120.14 160.72 117.1 163.75 117.15 163.79 118.4 165.04 121.39 162.06 121.43 162.01"/><path class="cls-2" d="M130.08,178.73v1.16h-3.83v-1.16h3.83m1-1h-5.83v3.16h5.83v-3.16Z"/><rect class="cls-12" x="262.66" y="96.48" width="30.53" height="107.65"/><rect class="cls-12" x="342.99" y="96.48" width="30.53" height="107.65"/><rect class="cls-12" x="423.33" y="96.48" width="30.53" height="107.65"/></svg>