<svg id="Layer_1" data-name="Layer 1" xmlns="http://www.w3.org/2000/svg" viewBox="0 0 32 32"><defs><style>.cls-1{fill:#fff;}</style></defs><title>image-jamkid-exclamation-03</title><circle cx="16" cy="16" r="12.75" transform="translate(-4.76 6.99) rotate(-21.54)"/><path class="cls-1" d="M12.75,18.43l.57,1.44c.09.23.15.24.44.18l.07.31q-.69.25-1.38.54l-.16-.28c.25-.15.29-.22.2-.45l-.57-1.44-.09,0c-.17.09-.18.23-.14.87l-.38.15L11,18.67c.79-.28,1.62-.61,2.43-.94l.46,1.08-.39.16c-.37-.54-.48-.63-.68-.54Z"/><path class="cls-1" d="M16.51,16.83c-.21.1-.3.25-.33.64l-.1,1.05.11.26c.08.19.15.22.42.15l.07.31c-.48.18-.9.34-1.37.54l-.16-.28c.25-.15.28-.23.2-.42L15.3,19l-1.08-.84a.61.61,0,0,0-.58-.14l-.09-.3c.52-.2,1-.38,1.5-.59l.13.27h0c-.22.09-.19.22,0,.35l.59.51,0-.68c0-.26,0-.37-.25-.3h0l-.09-.3.93-.37Z"/><path class="cls-1" d="M18.11,15.87a.77.77,0,0,1,1.12.42c.23.58-.06,1.09-.77,1.36l-.16.06.09.22c.07.19.13.2.37.15l.07.31c-.36.13-.93.35-1.29.51l-.16-.28c.22-.13.25-.19.18-.38L17,17c-.08-.21-.17-.25-.4-.19l-.07-.31Zm-.3.57,0-.05.34.87a.57.57,0,0,0,.29,0c.19-.08.21-.27.12-.5a.48.48,0,0,0-.65-.33Z"/><path class="cls-1" d="M22,15.94l.29,1.1-2.28.9-.16-.27,0,0c.18-.1.21-.17.14-.36l-.48-1.21c-.1-.26-.19-.32-.41-.26h0L19,15.52l2.29-.92.47,1-.42.17c-.35-.44-.44-.52-.75-.41l-.16.06c-.16.06-.18.17-.12.32l.17.44.13-.06c.19-.09.2-.16.12-.44l.29-.08.34.93-.27.14c-.1-.16-.15-.2-.34-.13l-.12,0,.14.35c.07.17.14.21.32.15l.17-.07c.31-.13.32-.26.27-.88Z"/><path class="cls-1" d="M12.27,16.06a1.53,1.53,0,0,1-.94,1.17.76.76,0,0,1-1-.21c0,.5-.05.83-.1,1.44a1.62,1.62,0,0,1-1,1.54,1,1,0,0,1-.86,0l0-.59h0a.49.49,0,0,0,.64.22,1.24,1.24,0,0,0,.77-1.1L10,17.6h0c-.13.75-.35,1.24-.76,1.4s-1-.19-.83-.89L8.56,17c.2-.89-.38-1.22-1-1a1.31,1.31,0,0,0-.74,1.09c0,.54.23,1,.59.91s.32-.33.21-.62a.63.63,0,0,0-.35-.36l.41-.34a1.13,1.13,0,0,1,.39.53.88.88,0,0,1-.55,1.21c-.7.21-1.21-.45-1.18-1.28a1.77,1.77,0,0,1,1.06-1.55c.94-.42,2,.15,1.65,1.36l-.23.91c-.11.44.07.66.25.59.43-.17.89-2,.9-3.57l.58-.17a12.15,12.15,0,0,0-.14,1.4l0,.23a.54.54,0,0,0,.8.43,1.11,1.11,0,0,0,.68-1Z"/><path class="cls-1" d="M15,15a1.54,1.54,0,0,1-1,1.12A.69.69,0,0,1,13.3,16a.93.93,0,0,1-.55.66.59.59,0,0,1-.83-.54c-.06-.41-.09-.73-.14-1l.49-.2c0,.34.08.67.12,1s.15.31.31.25a.48.48,0,0,0,.25-.57c-.06-.4-.1-.7-.14-.89l.5-.2c0,.24.05.46.09.69s.31.57.67.43a1,1,0,0,0,.59-.93Z"/><path class="cls-1" d="M18.76,13.47a1.4,1.4,0,0,1-1,1.18c-.47.19-.92.06-1-.57l0-.3c0-.14-.09-.23-.27-.16a.78.78,0,0,0-.25.77l.11.73-.47.18-.13-.82h0v-.06l-.05-.34c0-.08-.11-.12-.25-.07a.78.78,0,0,0-.25.77l.11.73-.47.19L14.57,14l.42-.16.06.26a.82.82,0,0,1,.47-.56c.3-.12.49,0,.59.12a.82.82,0,0,1,.46-.54c.43-.17.63.05.67.39l0,.27c0,.38.24.49.53.37a1,1,0,0,0,.63-.91Z"/><path class="cls-1" d="M22.48,12a1.4,1.4,0,0,1-1,1.18c-.47.19-.92.06-1-.57l0-.3c0-.14-.09-.23-.27-.16a.78.78,0,0,0-.25.77l.11.73-.47.19L19.48,13h0V13l-.05-.34c0-.08-.11-.12-.25-.07a.78.78,0,0,0-.25.77l.11.73-.47.19-.27-1.69.42-.16.06.26a.83.83,0,0,1,.47-.56c.3-.12.49,0,.59.12a.83.83,0,0,1,.46-.53c.43-.17.63.05.67.39l0,.27c0,.38.24.49.53.37a1,1,0,0,0,.63-.91Z"/><path class="cls-1" d="M23.54,10.49c.07.64.17,1.26.26,1.9a1,1,0,0,1-.65,1.09,1,1,0,0,1-.64.07l-.06-.4a1,1,0,0,0,.53,0,.54.54,0,0,0,.33-.66l0-.22v0a.6.6,0,0,1-.37.44c-.35.14-.69-.06-.75-.57,0-.33-.08-.66-.13-1l.49-.19c0,.34.07.67.11,1s.15.32.31.25.29-.29.24-.62l-.1-.75,0-.11Z"/><path class="cls-1" d="M13.1,7.91c-.35-.29-.44.2-.25.87.25.85.74,1.61,1.07,2.43.15.38.32.5.41.42s.13-.09.08-.35C14.25,10.41,13.67,8.39,13.1,7.91Z"/><path class="cls-1" d="M12.91,11.54c-.31-.66-1-1.49-1-.78a2.23,2.23,0,0,0,.86,1.55c.11.1.18.09.22,0S13.1,11.94,12.91,11.54Z"/><path class="cls-1" d="M15.23,9c-.49-.38-.37.88-.11,1.61.12.34.29.53.42.57s.23.15.26,0A2.67,2.67,0,0,0,15.23,9Z"/><path class="cls-1" d="M18.55,21.63l-.08-.18c-.16-.39-.45-.72-.47-.37,0,.65.55,3.08,1.16,3.26S18.84,22.39,18.55,21.63Z"/><path class="cls-1" d="M19,20.33c-.2.11,0,.82.28,1,.37.61,1,1.41.93.58S19.33,20.17,19,20.33Z"/><path class="cls-1" d="M16.65,21l-.09.12,0,0a2,2,0,0,0,.08,1.69c.27.51.51.46.56.14a4,4,0,0,0,0-.94C17.29,21.78,16.88,20.82,16.65,21Z"/><path class="cls-1" d="M19.71,26c-.59.23-.18,1.14.41.9S20.3,25.73,19.71,26Z"/><path class="cls-1" d="M12,5c-.59.24-.18,1.14.41.9S12.57,4.79,12,5Z"/><path class="cls-1" d="M26.26,11.42c-.59.23-.18,1.14.41.9S26.85,11.18,26.26,11.42Z"/><path class="cls-1" d="M5.32,19.82c-.6.24-.18,1.14.41.9S5.91,19.58,5.32,19.82Z"/><path class="cls-1" d="M20.39,5.4c-.6.23-.18,1.14.41.9S21,5.17,20.39,5.4Z"/><path class="cls-1" d="M11.42,25.74c-.59.24-.18,1.14.41.9S12,25.51,11.42,25.74Z"/><path class="cls-1" d="M25.78,20.41c-.59.23-.18,1.14.41.9S26.37,20.18,25.78,20.41Z"/><path class="cls-1" d="M5.79,11.3c-.6.23-.18,1.14.41.9S6.38,11.07,5.79,11.3Z"/><path class="cls-1" d="M5.33,15.17c0-.64-1-.65-1,0S5.29,15.81,5.33,15.17Z"/><path class="cls-1" d="M27.57,17c0-.64-1-.65-1,0S27.53,17.62,27.57,17Z"/><path class="cls-1" d="M15.76,27.25c0-.64-1-.65-1,0S15.72,27.88,15.76,27.25Z"/><path class="cls-1" d="M17,4.72c0-.64-1-.65-1,0S16.93,5.35,17,4.72Z"/><path class="cls-1" d="M23.69,24.46c0-.64-1-.65-1,0S23.65,25.1,23.69,24.46Z"/><path class="cls-1" d="M9,7.75c0-.64-1-.65-1,0S9,8.39,9,7.75Z"/><path class="cls-1" d="M7.81,23c0-.64-1-.65-1,0S7.77,23.66,7.81,23Z"/><path class="cls-1" d="M24.49,8.73c0-.64-1-.65-1,0S24.45,9.37,24.49,8.73Z"/></svg>