<svg id="Layer_1" data-name="Layer 1" xmlns="http://www.w3.org/2000/svg" viewBox="0 0 168 120"><defs><style>.cls-1{fill:#fff;}</style></defs><title>image-jamkid-arms</title><path class="cls-1" d="M56.25,68.47a4.93,4.93,0,0,1,5.72-4c2.68.48,2.08,2.73,5.08,4.15"/><path d="M56.75,68.56A4.42,4.42,0,0,1,61.89,65a2.64,2.64,0,0,1,1.27.55,9,9,0,0,1,1.27,1.6,6.14,6.14,0,0,0,2.4,2,.5.5,0,1,0,.43-.9,5.68,5.68,0,0,1-2.46-2.26,5.56,5.56,0,0,0-1-1.17A3.65,3.65,0,0,0,62.06,64a5.42,5.42,0,0,0-6.3,4.38.5.5,0,1,0,1,.18Z"/><path class="cls-1" d="M59,82.34a10.18,10.18,0,0,1-4.18,0c-5-1.09-8.32-5.65-7.34-10.18s5.86-7.31,10.9-6.22a10,10,0,0,1,5,2.75"/><path d="M58.88,81.85A9.48,9.48,0,0,1,57,82a9.87,9.87,0,0,1-2.09-.23c-4.23-.92-7.13-4.39-7.12-8.07a7.09,7.09,0,0,1,.16-1.51c.78-3.6,4.22-6.06,8.21-6.06a9.86,9.86,0,0,1,2.09.23.5.5,0,0,0,.21-1,10.85,10.85,0,0,0-2.31-.25c-4.39,0-8.29,2.72-9.19,6.85a8.08,8.08,0,0,0-.19,1.72c0,4.22,3.27,8,7.91,9A10.86,10.86,0,0,0,57,83a10.49,10.49,0,0,0,2.07-.21.5.5,0,0,0-.2-1Z"/><path class="cls-1" d="M60.3,66.49c-6-2.76-9.47-1.44-10.33-.26a2.57,2.57,0,0,0-.5,2.33"/><path d="M60.51,66a16.14,16.14,0,0,0-6.62-1.68c-2.23,0-3.68.72-4.32,1.58a3.34,3.34,0,0,0-.69,2,2.4,2.4,0,0,0,.13.82.5.5,0,0,0,.93-.36l-.14.05.14,0h0l-.14.05.14,0a1.53,1.53,0,0,1-.06-.46,2.34,2.34,0,0,1,.5-1.4c.33-.47,1.5-1.18,3.51-1.17a15.16,15.16,0,0,1,6.21,1.59.5.5,0,1,0,.42-.91Z"/><path class="cls-1" d="M110.31,87.1a25.54,25.54,0,0,1-2.22,1.81l-.58.42-.42.29-.64.42a19.17,19.17,0,0,1-2.73,1.37,18.25,18.25,0,0,1-11.85.49q-.71-.22-1.4-.49c-.43-.17-1-.42-1.12-.5l-1.27-.67-2.52-1.39c-1.67-.94-3.33-1.92-5-2.95A8.14,8.14,0,0,1,86.43,71c1.9.36,3.78.78,5.65,1.23l2.79.7,1.39.37c.34.11.2,0,.21,0l0-.09a.77.77,0,0,0-.67-.43l-.21,0,0,0h0l.14-.1.58-.42a25.36,25.36,0,0,1,2.43-1.51A10.09,10.09,0,0,1,110.31,87.1Z"/><path d="M110.31,87.1l-.34-.37a25.05,25.05,0,0,1-2.17,1.77l.3.4-.29-.41-.58.42.29.41-.28-.41-.42.29-.63.42.28.42-.26-.43a18.67,18.67,0,0,1-2.66,1.34,17.33,17.33,0,0,1-6.42,1.21A18,18,0,0,1,92,91.42h0q-.69-.21-1.37-.47l-.18.47.19-.46L90,90.67l-.27-.12-.08,0h0l-.08.14.09-.13h0l-.08.14.09-.13,0,0-1.29-.68-2.52-1.39h0c-1.67-.94-3.32-1.91-5-2.94a7.65,7.65,0,0,1,5.49-14c1.89.36,3.76.77,5.63,1.22l2.79.7.12-.48-.13.48,1.39.37.13-.48-.15.48a1.2,1.2,0,0,0,.36.07.52.52,0,0,0,.27-.07l.19-.19.06-.25a.51.51,0,0,0,0-.21l0-.05h0l-.35.2.37-.17,0,0-.35.2.37-.17-.44.2H97a.46.46,0,0,0,0-.2l-.44.2h0l.43.25a.5.5,0,0,0,.07-.25h-.5l.43.25-.43-.25.2.46a.5.5,0,0,0,.23-.2l-.43-.25.2.46.43-.19L96.91,73v0a1.26,1.26,0,0,0-1.12-.71h-.06l-.27.06-.07,0-.11.06.47.88h0l0,0,.18-.13h0l.58-.42-.29-.41.28.41a24.87,24.87,0,0,1,2.38-1.48,9.59,9.59,0,0,1,11,15.47l.34.36.34.36A10.63,10.63,0,0,0,114,79.71a10.58,10.58,0,0,0-15.55-9.33A25.86,25.86,0,0,0,96,71.92l-.59.42h0l-.14.1.29.41-.22-.45h0l.22.45.24.44,0,0-.24-.44.12.49.21,0-.12-.49v.5l.22.14.45-.22-.47.17,0,.09.47-.17-.2-.46a.5.5,0,0,0-.3.46.49.49,0,0,0,.05.23l0,0h0l.35-.2-.37.16,0,0,.35-.2-.37.16.44-.19H96a.46.46,0,0,0,0,.19l.44-.19h0L96,73.11l-.06.24h.49L96,73.11l.43.23-.16-.46a.49.49,0,0,0-.27.23l.43.23-.16-.46.15.43v-.45l-.15,0,.15.43v-.14l0-.31h0v.32l0-.31v0h0v0l-.1,0h0L95,72.45l-2.8-.7h0c-1.87-.45-3.76-.87-5.67-1.23a8.64,8.64,0,0,0-6.21,15.81c1.65,1,3.32,2,5,3h0l2.53,1.39,1.27.67.23-.44-.29.41.23.13c.25.12.66.29,1,.42h0q.71.27,1.44.5h0a19,19,0,0,0,5.39.78,18.33,18.33,0,0,0,6.79-1.28,19.67,19.67,0,0,0,2.8-1.41h0l.65-.43h0l.43-.3h0l.58-.41h0a26,26,0,0,0,2.26-1.84Z"/><path d="M49.85,80.38l1.59,4.08a1,1,0,0,0,1.08.63l19.79-3A3.3,3.3,0,0,0,75,79.82l3-9.41c1.57-.88,2.55-2.61,2.09-3.79l-1.59-4.08"/><path d="M49.39,80.56,51,84.64a1.5,1.5,0,0,0,1.39,1l.23,0,19.79-3a3.8,3.8,0,0,0,3-2.6l3-9.41-.48-.15.25.44a5.37,5.37,0,0,0,1.76-1.59,3.6,3.6,0,0,0,.7-2,2.23,2.23,0,0,0-.15-.81l-1.59-4.08a.5.5,0,1,0-.93.36l1.59,4.08a1.23,1.23,0,0,1,.08.45,2.63,2.63,0,0,1-.53,1.43A4.38,4.38,0,0,1,77.7,70a.5.5,0,0,0-.23.28l-3,9.41a2.8,2.8,0,0,1-2.24,1.92l-19.79,3h-.08a.5.5,0,0,1-.46-.32L50.32,80.2a.5.5,0,0,0-.93.36Z"/><path class="cls-1" d="M70.72,78,50.93,81a1,1,0,0,1-1.08-.62,1,1,0,0,1,0-.66l3.3-10.38c-2-2.76,1.36-5.36,6.46-5.37a36.8,36.8,0,0,0,11.7-1.73c4.62-1.56,6.68-.92,7.16.3s-.53,2.91-2.09,3.79l-3,9.41A3.29,3.29,0,0,1,70.72,78Z"/><path d="M70.72,78l-.08-.49-19.79,3h-.08a.5.5,0,0,1-.46-.32l0-.17,0-.15,3.3-10.38a.5.5,0,0,0-.07-.45,2.25,2.25,0,0,1-.5-1.33,1.88,1.88,0,0,1,.43-1.15,5,5,0,0,1,2.28-1.48,11.64,11.64,0,0,1,3.86-.61,37.29,37.29,0,0,0,11.86-1.76,14.32,14.32,0,0,1,4.38-.89,3.47,3.47,0,0,1,1.56.29,1.16,1.16,0,0,1,.6.62,1.23,1.23,0,0,1,.08.45,2.63,2.63,0,0,1-.53,1.43,4.37,4.37,0,0,1-1.43,1.29.5.5,0,0,0-.23.28l-3,9.41a2.79,2.79,0,0,1-2.24,1.92l.07.49.07.49a3.79,3.79,0,0,0,3-2.6l3-9.41-.48-.15.25.44a5.37,5.37,0,0,0,1.76-1.59,3.6,3.6,0,0,0,.7-2,2.23,2.23,0,0,0-.15-.81,2.17,2.17,0,0,0-1.08-1.14,4.43,4.43,0,0,0-2-.4,15.25,15.25,0,0,0-4.69.95,36.3,36.3,0,0,1-11.54,1.7,11.43,11.43,0,0,0-5.29,1.15,5,5,0,0,0-1.63,1.32A2.88,2.88,0,0,0,52,67.71a3.25,3.25,0,0,0,.7,1.92l.4-.3-.48-.15-3.3,10.38a1.49,1.49,0,0,0,1.42,1.95l.23,0,19.79-3Z"/><path d="M54.35,74.42c.19-2.33,2.06-3,2.25-5.34a4.07,4.07,0,0,1,1.07-2.94c.73-.6,1.78-.61,2.65-1,1.21-.53,2-1.71,2.91-2.63a5.37,5.37,0,0,1,3.29-1.62,3.3,3.3,0,0,1,3.14,1.63,5.29,5.29,0,0,0,.6,1.18c.51.58,1.4.6,2.09,1,1.37.72,1.61,2.75.79,4.06A5.77,5.77,0,0,1,69.26,71a2.66,2.66,0,0,0-1.12.38.8.8,0,0,0-.26,1,2.74,2.74,0,0,0,.5.4,1.3,1.3,0,0,1-.25,1.93,2.78,2.78,0,0,1-2.16.28,12.74,12.74,0,0,0-2.2-.42c-1.5,0-2.81.93-4.14,1.64C55.53,78.45,54.91,75.5,54.35,74.42Z"/><ellipse class="cls-1" cx="66.43" cy="65.09" rx="1.18" ry="1.08"/><ellipse class="cls-1" cx="68.35" cy="68.16" rx="0.59" ry="0.54"/><path class="cls-1" d="M68,74.23a.49.49,0,0,1,.16.39,1,1,0,0,1-.38.75,1.73,1.73,0,0,1-1,.28,3.91,3.91,0,0,1-.74-.08,12.79,12.79,0,0,0-2.29-.43H63.7a5.34,5.34,0,0,0-2.32.61c-.71.34-1.36.75-2,1.09a5.08,5.08,0,0,1-2.29.71,1.75,1.75,0,0,1-.91-.23,2.39,2.39,0,0,1-.84-1c-.22-.4-.37-.83-.55-1.18l-.44.23.5,0a4.73,4.73,0,0,1,1-2.43,5.71,5.71,0,0,0,1.21-2.91,7.69,7.69,0,0,1,.24-1.52A2.1,2.1,0,0,1,58,67.52,2.84,2.84,0,0,1,59.07,67a10,10,0,0,0,1.44-.44,5.43,5.43,0,0,0,1.71-1.28c.48-.5.9-1,1.35-1.45a4.88,4.88,0,0,1,3-1.48h.19a2.77,2.77,0,0,1,2.47,1.36A5.35,5.35,0,0,0,69.89,65a2.63,2.63,0,0,0,1.2.71,7.1,7.1,0,0,1,1,.37,1.73,1.73,0,0,1,.73.77A2.55,2.55,0,0,1,73.12,68a2.76,2.76,0,0,1-.4,1.44,5.29,5.29,0,0,1-3.56,2.07,3.09,3.09,0,0,0-1.32.47l.6.8a2.28,2.28,0,0,1,.91-.29A6.25,6.25,0,0,0,73.57,70a3.75,3.75,0,0,0,.55-2,3.54,3.54,0,0,0-.37-1.6,2.73,2.73,0,0,0-1.16-1.2,7.57,7.57,0,0,0-1.18-.43,1.68,1.68,0,0,1-.76-.42,5.47,5.47,0,0,1-.53-1.08,3.76,3.76,0,0,0-3.36-1.91h-.26a5.86,5.86,0,0,0-3.61,1.76c-.5.49-.93,1-1.37,1.47a4.46,4.46,0,0,1-1.39,1.06,9.45,9.45,0,0,1-1.3.39,3.79,3.79,0,0,0-1.46.67,3.09,3.09,0,0,0-1,1.57A8.61,8.61,0,0,0,56.1,70a4.74,4.74,0,0,1-1,2.43,5.71,5.71,0,0,0-1.21,2.91v.14l.07.13a10.81,10.81,0,0,0,.86,1.68,3,3,0,0,0,.91.86,2.76,2.76,0,0,0,1.42.37,6,6,0,0,0,2.75-.83c.68-.36,1.32-.76,2-1.07a4.37,4.37,0,0,1,1.89-.51h.05a12.75,12.75,0,0,1,2.11.41,4.89,4.89,0,0,0,.94.1,2.72,2.72,0,0,0,1.61-.47,2,2,0,0,0,.79-1.56,1.49,1.49,0,0,0-.51-1.15l-.65.76Z"/><path d="M54.35,74.42l.5,0a4.73,4.73,0,0,1,1-2.43,5.71,5.71,0,0,0,1.21-2.91,7.69,7.69,0,0,1,.24-1.52A2.1,2.1,0,0,1,58,66.52,2.84,2.84,0,0,1,59.07,66a10,10,0,0,0,1.44-.44,5.44,5.44,0,0,0,1.71-1.28c.48-.5.9-1,1.35-1.45a4.88,4.88,0,0,1,3-1.48h.19a2.77,2.77,0,0,1,2.47,1.36A5.33,5.33,0,0,0,69.89,64a2.63,2.63,0,0,0,1.2.71,7.1,7.1,0,0,1,1,.37,1.73,1.73,0,0,1,.73.77A2.55,2.55,0,0,1,73.12,67a2.75,2.75,0,0,1-.4,1.44,5.29,5.29,0,0,1-3.56,2.07,3.08,3.08,0,0,0-1.32.47,1.41,1.41,0,0,0-.57,1.1,1.07,1.07,0,0,0,.2.64,1.41,1.41,0,0,0,.35.33l.22.15a.49.49,0,0,1,.16.39,1,1,0,0,1-.38.75,1.73,1.73,0,0,1-1,.28,3.92,3.92,0,0,1-.75-.08,12.79,12.79,0,0,0-2.29-.43H63.7a5.34,5.34,0,0,0-2.32.61c-.71.34-1.36.75-2,1.09a5.08,5.08,0,0,1-2.29.71,1.75,1.75,0,0,1-.91-.23,2.39,2.39,0,0,1-.84-1c-.22-.4-.37-.83-.55-1.18l-.44.23.5,0-.5,0-.44.23a10.8,10.8,0,0,0,.86,1.68,3,3,0,0,0,.91.86,2.75,2.75,0,0,0,1.42.37,6,6,0,0,0,2.75-.83c.68-.36,1.32-.76,2-1.07a4.37,4.37,0,0,1,1.89-.51h.05a12.75,12.75,0,0,1,2.11.41,4.9,4.9,0,0,0,.94.1,2.71,2.71,0,0,0,1.61-.47,2,2,0,0,0,.79-1.56,1.49,1.49,0,0,0-.51-1.15,3.38,3.38,0,0,0-.3-.22l-.11-.09v0a.44.44,0,0,1,.17-.3,2.27,2.27,0,0,1,.91-.29A6.25,6.25,0,0,0,73.57,69a3.75,3.75,0,0,0,.55-2,3.54,3.54,0,0,0-.37-1.6,2.73,2.73,0,0,0-1.16-1.2,7.57,7.57,0,0,0-1.18-.43,1.68,1.68,0,0,1-.76-.42,5.46,5.46,0,0,1-.53-1.08,3.76,3.76,0,0,0-3.36-1.91h-.26a5.86,5.86,0,0,0-3.61,1.76c-.5.49-.93,1-1.37,1.47a4.47,4.47,0,0,1-1.39,1.06,9.45,9.45,0,0,1-1.3.39,3.79,3.79,0,0,0-1.46.67,3.09,3.09,0,0,0-1,1.57A8.61,8.61,0,0,0,56.1,69a4.74,4.74,0,0,1-1,2.43,5.71,5.71,0,0,0-1.21,2.91.5.5,0,0,0,.05.27Z"/><path class="cls-1" d="M77.12,71.45a4.93,4.93,0,0,1,5.72-4c2.68.48,2.08,2.73,5.08,4.15"/><path d="M77.61,71.54A4.42,4.42,0,0,1,82.75,68a2.64,2.64,0,0,1,1.27.55,9,9,0,0,1,1.28,1.6,6.15,6.15,0,0,0,2.4,2,.5.5,0,0,0,.43-.9,5.69,5.69,0,0,1-2.46-2.26,5.56,5.56,0,0,0-1-1.17A3.65,3.65,0,0,0,82.93,67a5.42,5.42,0,0,0-6.3,4.38.5.5,0,0,0,1,.18Z"/><path class="cls-1" d="M79.84,85.32a10.17,10.17,0,0,1-4.17,0c-5-1.09-8.32-5.65-7.34-10.18s5.86-7.31,10.9-6.22a10,10,0,0,1,5,2.75"/><path d="M79.74,84.83a9.45,9.45,0,0,1-1.88.19,9.89,9.89,0,0,1-2.09-.23c-4.23-.92-7.13-4.39-7.12-8.07a7.09,7.09,0,0,1,.16-1.51c.78-3.6,4.22-6.06,8.21-6.06a9.86,9.86,0,0,1,2.09.23.5.5,0,1,0,.21-1A10.85,10.85,0,0,0,77,68.15c-4.39,0-8.29,2.72-9.19,6.85a8.09,8.09,0,0,0-.19,1.72c0,4.22,3.27,8,7.91,9.05a10.89,10.89,0,0,0,2.31.25,10.46,10.46,0,0,0,2.07-.21.5.5,0,0,0-.2-1Z"/><path class="cls-1" d="M81.16,69.47c-6-2.76-9.47-1.44-10.33-.26a2.58,2.58,0,0,0-.5,2.33"/><path d="M81.37,69a16.14,16.14,0,0,0-6.63-1.68c-2.23,0-3.67.72-4.32,1.58a3.35,3.35,0,0,0-.69,2,2.4,2.4,0,0,0,.13.82.5.5,0,0,0,.93-.36l-.14.06.15-.05h0l-.14.06.15-.05a1.53,1.53,0,0,1-.06-.46,2.34,2.34,0,0,1,.5-1.4c.33-.47,1.5-1.17,3.51-1.17A15.16,15.16,0,0,1,81,69.92a.5.5,0,0,0,.42-.91Z"/><path class="cls-1" d="M73.22,71.58c-2.87-.88-4.22-.21-4.9,1s-.37,2.44,1.24,3"/><path d="M73.36,71.11a8.44,8.44,0,0,0-2.45-.43,3.72,3.72,0,0,0-1.88.45,3.1,3.1,0,0,0-1.14,1.16,2.93,2.93,0,0,0-.44,1.46A2.07,2.07,0,0,0,68,75.13a3.46,3.46,0,0,0,1.42.92.5.5,0,1,0,.35-.94,2.48,2.48,0,0,1-1-.64,1.06,1.06,0,0,1-.28-.72,2,2,0,0,1,.31-1,2.1,2.1,0,0,1,.78-.79,2.73,2.73,0,0,1,1.38-.32,7.47,7.47,0,0,1,2.16.38.5.5,0,0,0,.29-1Z"/><path class="cls-1" d="M70.92,74.93c-4.58-2.64-6.06,5-2.5,5.11"/><path d="M71.17,74.5a4.15,4.15,0,0,0-2.06-.62,2.91,2.91,0,0,0-2.38,1.25,4.31,4.31,0,0,0-.79,2.5,3.3,3.3,0,0,0,.58,2,2.34,2.34,0,0,0,1.89,1,.5.5,0,1,0,0-1A1.33,1.33,0,0,1,67.32,79a2.32,2.32,0,0,1-.39-1.36,3.32,3.32,0,0,1,.6-1.91,1.9,1.9,0,0,1,1.57-.84,3.16,3.16,0,0,1,1.56.49.5.5,0,0,0,.5-.87Z"/><path class="cls-1" d="M70.5,79.13c-2.33-.17-3.58.42-3.58,2a4.65,4.65,0,0,0,2.75,4c1.58.67,2.83.83,3.83-.42"/><path d="M70.54,78.63l-.76,0a4.25,4.25,0,0,0-2.41.57,2.24,2.24,0,0,0-.95,2,4.76,4.76,0,0,0,.87,2.62,5.1,5.1,0,0,0,2.19,1.84,5.84,5.84,0,0,0,2.2.55A2.73,2.73,0,0,0,73.89,85a.5.5,0,1,0-.78-.62,1.72,1.72,0,0,1-1.43.74,4.92,4.92,0,0,1-1.81-.47,4.1,4.1,0,0,1-1.75-1.48,3.77,3.77,0,0,1-.69-2.06A1.23,1.23,0,0,1,67.93,80a3.32,3.32,0,0,1,1.84-.4l.69,0a.5.5,0,0,0,.07-1Z"/><path class="cls-1" d="M75,85.13A6.13,6.13,0,0,1,71.17,83"/><path d="M75,84.63a4.77,4.77,0,0,1-2.49-1,6.79,6.79,0,0,1-.74-.66l-.19-.21,0-.05h0a.5.5,0,1,0-.78.62,7.15,7.15,0,0,0,1.16,1.11,5.75,5.75,0,0,0,3,1.25.5.5,0,1,0,.07-1Z"/><path class="cls-1" d="M48.7,72.6c-1.61-.61-2-1.73-1.24-3s2.15-2.16,4.9-1c1.57.69,2.23,1.44,2.07,2.27S53.06,73.66,48.7,72.6Z"/><path d="M48.7,72.6l.18-.47a2.48,2.48,0,0,1-1-.64,1.06,1.06,0,0,1-.28-.72,2,2,0,0,1,.31-1,2.56,2.56,0,0,1,.82-.88,2.48,2.48,0,0,1,1.37-.38,5.2,5.2,0,0,1,2.07.51,4.89,4.89,0,0,1,1.43.87,1,1,0,0,1,.37.7l0,.15a1.78,1.78,0,0,1-.64,1,3.52,3.52,0,0,1-2.29.66,9.32,9.32,0,0,1-2.18-.29l-.12.49.18-.47-.18.47-.12.49a10.3,10.3,0,0,0,2.42.32,4.51,4.51,0,0,0,2.92-.88,2.77,2.77,0,0,0,1-1.55,1.78,1.78,0,0,0,0-.34,2,2,0,0,0-.67-1.41,5.82,5.82,0,0,0-1.72-1.07,6.18,6.18,0,0,0-2.47-.59,3.48,3.48,0,0,0-1.91.53A3.56,3.56,0,0,0,47,69.3a2.93,2.93,0,0,0-.44,1.47,2.07,2.07,0,0,0,.53,1.38,3.46,3.46,0,0,0,1.42.92l.06,0Z"/><path class="cls-1" d="M47.55,77.06C44,77,45.17,67.79,52.42,72c0,0,1.75.75,1.58,2.25a3.06,3.06,0,0,1-3.5,2.25"/><path d="M47.56,76.56A1.26,1.26,0,0,1,46.51,76a2.62,2.62,0,0,1-.4-1.48,3.42,3.42,0,0,1,.71-2.11,2.63,2.63,0,0,1,2.15-1,6.49,6.49,0,0,1,3.2,1.05l.06,0h0A3,3,0,0,1,53,73a1.51,1.51,0,0,1,.56,1.1v.15a1.44,1.44,0,0,1-.17.47,2.74,2.74,0,0,1-.83.93,2.52,2.52,0,0,1-1.47.45,3.13,3.13,0,0,1-.46,0,.5.5,0,1,0-.15,1,4.13,4.13,0,0,0,.61,0,3.54,3.54,0,0,0,2.52-1,3.71,3.71,0,0,0,.66-.87,2.37,2.37,0,0,0,.29-.83v-.26a2.54,2.54,0,0,0-1-1.92,3.94,3.94,0,0,0-.93-.59l-.2.46.25-.43A7.46,7.46,0,0,0,49,70.42,3.64,3.64,0,0,0,46,71.77a4.41,4.41,0,0,0-.94,2.74,3.6,3.6,0,0,0,.58,2,2.27,2.27,0,0,0,1.85,1,.5.5,0,0,0,0-1Z"/><path class="cls-1" d="M51.8,81.43c-.87,1.09-2,.95-3.35.36a4.06,4.06,0,0,1-2.4-3.49c0-1.38,1.09-1.89,3.13-1.75C49.18,76.55,55,76.79,51.8,81.43Z"/><path d="M51.8,81.43l-.39-.31a1.43,1.43,0,0,1-1.2.62,4.23,4.23,0,0,1-1.56-.41,3.52,3.52,0,0,1-1.5-1.27,3.23,3.23,0,0,1-.6-1.76,1,1,0,0,1,.42-.94A2.85,2.85,0,0,1,48.55,77l.6,0h0a6.11,6.11,0,0,1,1.75.39,2.59,2.59,0,0,1,.94.61,1.35,1.35,0,0,1,.37,1,4,4,0,0,1-.86,2.14l.41.28-.39-.31.39.31.41.28a5,5,0,0,0,1-2.71,2.37,2.37,0,0,0-.7-1.71,4.42,4.42,0,0,0-2.12-1.06,7.16,7.16,0,0,0-1.22-.18l0,.5,0-.5-.67,0a3.77,3.77,0,0,0-2.14.51,2,2,0,0,0-.85,1.76,4.21,4.21,0,0,0,.77,2.33,4.51,4.51,0,0,0,1.94,1.63,5.15,5.15,0,0,0,1.95.49,2.45,2.45,0,0,0,2-1l0,0Z"/></svg>