<svg id="Layer_1" data-name="Layer 1" xmlns="http://www.w3.org/2000/svg" xmlns:xlink="http://www.w3.org/1999/xlink" viewBox="0 0 56 160"><defs><style>.cls-1,.cls-6{fill:none;}.cls-2,.cls-4,.cls-6{stroke:#000;stroke-linecap:round;stroke-linejoin:round;}.cls-3{clip-path:url(#clip-path);}.cls-4,.cls-5{fill:#fff;}</style><clipPath id="clip-path"><path class="cls-1" d="M52.54,25.25c0,13.56-11,32-24.54,32S3.46,38.81,3.46,25.25a24.54,24.54,0,1,1,49.09,0Z"/></clipPath></defs><title>image-balloon-01</title><line class="cls-2" x1="28" y1="58.2" x2="28" y2="158.75"/><path class="cls-2" d="M25.2,58.4c0-.73,1.25-1.73,2.8-1.73s2.8,1,2.8,1.73-1.25,1.33-2.8,1.33S25.2,59.14,25.2,58.4Z"/><path class="cls-2" d="M52.54,25.25c0,13.56-11,32-24.54,32S3.46,38.81,3.46,25.25a24.54,24.54,0,1,1,49.09,0Z"/><g class="cls-3"><circle class="cls-4" cx="31.44" cy="19.67" r="24"/></g><path class="cls-5" d="M28,2.21a23.07,23.07,0,0,1,23,23c0,13.44-10.85,30.5-23,30.5S5,38.69,5,25.25a23.07,23.07,0,0,1,23-23m0-1.5A24.54,24.54,0,0,0,3.46,25.25c0,13.56,11,32,24.54,32s24.54-18.44,24.54-32A24.54,24.54,0,0,0,28,.71Z"/><path class="cls-6" d="M52.54,25.25c0,13.56-11,32-24.54,32S3.46,38.81,3.46,25.25a24.54,24.54,0,1,1,49.09,0Z"/></svg>