<svg id="Layer_1" data-name="Layer 1" xmlns="http://www.w3.org/2000/svg" viewBox="0 0 168 120"><defs><style>.cls-1{fill:#fff;}</style></defs><title>image-jamkid-head</title><path class="cls-1" d="M68.49,47.56C60.57,35.35,66.93,16,88.12,16c17.08,0,27.26,10.33,24.42,26l-.22.41a8.57,8.57,0,0,1-2.46,16.79h-4.14c-2.16,7.95-9.44,11.65-23.57,11.61C61.46,70.77,62,52.82,68.49,47.56Z"/><path class="cls-1" d="M105.86,59.2h4a8.6,8.6,0,1,0,0-17.19h-4"/><path d="M105.86,59.7h4a9.1,9.1,0,1,0,0-18.19h-4a.5.5,0,1,0,0,1h4a8.1,8.1,0,1,1,0,16.19h-4a.5.5,0,0,0,0,1Z"/><path d="M90.25,46.19a2.33,2.33,0,1,0-4.67,0,.5.5,0,0,0,1,0,1.33,1.33,0,1,1,2.67,0,.5.5,0,0,0,1,0Z"/><path d="M79.4,46.19a2.33,2.33,0,1,0-4.67,0,.5.5,0,0,0,1,0,1.33,1.33,0,1,1,2.67,0,.5.5,0,0,0,1,0Z"/><path d="M89.69,39.24l-3.25-.5a1,1,0,1,0-.3,2l3.25.5a1,1,0,0,0,.3-2"/><path d="M78.54,38.74l-3.25.5a1,1,0,0,0,.3,2l3.25-.5a1,1,0,1,0-.3-2"/><path d="M105.93,53.68c0,5.28-1.7,9.36-5.45,12.2s-9.68,4.43-18.17,4.43h-.17c-6.43,0-10.7-1.78-13.37-4.29A12.13,12.13,0,0,1,65,57c0-3.73,1.55-7.29,3.81-9.1a.5.5,0,0,0,.11-.66,20.08,20.08,0,0,1-3.2-10.91,19.31,19.31,0,0,1,5.56-13.69C75,19,80.55,16.47,88.12,16.46s13.6,2,17.82,5.56,6.58,8.63,6.58,14.91a28,28,0,0,1-.46,5,.5.5,0,0,0,1,.18,29,29,0,0,0,.48-5.15,19.79,19.79,0,0,0-6.94-15.68c-4.44-3.73-10.79-5.79-18.46-5.79S74.46,18.05,70.55,22a20.31,20.31,0,0,0-5.85,14.4,21.07,21.07,0,0,0,3.36,11.46l.42-.27-.31-.39C65.62,49.25,64,53,64,57a13.13,13.13,0,0,0,4.09,9.71c2.89,2.72,7.45,4.54,14.05,4.56h.17c8.61,0,14.74-1.6,18.77-4.63s5.86-7.52,5.85-13a.5.5,0,1,0-1,0Z"/><path d="M81.41,65.69c10.28,0,15.79-7.46,11.81-11.8C89.79,50.14,86.15,55,80.42,55S73,50.24,69.64,54C65.61,58.51,71.13,65.69,81.41,65.69Z"/><circle class="cls-1" cx="76.15" cy="55.1" r="3.38"/><circle class="cls-1" cx="80.9" cy="55.56" r="3.38"/><circle class="cls-1" cx="86.08" cy="55.1" r="3.38"/><circle class="cls-1" cx="90.33" cy="54.16" r="3.38"/><path d="M81.41,65.69v.5a16.84,16.84,0,0,0,9.85-2.86c2.37-1.7,3.76-4,3.76-6.21a5.21,5.21,0,0,0-1.43-3.57A4.35,4.35,0,0,0,90.28,52a13.34,13.34,0,0,0-4.56,1.31,14.21,14.21,0,0,1-5.3,1.24,10.23,10.23,0,0,1-4.65-1.18c-.63-.3-1.21-.61-1.78-.86a4.53,4.53,0,0,0-1.77-.42,3.06,3.06,0,0,0-1.47.38,5.56,5.56,0,0,0-1.48,1.23,5.41,5.41,0,0,0-1.45,3.65c0,2.24,1.4,4.46,3.77,6.11a17.17,17.17,0,0,0,9.83,2.76v-1a16.18,16.18,0,0,1-9.25-2.58c-2.18-1.52-3.34-3.49-3.34-5.29a4.4,4.4,0,0,1,1.2-3,4.59,4.59,0,0,1,1.2-1,2.05,2.05,0,0,1,1-.26,3.57,3.57,0,0,1,1.38.35c1.55.65,3.58,2.12,6.82,2.12a15.16,15.16,0,0,0,5.66-1.31A12.69,12.69,0,0,1,90.28,53a3.33,3.33,0,0,1,2.58,1.26A4.2,4.2,0,0,1,94,57.12c0,1.81-1.16,3.83-3.35,5.39a15.85,15.85,0,0,1-9.26,2.67Z"/><path class="cls-1" d="M82.09,61.43a8.35,8.35,0,0,0-3-.53c-4,0-7.2,2.71-7.2,6.05S75.16,73,79.14,73s7.2-2.71,7.2-6.05c0,0,.21-2.7,3.85-3.57a6.45,6.45,0,0,0-10.61.36"/><path d="M82.27,61a8.85,8.85,0,0,0-3.13-.56,8.41,8.41,0,0,0-5.41,1.89,5.89,5.89,0,0,0,0,9.32,8.69,8.69,0,0,0,10.82,0,6.1,6.1,0,0,0,2.29-4.66h-.5l.5,0h0a3.05,3.05,0,0,1,.52-1.29,4.68,4.68,0,0,1,2.95-1.84.5.5,0,0,0,.29-.78,6.95,6.95,0,0,0-11.44.39A.5.5,0,0,0,80,64a5.95,5.95,0,0,1,9.78-.33l.41-.29-.12-.49a5.64,5.64,0,0,0-3.6,2.33,3.92,3.92,0,0,0-.64,1.69v0a5.1,5.1,0,0,1-1.93,3.9,7.7,7.7,0,0,1-9.54,0,4.9,4.9,0,0,1,0-7.79,7.42,7.42,0,0,1,4.77-1.66,7.85,7.85,0,0,1,2.78.5.5.5,0,0,0,.35-.94Z"/><path d="M84.16,47.31a10.44,10.44,0,0,1-1.83,4.29l0,.06A2,2,0,1,1,79,49.37a2.11,2.11,0,0,1,.35-.39,7.13,7.13,0,0,0,1.94-2.41l0-.1a1.51,1.51,0,0,1,2.86.85Z"/><path d="M105.91,48.22a.5.5,0,0,0,.32-.39,5.75,5.75,0,0,1,2.22-4,6,6,0,0,1,3.48-1,7,7,0,0,1,2.15.33l.15.06a8.63,8.63,0,0,1,2.39,2.08,12.36,12.36,0,0,0-.94-19.12l3.53-3.44a.5.5,0,0,0-.09-.79,5.91,5.91,0,0,0-2.83-.74,5.28,5.28,0,0,0-3.69,1.52c0-.33,0-.65.06-1C114.5,2.5,76.5-2.33,61.52,12.94L56.3,9.46a.5.5,0,0,0-.78.38s0,.4,0,1.05c0,2,.23,6.46,2.41,9.56v.15l-4-1.84a.5.5,0,0,0-.71.46A18.76,18.76,0,0,0,54.36,25,10.77,10.77,0,0,0,57,29.15a7.83,7.83,0,0,0,4.49,2A12.34,12.34,0,0,0,67.8,47.42c.65,1,1.18-.47,1.18-.89a26.5,26.5,0,0,1,2.85-12.38h9.85l-2.06,2.93a.5.5,0,0,0,.47.78,24.71,24.71,0,0,0,9.68-3.71H96a12.29,12.29,0,0,0,9.6,14.08h0l.2,0v-.06Z"/><path d="M105.91,48.22l.18.47a1,1,0,0,0,.63-.78,5.24,5.24,0,0,1,2-3.65,5.47,5.47,0,0,1,3.19-.93,6.51,6.51,0,0,1,2,.3l.16-.47-.18.47.15.06.18-.47-.25.43a8.13,8.13,0,0,1,2.25,2,.5.5,0,0,0,.73.06,12.86,12.86,0,0,0-1-19.9l-.3.4.35.36,3.53-3.44a1,1,0,0,0,.3-.71v-.11a1,1,0,0,0-.48-.74h0l-.18.34.19-.34h0l-.18.34.19-.34-.27-.14a6.51,6.51,0,0,0-2.79-.65v0h0a5.79,5.79,0,0,0-4,1.65l.34.36.5,0c0-.35,0-.68.06-1q.07-.7.07-1.38A12.86,12.86,0,0,0,111,13.06c-2.17-3.18-5.71-5.59-10-7.21A40.7,40.7,0,0,0,86.72,3.4c-9.49,0-19.38,2.91-25.55,9.19l.36.35.28-.42L56.58,9A1,1,0,0,0,55,9.81l.5,0L55,9.79v0c0,.1,0,.48,0,1.06,0,2,.22,6.57,2.5,9.84l.41-.29-.5,0v.15l.5,0,.21-.45-4-1.84a1,1,0,0,0-1.42.91v0l.39,0h-.39l.39,0h-.39a19.24,19.24,0,0,0,1.2,6,11.26,11.26,0,0,0,2.81,4.32,8.34,8.34,0,0,0,4.77,2.13l.06-.5-.46-.2a12.84,12.84,0,0,0,6.52,16.93l.21-.46-.42.27a1.46,1.46,0,0,0,.36.39.87.87,0,0,0,.51.17.91.91,0,0,0,.65-.3,2.07,2.07,0,0,0,.43-.73,2.19,2.19,0,0,0,.15-.7,26,26,0,0,1,2.79-12.15l-.44-.23v.5h8.89L79.2,36.8A1,1,0,0,0,80,38.37h.19l-.12-.46.08.47h0l-.12-.46.08.47v0h0v0a25.17,25.17,0,0,0,9.88-3.79l-.28-.41v.5H96v-.5l-.49-.08a12.79,12.79,0,0,0,10,14.64l.11-.49-.13.48h0l.2,0a.5.5,0,0,0,.6-.49v-.06h-.5l0,.5h0l.14,0-.18-.47,0-.5h0a.5.5,0,0,0-.46.5v.06h.5l.1-.49-.19,0h0a11.79,11.79,0,0,1-9.21-13.51.5.5,0,0,0-.49-.58H89.77a.5.5,0,0,0-.28.09,22.41,22.41,0,0,1-6.33,2.92c-.92.27-1.7.44-2.25.55l-.65.12-.17,0H80l.12.48-.06-.5h0l2.06-2.93a.5.5,0,0,0-.41-.79H71.82a.5.5,0,0,0-.44.27,27,27,0,0,0-2.91,12.61,1,1,0,0,1,0,.2,1.69,1.69,0,0,1-.19.45l-.08.1h0l.08.14v-.16l-.08,0,.08.14v0l.06-.17h-.06v.18l.06-.17,0,.08,0-.07h0l0,.08,0-.07a.47.47,0,0,1-.11-.13L68,47a11.84,11.84,0,0,1-6-15.62.5.5,0,0,0-.4-.7,7.33,7.33,0,0,1-4.21-1.87,10.28,10.28,0,0,1-2.56-3.94,17.81,17.81,0,0,1-1-3.88c-.07-.53-.11-1-.13-1.27,0-.15,0-.27,0-.36v-.15l-.42,0h.42v0l-.42,0h.42l4,1.84a.5.5,0,0,0,.71-.42v-.15a.5.5,0,0,0-.09-.32C56.25,17.24,56,12.86,56,10.89c0-.32,0-.57,0-.74V9.89h0l-.44,0,.44,0h0l-.44,0,.44,0v0h0l5.22,3.48a.5.5,0,0,0,.63-.07c5.89-6,15.54-8.9,24.84-8.89,6.62,0,13,1.46,17.77,4.2a17,17,0,0,1,5.64,5,11.85,11.85,0,0,1,2.1,6.79q0,.63-.06,1.29c0,.36,0,.69-.06,1a.5.5,0,0,0,.84.41,4.79,4.79,0,0,1,3.3-1.38h0a5.49,5.49,0,0,1,1.84.33,5.19,5.19,0,0,1,.54.23l.15.08,0,0,0,0,.23-.44-.26.43h0l-3.53,3.44a.5.5,0,0,0,0,.76,11.86,11.86,0,0,1,.9,18.35l.34.37L117,45a9.13,9.13,0,0,0-2.53-2.21l-.08,0-.15-.06h0a7.49,7.49,0,0,0-2.31-.35,6.46,6.46,0,0,0-3.78,1.12,6.25,6.25,0,0,0-2.42,4.3h0l.18.47,0-.5Z"/><path d="M109.58,49.29l3.94,3.94a.5.5,0,1,0,.71-.71l-3.94-3.94a.5.5,0,0,0-.71.71"/><path d="M110.29,53.23l3.94-3.94a.5.5,0,0,0-.71-.71l-3.94,3.94a.5.5,0,1,0,.71.71"/></svg>