<svg id="Layer_1" data-name="Layer 1" xmlns="http://www.w3.org/2000/svg" xmlns:xlink="http://www.w3.org/1999/xlink" viewBox="0 0 256 120"><defs><style>.cls-1{fill:none;}.cls-12,.cls-2,.cls-9{fill:#fff;}.cls-3{clip-path:url(#clip-path);}.cls-4{font-size:5.96px;font-family:CardinalWide-Sb, Cardinal Grotesque Wide;font-weight:700;letter-spacing:0.02em;}.cls-5{letter-spacing:0.03em;}.cls-6{letter-spacing:0.02em;}.cls-7{letter-spacing:-0.02em;}.cls-8{letter-spacing:0em;}.cls-9{font-size:12.71px;font-family:ViktorScript-Regular, Viktor Script;}.cls-10{letter-spacing:0.03em;}.cls-11{letter-spacing:-0.06em;}.cls-12{font-size:2.24px;font-family:HellenicWideJF, HellenicWideJF;}.cls-13{letter-spacing:0em;}.cls-14{letter-spacing:0.03em;}.cls-15{letter-spacing:-0.28em;}</style><clipPath id="clip-path"><rect class="cls-1" x="17.33" y="87.28" width="220.67" height="30.92"/></clipPath></defs><title>image-jamkid-full</title><path class="cls-2" d="M92.25,67.46a4.93,4.93,0,0,1,5.72-4c2.68.48,2.08,2.73,5.08,4.15"/><path d="M92.75,67.55A4.42,4.42,0,0,1,97.89,64a2.64,2.64,0,0,1,1.27.55,9,9,0,0,1,1.27,1.6,6.15,6.15,0,0,0,2.4,2,.5.5,0,1,0,.43-.9,5.68,5.68,0,0,1-2.46-2.26,5.55,5.55,0,0,0-1-1.17A3.65,3.65,0,0,0,98.06,63a5.42,5.42,0,0,0-6.3,4.38.5.5,0,1,0,1,.18Z"/><path class="cls-2" d="M95,81.33a10.16,10.16,0,0,1-4.18,0c-5-1.09-8.32-5.65-7.34-10.18s5.86-7.31,10.9-6.22a10,10,0,0,1,5,2.75"/><path d="M94.88,80.84A9.45,9.45,0,0,1,93,81a9.87,9.87,0,0,1-2.09-.23c-4.23-.92-7.13-4.39-7.12-8.07a7.09,7.09,0,0,1,.16-1.51c.78-3.6,4.22-6.06,8.21-6.06a9.86,9.86,0,0,1,2.09.23.5.5,0,0,0,.21-1,10.86,10.86,0,0,0-2.31-.25c-4.39,0-8.29,2.72-9.19,6.85a8.09,8.09,0,0,0-.19,1.72c0,4.22,3.27,8,7.91,9A10.86,10.86,0,0,0,93,82a10.45,10.45,0,0,0,2.07-.21.5.5,0,0,0-.2-1Z"/><path class="cls-2" d="M96.3,65.48c-6-2.76-9.47-1.44-10.33-.26a2.57,2.57,0,0,0-.5,2.33"/><path d="M96.51,65a16.14,16.14,0,0,0-6.62-1.68c-2.23,0-3.67.72-4.32,1.58a3.34,3.34,0,0,0-.69,2,2.4,2.4,0,0,0,.13.82.5.5,0,0,0,.93-.36l-.14.05.14,0h0l-.14.05.14,0a1.53,1.53,0,0,1-.06-.46,2.34,2.34,0,0,1,.5-1.4c.33-.47,1.5-1.18,3.51-1.17a15.16,15.16,0,0,1,6.21,1.59.5.5,0,0,0,.42-.91Z"/><path class="cls-2" d="M120.48,86.08a25.54,25.54,0,0,1-2.22,1.81l-.58.42-.42.29-.64.42a19.17,19.17,0,0,1-2.73,1.37,18.25,18.25,0,0,1-11.85.49q-.71-.22-1.4-.49c-.43-.17-1-.42-1.12-.5l-1.27-.67-2.52-1.39c-1.67-.94-3.33-1.92-5-2.95A8.14,8.14,0,0,1,96.59,70c1.9.36,3.78.78,5.65,1.23l2.79.7,1.39.37c.34.11.2,0,.21,0l0-.09a.77.77,0,0,0-.67-.43l-.21,0,0,0h0l.14-.1.58-.42a25.36,25.36,0,0,1,2.43-1.51,10.09,10.09,0,0,1,11.63,16.28Z"/><path d="M120.48,86.08l-.34-.37A25.06,25.06,0,0,1,118,87.49l.3.4-.29-.41-.58.42.29.41-.28-.41-.42.29-.63.42.28.42-.26-.43a18.67,18.67,0,0,1-2.66,1.34,17.33,17.33,0,0,1-6.42,1.21,18,18,0,0,1-5.11-.74h0q-.69-.21-1.37-.47l-.18.47.19-.46-.67-.28-.27-.12-.08,0h0l-.08.14.09-.13h0l-.08.14.09-.13,0,0-1.29-.69L96,87.4h0c-1.67-.94-3.32-1.91-5-2.94a7.65,7.65,0,0,1,5.49-14c1.89.36,3.76.77,5.63,1.22h0l2.79.7.12-.49-.13.48,1.39.37.13-.48-.15.48a1.2,1.2,0,0,0,.36.07.52.52,0,0,0,.27-.07l.19-.19.06-.25a.51.51,0,0,0,0-.21l0-.05h0l-.35.2.37-.17,0,0-.35.2.37-.17-.44.2h.49a.46.46,0,0,0,0-.2l-.44.2h0l.43.25.07-.25h-.5l.43.25-.43-.25.23.44.2-.19-.43-.25.23.44.39-.2-.18-.5v0a1.26,1.26,0,0,0-1.12-.71h-.06l-.27.06-.07,0-.11.06.47.88h0l0,0,.18-.13h0l.58-.42-.29-.41.28.41a24.88,24.88,0,0,1,2.38-1.48,9.59,9.59,0,0,1,11,15.47l.34.36.34.36a10.59,10.59,0,0,0-12.2-17.08,25.85,25.85,0,0,0-2.48,1.54h0l-.59.42h0l-.14.1.29.41-.22-.45h0l.22.45.24.44,0,0-.24-.44.12.49.21,0-.12-.49v.5l.22.14.45-.22-.47.17,0,.09.47-.17-.23-.44-.2.2-.07.25a.49.49,0,0,0,.05.23l0,0,.13-.08-.14.08h0l.13-.08-.14.08.41-.23h-.47a.43.43,0,0,0,.06.23l.41-.23h0l-.43-.24-.06.24h.49l-.43-.24.43.24-.16-.46a.49.49,0,0,0-.27.23l.43.24-.16-.46.15.43v-.45l-.15,0,.15.43v-.14l0-.31h0v.32l0-.31v0h0v0l-.1,0h0l-1.41-.37-2.79-.7h0c-1.87-.45-3.76-.87-5.67-1.23a8.64,8.64,0,0,0-6.21,15.81c1.65,1,3.32,2,5,3h0L98,89.67l1.27.67.23-.44-.29.41.23.13c.25.12.66.29,1,.42h0q.71.27,1.44.5h0a19,19,0,0,0,5.39.78,18.33,18.33,0,0,0,6.79-1.28,19.66,19.66,0,0,0,2.8-1.41h0l.65-.43h0l.43-.3h0l.58-.42h0a26,26,0,0,0,2.26-1.84Z"/><circle cx="138.19" cy="70.2" r="23"/><circle cx="143.42" cy="82.71" r="23"/><polyline points="140.7 75.18 145.53 78.84 146.13 78.05 141.3 74.38"/><rect class="cls-2" y="87.28" width="256" height="30.92"/><g class="cls-3"><ellipse cx="128.01" cy="89.07" rx="42.28" ry="5.04"/><path d="M170.29,89.07h-.5s0,.08-.1.19a3.63,3.63,0,0,1-1.34.78,30.44,30.44,0,0,1-5.73,1.41c-7.59,1.3-20.27,2.15-34.62,2.15a266.39,266.39,0,0,1-29.84-1.47,62.94,62.94,0,0,1-9-1.59,10.65,10.65,0,0,1-2.35-.9,2,2,0,0,1-.51-.39c-.09-.11-.1-.16-.1-.19s0-.08.1-.19a3.63,3.63,0,0,1,1.34-.78,30.43,30.43,0,0,1,5.73-1.41c7.59-1.3,20.27-2.15,34.62-2.15A266.37,266.37,0,0,1,157.85,86a62.92,62.92,0,0,1,9,1.59,10.65,10.65,0,0,1,2.35.9,2,2,0,0,1,.51.39c.09.11.1.16.1.19h1a1.29,1.29,0,0,0-.34-.84,4.45,4.45,0,0,0-1.73-1.06,31.27,31.27,0,0,0-5.93-1.47c-7.69-1.31-20.4-2.17-34.78-2.17a267.31,267.31,0,0,0-30,1.48,63.79,63.79,0,0,0-9.14,1.62,11.54,11.54,0,0,0-2.58,1,3,3,0,0,0-.77.61,1.21,1.21,0,0,0,0,1.68A4.45,4.45,0,0,0,87.29,91a31.28,31.28,0,0,0,5.93,1.47c7.69,1.31,20.4,2.17,34.78,2.17a267.32,267.32,0,0,0,30-1.48,63.8,63.8,0,0,0,9.14-1.62,11.54,11.54,0,0,0,2.58-1,3,3,0,0,0,.77-.61,1.29,1.29,0,0,0,.34-.84Z"/></g><path d="M256,86.78H0a.5.5,0,0,0-.5.5.5.5,0,0,0,.5.5H256a.5.5,0,0,0,0-1"/><path class="cls-2" d="M104.49,46.54C96.57,34.33,102.93,15,124.12,15c17.08,0,27.26,10.33,24.42,26l-.22.41a8.57,8.57,0,0,1-2.46,16.79h-4.14c-2.16,7.95-9.44,11.65-23.57,11.61C97.46,69.75,98,51.81,104.49,46.54Z"/><path class="cls-2" d="M141.86,58.19h4a8.6,8.6,0,0,0,0-17.19h-4"/><path d="M141.86,58.69h4a9.1,9.1,0,0,0,0-18.19h-4a.5.5,0,0,0,0,1h4a8.1,8.1,0,1,1,0,16.19h-4a.5.5,0,0,0,0,1Z"/><path d="M126.25,45.18a2.33,2.33,0,1,0-4.67,0,.5.5,0,0,0,1,0,1.33,1.33,0,1,1,2.67,0,.5.5,0,0,0,1,0Z"/><path d="M115.4,45.18a2.33,2.33,0,1,0-4.67,0,.5.5,0,0,0,1,0,1.33,1.33,0,1,1,2.67,0,.5.5,0,0,0,1,0Z"/><path d="M125.69,38.23l-3.25-.5a1,1,0,1,0-.3,2l3.25.5a1,1,0,1,0,.3-2"/><path d="M114.54,37.73l-3.25.5a1,1,0,1,0,.3,2l3.25-.5a1,1,0,1,0-.3-2"/><path d="M141.93,52.67c0,5.28-1.7,9.36-5.45,12.2s-9.68,4.43-18.17,4.43h-.16c-6.43,0-10.7-1.78-13.37-4.29A12.13,12.13,0,0,1,101,56c0-3.73,1.55-7.29,3.81-9.1a.5.5,0,0,0,.11-.66,20.07,20.07,0,0,1-3.2-10.91,19.31,19.31,0,0,1,5.56-13.69c3.71-3.72,9.29-6.21,16.85-6.22s13.6,2,17.82,5.56,6.58,8.63,6.58,14.91a28,28,0,0,1-.46,5,.5.5,0,0,0,1,.18,29,29,0,0,0,.48-5.15,19.79,19.79,0,0,0-6.94-15.68c-4.44-3.73-10.79-5.79-18.46-5.79S110.46,17,106.55,21a20.31,20.31,0,0,0-5.85,14.4,21.07,21.07,0,0,0,3.36,11.46l.42-.27-.31-.39C101.62,48.23,100,52,100,56a13.13,13.13,0,0,0,4.09,9.71c2.89,2.72,7.45,4.54,14.05,4.56h.17c8.61,0,14.74-1.6,18.77-4.63s5.86-7.52,5.85-13a.5.5,0,1,0-1,0Z"/><path d="M144.81,48.51l5,4.05a.5.5,0,0,0,.63-.78l-5-4.05a.5.5,0,0,0-.63.78"/><path d="M147.62,47.5l-1,5.09a.5.5,0,0,0,1,.19l1-5.09a.5.5,0,0,0-1-.19"/><path d="M117.41,64.67c10.28,0,15.79-7.46,11.81-11.8-3.44-3.75-7.08,1.13-12.81,1.13s-7.41-4.78-10.77-1C101.61,57.5,107.13,64.67,117.41,64.67Z"/><circle class="cls-2" cx="112.15" cy="54.09" r="3.38"/><circle class="cls-2" cx="116.9" cy="54.55" r="3.38"/><circle class="cls-2" cx="122.08" cy="54.09" r="3.38"/><circle class="cls-2" cx="126.33" cy="53.15" r="3.38"/><path d="M117.41,64.67v.5a16.85,16.85,0,0,0,9.85-2.86c2.37-1.7,3.76-4,3.76-6.21a5.21,5.21,0,0,0-1.43-3.57A4.35,4.35,0,0,0,126.28,51a13.35,13.35,0,0,0-4.56,1.31,14.21,14.21,0,0,1-5.3,1.24,10.23,10.23,0,0,1-4.65-1.18c-.63-.3-1.21-.61-1.78-.86a4.53,4.53,0,0,0-1.77-.42,3.06,3.06,0,0,0-1.47.38,5.57,5.57,0,0,0-1.48,1.23,5.41,5.41,0,0,0-1.45,3.65c0,2.24,1.4,4.46,3.77,6.11a17.17,17.17,0,0,0,9.83,2.76v-1a16.18,16.18,0,0,1-9.25-2.58c-2.18-1.52-3.34-3.49-3.34-5.29a4.4,4.4,0,0,1,1.2-3,4.59,4.59,0,0,1,1.2-1,2.05,2.05,0,0,1,1-.26,3.57,3.57,0,0,1,1.38.35c1.55.65,3.58,2.12,6.82,2.12a15.16,15.16,0,0,0,5.66-1.31A12.68,12.68,0,0,1,126.28,52a3.33,3.33,0,0,1,2.58,1.25,4.2,4.2,0,0,1,1.17,2.9c0,1.81-1.16,3.83-3.35,5.39a15.86,15.86,0,0,1-9.26,2.67Z"/><path class="cls-2" d="M118.09,60.41a8.35,8.35,0,0,0-3-.53c-4,0-7.2,2.71-7.2,6.05s3.22,6.05,7.2,6.05,7.2-2.71,7.2-6.05c0,0,.21-2.7,3.85-3.57a6.45,6.45,0,0,0-10.61.36"/><path d="M118.27,59.95a8.85,8.85,0,0,0-3.13-.56,8.41,8.41,0,0,0-5.41,1.89,5.89,5.89,0,0,0,0,9.32,8.7,8.7,0,0,0,10.82,0,6.1,6.1,0,0,0,2.29-4.66h-.5l.5,0h0a3,3,0,0,1,.52-1.29,4.68,4.68,0,0,1,2.95-1.84.5.5,0,0,0,.29-.78,6.95,6.95,0,0,0-11.44.39A.5.5,0,1,0,116,63a5.95,5.95,0,0,1,9.78-.33l.41-.29-.12-.49a5.64,5.64,0,0,0-3.6,2.33,3.92,3.92,0,0,0-.64,1.69v0a5.1,5.1,0,0,1-1.93,3.9,7.7,7.7,0,0,1-9.54,0,4.9,4.9,0,0,1,0-7.79,7.42,7.42,0,0,1,4.77-1.66,7.85,7.85,0,0,1,2.78.5.5.5,0,0,0,.35-.94Z"/><path d="M120.16,46.3a10.44,10.44,0,0,1-1.83,4.29l0,.06A2,2,0,1,1,115,48.36a2.08,2.08,0,0,1,.35-.39,7.14,7.14,0,0,0,1.94-2.41l0-.1a1.51,1.51,0,0,1,2.86.85Z"/><path d="M141.91,47.2a.5.5,0,0,0,.32-.39,5.75,5.75,0,0,1,2.22-4,6,6,0,0,1,3.48-1,7,7,0,0,1,2.15.33l.15.06a8.63,8.63,0,0,1,2.39,2.08,12.36,12.36,0,0,0-.94-19.12l3.53-3.44a.5.5,0,0,0-.09-.79,5.91,5.91,0,0,0-2.83-.73,5.29,5.29,0,0,0-3.69,1.52c0-.33.06-.65.06-1A12.41,12.41,0,0,0,136.25,8.32h-30a12.35,12.35,0,0,0-8.71,3.61L92.3,8.45a.5.5,0,0,0-.78.38s0,.4,0,1.05c0,2,.23,6.46,2.41,9.56v.15l-4-1.84a.5.5,0,0,0-.71.46A18.76,18.76,0,0,0,90.36,24,10.77,10.77,0,0,0,93,28.14a7.83,7.83,0,0,0,4.49,2,12.34,12.34,0,0,0,6.27,16.27c.65,1,1.18-.47,1.18-.89a26.5,26.5,0,0,1,2.85-12.38h9.85l-2.06,2.93a.5.5,0,0,0,.47.78,24.7,24.7,0,0,0,9.68-3.71H132a12.29,12.29,0,0,0,9.6,14.08h0l.2,0v-.06Z"/><path d="M141.91,47.2l.18.47a1,1,0,0,0,.63-.78h0a5.25,5.25,0,0,1,2-3.65,5.47,5.47,0,0,1,3.19-.93v0h0v-.48l0,.48h0v-.48l0,.48h.05v0h0v0a6.49,6.49,0,0,1,2,.3l.16-.47-.18.47.15.06.18-.47-.25.43a8.13,8.13,0,0,1,2.25,2,.5.5,0,0,0,.73.06,12.86,12.86,0,0,0-1-19.89l-.3.4.35.36,3.53-3.44a1,1,0,0,0,.3-.71v-.11a1,1,0,0,0-.47-.74l0,0-.18.34.19-.34h0l-.18.34.19-.34-.27-.14a6.51,6.51,0,0,0-2.79-.65h0a5.8,5.8,0,0,0-4,1.65l.34.37.5,0c0-.32.06-.66.06-1A12.91,12.91,0,0,0,136.25,7.82h-30a12.85,12.85,0,0,0-9.07,3.75l.35.36.28-.42L92.58,8A1,1,0,0,0,91,8.79l.5,0L91,8.78v0c0,.1,0,.48,0,1.06h0c0,2,.22,6.57,2.5,9.84l.41-.29-.5,0v.15l.5,0,.21-.45-4-1.84a1,1,0,0,0-1.42.91v0l.39,0h-.39l.39,0h-.39a19.25,19.25,0,0,0,1.2,6,11.26,11.26,0,0,0,2.81,4.32,8.34,8.34,0,0,0,4.77,2.13l.06-.5-.46-.2a12.84,12.84,0,0,0,6.52,16.93l.21-.46-.42.27a1.46,1.46,0,0,0,.36.39.87.87,0,0,0,.51.17.91.91,0,0,0,.65-.3,2.07,2.07,0,0,0,.43-.73,2.19,2.19,0,0,0,.15-.7,26,26,0,0,1,2.79-12.15l-.44-.23v.5h8.89l-1.51,2.14a1,1,0,0,0,.82,1.58h.18l-.11-.46.08.47h0l-.11-.46.08.47h0a25.16,25.16,0,0,0,9.88-3.79l-.28-.41v.5H132v-.5l-.49-.08a12.79,12.79,0,0,0,10,14.64l.11-.49-.13.48h0l.2,0a.5.5,0,0,0,.6-.49v-.06h-.5l0,.5h0l.13,0-.18-.47,0-.5h0a.5.5,0,0,0-.45.5v.06h.5l.1-.49-.19,0h0a11.79,11.79,0,0,1-9.21-13.51.5.5,0,0,0-.49-.58h-6.27a.5.5,0,0,0-.28.09,22.41,22.41,0,0,1-6.33,2.92c-.92.27-1.7.44-2.25.55l-.65.12-.17,0H116l.12.49-.06-.5h0l2.06-2.93a.5.5,0,0,0-.41-.79h-9.85a.5.5,0,0,0-.44.27,27,27,0,0,0-2.91,12.61,1,1,0,0,1,0,.2,1.69,1.69,0,0,1-.19.45l-.08.1h0l.08.14v-.16l-.08,0,.08.14v0l.06-.17h-.06v.18l.06-.17,0,.08,0-.07h0l0,.08,0-.07a.47.47,0,0,1-.11-.13L104,46A11.91,11.91,0,0,1,97,35.1a11.79,11.79,0,0,1,1-4.76.5.5,0,0,0-.4-.7,7.33,7.33,0,0,1-4.21-1.87,10.28,10.28,0,0,1-2.56-3.94,17.82,17.82,0,0,1-1-3.88c-.07-.53-.11-1-.13-1.27,0-.15,0-.27,0-.36v-.15l-.42,0h.42v0l-.42,0h.42l4,1.84a.5.5,0,0,0,.71-.42v-.15a.5.5,0,0,0-.09-.32C92.25,16.23,92,11.85,92,9.88h0c0-.32,0-.57,0-.75V8.88h0v0h0l5.22,3.48a.5.5,0,0,0,.63-.06,11.85,11.85,0,0,1,8.36-3.46h30a11.91,11.91,0,0,1,11.91,11.91c0,.3,0,.61-.06.94a.5.5,0,0,0,.84.41,4.79,4.79,0,0,1,3.31-1.38h0a5.48,5.48,0,0,1,1.84.33,5.18,5.18,0,0,1,.54.23l.15.08,0,0,0,0,.23-.44-.26.43h0l-3.53,3.44a.5.5,0,0,0,0,.76,11.86,11.86,0,0,1,.9,18.35l.34.37L153,44a9.13,9.13,0,0,0-2.53-2.21l-.07,0-.15-.06h0a7.47,7.47,0,0,0-2.3-.35h0v.5l0-.5h0v0h0v0a6.46,6.46,0,0,0-3.77,1.12,6.25,6.25,0,0,0-2.42,4.3h0l.18.47,0-.5Z"/><path class="cls-2" d="M146.31,86.08a25.54,25.54,0,0,1-2.22,1.81l-.58.42-.42.29-.64.42a19.17,19.17,0,0,1-2.73,1.37,18.25,18.25,0,0,1-11.85.49q-.71-.22-1.4-.49c-.43-.17-1-.42-1.12-.5l-1.27-.67-2.52-1.39c-1.67-.94-3.33-1.92-5-2.95A8.14,8.14,0,0,1,122.43,70c1.9.36,3.78.78,5.65,1.23l2.79.7,1.39.37c.34.11.2,0,.21,0l0-.09a.77.77,0,0,0-.67-.43l-.21,0,0,0h0l.14-.1.58-.42a25.36,25.36,0,0,1,2.43-1.51,10.09,10.09,0,0,1,11.62,16.28Z"/><path d="M146.31,86.08l-.34-.37a25.06,25.06,0,0,1-2.17,1.77l.3.4-.29-.41-.58.41-.41.29-.64.42.28.42-.26-.43a18.67,18.67,0,0,1-2.66,1.34,17.33,17.33,0,0,1-6.42,1.21,18,18,0,0,1-5.11-.74h0q-.69-.21-1.37-.47l-.18.47.19-.46-.67-.28-.27-.12-.08,0h0l-.08.14.09-.13h0l-.08.14.09-.13,0,0-1.29-.69-2.52-1.39h0c-1.67-.94-3.32-1.91-5-2.94a7.65,7.65,0,0,1,5.49-14c1.89.36,3.76.77,5.63,1.22h0l2.79.7.12-.49-.13.48,1.39.37.13-.48-.15.48a1.2,1.2,0,0,0,.36.07.52.52,0,0,0,.27-.07l.19-.19.06-.25a.51.51,0,0,0,0-.21l0-.05h0l-.35.2.37-.17,0,0-.35.2.37-.17-.44.2H133a.46.46,0,0,0,0-.2l-.44.2h0l.43.25.07-.25h-.5l.43.25-.43-.25.23.44.2-.19-.43-.25.23.44.39-.2-.18-.5v0a1.26,1.26,0,0,0-1.12-.71h-.06l-.27.06-.07,0-.11.06.47.88h0l0,0,.18-.13h0l.58-.42-.29-.41.28.41a24.88,24.88,0,0,1,2.38-1.48,9.59,9.59,0,0,1,11,15.47l.34.36.34.36a10.59,10.59,0,0,0-12.2-17.08A25.85,25.85,0,0,0,132,70.9h0l-.59.42h0l-.14.1.29.41-.22-.45h0l.22.45.24.44,0,0-.24-.44.12.49.21,0-.12-.49v.5l.22.14.45-.22-.47.17,0,.09.47-.17-.23-.44-.2.2-.07.25a.49.49,0,0,0,.05.23l0,0,.14-.08-.14.08h0l.14-.08-.14.08.41-.23H132a.43.43,0,0,0,.06.23l.41-.23h0l-.43-.24-.06.24h.49l-.43-.24.43.24-.16-.46a.49.49,0,0,0-.27.23l.43.24-.16-.46.15.43v-.45l-.15,0,.15.43v-.14l0-.31h0v.32l0-.31v0h0v0l-.1,0h0L131,71.44l-2.79-.7h0c-1.87-.45-3.76-.87-5.67-1.23a8.64,8.64,0,0,0-6.21,15.81c1.65,1,3.32,2,5,3h0l2.52,1.39,1.27.67.23-.44-.29.41.23.13c.25.12.66.29,1,.42h0q.71.27,1.44.5h0a19,19,0,0,0,5.39.78,18.33,18.33,0,0,0,6.79-1.28,19.66,19.66,0,0,0,2.8-1.41h0l.65-.43h0l.43-.3h0l.58-.42h0a26,26,0,0,0,2.26-1.84Z"/><path d="M85.85,79.37l1.59,4.08a1,1,0,0,0,1.08.63l19.79-3A3.29,3.29,0,0,0,111,78.81l3-9.41c1.57-.88,2.55-2.61,2.09-3.79l-1.59-4.08"/><path d="M85.39,79.55,87,83.63a1.5,1.5,0,0,0,1.39,1l.23,0,19.79-3a3.79,3.79,0,0,0,3-2.6l3-9.41-.48-.15.25.44a5.37,5.37,0,0,0,1.76-1.59,3.6,3.6,0,0,0,.7-2,2.23,2.23,0,0,0-.15-.81l-1.59-4.08a.5.5,0,1,0-.93.36l1.59,4.08a1.23,1.23,0,0,1,.08.45,2.63,2.63,0,0,1-.53,1.43A4.37,4.37,0,0,1,113.7,69a.5.5,0,0,0-.23.28l-3,9.41a2.79,2.79,0,0,1-2.24,1.92l-19.79,3h-.08a.5.5,0,0,1-.46-.32l-1.59-4.08a.5.5,0,0,0-.93.36Z"/><path class="cls-2" d="M106.72,77,86.93,80a1,1,0,0,1-1.08-.63,1,1,0,0,1,0-.66l3.3-10.38c-2-2.76,1.36-5.36,6.46-5.37a36.81,36.81,0,0,0,11.7-1.73c4.62-1.56,6.68-.93,7.16.3s-.53,2.91-2.09,3.79l-3,9.41A3.29,3.29,0,0,1,106.72,77Z"/><path d="M106.72,77l-.08-.49-19.79,3h-.08a.5.5,0,0,1-.46-.32l0-.18,0-.15,3.3-10.38a.5.5,0,0,0-.07-.45A2.25,2.25,0,0,1,89,66.7a1.88,1.88,0,0,1,.43-1.15,5,5,0,0,1,2.28-1.48,11.64,11.64,0,0,1,3.86-.61,37.3,37.3,0,0,0,11.86-1.76,14.31,14.31,0,0,1,4.38-.89,3.47,3.47,0,0,1,1.55.29,1.16,1.16,0,0,1,.6.62,1.23,1.23,0,0,1,.08.45,2.63,2.63,0,0,1-.53,1.43,4.37,4.37,0,0,1-1.43,1.29.5.5,0,0,0-.23.28l-3,9.41a2.79,2.79,0,0,1-2.24,1.92l.08.49.07.49a3.79,3.79,0,0,0,3-2.6l3-9.41-.48-.15.25.44a5.37,5.37,0,0,0,1.76-1.59,3.6,3.6,0,0,0,.7-2,2.23,2.23,0,0,0-.15-.81,2.17,2.17,0,0,0-1.08-1.14,4.43,4.43,0,0,0-2-.4,15.25,15.25,0,0,0-4.7.95,36.31,36.31,0,0,1-11.54,1.7,11.43,11.43,0,0,0-5.29,1.15,5,5,0,0,0-1.63,1.32A2.88,2.88,0,0,0,88,66.7a3.25,3.25,0,0,0,.7,1.92l.4-.3-.48-.15-3.3,10.38a1.5,1.5,0,0,0,1.42,1.95l.23,0,19.79-3Z"/><path d="M90.35,73.41c.19-2.33,2.06-3,2.25-5.34a4.07,4.07,0,0,1,1.07-2.94c.73-.6,1.78-.61,2.65-1,1.21-.53,2-1.71,2.91-2.63a5.37,5.37,0,0,1,3.29-1.62,3.3,3.3,0,0,1,3.14,1.63,5.29,5.29,0,0,0,.6,1.18c.51.58,1.4.6,2.09,1,1.37.72,1.61,2.75.79,4.06a5.77,5.77,0,0,1-3.89,2.3,2.67,2.67,0,0,0-1.12.38.8.8,0,0,0-.26,1,2.76,2.76,0,0,0,.5.4,1.3,1.3,0,0,1-.25,1.93,2.78,2.78,0,0,1-2.16.28,12.79,12.79,0,0,0-2.2-.42c-1.5,0-2.81.93-4.14,1.64C91.53,77.43,90.91,74.49,90.35,73.41Z"/><ellipse class="cls-2" cx="102.43" cy="64.07" rx="1.18" ry="1.08"/><ellipse class="cls-2" cx="104.35" cy="67.15" rx="0.59" ry="0.54"/><path class="cls-2" d="M104,73.22a.49.49,0,0,1,.16.39,1,1,0,0,1-.38.75,1.73,1.73,0,0,1-1,.28,3.9,3.9,0,0,1-.74-.08,12.85,12.85,0,0,0-2.29-.43H99.7a5.34,5.34,0,0,0-2.32.61c-.71.34-1.36.75-2,1.09a5.08,5.08,0,0,1-2.29.72,1.75,1.75,0,0,1-.91-.23,2.39,2.39,0,0,1-.84-1c-.22-.4-.37-.83-.55-1.18l-.44.23.5,0a4.73,4.73,0,0,1,1-2.43A5.71,5.71,0,0,0,93.1,69.1a7.69,7.69,0,0,1,.24-1.52A2.1,2.1,0,0,1,94,66.5,2.84,2.84,0,0,1,95.07,66a10,10,0,0,0,1.44-.44,5.43,5.43,0,0,0,1.71-1.28c.48-.5.9-1,1.35-1.45a4.88,4.88,0,0,1,3-1.48h.19a2.77,2.77,0,0,1,2.47,1.36,5.33,5.33,0,0,0,.67,1.29,2.63,2.63,0,0,0,1.2.71,7.1,7.1,0,0,1,1,.37,1.73,1.73,0,0,1,.73.77,2.55,2.55,0,0,1,.26,1.15,2.76,2.76,0,0,1-.4,1.44,5.29,5.29,0,0,1-3.56,2.07,3.09,3.09,0,0,0-1.32.47l.6.8a2.29,2.29,0,0,1,.91-.29A6.25,6.25,0,0,0,109.57,69a3.75,3.75,0,0,0,.55-2,3.54,3.54,0,0,0-.37-1.6,2.73,2.73,0,0,0-1.16-1.2,7.57,7.57,0,0,0-1.18-.43,1.68,1.68,0,0,1-.76-.42,5.45,5.45,0,0,1-.53-1.08,3.76,3.76,0,0,0-3.36-1.91h-.26a5.86,5.86,0,0,0-3.61,1.76c-.5.49-.93,1-1.37,1.47a4.47,4.47,0,0,1-1.39,1.06,9.46,9.46,0,0,1-1.3.39,3.79,3.79,0,0,0-1.46.67,3.09,3.09,0,0,0-1,1.57A8.61,8.61,0,0,0,92.1,69a4.74,4.74,0,0,1-1,2.43,5.71,5.71,0,0,0-1.21,2.91v.14l.07.13a10.79,10.79,0,0,0,.86,1.68,3,3,0,0,0,.91.86,2.76,2.76,0,0,0,1.42.37,6,6,0,0,0,2.75-.83c.68-.36,1.32-.76,2-1.07a4.37,4.37,0,0,1,1.89-.51h.05a12.8,12.8,0,0,1,2.11.41,4.88,4.88,0,0,0,.94.1,2.72,2.72,0,0,0,1.61-.47,2,2,0,0,0,.79-1.56,1.49,1.49,0,0,0-.51-1.15l-.65.76Z"/><path d="M90.35,73.41l.5,0a4.73,4.73,0,0,1,1-2.43,5.71,5.71,0,0,0,1.21-2.91,7.69,7.69,0,0,1,.24-1.52A2.1,2.1,0,0,1,94,65.51,2.84,2.84,0,0,1,95.07,65a10,10,0,0,0,1.44-.44,5.43,5.43,0,0,0,1.71-1.28c.48-.5.9-1,1.35-1.45a4.88,4.88,0,0,1,3-1.48h.19a2.77,2.77,0,0,1,2.47,1.36,5.33,5.33,0,0,0,.67,1.29,2.63,2.63,0,0,0,1.2.71,7.1,7.1,0,0,1,1,.37,1.73,1.73,0,0,1,.73.77,2.55,2.55,0,0,1,.26,1.15,2.76,2.76,0,0,1-.4,1.44,5.29,5.29,0,0,1-3.56,2.07,3.09,3.09,0,0,0-1.32.47,1.41,1.41,0,0,0-.57,1.1,1.07,1.07,0,0,0,.2.64,1.41,1.41,0,0,0,.35.33l.22.15a.49.49,0,0,1,.16.39,1,1,0,0,1-.38.75,1.73,1.73,0,0,1-1,.28,3.9,3.9,0,0,1-.74-.08,12.85,12.85,0,0,0-2.29-.43H99.7a5.34,5.34,0,0,0-2.32.61c-.71.34-1.36.75-2,1.09a5.08,5.08,0,0,1-2.29.72,1.75,1.75,0,0,1-.91-.23,2.39,2.39,0,0,1-.84-1c-.22-.4-.37-.83-.55-1.18l-.44.23.5,0-.5,0-.44.23a10.79,10.79,0,0,0,.86,1.68,3,3,0,0,0,.91.86,2.76,2.76,0,0,0,1.42.37,6,6,0,0,0,2.75-.83c.68-.36,1.32-.76,2-1.07a4.37,4.37,0,0,1,1.89-.51h.05a12.8,12.8,0,0,1,2.11.41,4.88,4.88,0,0,0,.94.1,2.72,2.72,0,0,0,1.61-.47,2,2,0,0,0,.79-1.56,1.49,1.49,0,0,0-.51-1.15,3.33,3.33,0,0,0-.3-.22l-.11-.09v0a.44.44,0,0,1,.17-.3,2.29,2.29,0,0,1,.91-.29A6.25,6.25,0,0,0,109.57,68a3.75,3.75,0,0,0,.55-2,3.54,3.54,0,0,0-.37-1.6,2.73,2.73,0,0,0-1.16-1.2,7.57,7.57,0,0,0-1.18-.43,1.68,1.68,0,0,1-.76-.42,5.45,5.45,0,0,1-.53-1.08,3.76,3.76,0,0,0-3.36-1.91h-.26a5.86,5.86,0,0,0-3.61,1.76c-.5.49-.93,1-1.37,1.47a4.47,4.47,0,0,1-1.39,1.06,9.46,9.46,0,0,1-1.3.39,3.79,3.79,0,0,0-1.46.67,3.09,3.09,0,0,0-1,1.57A8.61,8.61,0,0,0,92.1,68a4.74,4.74,0,0,1-1,2.43,5.71,5.71,0,0,0-1.21,2.91.5.5,0,0,0,.05.27Z"/><path class="cls-2" d="M113.12,70.44a4.93,4.93,0,0,1,5.72-4c2.68.48,2.08,2.73,5.08,4.15"/><path d="M113.61,70.53A4.42,4.42,0,0,1,118.75,67a2.64,2.64,0,0,1,1.27.55,9,9,0,0,1,1.28,1.6,6.15,6.15,0,0,0,2.4,2,.5.5,0,0,0,.43-.9,5.68,5.68,0,0,1-2.46-2.26,5.56,5.56,0,0,0-1-1.17,3.65,3.65,0,0,0-1.73-.76,5.42,5.42,0,0,0-6.3,4.38.5.5,0,0,0,1,.18Z"/><path class="cls-2" d="M115.84,84.31a10.17,10.17,0,0,1-4.17,0c-5-1.09-8.32-5.65-7.34-10.18s5.86-7.31,10.9-6.22a10,10,0,0,1,5,2.75"/><path d="M115.74,83.82a9.47,9.47,0,0,1-1.88.19,9.85,9.85,0,0,1-2.09-.23c-4.23-.92-7.13-4.39-7.12-8.07a7.1,7.1,0,0,1,.16-1.51c.78-3.6,4.22-6.06,8.21-6.06a9.86,9.86,0,0,1,2.09.23.5.5,0,0,0,.21-1,10.85,10.85,0,0,0-2.31-.25c-4.39,0-8.29,2.72-9.19,6.85a8.09,8.09,0,0,0-.19,1.72c0,4.22,3.27,8,7.91,9a10.85,10.85,0,0,0,2.31.25,10.48,10.48,0,0,0,2.07-.21.5.5,0,0,0-.2-1Z"/><path class="cls-2" d="M117.16,68.46c-6-2.76-9.47-1.44-10.33-.26a2.58,2.58,0,0,0-.5,2.33"/><path d="M117.37,68a16.14,16.14,0,0,0-6.63-1.68c-2.23,0-3.68.72-4.32,1.58a3.35,3.35,0,0,0-.69,2,2.4,2.4,0,0,0,.13.82.5.5,0,0,0,.93-.36l-.14.05.14,0h0l-.14.05.14,0a1.53,1.53,0,0,1-.06-.46,2.34,2.34,0,0,1,.5-1.4c.33-.47,1.5-1.17,3.51-1.17A15.16,15.16,0,0,1,117,68.91a.5.5,0,0,0,.42-.91Z"/><path class="cls-2" d="M109.22,70.57c-2.87-.88-4.22-.21-4.9,1s-.37,2.44,1.24,3"/><path d="M109.36,70.09a8.45,8.45,0,0,0-2.45-.43,3.72,3.72,0,0,0-1.88.45,3.1,3.1,0,0,0-1.14,1.16,2.93,2.93,0,0,0-.44,1.46,2.07,2.07,0,0,0,.52,1.38,3.46,3.46,0,0,0,1.42.92.5.5,0,0,0,.35-.94,2.48,2.48,0,0,1-1-.64,1.06,1.06,0,0,1-.28-.72,2,2,0,0,1,.31-1,2.1,2.1,0,0,1,.78-.79,2.73,2.73,0,0,1,1.38-.32,7.48,7.48,0,0,1,2.16.38.5.5,0,0,0,.29-1Z"/><path class="cls-2" d="M106.92,73.92c-4.58-2.64-6.06,5-2.5,5.11"/><path d="M107.17,73.49a4.15,4.15,0,0,0-2.06-.62,2.91,2.91,0,0,0-2.38,1.25,4.31,4.31,0,0,0-.79,2.5,3.3,3.3,0,0,0,.58,2,2.34,2.34,0,0,0,1.89,1,.5.5,0,0,0,0-1,1.33,1.33,0,0,1-1.11-.55,2.32,2.32,0,0,1-.39-1.36,3.32,3.32,0,0,1,.6-1.91,1.9,1.9,0,0,1,1.57-.84,3.16,3.16,0,0,1,1.56.49.5.5,0,0,0,.5-.87Z"/><path class="cls-2" d="M106.5,78.11c-2.33-.17-3.58.42-3.58,2a4.64,4.64,0,0,0,2.75,4c1.58.67,2.83.83,3.83-.42"/><path d="M106.54,77.61l-.76,0a4.25,4.25,0,0,0-2.41.57,2.24,2.24,0,0,0-.95,2,4.76,4.76,0,0,0,.87,2.63,5.09,5.09,0,0,0,2.19,1.84,5.83,5.83,0,0,0,2.2.55A2.73,2.73,0,0,0,109.89,84a.5.5,0,0,0-.78-.62,1.72,1.72,0,0,1-1.43.74,4.91,4.91,0,0,1-1.81-.47,4.1,4.1,0,0,1-1.75-1.48,3.77,3.77,0,0,1-.69-2.06,1.23,1.23,0,0,1,.51-1.13,3.33,3.33,0,0,1,1.85-.4l.69,0a.5.5,0,1,0,.07-1Z"/><path class="cls-2" d="M111,84.11a6.13,6.13,0,0,1-3.83-2.17"/><path d="M111,83.61a4.77,4.77,0,0,1-2.49-1,6.79,6.79,0,0,1-.74-.66l-.19-.21,0-.05h0a.5.5,0,1,0-.78.62,7.14,7.14,0,0,0,1.16,1.11,5.75,5.75,0,0,0,3,1.25.5.5,0,0,0,.07-1Z"/><path class="cls-2" d="M84.7,71.59c-1.61-.61-2-1.73-1.24-3s2.15-2.16,4.9-1c1.57.69,2.23,1.44,2.07,2.27S89.06,72.65,84.7,71.59Z"/><path d="M84.7,71.59l.18-.47a2.48,2.48,0,0,1-1-.64,1.06,1.06,0,0,1-.28-.72,2,2,0,0,1,.31-1,2.56,2.56,0,0,1,.82-.88,2.48,2.48,0,0,1,1.37-.38,5.21,5.21,0,0,1,2.07.51,4.9,4.9,0,0,1,1.43.87,1,1,0,0,1,.37.7l0,.15h0a1.78,1.78,0,0,1-.64,1,3.52,3.52,0,0,1-2.29.66,9.32,9.32,0,0,1-2.18-.29l-.12.49.18-.47-.18.47-.12.49a10.3,10.3,0,0,0,2.42.32,4.51,4.51,0,0,0,2.92-.88,2.77,2.77,0,0,0,1-1.56h0a1.77,1.77,0,0,0,0-.34,2,2,0,0,0-.67-1.41,5.83,5.83,0,0,0-1.72-1.07,6.19,6.19,0,0,0-2.47-.59,3.48,3.48,0,0,0-1.91.53A3.56,3.56,0,0,0,83,68.29a2.93,2.93,0,0,0-.44,1.47,2.07,2.07,0,0,0,.53,1.38,3.46,3.46,0,0,0,1.42.92l.06,0Z"/><path class="cls-2" d="M83.55,76C80,76,81.17,66.78,88.42,71c0,0,1.75.75,1.58,2.25a3.06,3.06,0,0,1-3.5,2.25"/><path d="M83.56,75.55A1.26,1.26,0,0,1,82.51,75a2.62,2.62,0,0,1-.4-1.48,3.42,3.42,0,0,1,.71-2.11,2.63,2.63,0,0,1,2.15-1,6.49,6.49,0,0,1,3.2,1.05l.06,0h0A3,3,0,0,1,89,72a1.51,1.51,0,0,1,.56,1.1v.15a1.44,1.44,0,0,1-.17.46,2.74,2.74,0,0,1-.83.93,2.52,2.52,0,0,1-1.47.45,3.14,3.14,0,0,1-.46,0,.5.5,0,1,0-.15,1,4.14,4.14,0,0,0,.6,0,3.54,3.54,0,0,0,2.52-1,3.71,3.71,0,0,0,.66-.87,2.36,2.36,0,0,0,.29-.83v-.26a2.54,2.54,0,0,0-1-1.92,4,4,0,0,0-.93-.59l-.2.46.25-.43A7.46,7.46,0,0,0,85,69.41,3.64,3.64,0,0,0,82,70.75a4.41,4.41,0,0,0-.94,2.74,3.6,3.6,0,0,0,.58,2,2.27,2.27,0,0,0,1.85,1,.5.5,0,0,0,0-1Z"/><path class="cls-2" d="M87.8,80.42c-.87,1.09-2,.95-3.35.36a4.06,4.06,0,0,1-2.4-3.49c0-1.38,1.09-1.89,3.13-1.75C85.18,75.54,91,75.78,87.8,80.42Z"/><path d="M87.8,80.42l-.39-.31a1.43,1.43,0,0,1-1.2.62,4.24,4.24,0,0,1-1.56-.41,3.52,3.52,0,0,1-1.5-1.27,3.23,3.23,0,0,1-.6-1.77,1,1,0,0,1,.42-.93A2.85,2.85,0,0,1,84.55,76l.6,0h0a6.11,6.11,0,0,1,1.75.39,2.59,2.59,0,0,1,.94.61,1.35,1.35,0,0,1,.37,1,4,4,0,0,1-.86,2.14l.41.28-.39-.31.39.31.41.28a5,5,0,0,0,1-2.71,2.37,2.37,0,0,0-.7-1.71,4.42,4.42,0,0,0-2.12-1.06A7.16,7.16,0,0,0,85.2,75l0,.5,0-.5-.67,0a3.77,3.77,0,0,0-2.14.51,2,2,0,0,0-.85,1.76,4.22,4.22,0,0,0,.77,2.33,4.52,4.52,0,0,0,1.94,1.63,5.16,5.16,0,0,0,1.95.49,2.45,2.45,0,0,0,2-1l0,0Z"/><ellipse cx="181.99" cy="106.16" rx="31.64" ry="4.87"/><path d="M213.63,106.16h-.5a.4.4,0,0,1-.08.22,2.58,2.58,0,0,1-1,.73,18.54,18.54,0,0,1-4.24,1.35c-5.65,1.25-15.14,2.08-25.86,2.08a154.47,154.47,0,0,1-22.3-1.42,37.43,37.43,0,0,1-6.69-1.53,6.85,6.85,0,0,1-1.71-.84,1.54,1.54,0,0,1-.36-.36.35.35,0,0,1,0-.45,2.58,2.58,0,0,1,1-.73,18.54,18.54,0,0,1,4.24-1.35c5.65-1.25,15.14-2.08,25.86-2.08a154.49,154.49,0,0,1,22.3,1.42,37.43,37.43,0,0,1,6.69,1.53,6.85,6.85,0,0,1,1.71.84,1.54,1.54,0,0,1,.36.36.4.4,0,0,1,.08.22h1a1.4,1.4,0,0,0-.25-.77,3.47,3.47,0,0,0-1.33-1.06,19.4,19.4,0,0,0-4.49-1.44c-5.78-1.28-15.3-2.1-26.08-2.1a155.42,155.42,0,0,0-22.45,1.43,38.31,38.31,0,0,0-6.88,1.57,7.76,7.76,0,0,0-2,1,2.51,2.51,0,0,0-.6.61,1.34,1.34,0,0,0,0,1.55,3.47,3.47,0,0,0,1.33,1.06,19.4,19.4,0,0,0,4.49,1.44c5.78,1.28,15.3,2.1,26.08,2.1a155.4,155.4,0,0,0,22.45-1.43,38.31,38.31,0,0,0,6.88-1.57,7.76,7.76,0,0,0,2-1,2.51,2.51,0,0,0,.6-.61,1.4,1.4,0,0,0,.25-.77Z"/><path class="cls-2" d="M160.39,105.73c0,2.24,11.78,4.05,26.32,4.05S213,108,213,105.73V61.32H160.39Z"/><path d="M162.39,103.26a2.62,2.62,0,0,0,1.93,2.54c3.54.94,11.07,2,22.39,2s18.85-1,22.39-2a2.62,2.62,0,0,0,1.93-2.54V63.32H162.39Z"/><path class="cls-2" d="M186.71,101.18c-10.49,0-17.38-1-18.67-1.82V73c6.19.59,12.46.89,18.67.89s12.48-.3,18.67-.89V99.36C204.09,100.16,197.2,101.18,186.71,101.18Z"/><path d="M204.38,74.05V98.69c-1.92.62-8,1.49-17.67,1.49S171,99.31,169,98.69V74.05c5.86.53,11.79.8,17.67.8s11.8-.27,17.67-.8m2-2.2a194.49,194.49,0,0,1-19.67,1,194.49,194.49,0,0,1-19.67-1v27.8c0,1.4,8.8,2.54,19.67,2.54s19.67-1.14,19.67-2.54Z"/><path d="M186.21,87.27v1a.5.5,0,0,0,1,0v-1a.5.5,0,1,0-1,0"/><path d="M186.21,102.11v2a.5.5,0,0,0,1,0v-2a.5.5,0,1,0-1,0Zm0-4v2a.5.5,0,0,0,1,0v-2a.5.5,0,0,0-1,0Zm0-4v2a.5.5,0,0,0,1,0v-2a.5.5,0,0,0-1,0Zm0-4v2a.5.5,0,0,0,1,0v-2a.5.5,0,0,0-1,0Z"/><path d="M186.21,106.06v1a.5.5,0,0,0,1,0v-1a.5.5,0,1,0-1,0"/><path d="M186.29,87.54l.54.84a.5.5,0,0,0,.84-.54l-.54-.84a.5.5,0,0,0-.84.54"/><path d="M194.49,100.4l1.09,1.72a.5.5,0,1,0,.84-.54l-1.09-1.72a.5.5,0,1,0-.84.54ZM192.3,97l1.09,1.72a.5.5,0,1,0,.84-.54l-1.09-1.72a.5.5,0,1,0-.84.54Zm-2.19-3.43,1.09,1.72a.5.5,0,1,0,.84-.54L191,93a.5.5,0,1,0-.84.54Zm-2.19-3.43L189,91.82a.5.5,0,1,0,.84-.54l-1.09-1.72a.5.5,0,1,0-.84.54Z"/><path d="M196.68,103.83l.54.84a.5.5,0,1,0,.84-.54l-.54-.84a.5.5,0,1,0-.84.54"/><path d="M186.48,87.72l.89.45a.5.5,0,1,0,.45-.89l-.89-.45a.5.5,0,1,0-.45.89"/><path d="M201.07,95.16l2,1a.5.5,0,1,0,.45-.89l-2-1a.5.5,0,1,0-.45.89Zm-3.91-2,2,1a.5.5,0,1,0,.45-.89l-2-1a.5.5,0,1,0-.45.89Zm-3.91-2,2,1a.5.5,0,1,0,.45-.89l-2-1a.5.5,0,1,0-.45.89Zm-3.91-2,2,1a.5.5,0,1,0,.45-.89l-2-1a.5.5,0,1,0-.45.89Z"/><path d="M205,97.16l.89.45a.5.5,0,1,0,.45-.89l-.89-.45a.5.5,0,1,0-.45.89"/><path d="M186.71,87.77h1a.5.5,0,0,0,0-1h-1a.5.5,0,0,0,0,1"/><path d="M203.15,87.77h2.21a.5.5,0,0,0,0-1h-2.21a.5.5,0,0,0,0,1Zm-4.41,0h2.21a.5.5,0,0,0,0-1h-2.21a.5.5,0,0,0,0,1Zm-4.41,0h2.21a.5.5,0,0,0,0-1h-2.21a.5.5,0,0,0,0,1Zm-4.41,0h2.21a.5.5,0,0,0,0-1h-2.21a.5.5,0,0,0,0,1Z"/><path d="M207.57,87.77h1a.5.5,0,0,0,0-1h-1a.5.5,0,0,0,0,1"/><path d="M186.94,87.72l.89-.45a.5.5,0,1,0-.45-.89l-.89.45a.5.5,0,1,0,.45.89"/><path d="M201.52,80.28l2-1a.5.5,0,1,0-.45-.89l-2,1a.5.5,0,1,0,.45.89Zm-3.91,2,2-1a.5.5,0,1,0-.45-.89l-2,1a.5.5,0,1,0,.45.89Zm-3.91,2,2-1a.5.5,0,1,0-.45-.89l-2,1a.5.5,0,1,0,.45.89Zm-3.91,2,2-1a.5.5,0,1,0-.45-.89l-2,1a.5.5,0,1,0,.45.89Z"/><path d="M205.44,78.28l.89-.45a.5.5,0,1,0-.45-.89l-.89.45a.5.5,0,1,0,.45.89"/><path d="M187.13,87.54l.54-.84a.5.5,0,0,0-.84-.54l-.54.84a.5.5,0,0,0,.84.54"/><path d="M195.33,74.69,196.43,73a.5.5,0,1,0-.84-.54l-1.09,1.72a.5.5,0,1,0,.84.54Zm-2.19,3.43,1.09-1.72a.5.5,0,1,0-.84-.54l-1.09,1.72a.5.5,0,1,0,.84.54ZM191,81.55,192,79.84a.5.5,0,1,0-.84-.54L190.11,81a.5.5,0,1,0,.84.54ZM188.76,85l1.09-1.72a.5.5,0,1,0-.84-.54l-1.09,1.72a.5.5,0,1,0,.84.54Z"/><path d="M197.52,71.25l.54-.84a.5.5,0,1,0-.84-.54l-.54.84a.5.5,0,1,0,.84.54"/><path d="M187.21,87.27v-1a.5.5,0,1,0-1,0v1a.5.5,0,0,0,1,0"/><path d="M187.21,72.44v-2a.5.5,0,0,0-1,0v2a.5.5,0,1,0,1,0Zm0,4v-2a.5.5,0,0,0-1,0v2a.5.5,0,1,0,1,0Zm0,4v-2a.5.5,0,0,0-1,0v2a.5.5,0,0,0,1,0Zm0,4v-2a.5.5,0,0,0-1,0v2a.5.5,0,0,0,1,0Z"/><path d="M187.21,68.49v-1a.5.5,0,0,0-1,0v1a.5.5,0,0,0,1,0"/><path d="M187.13,87l-.54-.84a.5.5,0,1,0-.84.54l.54.84a.5.5,0,1,0,.84-.54"/><path d="M178.93,74.15l-1.09-1.72A.5.5,0,1,0,177,73l1.09,1.72a.5.5,0,1,0,.84-.54Zm2.19,3.43L180,75.87a.5.5,0,1,0-.84.54l1.09,1.72a.5.5,0,1,0,.84-.54ZM183.31,81l-1.09-1.72a.5.5,0,1,0-.84.54l1.09,1.72a.5.5,0,1,0,.84-.54Zm2.19,3.43-1.09-1.72a.5.5,0,1,0-.84.54L184.66,85a.5.5,0,1,0,.84-.54Z"/><path d="M176.74,70.72l-.54-.84a.5.5,0,1,0-.84.54l.54.84a.5.5,0,1,0,.84-.54"/><path d="M186.94,86.83l-.89-.45a.5.5,0,0,0-.45.89l.89.45a.5.5,0,0,0,.45-.89"/><path d="M172.35,79.39l-2-1a.5.5,0,1,0-.45.89l2,1a.5.5,0,1,0,.45-.89Zm3.91,2-2-1a.5.5,0,1,0-.45.89l2,1a.5.5,0,1,0,.45-.89Zm3.91,2-2-1a.5.5,0,1,0-.45.89l2,1a.5.5,0,1,0,.45-.89Zm3.91,2-2-1a.5.5,0,1,0-.45.89l2,1a.5.5,0,1,0,.45-.89Z"/><path d="M168.44,77.39l-.89-.45a.5.5,0,1,0-.45.89l.89.45a.5.5,0,1,0,.45-.89"/><path d="M186.71,86.77h-1a.5.5,0,0,0,0,1h1a.5.5,0,0,0,0-1"/><path d="M170.27,86.77h-2.21a.5.5,0,0,0,0,1h2.21a.5.5,0,0,0,0-1Zm4.41,0h-2.21a.5.5,0,0,0,0,1h2.21a.5.5,0,0,0,0-1Zm4.41,0h-2.21a.5.5,0,0,0,0,1h2.21a.5.5,0,0,0,0-1Zm4.41,0H181.3a.5.5,0,0,0,0,1h2.21a.5.5,0,0,0,0-1Z"/><path d="M165.85,86.77h-1a.5.5,0,0,0,0,1h1a.5.5,0,0,0,0-1"/><path d="M186.48,86.83l-.89.45a.5.5,0,1,0,.45.89l.89-.45a.5.5,0,1,0-.45-.89"/><path d="M171.9,94.27l-2,1a.5.5,0,1,0,.45.89l2-1a.5.5,0,1,0-.45-.89Zm3.91-2-2,1a.5.5,0,1,0,.45.89l2-1a.5.5,0,1,0-.45-.89Zm3.91-2-2,1a.5.5,0,1,0,.45.89l2-1a.5.5,0,1,0-.45-.89Zm3.91-2-2,1a.5.5,0,1,0,.45.89l2-1a.5.5,0,1,0-.45-.89Z"/><path d="M168,96.27l-.89.45a.5.5,0,1,0,.45.89l.89-.45a.5.5,0,1,0-.45-.89"/><path d="M186.29,87l-.54.84a.5.5,0,1,0,.84.54l.54-.84a.5.5,0,1,0-.84-.54"/><path d="M178.09,99.86,177,101.58a.5.5,0,1,0,.84.54l1.09-1.72a.5.5,0,1,0-.84-.54Zm2.19-3.43-1.09,1.72a.5.5,0,1,0,.84.54L181.12,97a.5.5,0,1,0-.84-.54ZM182.47,93l-1.09,1.72a.5.5,0,1,0,.84.54l1.09-1.72a.5.5,0,1,0-.84-.54Zm2.19-3.43-1.09,1.72a.5.5,0,1,0,.84.54l1.09-1.72a.5.5,0,1,0-.84-.54Z"/><path d="M175.9,103.3l-.54.84a.5.5,0,1,0,.84.54l.54-.84a.5.5,0,1,0-.84-.54"/><ellipse class="cls-2" cx="186.79" cy="87.28" rx="11.36" ry="9.61"/><path class="cls-2" d="M205.38,73V99.36c-1.29.79-8.17,1.82-18.67,1.82s-17.37-1-18.67-1.82V73c6.19.59,12.46.89,18.67.89s12.48-.3,18.67-.89m1-1.1a194.49,194.49,0,0,1-19.67,1,194.49,194.49,0,0,1-19.67-1v27.8c0,1.4,8.8,2.54,19.67,2.54s19.67-1.14,19.67-2.54Z"/><path d="M160.39,105.73h-.5a1.25,1.25,0,0,0,.22.69,3,3,0,0,0,1.14.91,16.21,16.21,0,0,0,3.75,1.2c4.82,1.06,12.74,1.75,21.71,1.75a129.32,129.32,0,0,0,18.68-1.19,31.94,31.94,0,0,0,5.73-1.31,6.53,6.53,0,0,0,1.66-.83,2.17,2.17,0,0,0,.52-.53,1.25,1.25,0,0,0,.22-.69V60.82H159.89v44.91h1V61.82h51.63v43.91l-.05.14a2.08,2.08,0,0,1-.77.57,15.35,15.35,0,0,1-3.51,1.12c-4.69,1-12.58,1.73-21.49,1.73a128.39,128.39,0,0,1-18.53-1.18,31.06,31.06,0,0,1-5.54-1.26,5.62,5.62,0,0,1-1.4-.69,1.2,1.2,0,0,1-.28-.28l-.05-.14Z"/><path class="cls-2" d="M158,63.12c0,2.44,12.83,4.42,28.67,4.42s28.67-2,28.67-4.42v-8H158Z"/><path d="M172.8,66c-9.14-.79-13.25-2.18-13.76-2.93V56.1h13.39c.06,2.34.16,4.71.25,7Q172.75,64.54,172.8,66Z"/><path class="cls-2" d="M171.46,57.1c.06,2,.15,4.06.23,6l.07,1.74C164.24,64.16,161,63.1,160,62.56V57.1h11.42m1.95-2H158v8c0,1.73,6.43,3.22,15.8,3.95C173.7,63.08,173.5,59.09,173.41,55.1Z"/><path d="M187.8,66.53c0-2.06.13-4.14.23-6.16.07-1.43.13-2.85.18-4.28h9.57c.06,3.2.19,6.4.36,10.07C194.86,66.39,191.4,66.51,187.8,66.53Z"/><path class="cls-2" d="M196.8,57.1c.06,2.6.16,5.23.29,8.13-2.64.16-5.41.26-8.27.29,0-1.7.13-3.42.2-5.09,0-1.1.1-2.21.14-3.34h7.63m2-2H187.23c-.11,4.15-.41,8.29-.45,12.44,4.44,0,8.65-.16,12.4-.44C199,63.1,198.82,59.1,198.76,55.1Z"/><path d="M201.67,65.88c-.14-3.15-.28-6.46-.34-9.78H207v9.13C205.38,65.48,203.6,65.7,201.67,65.88Z"/><path class="cls-2" d="M206,57.1v7.27c-1,.15-2.17.29-3.36.41-.11-2.5-.21-5.09-.27-7.68H206m2-2h-7.67c.06,4,.23,7.92.41,11.87,2.73-.24,5.18-.54,7.26-.89Z"/><path d="M210.53,56.1h3.85V63c-.12.14-.8.78-3.85,1.51Z"/><path class="cls-2" d="M213.38,57.1v5.45a9.11,9.11,0,0,1-1.85.71V57.1h1.85m2-2h-5.85V65.79c3.67-.74,5.85-1.67,5.85-2.67Z"/><path d="M158,63.12h-.5a1.32,1.32,0,0,0,.23.73,3.19,3.19,0,0,0,1.23,1,17.62,17.62,0,0,0,4.08,1.31c5.24,1.16,13.87,1.9,23.64,1.9a140.84,140.84,0,0,0,20.35-1.3,34.75,34.75,0,0,0,6.24-1.43,7.08,7.08,0,0,0,1.8-.9,2.32,2.32,0,0,0,.55-.56,1.32,1.32,0,0,0,.23-.73v-8a.5.5,0,0,0-.5-.5H158a.5.5,0,0,0-.5.5v8h1V55.6h56.33v7.52l-.07.18a2.3,2.3,0,0,1-.85.64,16.76,16.76,0,0,1-3.83,1.22C205,66.29,196.42,67,186.71,67a139.91,139.91,0,0,1-20.19-1.29,33.87,33.87,0,0,1-6-1.38,6.16,6.16,0,0,1-1.54-.76,1.35,1.35,0,0,1-.32-.31l-.07-.18Z"/><ellipse class="cls-2" cx="186.71" cy="55.1" rx="28.67" ry="4.42"/><ellipse cx="186.71" cy="55.1" rx="13.29" ry="2.05"/><path d="M200,55.1h-.34l-.15-.05v.05h.16l-.15-.05.06,0-.05,0v0l.06,0-.05,0a.87.87,0,0,1-.29.2,7.49,7.49,0,0,1-1.71.54,55.68,55.68,0,0,1-10.81.87,64.62,64.62,0,0,1-9.32-.59,15.47,15.47,0,0,1-2.75-.63,2.62,2.62,0,0,1-.64-.31l-.08-.08-.05,0,.06,0h0l-.05,0,.06,0-.15.05h.16V55l-.15.05h0l.15.05V55.1h-.16l.15.05-.06,0,.05,0v0l-.06,0,.05,0a.87.87,0,0,1,.29-.2,7.49,7.49,0,0,1,1.71-.54,55.67,55.67,0,0,1,10.81-.87,64.59,64.59,0,0,1,9.32.59,15.46,15.46,0,0,1,2.75.63,2.62,2.62,0,0,1,.64.31l.08.08.05,0-.06,0h0l.05,0-.06,0,.15-.05h-.16v.05l.15-.05h.84a.88.88,0,0,0-.15-.48,1.73,1.73,0,0,0-.67-.54,8.4,8.4,0,0,0-2-.63,56.57,56.57,0,0,0-11-.89,65.54,65.54,0,0,0-9.47.61,16.35,16.35,0,0,0-2.94.68,3.53,3.53,0,0,0-.9.45,1.34,1.34,0,0,0-.32.33.85.85,0,0,0,0,1,1.73,1.73,0,0,0,.67.54,8.4,8.4,0,0,0,2,.63,56.59,56.59,0,0,0,11,.89,65.55,65.55,0,0,0,9.47-.61,16.35,16.35,0,0,0,2.94-.68,3.53,3.53,0,0,0,.9-.45,1.34,1.34,0,0,0,.32-.33.88.88,0,0,0,.15-.48Z"/><path d="M215.38,55.1h-.5l-.07.18a2.3,2.3,0,0,1-.85.64,16.76,16.76,0,0,1-3.83,1.22C205,58.27,196.42,59,186.71,59a139.91,139.91,0,0,1-20.19-1.29,33.87,33.87,0,0,1-6-1.38,6.16,6.16,0,0,1-1.54-.76,1.35,1.35,0,0,1-.32-.31l-.07-.18.07-.18a2.3,2.3,0,0,1,.85-.64,16.76,16.76,0,0,1,3.83-1.22c5.12-1.13,13.71-1.88,23.42-1.88a139.89,139.89,0,0,1,20.19,1.29,33.86,33.86,0,0,1,6,1.38,6.16,6.16,0,0,1,1.54.76,1.35,1.35,0,0,1,.32.31l.07.18h1a1.32,1.32,0,0,0-.23-.73,3.19,3.19,0,0,0-1.23-1,17.62,17.62,0,0,0-4.08-1.31c-5.24-1.16-13.87-1.9-23.63-1.9a140.84,140.84,0,0,0-20.35,1.3,34.75,34.75,0,0,0-6.24,1.43,7.07,7.07,0,0,0-1.8.9,2.32,2.32,0,0,0-.55.56,1.26,1.26,0,0,0,0,1.45,3.19,3.19,0,0,0,1.23,1,17.62,17.62,0,0,0,4.08,1.31c5.24,1.16,13.87,1.9,23.64,1.9a140.84,140.84,0,0,0,20.35-1.3,34.75,34.75,0,0,0,6.24-1.43,7.08,7.08,0,0,0,1.8-.9,2.32,2.32,0,0,0,.55-.56,1.32,1.32,0,0,0,.23-.73Z"/><path d="M180.64,89.84c-.75,0-3.35-2.47-3.35-4.34,0-2.29,2.34-2.54,3.35-2.54s3.35.25,3.35,2.54C184,87.37,181.4,89.84,180.64,89.84Z"/><path class="cls-2" d="M180.64,83.45c1.06,0,2.85.27,2.85,2,0,1.52-2.11,3.64-2.85,3.84-.74-.2-2.85-2.32-2.85-3.84,0-1.77,1.78-2,2.85-2m0-1c-.9,0-3.85.22-3.85,3,0,2.15,2.79,4.84,3.85,4.84s3.85-2.69,3.85-4.84C184.49,82.67,181.55,82.45,180.64,82.45Z"/><path d="M182.71,83a3.33,3.33,0,0,1-1.72,1.3,2.09,2.09,0,0,1-.21-1.83,3.33,3.33,0,0,1,1.73-1.3A2.09,2.09,0,0,1,182.71,83Z"/><path d="M180.51,82.45a2.09,2.09,0,0,1-.21,1.83,3.33,3.33,0,0,1-1.73-1.3,2.09,2.09,0,0,1,.21-1.83A3.33,3.33,0,0,1,180.51,82.45Z"/><path d="M181.67,82.27a2.52,2.52,0,0,1-1,1.67,1.87,1.87,0,0,1,0-3.34A2.52,2.52,0,0,1,181.67,82.27Z"/><path d="M192.78,89.84c-.75,0-3.35-2.47-3.35-4.34,0-2.29,2.34-2.54,3.35-2.54s3.35.25,3.35,2.54C196.13,87.37,193.53,89.84,192.78,89.84Z"/><path class="cls-2" d="M192.78,83.45c1.06,0,2.85.27,2.85,2,0,1.52-2.11,3.64-2.85,3.84-.74-.2-2.85-2.32-2.85-3.84,0-1.77,1.79-2,2.85-2m0-1c-.9,0-3.85.22-3.85,3,0,2.15,2.79,4.84,3.85,4.84s3.85-2.69,3.85-4.84C196.63,82.67,193.68,82.45,192.78,82.45Z"/><path d="M194.85,83a3.33,3.33,0,0,1-1.73,1.3,2.09,2.09,0,0,1-.21-1.83,3.33,3.33,0,0,1,1.73-1.3A2.09,2.09,0,0,1,194.85,83Z"/><path d="M192.65,82.45a2.09,2.09,0,0,1-.21,1.83,3.33,3.33,0,0,1-1.72-1.3,2.09,2.09,0,0,1,.21-1.83A3.33,3.33,0,0,1,192.65,82.45Z"/><path d="M193.81,82.27a2.52,2.52,0,0,1-1,1.67,1.87,1.87,0,0,1,0-3.34A2.52,2.52,0,0,1,193.81,82.27Z"/><path d="M186.71,91.21c-1.3,0-4.47-3-4.47-5.53s2.31-3.61,4.47-3.61,4.47.95,4.47,3.61S188,91.21,186.71,91.21Z"/><path class="cls-2" d="M186.71,82.57c.93,0,4,.22,4,3.11,0,2.36-3,5-4,5s-4-2.67-4-5c0-2.88,3-3.11,4-3.11m0-1c-2.75,0-5,1.36-5,4.11s3.31,6,5,6,5-3.29,5-6S189.46,81.57,186.71,81.57Z"/><path class="cls-2" d="M184.85,86v.5a.5.5,0,0,0,1,0V86a.5.5,0,1,0-1,0"/><path class="cls-2" d="M187.57,86v.5a.5.5,0,0,0,1,0V86a.5.5,0,0,0-1,0"/><path class="cls-2" d="M189.3,82.76a4.17,4.17,0,0,1-2.16,1.63,2.61,2.61,0,0,1-.26-2.29A4.17,4.17,0,0,1,189,80.47,2.61,2.61,0,0,1,189.3,82.76Z"/><path d="M189.3,82.76l-.45-.22a2.64,2.64,0,0,1-1.07,1,5.28,5.28,0,0,1-.57.28l-.17.07,0,0h0l.16.47.42-.27h0a2.58,2.58,0,0,1-.36-1.21,1.35,1.35,0,0,1,.13-.6,2.64,2.64,0,0,1,1.07-1A5.27,5.27,0,0,1,189,81l.17-.07,0,0h0l-.16-.47-.42.27h0a2.59,2.59,0,0,1,.36,1.21,1.36,1.36,0,0,1-.13.6l.45.22.45.22a2.36,2.36,0,0,0,.23-1,3.52,3.52,0,0,0-.52-1.75.5.5,0,0,0-.58-.2,5.92,5.92,0,0,0-1,.45,3.58,3.58,0,0,0-1.48,1.44,2.35,2.35,0,0,0-.23,1,3.52,3.52,0,0,0,.53,1.75.5.5,0,0,0,.58.2,5.92,5.92,0,0,0,1-.45A3.58,3.58,0,0,0,189.75,83Z"/><path class="cls-2" d="M186.54,82.1a2.61,2.61,0,0,1-.26,2.29,4.17,4.17,0,0,1-2.16-1.63,2.61,2.61,0,0,1,.26-2.3A4.17,4.17,0,0,1,186.54,82.1Z"/><path d="M186.54,82.1l-.45.22a1.35,1.35,0,0,1,.13.6,2.3,2.3,0,0,1-.18.85,2.8,2.8,0,0,1-.13.27l0,.07v0h0l.42.27.16-.47h0a5.11,5.11,0,0,1-.86-.41,2.54,2.54,0,0,1-1-1,1.35,1.35,0,0,1-.13-.6,2.31,2.31,0,0,1,.18-.85,2.81,2.81,0,0,1,.13-.27l0-.07v0h0l-.42-.27-.16.47h0a5.11,5.11,0,0,1,.86.41,2.54,2.54,0,0,1,1,1l.45-.22.45-.22a3.57,3.57,0,0,0-1.48-1.44,5.93,5.93,0,0,0-1-.45.5.5,0,0,0-.58.2,3.52,3.52,0,0,0-.52,1.75,2.36,2.36,0,0,0,.23,1,3.58,3.58,0,0,0,1.48,1.44,5.92,5.92,0,0,0,1,.45.5.5,0,0,0,.58-.2,3.52,3.52,0,0,0,.52-1.75,2.35,2.35,0,0,0-.23-1Z"/><path class="cls-2" d="M188,81.87A3.15,3.15,0,0,1,186.71,84a3.15,3.15,0,0,1-1.29-2.09,3.15,3.15,0,0,1,1.29-2.09A3.15,3.15,0,0,1,188,81.87Z"/><path d="M188,81.87h-.5A1.9,1.9,0,0,1,187,83a3.87,3.87,0,0,1-.39.4l-.13.11,0,0h0l.29.4.29-.4h0a3.77,3.77,0,0,1-.6-.59,1.83,1.83,0,0,1-.47-1.09,1.9,1.9,0,0,1,.53-1.15,3.87,3.87,0,0,1,.39-.4l.13-.11,0,0h0l-.29-.4-.29.4h0a3.77,3.77,0,0,1,.6.59,1.83,1.83,0,0,1,.47,1.09h1a2.86,2.86,0,0,0-.76-1.8,4.63,4.63,0,0,0-.73-.69.5.5,0,0,0-.59,0,4.64,4.64,0,0,0-.73.69,2.5,2.5,0,0,0,0,3.6,4.64,4.64,0,0,0,.73.69.5.5,0,0,0,.59,0,4.63,4.63,0,0,0,.73-.69,2.86,2.86,0,0,0,.76-1.8Z"/><path class="cls-2" d="M206,106.72c8.66,0-8.64,2.29-19.29,2.29s-28-2.29-19.29-2.29,8.64-2.29,19.29-2.29S197.37,106.72,206,106.72Z"/><path d="M192.25,95a77.06,77.06,0,0,1-11.12,0,1.62,1.62,0,0,1-1.53-1.75,1.65,1.65,0,0,1,1.77-1.48,73.66,73.66,0,0,0,10.65,0,1.65,1.65,0,0,1,1.77,1.48A1.62,1.62,0,0,1,192.25,95Z"/><polygon class="cls-2" points="200.61 43.6 201.28 45.67 203.37 46.3 201.6 47.58 201.65 49.76 199.89 48.47 197.83 49.2 198.51 47.12 197.19 45.39 199.37 45.39 200.61 43.6"/><path d="M200.61,43.6l-.48.15.67,2.08a.5.5,0,0,0,.33.33l1.12.33-.95.69a.5.5,0,0,0-.21.42l0,1.17-.94-.69a.5.5,0,0,0-.46-.07l-1.1.39.36-1.11a.5.5,0,0,0-.08-.46l-.71-.93h1.17a.5.5,0,0,0,.41-.22L201,43.88l-.41-.28-.48.15.48-.15-.41-.28-1.09,1.58h-1.92a.5.5,0,0,0-.4.8L198,47.22l-.6,1.82a.5.5,0,0,0,.64.63l1.81-.64,1.55,1.13a.5.5,0,0,0,.79-.42l0-1.92,1.55-1.13a.5.5,0,0,0-.15-.88l-1.84-.55-.59-1.83a.5.5,0,0,0-.89-.13Z"/><polygon class="cls-2" points="188.49 48.31 188.12 50.17 189.44 51.52 187.56 51.75 186.68 53.42 185.89 51.7 184.02 51.38 185.41 50.1 185.14 48.22 186.79 49.15 188.49 48.31"/><path d="M188.49,48.31l-.49-.1-.37,1.86a.5.5,0,0,0,.13.45l.61.63-.87.1a.5.5,0,0,0-.38.26l-.41.78-.37-.8a.5.5,0,0,0-.37-.28l-.87-.15.65-.6a.5.5,0,0,0,.16-.44l-.13-.87.77.43a.5.5,0,0,0,.47,0l1.7-.84-.22-.45-.49-.1.49.1-.22-.45-1.46.72-1.42-.8a.5.5,0,0,0-.74.51l.23,1.61L183.68,51a.5.5,0,0,0,.25.86l1.61.28.68,1.48a.5.5,0,0,0,.9,0l.76-1.44L189.5,52a.5.5,0,0,0,.3-.85L188.67,50l.32-1.6a.5.5,0,0,0-.71-.55Z"/><polygon class="cls-2" points="169.48 41.01 170.31 42.69 172.16 42.96 170.82 44.27 171.14 46.11 169.48 45.24 167.83 46.11 168.14 44.27 166.8 42.96 168.65 42.69 169.48 41.01"/><path d="M169.48,41l-.45.22.83,1.68a.5.5,0,0,0,.38.27l.85.12-.61.6a.5.5,0,0,0-.14.44l.15.85-.76-.4a.5.5,0,0,0-.47,0l-.76.4.15-.85a.5.5,0,0,0-.14-.44l-.61-.6.85-.12a.5.5,0,0,0,.38-.27l.83-1.68-.45-.22-.45.22.45-.22-.45-.22-.71,1.44-1.59.23a.5.5,0,0,0-.28.85l1.15,1.12L167.33,46a.5.5,0,0,0,.73.53l1.42-.75,1.42.75a.5.5,0,0,0,.73-.53l-.27-1.59,1.15-1.12a.5.5,0,0,0-.28-.85l-1.59-.23-.71-1.44a.5.5,0,0,0-.9,0Z"/><polygon points="206.56 38.51 207.02 39.44 208.05 39.59 207.31 40.31 207.48 41.34 206.56 40.85 205.64 41.34 205.82 40.31 205.07 39.59 206.1 39.44 206.56 38.51"/><path d="M206.56,38.51l-.45.22.46.93a.5.5,0,0,0,.38.27h0l0,0a.5.5,0,0,0-.14.44v0h0a.5.5,0,0,0-.47,0h0v0a.5.5,0,0,0-.14-.44l0,0h0a.5.5,0,0,0,.38-.27l.46-.93-.45-.22-.45.22.45-.22-.45-.22-.34.7-.77.11a.5.5,0,0,0-.28.85l.56.54-.13.76a.5.5,0,0,0,.73.53l.69-.36.69.36a.5.5,0,0,0,.73-.53l-.13-.76.56-.54a.5.5,0,0,0-.28-.85l-.77-.11-.34-.7a.5.5,0,0,0-.9,0Z"/><polygon points="180.15 47.03 180.44 47.62 181.08 47.71 180.61 48.17 180.73 48.81 180.15 48.51 179.57 48.81 179.68 48.17 179.21 47.71 179.86 47.62 180.15 47.03"/><path d="M180.15,47l-.45.22.29.59a.5.5,0,0,0,.38.27l.65.09.07-.49-.35-.36-.47.46a.5.5,0,0,0-.14.44l.11.65.49-.09.23-.44-.58-.3a.5.5,0,0,0-.46,0l-.58.3.23.44.49.08.11-.65a.5.5,0,0,0-.14-.44l-.47-.46-.35.36.07.49.65-.09a.5.5,0,0,0,.38-.27l.29-.59-.45-.22-.45.22.45-.22-.45-.22-.17.35-.39.06a.5.5,0,0,0-.28.85l.28.27-.07.39a.5.5,0,0,0,.73.53l.35-.18.35.18a.5.5,0,0,0,.72-.53l-.07-.39.28-.27a.5.5,0,0,0-.28-.85l-.39-.06-.17-.35a.5.5,0,0,0-.9,0Z"/><polygon points="193.52 46.7 193.55 47.27 194.03 47.58 193.5 47.78 193.36 48.33 193 47.89 192.44 47.93 192.75 47.45 192.53 46.92 193.09 47.07 193.52 46.7"/><path d="M193.52,46.7l-.5,0,0,.57a.5.5,0,0,0,.24.4l.49.3.26-.42-.18-.47-.54.2a.5.5,0,0,0-.31.35l-.14.56.49.12.39-.31-.36-.45a.5.5,0,0,0-.43-.19l-.57,0,0,.5.42.27.31-.48a.5.5,0,0,0,0-.46l-.22-.53-.46.19-.13.48.55.15a.5.5,0,0,0,.45-.1l.44-.37-.32-.38-.5,0,.5,0-.32-.38-.24.2-.3-.08a.5.5,0,0,0-.59.67l.12.29-.17.26a.5.5,0,0,0,.45.77l.31,0,.19.24a.5.5,0,0,0,.88-.19l.07-.3.29-.11a.5.5,0,0,0,.09-.89L194,47v-.31a.5.5,0,0,0-.82-.36Z"/><path d="M178.07,26.84a7.32,7.32,0,0,0-3.87,1.77,4.13,4.13,0,0,0-1.31,3,4.67,4.67,0,0,0,1.5,3.34,5.35,5.35,0,0,0,3.71,1.46h.18a1,1,0,0,0-.06-2h-.12a3.35,3.35,0,0,1-2.33-.91,2.68,2.68,0,0,1-.88-1.89,2.12,2.12,0,0,1,.7-1.56,5.37,5.37,0,0,1,2.83-1.24,1,1,0,1,0-.35-2Z"/><path class="cls-2" d="M175.52,34.81c0-1.59.7-2.87,2.29-2.87a2.87,2.87,0,0,1,0,5.74C176.22,37.69,175.52,36.4,175.52,34.81Z"/><path d="M175.52,34.81h.5a3,3,0,0,1,.45-1.74,1.52,1.52,0,0,1,1.33-.63,2.37,2.37,0,0,1,0,4.74,1.52,1.52,0,0,1-1.33-.63,3,3,0,0,1-.45-1.74h-1a4,4,0,0,0,.64,2.32,2.53,2.53,0,0,0,2.14,1,3.37,3.37,0,0,0,0-6.74,2.53,2.53,0,0,0-2.14,1,4,4,0,0,0-.64,2.32Z"/><path class="cls-2" d="M183.16,34.81c0,1.83-.81,3.31-2.63,3.31a3.31,3.31,0,1,1,0-6.61C182.35,31.51,183.16,33,183.16,34.81Z"/><path d="M183.16,34.81h-.5a3.53,3.53,0,0,1-.54,2,1.83,1.83,0,0,1-1.59.76,2.81,2.81,0,1,1,0-5.61,1.83,1.83,0,0,1,1.59.76,3.53,3.53,0,0,1,.54,2h1a4.5,4.5,0,0,0-.73-2.63A2.84,2.84,0,0,0,180.53,31a3.81,3.81,0,1,0,0,7.61,2.84,2.84,0,0,0,2.41-1.18,4.5,4.5,0,0,0,.73-2.63Z"/><path d="M195,28.81A5.37,5.37,0,0,1,197.85,30a2.12,2.12,0,0,1,.7,1.56,2.68,2.68,0,0,1-.88,1.89,3.35,3.35,0,0,1-2.33.91h-.12a1,1,0,1,0-.06,2h.18A5.35,5.35,0,0,0,199.05,35a4.67,4.67,0,0,0,1.5-3.34,4.13,4.13,0,0,0-1.31-3,7.32,7.32,0,0,0-3.87-1.77,1,1,0,1,0-.35,2Z"/><path class="cls-2" d="M197.93,34.81c0-1.59-.7-2.87-2.29-2.87a2.87,2.87,0,0,0,0,5.74C197.23,37.69,197.93,36.4,197.93,34.81Z"/><path d="M197.93,34.81h.5a4,4,0,0,0-.64-2.32,2.53,2.53,0,0,0-2.14-1,3.37,3.37,0,1,0,0,6.74,2.53,2.53,0,0,0,2.14-1,4,4,0,0,0,.64-2.32h-1a3,3,0,0,1-.45,1.74,1.52,1.52,0,0,1-1.33.63,2.37,2.37,0,1,1,0-4.74,1.52,1.52,0,0,1,1.33.63,3,3,0,0,1,.45,1.74Z"/><path class="cls-2" d="M190.29,34.81c0,1.83.81,3.31,2.63,3.31a3.31,3.31,0,1,0,0-6.61C191.09,31.51,190.29,33,190.29,34.81Z"/><path d="M190.29,34.81h-.5a4.5,4.5,0,0,0,.72,2.63,2.84,2.84,0,0,0,2.41,1.18,3.81,3.81,0,0,0,0-7.61,2.84,2.84,0,0,0-2.41,1.18,4.5,4.5,0,0,0-.72,2.63h1a3.53,3.53,0,0,1,.54-2,1.83,1.83,0,0,1,1.59-.76,2.81,2.81,0,0,1,0,5.61,1.83,1.83,0,0,1-1.59-.76,3.53,3.53,0,0,1-.54-2Z"/><path d="M182.84,33.55l-3.55,8.17a2,2,0,0,0,3.67,1.6l3.55-8.17a2,2,0,0,0-3.67-1.6"/><path class="cls-2" d="M175.14,38.65c1.67-2.57,4.47-2,5.69,1,3.26,1.51,2.45,3.08,1.57,4.17"/><path d="M175.56,38.92a2.66,2.66,0,0,1,2.17-1.42,2.25,2.25,0,0,1,1.43.56,4.35,4.35,0,0,1,1.21,1.75.5.5,0,0,0,.25.27,5.07,5.07,0,0,1,1.68,1.12,1.28,1.28,0,0,1,.38.87,2.45,2.45,0,0,1-.67,1.41.5.5,0,1,0,.78.63,3.37,3.37,0,0,0,.89-2,2.29,2.29,0,0,0-.63-1.53,6,6,0,0,0-2-1.36l-.21.45.46-.19a5.34,5.34,0,0,0-1.51-2.15,3.25,3.25,0,0,0-2.06-.78,3.65,3.65,0,0,0-3,1.88.5.5,0,1,0,.84.54Z"/><path class="cls-2" d="M181.07,41.53c1,.82,1.46,2,1,2.54s-1.68.39-2.7-.43-.86-1.35-.39-1.93S180,40.71,181.07,41.53Z"/><path d="M181.07,41.53l-.31.39a3.24,3.24,0,0,1,.75.85,1.51,1.51,0,0,1,.24.73.4.4,0,0,1-.08.26.54.54,0,0,1-.44.15,2.69,2.69,0,0,1-1.55-.66,2.25,2.25,0,0,1-.48-.49.45.45,0,0,1-.09-.25.87.87,0,0,1,.26-.49,1.71,1.71,0,0,1,.36-.35.52.52,0,0,1,.3-.1,1.24,1.24,0,0,1,.73.35l.31-.39.31-.39a2.2,2.2,0,0,0-1.36-.57,1.53,1.53,0,0,0-.86.27,2.67,2.67,0,0,0-.58.55,1.8,1.8,0,0,0-.48,1.12,1.45,1.45,0,0,0,.25.79,3.21,3.21,0,0,0,.69.73,3.64,3.64,0,0,0,2.18.88,1.52,1.52,0,0,0,1.22-.52,1.4,1.4,0,0,0,.3-.89,2.48,2.48,0,0,0-.38-1.24,4.23,4.23,0,0,0-1-1.12Z"/><path class="cls-2" d="M178.51,39.19c1.27,1,1.05,1.78.47,2.51s-1.32,1.15-2.59.12-1.83-2.45-1.24-3.17S177.24,38.17,178.51,39.19Z"/><path d="M178.51,39.19l-.31.39a2.68,2.68,0,0,1,.61.64.78.78,0,0,1,.14.42,1.27,1.27,0,0,1-.36.75,2,2,0,0,1-.43.42.72.72,0,0,1-.41.13,1.78,1.78,0,0,1-1-.5,4.17,4.17,0,0,1-1-1.09,2,2,0,0,1-.32-1,.62.62,0,0,1,.12-.41.79.79,0,0,1,.65-.23,3.47,3.47,0,0,1,2,.85l.31-.39.31-.39a4.42,4.42,0,0,0-2.64-1.07,1.78,1.78,0,0,0-1.43.61,1.62,1.62,0,0,0-.35,1,3,3,0,0,0,.46,1.48,5.16,5.16,0,0,0,1.2,1.36,2.73,2.73,0,0,0,1.68.72,1.72,1.72,0,0,0,1-.29,2.93,2.93,0,0,0,.67-.63,2.22,2.22,0,0,0,.58-1.38,1.78,1.78,0,0,0-.29-.94,3.65,3.65,0,0,0-.83-.9Z"/><path d="M187,35.14l3.55,8.17a2,2,0,0,0,3.67-1.6l-3.55-8.17a2,2,0,0,0-3.67,1.6"/><path class="cls-2" d="M198.36,38.65c-1.67-2.57-4.47-2-5.69,1-3.26,1.51-2.45,3.08-1.57,4.17"/><path d="M198.78,38.38a3.65,3.65,0,0,0-3-1.88,3.25,3.25,0,0,0-2.06.78,5.34,5.34,0,0,0-1.51,2.15l.46.19-.21-.45a6,6,0,0,0-2,1.36,2.29,2.29,0,0,0-.63,1.53,3.37,3.37,0,0,0,.89,2,.5.5,0,1,0,.78-.63,2.45,2.45,0,0,1-.67-1.41,1.28,1.28,0,0,1,.38-.87,5.08,5.08,0,0,1,1.68-1.12.5.5,0,0,0,.25-.27,4.35,4.35,0,0,1,1.21-1.75,2.25,2.25,0,0,1,1.43-.56,2.66,2.66,0,0,1,2.17,1.42.5.5,0,1,0,.84-.54Z"/><path class="cls-2" d="M192.43,41.53c-1,.82-1.46,2-1,2.54s1.68.39,2.7-.43.86-1.35.39-1.93S193.45,40.71,192.43,41.53Z"/><path d="M192.43,41.53l-.31-.39a4.23,4.23,0,0,0-1,1.12,2.48,2.48,0,0,0-.38,1.24,1.4,1.4,0,0,0,.3.89,1.52,1.52,0,0,0,1.22.52,3.64,3.64,0,0,0,2.18-.88,3.21,3.21,0,0,0,.69-.73,1.45,1.45,0,0,0,.25-.79,1.8,1.8,0,0,0-.48-1.12,2.67,2.67,0,0,0-.58-.55,1.53,1.53,0,0,0-.86-.27,2.2,2.2,0,0,0-1.36.57l.31.39.31.39a1.24,1.24,0,0,1,.73-.35.53.53,0,0,1,.3.1,1.71,1.71,0,0,1,.35.35.88.88,0,0,1,.26.49.46.46,0,0,1-.09.25,2.25,2.25,0,0,1-.48.49,2.69,2.69,0,0,1-1.55.66.54.54,0,0,1-.44-.15.4.4,0,0,1-.08-.26,1.51,1.51,0,0,1,.24-.73,3.24,3.24,0,0,1,.75-.85Z"/><path class="cls-2" d="M195,39.19c-1.27,1-1.05,1.78-.47,2.51s1.32,1.15,2.59.12,1.83-2.45,1.24-3.17S196.26,38.17,195,39.19Z"/><path d="M195,39.19l-.31-.39a3.65,3.65,0,0,0-.83.9,1.78,1.78,0,0,0-.29.94,2.21,2.21,0,0,0,.58,1.38,2.93,2.93,0,0,0,.67.63,1.72,1.72,0,0,0,1,.29,2.73,2.73,0,0,0,1.68-.72,5.16,5.16,0,0,0,1.2-1.36,3,3,0,0,0,.46-1.48,1.62,1.62,0,0,0-.34-1,1.78,1.78,0,0,0-1.43-.61,4.42,4.42,0,0,0-2.64,1.07l.31.39.31.39a3.46,3.46,0,0,1,2-.85A.79.79,0,0,1,198,39a.62.62,0,0,1,.12.41,2,2,0,0,1-.32,1,4.17,4.17,0,0,1-1,1.09,1.78,1.78,0,0,1-1,.5.72.72,0,0,1-.41-.13,2,2,0,0,1-.43-.42,1.26,1.26,0,0,1-.36-.75.78.78,0,0,1,.14-.42,2.69,2.69,0,0,1,.61-.64Z"/><path class="cls-2" d="M186.71,34.91c-3.35,0-10.13-6.82-10.13-12.4,0-6.11,5.23-8.29,10.13-8.29s10.13,2.18,10.13,8.29C196.84,28.09,190.06,34.91,186.71,34.91Z"/><path d="M186.71,14.72c4.66,0,9.63,2,9.63,7.79,0,5.55-6.84,11.9-9.63,11.9s-9.63-6.35-9.63-11.9c0-5.74,5-7.79,9.63-7.79m0-1c-5.87,0-10.63,2.92-10.63,8.79s7.07,12.9,10.63,12.9,10.63-7,10.63-12.9S192.58,13.72,186.71,13.72Z"/><path d="M189.2,33.28a.43.43,0,0,0-.47-.33c-1.43.11-3.42-1.07-4.49.41a.51.51,0,0,0,0,.7c1.23,1.17,3.63.77,5,.05A.46.46,0,0,0,189.2,33.28Z"/><path class="cls-2" d="M192.25,14.27c-1.12,2.32-4.62,3.49-4.62,3.49s-1.69-2.59-.57-4.91,4.62-3.49,4.62-3.49S193.37,12,192.25,14.27Z"/><path d="M192.25,14.27l-.45-.22a6.17,6.17,0,0,1-2.53,2.4,11.83,11.83,0,0,1-1.27.63l-.39.16-.1,0h0l.16.47.42-.27h0a6.05,6.05,0,0,1-.86-2.89,3.46,3.46,0,0,1,.33-1.52,6.17,6.17,0,0,1,2.53-2.4,11.83,11.83,0,0,1,1.27-.63l.39-.16.1,0h0l-.16-.47-.42.27h0a6.06,6.06,0,0,1,.86,2.89,3.47,3.47,0,0,1-.33,1.52l.45.22.45.22a4.47,4.47,0,0,0,.43-2,7,7,0,0,0-1-3.44.5.5,0,0,0-.58-.2,12.14,12.14,0,0,0-2,.91,7.11,7.11,0,0,0-2.93,2.83,4.46,4.46,0,0,0-.43,2,7,7,0,0,0,1,3.44.5.5,0,0,0,.58.2,12.14,12.14,0,0,0,2-.91,7.11,7.11,0,0,0,2.93-2.83Z"/><path class="cls-2" d="M186.35,12.85c1.12,2.32-.57,4.91-.57,4.91s-3.5-1.17-4.62-3.49.57-4.91.57-4.91S185.24,10.53,186.35,12.85Z"/><path d="M186.35,12.85l-.45.22a3.47,3.47,0,0,1,.33,1.52,5.49,5.49,0,0,1-.44,2,6.55,6.55,0,0,1-.3.64l-.1.17,0,0h0l.42.27.16-.47h0a11.46,11.46,0,0,1-2-.93,6,6,0,0,1-2.34-2.29,3.46,3.46,0,0,1-.33-1.52,5.49,5.49,0,0,1,.44-2,6.56,6.56,0,0,1,.3-.64l.1-.17,0,0h0l-.42-.27-.16.47h0a11.46,11.46,0,0,1,2,.93,6,6,0,0,1,2.34,2.29l.45-.22.45-.22a7.11,7.11,0,0,0-2.93-2.83,12.14,12.14,0,0,0-2-.91.5.5,0,0,0-.58.2,7,7,0,0,0-1,3.44,4.47,4.47,0,0,0,.43,2,7.11,7.11,0,0,0,2.93,2.83,12.14,12.14,0,0,0,2,.91.5.5,0,0,0,.58-.2,7,7,0,0,0,1-3.44,4.47,4.47,0,0,0-.43-2Z"/><path class="cls-2" d="M189.47,12.83c0,2.72-2.76,4.93-2.76,4.93S184,15.55,184,12.83s2.76-4.93,2.76-4.93S189.47,10.11,189.47,12.83Z"/><path d="M189.47,12.83H189A5.42,5.42,0,0,1,187.69,16a9.4,9.4,0,0,1-.9,1l-.29.27-.08.07,0,0,.31.39.31-.39,0,0a9.08,9.08,0,0,1-1.39-1.5,5.27,5.27,0,0,1-1.15-3,5.42,5.42,0,0,1,1.27-3.18,9.4,9.4,0,0,1,.9-1l.29-.27.08-.07,0,0-.31-.39-.31.39,0,0a9.08,9.08,0,0,1,1.39,1.5,5.27,5.27,0,0,1,1.15,3h1A6.38,6.38,0,0,0,188.49,9,9.79,9.79,0,0,0,187,7.51a.5.5,0,0,0-.62,0A9.79,9.79,0,0,0,184.94,9a6.38,6.38,0,0,0-1.48,3.79,6.38,6.38,0,0,0,1.48,3.79,9.79,9.79,0,0,0,1.46,1.53.5.5,0,0,0,.62,0,9.79,9.79,0,0,0,1.46-1.53A6.38,6.38,0,0,0,190,12.83Z"/><path class="cls-2" d="M189.73,16.57l-.15,0a6.34,6.34,0,0,0-2.85-.62,6.1,6.1,0,0,0-3,.74c-.77.24-1.46.74-1.31,1.62.22,1.31,2.37,1.62,3.38,1.68a6.53,6.53,0,0,0,4.5-1.26A1.22,1.22,0,0,0,189.73,16.57Z"/><path d="M183.5,17.4a5,5,0,0,1,3.23-1,5.2,5.2,0,0,1,3.14.89.5.5,0,0,0,.63-.78,6.14,6.14,0,0,0-3.77-1.11,6,6,0,0,0-3.9,1.22.5.5,0,1,0,.67.74Z"/><polygon class="cls-2" points="192.63 33.85 186.67 32.35 180.7 33.85 180.7 29.17 186.67 30.66 192.63 29.17 192.63 33.85"/><path d="M192.63,33.85l.12-.49-6-1.49h-.24l-5.34,1.34V29.81l5.34,1.34h.24l5.34-1.34v4h.5l.12-.49-.12.49h.5V29.17a.5.5,0,0,0-.62-.49l-5.84,1.46-5.84-1.46a.5.5,0,0,0-.62.49v4.67a.5.5,0,0,0,.62.49l5.84-1.46,5.84,1.46a.5.5,0,0,0,.62-.49Z"/><circle class="cls-2" cx="186.67" cy="31.51" r="1.46"/><path d="M188.13,31.51h-.5a1,1,0,1,1-1-1,1,1,0,0,1,1,1h1a2,2,0,1,0-2,2,2,2,0,0,0,2-2Z"/><path d="M184.79,23.2v.07a.5.5,0,1,0,1,0V23.2a.5.5,0,0,0-1,0"/><path d="M187.63,23.2v.07a.5.5,0,1,0,1,0V23.2a.5.5,0,0,0-1,0"/><path d="M183.8,25a1,1,0,0,1,0,1.94.5.5,0,0,0,0,1,2,2,0,0,0,0-3.94.5.5,0,0,0,0,1Z"/><path d="M189.74,27a1,1,0,1,1,0-1.94.5.5,0,0,0,0-1,2,2,0,1,0,0,3.94.5.5,0,0,0,0-1Z"/><path d="M185,26.39a7.53,7.53,0,0,0,.73.46,3.38,3.38,0,0,0,1.49.49,1.17,1.17,0,0,0,.59-.15,1,1,0,0,0,.44-.52,1.78,1.78,0,0,0,.13-.67,1.68,1.68,0,0,0-.25-.88,2.88,2.88,0,0,0-1.21-1,.5.5,0,1,0-.4.92l.07-.15-.07.15h0l.07-.15-.07.15a2.23,2.23,0,0,1,.48.31,1.34,1.34,0,0,1,.28.32.68.68,0,0,1,.1.35.78.78,0,0,1-.06.29v0h-.09a2.58,2.58,0,0,1-1-.36l-.45-.27-.13-.09,0,0a.5.5,0,1,0-.59.81Z"/><path d="M187.15,28.69l1-1.9.45-.45a.5.5,0,0,0-.71-.71l-.5.5-.09.12-1.07,2a.5.5,0,1,0,.88.48Z"/><path d="M184.39,21.67,186,21a.5.5,0,0,0-.37-.93l-1.6.63a.5.5,0,0,0,.37.93"/><path d="M189.47,20.74l-1.6-.63a.5.5,0,0,0-.37.93l1.6.63a.5.5,0,0,0,.37-.93"/><path d="M180,25.25l1.33,1.33a.5.5,0,0,0,.71-.71l-1.33-1.33a.5.5,0,0,0-.71.71"/><path d="M181.29,24.54,180,25.87a.5.5,0,0,0,.71.71L182,25.25a.5.5,0,0,0-.71-.71"/><path d="M191.5,25.25l1.33,1.33a.5.5,0,0,0,.71-.71l-1.33-1.33a.5.5,0,0,0-.71.71"/><path d="M192.83,24.54l-1.33,1.33a.5.5,0,0,0,.71.71l1.33-1.33a.5.5,0,0,0-.71-.71"/><path class="cls-2" d="M41.45,67.18q0-1.57.09-3.14L44,66.18A12.34,12.34,0,0,1,45,62.51L47.59,66,49,61.6a18.34,18.34,0,0,1,2.78,3.32A10.24,10.24,0,0,0,54,61.13l1.53,2.76,1.72-3.7,1.7,3.34,3-4.05.47,4.16,4-3.22-1.24,4.08,5-1-2.91,3,4,1-3.83,1.81a9.72,9.72,0,0,1,3.32,2.25,21,21,0,0,0-4.27.23,10.79,10.79,0,0,0,2.3,3.58l-6-.89a13.6,13.6,0,0,0-.05,4.16l-3.16-2.85a5.55,5.55,0,0,0-1.48,3.12L55,76.21,54,79.75l-3.13-2.53-1.49,3.6-2.1-2.73A6.92,6.92,0,0,0,45,81.75L44.65,78a13.51,13.51,0,0,1-3.75,2.83,8.69,8.69,0,0,1,1.3-3.46l-4.44,1.42A8.87,8.87,0,0,1,40,76l-5-.3a13,13,0,0,1,3.56-2.22,7.44,7.44,0,0,0-3.29-2.32l4.64-.64-2.24-4.3,3.51.92"/><path d="M42,67.2q0-1.57.09-3.14h-.5l-.33.38,2.49,2.13a.5.5,0,0,0,.82-.33,11.85,11.85,0,0,1,.89-3.52l-.46-.2-.4.3,2.64,3.47a.5.5,0,0,0,.87-.15l1.39-4.38L49,61.6l-.34.36a17.84,17.84,0,0,1,2.71,3.23.5.5,0,0,0,.79.06,10.74,10.74,0,0,0,2.29-4L54,61.13l-.44.24L55,64.13a.5.5,0,0,0,.89,0l1.72-3.7-.45-.21-.45.23,1.7,3.34a.5.5,0,0,0,.85.07l3-4.05-.4-.3-.5.06.47,4.16a.5.5,0,0,0,.81.33l4-3.22-.31-.39-.48-.15-1.24,4.08a.5.5,0,0,0,.58.63l5-1-.1-.49-.36-.35-2.91,3a.5.5,0,0,0,.24.83l4,1,.12-.48L71.09,67l-3.83,1.81a.5.5,0,0,0,0,.92,9.22,9.22,0,0,1,3.15,2.13l.36-.35,0-.5-1,0a21.45,21.45,0,0,0-3.33.26.5.5,0,0,0-.39.68,11.29,11.29,0,0,0,2.41,3.75l.36-.35.07-.49-6-.89a.5.5,0,0,0-.57.41,14.1,14.1,0,0,0-.05,4.32l.5-.07.33-.37L60,75.39a.5.5,0,0,0-.7,0,6,6,0,0,0-1.62,3.4l.5.06.32-.38-3.17-2.67a.5.5,0,0,0-.81.26l-.92,3.55.48.13.31-.39-3.13-2.53a.5.5,0,0,0-.78.2L49,80.63l.46.19.4-.3-2.1-2.73A.5.5,0,0,0,47,77.7a7.42,7.42,0,0,0-2.51,3.93l.48.12.5,0-.34-3.77a.5.5,0,0,0-.86-.3,13,13,0,0,1-3.61,2.72l.23.45.49.07a8.19,8.19,0,0,1,1.23-3.26.5.5,0,0,0-.57-.75l-4.44,1.42.15.48.44.23a8.37,8.37,0,0,1,2.11-2.62.5.5,0,0,0-.29-.88l-5-.3,0,.5.33.38a12.52,12.52,0,0,1,3.42-2.13.5.5,0,0,0,.2-.78,7.93,7.93,0,0,0-3.51-2.48l-.17.47.07.5L40,71a.5.5,0,0,0,.38-.73L38.15,66l-.44.23-.13.48,3.51.92a.5.5,0,1,0,.25-1l-3.51-.92a.5.5,0,0,0-.57.71l2.24,4.3.44-.23-.07-.5-4.64.64a.5.5,0,0,0-.1,1,6.94,6.94,0,0,1,3.07,2.17l.39-.31L38.4,73a13.52,13.52,0,0,0-3.69,2.3.5.5,0,0,0,.3.88l5,.3,0-.5-.32-.39a9.37,9.37,0,0,0-2.37,2.94.5.5,0,0,0,.6.7l4.44-1.42-.15-.48-.42-.27a9.19,9.19,0,0,0-1.38,3.66.5.5,0,0,0,.72.52A14,14,0,0,0,45,78.32L44.65,78l-.5,0,.34,3.77a.5.5,0,0,0,1,.08,6.42,6.42,0,0,1,2.17-3.39l-.31-.39-.4.3L49,81.12a.5.5,0,0,0,.86-.11l1.49-3.6-.46-.19-.31.39,3.13,2.53a.5.5,0,0,0,.8-.26l.92-3.55L55,76.21l-.32.38,3.17,2.67a.5.5,0,0,0,.82-.32A5.05,5.05,0,0,1,60,76.11l-.36-.35-.33.37L62.44,79a.5.5,0,0,0,.83-.44,13.09,13.09,0,0,1,.05-4l-.49-.08-.07.49,6,.89a.5.5,0,0,0,.43-.84A10.29,10.29,0,0,1,67,71.57l-.47.18.08.49A20.46,20.46,0,0,1,69.77,72l1,0a.5.5,0,0,0,.38-.85,10.22,10.22,0,0,0-3.49-2.36l-.19.46.21.45,3.83-1.81a.5.5,0,0,0-.09-.94l-4-1-.12.48.36.35,2.91-3a.5.5,0,0,0-.46-.84l-5,1,.1.49.48.15,1.24-4.08a.5.5,0,0,0-.79-.53l-4,3.22.31.39.5-.06-.47-4.16a.5.5,0,0,0-.9-.24l-3,4.05.4.3.45-.23L57.64,60a.5.5,0,0,0-.9,0L55,63.67l.45.21.44-.24-1.53-2.76a.5.5,0,0,0-.91.09,9.75,9.75,0,0,1-2.08,3.61l.37.34.42-.27a18.84,18.84,0,0,0-2.86-3.41.5.5,0,0,0-.82.21l-1.39,4.38.48.15.4-.3-2.64-3.47a.5.5,0,0,0-.86.11,12.84,12.84,0,0,0-1,3.81l.5,0,.33-.38-2.49-2.13A.5.5,0,0,0,41,64q0,1.57-.09,3.14a.5.5,0,1,0,1,0Z"/><text class="cls-4" transform="translate(43.57 74.46) rotate(-10.35)">G<tspan class="cls-5" x="4.63" y="0">R</tspan><tspan class="cls-6" x="8.49" y="0">E</tspan><tspan class="cls-7" x="11.78" y="0">A</tspan><tspan x="15.55" y="0">T</tspan><tspan class="cls-8" x="18.75" y="0">!</tspan></text><path d="M57.79,6.36h0a3.19,3.19,0,0,0,5.39,1.44,3.19,3.19,0,0,1,5.36,3.09,3.19,3.19,0,0,0,3.94,3.94,3.19,3.19,0,0,1,3.09,5.36A3.19,3.19,0,0,0,77,25.59a3.19,3.19,0,0,1,0,6.19,3.19,3.19,0,0,0-1.44,5.39,3.19,3.19,0,0,1-3.09,5.36,3.19,3.19,0,0,0-3.94,3.94,3.19,3.19,0,0,1-5.36,3.09A3.19,3.19,0,0,0,57.79,51a3.19,3.19,0,0,1-6.19,0,3.19,3.19,0,0,0-5.39-1.44,3.19,3.19,0,0,1-5.36-3.09,3.19,3.19,0,0,0-3.94-3.94,3.19,3.19,0,0,1-3.09-5.36,3.19,3.19,0,0,0-1.44-5.39,3.19,3.19,0,0,1,0-6.19,3.19,3.19,0,0,0,1.44-5.39,3.19,3.19,0,0,1,3.09-5.36,3.19,3.19,0,0,0,3.94-3.94,3.19,3.19,0,0,1,5.36-3.09A3.19,3.19,0,0,0,51.6,6.36,3.19,3.19,0,0,1,57.79,6.36Z"/><text class="cls-9" transform="translate(41.54 33.04)"><tspan class="cls-10">$2</tspan><tspan class="cls-11" x="10.32" y="0">5</tspan><tspan class="cls-10" x="14.12" y="0">.0</tspan><tspan x="22.33" y="0">0</tspan></text><path class="cls-2" d="M46.37,40.45a37.59,37.59,0,0,1,18.4-3.74,37.09,37.09,0,0,0-17.94,4.62.5.5,0,0,1-.49-.87Z"/><text class="cls-12" transform="translate(49.16 19.36)"><tspan class="cls-13">O</tspan><tspan class="cls-14" x="2.46" y="0">N</tspan><tspan class="cls-15" x="5.76" y="0">L</tspan><tspan x="7.9" y="0">Y</tspan></text><ellipse cx="81.35" cy="95.68" rx="32.99" ry="3.93"/><path d="M114.33,95.68h-.5l-.1.13a3.56,3.56,0,0,1-1.13.6c-2,.76-6.2,1.45-11.66,1.93s-12.25.77-19.59.77A207.75,207.75,0,0,1,58.08,98a49,49,0,0,1-7-1.23A8.22,8.22,0,0,1,49.28,96a1.46,1.46,0,0,1-.37-.28l0-.07h0l.1-.13a3.56,3.56,0,0,1,1.13-.6c2-.76,6.2-1.45,11.66-1.93s12.25-.77,19.59-.77a207.72,207.72,0,0,1,23.27,1.15,49,49,0,0,1,7,1.23,8.21,8.21,0,0,1,1.81.69,1.47,1.47,0,0,1,.37.28l0,.07h1a1.12,1.12,0,0,0-.29-.73,3.57,3.57,0,0,0-1.39-.86,24.49,24.49,0,0,0-4.65-1.15c-6-1-15.93-1.69-27.16-1.69A208.67,208.67,0,0,0,58,92.4a49.86,49.86,0,0,0-7.15,1.26,9.1,9.1,0,0,0-2,.79,2.41,2.41,0,0,0-.63.5,1.06,1.06,0,0,0,0,1.45,3.57,3.57,0,0,0,1.39.86,24.49,24.49,0,0,0,4.65,1.15c6,1,15.93,1.69,27.16,1.69A208.67,208.67,0,0,0,104.73,99a49.87,49.87,0,0,0,7.15-1.26,9.1,9.1,0,0,0,2-.79,2.41,2.41,0,0,0,.63-.5,1.12,1.12,0,0,0,.29-.73Z"/><path class="cls-2" d="M114.33,88.24c0,2.17-6,8.62-29.14,8.62S56,90.41,56,88.24s13-3.93,29.14-3.93S114.33,86.07,114.33,88.24Z"/><path d="M114.33,88.24h-.5a3.2,3.2,0,0,1-1.14,1.91c-2.59,2.57-10.18,6.22-27.5,6.21-11.55,0-18.77-1.61-23.07-3.45a14.34,14.34,0,0,1-4.43-2.76,3.2,3.2,0,0,1-1.14-1.91l0-.1a2.34,2.34,0,0,1,.86-.57,18.85,18.85,0,0,1,3.91-1.09c5.21-1,13.95-1.68,23.82-1.68A162.24,162.24,0,0,1,105.73,86a38.67,38.67,0,0,1,6.16,1.23,6.69,6.69,0,0,1,1.57.68,1.29,1.29,0,0,1,.32.27l0,.1h1a1.17,1.17,0,0,0-.25-.7,3.19,3.19,0,0,0-1.25-.88,19.7,19.7,0,0,0-4.13-1.16c-5.32-1-14.09-1.69-24-1.69A163.18,163.18,0,0,0,64.51,85a39.55,39.55,0,0,0-6.33,1.27,7.59,7.59,0,0,0-1.82.8,2.24,2.24,0,0,0-.57.51,1.17,1.17,0,0,0-.25.7A4.05,4.05,0,0,0,57,90.86c2.94,2.88,10.74,6.49,28.2,6.5,11.64,0,19-1.62,23.47-3.54a15.3,15.3,0,0,0,4.74-3,4.05,4.05,0,0,0,1.44-2.62Z"/><ellipse class="cls-2" cx="85.19" cy="88.24" rx="29.14" ry="3.93"/><path d="M114.33,88.24h-.5l0,.1a2.34,2.34,0,0,1-.86.57A18.85,18.85,0,0,1,109,90c-5.21,1-13.95,1.68-23.82,1.68a162.24,162.24,0,0,1-20.54-1.15,38.68,38.68,0,0,1-6.16-1.23,6.7,6.7,0,0,1-1.58-.68,1.29,1.29,0,0,1-.32-.27l0-.1,0-.1a2.34,2.34,0,0,1,.86-.57,18.85,18.85,0,0,1,3.91-1.09c5.21-1,13.95-1.68,23.82-1.68A162.24,162.24,0,0,1,105.73,86a38.67,38.67,0,0,1,6.16,1.23,6.69,6.69,0,0,1,1.57.68,1.29,1.29,0,0,1,.32.27l0,.1h1a1.17,1.17,0,0,0-.25-.7,3.19,3.19,0,0,0-1.25-.88,19.7,19.7,0,0,0-4.13-1.16c-5.32-1-14.09-1.69-24-1.69A163.18,163.18,0,0,0,64.51,85a39.55,39.55,0,0,0-6.33,1.27,7.59,7.59,0,0,0-1.82.8,2.24,2.24,0,0,0-.57.51,1.11,1.11,0,0,0,0,1.41,3.19,3.19,0,0,0,1.25.88A19.71,19.71,0,0,0,61.17,91c5.32,1,14.09,1.69,24,1.69a163.18,163.18,0,0,0,20.68-1.16,39.55,39.55,0,0,0,6.33-1.27,7.59,7.59,0,0,0,1.82-.8,2.25,2.25,0,0,0,.57-.51,1.17,1.17,0,0,0,.25-.7Z"/><path d="M64.9,91.29a28.42,28.42,0,0,1,7.53-1.55,119.75,119.75,0,0,1,12.75-.62,120.2,120.2,0,0,1,12.64.61,29.54,29.54,0,0,1,7.56,1.53.5.5,0,0,0,.41-.91,30.17,30.17,0,0,0-7.86-1.61,121.16,121.16,0,0,0-12.75-.62,120.73,120.73,0,0,0-12.86.63,29,29,0,0,0-7.84,1.64.5.5,0,1,0,.42.91Z"/></svg>