<svg id="Layer_1" data-name="Layer 1" xmlns="http://www.w3.org/2000/svg" viewBox="0 0 88 120"><defs><style>.cls-1{fill:#fff;}</style></defs><title>image-jamkid-mascot-head</title><path class="cls-1" d="M44,33.91c-3.35,0-10.13-6.82-10.13-12.4,0-6.11,5.23-8.29,10.13-8.29s10.13,2.18,10.13,8.29C54.13,27.09,47.35,33.91,44,33.91Z"/><path d="M44,13.72c4.66,0,9.63,2,9.63,7.79,0,5.55-6.84,10.91-9.63,10.91s-9.63-5.36-9.63-10.91c0-5.74,5-7.79,9.63-7.79m0-1c-5.87,0-10.63,2.92-10.63,8.79S40.44,34.41,44,34.41s10.63-7,10.63-12.9S49.87,12.72,44,12.72Z"/><path class="cls-1" d="M49.54,13.27c-1.12,2.32-4.62,3.49-4.62,3.49s-1.69-2.59-.57-4.91S49,8.36,49,8.36,50.66,11,49.54,13.27Z"/><path d="M49.54,13.27l-.45-.22a6.17,6.17,0,0,1-2.53,2.4,11.84,11.84,0,0,1-1.27.63l-.39.16-.1,0h0l.16.47.42-.27h0a6.05,6.05,0,0,1-.86-2.89,3.46,3.46,0,0,1,.33-1.52,6.16,6.16,0,0,1,2.53-2.4A11.84,11.84,0,0,1,48.6,9L49,8.88l.1,0h0L49,8.36l-.42.27h0a6.06,6.06,0,0,1,.86,2.89,3.47,3.47,0,0,1-.33,1.52l.45.22.45.22a4.47,4.47,0,0,0,.43-2,7,7,0,0,0-1-3.44.5.5,0,0,0-.58-.2,12.13,12.13,0,0,0-2,.91,7.1,7.1,0,0,0-2.93,2.83,4.47,4.47,0,0,0-.43,2,7,7,0,0,0,1,3.44.5.5,0,0,0,.58.2,12.14,12.14,0,0,0,2-.91A7.11,7.11,0,0,0,50,13.49Z"/><path class="cls-1" d="M43.64,11.85c1.12,2.32-.57,4.91-.57,4.91s-3.5-1.17-4.62-3.49S39,8.36,39,8.36,42.53,9.53,43.64,11.85Z"/><path d="M43.64,11.85l-.45.22a3.47,3.47,0,0,1,.33,1.52,5.49,5.49,0,0,1-.44,2,6.57,6.57,0,0,1-.3.64l-.1.17,0,0h0l.42.27.16-.47h0a11.46,11.46,0,0,1-2-.93,6,6,0,0,1-2.34-2.29,3.47,3.47,0,0,1-.33-1.52,5.49,5.49,0,0,1,.44-2,6.57,6.57,0,0,1,.3-.64l.1-.17,0,0h0L39,8.36l-.16.47h0a11.46,11.46,0,0,1,2,.93,6,6,0,0,1,2.34,2.29l.45-.22.45-.22A7.1,7.1,0,0,0,41.16,8.8a12.13,12.13,0,0,0-2-.91.5.5,0,0,0-.58.2,7,7,0,0,0-1,3.44,4.47,4.47,0,0,0,.43,2,7.11,7.11,0,0,0,2.93,2.83,12.14,12.14,0,0,0,2,.91.5.5,0,0,0,.58-.2,7,7,0,0,0,1-3.44,4.47,4.47,0,0,0-.43-2Z"/><path class="cls-1" d="M46.76,11.83c0,2.72-2.76,4.93-2.76,4.93s-2.76-2.21-2.76-4.93S44,6.9,44,6.9,46.76,9.11,46.76,11.83Z"/><path d="M46.76,11.83h-.5A5.42,5.42,0,0,1,45,15a9.39,9.39,0,0,1-.9,1l-.29.27-.08.07,0,0,.31.39.31-.39,0,0a9.08,9.08,0,0,1-1.39-1.5,5.27,5.27,0,0,1-1.15-3A5.42,5.42,0,0,1,43,8.65a9.39,9.39,0,0,1,.9-1l.29-.27.08-.07,0,0L44,6.9l-.31.39,0,0a9.08,9.08,0,0,1,1.39,1.5,5.27,5.27,0,0,1,1.15,3h1A6.38,6.38,0,0,0,45.77,8a9.79,9.79,0,0,0-1.46-1.53.5.5,0,0,0-.62,0A9.79,9.79,0,0,0,42.23,8a6.38,6.38,0,0,0-1.48,3.79,6.38,6.38,0,0,0,1.48,3.79,9.79,9.79,0,0,0,1.46,1.53.5.5,0,0,0,.62,0,9.79,9.79,0,0,0,1.46-1.53,6.38,6.38,0,0,0,1.48-3.79Z"/><path d="M44.51,14.93V12.06a.5.5,0,1,0-1,0v2.87a.5.5,0,0,0,1,0"/><path class="cls-1" d="M47,15.57l-.15,0A6.35,6.35,0,0,0,44,14.93a6.1,6.1,0,0,0-3,.74c-.77.24-1.46.74-1.31,1.62C39.88,18.6,42,18.91,43,19a6.52,6.52,0,0,0,4.5-1.26A1.22,1.22,0,0,0,47,15.57Z"/><path d="M40.78,16.4a5,5,0,0,1,3.23-1,5.2,5.2,0,0,1,3.14.89.5.5,0,1,0,.63-.78A6.14,6.14,0,0,0,44,14.43a6,6,0,0,0-3.9,1.22.5.5,0,1,0,.67.74Z"/><path d="M41,24A1,1,0,0,1,41,26a.5.5,0,0,0,0,1A2,2,0,0,0,41,23a.5.5,0,0,0,0,1Z"/><path d="M47,26A1,1,0,1,1,47,24a.5.5,0,0,0,0-1A2,2,0,1,0,47,27a.5.5,0,0,0,0-1Z"/><path d="M37.26,24.25l1.33,1.33a.5.5,0,1,0,.71-.71L38,23.54a.5.5,0,0,0-.71.71"/><path d="M38.58,23.54l-1.33,1.33a.5.5,0,0,0,.71.71l1.33-1.33a.5.5,0,1,0-.71-.71"/><path d="M48.79,24.25l1.33,1.33a.5.5,0,1,0,.71-.71L49.5,23.54a.5.5,0,0,0-.71.71"/><path d="M50.12,23.54l-1.33,1.33a.5.5,0,0,0,.71.71l1.33-1.33a.5.5,0,1,0-.71-.71"/><path d="M42.2,22.28a.28.28,0,1,1,.55,0,.5.5,0,1,0,1,0,1.28,1.28,0,1,0-2.55,0,.5.5,0,1,0,1,0Z"/><path d="M45.14,22.28a.28.28,0,0,1,.56,0,.5.5,0,0,0,1,0,1.28,1.28,0,0,0-2.56,0,.5.5,0,1,0,1,0Z"/><path d="M42.58,24.5V25h2.05L44,26.37l-1-2.08-.45.21v0l-.45.21,1.42,3.06a.5.5,0,0,0,.91,0l1.41-3.06a.5.5,0,0,0-.45-.71H42.58a.5.5,0,0,0-.45.71Z"/></svg>