<svg id="Layer_1" data-name="Layer 1" xmlns="http://www.w3.org/2000/svg" viewBox="0 0 88 120"><defs><style>.cls-1{fill:#fff;}</style></defs><title>image-jamkid-mascot-full</title><ellipse cx="39.99" cy="105.16" rx="31.64" ry="4.87"/><path d="M71.63,105.16h-.5a.4.4,0,0,1-.08.22,2.58,2.58,0,0,1-1,.73,18.54,18.54,0,0,1-4.24,1.35c-5.65,1.25-15.14,2.08-25.86,2.08a154.47,154.47,0,0,1-22.3-1.42A37.43,37.43,0,0,1,11,106.58a6.85,6.85,0,0,1-1.71-.84,1.54,1.54,0,0,1-.36-.36.35.35,0,0,1,0-.45,2.58,2.58,0,0,1,1-.73,18.54,18.54,0,0,1,4.24-1.35c5.65-1.25,15.14-2.08,25.86-2.08a154.49,154.49,0,0,1,22.3,1.42A37.43,37.43,0,0,1,69,103.73a6.85,6.85,0,0,1,1.71.84,1.54,1.54,0,0,1,.36.36.4.4,0,0,1,.08.22h1a1.4,1.4,0,0,0-.25-.77,3.47,3.47,0,0,0-1.33-1.06,19.4,19.4,0,0,0-4.49-1.44c-5.78-1.28-15.3-2.1-26.08-2.1a155.42,155.42,0,0,0-22.45,1.43,38.31,38.31,0,0,0-6.88,1.57,7.76,7.76,0,0,0-2,1,2.51,2.51,0,0,0-.6.61,1.34,1.34,0,0,0,0,1.55A3.47,3.47,0,0,0,9.43,107a19.4,19.4,0,0,0,4.49,1.44c5.78,1.28,15.3,2.1,26.08,2.1a155.4,155.4,0,0,0,22.45-1.43,38.31,38.31,0,0,0,6.88-1.57,7.76,7.76,0,0,0,2-1,2.51,2.51,0,0,0,.6-.61,1.4,1.4,0,0,0,.25-.77Z"/><path class="cls-1" d="M18.39,104.73c0,2.24,11.78,4.05,26.32,4.05S71,107,71,104.73V60.32H18.39Z"/><path d="M20.39,102.26a2.62,2.62,0,0,0,1.93,2.54c3.54.94,11.07,2,22.39,2s18.85-1,22.39-2A2.62,2.62,0,0,0,69,102.26V62.32H20.39Z"/><path class="cls-1" d="M44.71,100.18c-10.49,0-17.38-1-18.67-1.82V72c6.19.59,12.46.89,18.67.89s12.48-.3,18.67-.89V98.36C62.09,99.16,55.2,100.18,44.71,100.18Z"/><path d="M62.38,73.05V97.69c-1.92.62-8,1.49-17.67,1.49S29,98.31,27,97.69V73.05c5.86.53,11.79.8,17.67.8s11.8-.27,17.67-.8m2-2.2h0a194.49,194.49,0,0,1-19.67,1,194.49,194.49,0,0,1-19.67-1v27.8c0,1.4,8.8,2.54,19.67,2.54S64.38,100,64.38,98.65Z"/><path d="M44.21,86.27v1a.5.5,0,0,0,1,0v-1a.5.5,0,1,0-1,0"/><path d="M44.21,101.11v2a.5.5,0,0,0,1,0v-2a.5.5,0,0,0-1,0Zm0-4v2a.5.5,0,1,0,1,0v-2a.5.5,0,0,0-1,0Zm0-4v2a.5.5,0,0,0,1,0v-2a.5.5,0,0,0-1,0Zm0-4v2a.5.5,0,0,0,1,0v-2a.5.5,0,0,0-1,0Z"/><path d="M44.21,105.06v1a.5.5,0,0,0,1,0v-1a.5.5,0,1,0-1,0"/><path d="M44.29,86.54l.54.84a.5.5,0,0,0,.84-.54L45.13,86a.5.5,0,0,0-.84.54"/><path d="M52.49,99.4l1.09,1.72a.5.5,0,1,0,.84-.54l-1.09-1.72a.5.5,0,1,0-.84.54ZM50.3,96l1.09,1.72a.5.5,0,1,0,.84-.54l-1.09-1.72a.5.5,0,1,0-.84.54Zm-2.19-3.43,1.09,1.72a.5.5,0,1,0,.84-.54L49,92a.5.5,0,1,0-.84.54ZM45.92,89.1,47,90.82a.5.5,0,1,0,.84-.54l-1.09-1.72a.5.5,0,1,0-.84.54Z"/><path d="M54.68,102.83l.54.84a.5.5,0,1,0,.84-.54l-.54-.84a.5.5,0,1,0-.84.54"/><path d="M44.48,86.72l.89.45a.5.5,0,1,0,.45-.89l-.89-.45a.5.5,0,1,0-.45.89"/><path d="M59.07,94.16l2,1a.5.5,0,1,0,.45-.89l-2-1a.5.5,0,1,0-.45.89Zm-3.91-2,2,1a.5.5,0,1,0,.45-.89l-2-1a.5.5,0,1,0-.45.89Zm-3.91-2,2,1a.5.5,0,1,0,.45-.89l-2-1a.5.5,0,1,0-.45.89Zm-3.91-2,2,1a.5.5,0,1,0,.45-.89l-2-1a.5.5,0,1,0-.45.89Z"/><path d="M63,96.16l.89.45a.5.5,0,1,0,.45-.89l-.89-.45a.5.5,0,1,0-.45.89"/><path d="M44.71,86.77h1a.5.5,0,0,0,0-1h-1a.5.5,0,1,0,0,1"/><path d="M61.15,86.77h2.21a.5.5,0,0,0,0-1H61.15a.5.5,0,0,0,0,1Zm-4.41,0h2.21a.5.5,0,1,0,0-1H56.74a.5.5,0,1,0,0,1Zm-4.41,0h2.21a.5.5,0,0,0,0-1H52.33a.5.5,0,1,0,0,1Zm-4.41,0h2.21a.5.5,0,1,0,0-1H47.92a.5.5,0,0,0,0,1Z"/><path d="M65.57,86.77h1a.5.5,0,0,0,0-1h-1a.5.5,0,0,0,0,1"/><path d="M44.94,86.72l.89-.45a.5.5,0,1,0-.45-.89l-.89.45a.5.5,0,1,0,.45.89"/><path d="M59.52,79.28l2-1a.5.5,0,1,0-.45-.89l-2,1a.5.5,0,1,0,.45.89Zm-3.91,2,2-1a.5.5,0,1,0-.45-.89l-2,1a.5.5,0,1,0,.45.89Zm-3.91,2,2-1a.5.5,0,1,0-.45-.89l-2,1a.5.5,0,1,0,.45.89Zm-3.91,2,2-1a.5.5,0,1,0-.45-.89l-2,1a.5.5,0,1,0,.45.89Z"/><path d="M63.44,77.28l.89-.45a.5.5,0,1,0-.45-.89l-.89.45a.5.5,0,1,0,.45.89"/><path d="M45.13,86.54l.54-.84a.5.5,0,0,0-.84-.54l-.54.84a.5.5,0,0,0,.84.54"/><path d="M53.33,73.69,54.43,72a.5.5,0,1,0-.84-.54l-1.09,1.72a.5.5,0,1,0,.84.54Zm-2.19,3.43,1.09-1.72a.5.5,0,1,0-.84-.54L50.3,76.58a.5.5,0,1,0,.84.54ZM49,80.55,50,78.84a.5.5,0,1,0-.84-.54L48.11,80a.5.5,0,1,0,.84.54ZM46.76,84l1.09-1.72a.5.5,0,1,0-.84-.54l-1.09,1.72a.5.5,0,1,0,.84.54Z"/><path d="M55.52,70.25l.54-.84a.5.5,0,1,0-.84-.54l-.54.84a.5.5,0,1,0,.84.54"/><path d="M45.21,86.27v-1a.5.5,0,1,0-1,0v1a.5.5,0,0,0,1,0"/><path d="M45.21,71.44v-2a.5.5,0,0,0-1,0v2a.5.5,0,0,0,1,0Zm0,4v-2a.5.5,0,0,0-1,0v2a.5.5,0,0,0,1,0Zm0,4v-2a.5.5,0,0,0-1,0v2a.5.5,0,0,0,1,0Zm0,4v-2a.5.5,0,0,0-1,0v2a.5.5,0,0,0,1,0Z"/><path d="M45.21,67.49v-1a.5.5,0,0,0-1,0v1a.5.5,0,0,0,1,0"/><path d="M45.13,86l-.54-.84a.5.5,0,1,0-.84.54l.54.84a.5.5,0,1,0,.84-.54"/><path d="M36.93,73.15l-1.09-1.72A.5.5,0,1,0,35,72l1.09,1.72a.5.5,0,1,0,.84-.54Zm2.19,3.43L38,74.87a.5.5,0,1,0-.84.54l1.09,1.72a.5.5,0,1,0,.84-.54ZM41.31,80,40.22,78.3a.5.5,0,1,0-.84.54l1.09,1.72a.5.5,0,1,0,.84-.54Zm2.19,3.43L42.4,81.73a.5.5,0,1,0-.84.54L42.66,84a.5.5,0,1,0,.84-.54Z"/><path d="M34.74,69.72l-.54-.84a.5.5,0,1,0-.84.54l.54.84a.5.5,0,1,0,.84-.54"/><path d="M44.94,85.83,44,85.38a.5.5,0,0,0-.45.89l.89.45a.5.5,0,0,0,.45-.89"/><path d="M30.35,78.39l-2-1a.5.5,0,1,0-.45.89l2,1a.5.5,0,1,0,.45-.89Zm3.91,2-2-1a.5.5,0,1,0-.45.89l2,1a.5.5,0,1,0,.45-.89Zm3.91,2-2-1a.5.5,0,1,0-.45.89l2,1a.5.5,0,1,0,.45-.89Zm3.91,2-2-1a.5.5,0,1,0-.45.89l2,1a.5.5,0,1,0,.45-.89Z"/><path d="M26.44,76.39l-.89-.45a.5.5,0,1,0-.45.89l.89.45a.5.5,0,1,0,.45-.89"/><path d="M44.71,85.77h-1a.5.5,0,1,0,0,1h1a.5.5,0,0,0,0-1"/><path d="M28.27,85.77H26.06a.5.5,0,1,0,0,1h2.21a.5.5,0,1,0,0-1Zm4.41,0H30.47a.5.5,0,1,0,0,1h2.21a.5.5,0,0,0,0-1Zm4.41,0H34.89a.5.5,0,0,0,0,1h2.21a.5.5,0,0,0,0-1Zm4.41,0H39.3a.5.5,0,0,0,0,1H41.5a.5.5,0,0,0,0-1Z"/><path d="M23.85,85.77h-1a.5.5,0,0,0,0,1h1a.5.5,0,1,0,0-1"/><path d="M44.48,85.83l-.89.45a.5.5,0,1,0,.45.89l.89-.45a.5.5,0,1,0-.45-.89"/><path d="M29.9,93.27l-2,1a.5.5,0,1,0,.45.89l2-1a.5.5,0,1,0-.45-.89Zm3.91-2-2,1a.5.5,0,1,0,.45.89l2-1a.5.5,0,1,0-.45-.89Zm3.91-2-2,1a.5.5,0,1,0,.45.89l2-1a.5.5,0,1,0-.45-.89Zm3.91-2-2,1a.5.5,0,1,0,.45.89l2-1a.5.5,0,1,0-.45-.89Z"/><path d="M26,95.27l-.89.45a.5.5,0,1,0,.45.89l.89-.45a.5.5,0,1,0-.45-.89"/><path d="M44.29,86l-.54.84a.5.5,0,1,0,.84.54l.54-.84a.5.5,0,1,0-.84-.54"/><path d="M36.09,98.86,35,100.58a.5.5,0,1,0,.84.54l1.09-1.72a.5.5,0,1,0-.84-.54Zm2.19-3.43-1.09,1.72a.5.5,0,1,0,.84.54L39.12,96a.5.5,0,1,0-.84-.54ZM40.47,92l-1.09,1.72a.5.5,0,1,0,.84.54l1.09-1.72a.5.5,0,1,0-.84-.54Zm2.19-3.43-1.09,1.72a.5.5,0,1,0,.84.54L43.5,89.1a.5.5,0,1,0-.84-.54Z"/><path d="M33.9,102.3l-.54.84a.5.5,0,1,0,.84.54l.54-.84a.5.5,0,1,0-.84-.54"/><ellipse class="cls-1" cx="44.79" cy="86.28" rx="11.36" ry="9.61"/><path class="cls-1" d="M63.38,72V98.36c-1.29.79-8.17,1.82-18.67,1.82s-17.37-1-18.67-1.82V72c6.19.59,12.46.89,18.67.89s12.48-.3,18.67-.89m1-1.1h0a194.49,194.49,0,0,1-19.67,1,194.49,194.49,0,0,1-19.67-1v27.8c0,1.4,8.8,2.54,19.67,2.54S64.38,100,64.38,98.65Z"/><path d="M18.39,104.73h-.5a1.25,1.25,0,0,0,.22.69,3,3,0,0,0,1.14.91,16.21,16.21,0,0,0,3.75,1.2c4.82,1.06,12.74,1.75,21.71,1.75a129.32,129.32,0,0,0,18.68-1.19,31.94,31.94,0,0,0,5.73-1.31,6.53,6.53,0,0,0,1.66-.83,2.17,2.17,0,0,0,.52-.53,1.25,1.25,0,0,0,.22-.69V59.82H17.89v44.91h1V60.82H70.53v43.91l-.05.14a2.08,2.08,0,0,1-.77.57,15.35,15.35,0,0,1-3.51,1.12c-4.69,1-12.58,1.73-21.49,1.73a128.39,128.39,0,0,1-18.53-1.18,31.06,31.06,0,0,1-5.54-1.26,5.62,5.62,0,0,1-1.4-.69,1.2,1.2,0,0,1-.28-.28l-.05-.14Z"/><path class="cls-1" d="M16,62.12c0,2.44,12.83,4.42,28.67,4.42s28.67-2,28.67-4.42v-8H16Z"/><path d="M30.8,65C21.67,64.19,17.55,62.8,17,62.05V55.1H30.43c.06,2.34.16,4.71.25,7Q30.75,63.54,30.8,65Z"/><path class="cls-1" d="M29.46,56.1c.06,2,.15,4.06.23,6l.07,1.74C22.24,63.16,19,62.1,18,61.56V56.1H29.46m1.95-2H16v8c0,1.73,6.43,3.22,15.8,3.95C31.7,62.08,31.5,58.09,31.41,54.1Z"/><path d="M45.8,65.53c0-2.06.13-4.14.23-6.16.07-1.43.13-2.85.18-4.28h9.57c.06,3.2.19,6.4.36,10.07C52.86,65.39,49.4,65.51,45.8,65.53Z"/><path class="cls-1" d="M54.8,56.1c.06,2.6.16,5.23.29,8.13-2.65.16-5.41.26-8.27.29,0-1.7.13-3.42.2-5.09,0-1.1.1-2.21.14-3.34H54.8m2-2H45.23c-.11,4.15-.41,8.29-.45,12.44,4.44,0,8.65-.16,12.4-.44C57,62.1,56.82,58.1,56.76,54.1Z"/><path d="M59.67,64.88c-.14-3.15-.28-6.46-.34-9.78H65v9.13C63.38,64.48,61.6,64.7,59.67,64.88Z"/><path class="cls-1" d="M64,56.1v7.27c-1,.15-2.17.29-3.36.41-.11-2.5-.21-5.09-.27-7.68H64m2-2H58.31c.06,4,.22,7.92.41,11.87,2.73-.24,5.18-.54,7.26-.89Z"/><path d="M68.53,55.1h3.85V62c-.12.14-.8.78-3.85,1.51Z"/><path class="cls-1" d="M71.38,56.1v5.45a9.11,9.11,0,0,1-1.85.71V56.1h1.85m2-2H67.53V64.79c3.67-.74,5.85-1.67,5.85-2.67Z"/><path d="M16,62.12h-.5a1.32,1.32,0,0,0,.23.73,3.19,3.19,0,0,0,1.23,1,17.62,17.62,0,0,0,4.08,1.31C26.32,66.29,34.94,67,44.71,67a140.84,140.84,0,0,0,20.35-1.3,34.75,34.75,0,0,0,6.24-1.43,7.08,7.08,0,0,0,1.8-.9,2.32,2.32,0,0,0,.55-.56,1.32,1.32,0,0,0,.23-.73v-8a.5.5,0,0,0-.5-.5H16a.5.5,0,0,0-.5.5v8h1V54.6H72.88v7.52l-.07.18a2.3,2.3,0,0,1-.85.64,16.76,16.76,0,0,1-3.83,1.22C63,65.29,54.42,66,44.71,66a139.91,139.91,0,0,1-20.19-1.29,33.87,33.87,0,0,1-6-1.38,6.16,6.16,0,0,1-1.54-.76,1.35,1.35,0,0,1-.32-.31l-.07-.18Z"/><ellipse class="cls-1" cx="44.71" cy="54.1" rx="28.67" ry="4.42"/><path d="M73.38,54.1h-.5l-.07.18a2.3,2.3,0,0,1-.85.64,16.76,16.76,0,0,1-3.83,1.22C63,57.27,54.42,58,44.71,58a139.91,139.91,0,0,1-20.19-1.29,33.87,33.87,0,0,1-6-1.38,6.16,6.16,0,0,1-1.54-.76,1.35,1.35,0,0,1-.32-.31l-.07-.18.07-.18a2.3,2.3,0,0,1,.85-.64,16.76,16.76,0,0,1,3.83-1.22c5.12-1.13,13.71-1.88,23.42-1.88A139.89,139.89,0,0,1,64.9,51.47a33.86,33.86,0,0,1,6,1.38,6.16,6.16,0,0,1,1.54.76,1.35,1.35,0,0,1,.32.31l.07.18h1a1.32,1.32,0,0,0-.23-.73,3.19,3.19,0,0,0-1.23-1,17.62,17.62,0,0,0-4.08-1.31c-5.24-1.16-13.87-1.9-23.63-1.9a140.84,140.84,0,0,0-20.35,1.3,34.75,34.75,0,0,0-6.24,1.43,7.07,7.07,0,0,0-1.8.9,2.32,2.32,0,0,0-.55.56,1.26,1.26,0,0,0,0,1.45,3.19,3.19,0,0,0,1.23,1,17.62,17.62,0,0,0,4.08,1.31C26.32,58.27,34.94,59,44.71,59a140.84,140.84,0,0,0,20.35-1.3,34.75,34.75,0,0,0,6.24-1.43,7.08,7.08,0,0,0,1.8-.9,2.32,2.32,0,0,0,.55-.56,1.32,1.32,0,0,0,.23-.73Z"/><path d="M38.64,88.84c-.75,0-3.35-2.47-3.35-4.34,0-2.29,2.34-2.54,3.35-2.54S42,82.2,42,84.49C42,86.37,39.4,88.84,38.64,88.84Z"/><path class="cls-1" d="M38.64,82.45c1.06,0,2.85.27,2.85,2,0,1.52-2.11,3.64-2.85,3.84-.74-.2-2.85-2.32-2.85-3.84,0-1.77,1.78-2,2.85-2m0-1c-.9,0-3.85.22-3.85,3,0,2.15,2.79,4.84,3.85,4.84s3.85-2.69,3.85-4.84C42.49,81.67,39.55,81.45,38.64,81.45Z"/><path d="M40.71,82A3.33,3.33,0,0,1,39,83.28a2.09,2.09,0,0,1-.21-1.83,3.33,3.33,0,0,1,1.73-1.3A2.09,2.09,0,0,1,40.71,82Z"/><path d="M38.51,81.45a2.09,2.09,0,0,1-.21,1.83A3.33,3.33,0,0,1,36.57,82a2.09,2.09,0,0,1,.21-1.83A3.33,3.33,0,0,1,38.51,81.45Z"/><path d="M39.67,81.27a2.52,2.52,0,0,1-1,1.67,1.87,1.87,0,0,1,0-3.34A2.52,2.52,0,0,1,39.67,81.27Z"/><path d="M50.78,88.84c-.75,0-3.35-2.47-3.35-4.34,0-2.29,2.34-2.54,3.35-2.54s3.35.25,3.35,2.54C54.13,86.37,51.53,88.84,50.78,88.84Z"/><path class="cls-1" d="M50.78,82.45c1.06,0,2.85.27,2.85,2,0,1.52-2.11,3.64-2.85,3.84-.74-.2-2.85-2.32-2.85-3.84,0-1.77,1.79-2,2.85-2m0-1c-.9,0-3.85.22-3.85,3,0,2.15,2.79,4.84,3.85,4.84s3.85-2.69,3.85-4.84C54.63,81.67,51.68,81.45,50.78,81.45Z"/><path d="M52.85,82a3.33,3.33,0,0,1-1.73,1.3,2.09,2.09,0,0,1-.21-1.83,3.33,3.33,0,0,1,1.73-1.3A2.09,2.09,0,0,1,52.85,82Z"/><path d="M50.65,81.45a2.09,2.09,0,0,1-.21,1.83A3.33,3.33,0,0,1,48.71,82a2.09,2.09,0,0,1,.21-1.83A3.33,3.33,0,0,1,50.65,81.45Z"/><path d="M51.81,81.27a2.52,2.52,0,0,1-1,1.67,1.87,1.87,0,0,1,0-3.34A2.52,2.52,0,0,1,51.81,81.27Z"/><path d="M44.71,90.21c-1.3,0-4.47-3-4.47-5.53s2.31-3.61,4.47-3.61,4.47.95,4.47,3.61S46,90.21,44.71,90.21Z"/><path class="cls-1" d="M44.71,81.57c.93,0,4,.22,4,3.11,0,2.36-3,5-4,5s-4-2.67-4-5c0-2.88,3-3.11,4-3.11m0-1c-2.75,0-5,1.36-5,4.11s3.31,6,5,6,5-3.29,5-6S47.46,80.57,44.71,80.57Z"/><path class="cls-1" d="M42.85,85v.5a.5.5,0,0,0,1,0V85a.5.5,0,0,0-1,0"/><path class="cls-1" d="M45.57,85v.5a.5.5,0,0,0,1,0V85a.5.5,0,0,0-1,0"/><path class="cls-1" d="M47.3,81.76a4.17,4.17,0,0,1-2.16,1.63,2.61,2.61,0,0,1-.26-2.29A4.17,4.17,0,0,1,47,79.47,2.61,2.61,0,0,1,47.3,81.76Z"/><path d="M47.3,81.76l-.45-.22a2.64,2.64,0,0,1-1.07,1,5.28,5.28,0,0,1-.57.28L45,82.9l0,0h0l.16.47.42-.27h0a2.58,2.58,0,0,1-.36-1.21,1.35,1.35,0,0,1,.13-.6,2.64,2.64,0,0,1,1.07-1A5.27,5.27,0,0,1,47,80l.17-.07,0,0h0L47,79.47l-.42.27h0A2.59,2.59,0,0,1,47,80.95a1.36,1.36,0,0,1-.13.6l.45.22.45.22a2.36,2.36,0,0,0,.23-1,3.52,3.52,0,0,0-.52-1.75.5.5,0,0,0-.58-.2,5.92,5.92,0,0,0-1,.45,3.58,3.58,0,0,0-1.48,1.44,2.35,2.35,0,0,0-.23,1,3.52,3.52,0,0,0,.53,1.75.5.5,0,0,0,.58.2,5.92,5.92,0,0,0,1-.45A3.58,3.58,0,0,0,47.75,82Z"/><path class="cls-1" d="M44.54,81.1a2.61,2.61,0,0,1-.26,2.29,4.17,4.17,0,0,1-2.16-1.63,2.61,2.61,0,0,1,.26-2.3A4.17,4.17,0,0,1,44.54,81.1Z"/><path d="M44.54,81.1l-.45.22a1.35,1.35,0,0,1,.13.6,2.3,2.3,0,0,1-.18.85,2.8,2.8,0,0,1-.13.27l0,.07v0h0l.42.27.16-.47h0a5.11,5.11,0,0,1-.86-.41,2.54,2.54,0,0,1-1-1,1.35,1.35,0,0,1-.13-.6,2.31,2.31,0,0,1,.18-.85,2.81,2.81,0,0,1,.13-.27l0-.07v0h0l-.42-.27-.16.47h0a5.11,5.11,0,0,1,.86.41,2.54,2.54,0,0,1,1,1l.45-.22.45-.22a3.57,3.57,0,0,0-1.48-1.44,5.93,5.93,0,0,0-1-.45.5.5,0,0,0-.58.2,3.52,3.52,0,0,0-.52,1.75,2.36,2.36,0,0,0,.23,1,3.58,3.58,0,0,0,1.48,1.44,5.92,5.92,0,0,0,1,.45.5.5,0,0,0,.58-.2,3.52,3.52,0,0,0,.52-1.75,2.35,2.35,0,0,0-.23-1Z"/><path class="cls-1" d="M46,80.87A3.15,3.15,0,0,1,44.71,83a3.15,3.15,0,0,1-1.29-2.09,3.15,3.15,0,0,1,1.29-2.09A3.15,3.15,0,0,1,46,80.87Z"/><path d="M46,80.87h-.5A1.9,1.9,0,0,1,45,82a3.87,3.87,0,0,1-.39.4l-.13.11,0,0h0l.29.4.29-.4h0a3.77,3.77,0,0,1-.6-.59,1.83,1.83,0,0,1-.47-1.09,1.9,1.9,0,0,1,.53-1.15,3.87,3.87,0,0,1,.39-.4l.13-.11,0,0h0l-.29-.4-.29.4h0a3.77,3.77,0,0,1,.6.59,1.83,1.83,0,0,1,.47,1.09h1a2.86,2.86,0,0,0-.76-1.8,4.63,4.63,0,0,0-.73-.69.5.5,0,0,0-.59,0,4.64,4.64,0,0,0-.73.69,2.5,2.5,0,0,0,0,3.6,4.64,4.64,0,0,0,.73.69.5.5,0,0,0,.59,0,4.63,4.63,0,0,0,.73-.69,2.86,2.86,0,0,0,.76-1.8Z"/><path class="cls-1" d="M64,105.72c8.66,0-8.64,2.29-19.29,2.29s-28-2.29-19.29-2.29,8.64-2.29,19.29-2.29S55.37,105.72,64,105.72Z"/><path d="M50.25,94a77.06,77.06,0,0,1-11.12,0,1.62,1.62,0,0,1-1.53-1.75,1.65,1.65,0,0,1,1.77-1.48,73.66,73.66,0,0,0,10.65,0,1.65,1.65,0,0,1,1.77,1.48A1.62,1.62,0,0,1,50.25,94Z"/><ellipse cx="44" cy="54.1" rx="13.29" ry="2.05"/><path d="M57.29,54.1H57L56.8,54v.05H57L56.8,54l.06,0-.05,0v0l.06,0-.05,0a.87.87,0,0,1-.29.2,7.49,7.49,0,0,1-1.71.54A55.68,55.68,0,0,1,44,55.65a64.61,64.61,0,0,1-9.32-.59,15.47,15.47,0,0,1-2.75-.63,2.62,2.62,0,0,1-.64-.31L31.2,54l-.05,0,.06,0h0l-.05,0,.06,0L31,54.1h.16V54L31,54.1h0l.15.05V54.1H31l.15.05-.06,0,.05,0v0l-.06,0,.05,0a.87.87,0,0,1,.29-.2,7.49,7.49,0,0,1,1.71-.54A55.67,55.67,0,0,1,44,52.55a64.59,64.59,0,0,1,9.32.59,15.46,15.46,0,0,1,2.75.63,2.62,2.62,0,0,1,.64.31l.08.08.05,0-.06,0h0l.05,0-.06,0L57,54.1h-.16v.05L57,54.1h.84a.88.88,0,0,0-.15-.48,1.73,1.73,0,0,0-.67-.54,8.4,8.4,0,0,0-2-.63,56.56,56.56,0,0,0-11-.89,65.53,65.53,0,0,0-9.47.61,16.35,16.35,0,0,0-2.94.68,3.53,3.53,0,0,0-.9.45,1.34,1.34,0,0,0-.32.33.85.85,0,0,0,0,1,1.73,1.73,0,0,0,.67.54,8.4,8.4,0,0,0,2,.63,56.58,56.58,0,0,0,11,.89A65.55,65.55,0,0,0,53.47,56a16.34,16.34,0,0,0,2.94-.68,3.53,3.53,0,0,0,.9-.45,1.34,1.34,0,0,0,.32-.33.88.88,0,0,0,.15-.48Z"/><polygon class="cls-1" points="58.61 42.6 59.28 44.67 61.37 45.3 59.6 46.58 59.65 48.76 57.89 47.47 55.83 48.2 56.51 46.12 55.19 44.39 57.37 44.39 58.61 42.6"/><path d="M58.61,42.6l-.48.15.67,2.08a.5.5,0,0,0,.33.33l1.12.33-.95.69a.5.5,0,0,0-.21.42l0,1.17-.94-.69a.5.5,0,0,0-.46-.07l-1.1.39L57,46.28a.5.5,0,0,0-.08-.46l-.71-.93h1.17a.5.5,0,0,0,.41-.22L59,42.88l-.41-.28-.48.15.48-.15-.41-.28-1.09,1.58H55.19a.5.5,0,0,0-.4.8L56,46.22,55.36,48a.5.5,0,0,0,.64.63L57.81,48l1.55,1.13a.5.5,0,0,0,.79-.42l0-1.92,1.55-1.13a.5.5,0,0,0-.15-.88l-1.84-.55-.59-1.83a.5.5,0,0,0-.89-.13Z"/><polygon class="cls-1" points="46.49 47.31 46.12 49.17 47.45 50.52 45.56 50.75 44.68 52.42 43.89 50.7 42.02 50.38 43.41 49.1 43.14 47.22 44.79 48.15 46.49 47.31"/><path d="M46.49,47.31l-.49-.1-.37,1.86a.5.5,0,0,0,.13.45l.61.63-.87.1a.5.5,0,0,0-.38.26l-.41.78-.37-.8a.5.5,0,0,0-.37-.28l-.87-.15.65-.6a.5.5,0,0,0,.16-.44l-.13-.87.77.43a.5.5,0,0,0,.47,0l1.7-.84-.22-.45-.49-.1.49.1-.22-.45-1.46.72-1.42-.8a.5.5,0,0,0-.74.51l.23,1.61L41.68,50a.5.5,0,0,0,.25.86l1.61.28.68,1.48a.5.5,0,0,0,.9,0l.76-1.44L47.5,51a.5.5,0,0,0,.3-.85L46.67,49l.32-1.6a.5.5,0,0,0-.71-.55Z"/><polygon class="cls-1" points="27.48 40.01 28.31 41.69 30.16 41.96 28.82 43.27 29.14 45.11 27.48 44.24 25.83 45.11 26.14 43.27 24.8 41.96 26.65 41.69 27.48 40.01"/><path d="M27.48,40l-.45.22.83,1.68a.5.5,0,0,0,.38.27l.85.12-.61.6a.5.5,0,0,0-.14.44l.15.85-.76-.4a.5.5,0,0,0-.47,0l-.76.4.15-.85a.5.5,0,0,0-.14-.44l-.61-.6.85-.12a.5.5,0,0,0,.38-.27l.83-1.68L27.48,40l-.45.22.45-.22L27,39.79l-.71,1.44-1.59.23a.5.5,0,0,0-.28.85l1.15,1.12L25.33,45a.5.5,0,0,0,.73.53l1.42-.75,1.42.75a.5.5,0,0,0,.73-.53l-.27-1.59,1.15-1.12a.5.5,0,0,0-.28-.85l-1.59-.23-.71-1.44a.5.5,0,0,0-.9,0Z"/><polygon points="64.56 37.51 65.02 38.44 66.05 38.59 65.31 39.31 65.48 40.34 64.56 39.85 63.64 40.34 63.82 39.31 63.07 38.59 64.1 38.44 64.56 37.51"/><path d="M64.56,37.51l-.45.22.46.93a.5.5,0,0,0,.38.27h0l0,0a.5.5,0,0,0-.14.44v0h0a.5.5,0,0,0-.47,0h0v0a.5.5,0,0,0-.14-.44l0,0h0a.5.5,0,0,0,.38-.27l.46-.93-.45-.22-.45.22.45-.22-.45-.22-.34.7-.77.11a.5.5,0,0,0-.28.85l.56.54-.13.76a.5.5,0,0,0,.73.53l.69-.36.69.36a.5.5,0,0,0,.73-.53l-.13-.76.56-.54a.5.5,0,0,0-.28-.85L65.35,38l-.34-.7a.5.5,0,0,0-.9,0Z"/><polygon points="38.15 46.03 38.44 46.62 39.08 46.71 38.61 47.17 38.73 47.81 38.15 47.51 37.57 47.81 37.68 47.17 37.21 46.71 37.86 46.62 38.15 46.03"/><path d="M38.15,46l-.45.22.29.59a.5.5,0,0,0,.38.27l.65.09.07-.49-.35-.36-.47.46a.5.5,0,0,0-.14.44l.11.65.49-.09.23-.44-.58-.3a.5.5,0,0,0-.46,0l-.58.3.23.44.49.08.11-.65a.5.5,0,0,0-.14-.44l-.47-.46-.35.36.07.49.65-.09a.5.5,0,0,0,.38-.27l.29-.59L38.15,46l-.45.22.45-.22-.45-.22-.17.35-.39.06a.5.5,0,0,0-.28.85l.28.27-.07.39a.5.5,0,0,0,.73.53l.35-.18.35.18a.5.5,0,0,0,.72-.53l-.07-.39.28-.27a.5.5,0,0,0-.28-.85l-.39-.06-.17-.35a.5.5,0,0,0-.9,0Z"/><polygon points="51.52 45.7 51.55 46.27 52.03 46.58 51.5 46.78 51.36 47.33 51.01 46.89 50.44 46.93 50.75 46.45 50.53 45.92 51.09 46.07 51.52 45.7"/><path d="M51.52,45.7l-.5,0,0,.57a.5.5,0,0,0,.24.4l.49.3.26-.42-.18-.47-.54.2a.5.5,0,0,0-.31.35l-.14.56.49.12.39-.31-.36-.45a.5.5,0,0,0-.43-.19l-.57,0,0,.5.42.27.31-.48a.5.5,0,0,0,0-.46L51,45.73l-.46.19-.13.48.55.15a.5.5,0,0,0,.45-.1l.44-.37-.32-.38-.5,0,.5,0-.32-.38-.24.2-.3-.08a.5.5,0,0,0-.59.67l.12.29-.17.26a.5.5,0,0,0,.45.77l.31,0,.19.24a.5.5,0,0,0,.88-.19l.07-.3.29-.11a.5.5,0,0,0,.09-.89L52,46v-.31a.5.5,0,0,0-.82-.36Z"/><path d="M36.07,25.84a7.32,7.32,0,0,0-3.87,1.77,4.13,4.13,0,0,0-1.31,3A4.67,4.67,0,0,0,32.39,34a5.35,5.35,0,0,0,3.71,1.46h.18a1,1,0,1,0-.06-2H36.1a3.35,3.35,0,0,1-2.33-.91,2.68,2.68,0,0,1-.88-1.89A2.12,2.12,0,0,1,33.6,29a5.37,5.37,0,0,1,2.83-1.24,1,1,0,0,0-.35-2Z"/><path class="cls-1" d="M33.52,33.81c0-1.59.7-2.87,2.29-2.87a2.87,2.87,0,0,1,0,5.74C34.22,36.69,33.52,35.4,33.52,33.81Z"/><path d="M33.52,33.81H34a3,3,0,0,1,.45-1.74,1.52,1.52,0,0,1,1.33-.63,2.37,2.37,0,0,1,0,4.74,1.52,1.52,0,0,1-1.33-.63A3,3,0,0,1,34,33.81H33a4,4,0,0,0,.64,2.32,2.53,2.53,0,0,0,2.14,1,3.37,3.37,0,0,0,0-6.74,2.53,2.53,0,0,0-2.14,1A4,4,0,0,0,33,33.81Z"/><path class="cls-1" d="M41.16,33.81c0,1.83-.81,3.31-2.63,3.31a3.31,3.31,0,1,1,0-6.61C40.35,30.51,41.16,32,41.16,33.81Z"/><path d="M41.16,33.81h-.5a3.53,3.53,0,0,1-.54,2,1.83,1.83,0,0,1-1.59.76,2.81,2.81,0,1,1,0-5.61,1.83,1.83,0,0,1,1.59.76,3.53,3.53,0,0,1,.54,2h1a4.5,4.5,0,0,0-.73-2.63A2.84,2.84,0,0,0,38.53,30a3.81,3.81,0,1,0,0,7.61,2.84,2.84,0,0,0,2.41-1.18,4.5,4.5,0,0,0,.73-2.63Z"/><path d="M53,27.81A5.37,5.37,0,0,1,55.85,29a2.12,2.12,0,0,1,.7,1.56,2.68,2.68,0,0,1-.88,1.89,3.35,3.35,0,0,1-2.33.91h-.12a1,1,0,1,0-.06,2h.18A5.35,5.35,0,0,0,57.05,34a4.67,4.67,0,0,0,1.5-3.34,4.13,4.13,0,0,0-1.31-3,7.32,7.32,0,0,0-3.87-1.77,1,1,0,1,0-.35,2Z"/><path class="cls-1" d="M55.93,33.81c0-1.59-.7-2.87-2.29-2.87a2.87,2.87,0,0,0,0,5.74C55.23,36.69,55.93,35.4,55.93,33.81Z"/><path d="M55.93,33.81h.5a4,4,0,0,0-.64-2.32,2.53,2.53,0,0,0-2.14-1,3.37,3.37,0,1,0,0,6.74,2.53,2.53,0,0,0,2.14-1,4,4,0,0,0,.64-2.32h-1A3,3,0,0,1,55,35.55a1.52,1.52,0,0,1-1.33.63,2.37,2.37,0,1,1,0-4.74,1.52,1.52,0,0,1,1.33.63,3,3,0,0,1,.45,1.74Z"/><path class="cls-1" d="M48.29,33.81c0,1.83.81,3.31,2.63,3.31a3.31,3.31,0,1,0,0-6.61C49.09,30.51,48.29,32,48.29,33.81Z"/><path d="M48.29,33.81h-.5a4.5,4.5,0,0,0,.72,2.63,2.84,2.84,0,0,0,2.41,1.18,3.81,3.81,0,0,0,0-7.61,2.84,2.84,0,0,0-2.41,1.18,4.5,4.5,0,0,0-.72,2.63h1a3.53,3.53,0,0,1,.54-2A1.83,1.83,0,0,1,50.92,31a2.81,2.81,0,0,1,0,5.61,1.83,1.83,0,0,1-1.59-.76,3.53,3.53,0,0,1-.54-2Z"/><path d="M40.84,32.55l-3.55,8.17A2,2,0,0,0,41,42.31l3.55-8.17a2,2,0,0,0-3.67-1.6"/><path class="cls-1" d="M33.14,37.65c1.67-2.57,4.47-2,5.69,1,3.26,1.51,2.45,3.08,1.57,4.17"/><path d="M33.56,37.92a2.66,2.66,0,0,1,2.17-1.42,2.25,2.25,0,0,1,1.43.56,4.35,4.35,0,0,1,1.21,1.75.5.5,0,0,0,.25.27,5.07,5.07,0,0,1,1.68,1.12,1.28,1.28,0,0,1,.38.87A2.45,2.45,0,0,1,40,42.48a.5.5,0,1,0,.78.63,3.37,3.37,0,0,0,.89-2,2.29,2.29,0,0,0-.63-1.53,6,6,0,0,0-2-1.36l-.21.45.46-.19a5.34,5.34,0,0,0-1.51-2.15,3.25,3.25,0,0,0-2.06-.78,3.65,3.65,0,0,0-3,1.88.5.5,0,1,0,.84.54Z"/><path class="cls-1" d="M39.07,40.53c1,.82,1.46,2,1,2.54s-1.68.39-2.7-.43S36.5,41.29,37,40.7,38,39.71,39.07,40.53Z"/><path d="M39.07,40.53l-.31.39a3.24,3.24,0,0,1,.75.85,1.51,1.51,0,0,1,.24.73.4.4,0,0,1-.08.26.54.54,0,0,1-.44.15,2.69,2.69,0,0,1-1.55-.66,2.25,2.25,0,0,1-.48-.49.45.45,0,0,1-.09-.25.87.87,0,0,1,.26-.49,1.71,1.71,0,0,1,.36-.35.52.52,0,0,1,.3-.1,1.24,1.24,0,0,1,.73.35l.31-.39.31-.39A2.2,2.2,0,0,0,38,39.57a1.53,1.53,0,0,0-.86.27,2.67,2.67,0,0,0-.58.55,1.8,1.8,0,0,0-.48,1.12,1.45,1.45,0,0,0,.25.79,3.21,3.21,0,0,0,.69.73,3.64,3.64,0,0,0,2.18.88,1.52,1.52,0,0,0,1.22-.52,1.4,1.4,0,0,0,.3-.89,2.48,2.48,0,0,0-.38-1.24,4.23,4.23,0,0,0-1-1.12Z"/><path class="cls-1" d="M36.51,38.19c1.27,1,1.05,1.78.47,2.51s-1.32,1.15-2.59.12-1.83-2.45-1.24-3.17S35.24,37.17,36.51,38.19Z"/><path d="M36.51,38.19l-.31.39a2.68,2.68,0,0,1,.61.64.78.78,0,0,1,.14.42,1.27,1.27,0,0,1-.36.75,2,2,0,0,1-.43.42.72.72,0,0,1-.41.13,1.78,1.78,0,0,1-1-.5,4.17,4.17,0,0,1-1-1.09,2,2,0,0,1-.32-1,.62.62,0,0,1,.12-.41.79.79,0,0,1,.65-.23,3.47,3.47,0,0,1,2,.85l.31-.39.31-.39a4.42,4.42,0,0,0-2.64-1.07,1.78,1.78,0,0,0-1.43.61,1.62,1.62,0,0,0-.35,1,3,3,0,0,0,.46,1.48,5.16,5.16,0,0,0,1.2,1.36,2.73,2.73,0,0,0,1.68.72,1.72,1.72,0,0,0,1-.29,2.93,2.93,0,0,0,.67-.63,2.22,2.22,0,0,0,.58-1.38,1.78,1.78,0,0,0-.29-.94,3.65,3.65,0,0,0-.83-.9Z"/><path d="M45,34.14l3.55,8.17a2,2,0,0,0,3.67-1.6l-3.55-8.17A2,2,0,0,0,45,34.14"/><path class="cls-1" d="M56.36,37.65c-1.67-2.57-4.47-2-5.69,1-3.26,1.51-2.45,3.08-1.57,4.17"/><path d="M56.78,37.38a3.65,3.65,0,0,0-3-1.88,3.25,3.25,0,0,0-2.06.78,5.34,5.34,0,0,0-1.51,2.15l.46.19-.21-.45a6,6,0,0,0-2,1.36,2.29,2.29,0,0,0-.63,1.53,3.37,3.37,0,0,0,.89,2,.5.5,0,1,0,.78-.63,2.45,2.45,0,0,1-.67-1.41,1.28,1.28,0,0,1,.38-.87,5.08,5.08,0,0,1,1.68-1.12.5.5,0,0,0,.25-.27,4.35,4.35,0,0,1,1.21-1.75,2.25,2.25,0,0,1,1.43-.56,2.66,2.66,0,0,1,2.17,1.42.5.5,0,1,0,.84-.54Z"/><path class="cls-1" d="M50.43,40.53c-1,.82-1.46,2-1,2.54s1.68.39,2.7-.43.86-1.35.39-1.93S51.45,39.71,50.43,40.53Z"/><path d="M50.43,40.53l-.31-.39a4.23,4.23,0,0,0-1,1.12,2.48,2.48,0,0,0-.38,1.24,1.4,1.4,0,0,0,.3.89,1.52,1.52,0,0,0,1.22.52A3.64,3.64,0,0,0,52.45,43a3.21,3.21,0,0,0,.69-.73,1.45,1.45,0,0,0,.25-.79,1.8,1.8,0,0,0-.48-1.12,2.67,2.67,0,0,0-.58-.55,1.53,1.53,0,0,0-.86-.27,2.2,2.2,0,0,0-1.36.57l.31.39.31.39a1.24,1.24,0,0,1,.73-.35.53.53,0,0,1,.3.1,1.71,1.71,0,0,1,.35.35.88.88,0,0,1,.26.49.46.46,0,0,1-.09.25,2.25,2.25,0,0,1-.48.49,2.69,2.69,0,0,1-1.55.66.54.54,0,0,1-.44-.15.4.4,0,0,1-.08-.26,1.51,1.51,0,0,1,.24-.73,3.24,3.24,0,0,1,.75-.85Z"/><path class="cls-1" d="M53,38.19c-1.27,1-1.05,1.78-.47,2.51s1.32,1.15,2.59.12,1.83-2.45,1.24-3.17S54.26,37.17,53,38.19Z"/><path d="M53,38.19l-.31-.39a3.65,3.65,0,0,0-.83.9,1.78,1.78,0,0,0-.29.94A2.21,2.21,0,0,0,52.14,41a2.93,2.93,0,0,0,.67.63,1.72,1.72,0,0,0,1,.29,2.73,2.73,0,0,0,1.68-.72,5.16,5.16,0,0,0,1.2-1.36,3,3,0,0,0,.46-1.48,1.62,1.62,0,0,0-.34-1,1.78,1.78,0,0,0-1.43-.61,4.42,4.42,0,0,0-2.64,1.07l.31.39.31.39a3.46,3.46,0,0,1,2-.85A.79.79,0,0,1,56,38a.62.62,0,0,1,.12.41,2,2,0,0,1-.32,1,4.17,4.17,0,0,1-1,1.09,1.78,1.78,0,0,1-1,.5.72.72,0,0,1-.41-.13,2,2,0,0,1-.43-.42,1.26,1.26,0,0,1-.36-.75.78.78,0,0,1,.14-.42,2.69,2.69,0,0,1,.61-.64Z"/><path d="M47.2,32.28a.43.43,0,0,0-.47-.33c-1.43.11-3.42-1.07-4.49.41a.51.51,0,0,0,0,.7c1.23,1.17,3.63.77,5,.05A.46.46,0,0,0,47.2,32.28Z"/><path class="cls-1" d="M44.71,33.91c-3.35,0-10.13-6.82-10.13-12.4,0-6.11,5.23-8.29,10.13-8.29s10.13,2.18,10.13,8.29C54.84,27.09,48.06,33.91,44.71,33.91Z"/><path d="M44.71,13.72c4.66,0,9.63,2,9.63,7.79,0,5.55-6.84,11.9-9.63,11.9s-9.63-6.35-9.63-11.9c0-5.74,5-7.79,9.63-7.79m0-1c-5.87,0-10.63,2.92-10.63,8.79s7.07,12.9,10.63,12.9,10.63-7,10.63-12.9S50.58,12.72,44.71,12.72Z"/><path class="cls-1" d="M50.25,13.27c-1.12,2.32-4.62,3.49-4.62,3.49s-1.69-2.59-.57-4.91,4.62-3.49,4.62-3.49S51.37,11,50.25,13.27Z"/><path d="M50.25,13.27l-.45-.22a6.17,6.17,0,0,1-2.53,2.4,11.83,11.83,0,0,1-1.27.63l-.39.16-.1,0h0l.16.47.42-.27h0a6.05,6.05,0,0,1-.86-2.89,3.46,3.46,0,0,1,.33-1.52A6.17,6.17,0,0,1,48,9.67,11.83,11.83,0,0,1,49.31,9l.39-.16.1,0h0l-.16-.47-.42.27h0a6.06,6.06,0,0,1,.86,2.89,3.47,3.47,0,0,1-.33,1.52l.45.22.45.22a4.47,4.47,0,0,0,.43-2,7,7,0,0,0-1-3.44.5.5,0,0,0-.58-.2,12.14,12.14,0,0,0-2,.91,7.11,7.11,0,0,0-2.93,2.83,4.46,4.46,0,0,0-.43,2,7,7,0,0,0,1,3.44.5.5,0,0,0,.58.2,12.14,12.14,0,0,0,2-.91,7.11,7.11,0,0,0,2.93-2.83Z"/><path class="cls-1" d="M44.35,11.85c1.12,2.32-.57,4.91-.57,4.91s-3.5-1.17-4.62-3.49.57-4.91.57-4.91S43.24,9.53,44.35,11.85Z"/><path d="M44.35,11.85l-.45.22a3.47,3.47,0,0,1,.33,1.52,5.49,5.49,0,0,1-.44,2,6.55,6.55,0,0,1-.3.64l-.1.17,0,0h0l.42.27.16-.47h0a11.46,11.46,0,0,1-2-.93,6,6,0,0,1-2.34-2.29,3.46,3.46,0,0,1-.33-1.52,5.49,5.49,0,0,1,.44-2,6.56,6.56,0,0,1,.3-.64l.1-.17,0,0h0l-.42-.27-.16.47h0a11.46,11.46,0,0,1,2,.93,6,6,0,0,1,2.34,2.29l.45-.22.45-.22A7.11,7.11,0,0,0,41.87,8.8a12.14,12.14,0,0,0-2-.91.5.5,0,0,0-.58.2,7,7,0,0,0-1,3.44,4.47,4.47,0,0,0,.43,2,7.11,7.11,0,0,0,2.93,2.83,12.14,12.14,0,0,0,2,.91.5.5,0,0,0,.58-.2,7,7,0,0,0,1-3.44,4.47,4.47,0,0,0-.43-2Z"/><path class="cls-1" d="M47.47,11.83c0,2.72-2.76,4.93-2.76,4.93S42,14.55,42,11.83,44.71,6.9,44.71,6.9,47.47,9.11,47.47,11.83Z"/><path d="M47.47,11.83H47A5.42,5.42,0,0,1,45.69,15a9.4,9.4,0,0,1-.9,1l-.29.27-.08.07,0,0,.31.39.31-.39,0,0a9.08,9.08,0,0,1-1.39-1.5,5.27,5.27,0,0,1-1.15-3,5.42,5.42,0,0,1,1.27-3.18,9.4,9.4,0,0,1,.9-1l.29-.27L45,7.31l0,0-.31-.39-.31.39,0,0a9.08,9.08,0,0,1,1.39,1.5,5.27,5.27,0,0,1,1.15,3h1A6.38,6.38,0,0,0,46.49,8,9.79,9.79,0,0,0,45,6.51a.5.5,0,0,0-.62,0A9.79,9.79,0,0,0,42.94,8a6.38,6.38,0,0,0-1.48,3.79,6.38,6.38,0,0,0,1.48,3.79,9.79,9.79,0,0,0,1.46,1.53.5.5,0,0,0,.62,0,9.79,9.79,0,0,0,1.46-1.53A6.38,6.38,0,0,0,48,11.83Z"/><path class="cls-1" d="M47.73,15.57l-.15,0a6.34,6.34,0,0,0-2.85-.62,6.1,6.1,0,0,0-3,.74c-.77.24-1.46.74-1.31,1.62.22,1.31,2.37,1.62,3.38,1.68a6.53,6.53,0,0,0,4.5-1.26A1.22,1.22,0,0,0,47.73,15.57Z"/><path d="M41.5,16.4a5,5,0,0,1,3.23-1,5.2,5.2,0,0,1,3.14.89.5.5,0,0,0,.63-.78,6.14,6.14,0,0,0-3.77-1.11,6,6,0,0,0-3.9,1.22.5.5,0,1,0,.67.74Z"/><path d="M42.79,22.2v.07a.5.5,0,1,0,1,0V22.2a.5.5,0,0,0-1,0"/><path d="M45.63,22.2v.07a.5.5,0,1,0,1,0V22.2a.5.5,0,0,0-1,0"/><path d="M41.8,24a1,1,0,0,1,0,1.94.5.5,0,1,0,0,1,2,2,0,0,0,0-3.94.5.5,0,1,0,0,1Z"/><path d="M47.74,26a1,1,0,1,1,0-1.94.5.5,0,0,0,0-1,2,2,0,1,0,0,3.94.5.5,0,0,0,0-1Z"/><path d="M43,25.39a7.53,7.53,0,0,0,.73.46,3.38,3.38,0,0,0,1.49.49,1.17,1.17,0,0,0,.59-.15,1,1,0,0,0,.44-.52,1.78,1.78,0,0,0,.13-.67,1.68,1.68,0,0,0-.25-.88,2.88,2.88,0,0,0-1.21-1,.5.5,0,1,0-.4.92l.07-.15-.07.15h0l.07-.15-.07.15a2.23,2.23,0,0,1,.48.31,1.34,1.34,0,0,1,.28.32.68.68,0,0,1,.1.35.78.78,0,0,1-.06.29v0h-.09a2.58,2.58,0,0,1-1-.36l-.45-.27-.13-.09,0,0a.5.5,0,1,0-.59.81Z"/><path d="M45.15,27.69l1-1.9.45-.45a.5.5,0,1,0-.71-.71l-.5.5-.09.12-1.07,2a.5.5,0,1,0,.88.48Z"/><path d="M42.39,20.67,44,20a.5.5,0,0,0-.37-.93l-1.6.63a.5.5,0,0,0,.37.93"/><path d="M47.47,19.74l-1.6-.63a.5.5,0,0,0-.37.93l1.6.63a.5.5,0,0,0,.37-.93"/><path d="M38,24.25l1.33,1.33a.5.5,0,1,0,.71-.71l-1.33-1.33a.5.5,0,0,0-.71.71"/><path d="M39.29,23.54,38,24.87a.5.5,0,0,0,.71.71L40,24.25a.5.5,0,1,0-.71-.71"/><path d="M49.5,24.25l1.33,1.33a.5.5,0,1,0,.71-.71l-1.33-1.33a.5.5,0,0,0-.71.71"/><path d="M50.83,23.54,49.5,24.87a.5.5,0,0,0,.71.71l1.33-1.33a.5.5,0,1,0-.71-.71"/><polygon class="cls-1" points="50.63 32.85 44.67 31.36 38.7 32.85 38.7 28.17 44.67 29.66 50.63 28.17 50.63 32.85"/><path d="M50.63,32.85l.12-.49-6-1.49h-.24L39.2,32.21V28.81l5.34,1.34h.24l5.34-1.34v4h.5l.12-.49-.12.49h.5V28.17a.5.5,0,0,0-.62-.49l-5.84,1.46-5.84-1.46a.5.5,0,0,0-.62.49v4.67a.5.5,0,0,0,.62.49l5.84-1.46,5.84,1.46a.5.5,0,0,0,.62-.49Z"/><circle class="cls-1" cx="44.67" cy="30.51" r="1.46"/><path d="M46.13,30.51h-.5a1,1,0,1,1-1-1,1,1,0,0,1,1,1h1a2,2,0,1,0-2,2,2,2,0,0,0,2-2Z"/></svg>