<svg id="Layer_1" data-name="Layer 1" xmlns="http://www.w3.org/2000/svg" viewBox="0 0 40 32"><defs><style>.cls-1{fill:#fff;}</style></defs><title>image-jamkid-exclamation-02</title><path class="cls-1" d="M31.85,27.85l-14-3.11-.26-.07L3.94,20.83A4.86,4.86,0,0,1,.64,14.67l1-3a4.92,4.92,0,0,0,.15-.6L2.32,8A4.86,4.86,0,0,1,8.14,4.14l13.92,3.1.26.07,13.73,3.87a4.86,4.86,0,0,1,3.31,6.16l-1,3a4.92,4.92,0,0,0-.15.6L37.68,24A4.86,4.86,0,0,1,31.85,27.85Z"/><path d="M7.09,6h0a2.89,2.89,0,0,1,.63.07l13.92,3.1.15,0L35.51,13.1a2.86,2.86,0,0,1,1.94,3.62l-1,3a7,7,0,0,0-.21.85l-.57,3.08a2.85,2.85,0,0,1-3.43,2.27l-14-3.11-.15,0L4.49,18.9a2.86,2.86,0,0,1-1.94-3.62l1-3a7,7,0,0,0,.21-.85l.57-3.08A2.85,2.85,0,0,1,7.09,6m0-2A4.86,4.86,0,0,0,2.32,8l-.57,3.08a4.75,4.75,0,0,1-.15.6l-1,3a4.86,4.86,0,0,0,3.31,6.16l13.65,3.85.26.07,14,3.12A4.85,4.85,0,0,0,37.68,24l.57-3.08a4.75,4.75,0,0,1,.15-.6l1-3a4.86,4.86,0,0,0-3.31-6.16L22.33,7.31l-.26-.07L8.14,4.14A4.87,4.87,0,0,0,7.08,4Z"/><path class="cls-1" d="M7.09,5.53h0a3.4,3.4,0,0,1,.73.08L21.74,8.7l.18,0,13.73,3.87a3.36,3.36,0,0,1,2.29,4.26l-1,3a6.38,6.38,0,0,0-.2.79l-.57,3.08a3.35,3.35,0,0,1-3.29,2.75,3.4,3.4,0,0,1-.73-.08l-14-3.11-.18,0L4.35,19.38a3.36,3.36,0,0,1-2.29-4.26l1-3a6.38,6.38,0,0,0,.2-.79l.57-3.08a3.35,3.35,0,0,1,3.3-2.75m0-1.5A4.86,4.86,0,0,0,2.32,8l-.57,3.08a4.75,4.75,0,0,1-.15.6l-1,3a4.86,4.86,0,0,0,3.31,6.16l13.65,3.85.26.07,14,3.12A4.85,4.85,0,0,0,37.68,24l.57-3.08a4.75,4.75,0,0,1,.15-.6l1-3a4.86,4.86,0,0,0-3.31-6.16L22.33,7.31l-.26-.07L8.14,4.14A4.87,4.87,0,0,0,7.08,4Z"/><path d="M7.09,5h0a3.9,3.9,0,0,1,.84.09l13.92,3.1.21.05,13.73,3.87A3.86,3.86,0,0,1,38.41,17l-1,3a5.92,5.92,0,0,0-.18.73l-.57,3.08a3.85,3.85,0,0,1-4.63,3.06l-14-3.11-.21-.05L4.21,19.86A3.86,3.86,0,0,1,1.59,15l1-3a5.92,5.92,0,0,0,.18-.73L3.3,8.18A3.85,3.85,0,0,1,7.09,5m0-1A4.86,4.86,0,0,0,2.32,8l-.57,3.08a4.75,4.75,0,0,1-.15.6l-1,3a4.86,4.86,0,0,0,3.31,6.16l13.65,3.85.26.07,14,3.12A4.85,4.85,0,0,0,37.68,24l.57-3.08a4.75,4.75,0,0,1,.15-.6l1-3a4.86,4.86,0,0,0-3.31-6.16L22.33,7.31l-.26-.07L8.14,4.14A4.87,4.87,0,0,0,7.08,4Z"/><polygon points="9.45 9.39 8.96 11.33 8.35 11.18 7.9 9.67 7.57 10.98 7.11 10.86 7.59 8.92 8.21 9.08 8.66 10.59 8.99 9.28 9.45 9.39"/><path d="M9.46,10.57l.07-.28c.15-.61.66-.78,1.26-.62s1,.54.82,1.15l-.07.28c-.16.62-.67.79-1.27.63S9.31,11.19,9.46,10.57Zm1.56.35,0-.2a.45.45,0,0,0-.37-.63.46.46,0,0,0-.63.38l0,.2a.46.46,0,0,0,.38.64A.45.45,0,0,0,11,10.91Z"/><polygon points="15.3 10.87 14.16 12.64 13.57 12.49 13.51 11.01 12.75 12.28 12.16 12.13 11.99 10.03 12.61 10.19 12.65 11.58 13.34 10.37 13.95 10.53 13.99 11.92 14.69 10.71 15.3 10.87"/><polygon points="19.54 11.93 18.39 13.7 17.81 13.56 17.74 12.07 16.98 13.35 16.39 13.2 16.22 11.1 16.84 11.25 16.88 12.64 17.57 11.44 18.19 11.59 18.22 12.98 18.92 11.78 19.54 11.93"/><rect x="18.76" y="12.75" width="2" height="0.54" transform="translate(2.31 29) rotate(-75.89)"/><polygon points="22.17 13.05 21.53 12.89 21.15 14.4 20.62 14.27 21 12.76 20.37 12.6 20.48 12.17 22.27 12.62 22.17 13.05"/><polygon points="24.36 13.15 23.87 15.09 23.34 14.95 23.51 14.25 22.71 14.05 22.54 14.75 22 14.61 22.49 12.68 23.03 12.81 22.82 13.64 23.61 13.84 23.82 13.01 24.36 13.15"/><polygon points="27.45 15.99 26.96 15.86 27.25 14.7 26.51 15.75 25.98 15.62 25.83 14.35 25.54 15.51 25.05 15.38 25.54 13.44 26.21 13.61 26.39 15.11 27.26 13.88 27.94 14.05 27.45 15.99"/><path d="M28,15.23l.07-.28c.15-.61.66-.78,1.26-.62s1,.54.82,1.15l-.07.28c-.16.62-.67.79-1.27.63S27.79,15.85,28,15.23Zm1.55.35,0-.2a.52.52,0,0,0-1-.25l0,.2a.46.46,0,0,0,.38.64A.45.45,0,0,0,29.51,15.57Z"/><path d="M31.5,17l-.27-.68h0l-.45-.11-.14.57-.53-.13.49-1.94,1,.25c.53.13.81.42.69.88v0a.59.59,0,0,1-.5.48l.31.78Zm-.61-1.21.39.1c.22.05.39,0,.44-.15v0c0-.18-.1-.29-.32-.34l-.39-.1Z"/><polygon points="33.19 15.79 33.09 16.16 34.02 16.39 33.92 16.79 32.99 16.56 32.9 16.92 33.89 17.17 33.78 17.58 32.27 17.2 32.76 15.26 34.27 15.64 34.17 16.04 33.19 15.79"/><polygon points="8.1 12.6 7.66 12.48 6.62 16.63 6 16.47 7.05 12.33 6.61 12.22 6.74 11.72 8.23 12.09 8.1 12.6"/><polygon points="8.93 14.99 8.93 14.99 8.4 17.07 7.8 16.92 8.32 14.84 8.32 14.84 8.41 12.14 9 12.29 8.79 14.26 9.54 12.42 10.13 12.57 8.93 14.99"/><path d="M11.82,13.81l-.32,1.28a.7.7,0,0,1-1,.56l-.21-.05-.47,1.85-.59-.15,1.17-4.65.81.2A.7.7,0,0,1,11.82,13.81Zm-.63-.12c.05-.24,0-.32-.13-.35l-.15,0-.45,1.79.15,0c.13,0,.23,0,.29-.24Z"/><polygon points="12.61 17.54 12.47 18.1 11.22 17.79 12.39 13.14 13.63 13.45 13.49 14 12.87 13.84 12.49 15.33 13.06 15.47 12.92 16 12.36 15.86 11.98 17.38 12.61 17.54"/><polygon points="15.3 14.41 14.86 14.3 13.82 18.44 13.21 18.29 14.25 14.15 13.82 14.04 13.95 13.53 15.43 13.9 15.3 14.41"/><polygon points="17.35 14.39 16.18 19.03 15.57 18.88 16.08 16.85 15.69 16.75 15.17 18.78 14.56 18.63 15.73 13.98 16.34 14.13 15.81 16.26 16.2 16.36 16.74 14.23 17.35 14.39"/><path d="M16.74,18.43l1-3.95.63.16-1,3.93c-.06.24,0,.3.13.33s.21,0,.27-.23l1-3.93.63.16-1,3.95c-.14.55-.49.69-1,.55S16.6,19,16.74,18.43Z"/><path d="M19.83,17.94l-.14,0-.48,1.89-.61-.15L19.76,15l.82.21a.7.7,0,0,1,.58,1l-.32,1.28a.68.68,0,0,1-.42.54l-.17,2.09-.63-.16Zm0-.5.14,0c.13,0,.22,0,.28-.25l.3-1.2c.06-.24,0-.32-.13-.35l-.14,0Z"/><path d="M20.71,19.44l.2-.79.63.16-.19.76c-.06.23,0,.3.12.33s.21,0,.27-.23l.19-.76a.66.66,0,0,0-.12-.5l-.37-.59a1,1,0,0,1-.1-.8l.22-.88c.14-.54.46-.67,1-.54s.75.4.62.94l-.2.8-.62-.16.2-.78c.06-.23,0-.28-.12-.31s-.19,0-.25.22l-.19.75a.62.62,0,0,0,.08.46l.35.58a1,1,0,0,1,.16.85l-.23.9c-.14.54-.48.68-1,.55S20.58,20,20.71,19.44Z"/><path d="M25.14,17.16l-.79,3.12a.69.69,0,0,1-1,.57l-.85-.21L23.73,16l.83.21A.7.7,0,0,1,25.14,17.16ZM24.51,17c.05-.24,0-.32-.13-.35l-.16,0-.92,3.64.16,0c.13,0,.23,0,.28-.24Z"/><path d="M25.77,20.17l-.37-.09L25,21.25l-.61-.15,1.75-4.5.63.16-.58,4.79-.61-.15Zm.08-.5.26-1.6-.54,1.53Z"/><polygon points="27.8 19.75 27.8 19.75 27.27 21.83 26.67 21.68 27.2 19.6 27.19 19.59 27.28 16.89 27.88 17.04 27.66 19.01 28.41 17.18 29 17.32 27.8 19.75"/><path d="M28.19,21.33l.2-.79.63.16-.19.76c-.06.23,0,.3.12.33s.21,0,.27-.23l.19-.76a.66.66,0,0,0-.12-.5l-.37-.59a1,1,0,0,1-.1-.8L29,18c.14-.54.46-.67,1-.54s.75.4.62.94l-.2.8-.62-.16.2-.78c.06-.23,0-.28-.12-.31s-.19,0-.25.22l-.19.75a.62.62,0,0,0,.08.46l.35.58a1,1,0,0,1,.16.85l-.23.9c-.14.54-.48.68-1,.54S28.05,21.87,28.19,21.33Z"/><polygon points="31.69 18.58 31.3 20.13 31.89 20.28 31.76 20.81 31.17 20.66 30.66 22.68 30.03 22.52 31.2 17.88 32.49 18.2 32.35 18.75 31.69 18.58"/><path d="M31.84,22.22l.59.15-.18.71-.59-.15Zm1-3.94.67.17L32.5,22l-.56-.14Z"/></svg>