<svg id="Layer_1" data-name="Layer 1" xmlns="http://www.w3.org/2000/svg" viewBox="0 0 88 120"><defs><style>.cls-1{fill:#fff;}</style></defs><title>image-jamkid-mascot-jar</title><ellipse cx="39.99" cy="105.16" rx="31.64" ry="4.87"/><path d="M71.63,105.16h-.5a.4.4,0,0,1-.08.22,2.58,2.58,0,0,1-1,.72,18.54,18.54,0,0,1-4.24,1.35c-5.65,1.25-15.14,2.08-25.86,2.08a154.51,154.51,0,0,1-22.3-1.42A37.43,37.43,0,0,1,11,106.58a6.85,6.85,0,0,1-1.71-.84,1.54,1.54,0,0,1-.36-.36.35.35,0,0,1,0-.45,2.58,2.58,0,0,1,1-.72,18.54,18.54,0,0,1,4.24-1.35c5.65-1.25,15.14-2.08,25.86-2.08a154.46,154.46,0,0,1,22.3,1.42A37.43,37.43,0,0,1,69,103.73a6.85,6.85,0,0,1,1.71.84,1.54,1.54,0,0,1,.36.36.4.4,0,0,1,.08.22h1a1.4,1.4,0,0,0-.25-.77,3.47,3.47,0,0,0-1.33-1.06,19.4,19.4,0,0,0-4.49-1.44c-5.78-1.28-15.3-2.1-26.08-2.1a155.41,155.41,0,0,0-22.45,1.43,38.31,38.31,0,0,0-6.88,1.57,7.76,7.76,0,0,0-2,1,2.51,2.51,0,0,0-.6.61,1.34,1.34,0,0,0,0,1.55A3.47,3.47,0,0,0,9.43,107a19.4,19.4,0,0,0,4.49,1.44c5.78,1.28,15.3,2.1,26.08,2.1a155.45,155.45,0,0,0,22.45-1.43,38.31,38.31,0,0,0,6.88-1.57,7.76,7.76,0,0,0,2-1,2.51,2.51,0,0,0,.6-.61,1.4,1.4,0,0,0,.25-.77Z"/><path class="cls-1" d="M18.39,104.73c0,2.24,11.78,4.05,26.32,4.05S71,107,71,104.73V60.32H18.39Z"/><path d="M20.39,102.26a2.62,2.62,0,0,0,1.93,2.54c3.54.94,11.07,2,22.39,2s18.85-1,22.39-2A2.62,2.62,0,0,0,69,102.26V62.32H20.39Z"/><path class="cls-1" d="M44.71,100.18c-10.49,0-17.38-1-18.67-1.82V72c6.19.59,12.46.89,18.67.89s12.48-.3,18.67-.89V98.36C62.09,99.16,55.2,100.18,44.71,100.18Z"/><path d="M62.38,73.05V97.69c-1.92.62-8,1.49-17.67,1.49S29,98.31,27,97.69V73.05c5.86.53,11.79.8,17.67.8s11.8-.27,17.67-.8m2-2.2a194.35,194.35,0,0,1-19.67,1,194.35,194.35,0,0,1-19.67-1V98.65c0,1.4,8.8,2.54,19.67,2.54S64.38,100,64.38,98.65Z"/><path d="M44.21,86.28v1a.5.5,0,0,0,1,0v-1a.5.5,0,0,0-1,0"/><path d="M44.21,101.11v2a.5.5,0,0,0,1,0v-2a.5.5,0,0,0-1,0Zm0-4v2a.5.5,0,1,0,1,0v-2a.5.5,0,0,0-1,0Zm0-4v2a.5.5,0,0,0,1,0v-2a.5.5,0,0,0-1,0Zm0-4v2a.5.5,0,0,0,1,0v-2a.5.5,0,0,0-1,0Z"/><path d="M44.21,105.06v1a.5.5,0,0,0,1,0v-1a.5.5,0,1,0-1,0"/><path d="M44.29,86.54l.54.84a.5.5,0,0,0,.84-.54L45.13,86a.5.5,0,0,0-.84.54"/><path d="M52.49,99.4l1.09,1.72a.5.5,0,0,0,.84-.54l-1.09-1.72a.5.5,0,0,0-.84.54ZM50.3,96l1.09,1.72a.5.5,0,1,0,.84-.54l-1.09-1.72a.5.5,0,1,0-.84.54Zm-2.19-3.43,1.09,1.72a.5.5,0,1,0,.84-.54L49,92a.5.5,0,1,0-.84.54ZM45.92,89.1,47,90.82a.5.5,0,1,0,.84-.54l-1.09-1.72a.5.5,0,1,0-.84.54Z"/><path d="M54.68,102.83l.54.84a.5.5,0,0,0,.84-.54l-.54-.84a.5.5,0,1,0-.84.54"/><path d="M44.48,86.72l.89.45a.5.5,0,0,0,.45-.89l-.89-.45a.5.5,0,1,0-.45.89"/><path d="M59.07,94.16l2,1a.5.5,0,1,0,.45-.89l-2-1a.5.5,0,0,0-.45.89Zm-3.91-2,2,1a.5.5,0,0,0,.45-.89l-2-1a.5.5,0,0,0-.45.89Zm-3.91-2,2,1a.5.5,0,0,0,.45-.89l-2-1a.5.5,0,1,0-.45.89Zm-3.91-2,2,1a.5.5,0,1,0,.45-.89l-2-1a.5.5,0,0,0-.45.89Z"/><path d="M63,96.16l.89.45a.5.5,0,0,0,.45-.89l-.89-.45a.5.5,0,1,0-.45.89"/><path d="M44.71,86.78h1a.5.5,0,0,0,0-1h-1a.5.5,0,0,0,0,1"/><path d="M61.15,86.78h2.21a.5.5,0,0,0,0-1H61.15a.5.5,0,1,0,0,1Zm-4.41,0h2.21a.5.5,0,0,0,0-1H56.74a.5.5,0,0,0,0,1Zm-4.41,0h2.21a.5.5,0,1,0,0-1H52.33a.5.5,0,0,0,0,1Zm-4.41,0h2.21a.5.5,0,0,0,0-1H47.92a.5.5,0,0,0,0,1Z"/><path d="M65.57,86.78h1a.5.5,0,0,0,0-1h-1a.5.5,0,0,0,0,1"/><path d="M44.94,86.72l.89-.46a.5.5,0,0,0-.46-.89l-.89.46a.5.5,0,1,0,.46.89"/><path d="M59.52,79.28l2-1a.5.5,0,1,0-.45-.89l-2,1a.5.5,0,0,0,.45.89Zm-3.91,2,2-1a.5.5,0,1,0-.45-.89l-2,1a.5.5,0,0,0,.45.89Zm-3.91,2,2-1a.5.5,0,0,0-.45-.89l-2,1a.5.5,0,0,0,.45.89Zm-3.91,2,2-1a.5.5,0,0,0-.45-.89l-2,1a.5.5,0,0,0,.45.89Z"/><path d="M63.44,77.28l.89-.46a.5.5,0,1,0-.46-.89l-.89.46a.5.5,0,0,0,.46.89"/><path d="M45.13,86.54l.54-.84a.5.5,0,1,0-.84-.54l-.54.84a.5.5,0,0,0,.84.54"/><path d="M53.33,73.69,54.43,72a.5.5,0,0,0-.84-.54l-1.09,1.72a.5.5,0,1,0,.84.54Zm-2.19,3.43,1.09-1.72a.5.5,0,1,0-.84-.54L50.3,76.58a.5.5,0,1,0,.84.54ZM49,80.55,50,78.84a.5.5,0,1,0-.84-.54L48.11,80a.5.5,0,1,0,.84.54ZM46.76,84l1.09-1.72a.5.5,0,1,0-.84-.54l-1.09,1.72a.5.5,0,0,0,.84.54Z"/><path d="M55.52,70.25l.54-.84a.5.5,0,0,0-.84-.54l-.54.84a.5.5,0,0,0,.84.54"/><path d="M45.21,86.28v-1a.5.5,0,0,0-1,0v1a.5.5,0,0,0,1,0"/><path d="M45.21,71.44v-2a.5.5,0,0,0-1,0v2a.5.5,0,0,0,1,0Zm0,4v-2a.5.5,0,0,0-1,0v2a.5.5,0,0,0,1,0Zm0,4v-2a.5.5,0,0,0-1,0v2a.5.5,0,0,0,1,0Zm0,4v-2a.5.5,0,0,0-1,0v2a.5.5,0,0,0,1,0Z"/><path d="M45.21,67.49v-1a.5.5,0,0,0-1,0v1a.5.5,0,0,0,1,0"/><path d="M45.13,86l-.54-.84a.5.5,0,0,0-.84.54l.54.84a.5.5,0,1,0,.84-.54"/><path d="M36.93,73.15l-1.09-1.72A.5.5,0,0,0,35,72l1.09,1.72a.5.5,0,1,0,.84-.54Zm2.19,3.43L38,74.87a.5.5,0,0,0-.84.54l1.09,1.72a.5.5,0,1,0,.84-.54ZM41.31,80,40.22,78.3a.5.5,0,1,0-.84.54l1.09,1.72a.5.5,0,1,0,.84-.54Zm2.19,3.43L42.4,81.73a.5.5,0,1,0-.84.54L42.66,84a.5.5,0,0,0,.84-.54Z"/><path d="M34.74,69.72l-.54-.84a.5.5,0,1,0-.84.54l.54.84a.5.5,0,1,0,.84-.54"/><path d="M44.94,85.83,44,85.37a.5.5,0,0,0-.45.89l.89.46a.5.5,0,1,0,.45-.89"/><path d="M30.35,78.39l-2-1a.5.5,0,0,0-.45.89l2,1a.5.5,0,1,0,.45-.89Zm3.91,2-2-1a.5.5,0,1,0-.45.89l2,1a.5.5,0,0,0,.45-.89Zm3.91,2-2-1a.5.5,0,0,0-.45.89l2,1a.5.5,0,0,0,.45-.89Zm3.91,2-2-1a.5.5,0,0,0-.45.89l2,1a.5.5,0,1,0,.45-.89Z"/><path d="M26.44,76.39l-.89-.46a.5.5,0,1,0-.46.89l.89.46a.5.5,0,1,0,.46-.89"/><path d="M44.71,85.78h-1a.5.5,0,0,0,0,1h1a.5.5,0,0,0,0-1"/><path d="M28.27,85.78H26.06a.5.5,0,1,0,0,1h2.21a.5.5,0,0,0,0-1Zm4.41,0H30.47a.5.5,0,0,0,0,1h2.21a.5.5,0,1,0,0-1Zm4.41,0H34.89a.5.5,0,0,0,0,1h2.21a.5.5,0,0,0,0-1Zm4.41,0H39.3a.5.5,0,1,0,0,1H41.5a.5.5,0,0,0,0-1Z"/><path d="M23.85,85.78h-1a.5.5,0,0,0,0,1h1a.5.5,0,1,0,0-1"/><path d="M44.48,85.83l-.89.45a.5.5,0,1,0,.45.89l.89-.45a.5.5,0,0,0-.45-.89"/><path d="M29.9,93.27l-2,1a.5.5,0,1,0,.45.89l2-1a.5.5,0,1,0-.45-.89Zm3.91-2-2,1a.5.5,0,1,0,.45.89l2-1a.5.5,0,0,0-.45-.89Zm3.91-2-2,1a.5.5,0,0,0,.45.89l2-1a.5.5,0,0,0-.45-.89Zm3.91-2-2,1a.5.5,0,0,0,.45.89l2-1a.5.5,0,1,0-.45-.89Z"/><path d="M26,95.27l-.89.45a.5.5,0,0,0,.45.89l.89-.45a.5.5,0,1,0-.45-.89"/><path d="M44.29,86l-.54.84a.5.5,0,0,0,.84.54l.54-.84a.5.5,0,1,0-.84-.54"/><path d="M36.09,98.86,35,100.58a.5.5,0,0,0,.84.54l1.09-1.72a.5.5,0,1,0-.84-.54Zm2.19-3.43-1.09,1.72a.5.5,0,1,0,.84.54L39.12,96a.5.5,0,1,0-.84-.54ZM40.47,92l-1.09,1.72a.5.5,0,1,0,.84.54l1.09-1.72a.5.5,0,0,0-.84-.54Zm2.19-3.43-1.09,1.72a.5.5,0,1,0,.84.54L43.5,89.1a.5.5,0,1,0-.84-.54Z"/><path d="M33.9,102.3l-.54.84a.5.5,0,0,0,.84.54l.54-.84a.5.5,0,1,0-.84-.54"/><ellipse class="cls-1" cx="44.79" cy="86.28" rx="11.36" ry="9.61"/><path class="cls-1" d="M63.38,72V98.36c-1.29.79-8.17,1.82-18.67,1.82s-17.37-1-18.67-1.82V72c6.19.59,12.46.89,18.67.89s12.48-.3,18.67-.89m1-1.1a194.35,194.35,0,0,1-19.67,1,194.35,194.35,0,0,1-19.67-1V98.65c0,1.4,8.8,2.54,19.67,2.54S64.38,100,64.38,98.65Z"/><path d="M18.39,104.73h-.5a1.25,1.25,0,0,0,.22.69,3,3,0,0,0,1.14.91,16.21,16.21,0,0,0,3.75,1.2c4.82,1.06,12.74,1.75,21.71,1.75a129.37,129.37,0,0,0,18.68-1.19,31.94,31.94,0,0,0,5.73-1.31,6.53,6.53,0,0,0,1.66-.83,2.17,2.17,0,0,0,.52-.53,1.25,1.25,0,0,0,.22-.69V59.82H17.89v44.91h1V60.82H70.53v43.91l-.05.14a2.08,2.08,0,0,1-.77.57,15.35,15.35,0,0,1-3.51,1.11c-4.69,1-12.58,1.73-21.49,1.73a128.43,128.43,0,0,1-18.53-1.18,31.06,31.06,0,0,1-5.54-1.26,5.62,5.62,0,0,1-1.4-.69,1.2,1.2,0,0,1-.28-.28l-.05-.14Z"/><path class="cls-1" d="M16,62.12c0,2.44,12.83,4.42,28.67,4.42s28.67-2,28.67-4.42v-8H16Z"/><path d="M30.8,65C21.66,64.19,17.55,62.8,17,62V55.1H30.43c.06,2.34.16,4.7.25,7Q30.75,63.54,30.8,65Z"/><path class="cls-1" d="M29.46,56.1c.06,2,.15,4.06.23,6l.07,1.74C22.24,63.16,19,62.1,18,61.56V56.1H29.46m1.95-2H16v8c0,1.73,6.43,3.22,15.8,3.95C31.7,62.08,31.5,58.09,31.41,54.1Z"/><path d="M45.8,65.53c0-2.06.13-4.14.23-6.16.07-1.43.13-2.85.18-4.28h9.57c.06,3.2.19,6.4.36,10.07C52.86,65.39,49.4,65.51,45.8,65.53Z"/><path class="cls-1" d="M54.8,56.1c.06,2.6.16,5.23.29,8.13-2.64.16-5.41.26-8.27.29,0-1.7.13-3.42.2-5.09,0-1.1.1-2.21.14-3.34H54.8m2-2H45.23c-.11,4.15-.41,8.29-.45,12.44,4.44,0,8.65-.16,12.4-.44C57,62.1,56.82,58.1,56.76,54.1Z"/><path d="M59.67,64.88c-.14-3.15-.28-6.46-.34-9.78H65v9.13C63.38,64.48,61.6,64.7,59.67,64.88Z"/><path class="cls-1" d="M64,56.1v7.27c-1,.15-2.17.29-3.36.41-.11-2.5-.21-5.09-.27-7.68H64m2-2H58.31c.06,4,.23,7.92.41,11.87,2.73-.24,5.18-.54,7.26-.89Z"/><path d="M68.53,55.1h3.85V62c-.12.14-.8.78-3.85,1.51Z"/><path class="cls-1" d="M71.38,56.1v5.45a9.08,9.08,0,0,1-1.85.71V56.1h1.85m2-2H67.53V64.79c3.67-.74,5.85-1.67,5.85-2.67Z"/><path d="M16,62.12h-.5a1.32,1.32,0,0,0,.23.73,3.19,3.19,0,0,0,1.23,1,17.62,17.62,0,0,0,4.08,1.31C26.32,66.29,34.94,67,44.71,67a140.83,140.83,0,0,0,20.35-1.3,34.75,34.75,0,0,0,6.24-1.43,7.08,7.08,0,0,0,1.8-.9,2.32,2.32,0,0,0,.55-.56,1.32,1.32,0,0,0,.23-.73v-8a.5.5,0,0,0-.5-.5H16a.5.5,0,0,0-.5.5v8h1V54.6H72.88v7.52l-.07.18a2.3,2.3,0,0,1-.85.64,16.76,16.76,0,0,1-3.83,1.22C63,65.29,54.42,66,44.71,66a139.9,139.9,0,0,1-20.19-1.29,33.87,33.87,0,0,1-6-1.38,6.16,6.16,0,0,1-1.54-.76,1.35,1.35,0,0,1-.32-.31l-.07-.18Z"/><ellipse class="cls-1" cx="44.71" cy="54.1" rx="28.67" ry="4.42"/><path d="M73.38,54.1h-.5l-.07.18a2.3,2.3,0,0,1-.85.64,16.76,16.76,0,0,1-3.83,1.22C63,57.27,54.42,58,44.71,58a139.94,139.94,0,0,1-20.19-1.29,33.87,33.87,0,0,1-6-1.38,6.16,6.16,0,0,1-1.54-.76,1.35,1.35,0,0,1-.32-.31l-.07-.18.07-.18a2.3,2.3,0,0,1,.85-.64,16.76,16.76,0,0,1,3.83-1.22c5.12-1.13,13.71-1.88,23.42-1.88A139.89,139.89,0,0,1,64.9,51.47a33.86,33.86,0,0,1,6,1.38,6.16,6.16,0,0,1,1.54.76,1.35,1.35,0,0,1,.32.31l.07.18h1a1.32,1.32,0,0,0-.23-.73,3.19,3.19,0,0,0-1.23-1,17.62,17.62,0,0,0-4.08-1.31c-5.24-1.16-13.87-1.9-23.63-1.9a140.84,140.84,0,0,0-20.35,1.3,34.75,34.75,0,0,0-6.24,1.43,7.07,7.07,0,0,0-1.8.9,2.32,2.32,0,0,0-.55.56,1.26,1.26,0,0,0,0,1.45,3.19,3.19,0,0,0,1.23,1,17.62,17.62,0,0,0,4.08,1.31C26.32,58.27,34.94,59,44.71,59a140.88,140.88,0,0,0,20.35-1.3,34.74,34.74,0,0,0,6.24-1.43,7.08,7.08,0,0,0,1.8-.9,2.32,2.32,0,0,0,.55-.56,1.32,1.32,0,0,0,.23-.73Z"/><path d="M38.64,88.84c-.75,0-3.35-2.47-3.35-4.34,0-2.29,2.34-2.54,3.35-2.54S42,82.2,42,84.49C42,86.37,39.4,88.84,38.64,88.84Z"/><path class="cls-1" d="M38.64,82.45c1.06,0,2.85.26,2.85,2,0,1.52-2.11,3.64-2.85,3.84-.74-.2-2.85-2.32-2.85-3.84,0-1.78,1.78-2,2.85-2m0-1c-.9,0-3.85.22-3.85,3,0,2.15,2.79,4.84,3.85,4.84s3.85-2.69,3.85-4.84C42.49,81.67,39.55,81.45,38.64,81.45Z"/><path d="M40.71,82A3.33,3.33,0,0,1,39,83.28a2.09,2.09,0,0,1-.21-1.83,3.33,3.33,0,0,1,1.73-1.3A2.09,2.09,0,0,1,40.71,82Z"/><path d="M38.51,81.45a2.09,2.09,0,0,1-.21,1.83A3.33,3.33,0,0,1,36.57,82a2.09,2.09,0,0,1,.21-1.83A3.33,3.33,0,0,1,38.51,81.45Z"/><path d="M39.67,81.27a2.52,2.52,0,0,1-1,1.67,1.87,1.87,0,0,1,0-3.34A2.52,2.52,0,0,1,39.67,81.27Z"/><path d="M50.78,88.84c-.75,0-3.35-2.47-3.35-4.34,0-2.29,2.34-2.54,3.35-2.54s3.35.25,3.35,2.54C54.13,86.37,51.53,88.84,50.78,88.84Z"/><path class="cls-1" d="M50.78,82.45c1.06,0,2.85.26,2.85,2,0,1.52-2.11,3.64-2.85,3.84-.74-.2-2.85-2.32-2.85-3.84,0-1.78,1.79-2,2.85-2m0-1c-.9,0-3.85.22-3.85,3,0,2.15,2.79,4.84,3.85,4.84s3.85-2.69,3.85-4.84C54.63,81.67,51.68,81.45,50.78,81.45Z"/><path d="M52.85,82a3.33,3.33,0,0,1-1.73,1.3,2.09,2.09,0,0,1-.21-1.83,3.33,3.33,0,0,1,1.73-1.3A2.09,2.09,0,0,1,52.85,82Z"/><path d="M50.65,81.45a2.09,2.09,0,0,1-.21,1.83A3.33,3.33,0,0,1,48.71,82a2.09,2.09,0,0,1,.21-1.83A3.33,3.33,0,0,1,50.65,81.45Z"/><path d="M51.81,81.27a2.52,2.52,0,0,1-1,1.67,1.87,1.87,0,0,1,0-3.34A2.52,2.52,0,0,1,51.81,81.27Z"/><path d="M44.71,90.21c-1.3,0-4.47-3-4.47-5.53s2.31-3.61,4.47-3.61,4.47.95,4.47,3.61S46,90.21,44.71,90.21Z"/><path class="cls-1" d="M44.71,81.57c.93,0,4,.22,4,3.11,0,2.36-3,5-4,5s-4-2.67-4-5c0-2.88,3-3.11,4-3.11m0-1c-2.75,0-5,1.36-5,4.11s3.31,6,5,6,5-3.29,5-6S47.46,80.57,44.71,80.57Z"/><path class="cls-1" d="M42.85,85v.5a.5.5,0,0,0,1,0V85a.5.5,0,0,0-1,0"/><path class="cls-1" d="M45.57,85v.5a.5.5,0,0,0,1,0V85a.5.5,0,0,0-1,0"/><path class="cls-1" d="M47.3,81.76a4.17,4.17,0,0,1-2.16,1.63,2.61,2.61,0,0,1-.26-2.29A4.17,4.17,0,0,1,47,79.47,2.61,2.61,0,0,1,47.3,81.76Z"/><path d="M47.3,81.76l-.45-.22a2.64,2.64,0,0,1-1.07,1,5.27,5.27,0,0,1-.57.28L45,82.9l0,0h0l.16.47.42-.27h0a2.58,2.58,0,0,1-.36-1.21,1.35,1.35,0,0,1,.13-.6,2.64,2.64,0,0,1,1.07-1A5.27,5.27,0,0,1,47,80l.17-.07,0,0h0L47,79.47l-.42.27h0A2.58,2.58,0,0,1,47,80.95a1.36,1.36,0,0,1-.13.6l.45.22.45.22a2.36,2.36,0,0,0,.23-1,3.52,3.52,0,0,0-.52-1.75.5.5,0,0,0-.58-.2,5.92,5.92,0,0,0-1,.45,3.58,3.58,0,0,0-1.48,1.44,2.35,2.35,0,0,0-.23,1,3.52,3.52,0,0,0,.52,1.75.5.5,0,0,0,.58.2,5.92,5.92,0,0,0,1-.45A3.58,3.58,0,0,0,47.75,82Z"/><path class="cls-1" d="M44.54,81.1a2.61,2.61,0,0,1-.26,2.29,4.17,4.17,0,0,1-2.16-1.63,2.61,2.61,0,0,1,.26-2.29A4.16,4.16,0,0,1,44.54,81.1Z"/><path d="M44.54,81.1l-.45.22a1.35,1.35,0,0,1,.13.6,2.31,2.31,0,0,1-.18.85,2.8,2.8,0,0,1-.13.27l0,.07v0h0l.42.27.16-.47h0a5.11,5.11,0,0,1-.86-.41,2.54,2.54,0,0,1-1-1,1.35,1.35,0,0,1-.13-.6,2.31,2.31,0,0,1,.18-.85,2.79,2.79,0,0,1,.13-.27l0-.07v0h0l-.42-.27-.16.47h0a5.1,5.1,0,0,1,.86.41,2.53,2.53,0,0,1,1,1l.45-.22.45-.22a3.57,3.57,0,0,0-1.48-1.44,5.92,5.92,0,0,0-1-.45.5.5,0,0,0-.58.2,3.52,3.52,0,0,0-.52,1.75,2.36,2.36,0,0,0,.23,1,3.58,3.58,0,0,0,1.48,1.44,5.92,5.92,0,0,0,1,.45.5.5,0,0,0,.58-.2,3.52,3.52,0,0,0,.52-1.75,2.35,2.35,0,0,0-.23-1Z"/><path class="cls-1" d="M46,80.87A3.15,3.15,0,0,1,44.71,83a3.15,3.15,0,0,1-1.29-2.09,3.15,3.15,0,0,1,1.29-2.09A3.15,3.15,0,0,1,46,80.87Z"/><path d="M46,80.87h-.5A1.9,1.9,0,0,1,45,82a3.87,3.87,0,0,1-.39.4l-.13.11,0,0h0l.29.4.29-.4h0a3.77,3.77,0,0,1-.6-.59,1.83,1.83,0,0,1-.47-1.09,1.9,1.9,0,0,1,.53-1.15,3.88,3.88,0,0,1,.39-.4l.13-.11,0,0h0l-.29-.4-.29.4h0a3.78,3.78,0,0,1,.6.59,1.83,1.83,0,0,1,.47,1.09h1a2.86,2.86,0,0,0-.76-1.8,4.64,4.64,0,0,0-.73-.69.5.5,0,0,0-.59,0,4.64,4.64,0,0,0-.73.69,2.5,2.5,0,0,0,0,3.6,4.64,4.64,0,0,0,.73.69.5.5,0,0,0,.59,0,4.64,4.64,0,0,0,.73-.69,2.86,2.86,0,0,0,.76-1.8Z"/><path class="cls-1" d="M64,105.72c8.66,0-8.64,2.29-19.29,2.29s-28-2.29-19.29-2.29,8.64-2.29,19.29-2.29S55.37,105.72,64,105.72Z"/><path d="M50.25,94a77.06,77.06,0,0,1-11.12,0,1.62,1.62,0,0,1-1.53-1.75,1.65,1.65,0,0,1,1.77-1.48,73.66,73.66,0,0,0,10.65,0,1.65,1.65,0,0,1,1.77,1.48A1.63,1.63,0,0,1,50.25,94Z"/></svg>