<svg id="Layer_1" data-name="Layer 1" xmlns="http://www.w3.org/2000/svg" viewBox="0 0 88 120"><defs><style>.cls-1{fill:#fff;}</style></defs><title>image-jamkid-mascot-tie</title><polygon class="cls-1" points="49.97 32.85 44 31.36 38.03 32.85 38.03 28.17 44 29.66 49.97 28.17 49.97 32.85"/><path d="M50,32.85l.12-.49-6-1.49h-.24l-5.34,1.34V28.81l5.34,1.34h.24l5.34-1.34v4H50l.12-.49-.12.49h.5V28.17a.5.5,0,0,0-.62-.49L44,29.15l-5.84-1.46a.5.5,0,0,0-.62.49v4.67a.5.5,0,0,0,.62.49L44,31.87l5.84,1.46a.5.5,0,0,0,.62-.49Z"/><path d="M40.49,31h7a.5.5,0,0,0,0-1h-7a.5.5,0,1,0,0,1"/><circle class="cls-1" cx="44" cy="30.51" r="1.46"/><path d="M45.46,30.51H45a1,1,0,1,1-1-1,1,1,0,0,1,1,1h1a2,2,0,1,0-2,2,2,2,0,0,0,2-2Z"/></svg>