<svg id="Layer_1" data-name="Layer 1" xmlns="http://www.w3.org/2000/svg" viewBox="0 0 88 120"><defs><style>.cls-1{fill:#fff;}</style></defs><title>image-jamkid-mascot-stars-01</title><polygon class="cls-1" points="58.61 42.6 59.28 44.67 61.37 45.3 59.6 46.58 59.65 48.76 57.89 47.47 55.83 48.2 56.51 46.12 55.19 44.39 57.37 44.39 58.61 42.6"/><path d="M58.61,42.6l-.48.15.67,2.08a.5.5,0,0,0,.33.33l1.12.34-.95.68a.5.5,0,0,0-.21.42l0,1.17-.94-.69a.5.5,0,0,0-.46-.07l-1.1.39L57,46.28a.5.5,0,0,0-.08-.46l-.71-.93h1.17a.5.5,0,0,0,.41-.22L59,42.88l-.41-.28-.48.15.48-.15-.41-.28-1.09,1.58H55.19a.5.5,0,0,0-.4.8L56,46.22,55.36,48a.5.5,0,0,0,.64.63L57.81,48l1.55,1.13a.5.5,0,0,0,.79-.42l0-1.92,1.55-1.12a.5.5,0,0,0-.15-.88l-1.84-.55-.59-1.83a.5.5,0,0,0-.89-.13Z"/><polygon class="cls-1" points="46.49 47.31 46.12 49.17 47.45 50.52 45.56 50.75 44.68 52.42 43.89 50.7 42.02 50.38 43.41 49.1 43.14 47.22 44.79 48.15 46.49 47.31"/><path d="M46.49,47.31l-.49-.1-.37,1.86a.5.5,0,0,0,.13.45l.61.63-.87.1a.5.5,0,0,0-.38.26l-.41.78-.37-.8a.5.5,0,0,0-.37-.28l-.87-.15.65-.6a.5.5,0,0,0,.16-.44l-.13-.87.77.43a.5.5,0,0,0,.47,0l1.7-.84-.22-.45-.49-.1.49.1-.22-.45-1.46.72-1.42-.8a.5.5,0,0,0-.74.51l.23,1.61L41.68,50a.5.5,0,0,0,.25.86l1.61.28.68,1.48a.5.5,0,0,0,.9,0l.76-1.44L47.5,51a.5.5,0,0,0,.3-.85L46.67,49l.32-1.6a.5.5,0,0,0-.71-.55Z"/><polygon class="cls-1" points="27.48 40.01 28.31 41.69 30.16 41.96 28.82 43.27 29.14 45.11 27.48 44.24 25.83 45.11 26.14 43.27 24.8 41.96 26.65 41.69 27.48 40.01"/><path d="M27.48,40l-.45.22.83,1.68a.5.5,0,0,0,.38.27l.85.12-.62.6a.5.5,0,0,0-.14.44l.15.85-.76-.4a.5.5,0,0,0-.47,0l-.76.4.15-.85a.5.5,0,0,0-.14-.44l-.62-.6.85-.12a.5.5,0,0,0,.38-.27l.83-1.68L27.48,40l-.45.22.45-.22L27,39.79l-.71,1.44-1.59.23a.5.5,0,0,0-.28.85l1.15,1.12L25.33,45a.5.5,0,0,0,.73.53l1.42-.75,1.42.75a.5.5,0,0,0,.73-.53l-.27-1.59,1.15-1.12a.5.5,0,0,0-.28-.85l-1.59-.23-.71-1.44a.5.5,0,0,0-.9,0Z"/></svg>