<svg id="Layer_1" data-name="Layer 1" xmlns="http://www.w3.org/2000/svg" viewBox="0 0 168 120"><defs><style>.cls-1{fill:#fff;}</style></defs><title>image-jamkid-plate</title><ellipse cx="45.35" cy="95.19" rx="32.99" ry="3.93"/><path d="M78.33,95.19h-.5l-.1.13a3.56,3.56,0,0,1-1.13.6c-2,.76-6.2,1.45-11.66,1.93s-12.25.77-19.59.77a207.76,207.76,0,0,1-23.27-1.15,49,49,0,0,1-7-1.23,8.22,8.22,0,0,1-1.81-.69,1.46,1.46,0,0,1-.37-.28l0-.07h0l.1-.13a3.56,3.56,0,0,1,1.13-.6c2-.76,6.2-1.45,11.66-1.93s12.25-.77,19.59-.77a207.75,207.75,0,0,1,23.27,1.15,49,49,0,0,1,7,1.23,8.22,8.22,0,0,1,1.81.69,1.46,1.46,0,0,1,.37.28l0,.07h1a1.12,1.12,0,0,0-.29-.73,3.57,3.57,0,0,0-1.39-.86,24.5,24.5,0,0,0-4.65-1.15c-6-1-15.93-1.69-27.16-1.69A208.68,208.68,0,0,0,22,91.91a49.88,49.88,0,0,0-7.15,1.26,9.1,9.1,0,0,0-2,.79,2.41,2.41,0,0,0-.63.5,1.06,1.06,0,0,0,0,1.45,3.57,3.57,0,0,0,1.39.86,24.49,24.49,0,0,0,4.65,1.15c6,1,15.93,1.69,27.16,1.69a208.67,208.67,0,0,0,23.38-1.15,49.87,49.87,0,0,0,7.15-1.26,9.1,9.1,0,0,0,2-.79,2.41,2.41,0,0,0,.63-.5,1.12,1.12,0,0,0,.29-.73Z"/><path class="cls-1" d="M78.33,87.75c0,2.17-6,8.62-29.14,8.62S20,89.92,20,87.75s13-3.93,29.14-3.93S78.33,85.58,78.33,87.75Z"/><path d="M78.33,87.75h-.5a3.2,3.2,0,0,1-1.14,1.91c-2.59,2.57-10.18,6.22-27.5,6.21-11.55,0-18.77-1.61-23.07-3.45a14.34,14.34,0,0,1-4.43-2.76,3.2,3.2,0,0,1-1.14-1.91l0-.1a2.34,2.34,0,0,1,.86-.57A18.86,18.86,0,0,1,25.36,86c5.21-1,13.95-1.68,23.82-1.68a162.27,162.27,0,0,1,20.54,1.15,38.67,38.67,0,0,1,6.16,1.23,6.69,6.69,0,0,1,1.57.68,1.29,1.29,0,0,1,.32.27l0,.1h1a1.17,1.17,0,0,0-.25-.7,3.19,3.19,0,0,0-1.25-.88A19.7,19.7,0,0,0,73.2,85c-5.32-1-14.09-1.69-24-1.69a163.21,163.21,0,0,0-20.67,1.16,39.55,39.55,0,0,0-6.33,1.27,7.6,7.6,0,0,0-1.82.8,2.24,2.24,0,0,0-.57.51,1.17,1.17,0,0,0-.25.7A4.05,4.05,0,0,0,21,90.37c2.94,2.88,10.74,6.49,28.2,6.5,11.64,0,19-1.62,23.47-3.54a15.3,15.3,0,0,0,4.74-3,4.05,4.05,0,0,0,1.44-2.62Z"/><ellipse class="cls-1" cx="49.19" cy="87.75" rx="29.14" ry="3.93"/><path d="M78.33,87.75h-.5l0,.1a2.34,2.34,0,0,1-.86.57A18.85,18.85,0,0,1,73,89.5c-5.21,1-13.95,1.68-23.82,1.68A162.21,162.21,0,0,1,28.65,90a38.68,38.68,0,0,1-6.16-1.23,6.69,6.69,0,0,1-1.58-.68,1.28,1.28,0,0,1-.32-.27l0-.1,0-.1a2.34,2.34,0,0,1,.86-.57A18.86,18.86,0,0,1,25.36,86c5.21-1,13.95-1.68,23.82-1.68a162.27,162.27,0,0,1,20.54,1.15,38.67,38.67,0,0,1,6.16,1.23,6.69,6.69,0,0,1,1.57.68,1.29,1.29,0,0,1,.32.27l0,.1h1a1.17,1.17,0,0,0-.25-.7,3.19,3.19,0,0,0-1.25-.88A19.7,19.7,0,0,0,73.2,85c-5.32-1-14.09-1.69-24-1.69a163.21,163.21,0,0,0-20.67,1.16,39.55,39.55,0,0,0-6.33,1.27,7.6,7.6,0,0,0-1.82.8,2.24,2.24,0,0,0-.57.51,1.11,1.11,0,0,0,0,1.41,3.19,3.19,0,0,0,1.25.88,19.71,19.71,0,0,0,4.13,1.16c5.32,1,14.09,1.69,24,1.69A163.15,163.15,0,0,0,69.86,91a39.55,39.55,0,0,0,6.33-1.27A7.59,7.59,0,0,0,78,89a2.24,2.24,0,0,0,.57-.51,1.17,1.17,0,0,0,.25-.7Z"/><path d="M28.9,90.8a28.44,28.44,0,0,1,7.53-1.55,119.73,119.73,0,0,1,12.75-.62,120.17,120.17,0,0,1,12.64.61,29.56,29.56,0,0,1,7.56,1.53.5.5,0,0,0,.41-.91,30.18,30.18,0,0,0-7.86-1.61,121.13,121.13,0,0,0-12.75-.62,120.71,120.71,0,0,0-12.86.63,29,29,0,0,0-7.84,1.64.5.5,0,0,0,.42.91Z"/></svg>