<svg id="Layer_1" data-name="Layer 1" xmlns="http://www.w3.org/2000/svg" viewBox="0 0 56 160"><defs><style>.cls-1,.cls-3{stroke:#000;stroke-linecap:round;stroke-linejoin:round;}.cls-2{fill:#fff;}.cls-3{fill:none;}</style></defs><title>image-balloon-02</title><line class="cls-1" x1="28" y1="58.2" x2="28" y2="158.75"/><path class="cls-1" d="M25.2,58.4c0-.73,1.25-1.73,2.8-1.73s2.8,1,2.8,1.73-1.25,1.33-2.8,1.33S25.2,59.14,25.2,58.4Z"/><path class="cls-1" d="M52.54,25.25c0,13.56-11,32-24.54,32S3.46,38.81,3.46,25.25a24.54,24.54,0,1,1,49.09,0Z"/><path class="cls-2" d="M28,2.21a23.07,23.07,0,0,1,23,23c0,13.44-10.85,30.5-23,30.5S5,38.69,5,25.25a23.07,23.07,0,0,1,23-23m0-1.5A24.54,24.54,0,0,0,3.46,25.25c0,13.56,11,32,24.54,32s24.54-18.44,24.54-32A24.54,24.54,0,0,0,28,.71Z"/><path class="cls-3" d="M52.54,25.25c0,13.56-11,32-24.54,32S3.46,38.81,3.46,25.25a24.54,24.54,0,1,1,49.09,0Z"/><circle class="cls-2" cx="41" cy="18.17" r="4.17"/></svg>