<svg id="Layer_1" data-name="Layer 1" xmlns="http://www.w3.org/2000/svg" xmlns:xlink="http://www.w3.org/1999/xlink" viewBox="0 0 32 32"><defs><style>.cls-1,.cls-3{fill:none;}.cls-2,.cls-3{font-size:2.64px;font-family:BusinessScript-Regular, Business Script;}.cls-3{stroke:#000;stroke-miterlimit:10;}.cls-4{fill:#fff;}.cls-5{clip-path:url(#clip-path);}</style><clipPath id="clip-path"><path class="cls-1" d="M28.13,19.39c-1.36,6.11-10.34,11.8-14,11S4.63,20.59,6,14.48s7-8.05,13.1-6.7S29.49,13.27,28.13,19.39Z"/></clipPath></defs><title>image-jamkid-exclamation-04</title><text class="cls-2" transform="translate(4.57 21.11) rotate(12.5)">Interpolate</text><text class="cls-3" transform="translate(4.57 21.11) rotate(12.5)">Interpolate</text><path d="M14.87,31.19a4.44,4.44,0,0,1-1-.1,7.34,7.34,0,0,1-3.39-2.17A18.79,18.79,0,0,1,8,25.63C5.73,25,3.49,24.26,1.34,23.49a.75.75,0,0,1-.48-.86l1.36-6.11A.74.74,0,0,1,3,15.94c.73.07,1.42.14,2.1.22a9.38,9.38,0,0,1,.21-1.84,9.17,9.17,0,0,1,5.18-6.67,10.49,10.49,0,0,1,2-.67,5,5,0,0,1,.05-2,7.61,7.61,0,0,1,1.91-3.43.75.75,0,0,1,.54-.23.74.74,0,0,1,.38.11,13.13,13.13,0,0,1,1.89,1.43l.2.19a9.53,9.53,0,0,1,.8-.75,10.87,10.87,0,0,1,1.91-1.28A.76.76,0,0,1,20.43,1a.74.74,0,0,1,.58.28,10.77,10.77,0,0,1,1.2,2,9.86,9.86,0,0,1,.41,1l.26-.09a13.15,13.15,0,0,1,2.32-.5h0a.76.76,0,0,1,.76.48,7.64,7.64,0,0,1,.29,3.94,5,5,0,0,1-.78,1.81A10.57,10.57,0,0,1,27,11.32a9.17,9.17,0,0,1,1.88,8.23,9.45,9.45,0,0,1-.61,1.8l1.5.52a.75.75,0,0,1,.48.86l-1.35,6.11a.75.75,0,0,1-.73.58q-3.29-.3-6.52-.8a18.79,18.79,0,0,1-3.72,1.93A9,9,0,0,1,14.87,31.19Z"/><path d="M20.43,1.48l.19.09a10.19,10.19,0,0,1,1.13,1.87,8.83,8.83,0,0,1,.54,1.45L23,4.63a12.65,12.65,0,0,1,2.22-.48h0a.24.24,0,0,1,.23.16A7.2,7.2,0,0,1,25.77,8a4.47,4.47,0,0,1-.85,1.82l-.19-.15.19.15-.16.18a10.41,10.41,0,0,1,1.84,1.67,8.69,8.69,0,0,1,1.77,7.8,9.55,9.55,0,0,1-.81,2.2c.68.23,1.36.45,2,.69a.24.24,0,0,1,.16.28l-1.35,6.11a.25.25,0,0,1-.24.19h0q-3.32-.31-6.61-.82a18.43,18.43,0,0,1-3.78,2,8.52,8.52,0,0,1-2.86.6,3.94,3.94,0,0,1-.84-.08,7,7,0,0,1-3.14-2,18.37,18.37,0,0,1-2.56-3.36q-3.44-1-6.82-2.19a.25.25,0,0,1-.16-.28l1.36-6.11A.24.24,0,0,1,3,16.44H3c.86.08,1.72.18,2.58.28a9.58,9.58,0,0,1,.2-2.29,8.69,8.69,0,0,1,4.9-6.32A10.41,10.41,0,0,1,13,7.37L13,7.14a4.47,4.47,0,0,1,0-2,7.19,7.19,0,0,1,1.79-3.2l.17-.07.13,0a12.66,12.66,0,0,1,1.81,1.38c.18.17.37.35.56.55a8.83,8.83,0,0,1,1.1-1.09A10.22,10.22,0,0,1,20.32,1.5l.11,0m0-1h0a1.25,1.25,0,0,0-.55.13,11.2,11.2,0,0,0-2,1.34l-.49.44A13.58,13.58,0,0,0,15.56,1a1.26,1.26,0,0,0-.65-.18,1.24,1.24,0,0,0-.87.36l0,0h0a8.12,8.12,0,0,0-2,3.64,5.59,5.59,0,0,0-.12,1.7,10.66,10.66,0,0,0-1.63.59,9.65,9.65,0,0,0-5.46,7,9.48,9.48,0,0,0-.2,1.39l-1.51-.16H3a1.24,1.24,0,0,0-1.21,1L.38,22.52A1.25,1.25,0,0,0,1.18,24c2.1.75,4.28,1.46,6.51,2.1a19.07,19.07,0,0,0,2.5,3.21,7.82,7.82,0,0,0,3.63,2.31,5,5,0,0,0,1.06.11A9.47,9.47,0,0,0,18.08,31a19.14,19.14,0,0,0,3.66-1.88c2.11.32,4.22.58,6.29.77h.12a1.24,1.24,0,0,0,1.21-1l.67-3,.68-3.07a1.25,1.25,0,0,0-.8-1.44l-1-.35a9.49,9.49,0,0,0,.43-1.39,9.66,9.66,0,0,0-2-8.66,10.59,10.59,0,0,0-1.18-1.18l.15-.19-.08-.06a5.67,5.67,0,0,0,.49-1.38A8.15,8.15,0,0,0,26.46,4h0l0-.06a1.25,1.25,0,0,0-1.16-.81h-.13a13.48,13.48,0,0,0-2.22.47c-.08-.2-.17-.4-.26-.61A11.1,11.1,0,0,0,21.4.95,1.25,1.25,0,0,0,20.43.48Z"/><path d="M24.73,9.64c-1.7,2.16-5.61,2.56-5.61,2.56S18,9.11,19.66,7s5.61-2.56,5.61-2.56S26.43,7.48,24.73,9.64Z"/><path class="cls-4" d="M24.73,9.64l-.2-.15a6.84,6.84,0,0,1-3.32,2,12.91,12.91,0,0,1-1.5.37l-.46.07-.16,0,0,.25.23-.09-.06-.17A7.22,7.22,0,0,1,19,9.89a4.41,4.41,0,0,1,.87-2.78,6.84,6.84,0,0,1,3.32-2,12.91,12.91,0,0,1,1.5-.37l.46-.07.16,0,0-.25L25,4.48l.06.17a7.22,7.22,0,0,1,.31,2.05,4.42,4.42,0,0,1-.87,2.78l.2.15.2.15a4.92,4.92,0,0,0,1-3.09,7.52,7.52,0,0,0-.4-2.39.25.25,0,0,0-.26-.16A12.68,12.68,0,0,0,23,4.63,7.31,7.31,0,0,0,19.46,6.8a4.91,4.91,0,0,0-1,3.09,7.53,7.53,0,0,0,.4,2.4.25.25,0,0,0,.26.16A12.68,12.68,0,0,0,21.36,12a7.31,7.31,0,0,0,3.57-2.17Z"/><path d="M18.92,6.79c.63,2.67-1.72,5-1.72,5s-3.37-2-4-4.7,1.72-5,1.72-5S18.29,4.12,18.92,6.79Z"/><path class="cls-4" d="M18.92,6.79l-.24.06a3.79,3.79,0,0,1,.1.87,5.29,5.29,0,0,1-.88,2.74,7.42,7.42,0,0,1-.61.84l-.2.22L17,11.6l.18.18.13-.21-.14-.09a12.63,12.63,0,0,1-1.93-1.55A6.4,6.4,0,0,1,13.43,7a3.79,3.79,0,0,1-.1-.87,5.29,5.29,0,0,1,.88-2.74,7.41,7.41,0,0,1,.61-.84l.2-.22.07-.07-.18-.18-.13.21.14.09A12.63,12.63,0,0,1,16.85,4a6.41,6.41,0,0,1,1.82,2.9l.24-.06.24-.06a7.32,7.32,0,0,0-2.31-3.48A12.69,12.69,0,0,0,15,1.88a.25.25,0,0,0-.3,0,6.69,6.69,0,0,0-1.91,4.23,4.28,4.28,0,0,0,.11,1,7.31,7.31,0,0,0,2.31,3.48A12.69,12.69,0,0,0,17.07,12a.25.25,0,0,0,.3,0,6.69,6.69,0,0,0,1.91-4.23,4.28,4.28,0,0,0-.11-1Z"/><path d="M22.17,7.49c-.63,2.83-4,4.5-4,4.5s-2.36-2.93-1.74-5.77,4-4.5,4-4.5S22.79,4.66,22.17,7.49Z"/><path class="cls-4" d="M22.17,7.49l-.24-.05a6,6,0,0,1-2.16,3.17,10.32,10.32,0,0,1-1.2.86l-.38.22-.14.07.11.22.19-.16-.07-.1a8.44,8.44,0,0,1-1.71-4.52,4.33,4.33,0,0,1,.1-.94A6,6,0,0,1,18.82,3.1,10.31,10.31,0,0,1,20,2.24L20.4,2l.14-.07-.11-.22-.19.16.07.1A8.44,8.44,0,0,1,22,6.49a4.37,4.37,0,0,1-.1.94l.24.05.24.05a4.86,4.86,0,0,0,.11-1.05,9.05,9.05,0,0,0-1.9-4.93.25.25,0,0,0-.3-.07A10.18,10.18,0,0,0,18.5,2.72a6.53,6.53,0,0,0-2.32,3.45,4.82,4.82,0,0,0-.11,1.05A9.05,9.05,0,0,0,18,12.15a.25.25,0,0,0,.3.07A10.17,10.17,0,0,0,20.08,11a6.53,6.53,0,0,0,2.32-3.45Z"/><path d="M28.13,19.39c-1.36,6.11-10.34,11.8-14,11S4.63,20.59,6,14.48s7-8.05,13.1-6.7S29.49,13.27,28.13,19.39Z"/><path class="cls-4" d="M28.13,19.39l-.24-.05c-.61,2.77-2.87,5.5-5.49,7.53s-5.6,3.34-7.52,3.33a3.4,3.4,0,0,1-.73-.07,6,6,0,0,1-2.58-1.6C8.8,25.95,6,20.76,6,16.43a8.75,8.75,0,0,1,.2-1.9A8.35,8.35,0,0,1,9.56,9.3,10.25,10.25,0,0,1,15.5,7.62,16.38,16.38,0,0,1,19,8a13.65,13.65,0,0,1,6.53,3.24,8,8,0,0,1,2.57,5.91,10,10,0,0,1-.25,2.15l.24.05.24.05a10.44,10.44,0,0,0,.26-2.26,8.5,8.5,0,0,0-2.72-6.27,14.14,14.14,0,0,0-6.77-3.37,16.88,16.88,0,0,0-3.64-.42A10.75,10.75,0,0,0,9.28,8.89a8.85,8.85,0,0,0-3.53,5.54,9.25,9.25,0,0,0-.21,2,18.06,18.06,0,0,0,2.94,9,17.48,17.48,0,0,0,2.74,3.42A6.47,6.47,0,0,0,14,30.61a3.89,3.89,0,0,0,.84.09c2.13,0,5.15-1.37,7.83-3.44s5-4.87,5.68-7.82Z"/><path d="M28.15,28.68A108.47,108.47,0,0,1,1.6,22.79L3,16.68a108.47,108.47,0,0,1,26.56,5.89Z"/><path class="cls-4" d="M28.15,28.68l0-.25A108.22,108.22,0,0,1,1.68,22.56l-.08.24.24.05,1.35-6.11L3,16.68l0,.25A108.22,108.22,0,0,1,29.42,22.8l.08-.24-.24-.05-1.36,6.11.24.05,0-.25,0,.25.24.05,1.36-6.11,0-.22-.21-.07A108.72,108.72,0,0,0,3,16.43l-.22,0,0,.22L1.35,22.74l0,.22.21.07a108.72,108.72,0,0,0,26.62,5.9l.22,0,0-.22Z"/><path class="cls-4" d="M7.67,19.68l-1,1.49a1.38,1.38,0,0,1-1.43.67.77.77,0,0,1-.66-.93.8.8,0,0,1,1-.6c.62.13.53.76,0,.93L5.27,21c.42,0,.39-.31.15-.36a.45.45,0,0,0-.51.38.41.41,0,0,0,.36.5,1,1,0,0,0,1-.55l.75-1.09-.29-.09c-.36-.1-.56,0-.61.29v.2l-.36-.08,0-.22c.11-.42.49-.66,1.08-.5Z"/><path class="cls-4" d="M7.67,19.68h0l-1,1.49a1.43,1.43,0,0,1-1.16.69l-.25,0a.76.76,0,0,1-.66-.73l0-.17a.76.76,0,0,1,.76-.6l.18,0c.29.06.41.23.42.41a.53.53,0,0,1-.39.47v0l0,0L5.29,21l0,0v0c.23,0,.35-.11.35-.22a.22.22,0,0,0-.19-.19H5.34a.49.49,0,0,0-.46.41v.11a.44.44,0,0,0,.39.42l.17,0A1.15,1.15,0,0,0,6.34,21l.75-1.09v0l0,0-.29-.09-.22,0a.41.41,0,0,0-.42.35h0v.17l-.31-.07,0-.2h0a.68.68,0,0,1,.71-.53,1.28,1.28,0,0,1,.34,0l.78.21v0h0v0l-.78-.21a1.33,1.33,0,0,0-.35-.05.73.73,0,0,0-.76.57h0l0,.22,0,0,.36.08h0v-.22h0a.35.35,0,0,1,.37-.31l.21,0,.26.08-.73,1.07a1.1,1.1,0,0,1-.86.55l-.16,0a.39.39,0,0,1-.35-.37V21a.44.44,0,0,1,.41-.37h.07c.1,0,.16.08.16.14s-.08.15-.3.17l0,0v0l.27.26h0A.58.58,0,0,0,6,20.75c0-.2-.15-.4-.46-.46l-.19,0a.81.81,0,0,0-.81.64l0,.18a.81.81,0,0,0,.7.78l.26,0a1.48,1.48,0,0,0,1.2-.71l1-1.49v0l0,0Z"/><path class="cls-4" d="M8.25,21.29l.09-.18c.05-.1,0-.19-.1-.22s-.34.06-.48.35-.17.34-.24.51l-.39-.09c.19-.39.38-.77.54-1.17l.35.08,0,.13H8a.54.54,0,0,1,.47-.1.36.36,0,0,1,.25.55l-.09.17c-.13.24-.09.38.17.43a.75.75,0,0,0,.76-.31l.15.27a1,1,0,0,1-1.06.34C8.24,22,8,21.71,8.25,21.29Z"/><path class="cls-4" d="M8.25,21.29h0l.09-.18,0-.11c0-.07-.05-.13-.15-.15H8.17c-.16,0-.31.12-.43.37s-.17.34-.24.51h0v0l-.39-.09v0h0c.19-.39.38-.77.55-1.17h0v0l.32.07,0,.1,0,0H8a.5.5,0,0,1,.32-.11h.13a.33.33,0,0,1,.28.33l-.05.19-.09.17-.07.23c0,.12.09.2.26.24l.16,0a.84.84,0,0,0,.62-.33l0,0h0l.15.27h0l0,0a1,1,0,0,1-.78.36l-.25,0c-.29-.07-.47-.22-.47-.44a.65.65,0,0,1,.09-.3h0a.7.7,0,0,0-.09.33c0,.26.21.42.51.49l.26,0a1,1,0,0,0,.82-.38v0l-.15-.27h0a.79.79,0,0,1-.59.32l-.15,0c-.16,0-.22-.09-.22-.19l.07-.21.09-.17L8.8,21a.38.38,0,0,0-.32-.37l-.14,0a.55.55,0,0,0-.35.12l0,0v0H8l0-.11v0H8l-.35-.08h0c-.17.39-.35.78-.54,1.16v0h0l.39.09h0c.07-.17.15-.34.23-.51s.25-.34.39-.34h.07l.11.1,0,.08-.09.18Z"/><path class="cls-4" d="M11.22,22.11a1.33,1.33,0,0,1-1.18.27c-.51-.11-.71-.49-.5-.9l.16-.31-.28-.06.13-.27.3,0,.09-.17.21-.17.27.06-.19.37.52.12-.12.28-.54-.12-.13.27c-.13.25-.13.47.2.54a1,1,0,0,0,1-.29Z"/><path class="cls-4" d="M11.22,22.11l0,0a1.25,1.25,0,0,1-.83.3,1.53,1.53,0,0,1-.33,0c-.36-.08-.56-.3-.56-.56a.66.66,0,0,1,.08-.3l.16-.31v0h0l-.25-.05.1-.22.28,0h0l.09-.17.19-.16.26.06v0h0L10.2,21v0h0l.49.11-.1.23-.52-.11h0l-.13.27a.63.63,0,0,0-.09.28c0,.14.09.25.3.3l.23,0a1,1,0,0,0,.76-.32l0,0h0l.11.33h0l0,0,0,0h0l-.11-.33,0,0h0a.94.94,0,0,1-.72.3l-.22,0c-.2,0-.26-.13-.26-.25a.59.59,0,0,1,.08-.26l.13-.26.52.11h0l.12-.28v0h0l-.52-.12v0h0l.19-.37v0h0l-.27-.06h0l-.21.17h0l-.08.16-.28,0h0l-.12.27v0h0l.25.05-.14.29a.71.71,0,0,0-.09.32c0,.29.22.53.6.61a1.58,1.58,0,0,0,.34,0,1.3,1.3,0,0,0,.86-.31v0Z"/><path class="cls-4" d="M13.2,22.44a1.51,1.51,0,0,1-1.47.36c-.54-.12-.79-.46-.72-.8a.79.79,0,0,1,.94-.64.45.45,0,0,1,.4.54.5.5,0,0,1-.65.33.51.51,0,0,1-.33-.2c0,.19.08.39.47.47a1.15,1.15,0,0,0,1.23-.39Zm-1.73-.63a.36.36,0,0,0,.24.17c.16,0,.25,0,.27-.12a.16.16,0,0,0-.15-.2A.35.35,0,0,0,11.47,21.81Z"/><path class="cls-4" d="M13.2,22.44l0,0a1.32,1.32,0,0,1-1,.4,2,2,0,0,1-.43,0c-.47-.11-.71-.37-.71-.66V22a.77.77,0,0,1,.74-.64l.16,0a.43.43,0,0,1,.39.41v.1a.43.43,0,0,1-.46.33l-.16,0a.48.48,0,0,1-.31-.19h0l0,0v.06c0,.18.14.36.5.44a1.61,1.61,0,0,0,.35,0,1.08,1.08,0,0,0,.91-.43h0l.13.32h0l0,0,0,0h0l-.13-.32,0,0h0a1,1,0,0,1-.86.41,1.56,1.56,0,0,1-.34,0c-.34-.08-.46-.24-.46-.39V22h0a.53.53,0,0,0,.34.21l.17,0a.48.48,0,0,0,.51-.37v-.11a.48.48,0,0,0-.43-.46l-.17,0A.82.82,0,0,0,11,22v.12c0,.31.27.6.75.71a2,2,0,0,0,.44,0,1.37,1.37,0,0,0,1.05-.42v0Zm-1.73-.63h0a.39.39,0,0,0,.26.18h.09a.19.19,0,0,0,.21-.15v0a.19.19,0,0,0-.17-.19h-.07a.38.38,0,0,0-.31.17v0h0a.33.33,0,0,1,.27-.15h.06c.1,0,.13.08.13.14v0a.14.14,0,0,1-.16.11h-.08a.34.34,0,0,1-.22-.16Z"/><path class="cls-4" d="M15,22.91a1.05,1.05,0,0,1-1.07.34c-.42-.09-.68-.36-.41-.79l.11-.16,0-.18-.12-.05a2.33,2.33,0,0,1-.46.54l-.15-.27a2.29,2.29,0,0,0,.31-.4l-.29-.11.17-.33a6.08,6.08,0,0,0,.7.31c.3.13.44.31.23.64l-.07.11c-.14.21-.09.35.16.41a.85.85,0,0,0,.82-.32Z"/><path class="cls-4" d="M15,22.91l0,0a1,1,0,0,1-.78.36l-.27,0c-.3-.07-.5-.21-.5-.44a.6.6,0,0,1,.11-.31l.11-.16v0l0-.18v0L13.5,22h0a2.31,2.31,0,0,1-.45.53l0,0h0l-.15-.27h0l0,0a2.31,2.31,0,0,0,.31-.4v0l-.29-.11v0h0l.17-.33h0v0a6.1,6.1,0,0,0,.7.31c.2.08.32.18.32.33a.51.51,0,0,1-.1.27l-.07.11-.08.22c0,.11.09.2.25.23l.16,0a.93.93,0,0,0,.69-.35l0,0h0l.14.27h0l0,0,0,0h0l-.14-.27h0a.88.88,0,0,1-.65.33l-.14,0c-.15,0-.21-.1-.21-.18l.07-.19.07-.11a.56.56,0,0,0,.11-.3c0-.18-.14-.29-.35-.38a6.07,6.07,0,0,1-.7-.31h0l-.17.33v0h0l.29.1v0h0a2.26,2.26,0,0,1-.3.39v0l.15.27h0a2.35,2.35,0,0,0,.46-.54h0v0l.11,0,0,.16-.1.15a.64.64,0,0,0-.12.34c0,.26.23.42.54.48a1.28,1.28,0,0,0,.28,0,1,1,0,0,0,.82-.37v0Z"/><path class="cls-4" d="M17.11,23.33a1.45,1.45,0,0,1-1.42.35,1,1,0,0,1-.7-.44l-.33.71-.37-.08.81-1.73.34.07,0,.13h0a.44.44,0,0,1,.42-.11.5.5,0,0,1,.39.64.69.69,0,0,1-.47.53A1.16,1.16,0,0,0,17,23Zm-1.24-.48a.25.25,0,0,0-.2-.33.42.42,0,0,0-.47.28l-.05.11a.24.24,0,0,0,.21.27A.44.44,0,0,0,15.87,22.85Z"/><path class="cls-4" d="M17.11,23.33l0,0a1.29,1.29,0,0,1-1,.39,1.92,1.92,0,0,1-.41,0,.94.94,0,0,1-.68-.43l0,0h0l-.33.69-.32-.07.79-1.68.29.06,0,.1v0h.07a.4.4,0,0,1,.29-.12h.11a.46.46,0,0,1,.38.46l0,.15a.66.66,0,0,1-.45.51l0,0,0,0,.31,0A1.09,1.09,0,0,0,17,23h0l.11.34h0l0,0,0,0h0L17,23l0,0h0a1,1,0,0,1-.9.44l-.3,0v0a.71.71,0,0,0,.49-.55l0-.16a.51.51,0,0,0-.42-.51h-.12a.45.45,0,0,0-.33.13l0,0v0h0l0-.1v0h0l-.34-.07h0l-.81,1.73v0h0l.37.08h0l.33-.71h0a1,1,0,0,0,.72.46,2,2,0,0,0,.42,0,1.34,1.34,0,0,0,1-.41v0Zm-1.24-.48h0v-.09a.27.27,0,0,0-.23-.27h-.09a.47.47,0,0,0-.41.31l-.05.11h0v0a.27.27,0,0,0,.23.26h.09a.47.47,0,0,0,.45-.36h0a.42.42,0,0,1-.4.32h-.08a.22.22,0,0,1-.19-.21v0h0l.05-.11a.42.42,0,0,1,.36-.28h.08a.22.22,0,0,1,.19.22v.07Z"/><path class="cls-4" d="M19.32,23.81a.86.86,0,0,1-.87.28.48.48,0,0,1-.41-.31.73.73,0,0,1-.77.22.54.54,0,0,1-.41-.78.86.86,0,0,1,1-.55.55.55,0,0,1,.4.72c0,.16-.05.34.26.41a.57.57,0,0,0,.62-.28ZM17.74,23a.46.46,0,0,0-.51.32c-.08.19,0,.36.16.41a.46.46,0,0,0,.51-.35C18,23.19,17.94,23,17.74,23Z"/><path class="cls-4" d="M19.32,23.81l0,0a.81.81,0,0,1-.64.3l-.21,0a.46.46,0,0,1-.39-.29l0,0h0a.68.68,0,0,1-.53.24l-.21,0a.51.51,0,0,1-.44-.5.71.71,0,0,1,.05-.25.85.85,0,0,1,.79-.57l.22,0a.48.48,0,0,1,.39.51l0,.18,0,.14c0,.12.06.25.29.3l.14,0a.62.62,0,0,0,.51-.3h0l.16.29h0l0,0,0,0h0l-.16-.29h0a.57.57,0,0,1-.47.28h-.13c-.22-.05-.25-.14-.25-.25V23.4l0-.19a.53.53,0,0,0-.43-.56l-.23,0a.9.9,0,0,0-.83.6.76.76,0,0,0-.05.27.56.56,0,0,0,.48.54l.23,0a.73.73,0,0,0,.57-.26l0,0h0a.51.51,0,0,0,.43.33l.22,0a.86.86,0,0,0,.68-.32v0ZM17.74,23v0h-.1a.51.51,0,0,0-.44.35l0,.18a.26.26,0,0,0,.21.27h.09a.52.52,0,0,0,.45-.37l0-.16a.25.25,0,0,0-.21-.26v0a.2.2,0,0,1,.17.21l0,.14a.47.47,0,0,1-.4.34h-.08a.21.21,0,0,1-.18-.22l0-.16a.46.46,0,0,1,.4-.32h.09Z"/><path class="cls-4" d="M21,24.27a1.32,1.32,0,0,1-1.2.28.81.81,0,0,1-.69-1.07c.13-.61.57-1.05,1-1a.39.39,0,0,1,.3.52,1.22,1.22,0,0,1-1,.79.49.49,0,0,0,.44.4,1,1,0,0,0,1-.28Zm-1.53-.79v0a.82.82,0,0,0,.6-.5c0-.11,0-.18-.09-.19S19.62,23,19.51,23.48Z"/><path class="cls-4" d="M21,24.27l0,0a1.21,1.21,0,0,1-.84.31,1.53,1.53,0,0,1-.34,0,.78.78,0,0,1-.7-.77,1.18,1.18,0,0,1,0-.26c.12-.55.49-.95.87-.95h.12a.35.35,0,0,1,.3.36l0,.13a1.2,1.2,0,0,1-1,.77l0,0a.52.52,0,0,0,.46.42,1.18,1.18,0,0,0,.26,0,1,1,0,0,0,.75-.32l0,0h0l.12.31h0l0,0,0,0h0l-.12-.31,0,0h0a.93.93,0,0,1-.71.31l-.25,0c-.28-.07-.39-.2-.42-.38h0v0a1.24,1.24,0,0,0,1-.81l0-.14a.4.4,0,0,0-.34-.41H20c-.42,0-.79.43-.92,1a1.23,1.23,0,0,0,0,.27.83.83,0,0,0,.74.82,1.58,1.58,0,0,0,.35,0,1.26,1.26,0,0,0,.88-.33v0Zm-1.53-.79h0v.06h0a.85.85,0,0,0,.62-.52V23L20,22.8h0c-.18,0-.39.22-.49.68h0c.1-.45.3-.64.44-.64h0l.08.11V23a.8.8,0,0,1-.58.48v0h0v0Z"/><path class="cls-4" d="M23.27,24.78a1.17,1.17,0,0,1-1,.3.53.53,0,0,1-.46-.41.68.68,0,0,1-.62.17.49.49,0,0,1-.37-.65.87.87,0,0,1,1.05-.6l.44.13.13,0-.25.48a.34.34,0,0,0,.23.55.75.75,0,0,0,.76-.33Zm-1.38-.85-.13,0a.47.47,0,0,0-.59.36c0,.17,0,.26.14.29a.37.37,0,0,0,.39-.23Z"/><path class="cls-4" d="M23.27,24.78l0,0a1.16,1.16,0,0,1-.79.32l-.22,0a.51.51,0,0,1-.44-.39l0,0h0a.66.66,0,0,1-.45.18l-.14,0a.45.45,0,0,1-.38-.45l0-.17a.83.83,0,0,1,.82-.6l.21,0,.44.13.1,0-.23.46-.07.24a.36.36,0,0,0,.32.35l.14,0a.81.81,0,0,0,.65-.36l0,0h0l.11.33h0l0,0,0,0h0l-.11-.33,0,0h0a.76.76,0,0,1-.61.34H22.4a.31.31,0,0,1-.28-.3l.06-.22.25-.48v0h0l-.13,0-.44-.13-.22,0a.88.88,0,0,0-.86.64l0,.18a.5.5,0,0,0,.42.5l.15,0a.71.71,0,0,0,.49-.2l0,0h0a.56.56,0,0,0,.48.43l.23,0a1.21,1.21,0,0,0,.82-.33v0Zm-1.38-.85v0l-.13,0-.14,0a.49.49,0,0,0-.49.39v.09a.21.21,0,0,0,.17.23h.07a.42.42,0,0,0,.35-.25l.19-.38v0h0v0h0l-.19.38a.37.37,0,0,1-.31.22h-.06a.16.16,0,0,1-.13-.18v-.08a.44.44,0,0,1,.44-.35h.12l.13,0v0h0Z"/><path class="cls-4" d="M24.81,25.12a1.33,1.33,0,0,1-1.18.27c-.5-.11-.71-.49-.5-.9l.16-.31L23,24.12l.13-.27.3,0,.09-.17.21-.17.27.06-.19.37.52.12-.12.28-.54-.12-.13.27c-.13.25-.13.47.2.54a1,1,0,0,0,1-.29Z"/><path class="cls-4" d="M24.81,25.12l0,0a1.25,1.25,0,0,1-.83.3,1.54,1.54,0,0,1-.33,0c-.36-.08-.56-.3-.56-.56a.66.66,0,0,1,.08-.3l.16-.31v0h0l-.25-.06.1-.22.28,0h0l.08-.17.19-.16.26.06v0h0l-.19.37v0h0l.49.11-.1.24-.52-.11h0l-.13.27a.64.64,0,0,0-.08.28c0,.14.09.25.3.3l.23,0a1,1,0,0,0,.76-.32l0,0h0l.11.33h0l0,0,0,0h0l-.11-.33,0,0h0a.94.94,0,0,1-.72.3l-.22,0c-.2,0-.26-.13-.26-.25a.59.59,0,0,1,.08-.26l.13-.26.52.11h0l.12-.28v0h0L23.82,24v0h0l.19-.37v0h0l-.27-.06h0l-.21.17h0l-.08.16-.28,0h0l-.12.27v0h0l.25.06-.14.29a.71.71,0,0,0-.09.32c0,.29.22.52.6.61a1.59,1.59,0,0,0,.34,0,1.3,1.3,0,0,0,.86-.31v0Z"/><path class="cls-4" d="M26.79,25.45a1.51,1.51,0,0,1-1.47.36c-.54-.12-.79-.46-.72-.8a.79.79,0,0,1,.94-.64.45.45,0,0,1,.4.54.5.5,0,0,1-.65.33A.51.51,0,0,1,25,25c0,.19.08.39.47.47a1.15,1.15,0,0,0,1.23-.39Zm-1.73-.63a.37.37,0,0,0,.24.17c.16,0,.24,0,.26-.12a.17.17,0,0,0-.15-.2A.35.35,0,0,0,25.06,24.82Z"/><path class="cls-4" d="M26.79,25.45l0,0a1.32,1.32,0,0,1-1,.4,2,2,0,0,1-.43,0c-.47-.11-.71-.37-.71-.66V25a.77.77,0,0,1,.74-.64l.16,0a.43.43,0,0,1,.39.41v.1a.43.43,0,0,1-.46.33l-.16,0A.48.48,0,0,1,25,25h0l0,0v.06c0,.18.14.36.49.44a1.61,1.61,0,0,0,.35,0,1.08,1.08,0,0,0,.91-.43h0l.13.32h0l0,0,0,0h0l-.13-.32,0,0h0a1,1,0,0,1-.87.41,1.56,1.56,0,0,1-.34,0c-.34-.08-.45-.23-.46-.39V25h0a.53.53,0,0,0,.34.21l.17,0a.48.48,0,0,0,.51-.37v-.11a.48.48,0,0,0-.43-.46l-.17,0a.82.82,0,0,0-.79.68v.12c0,.31.27.6.75.71a2,2,0,0,0,.44,0,1.37,1.37,0,0,0,1.05-.42v0Zm-1.73-.63h0a.39.39,0,0,0,.26.18h.09a.2.2,0,0,0,.21-.15v0a.19.19,0,0,0-.17-.19h-.07a.39.39,0,0,0-.31.17v0h0a.34.34,0,0,1,.27-.15h.06c.1,0,.13.08.13.14v0a.14.14,0,0,1-.16.11h-.08a.34.34,0,0,1-.23-.16Z"/><line x1="20.43" y1="1.72" x2="19.09" y2="7.78"/><path class="cls-4" d="M20.19,1.67,18.84,7.73a.25.25,0,0,0,.49.11l1.34-6.06a.25.25,0,0,0-.49-.11"/><line x1="19.71" y1="4.91" x2="18.62" y2="3.12"/><path class="cls-4" d="M19.92,4.78,18.83,3a.25.25,0,0,0-.43.26L19.49,5a.25.25,0,0,0,.43-.26"/><line x1="19.48" y1="6.07" x2="21.8" y2="4.38"/><path class="cls-4" d="M19.63,6.27,22,4.59a.25.25,0,0,0-.29-.4L19.33,5.87a.25.25,0,0,0,.29.4"/><line x1="19.17" y1="7.05" x2="16.83" y2="5.33"/><path class="cls-4" d="M19.32,6.85,17,5.12a.25.25,0,0,0-.3.4L19,7.25a.25.25,0,0,0,.3-.4"/><line x1="22.41" y1="8.76" x2="25.27" y2="4.39"/><path class="cls-4" d="M22.62,8.9l2.86-4.37a.25.25,0,1,0-.42-.27L22.2,8.63a.25.25,0,1,0,.42.27"/><line x1="23.42" y1="7.16" x2="23.42" y2="4.9"/><path class="cls-4" d="M23.67,7.16V4.9a.25.25,0,1,0-.5,0V7.16a.25.25,0,1,0,.5,0"/><line x1="22.94" y1="8.07" x2="25.55" y2="7.48"/><path class="cls-4" d="M23,8.32l2.61-.6a.25.25,0,1,0-.11-.49l-2.61.6a.25.25,0,1,0,.11.49"/><line x1="15.62" y1="7.26" x2="14.91" y2="2.1"/><path class="cls-4" d="M15.87,7.22l-.71-5.16a.25.25,0,1,0-.5.07l.71,5.16a.25.25,0,1,0,.5-.07"/><line x1="15.42" y1="4.55" x2="16.42" y2="3.25"/><path class="cls-4" d="M15.62,4.7l1-1.3a.25.25,0,1,0-.4-.31l-1,1.3a.25.25,0,1,0,.4.31"/><line x1="15.44" y1="6.13" x2="13.16" y2="5.66"/><path class="cls-4" d="M15.49,5.89l-2.28-.47a.25.25,0,1,0-.1.49l2.28.47a.25.25,0,1,0,.1-.49"/><g class="cls-5"><path class="cls-4" d="M11,11l-1.91-.38.19-2.43a19.62,19.62,0,0,1,2.08-.42c1.45-.23,2.09.63,1.94,1.68V9.5A1.74,1.74,0,0,1,11,11Zm.64-1.64c0-.34-.08-.62-.51-.6l-.26,0L10.75,10,11,10c.41,0,.6-.23.64-.57Z"/><path class="cls-4" d="M15.2,12a2.16,2.16,0,0,1-1.72-2.47V9.44a2.31,2.31,0,0,1,2.51-2A2,2,0,0,1,17.71,10l0,.08A2.12,2.12,0,0,1,15.2,12Zm.86-2.25c.09-.47.09-.92-.29-1s-.54.38-.62.84l0,.11c-.08.46-.07.89.3,1s.52-.35.61-.82Z"/><path class="cls-4" d="M20.08,12.85l-.69-1.69-.07-.21-.39,1.65-1.39-.29,1-4.67c.45.1.89.21,1.33.33.27.61.46,1.57.72,2.16l.07.19c.14-.53.33-1.32.46-1.85q.72.25,1.42.56c-.36,1.28-.78,2.82-1.13,4.09Z"/><path class="cls-4" d="M22.27,11.36l.09-.32c.2.07.44-.1.52-.38l-.37-.15.33-1.16c.32.15.63.31.94.47l-.31,1A.86.86,0,0,1,22.27,11.36Z"/><path class="cls-4" d="M26.14,12.46l-.59,1.61L24,13.71l.66-2-1.06-.48c.12-.4.33-1,.45-1.36a21.4,21.4,0,0,1,3.36,2.48l-.27.69Z"/><path class="cls-4" d="M12.7,16.71l-2.53-.45Q10,15.1,9.82,13.91q-.53,1-1,2.11l-2.28-.36q-.48-2.45-1-5l2.55.6q.17,1.26.32,2.49.49-1.1,1-2.18l2.31.54q.16,1.21.31,2.39.53-1,1.08-2.07l2,.48Q13.87,14.75,12.7,16.71Z"/><path class="cls-4" d="M17.44,17.65l-.1-.76L16,16.61l-.45.65-2-.4c.92-1.27,1.85-2.5,2.81-3.7l2.45.58c.37,1.49.72,3,1,4.44Zm-.35-2.57-.5.69.62.14Z"/><path class="cls-4" d="M20,18.21l1-4,2.38.56-1.11,3.93Z"/><path class="cls-4" d="M27.42,17.26l-.85,2.58-2.28-.59.78-2.56-1.66-.4.39-1.37,5.75,1.36-.48,1.39Z"/><path class="cls-4" d="M11.66,28.91a12.32,12.32,0,0,0-.56-1.38L11,27.34l-.24.87c-.14-.13-.28-.27-.4-.42l.26-1.16.51.12a5.89,5.89,0,0,1,.61,1.16l.08.22L12.17,27l.55.13-.6,2.06Z"/><path class="cls-4" d="M13.65,30.07a1.31,1.31,0,0,1-.91-1.58l.07-.25a1.24,1.24,0,0,1,1.49-.83,1.22,1.22,0,0,1,.94,1.47l-.05.27A1.17,1.17,0,0,1,13.65,30.07Zm.93-1.36a.59.59,0,0,0-.41-.77.58.58,0,0,0-.71.47l-.08.32a.62.62,0,0,0,.41.8.57.57,0,0,0,.72-.49Z"/><path class="cls-4" d="M18.05,29.94l-.58.14c-.11-.37-.21-.78-.31-1.23-.24.42-.48.87-.73,1.35h-.59c-.15-.77-.27-1.61-.37-2.46l.63.14c.06.55.13,1.09.22,1.59.25-.49.49-1,.72-1.39l.52.11c.1.47.2.89.31,1.27a11.53,11.53,0,0,1,.63-1.07l.56.11A6.65,6.65,0,0,0,18.05,29.94Z"/></g></svg>