<svg id="Layer_1" data-name="Layer 1" xmlns="http://www.w3.org/2000/svg" viewBox="0 0 48 32"><defs><style>.cls-1{fill:#fff;}</style></defs><title>image-jamkid-exclamation-01</title><polygon class="cls-1" points="37.18 11.48 36.78 9.69 35.03 9.13 33.79 7.77 32 8.16 30.25 7.61 28.82 8.48 27.16 8.29 25.73 9.16 24.07 8.96 22.65 9.84 20.99 9.64 19.56 10.51 17.9 10.31 16.48 11.19 14.81 10.99 13.46 12.23 11.66 12.62 11.1 14.38 9.75 15.61 10.14 17.41 9.58 19.16 10.82 20.52 11.22 22.31 12.97 22.87 14.21 24.23 16 23.84 17.75 24.39 19.17 23.46 20.84 23.72 22.25 22.79 23.93 23.04 25.34 22.11 27.01 22.36 28.43 21.43 30.1 21.68 31.51 20.76 33.19 21.01 34.54 19.77 36.34 19.38 36.9 17.63 38.25 16.39 37.86 14.59 38.42 12.84 37.18 11.48"/><path d="M37.18,11.48l.49-.11-.39-1.8a.5.5,0,0,0-.34-.37l-1.62-.52L34.16,7.43a.5.5,0,0,0-.48-.15L32,7.65,30.4,7.13a.5.5,0,0,0-.41.05L28.71,8l-1.49-.18a.5.5,0,0,0-.32.07l-1.28.78-1.49-.18a.5.5,0,0,0-.32.07l-1.28.78L21,9.14a.5.5,0,0,0-.32.07L19.45,10,18,9.82a.5.5,0,0,0-.32.07l-1.28.78-1.49-.18a.5.5,0,0,0-.4.13l-1.26,1.15-1.66.37a.5.5,0,0,0-.37.34l-.52,1.62L9.41,15.24a.5.5,0,0,0-.15.48l.36,1.66L9.11,19a.5.5,0,0,0,.11.49l1.15,1.26.36,1.66a.5.5,0,0,0,.34.37l1.62.52,1.15,1.26a.5.5,0,0,0,.48.15L16,24.35l1.62.52a.5.5,0,0,0,.43-.06L19.28,24l1.48.22a.5.5,0,0,0,.35-.08l1.25-.82,1.48.22a.5.5,0,0,0,.35-.08l1.25-.82,1.48.22a.5.5,0,0,0,.35-.08L28.54,22l1.48.22a.5.5,0,0,0,.35-.08l1.25-.82,1.48.22a.5.5,0,0,0,.41-.12l1.26-1.15,1.66-.37a.5.5,0,0,0,.37-.34l.52-1.62,1.26-1.15a.5.5,0,0,0,.15-.48l-.36-1.66L38.89,13a.5.5,0,0,0-.11-.49l-1.24-1.36-.37.34.49-.11-.49.11-.37.34,1,1.14-.47,1.48v.26l.33,1.51-1.14,1-.14.22-.47,1.48-1.51.33-.23.12L33,20.48l-1.44-.22a.5.5,0,0,0-.35.08L30,21.16l-1.48-.22a.5.5,0,0,0-.35.08l-1.25.82-1.48-.22a.5.5,0,0,0-.35.08l-1.25.82-1.48-.22a.5.5,0,0,0-.35.08l-1.25.82L19.24,23a.5.5,0,0,0-.35.08l-1.22.8-1.53-.48h-.26l-1.51.33-1-1.14-.22-.14-1.48-.47-.33-1.51-.12-.23-1-1.14.47-1.48V17.3l-.33-1.51,1.15-1,.14-.22.47-1.48,1.51-.33.23-.12L15,11.52l1.43.17a.5.5,0,0,0,.32-.07L18,10.83,19.5,11a.5.5,0,0,0,.32-.07l1.28-.78,1.49.18a.5.5,0,0,0,.32-.07l1.28-.78,1.49.18A.5.5,0,0,0,26,9.59l1.28-.78L28.76,9a.5.5,0,0,0,.32-.07l1.23-.76,1.53.49h.26l1.51-.33,1,1.15.22.14,1.48.47.33,1.51.12.23Z"/><path d="M18.92,18.77c-.81.29-1.23.52-1.86.79a1.87,1.87,0,0,1-1.12-1.41,2.65,2.65,0,0,1,0-1.61,3.5,3.5,0,0,1,2.17-.86l.17,1.11-.53.13c-.13-.54-.26-.66-.43-.62a1,1,0,0,0-.37.16,3.75,3.75,0,0,0,.15,1.13c.22.9.47,1.27.62,1.23l.18-.05a5.16,5.16,0,0,0-.2-.84l-.21.09-.09-.56a4.05,4.05,0,0,0,1.14-.26A11.36,11.36,0,0,0,18.92,18.77Z"/><path d="M22.24,17.66l.1.61a4.59,4.59,0,0,0-.53.09,4.36,4.36,0,0,0-.64.2,5.45,5.45,0,0,0-.59-1.16l-.24.06c.11.43.17.62.24.62a.15.15,0,0,0,.09,0l.1.62a6.12,6.12,0,0,0-.71.13,7.74,7.74,0,0,0-.82.24l-.09-.63a.21.21,0,0,0,.11,0c.11,0,.1-.3-.11-1.17s-.36-1.13-.48-1.11l-.13.05-.09-.6A22.73,22.73,0,0,0,21,14.95a1.1,1.1,0,0,1,.64.85,1.55,1.55,0,0,1-.11,1.07l-.17,0c.29.52.5.84.67.8A.47.47,0,0,0,22.24,17.66Zm-2-.65.21,0,.14,0a1.29,1.29,0,0,0,0-.74c-.08-.34-.3-.62-.52-.57l-.13.05A9.12,9.12,0,0,0,20.22,17Z"/><path d="M24.34,16.55l.57-.14.17,1.19c-.32,0-.71.13-.94.18-.54.13-1,.27-1.51.41l-.1-.61h.12c.12,0,.12-.25-.12-1.21s-.32-1.1-.47-1.06a.38.38,0,0,0-.13.05l-.09-.6c.41-.07,1.1-.22,1.48-.32s.69-.18,1-.3l.15,1.1-.54.13c0-.37-.3-.51-.43-.48a.3.3,0,0,0-.15.08,8.54,8.54,0,0,0,.16.91,3.18,3.18,0,0,0,.85-.26l0,.62a6.77,6.77,0,0,0-.75.13,4.44,4.44,0,0,0,.31.89.37.37,0,0,0,.16,0C24.29,17.21,24.43,17,24.34,16.55Z"/><path d="M28.41,16.15l.09.62a8,8,0,0,0-.87.17,8.18,8.18,0,0,0-.95.27l-.1-.62a.45.45,0,0,0,.16,0c.11,0,.09-.27,0-.6l-.74.18c0,.35.11.58.23.55l.11,0,.1.62a3.47,3.47,0,0,0-.54.09,4.44,4.44,0,0,0-.59.19l-.09-.62a.24.24,0,0,0,.11,0c.08,0,.13-.16.13-.28s.06-1.43,0-2.19a3.41,3.41,0,0,0-.4.13L25,14c.27,0,.64-.11,1-.2a7.54,7.54,0,0,0,.88-.26c.31.85,1.11,2.75,1.42,2.67Zm-1.83-.62A8.42,8.42,0,0,0,26,14.39c0,.36,0,.85,0,1.28Z"/><path d="M29.53,13.47a9.84,9.84,0,0,0,.25,1.22c.19.78.29,1.06.38,1.08a.29.29,0,0,0,.21-.06l.09.59a8.64,8.64,0,0,0-.86.16,8,8,0,0,0-.85.25l-.08-.59.13,0c.11,0,.07-.42-.11-1.15-.14-.56-.25-1-.32-1.2h-.08c-.1,0-.13.14,0,.57l-.52.13-.17-1.1c.36-.06.92-.18,1.19-.24s.85-.22,1.47-.4l.14,1.11-.49.12c-.1-.43-.17-.52-.28-.5Z"/><path d="M30.79,14a13.06,13.06,0,0,0-.36-1.29,2.77,2.77,0,0,0,.93-.23c.07.41.13.8.26,1.32s.19.69.27,1A8.63,8.63,0,0,0,31,15C30.95,14.66,30.88,14.37,30.79,14ZM31,15.13l.24,1a4.07,4.07,0,0,1,.46-.13,3.05,3.05,0,0,1,.45-.08l-.24-1-.48.13Z"/></svg>