<svg xmlns="http://www.w3.org/2000/svg" width="1440" height="32" viewBox="0 0 1440 32">
  <title>jam-crud</title>
  <path d="M0,0C45.814,0,91.727.086,137.486,2.614c17.3.956,34.51,2.917,51.8,3.987,33.611,2.079,67.886-.228,101.548-.889a135.15,135.15,0,0,1,19.429.552c15.161,1.9,28.569,6.172,43.933,6,13.308-.147,26.534,2.674,39.837,2.277,12.245-.367,23.807-4.387,35.984-3.712,10.84.6,21.7.858,32.551.926,42.907.27,42.913-1.371,85.821-1.2,42.909.146,42.908.746,85.818.845,42.91.07,42.91.49,85.819.5,42.911-.013,42.914,2.984,85.827,2.888,42.912-.133,42.9-5.187,85.808-5.307,42.9-.141,42.924,5.624,85.831,5.273,18.9-.155,37.695-1.326,56.563-2.162,10.2-.451,21.612-2.446,31.493-.29a135.294,135.294,0,0,0,46.074,2.239c15.27-2.023,30.151-6.449,45.539-7.678,19.118-1.526,38.118,1.931,57.139,3.232,15.478,1.059,30.62-.966,45.893-1.915,11.264-.7,22.487-2.164,33.718-3.233C1342.425.331,1391.305,0,1440,0Z"/>
</svg>
