<svg id="Layer_1" data-name="Layer 1" xmlns="http://www.w3.org/2000/svg" viewBox="0 0 200 40"><defs><style>.cls-1,.cls-2{fill:#111;}.cls-1{fill-rule:evenodd;}</style></defs><title>logo-typekit</title><path class="cls-1" d="M0,.74V39.26H39.47V.74ZM1.64,2.38H37.83V37.62H1.64Z"/><path class="cls-2" d="M11.89,13.63H7.34c-.14,0-.19-.05-.16-.22l.33-2.28c0-.14.08-.19.22-.19H19.1c.16,0,.22.05.24.22l.22,2.25c0,.16-.05.22-.19.22H14.84V28.81c0,.14-.05.22-.22.22H12.11c-.16,0-.22-.05-.22-.22Z"/><path class="cls-2" d="M24.3,21.46l4.15-5.61c.11-.14.14-.19.27-.19h2.76c.16,0,.22.11.11.24-.65.84-3.63,4.53-4.61,5.72a.17.17,0,0,0,0,.16l5.26,7c.05.11,0,.22-.14.22h-3.2a.25.25,0,0,1-.27-.16c-.89-1.19-3.2-4.39-4.34-6v6c0,.14,0,.19-.19.19H21.56c-.19,0-.22-.05-.22-.22V11.11c0-.08,0-.16.19-.16h2.57a.17.17,0,0,1,.19.19Z"/><path d="M54.12,23l-2.36,6.49c0,.11-.08.14-.16.14h-1c-.11,0-.14-.05-.11-.16l6.3-17.17a2.18,2.18,0,0,0,.14-.77A.12.12,0,0,1,57,11.4h1.59c.11,0,.14,0,.16.11l6.55,17.94c0,.11,0,.16-.11.16H64.06a.15.15,0,0,1-.16-.11L61.51,23Zm7-1.23c-.63-1.78-2.77-7.56-3.29-9.34h0c-.49,1.73-2,5.78-3.29,9.34Z"/><path d="M66.58,23.15a6.81,6.81,0,0,1,7.18-6.9,9.17,9.17,0,0,1,2.25.22V10c0-.11,0-.14.14-.14h1c.14,0,.14,0,.14.14V27.92c0,.22,0,.47,0,.85,0,.08,0,.11-.11.16a8.78,8.78,0,0,1-4.11,1C69.45,29.89,66.58,27.59,66.58,23.15ZM76,17.81a6,6,0,0,0-8.08,5.26c0,4.11,2.68,5.61,5.31,5.61A7.17,7.17,0,0,0,76,28.22Z"/><path d="M92.1,23.07c0,4.05-2.41,6.82-5.92,6.82-4.22,0-6-3.59-6-6.82,0-3.89,2.44-6.82,6-6.82S92.1,19,92.1,23.07ZM81.48,23c0,3,1.7,5.67,4.79,5.67,2.14,0,4.52-1.64,4.52-5.59,0-2.82-1.34-5.67-4.71-5.67C83.34,17.43,81.48,19.73,81.48,23Z"/><path d="M96.15,9.84c.08,0,.14,0,.14.11v7a8.13,8.13,0,0,1,3.37-.68c3.64,0,6.05,2.6,6.05,6.33a7,7,0,0,1-7.2,7.31,10.16,10.16,0,0,1-3.4-.52.22.22,0,0,1-.14-.22V10c0-.08.05-.11.16-.11Zm3.37,7.59a7.19,7.19,0,0,0-3.23.66V28.41a7.68,7.68,0,0,0,2.3.3,5.65,5.65,0,0,0,5.81-6.05C104.4,19.65,102.59,17.43,99.52,17.43Z"/><path d="M109.08,22.85c-.14,3.31,1.62,5.81,5,5.81a7.12,7.12,0,0,0,3.42-.77c.08-.05.14,0,.14.08v.9c0,.11,0,.16-.11.19a7.38,7.38,0,0,1-3.64.82c-4.46,0-6.13-3.42-6.13-6.74,0-3.86,2.22-6.9,5.7-6.9a5,5,0,0,1,5.07,5.2,5.1,5.1,0,0,1-.08,1.15.18.18,0,0,1-.19.16c-.41.05-1.75.08-2.82.08Zm6.11-1.07a12.8,12.8,0,0,0,2-.05,1.56,1.56,0,0,0,0-.36,3.79,3.79,0,0,0-3.81-4c-2.63,0-4,2.11-4.3,4.38Z"/><path d="M131.43,12.64h-6.19c-.08,0-.14,0-.11-.16l.22-.93c0-.08.05-.14.16-.14h13.2c.11,0,.14,0,.16.14l.14.93c0,.11,0,.16-.11.16h-6.16V29.45a.15.15,0,0,1-.16.16h-1c-.11,0-.16,0-.16-.16Z"/><path d="M138.88,16.5c.05,0,.08,0,.14.11,2.71,6.9,4,10.16,4.41,11.28.88-2.27,2.22-5.75,4.3-11.28a.16.16,0,0,1,.16-.11h1c.11,0,.14.08.11.16-2.08,5.83-4.77,12.49-7.75,19.12a.26.26,0,0,1-.25.14l-1.12.11c-.11,0-.11-.08-.08-.16.82-1.7,1.92-4.19,2.88-6.41a.4.4,0,0,0,0-.3c-.6-1.48-3.42-8.27-5.12-12.52,0-.08,0-.14.08-.14Z"/><path d="M162,22.55c0,5-3.86,7.34-7.53,7.34a10.08,10.08,0,0,1-1.92-.16v6c0,.08,0,.14-.11.16l-1.07.14c-.08,0-.11,0-.11-.11V18.22a5.83,5.83,0,0,0-.08-.82.1.1,0,0,1,.08-.11,11.33,11.33,0,0,1,4.6-1C159.5,16.25,162,18.72,162,22.55ZM152.54,18V28.49a7.63,7.63,0,0,0,2,.19,5.79,5.79,0,0,0,6.11-6c0-3.12-1.81-5.23-5-5.23A7.9,7.9,0,0,0,152.54,18Z"/><path d="M165.33,22.85c-.14,3.31,1.62,5.81,5,5.81a7.12,7.12,0,0,0,3.42-.77c.08-.05.14,0,.14.08v.9c0,.11,0,.16-.11.19a7.38,7.38,0,0,1-3.64.82c-4.46,0-6.13-3.42-6.13-6.74,0-3.86,2.22-6.9,5.7-6.9a5,5,0,0,1,5.07,5.2,5.1,5.1,0,0,1-.08,1.15.18.18,0,0,1-.19.16c-.41.05-1.75.08-2.82.08Zm6.11-1.07a12.8,12.8,0,0,0,2-.05,1.56,1.56,0,0,0,0-.36,3.79,3.79,0,0,0-3.81-4c-2.63,0-4,2.11-4.3,4.38Z"/><path d="M178.78,29.48c0,.11,0,.14-.11.14H177.6c-.08,0-.14,0-.14-.14V10c0-.08.05-.11.14-.11h1.07c.08,0,.11,0,.11.11ZM179,22.6c1.18-1.07,5.56-5.26,6.35-6a.22.22,0,0,1,.22-.11h1.29a.09.09,0,0,1,.05.16c-.74.77-5.42,5-6.38,5.92,0,0,0,0,0,.08,1.86,1.81,5.12,4.82,7.28,6.79.08.08,0,.16-.05.16h-1.48c-.14,0-.19,0-.25-.11-1.75-1.62-5.61-5.2-7-6.57C178.89,22.8,178.89,22.74,179,22.6Z"/><path d="M189.26,12.2a.89.89,0,0,1,.88-1,.93.93,0,0,1,0,1.86A.83.83,0,0,1,189.26,12.2Zm.22,4.46c0-.11.05-.16.14-.16h1c.08,0,.14,0,.14.14V29.48c0,.11,0,.14-.14.14h-1c-.14,0-.19,0-.19-.16Z"/><path d="M200,29.29a.17.17,0,0,1-.11.19,4,4,0,0,1-1.83.41c-1.75,0-2.82-.82-2.82-3.34V17.7h-2c-.14,0-.16-.08-.16-.19v-.85c0-.11,0-.16.16-.16h2a31.23,31.23,0,0,1,.22-3.64.25.25,0,0,1,.11-.16l1-.19c.08,0,.16,0,.16.05a33.91,33.91,0,0,0-.19,3.94h3.09a.15.15,0,0,1,.16.16v.88c0,.11-.05.14-.16.16h-3.12v8.87c0,1.29.55,2.11,1.83,2.11a3.67,3.67,0,0,0,1.51-.3c.08,0,.14,0,.14.08Z"/></svg>