<svg id="Layer_1" data-name="Layer 1" xmlns="http://www.w3.org/2000/svg" viewBox="0 0 200 40"><title>logo-simon-cozens</title><g id="wCnUcv.tif"><path d="M102.49,3.42a19.85,19.85,0,0,1,2,.21q2.17.45,4.31,1a1.89,1.89,0,0,0,1.36-.08c.39-.18.77-.38,1.16-.55s.72-.12.85.37c.39,1.42.77,2.85,1.06,4.29s.43,2.86.66,4.29c.05.32,0,.5-.35.57a5.29,5.29,0,0,1-.56.14c-.61.07-.69,0-.9-.56A12.89,12.89,0,0,0,108.78,8a10,10,0,0,0-14.46.78,14.46,14.46,0,0,0-3.53,7.9,18.07,18.07,0,0,0,3.36,13.59A10.25,10.25,0,0,0,99.3,34.1a7.91,7.91,0,0,0,3.76.3A3.62,3.62,0,0,0,106.29,31a4.94,4.94,0,0,0-2.88-5.44c-.81-.41-1.67-.72-2.51-1.06a14.15,14.15,0,0,1-4-2.24A6.19,6.19,0,0,1,96,14.06a6.81,6.81,0,0,1,4.6-2.6,10.93,10.93,0,0,1,5.08.34c.55.17,1.13.28,1.68.44a.53.53,0,0,1,.33.32c.22,1.39.41,2.78.63,4.17.08.49-.25.55-.58.62s-.61.09-.74-.35a7.1,7.1,0,0,0-1.84-3.19,4.49,4.49,0,0,0-7.47,2,3.77,3.77,0,0,0,1.2,3.87,10.93,10.93,0,0,0,3.51,2.07c.88.36,1.77.71,2.64,1.08a10.48,10.48,0,0,1,1.1.58c3.1,1.8,3.87,4.66,3,7.73A7,7,0,0,1,104.28,36a11.43,11.43,0,0,1-9.52-1A15.91,15.91,0,0,1,86.2,22.12,17,17,0,0,1,90,9,15,15,0,0,1,101.1,3.48c.16,0,.32,0,.49-.07Z"/></g></svg>