<svg id="Layer_1" data-name="Layer 1" xmlns="http://www.w3.org/2000/svg" viewBox="0 0 200 40"><defs><style>.cls-1{fill:#fff;}</style></defs><title>logo-adobe-typekit</title><path d="M3.21,2h37V38h-37Z"/><path class="cls-1" d="M1.71,39.5V.5h40v39Zm37-3V3.5h-34v33Z"/><path d="M41.21,1V39h-39V1h39m-37,36h35V3h-35V37m38-37h-41V40h41V0Zm-37,4h33V36h-33c0-5,0-27,0-32Z"/><path class="cls-1" d="M14.83,13.42h-4.2a.19.19,0,0,1-.18-.18l.27-2.06A.19.19,0,0,1,10.9,11H21.18a.15.15,0,0,1,.18.18l.18,2.06a.15.15,0,0,1-.11.18H17.52v14.4a.19.19,0,0,1-.18.18H15.1a.19.19,0,0,1-.18-.18V13.42ZM26,21.11,29.77,16a.3.3,0,0,1,.23-.17h2.51c.18,0,.18.09.09.18-.63.81-3.31,4.12-4.21,5.19v.18l4.74,6.35c.09.09,0,.18-.09.18H30.22a.3.3,0,0,1-.22-.18c-.81-1.07-2.86-4-3.94-5.46v5.46a.15.15,0,0,1-.11.18H23.51a.15.15,0,0,1-.18-.18V11.18a.15.15,0,0,1,.11-.18h2.4a.19.19,0,0,1,.18.18v9.93Z"/><path d="M55.15,22.57,52.83,29a.15.15,0,0,1-.16.13h-1c-.11,0-.13,0-.11-.16l6.18-17a2.13,2.13,0,0,0,.13-.75.12.12,0,0,1,.13-.1h1.57a.13.13,0,0,1,.16.1h0l6.45,17.68c0,.11,0,.16-.11.16H65a.15.15,0,0,1-.2-.07v0l-2.35-6.42H55.15Zm6.91-1.21c-.62-1.75-2.73-7.45-3.24-9.2h0c-.49,1.7-2,5.7-3.24,9.2h6.48Z"/><path d="M67.44,22.73A6.71,6.71,0,0,1,74,15.92h.46a9,9,0,0,1,2.21.22V9.75c0-.11,0-.14.14-.14h1c.14,0,.14,0,.14.14V28.27a.17.17,0,0,1-.11.16,8.65,8.65,0,0,1-4,.94C70.27,29.37,67.44,27.1,67.44,22.73Zm9.29-5.26a5.89,5.89,0,0,0-8,5.18c0,4,2.65,5.53,5.24,5.53a7,7,0,0,0,2.73-.46V17.47Z"/><path d="M92.6,22.65c0,4-2.38,6.72-5.83,6.72-4.16,0-5.94-3.54-5.94-6.72,0-3.83,2.4-6.72,5.91-6.72S92.6,18.6,92.6,22.65Zm-10.47,0c0,3,1.67,5.59,4.72,5.59,2.11,0,4.45-1.62,4.45-5.51,0-2.78-1.32-5.59-4.64-5.59-2.66,0-4.53,2.27-4.53,5.5Z"/><path d="M96.6,9.61c.08,0,.13,0,.13.11V16.6a8,8,0,0,1,3.32-.67c3.59,0,6,2.56,6,6.24a6.88,6.88,0,0,1-6.54,7.21h-.56a10,10,0,0,1-3.35-.51.21.21,0,0,1-.13-.22V9.72c0-.08.05-.11.16-.11h1Zm3.32,7.48a7.09,7.09,0,0,0-3.19.65V27.91a7.59,7.59,0,0,0,2.27.3,5.57,5.57,0,0,0,5.72-6C104.72,19.27,102.94,17.09,99.92,17.09Z"/><path d="M109.34,22.43c-.14,3.27,1.59,5.72,4.94,5.72a7,7,0,0,0,3.37-.76c.08,0,.13,0,.13.08v.89a.16.16,0,0,1-.11.19,7.27,7.27,0,0,1-3.59.81c-4.4,0-6-3.37-6-6.64,0-3.81,2.19-6.8,5.61-6.8a4.89,4.89,0,0,1,5,4.77q0,.18,0,.36a5.06,5.06,0,0,1-.08,1.13.18.18,0,0,1-.19.16c-.41,0-1.73.08-2.78.08h-6.3Zm6-1a12.46,12.46,0,0,0,2,0,1.57,1.57,0,0,0,0-.35,3.74,3.74,0,0,0-3.57-3.91h-.18c-2.59,0-3.94,2.08-4.24,4.32h6Z"/><path d="M131.37,12.36h-6.1c-.08,0-.13,0-.11-.16l.22-.92a.15.15,0,0,1,.16-.13h13a.13.13,0,0,1,.16.13l.14.92c0,.11,0,.16-.11.16h-6.07V28.94a.14.14,0,0,1-.12.16h-1a.13.13,0,0,1-.16-.16V12.36Z"/><path d="M138.72,16.17a.16.16,0,0,1,.13.11c2.67,6.8,4,10,4.35,11.12.86-2.24,2.19-5.67,4.24-11.12a.15.15,0,0,1,.16-.11h1a.11.11,0,0,1,.11.16c-2.05,5.75-4.7,12.31-7.64,18.84a.25.25,0,0,1-.24.13l-1.11.11c-.11,0-.11-.08-.08-.16.81-1.67,1.89-4.13,2.83-6.32a.4.4,0,0,0,0-.3c-.59-1.46-3.37-8.15-5-12.34,0-.08,0-.13.08-.13h1.17Z"/><path d="M161.5,22.14c0,4.89-3.81,7.23-7.42,7.23a10,10,0,0,1-1.89-.16v5.91a.13.13,0,0,1-.1.16h0l-1.05.13c-.08,0-.11,0-.11-.11V17.87a5.65,5.65,0,0,0-.08-.81.1.1,0,0,1,.08-.11,11.16,11.16,0,0,1,4.54-1C159,15.93,161.5,18.36,161.5,22.14Zm-9.31-4.45V28a7.52,7.52,0,0,0,2,.19,5.71,5.71,0,0,0,6-5.41q0-.27,0-.53c0-3.08-1.78-5.16-4.94-5.16a7.78,7.78,0,0,0-3.06.59Z"/><path d="M164.8,22.43c-.13,3.27,1.59,5.72,4.94,5.72a7,7,0,0,0,3.37-.76c.08,0,.13,0,.13.08v.89a.16.16,0,0,1-.11.19,7.27,7.27,0,0,1-3.59.81c-4.4,0-6-3.37-6-6.64,0-3.81,2.19-6.8,5.61-6.8a4.89,4.89,0,0,1,5,4.77q0,.18,0,.36a5.06,5.06,0,0,1-.08,1.13.18.18,0,0,1-.19.16c-.41,0-1.73.08-2.78.08h-6.3Zm6-1a12.47,12.47,0,0,0,2,0,1.57,1.57,0,0,0,0-.35,3.74,3.74,0,0,0-3.57-3.91h-.18c-2.59,0-3.94,2.08-4.24,4.32h6Z"/><path d="M178.05,29c0,.11,0,.13-.11.13h-1.05a.12.12,0,0,1-.13-.13V9.72a.11.11,0,0,1,.11-.11h1.07a.09.09,0,0,1,.11.11Zm.22-6.78c1.16-1,5.48-5.18,6.26-5.91a.22.22,0,0,1,.22-.11H186a.09.09,0,0,1,.05.16c-.73.76-5.34,4.91-6.29,5.83v.08c1.84,1.78,5,4.75,7.18,6.69a.09.09,0,0,1-.05.16h-1.46a.24.24,0,0,1-.24-.11c-1.73-1.59-5.53-5.13-6.94-6.48a.2.2,0,0,1,0-.28l.07-.06Z"/><path d="M188.4,11.93a.88.88,0,0,1,.81-.95h.05a.92.92,0,0,1,0,1.84.81.81,0,0,1-.86-.89Zm.22,4.4a.14.14,0,0,1,.12-.16h1a.12.12,0,0,1,.13.13V29c0,.11,0,.13-.13.13h-1c-.13,0-.19,0-.19-.16V16.33Z"/><path d="M199,28.78a.17.17,0,0,1-.11.19,3.93,3.93,0,0,1-1.81.4c-1.73,0-2.78-.81-2.78-3.29V17.36h-2a.16.16,0,0,1-.16-.19v-.84a.13.13,0,0,1,.09-.16h2.07a30.92,30.92,0,0,1,.22-3.59.25.25,0,0,1,.11-.16l1-.19c.08,0,.16,0,.16.05a33.26,33.26,0,0,0-.19,3.89h3.05a.14.14,0,0,1,.16.16v.87a.15.15,0,0,1-.14.16h-3.1V26.1c0,1.27.54,2.08,1.81,2.08a3.62,3.62,0,0,0,1.49-.3c.08,0,.13,0,.13.08v.81Z"/></svg>