<svg id="Layer_1" data-name="Layer 1" xmlns="http://www.w3.org/2000/svg" viewBox="0 0 200 40"><title>logo-typethursdaysf</title><path d="M116.34,22.6c.4.1.7.1,1.1.2a14.28,14.28,0,0,0,4.1.4,2,2,0,0,0,1.1-.2,1,1,0,0,0,.9-1c-.3-.3-.6,0-.9,0a8.21,8.21,0,0,1-4.4,0c-1.7-.4-2.2-1.1-2.3-2.8V16.7a13.39,13.39,0,0,1,5.3-.1,6,6,0,0,1,.1,2.3,1.06,1.06,0,0,0,1.2,1q.9-.15.9-.9V17.9c0-.4.1-.8.1-1.2a15.84,15.84,0,0,1,5.4-.1,3.55,3.55,0,0,1,.2,1c0,1.4.1,2.8.1,4.2a8.75,8.75,0,0,1-.2,1.6,2.6,2.6,0,0,1-1.8,2.1c-.3.1-.7.2-1.1.3a27,27,0,0,1-9.4-.2c-1-.2-1-.3-1-1.3A7,7,0,0,1,116.34,22.6Z"/><path d="M32.54,13.9a8.78,8.78,0,0,1,.1-2.8,3.75,3.75,0,0,1,1.1.1,13.25,13.25,0,0,0,4.4.5,3.71,3.71,0,0,0,1.4-.4c.3-.2.6-.5.3-1a7.93,7.93,0,0,1-4,.5,6.53,6.53,0,0,1-2-.5,1.83,1.83,0,0,1-1.3-1.8V5.6a.47.47,0,0,1,.5-.5,26.43,26.43,0,0,1,4.8.2c0,.3.1.7.1,1A6.15,6.15,0,0,0,38,7.7c.1.5.3.8.8.8A1.21,1.21,0,0,0,40,7.9c.1-.4.1-.7.2-1.1a7.57,7.57,0,0,1,.1-1.5,13.78,13.78,0,0,1,5.4-.1,2.92,2.92,0,0,1,.2.9v4.6a5.7,5.7,0,0,1-.1,1.3,2.49,2.49,0,0,1-1.7,2,3.54,3.54,0,0,1-1.1.3A26.57,26.57,0,0,1,32.54,13.9Z"/><path d="M53.34,11.7c-.1.8-.1,1.6-.2,2.4a15.05,15.05,0,0,1-5.6,0,21.42,21.42,0,0,1-.1-4.4V5.2a4.4,4.4,0,0,1,1-.2h3.8c.7,0,.7,0,1.3.7a17.23,17.23,0,0,1,2.1-.7,13.33,13.33,0,0,1,2,0,2.2,2.2,0,0,1,.8.1l1.1.3c1.8.7,2.1,2.7,1.9,4.2-.2,1.9-1.1,3-2.8,3.2s-3.4.3-4.9-1C53.64,11.7,53.54,11.8,53.34,11.7Zm1.3-1.9a2.3,2.3,0,0,0,.9-.3,1,1,0,0,0,0-1.6,1.65,1.65,0,0,0-2,.3,1.25,1.25,0,0,0-.3,1.2.87.87,0,0,0,.9.4Z"/><path d="M94.84,24.1c-.1-.3-.2-.7-.3-1.1-1.5,1.5-3.3,1.5-5.1,1.3a3.08,3.08,0,0,1-2.8-2.7,5,5,0,0,1,0-2.1,3.42,3.42,0,0,1,3.2-3,6.8,6.8,0,0,1,4.2.6c.1.1.3.1.6.2.1-.7.1-1.4.2-2a1.69,1.69,0,0,1,.5-.2h4.6a.76.76,0,0,1,.4.2,42.16,42.16,0,0,1,0,8.7A16.52,16.52,0,0,1,94.84,24.1ZM93,21.2c1.1,0,1.7-.6,1.6-1.5a.85.85,0,0,0-.3-.5,2.51,2.51,0,0,0-1.9.1,1,1,0,0,0,0,1.8A1.76,1.76,0,0,0,93,21.2Z"/><path d="M40.74,24.2c-.4-.7-.2-1.3-.3-1.9a5.7,5.7,0,0,0-.1-1.3c-.1-.5-.4-.8-.8-.8a1.11,1.11,0,0,0-1.2.9,8.6,8.6,0,0,0-.1,1.6c0,1.6,0,1.6-1.6,1.6h-3a3.75,3.75,0,0,1-1-.1c-.4-1.5-.1-3-.2-4.5V15.3c.4-.1.8-.3,1.1-.2a35.33,35.33,0,0,1,4.6.1,23.48,23.48,0,0,1,.1,2.6c.2-.1.3,0,.4-.1,1.5-1.4,3.3-1.4,5.1-1.1A2.46,2.46,0,0,1,46,19.2c.1,1.4,0,2.9,0,4.3a1.42,1.42,0,0,1-.2.6C44.24,24.2,42.54,24.2,40.74,24.2Z"/><path d="M33.64,27.5a5,5,0,0,1,0,2.7c-.4-.1-.8-.1-1.1-.2a15.38,15.38,0,0,0-5.2-.9,2.92,2.92,0,0,0-.9.2c-.1,0-.1.2-.1.3s.1.2.2.3a2.92,2.92,0,0,0,.9.2c1.3.2,2.5.3,3.8.5a8.8,8.8,0,0,1,1.5.5,2.17,2.17,0,0,1,.2,3.8,3.13,3.13,0,0,1-1,.5,3.53,3.53,0,0,1-1.4.3,30.89,30.89,0,0,1-9.1-.3c-.4-.1-.7-.3-1.1-.4,0-.4-.1-.9-.1-1.3s.1-.8.1-1.4a3.54,3.54,0,0,1,1.1.3,13.17,13.17,0,0,0,4.4.8h1.1c.2,0,.5-.2.5-.3.1-.3-.3-.4-.5-.4-1-.1-2-.2-3-.4a6.15,6.15,0,0,1-2.3-.7,2.06,2.06,0,0,1-.3-3.7,6.56,6.56,0,0,1,2.1-.8,12,12,0,0,1,3.8-.3c1.6.1,3.3.2,4.9.4Q33,27.35,33.64,27.5Z"/><path d="M56,16.8a24.33,24.33,0,0,1,5.4,0,29.58,29.58,0,0,1,.1,7.4,8.68,8.68,0,0,1-2.8.1h-2.8c-.1-.4-.3-.8-.4-1.2h-.3c-1.5,1.4-3.3,1.4-5.1,1.2a2.6,2.6,0,0,1-2.3-2.6c-.1-1.3,0-2.7,0-4,0-.3.1-.5.1-.8a16.34,16.34,0,0,1,5.5-.1c0,.3.1.6.1.9a16.2,16.2,0,0,0,.1,2.2.77.77,0,0,0,1,.8,1,1,0,0,0,1-.8,7.08,7.08,0,0,0,.1-1.4C55.84,17.9,55.64,17.3,56,16.8Z"/><path d="M62.84,35.7c-.4,0-.6.1-.9.1h-4.7a4.4,4.4,0,0,1-.2-1,16.2,16.2,0,0,0-.1-2.2.79.79,0,0,0-.8-.8,1,1,0,0,0-1.1.7c-.1.4-.1.8-.2,1.3a6.08,6.08,0,0,1-.1,1.9,19.71,19.71,0,0,1-5.5.1,14.34,14.34,0,0,1-.1-3.6V28.5a4.4,4.4,0,0,1,1-.2h3.8c.8,0,.7,0,1,.9,0,.1.1.2.1.3h.3c1.5-1.5,3.4-1.5,5.2-1.1a2.44,2.44,0,0,1,2.2,2A18.59,18.59,0,0,1,62.84,35.7Z"/><path d="M110.34,28.3c.1.4.2.8.3,1.1.2,0,.3,0,.4-.1a5.63,5.63,0,0,1,5.1-1.2,2.5,2.5,0,0,1,2.4,2.7c.1,1.4,0,2.8,0,4.2,0,.2-.1.4-.1.6a24.78,24.78,0,0,1-5.5.1,2.92,2.92,0,0,1-.2-.9V32.7a.88.88,0,0,0-.7-.9,1.21,1.21,0,0,0-1.3.7c-.1.4-.1.8-.2,1.3a4.71,4.71,0,0,1-.2,2c-.3,0-.6.1-.9.1h-3.8c-.6,0-.8-.2-.9-.7-.1-.7,0-5.9.1-6.7A14,14,0,0,1,110.34,28.3Z"/><path d="M172.54,36c-.8-.1-1.9-.2-3-.3a7.37,7.37,0,0,1-1.4-.4,3.74,3.74,0,0,1-2-5.2,2.32,2.32,0,0,1,1.5-1.4,7.94,7.94,0,0,1,2.2-.6,32.1,32.1,0,0,1,6.2,0,8.47,8.47,0,0,1,1.7.4,3,3,0,0,1,2.3,2.8,3.44,3.44,0,0,1-1.6,3.6,7.48,7.48,0,0,1-3.2,1C174.44,35.9,173.64,35.9,172.54,36Zm.3-3.1c.3-.1.6-.1.8-.2a1.08,1.08,0,0,0,.7-1.1c-.1-.4-.4-.8-.8-.8a6.15,6.15,0,0,0-1.4.1,1,1,0,0,0-.7.8,1,1,0,0,0,.5,1.1A2.77,2.77,0,0,1,172.84,32.9Z"/><path d="M67.84,9.6a1.9,1.9,0,0,0,1.6.8c1,0,2-.1,3-.2a8.68,8.68,0,0,1,2.3-.1c.1.5.1.9.2,1.4s-.2.7-.7.8a30.51,30.51,0,0,1-8,.3,3.45,3.45,0,0,1-1.3-.3A3.86,3.86,0,0,1,62.34,7a2.94,2.94,0,0,1,1.5-1.6,8.3,8.3,0,0,1,2.1-.6,31.08,31.08,0,0,1,6.1,0,6.58,6.58,0,0,1,1.5.4,1.86,1.86,0,0,1,1.3,2.1A1.8,1.8,0,0,1,73.34,9a11.23,11.23,0,0,1-3.2.3A6.71,6.71,0,0,1,67.84,9.6Zm1-1.4c.2-.1.7-.2,1-.3s.2-.5,0-.7a1.47,1.47,0,0,0-2.1.3.38.38,0,0,0,.2.6A3.08,3.08,0,0,1,68.84,8.2Z"/><path d="M91,31.2a4.6,4.6,0,0,1,0-2.6,7.79,7.79,0,0,1,2.1-.4,31,31,0,0,1,6.1-.1c.6.1,1.2.2,1.7.3a2.79,2.79,0,0,1,2.2,2.9v4.2a2.92,2.92,0,0,1-.9.2,28.1,28.1,0,0,0-2.9.1c-.7,0-1.4-.1-1.6-1.1A6.26,6.26,0,0,1,93,35.8a3.19,3.19,0,0,1-1.4-.3,1.82,1.82,0,0,1-.4-3.2,4.9,4.9,0,0,1,1.9-.7c1.4-.2,2.9-.2,4.4-.3.2-.2,0-.5-.3-.5a5.24,5.24,0,0,0-1.7-.2c-1.1.1-2.1.3-3.2.4C92,31.1,91.54,31.1,91,31.2Zm5.7,1.4c-.3.1-.7.2-1.1.3-.2.1-.2.5,0,.7a1.69,1.69,0,0,0,2.1-.4c.1-.1,0-.3-.1-.4C97.34,32.7,97,32.7,96.74,32.6Z"/><path d="M114.34,24.1a21.91,21.91,0,0,1-4.3.2c-.6-.1-.8-.5-1-1a6.21,6.21,0,0,1-4.6,1A3.19,3.19,0,0,1,103,24a1.51,1.51,0,0,1-1.2-1.5,1.68,1.68,0,0,1,.9-1.8,4.26,4.26,0,0,1,1.8-.6c1.2-.1,2.4-.2,3.7-.2h.7a.53.53,0,0,0-.4-.7,11.14,11.14,0,0,0-1.7-.2c-1.1.1-2.1.3-3.2.4-.4.1-.8.1-1.3.2a4.61,4.61,0,0,1-.1-2.6l1.4-.3a30.06,30.06,0,0,1,6.7-.2,8.73,8.73,0,0,1,2.2.5,2.69,2.69,0,0,1,1.8,2.4Zm-5.4-2.8a2.52,2.52,0,0,0-1.7-.1.76.76,0,0,0-.4.2.43.43,0,0,0,.1.7,2.46,2.46,0,0,0,1.2.1C108.44,22.2,108.84,22,108.94,21.3Z"/><path d="M79.34,31.1a5.69,5.69,0,0,1,0,2.6c-1.3.5-2.8,0-4.2.3-.1.5-.1,1-.2,1.6a10.75,10.75,0,0,1-3.1.1,10.07,10.07,0,0,1-3-.1,2.54,2.54,0,0,1-.2-.7V28.2a2.2,2.2,0,0,1,.1-.8.78.78,0,0,1,.4-.4,2,2,0,0,1,.8-.1h8.5c.4,0,.7.1,1.1.1a5.28,5.28,0,0,1,0,2.5c-.5.6-1.1.5-1.7.5a19.27,19.27,0,0,0-2.4.1.43.43,0,0,0-.4.4c-.1.3.1.5.4.6.7,0,1.5.1,2.2.1A9.15,9.15,0,0,1,79.34,31.1Z"/><path d="M47.54,35.5a11.62,11.62,0,0,1-4.5.2c-.4-.1-.6-.5-1-.8a18,18,0,0,1-2.1.8,9.66,9.66,0,0,1-2.4.1,3.53,3.53,0,0,1-1.4-.3A1.53,1.53,0,0,1,35,34a1.75,1.75,0,0,1,1-1.9,5.23,5.23,0,0,1,1.6-.6c1.2-.1,2.3-.2,3.5-.2H42a.53.53,0,0,0-.4-.7,8.75,8.75,0,0,0-1.6-.2c-1.1.1-2.1.3-3.2.4-.4.1-.8.1-1.3.2a3.08,3.08,0,0,1-.2-2.3c0-.2.2-.3.4-.4a.75.75,0,0,1,.5-.1,29.79,29.79,0,0,1,7.3-.3,6.53,6.53,0,0,1,2,.5,2.46,2.46,0,0,1,1.8,2.4A38.55,38.55,0,0,1,47.54,35.5ZM41,32.6a6.21,6.21,0,0,1-1,.3c-.2.1-.2.5,0,.7a1.55,1.55,0,0,0,2-.3.37.37,0,0,0,.1-.3c-.1-.1-.2-.3-.3-.3A2.81,2.81,0,0,1,41,32.6Z"/><path d="M85.14,19.1c-1.3-.3-2.5-.5-3.7-.7a12.05,12.05,0,0,0-1.9,0c-.1,0-.2.2-.2.4a.22.22,0,0,0,.2.2c.2.1.5.1.8.2l2.7.3a8.33,8.33,0,0,1,1.5.4,2,2,0,0,1,.2,3.6,7.54,7.54,0,0,1-2.4.8,30.67,30.67,0,0,1-8-.3c-.2,0-.3-.1-.5-.1-.6-.2-.8-.4-.7-1,0-.3.1-.5.1-.8,0-.1.1-.2.2-.4.3,0,.6.1.9.1,1.3.2,2.5.5,3.8.7a1,1,0,0,0,1.3-.5c-.2-.1-.3-.3-.5-.3-.6-.1-1.3-.1-1.9-.2a19.8,19.8,0,0,1-2.6-.6,1.74,1.74,0,0,1-1.3-1.7,1.89,1.89,0,0,1,1-1.9,7.42,7.42,0,0,1,2.1-.7,31,31,0,0,1,8.6.3c.5.1.7.3.7.9A5,5,0,0,0,85.14,19.1Z"/><path d="M139.94,35.1c0-.6.1-1.1.1-1.8a3.08,3.08,0,0,1,1,.1c1.3.2,2.5.5,3.8.7a2.54,2.54,0,0,0,1.2-.2c.1,0,.1-.2.1-.3s-.1-.2-.1-.3a11.8,11.8,0,0,1-2-.4,24.75,24.75,0,0,1-2.9-.6,1.89,1.89,0,0,1-.4-3.3,8.79,8.79,0,0,1,1-.6,7.49,7.49,0,0,1,1.6-.4,28.91,28.91,0,0,1,8.3.3c.7.1.8.3.8,1,0,.4-.1.7-.1,1.2-.6-.1-1.1-.2-1.6-.3-1.1-.2-2.1-.4-3.2-.5-.3,0-.6.1-.9.1-.1,0-.2.2-.2.2s.1.2.1.3a1.88,1.88,0,0,0,.8.2l2.7.3a6.58,6.58,0,0,1,1.5.4,2,2,0,0,1,.4,3.5,3.87,3.87,0,0,1-2.1.8,24.18,24.18,0,0,1-8.9-.4A1.14,1.14,0,0,1,139.94,35.1Z"/><path d="M31.34,15.7v2.5c0,.3-.1.6-.1,1-.7.1-1.3.2-1.9.3-.4,1.5,0,3-.3,4.5-1,.5-2.2.2-3.3.2a12.39,12.39,0,0,1-3.3-.1c-.3-1.5.1-3-.2-4.6-.7-.1-1.3-.3-2-.4a9.79,9.79,0,0,1-.1-3.4,2.54,2.54,0,0,1,.7-.2h9.6A3.71,3.71,0,0,1,31.34,15.7Z"/><path d="M31.24,7.7l-2,.3c-.4,1.5,0,3-.3,4.5-1,.6-2.2.2-3.3.2a12.39,12.39,0,0,1-3.3-.1c-.3-1.5.1-3-.2-4.6-.7-.1-1.3-.3-2-.4A9.65,9.65,0,0,1,20,4.2c.4,0,.6-.2.9-.2h9.6c.2,0,.4.1.7.1A10.87,10.87,0,0,1,31.24,7.7Z"/><path d="M131.14,31.1a21.75,21.75,0,0,0-2.5-.1c-.7,0-1.4.1-2.1.1a.65.65,0,0,0-.6.6.83.83,0,0,0,.7.8,8.6,8.6,0,0,0,1.6.1,28.25,28.25,0,0,0,2.9-.2,5.34,5.34,0,0,1,.5,2.5.82.82,0,0,1-.4.6,10.62,10.62,0,0,1-1.9.4,19.53,19.53,0,0,1-5.4,0,6.15,6.15,0,0,1-2.3-.7,3,3,0,0,1-1.8-2.6V31.3a3,3,0,0,1,2-2.7,10.55,10.55,0,0,1,1.9-.5,47,47,0,0,1,6.5,0,5.27,5.27,0,0,1,1.2.3A13.13,13.13,0,0,1,131.14,31.1Z"/><path d="M164.94,28.5a6.38,6.38,0,0,1-.1,2.4,5.93,5.93,0,0,1-2.3,0,16.2,16.2,0,0,0-2.2.1.86.86,0,0,0-.6.3.67.67,0,0,0,0,1,2,2,0,0,0,1.1.3,24.37,24.37,0,0,0,2.7-.1c.4,0,.7-.1,1.1-.1a5.59,5.59,0,0,1,.5,2.5.82.82,0,0,1-.4.6,7.11,7.11,0,0,1-2,.4,43.39,43.39,0,0,1-5.1,0,5.13,5.13,0,0,1-2.4-.7,3,3,0,0,1-1.8-2.6V31.2a2.58,2.58,0,0,1,1.8-2.4,4.55,4.55,0,0,1,2-.5,35.28,35.28,0,0,1,6.5,0A2.54,2.54,0,0,1,164.94,28.5Z"/><path d="M81.14,28.2a32.3,32.3,0,0,1,4.4,0c.1.4.1.7.2,1.1a17.39,17.39,0,0,1,1.8-1.1,3,3,0,0,1,2.1,0,13.62,13.62,0,0,1-.2,4,5.28,5.28,0,0,0-1.3.1A1.2,1.2,0,0,0,87,33.5a4.05,4.05,0,0,0,0,1.1,2.2,2.2,0,0,1-.1.8c0,.1-.1.2-.2.3s-.3.1-.4.1h-4.9a.76.76,0,0,1-.4-.2c-.1-.2-.2-.3-.2-.4V28.8A3.33,3.33,0,0,0,81.14,28.2Z"/><path d="M63.44,16.7a32.3,32.3,0,0,1,4.4,0c.1.4.1.7.2,1.1a17.39,17.39,0,0,1,1.8-1.1,3,3,0,0,1,2.1,0,17,17,0,0,1-.1,3.9,5.28,5.28,0,0,0-1.3.1,1.2,1.2,0,0,0-1.1,1.2V23c0,.4-.1.7-.1,1.2-.5,0-.9.1-1.3.1-1.5-.1-3.1.1-4.6-.1a2.54,2.54,0,0,1-.2-.7V17.3A4.17,4.17,0,0,0,63.44,16.7Z"/><path d="M132.84,35.7a1.69,1.69,0,0,1-.2-.5V29c0-.2.1-.4.1-.6a15.05,15.05,0,0,1,5.6,0c0,.1.2.3.2.4V35c0,.2-.1.4-.1.7a2.92,2.92,0,0,1-.9.2C135.84,35.7,134.34,36,132.84,35.7Z"/><path d="M135.64,26.3a26,26,0,0,1,2.6.3c.2,0,.4.3.4.4s-.2.4-.4.4a12.3,12.3,0,0,1-5.4,0c-.2,0-.4-.4-.4-.4.1-.2.3-.5.5-.5C133.84,26.4,134.64,26.4,135.64,26.3Z"/></svg>