<svg xmlns="http://www.w3.org/2000/svg" width="685.268" height="535.398" viewBox="0 0 685.268 535.398">
  <title>logo-dalton-maag</title>
  <path d="M340.193,95.727a45.481,45.481,0,0,1-5.925,5.989,34.849,34.849,0,0,1-7.226,4.623,39.847,39.847,0,0,1-8.92,3.059,51.486,51.486,0,0,1-11.2,1.107,47.167,47.167,0,0,1-12.761-1.693,30.371,30.371,0,0,1-10.677-5.468,26.618,26.618,0,0,1-7.227-9.636,33.665,33.665,0,0,1-2.734-14.192,36.136,36.136,0,0,1,1.953-12.435,30.059,30.059,0,0,1,5.274-9.245,30.379,30.379,0,0,1,7.942-6.511,48.179,48.179,0,0,1,9.831-4.166,64.486,64.486,0,0,1,10.938-2.344q5.664-.782,11.263-1.042l19.075-.781V38.37q0-7.878-4.232-11.459-4.231-3.645-12.044-3.645a35.83,35.83,0,0,0-6.38.52,15.57,15.57,0,0,0-4.948,1.758,11.89,11.89,0,0,0-3.646,3.255,16.236,16.236,0,0,0-2.278,5.013l-27.149-1.627a38.19,38.19,0,0,1,5.013-13.932,31.485,31.485,0,0,1,9.375-9.766,41.457,41.457,0,0,1,13.542-5.664A77.264,77.264,0,0,1,324.568,1q12.11,0,20.377,2.865A32.325,32.325,0,0,1,358.292,12a30.5,30.5,0,0,1,7.291,12.89A60.624,60.624,0,0,1,367.8,41.95v66.016h-27.6Zm-.651-33.464-14.193.586a51.963,51.963,0,0,0-11,1.3,19.551,19.551,0,0,0-6.9,2.93,9.989,9.989,0,0,0-3.58,4.427,15.857,15.857,0,0,0-.977,5.729q0,5.6,3.451,8.333,3.515,2.735,9.83,2.735a34.567,34.567,0,0,0,9.245-1.172,20.475,20.475,0,0,0,7.422-3.646,17.431,17.431,0,0,0,4.883-6.38,21.085,21.085,0,0,0,1.823-9.115Zm9.179,315.365a49.14,49.14,0,0,1-6.054,6.38,39.728,39.728,0,0,1-7.617,5.143,41.71,41.71,0,0,1-9.245,3.516,43.72,43.72,0,0,1-11,1.3,50.382,50.382,0,0,1-14.193-1.888,31.163,31.163,0,0,1-11.132-5.729,26.371,26.371,0,0,1-7.227-9.636,33.582,33.582,0,0,1-2.6-13.737,36.418,36.418,0,0,1,1.823-12.044,28.439,28.439,0,0,1,5.208-9.115,29.959,29.959,0,0,1,8.008-6.51,47.471,47.471,0,0,1,10.286-4.3,72.98,72.98,0,0,1,12.045-2.474q6.445-.846,13.281-1.107l18.034-.586V323.2q0-11.849-5.469-17.187-5.469-5.4-16.406-5.4-10.547,0-16.276,3.711a16.54,16.54,0,0,0-7.292,10.547L285.05,313.7q2.474-14.322,12.955-21.484t29.232-7.162q11.458,0,19.206,2.8a28.8,28.8,0,0,1,19.271,20.508,61.207,61.207,0,0,1,2.083,16.666v66.342H348.721Zm-.39-37.11-17.188.586a71.462,71.462,0,0,0-15.169,2.018,28.4,28.4,0,0,0-9.635,4.362A15.2,15.2,0,0,0,301.26,354a22.606,22.606,0,0,0-1.5,8.4,18.542,18.542,0,0,0,1.042,6.38,13.653,13.653,0,0,0,3.255,4.948,15.921,15.921,0,0,0,5.6,3.191,26.132,26.132,0,0,0,8.073,1.106,42,42,0,0,0,12.89-1.823,27.776,27.776,0,0,0,9.636-5.273,22.164,22.164,0,0,0,5.989-8.268,26.967,26.967,0,0,0,2.084-10.808ZM388.76,105.492h19.987V249.568H388.76Zm210.938,41.6H613.3v16.211a47.994,47.994,0,0,1,7.1-8.008,46.464,46.464,0,0,1,8.724-6.12,44.725,44.725,0,0,1,10.156-3.906,46.268,46.268,0,0,1,11.393-1.367,38.487,38.487,0,0,1,15.04,2.669A27.088,27.088,0,0,1,676.2,153.93a29.621,29.621,0,0,1,6.055,11.328,49.547,49.547,0,0,1,2.018,14.583v69.727H670.141V184.594a51.108,51.108,0,0,0-1.237-11.979,20.613,20.613,0,0,0-3.841-8.464A16.009,16.009,0,0,0,658.1,159.2a28.946,28.946,0,0,0-10.351-1.627,32.652,32.652,0,0,0-12.63,2.539A34.906,34.906,0,0,0,616.56,177.5a29.933,29.933,0,0,0-2.865,13.086v58.985h-14ZM403.409,399.568a28.792,28.792,0,0,0,2.93,8.008,16.109,16.109,0,0,0,5.208,5.338,24.464,24.464,0,0,0,8.073,3,64.184,64.184,0,0,0,11.719.911,48.888,48.888,0,0,0,13.411-1.627,20.612,20.612,0,0,0,14.909-14.909,49.666,49.666,0,0,0,1.823-14.453V375.219a38.256,38.256,0,0,1-5.013,5.6,35.379,35.379,0,0,1-7.162,5.208,41.589,41.589,0,0,1-9.44,3.841,46.427,46.427,0,0,1-24.8-.39,39.064,39.064,0,0,1-19.4-13.672,50.7,50.7,0,0,1-6.12-10.547,62.378,62.378,0,0,1-3.776-12.305,71.67,71.67,0,0,1-1.237-13.411,76.985,76.985,0,0,1,1.237-13.868,65.925,65.925,0,0,1,3.776-12.76,52.869,52.869,0,0,1,6.25-11.068,42.31,42.31,0,0,1,8.659-8.724,39.456,39.456,0,0,1,11-5.664,42.628,42.628,0,0,1,13.412-2.018,45.745,45.745,0,0,1,11.718,1.367,41.256,41.256,0,0,1,9.18,3.386,32.637,32.637,0,0,1,6.836,4.687,37.931,37.931,0,0,1,4.883,5.143V288.109h15.1v97.722a65.736,65.736,0,0,1-.977,11.458,43.375,43.375,0,0,1-3.19,10.417,36.35,36.35,0,0,1-5.729,8.919,32.334,32.334,0,0,1-8.529,6.966,43.512,43.512,0,0,1-11.653,4.557,66.519,66.519,0,0,1-15.169,1.563,80.727,80.727,0,0,1-17.058-1.628,37.756,37.756,0,0,1-12.76-5.273,27.85,27.85,0,0,1-8.594-9.375,39.209,39.209,0,0,1-4.427-13.867Zm58.2-67.188a45.48,45.48,0,0,0-2.148-14.648,28.66,28.66,0,0,0-6.12-10.547,25.065,25.065,0,0,0-9.571-6.445,34.437,34.437,0,0,0-12.434-2.149,29.984,29.984,0,0,0-11.524,2.279,25.375,25.375,0,0,0-9.7,7.1,36.3,36.3,0,0,0-6.771,12.63,60.633,60.633,0,0,0-2.539,18.75,57.3,57.3,0,0,0,2.474,18.1,33.8,33.8,0,0,0,6.771,11.979A24.805,24.805,0,0,0,419.815,376a33.385,33.385,0,0,0,11.524,2.018,32.939,32.939,0,0,0,10.937-1.888,27.9,27.9,0,0,0,9.7-5.989,30.389,30.389,0,0,0,6.966-10.157,36.972,36.972,0,0,0,2.669-14.713ZM537.328,143.9a51.321,51.321,0,0,1,20.117,3.711,39.059,39.059,0,0,1,14.779,10.742,46.724,46.724,0,0,1,9.18,16.992,74.38,74.38,0,0,1,3.19,22.591,77.846,77.846,0,0,1-3.125,22.917,47.7,47.7,0,0,1-9.05,17.252,39.583,39.583,0,0,1-14.843,10.808,50.912,50.912,0,0,1-20.248,3.776,53.37,53.37,0,0,1-20.442-3.646A38.975,38.975,0,0,1,502.042,238.5a47.05,47.05,0,0,1-8.985-16.992,79.652,79.652,0,0,1-2.994-22.787,78.047,78.047,0,0,1,3.125-22.981,48.686,48.686,0,0,1,9.244-17.253,39.333,39.333,0,0,1,14.844-10.807A50.357,50.357,0,0,1,537.328,143.9Zm0,13.086a30.516,30.516,0,0,0-13.8,2.929,26,26,0,0,0-9.766,8.268,37.464,37.464,0,0,0-5.859,12.956,70.682,70.682,0,0,0-1.888,16.992,69.539,69.539,0,0,0,1.953,17.123,38.889,38.889,0,0,0,5.86,13.086,26.557,26.557,0,0,0,9.765,8.333,33.859,33.859,0,0,0,27.409.065,26.246,26.246,0,0,0,9.7-8.268,37.319,37.319,0,0,0,5.794-12.956,70.682,70.682,0,0,0,1.888-16.992A69.531,69.531,0,0,0,566.43,181.4a37.257,37.257,0,0,0-5.795-13.086,25.8,25.8,0,0,0-9.7-8.4,29.8,29.8,0,0,0-13.607-2.929ZM240.518,378.669a51.377,51.377,0,0,1-6.445,6.25,39.89,39.89,0,0,1-7.552,4.818,41.763,41.763,0,0,1-9.115,3.125,49.819,49.819,0,0,1-10.872,1.107,46.78,46.78,0,0,1-13.281-1.823,30.449,30.449,0,0,1-10.873-5.6,26.56,26.56,0,0,1-7.357-9.7,33.218,33.218,0,0,1-2.669-13.867,35.292,35.292,0,0,1,2.018-12.5,27.221,27.221,0,0,1,5.469-9.245,28.9,28.9,0,0,1,8.268-6.445,48.728,48.728,0,0,1,10.352-4.167,74.875,74.875,0,0,1,11.654-2.278q6.118-.781,12.3-1.107l17.709-.781v-4.623a23.242,23.242,0,0,0-1.368-8.528,13.614,13.614,0,0,0-3.841-5.534,14.537,14.537,0,0,0-5.924-3.06,29.165,29.165,0,0,0-7.813-.977q-9.179,0-13.932,3.321a15.472,15.472,0,0,0-6.315,9.44l-23.242-1.433a39.946,39.946,0,0,1,4.948-13.8,29.8,29.8,0,0,1,9.114-9.5,39.153,39.153,0,0,1,13.216-5.534,77.343,77.343,0,0,1,17.318-1.758q11.784,0,19.857,2.735a32.092,32.092,0,0,1,13.021,7.942,30.255,30.255,0,0,1,7.161,12.631,60.693,60.693,0,0,1,2.149,16.862v66.731H240.518Zm-.651-35.156-14.843.781a66.638,66.638,0,0,0-13.412,1.888,24.058,24.058,0,0,0-8.4,3.646,12.034,12.034,0,0,0-4.232,5.339,17.9,17.9,0,0,0-1.237,6.77q0,5.861,3.841,9.05,3.775,3.124,11.133,3.125a39.223,39.223,0,0,0,10.807-1.432,25,25,0,0,0,8.594-4.3,20.47,20.47,0,0,0,5.729-7.357,24.929,24.929,0,0,0,2.018-10.417ZM343.839,236.872a54.093,54.093,0,0,1-6.446,6.185,39.04,39.04,0,0,1-7.617,4.818A40.426,40.426,0,0,1,320.727,251a50.165,50.165,0,0,1-10.938,1.107,47.225,47.225,0,0,1-13.281-1.823,30.449,30.449,0,0,1-10.873-5.6,27.021,27.021,0,0,1-7.291-9.636,32.693,32.693,0,0,1-2.735-13.932,35.269,35.269,0,0,1,2.019-12.5,27.8,27.8,0,0,1,5.4-9.245,30.131,30.131,0,0,1,8.268-6.445,50.649,50.649,0,0,1,10.352-4.167,76.744,76.744,0,0,1,11.719-2.278q6.12-.781,12.37-1.107l17.708-.781V180.1a23.264,23.264,0,0,0-1.367-8.528,14.107,14.107,0,0,0-3.841-5.664,14.544,14.544,0,0,0-5.99-3.06,30.058,30.058,0,0,0-7.682-.912,34.991,34.991,0,0,0-8.138.847,18.88,18.88,0,0,0-5.925,2.474,13.043,13.043,0,0,0-4.036,3.971,18.42,18.42,0,0,0-2.279,5.4l-23.177-1.367a39.944,39.944,0,0,1,4.948-13.8,29.814,29.814,0,0,1,9.115-9.5,39.145,39.145,0,0,1,13.216-5.534,77.94,77.94,0,0,1,17.317-1.757q11.72,0,19.792,2.734a31.874,31.874,0,0,1,13.021,7.878,29.324,29.324,0,0,1,7.161,12.63,58.994,58.994,0,0,1,2.214,16.862v66.8H343.839Zm-.651-35.221-14.844.781a66.638,66.638,0,0,0-13.412,1.888,25.677,25.677,0,0,0-8.4,3.711,12.518,12.518,0,0,0-4.3,5.339A17.9,17.9,0,0,0,301,220.141q0,5.859,3.841,8.984,3.841,3.06,11.2,3.06a40.232,40.232,0,0,0,10.742-1.367,24.917,24.917,0,0,0,8.659-4.3,19.957,19.957,0,0,0,5.664-7.292,24.239,24.239,0,0,0,2.084-10.416ZM231.794,236.677a37.447,37.447,0,0,1-5.4,6.315,32.954,32.954,0,0,1-6.966,4.883A36.262,36.262,0,0,1,210.961,251a43,43,0,0,1-10.026,1.107,50.479,50.479,0,0,1-19.01-3.386A36.361,36.361,0,0,1,167.6,238.5a46.9,46.9,0,0,1-8.985-17.057,83.2,83.2,0,0,1-3.125-24.089,72.979,72.979,0,0,1,3.19-22.2,50.783,50.783,0,0,1,9.18-17.318,40.612,40.612,0,0,1,14.453-11.2,45.124,45.124,0,0,1,19.271-3.971,43.747,43.747,0,0,1,10.286,1.106,37.293,37.293,0,0,1,8.138,2.8,32.193,32.193,0,0,1,6.25,4.036,37.168,37.168,0,0,1,4.688,4.753v-49.87h29.167V249.568H231.794Zm-.716-40.234a53.837,53.837,0,0,0-1.5-13.607,26.862,26.862,0,0,0-4.362-9.375,16.908,16.908,0,0,0-6.9-5.4A22.911,22.911,0,0,0,209.2,166.3a21.215,21.215,0,0,0-8.854,1.888,20,20,0,0,0-7.292,5.73,28.8,28.8,0,0,0-4.948,9.635,44.051,44.051,0,0,0-1.888,13.607,49.4,49.4,0,0,0,1.823,14.388,27.226,27.226,0,0,0,4.948,9.635,18.758,18.758,0,0,0,7.227,5.4,22.317,22.317,0,0,0,8.594,1.693,24.329,24.329,0,0,0,9.049-1.628,18.241,18.241,0,0,0,7.031-5.143,25.049,25.049,0,0,0,4.558-8.92,46.223,46.223,0,0,0,1.627-13.085Zm188.216-50h17.253V116.625h19.792v29.818H484.2v16.276H456.339V219.1q0,8.138,3.255,11.979,3.32,3.775,11,3.776a52.3,52.3,0,0,0,7.292-.521q3.776-.52,7.1-1.3l3.191,15.3a65.574,65.574,0,0,1-11.068,2.409,84.258,84.258,0,0,1-10.807.716,39.2,39.2,0,0,1-12.045-1.758,24.534,24.534,0,0,1-9.44-5.664,26.91,26.91,0,0,1-6.12-9.961,44.84,44.84,0,0,1-2.148-14.779V162.719H419.294ZM1,287.654H30.492v12.76a28.688,28.688,0,0,1,4.948-6.38,29.174,29.174,0,0,1,6.771-5.013,33.966,33.966,0,0,1,8.268-3.321,35.434,35.434,0,0,1,9.44-1.237A44.13,44.13,0,0,1,70.857,285.7a29.631,29.631,0,0,1,8.463,3.451,24.628,24.628,0,0,1,6.315,5.469A31.6,31.6,0,0,1,90,301.977a36.782,36.782,0,0,1,5.339-6.9,31.7,31.7,0,0,1,7.031-5.6,35.335,35.335,0,0,1,8.789-3.646,37.063,37.063,0,0,1,10.287-1.367,44.814,44.814,0,0,1,14.844,2.278,27.962,27.962,0,0,1,11,6.9,30,30,0,0,1,6.836,11.719,53.247,53.247,0,0,1,2.344,16.667v69.336H124.958V325.609a27.08,27.08,0,0,0-.911-7.617,13.28,13.28,0,0,0-2.539-5.013,9.91,9.91,0,0,0-3.971-2.734,14.114,14.114,0,0,0-4.948-.847,16.787,16.787,0,0,0-6.836,1.433,17.908,17.908,0,0,0-5.8,3.971,18.585,18.585,0,0,0-4.036,5.86,17.981,17.981,0,0,0-1.5,7.356v63.347H62.979V325.609a28.392,28.392,0,0,0-.911-7.812,12.648,12.648,0,0,0-2.539-4.948,8.954,8.954,0,0,0-3.841-2.669,15.164,15.164,0,0,0-4.948-.781,18.579,18.579,0,0,0-12.435,5.013,18.828,18.828,0,0,0-4.232,6.184,20.6,20.6,0,0,0-1.628,8.464v62.305H1ZM352.953,517.862a51.7,51.7,0,0,1-6.12,6.25,38.611,38.611,0,0,1-7.747,5.273,43.554,43.554,0,0,1-9.635,3.646,46.674,46.674,0,0,1-11.719,1.367,48.789,48.789,0,0,1-14.193-1.953,31.275,31.275,0,0,1-11.068-5.794,26.467,26.467,0,0,1-7.161-9.635,37.362,37.362,0,0,1-.521-25.651,26.423,26.423,0,0,1,5.6-8.92,31.715,31.715,0,0,1,8.464-6.315,54.5,54.5,0,0,1,10.742-4.1,81.632,81.632,0,0,1,12.174-2.279q6.381-.715,12.956-.977l17.839-.586v-3.58a43.57,43.57,0,0,0-1.368-11.654,18.923,18.923,0,0,0-4.3-8.073,17.215,17.215,0,0,0-7.552-4.687,34.1,34.1,0,0,0-11-1.563,49.7,49.7,0,0,0-10.938,1.042,23.084,23.084,0,0,0-7.617,3.06,15.7,15.7,0,0,0-4.883,4.817,23.247,23.247,0,0,0-2.8,6.511l-14.258-1.5q3-13.607,13.021-19.921,10.09-6.317,27.864-6.316a63.748,63.748,0,0,1,14.063,1.368,34.517,34.517,0,0,1,10.351,3.841,23.09,23.09,0,0,1,7.162,6.185,28.671,28.671,0,0,1,4.492,8.268,44.613,44.613,0,0,1,2.344,10.156,101.606,101.606,0,0,1,.651,11.849v63.932H352.953Zm-.39-38.151L335.9,480.3a104.238,104.238,0,0,0-18.1,2.083,33.589,33.589,0,0,0-11.458,4.427,15.663,15.663,0,0,0-5.99,6.9,23.485,23.485,0,0,0-1.758,9.44,22.986,22.986,0,0,0,1.172,7.552,14.171,14.171,0,0,0,3.646,5.664,17.512,17.512,0,0,0,6.445,3.646,32.166,32.166,0,0,0,9.5,1.237,42.952,42.952,0,0,0,14.128-2.148,29.838,29.838,0,0,0,10.417-5.99,26.12,26.12,0,0,0,6.445-9.179,30.3,30.3,0,0,0,2.214-11.719Z"/>
</svg>
