<svg id="Layer_1" data-name="Layer 1" xmlns="http://www.w3.org/2000/svg" viewBox="0 0 200 40"><title>logo-figma</title><path d="M61.58,7.76V29.27h2.77V19H71V16.33H64.35V10.46H73V7.76ZM78,12.13a1.81,1.81,0,1,0-1.81-1.81A1.81,1.81,0,0,0,78,12.13Zm-1.41,2.71V29.28h2.77V14.83H76.61Z"/><path d="M89.65,14.41c-3.68,0-6.24,3.11-6.24,6.8S86,28,89.65,28a5.49,5.49,0,0,0,4.08-1.71v1.92a4.35,4.35,0,0,1-4.33,4.39,4.44,4.44,0,0,1-2.46-.82l-1.39,2.4a7.1,7.1,0,0,0,10.95-6V14.83H93.73v1.29A5.49,5.49,0,0,0,89.65,14.41Zm-3.47,6.8a3.79,3.79,0,1,1,7.55,0,3.79,3.79,0,1,1-7.55,0Z"/><path d="M106.48,17.12a3,3,0,0,0-3,3v9.13h-2.77V14.83h2.77v1.32a4.37,4.37,0,0,1,3.57-1.74,4.81,4.81,0,0,1,4.29,2.44,5.31,5.31,0,0,1,4.41-2.44c3.15,0,5.11,2.54,5.13,5.69v9.18h-2.77V20.15a3,3,0,1,0-5.93,0v9.13h-2.77V20.15a3,3,0,0,0-3-3Z"/><path d="M135.65,16.47a6.69,6.69,0,0,0-4.88-2.06c-4.12,0-7,3.49-7,7.64s2.92,7.64,7,7.64a6.69,6.69,0,0,0,4.88-2.06v1.64h2.77V14.83h-2.77Zm-9.15,5.59a4.59,4.59,0,1,1,9.15,0,4.59,4.59,0,1,1-9.15,0Z"/></svg>