<svg id="Layer_1" data-name="Layer 1" xmlns="http://www.w3.org/2000/svg" viewBox="0 0 200 40"><defs><style>.cls-1{fill:#141515;}</style></defs><title>logo-continental</title><g id="Layer_1-2" data-name="Layer 1"><path class="cls-1" d="M13.63,26.19l.31,3.27a6.38,6.38,0,0,1-4.36,1.4c-4.51.08-6.84-3.42-6.84-10.11,0-7.54,1.56-11.28,6.14-11.28,3.66,0,5.13,2.88,5.13,8.09,0,1-.08,2-.16,3.19l-4.12.93-.16-.16c.08-1.63.16-3,.16-4,0-2.88-.23-4-1.09-4-1.17,0-1.48,2.33-1.48,5.68,0,5.37,1,7.31,4,7.31a7.83,7.83,0,0,0,2.41-.39Z"/><path class="cls-1" d="M15,22.53c0-6,2-8.32,5.44-8.32s5.44,2.33,5.44,8.32-2,8.32-5.44,8.32S15,28.52,15,22.53Zm6.77,0c0-2.72-.16-4.9-1.32-4.9s-1.32,2.18-1.32,4.9.16,4.9,1.32,4.9S21.79,25.25,21.79,22.53Z"/><path class="cls-1" d="M31.91,30.62H27.32v-.23c.23-.39.31-1,.31-2.72V18.18a6.93,6.93,0,0,0-.31-2.72v-.23l4.2-1.17.16.16v1.63a4.32,4.32,0,0,1,3.27-1.63c2.33,0,3,1.63,3,3.81v9.57a6.93,6.93,0,0,0,.31,2.72v.23H33.69v-.23a8.39,8.39,0,0,0,.16-2.64V19.81c0-1.24-.31-2-1.09-2s-1.17.78-1.17,2v7.86a7.83,7.83,0,0,0,.23,2.72v.23Z"/><path class="cls-1" d="M44,30.93c-2.49,0-3.42-1.56-3.42-4.36v-9.1H39.29l-.08-.08V14.6l.08-.08,1.32-.31a7.29,7.29,0,0,0-.23-2.57v-.23l4.2-1.17.16.16v3.81h1.87l.08.08V17.4l-.16.08H44.74v8.09c0,1.48.78,1.87,2.1,1.56l.16.08v2.64A4.19,4.19,0,0,1,44,30.93Z"/><path class="cls-1" d="M52.28,14.21V27.66a7.83,7.83,0,0,0,.23,2.72v.23H47.93v-.23c.23-.39.31-1,.31-2.72V18.18a6.93,6.93,0,0,0-.31-2.72v-.23l4.2-1.17ZM48,10.32a2.22,2.22,0,1,1,4.43,0,2.13,2.13,0,0,1-2.26,2.41C48.78,12.81,48,11.88,48,10.32Z"/><path class="cls-1" d="M58.51,30.62H53.92v-.23c.23-.39.31-1,.31-2.72V18.18a6.93,6.93,0,0,0-.31-2.72v-.23l4.2-1.17.16.16v1.63a4.32,4.32,0,0,1,3.27-1.63c2.33,0,3,1.63,3,3.81v9.57a6.93,6.93,0,0,0,.31,2.72v.23H60.29v-.23c.23-.39.23-1,.23-2.72V19.81c0-1.24-.31-2-1.09-2s-1.17.78-1.17,2v7.86a7.83,7.83,0,0,0,.23,2.72Z"/><path class="cls-1" d="M72.43,30.93c-4.28,0-6.3-3.19-6.3-8.4,0-6,2-8.32,5.52-8.32s5.06,2.26,5.06,7.7c0,.86,0,1.79-.08,2.72l-.08.08H70.48c.23,1.87,1.24,2.49,3,2.49A5.36,5.36,0,0,0,76,26.58l.16.08.31,2.88A5.85,5.85,0,0,1,72.43,30.93Zm-2-8.4h2.33c.16-3.11-.08-4.9-1.09-4.9S70.41,19.42,70.41,22.53Z"/><path class="cls-1" d="M82.69,30.62H78.11v-.23c.23-.39.31-1,.31-2.72V18.18a6.93,6.93,0,0,0-.31-2.72v-.23l4.2-1.17.16.16v1.63a4.32,4.32,0,0,1,3.27-1.63c2.33,0,3,1.63,3,3.81v9.57a6.93,6.93,0,0,0,.31,2.72v.23H84.41v-.23c.23-.39.23-1,.23-2.72V19.81c0-1.24-.31-2-1.09-2s-1.17.78-1.17,2v7.86a7.83,7.83,0,0,0,.23,2.72v.23Z"/><path class="cls-1" d="M95.76,30.62H91.09v-.23c.23-.39.31-1,.31-2.72V17.48H90.08L90,17.4V14.6l.08-.08,1.32-.31a6.49,6.49,0,0,0-.31-2.57v-.23l4.2-1.17.16.16v3.81h1.79l.08.08V17.4l-.16.08H95.45V27.66a6.93,6.93,0,0,0,.31,2.72Z"/><path class="cls-1" d="M104,28.83a3.68,3.68,0,0,1-3.19,2.1c-2.64,0-3.42-2.33-3.42-5.29,0-3.89,2.1-5.68,4.74-5.68a6.67,6.67,0,0,1,1.79.16c-.08-1.48-.93-2.18-2.57-2.18a7.46,7.46,0,0,0-2.41.39l-.23-.16L99,14.83a7.15,7.15,0,0,1,3.27-.62c3.5,0,5.68,1.94,5.68,5.44v8a6.93,6.93,0,0,0,.31,2.72v.23h-3.89l-.08-.16Zm-.16-6.53a1.93,1.93,0,0,0-.7-.08c-1.24,0-1.56,1.17-1.56,2.8,0,1.48.39,2.18,1.09,2.18.54,0,1.17-.54,1.17-1.87Z"/><path class="cls-1" d="M113.88,8.61V27.66a6.93,6.93,0,0,0,.31,2.72v.23h-4.67v-.23c.23-.39.31-1,.31-2.72v-15a6.93,6.93,0,0,0-.31-2.72V9.7l4.2-1.17Z"/><path class="cls-1" d="M126.56,30.62h-5v-.23c.23-.39.39-.93.39-2.72V13h-4.12l-.08-.08.62-3.19.08-.08h11.74l.08.08L130,12.89l-.16.16h-3.66V27.66c0,1.79.16,2.33.39,2.72Z"/><path class="cls-1" d="M133.79,36a8.1,8.1,0,0,1-3.81-.7l.31-2.8.08-.08c2.49.47,4.43.23,4.43-2.26V28.44a3.68,3.68,0,0,1-3,1.56c-2.41,0-3.19-1.63-3.19-3.81v-8a6.93,6.93,0,0,0-.31-2.72v-.23l4.2-1.17.16.16V25c0,.86.31,1.48,1.09,1.48s1.17-.62,1.17-1.48V18.18a6.93,6.93,0,0,0-.31-2.72v-.23l4.2-1.17.16.16V30.7C138.85,34.43,136.28,36,133.79,36Z"/><path class="cls-1" d="M145.23,35.68h-4.67v-.23c.23-.39.31-1,.31-2.72V18.18a6.93,6.93,0,0,0-.31-2.72v-.23l4.2-1.17.16.16v1.94a3.07,3.07,0,0,1,2.57-1.94c2.49,0,4.12,2.33,4.12,8.32s-2,8.32-4.43,8.32a2.42,2.42,0,0,1-2.33-1.56v3.42a6.93,6.93,0,0,0,.31,2.72v.23Zm.86-8.17c1,0,1.32-1.56,1.32-4.9s-.31-4.9-1.32-4.9c-.86,0-1.24,1.56-1.24,4.9S145.23,27.51,146.08,27.51Z"/><path class="cls-1" d="M159.15,30.93c-4.28,0-6.3-3.19-6.3-8.4,0-6,2-8.32,5.52-8.32s5.06,2.26,5.06,7.7c0,.86,0,1.79-.08,2.72l-.16.08h-6.07c.23,1.87,1.24,2.49,3,2.49a5.36,5.36,0,0,0,2.49-.62l.16.08.31,2.88A5.63,5.63,0,0,1,159.15,30.93Zm-2-8.4h2.33c.16-3.11-.08-4.9-1.09-4.9S157.13,19.42,157.13,22.53Z"/><path class="cls-1" d="M179.14,26.19l.31,3.27a6.38,6.38,0,0,1-4.36,1.4c-4.51,0-6.84-3.5-6.84-10.11,0-7.54,1.56-11.36,6.14-11.36,3.66,0,5.13,2.88,5.13,8.09,0,1-.08,2-.16,3.19l-4.12.93-.16-.16c.08-1.63.16-3,.16-4,0-2.88-.23-4-1.09-4-1.17,0-1.48,2.33-1.48,5.68,0,5.37,1,7.31,4,7.31a7.83,7.83,0,0,0,2.41-.39Z"/><path class="cls-1" d="M180.54,22.53c0-6,2-8.32,5.44-8.32s5.44,2.33,5.44,8.32-2,8.32-5.44,8.32S180.54,28.52,180.54,22.53Zm6.77,0c0-2.72-.16-4.9-1.32-4.9s-1.32,2.18-1.32,4.9.16,4.9,1.32,4.9S187.31,25.25,187.31,22.53Z"/><path class="cls-1" d="M192.44,28.29a2.42,2.42,0,1,1,4.82,0c0,1.71-.93,2.64-2.41,2.64S192.44,29.92,192.44,28.29Z"/></g></svg>