<svg xmlns="http://www.w3.org/2000/svg" width="190" height="90" viewBox="0 0 190 90">
  <title>logo-fieldnotes</title>
  <path d="M40.7,37h6.7V26.9h7.3V21.2H47.4V16.9h8.1V11.2H40.7Zm3.6,29.9h0L32,51.2H25.3V76.9H32V61.1h.1L44.4,76.9h6.7V51.2H44.4V66.9ZM97.8,31.3h-8V26.9h7.5V21.2H89.8V16.9h8V11.2H83.2V37H97.8ZM72.3,11.2H65.6V37h6.7Zm2.4,39.1c-7.4,0-14.2,5.5-14.2,13.2,0,8.3,6,14.2,14.2,14.2,8.3,0,14.2-5.9,14.2-14.2C89,55.8,82.2,50.3,74.7,50.3Zm0,21a7.375,7.375,0,0,1-7.3-7.7c0-3.5,3.3-6.8,7.3-6.8S82,60,82,63.6A7.375,7.375,0,0,1,74.7,71.3ZM176.9,53.7c0-.6-.4-.9-1-.9h-1.1v3h.8V54.7h0l.7,1.1h1l-.9-1.2A.937.937,0,0,0,176.9,53.7Zm-1.3.4h0l-.1-.7h.1c.3,0,.5,0,.5.4C176.1,54.1,175.8,54.1,175.6,54.1Zm-21.2-30a12.975,12.975,0,0,0-13.1-12.9h-9.5V37h9.5A12.975,12.975,0,0,0,154.4,24.1ZM140,31.3h-1.5V16.9h1.6c4.3,0,7.3,2.6,7.3,7.2C147.5,29.1,144,31.3,140,31.3Zm35.7,19.9a3.1,3.1,0,1,0,3.1,3.1A3.116,3.116,0,0,0,175.7,51.2Zm0,5.4a2.263,2.263,0,0,1-2.3-2.3,2.2,2.2,0,0,1,2.3-2.3,2.263,2.263,0,0,1,2.3,2.3A2.2,2.2,0,0,1,175.7,56.6ZM160,61.2l-1.7-.5c-1.2-.4-3-1-3-2.5,0-1.4,1.6-2.2,2.9-2.2a7.089,7.089,0,0,1,4.4,1.7l2.7-5.2a17.75,17.75,0,0,0-8.1-2.1c-5.2,0-8.9,3.4-8.9,8.6,0,5,2.8,6.1,7,7.3,1.4.4,4.1,1.1,4.1,2.9s-1.7,2.6-3.2,2.6a8.788,8.788,0,0,1-5.9-2.7l-2.9,5.4a16.064,16.064,0,0,0,9,2.9,11.259,11.259,0,0,0,7.3-2.4,8.9,8.9,0,0,0,2.7-6.9C166.4,64.1,163.6,62.3,160,61.2Zm-44.8-50h-6.7V37h14.7V31.3h-8Zm8.1,65.7h14.6V71.2h-8V66.8h7.5V61.1H130V56.8h8V51.1H123.4V76.9Zm-26.7-20h5.5V77h6.7V56.9h5.5V51.2H96.5v5.7Z" fill="#231f20"/>
</svg>
