<svg xmlns="http://www.w3.org/2000/svg" width="400" height="320" viewBox="0 0 400 320">
  <title>logo-tj-2018</title>
  <g>
    <path d="M392.95,168.812a26.173,26.173,0,0,0-4.7-10.117,42.056,42.056,0,0,0-8.5-9.257c-4.285-3.337-9.5-5.643-12.821-9.94-1.136-1.471-2.008-3.127-3.087-4.64a20.983,20.983,0,0,0-20.48-8.236c-2.82.531-5.649,1.659-8.471,1.133a3.8,3.8,0,0,1-1.6-.634,3.479,3.479,0,0,1-.923-3.807c1.119-3.5,3.031-4.826,2.534-8.947a13.074,13.074,0,0,0-17.1-10.987c-7.4,2.414-10.916,4.445-19.009,3.084l-12.685-2.134a15.336,15.336,0,0,1-5.188-1.522,5.2,5.2,0,0,1-2.816-4.349c.037-1.813,2.248-4.632,3.877-3.837,10.762,5.251,23.581,7.025,34.842,2.954s20.42-14.61,21.069-26.566c.9-16.523-18.935-27.038-33.383-27.512-4.815-.159-9.628.564-14.443.374-7.154-.284-14.309-2.577-21.361-1.335-7.643,1.345-13.919,6.608-19.795,11.675-4.866,4.2-9.863,8.558-12.673,14.336-2.373,4.88-3,10.415-3.19,15.838-.184,5.249.284,11.14,4.189,14.655,1.467,1.32,7.53,4.405,6.1,6.84-.49.833-4.3,1.856-5.309,2.6a15.372,15.372,0,0,0-4.132,4.583c-1.02,1.749-1.73,3.747-3.233,5.1s-4.223,1.684-5.348,0a5.353,5.353,0,0,1-.556-3.062,14.856,14.856,0,0,0-.828-5.689,6.365,6.365,0,0,0-4.013-3.881c-1.092-.292-2.25-.2-3.36-.406a2.97,2.97,0,0,1-2.511-1.975c-.824-3.836,4.362-9.2,6.241-12.2A17.357,17.357,0,0,0,222.2,76.163a32.357,32.357,0,0,1-1.8-5.016c-.737-4.135,1.82-8.044,3.081-12.051a34.089,34.089,0,0,0,1.153-10.913c-.168-8.71-1.7-18.124-7.978-24.165-6.428-6.185-16.252-7.251-25.126-6.333-8.236.852-17.885,3.293-23.894,9.417-5.264,5.364-5.323,14.759-1.352,20.84,1,1.531,2.249,2.992,2.577,4.79.767,4.212-4.53,7.645-8.6,6.323s-6.454-5.7-7.026-9.942c-.529-3.926.077-8.172-1.833-11.641-2.532-4.6-8.439-6.012-13.681-6.34-4.953-.31-10.042-.055-14.663,1.753s-8.741,5.352-10.344,10.048c-1.372,4.021-.809,8.427.013,12.6,1.089,5.522,2.643,11.042,5.59,15.839s7.435,8.839,12.873,10.3c3.428.919,7.04.782,10.586.638a98.5,98.5,0,0,0,15.34-1.536c5.312-1.063,9.759-3.311,14.615-5.541a6.823,6.823,0,0,1,3.331-.883,2.346,2.346,0,0,1,2.266,2.185c-.071,1.211-1.315,1.936-2.218,2.745-1.269,1.137-1.917,2.759-2.981,4.031a19.024,19.024,0,0,1-4.323,3.661,25.743,25.743,0,0,1-10.529,3.8c-5.636.735-11.315.025-16.9-.779-2.56-.369-5.18-.63-7.688-1.216a11.8,11.8,0,0,0-7,.019,9.378,9.378,0,0,0-3.793,2.838,13.173,13.173,0,0,0-3.028,7.787,7.07,7.07,0,0,1-.359,2.607c-1.028,2.292-7.978.3-10.06.026q-6.079-.8-12.067-2.16c-4.324-.987-7.537-4.059-3.5-7.552,4.02-3.478,8.609-10.431,4.807-15.378C93.642,71.7,83.31,71.257,77.4,71.294c-11.28.071-22.655,2.133-32.825,7.015C37.4,81.754,6.723,105.237,28.431,109.731a26.583,26.583,0,0,0,8.653-.126c6.17-.768-.236,9.733-.97,10.932a70.39,70.39,0,0,0-9.478,23.83,42.709,42.709,0,0,0-.971,12.827c.961,9.19,6.69,17.5,14.293,22.747,10.239,7.07,22.9,7.714,34.7,10.191a40.944,40.944,0,0,0,10.095.756c2.61-.107,6.513-.777,8.67,1.174,1.447,1.311,1.51,3.524,1.466,5.475-.006.249-.012.5-.02.749a12.574,12.574,0,0,1-.5,3.539,14.775,14.775,0,0,1-1.715,3.258c-2.136,3.345-4.377,7.311-9,7.006-3.859-.255-6.522-3.776-9.18-6.584-6.7-7.083-17.849-11.011-26.448-6.409-8.552,4.579-11.4,25.276-13.079,34.832-1.227,7-1.845,15.336,3.471,20.046,3.427,3.035,8.334,3.557,12.9,3.939,5.853.49,9.187.9,14.042,3.741a60.739,60.739,0,0,0,16.564,6.61,64.891,64.891,0,0,0,18.037,1.719c1.648-.075,16.818-1.422,16.818-3.1a23.452,23.452,0,0,0,5.771-2.649,26.887,26.887,0,0,0,7.58-8.413c1.932-3.133,2.8-7,6.371-8.6a4.876,4.876,0,0,1,3.761-.243c2.567,1.033,3.826,2.776,6.714,3.326,6.606,1.257,12-7.409,16.591-11.286,3.661-3.094,7.536-6.053,12-7.8,8.595-3.364,21.008-4.614,26.416,4.632a5.622,5.622,0,0,1,.912,2.736,2.567,2.567,0,0,1-1.373,2.388,3.16,3.16,0,0,1-2.71-.368c-4.247-2.325-8.11-1.68-12.9-1.743-4.6-.059-9.477-.054-13.507,2.49-2.343,1.479-4.169,3.693-6.574,5.07-1.115.637-2.332,1.082-3.449,1.718-4.567,2.6-6.812,7.968-10.88,11.3-1.523,1.247-3.275,2.183-4.855,3.356a19.944,19.944,0,0,0-5.2,5.739,18.031,18.031,0,0,0-2.333,12.734c.776,3.77,2.84,6.16,5.384,8.848,2.154,2.277,3.615,4.837,6.263,6.711,5.945,4.2,13.6,5.409,20.663,6.242,4.471.528,9.123.981,13.377-.493,5.093-1.764,9.5-3.405,12.887-7.878,2.818-3.719,5.2-7.942,5.766-12.574.394-3.245-.414-12.658,5.386-10.325,3.737,1.5,2.376,5.189,3.069,8.224A7.614,7.614,0,0,0,216.537,285a22.507,22.507,0,0,0,6.893,1.353,55.489,55.489,0,0,0,12.339.179,18.636,18.636,0,0,0,11.022-5.078c3.676-3.813,9.663-5.432,10.813-11.327a15.809,15.809,0,0,0-.766-7.377,72.165,72.165,0,0,0-10.234-20.39,8.8,8.8,0,0,1-1.778-4.289,3.849,3.849,0,0,1,2.122-3.851,4.178,4.178,0,0,1,2.531-.057c5.223,1.3,7.177,7.464,9.32,12.4a39.809,39.809,0,0,0,5.575,9.2,20.964,20.964,0,0,0,7.972,6.463c6.092,2.523,13.314.424,18.529-3.612s8.709-10.006,11.964-15.741c1.721-3.03-.175-6.913-2.735-9.276s-5.817-4.015-7.87-6.83c-1.515-2.08-2.24-4.619-3.395-6.918a20.273,20.273,0,0,0-8.729-8.837,6.064,6.064,0,0,1-2.629-1.934c-1.549-2.582,2.008-5.343,5-5.67a17.059,17.059,0,0,1,14.284,5.451c3.09,3.434,4.616,7.949,6.625,12.11s4.9,8.328,9.288,9.768a15.617,15.617,0,0,0,5.185.623A32.781,32.781,0,0,0,343.385,218c2.938-4.069,4.881-9.667,2.4-14.032-2.628-4.626-8.813-6.555-10.709-11.525a23.179,23.179,0,0,0-7.654-9.952c-1.8-1.38-3.792-2.565-5.208-4.333s-2.128-4.363-.968-6.309c1.2-2.021,4.029-2.581,6.262-1.842a13.373,13.373,0,0,1,5.529,4.244,58.479,58.479,0,0,1,8.154,12.073c1.357,2.676,2.538,5.506,4.561,7.722,3.15,3.453,8.033,4.968,12.705,4.829,13.281-.394,27.442-5.166,32.944-18.463A20.953,20.953,0,0,0,392.95,168.812ZM280.834,81.221c4.126-1.658,10.419-19.364,16.673-7.753a8,8,0,0,1,.757,2.4c.06.337.111.675.161,1.012q.216,1.465.434,2.932c.265,1.788.466,3.818-.691,5.206-3.449,4.137-7.348-.183-11.38-.3-1.512-.044-3.066.4-4.514-.042S279.731,82.256,280.834,81.221ZM221.8,138.049c2.052-.291,4.813,1.395,7.036,1.5,2.28.106,5.457-1.2,7.369.767a7.752,7.752,0,0,1-8.025,12.749,10.831,10.831,0,0,0-2.824-.858c-1.613-.079-3.419,1.016-4.716.053s-1.106-8.767-1.144-10.584C219.464,140.107,220.247,138.269,221.8,138.049ZM244.944,191.3a5.72,5.72,0,0,1-.609,1.765c-.049.1-.1.2-.15.3a22.792,22.792,0,0,1-8.729,9.411c-2.743,1.491-6.659,2.2-8.99.126a30.309,30.309,0,0,0-21.375-7.214c-10.182.713-20.521,1.46-30.106,4.971-4.113,1.507-8.276,4.071-12.224,5.969a11.741,11.741,0,0,1-4.334,1.425c-2.037.114-7.068,3.237-7.49-.025-.187-1.435.71-2.754,1.227-4.1,1.371-3.587-.021-7.779-2.577-10.645s-6.095-4.644-9.623-6.164a108.094,108.094,0,0,0-26.06-7.522c-2.491-.39-5.218-.8-6.906-2.677-5.372-5.959,4.576-13.045,1.3-19.914-1.7-3.57-5.653-5.485-9.482-6.474s-7.871-1.345-11.432-3.065-6.637-5.362-6.056-9.275c.315-2.123,1.654-4.032,1.726-6.177.046-1.378-.442-2.727-.446-4.106-.006-1.968,1.849-4.567,4.012-3.2a8.005,8.005,0,0,1,2.228,2.917,17.913,17.913,0,0,0,8.322,7,30.4,30.4,0,0,0,10.756,2.251,12,12,0,0,0,3.475-.223,7.316,7.316,0,0,0,2.466-1.159,9.533,9.533,0,0,0,2.931-3.5c1.258-2.528.067-8.316,2.718-9.623a5.789,5.789,0,0,1,2.4-.688c2.253-.049,3.734,1.9,5.7,2.6a20.44,20.44,0,0,0,6.976.867l11.722-.091c4.307-.033,8.733-.089,12.727-1.7,3.342-1.348,6.239-3.735,9.711-4.7s8.07.421,8.947,3.915c-2.464,3.964-1.116,9.055-.358,13.66,2.416,14.674-2.084,26.476-4.007,41.223-.344,2.645-.58,5.465.593,7.861,2.02,4.127,7.262,5.353,11.843,5.711a81.841,81.841,0,0,0,17.732-.545,22.259,22.259,0,0,0,8.566-2.584c2.569-1.56,4.626-4.245,4.7-7.248.047-1.8-.6-9.576-.465-11.372s1.6-3.75,3.363-3.374a4.7,4.7,0,0,1,2.373,1.916c2.635,3.211.6,13.182,9.835,16.4,3.494,1.218,8.713,1.275,11.512,3.552A4.039,4.039,0,0,1,244.944,191.3Zm62.534-27.606c-7.767-1.889-16.321-1.2-23.219,2.84s-11.846,11.633-11.786,19.625a13.536,13.536,0,0,1-.3,4.459c-.481,1.418-1.885,2.677-3.352,2.373-1.16-.24-1.916-1.314-2.734-2.173-1.86-1.952-7.539-2.127-7.585-5.343a3.673,3.673,0,0,1,1.586-2.7c3.149-2.578,6.723-3.53,9.445-6.717a43.079,43.079,0,0,0,7.315-11.718,44.388,44.388,0,0,0,2.946-11.312c.513-4.129-.611-8.472.2-12.488,1.028-5.1,3.65-4.666,7.754-4.1,7.346,1.012,12.709-1.755,19.539-3.139a5.669,5.669,0,0,1,4.386.72,5.547,5.547,0,0,1,2.1,4.042c.453,4.8-3.252,8.525-2.16,13.483.5,2.266,1.766,4.313,2.211,6.591s-.318,5.119-2.524,5.837A7.1,7.1,0,0,1,307.478,163.694Z"/>
    <path d="M168.081,152.348a16.227,16.227,0,0,0-3.685-6.469c-2.776-2.856-6.766-4.3-9.5-7.2-1.64-1.733-2.824-3.975-4.884-5.179-1.8-1.054-3.994-1.139-6.083-1.2-2.813-.077-5.926-.05-8.026,1.824-1,.9-1.655,2.128-2.607,3.082-2.171,2.179-5.484,2.581-8.46,3.361s-6.231,2.553-6.636,5.6a21.557,21.557,0,0,0,.357,4.137c.157,2.573-.948,5.027-1.654,7.5s-.935,5.4.7,7.394c1.424,1.739,3.829,2.253,5.76,3.405,3.759,2.243,2.222,6.019,6.641,8.622a36.091,36.091,0,0,0,12.221,4.571c6.266,1.053,13.031,0,18.2-3.687,6.884-4.909,9.952-11.51,8.9-19.875A32.93,32.93,0,0,0,168.081,152.348Z"/>
  </g>
  <path d="M332.051,67.413c2.053,1.341-1.142,6.127-2.054,7.309-.6.781-1.57,1.572-2.473,1.174-.848-.374-.972-1.507-.955-2.434a8.625,8.625,0,0,1,.771-4.035C327.958,68.3,330.761,66.569,332.051,67.413Z" fill="#fff"/>
  <path d="M317.83,52.227a1.953,1.953,0,0,1,1.749-.021,20.589,20.589,0,0,1,7.268,4.537c1.458,1.35,4.753,3.346,3.57,5.785-.61,1.259-2.272,1.531-3.671,1.491-1.553-.046-3.273-.373-4.192-1.626a9.236,9.236,0,0,1-1-2.461,8.184,8.184,0,0,0-1.771-2.872c-.546-.573-1.174-1.066-1.677-1.676a3.016,3.016,0,0,1-.8-2.168A1.4,1.4,0,0,1,317.83,52.227Z" fill="#fff"/>
  <path d="M146.187,41.679a3.474,3.474,0,0,1-3.55,2.2,7.226,7.226,0,0,1-4.036-1.836,5.405,5.405,0,0,1-2.171-3.13c-.2-1.283.678-2.792,1.977-2.809l2.017-.031c2.085-.68,4.368.837,5.348,2.8A3.925,3.925,0,0,1,146.187,41.679Z" fill="#fff"/>
  <path d="M210.4,30.067c9.021-3.135,8.556,19.283,1.315,17.629C209.184,47.118,207.138,31.2,210.4,30.067Z" fill="#fff"/>
  <path d="M209.039,110.228a7.276,7.276,0,0,1,3.538-.125,9.728,9.728,0,0,0,3.556.1l2.069,3.661a4.491,4.491,0,0,1,.359,4.383,3.069,3.069,0,0,1-3.9,1.421c-1.218-.628-1.729-2.1-2.76-3a12.36,12.36,0,0,0-2.752-1.473,3.323,3.323,0,0,1-2-2.248A2.717,2.717,0,0,1,209.039,110.228Z" fill="#fff"/>
  <path d="M133.392,94.512a9.147,9.147,0,0,1,4.2-.7l4.063,1.1a4.182,4.182,0,0,1,5.306,2.275,1.972,1.972,0,0,1-.046,1.767,2.3,2.3,0,0,1-1.34.8c-3.8,1.092-7.832-.092-11.6-1.269-1.038-.324-2.275-.889-2.325-1.976C131.6,95.572,132.521,94.881,133.392,94.512Z" fill="#fff"/>
  <path d="M103.32,109.59c6.786-5,6.434,6.813,6.308,10.426a7.4,7.4,0,0,1-.494,2.9,2.53,2.53,0,0,1-2.3,1.578c-1.69-.119-2.345-2.3-2.18-3.986.387-3.951-1.3-3.648-2.283-6.506C101.648,111.916,100.869,111.4,103.32,109.59Z" fill="#fff"/>
  <path d="M80.979,83.208a1.841,1.841,0,0,0-1.014-.482,2.417,2.417,0,0,1-1.835-2c-.048-.965,1.057-1.89,1.909-1.436l1.731-1.226a4.58,4.58,0,0,1,3.756,7.826,3.28,3.28,0,0,1-2.674,1.006,2.1,2.1,0,0,1-1.831-1.99C81.04,84.322,81.333,83.669,80.979,83.208Z" fill="#fff"/>
  <path d="M91.924,165.989a9.583,9.583,0,0,1-2.361-.164,5.033,5.033,0,0,1-2.032-.888,5.389,5.389,0,0,1-1.867-4.614C86.4,147.978,108.147,165.351,91.924,165.989Z" fill="#fff"/>
  <path d="M144.01,203.214a4.149,4.149,0,0,1-.528,1.358c-.991,1.5-3.133,1.551-4.927,1.44a2.673,2.673,0,0,1-1.084-.223c-3.539-1.858-4.572-9.734-.339-11.395C142.315,192.361,145,199.148,144.01,203.214Z" fill="#fff"/>
  <path d="M204.483,254.384c-.959.935-1.291,2.317-1.837,3.541a10.309,10.309,0,0,1-9.284,5.969,5.721,5.721,0,0,1-4.93-2.326,4.986,4.986,0,0,1-.581-3.206,9.22,9.22,0,0,1,4.672-6.414C196.593,249.513,213.248,245.833,204.483,254.384Z" fill="#fff"/>
  <path d="M220.109,208.081a4.967,4.967,0,0,1-1.055,1.361,4.855,4.855,0,0,1-3.6,1.7c-2.258-.2-3.408-2.622-4.975-3.928-1.12-.933-3.528-1.569-4.215-2.907-2.544-4.95,7.692-3.9,9.815-3.124,2.192.8,4.147,2.683,4.342,5.008A3.672,3.672,0,0,1,220.109,208.081Z" fill="#fff"/>
  <path d="M331.746,201.213a3.738,3.738,0,0,1,1.7-.138c2.9.214,6.226.676,7.768,3.137,1.1,1.756.912,3.993.687,6.052a3.608,3.608,0,0,1-.283,1.232,2.765,2.765,0,0,1-.993,1.028,4.192,4.192,0,0,1-4.627.2,6.389,6.389,0,0,1-1.9-2.888c-.611-1.452-1.076-3.109-1.8-4.49-.4-.761-1.535-1.826-1.641-2.761C330.6,202.061,330.857,201.579,331.746,201.213Z" fill="#fff"/>
  <path d="M260.61,111.814a2.282,2.282,0,0,1,.987-.117,12.255,12.255,0,0,1,5.237,1.427,4.4,4.4,0,0,1,1.979,1.787,4.965,4.965,0,0,1,.369,2.176c.008,1.15-.112,2.457-1.019,3.164a2.467,2.467,0,0,1-2.695.066,4.233,4.233,0,0,1-1.722-2.216c-.424-1.119-.764-2.572-1.934-2.819l-.874-1.076a1.25,1.25,0,0,1-.328-2.392Z" fill="#fff"/>
  <path d="M281.209,224.571c-3.255,2.164-10.253-2.49-8.059-5.938C276.379,213.559,282.985,223.39,281.209,224.571Z" fill="#fff"/>
  <path d="M323.644,185.08c2.026,1.017,4.074,2.758,4.02,5.025a2.834,2.834,0,0,1-.576,1.7,2.972,2.972,0,0,1-1.7.982,4.091,4.091,0,0,1-4.018-1.468,18.947,18.947,0,0,0-1.674-2.533c-1.928-1.8-11.619-2.933-6.649-7.85a2.909,2.909,0,0,1,4.193-.348C319.476,182.135,321.036,183.773,323.644,185.08Z" fill="#fff"/>
  <path d="M328.429,111.545a2.894,2.894,0,0,1-2.787,1.447,3.05,3.05,0,0,1-1.241-.388,6,6,0,0,1-.838-.627l-.956-.809a3.191,3.191,0,0,1-1.142-1.433c-.334-1.158.816-2.326,2.015-2.442a5.244,5.244,0,0,1,3.335,1.184l.981.078A2.42,2.42,0,0,1,328.429,111.545Z" fill="#fff"/>
  <path d="M355.667,141.9a3.184,3.184,0,0,1-1.538-.976,21.8,21.8,0,0,0-3.194-2.9,4.611,4.611,0,0,0-4.1-.664l-.229-1.889a6.309,6.309,0,0,1,11.72,3.329C358.3,140.357,357.192,142.19,355.667,141.9Z" fill="#fff"/>
  <path d="M383.2,173.021a7.669,7.669,0,0,1-4.328.886c-.748-2.211.887-5.248-.951-6.686a7.634,7.634,0,0,0-2.164-.843,7.125,7.125,0,0,1-3.42-3.281,5.677,5.677,0,0,1-.944-4.216c.386-1.428,2.131-2.52,3.405-1.765l1.858,1.075c2.358-.661,4.261,1.9,5.37,4.087l2.45,4.826a6.446,6.446,0,0,1,.8,2.208A4.063,4.063,0,0,1,383.2,173.021Z" fill="#fff"/>
  <path d="M156.977,166.107c-4.772.205-2.944-5.095-2.264-7.7.621-2.379.021-3.7,3.158-3.439C164.267,155.494,162.513,165.87,156.977,166.107Z" fill="#fff"/>
</svg>
