<svg id="Layer_1" data-name="Layer 1" xmlns="http://www.w3.org/2000/svg" viewBox="0 0 200 40"><defs><style>.cls-1{fill:#fff;}</style></defs><title>logo-glyphs</title><path d="M84.07,29.67H76.81V28.36h2.77V6.83H76.86V5.47h4.39V28.31H84v1.36Z"/><path d="M99.45,15l-6,16.48c-1.31,3.63-3.43,5.7-8.17,5.65l-.1-1.41c3.38-.05,5.34-1.06,6.76-4.69l.25-.66L85.94,15H83.62V13.69h6.76V15H87.8L93,28.36,97.73,15H95.21V13.69h6.5V15Z"/><path d="M107.46,15.25a6.9,6.9,0,0,1,4.84-2c3.93,0,6,2.77,6,8,0,5.85-2.62,8.72-7.31,8.72a9.28,9.28,0,0,1-3.48-.66v7.21h2.77v1.31h-7.26V36.52h2.77V15h-2.72V13.69h4.08l.25,1.56Zm.1,12.55a7.51,7.51,0,0,0,3.53.81c3.58,0,5.55-2.37,5.55-7.16,0-4.34-1.61-6.65-4.59-6.65a6.33,6.33,0,0,0-4.49,2.12V27.8Z"/><path d="M138.11,29.67H131V28.36h2.62V18.63c0-2.47-1.06-3.78-3.23-3.78-1.71,0-3.38.81-5.8,2.67V28.31h2.67v1.31h-7.11V28.31h2.77V6.83h-2.72V5.47h4.34V16c2.27-1.71,4.13-2.62,6.2-2.62,3,0,4.54,1.71,4.54,5.09v9.83h2.77v1.41Z"/><path d="M148.75,15a11.07,11.07,0,0,0-2.92-.4c-2.52,0-3.78.76-3.78,2.47,0,4.49,9,3,9,8.87,0,3-2.37,4.13-5.55,4.13a14.42,14.42,0,0,1-5.34-1V25.28h1.51v2.77a12,12,0,0,0,3.83.66c2.52,0,3.93-.86,3.93-2.77,0-4.69-9-3.18-9-8.82,0-2.77,2.12-3.88,5.44-3.88a14.1,14.1,0,0,1,4.44.71v3.78H148.8V15Z"/><g id="G-Outlines"><path d="M63.7,30.62C53.27,30.62,49,26.94,49,17.92S53.42,5.17,63.8,5.17a59.9,59.9,0,0,1,9,.66l1.51.2-1,9.68h.76V29.52l-1.26.25A51.37,51.37,0,0,1,63.7,30.62Z"/></g><path id="G" class="cls-1" d="M63.55,20.19H62.9c-1.31,0-1.92-.71-1.92-2.47,0-1.92.81-2.42,4.34-2.42,1.92,0,4,.15,6.5.4l.81-8.32a59.94,59.94,0,0,0-8.77-.6c-9.68,0-13.26,3.13-13.26,11.14,0,8.22,3.53,11.14,13.11,11.14a45.24,45.24,0,0,0,8.87-.86V17.27H63.5v2.92Z"/></svg>