<svg xmlns="http://www.w3.org/2000/svg" width="56.29mm" height="56.4mm" viewBox="0 0 159.561 159.875">
  <title>logo-karma-cola</title>
  <g>
    <path d="M92.885,131.1a8.216,8.216,0,0,0-.067-.937l-.3-.957a5.337,5.337,0,0,0-.726-1.415,4.7,4.7,0,0,0-1.032-.908c-.38-.185-1.01-.3-1.222-.128a3.9,3.9,0,0,0-1.119,1.389,10.481,10.481,0,0,0-.746,2.629c-.007.652.063,1.872.149,2.661a3.319,3.319,0,0,0,.338,1.475c.3.675.269,1.067,1.081,1.526s.766.592,1.238.509a1.713,1.713,0,0,0,1.082-.688,5.966,5.966,0,0,0,.8-1.448c.123-.378.208-.867.32-1.342a6.86,6.86,0,0,0,.222-1.357C92.905,131.767,92.864,131.311,92.885,131.1Z"/>
    <path d="M120.544,39.749c.109.335.137,1.007.219,1.26s.19,1.035.274,1.287a10.253,10.253,0,0,1,.3.982,3.088,3.088,0,0,0,.356.869c.111.167.414.277.605.389a1.634,1.634,0,0,0,.826.086,1.81,1.81,0,0,0,.607-.223,2.247,2.247,0,0,0,.716-.56,6.287,6.287,0,0,0,.717-.978,7.366,7.366,0,0,0,.717-1.542,18.405,18.405,0,0,0,.524-1.986c.084-.447.222-2.1.222-2.1s.054-1.4.054-1.654-.245-1.342-.244-1.452-.388-.981-.388-1.095a7.5,7.5,0,0,0-.575-.976l-.465-.533-.36-.449a4.583,4.583,0,0,0-.66-.392c-.082,0-.773-.141-.855-.113a4.58,4.58,0,0,0-.716.281,4.722,4.722,0,0,0-.52.559,8.63,8.63,0,0,0-.5.975,10.638,10.638,0,0,0-.579,1.541c-.054.336-.383,1.736-.383,1.736a8.73,8.73,0,0,0-.114,1.287,10.822,10.822,0,0,0,.083,1.343C120.49,38.655,120.435,39.413,120.544,39.749Z"/>
    <path d="M69.641,45.248c.02.121,0,1.912,0,1.912s.095.878.114.961.133.628.152.753a4.407,4.407,0,0,0,.28.734c.074.143.226.513.3.633s.378.53.416.591a2.711,2.711,0,0,0,.3.405,1.5,1.5,0,0,0,.356.266,3.953,3.953,0,0,1,.433.266c.114.08.245.042.434.1a1.848,1.848,0,0,0,.659-.061,1.911,1.911,0,0,0,.62-.281A5.689,5.689,0,0,0,74.271,51a6.847,6.847,0,0,0,.51-.732c.093-.139.51-1.018.588-1.161s.414-1.1.488-1.262.263-1.041.339-1.182.171-.978.228-1.04a11.337,11.337,0,0,0,.189-1.265l.075-1.63-.037-1.3L76.6,40.259l-.168-.8-.247-.753-.278-.593-.378-.366-.357-.426-.4-.51-.375-.369-.34-.2-.544-.1L73,36.1a3.763,3.763,0,0,1-.395.1c-.056,0-.359.143-.434.165s-.377.245-.434.262a3.572,3.572,0,0,0-.34.267s-.32.326-.357.383-.379.614-.436.715-.357.836-.357.836-.207.692-.226.8-.209,1-.225,1.159-.114,1.042-.134,1.1-.078.9-.078,1.019-.055.879-.037.978S69.621,45.126,69.641,45.248Z"/>
    <path d="M56.93,40.378l-.3-.4-.376-.495-.432-.5a3.3,3.3,0,0,0-.472-.337c-.056,0-.507-.256-.566-.257s-.261-.161-.358-.141-.488.023-.58.037-.454.1-.565.141a3.063,3.063,0,0,0-.55.276,5.8,5.8,0,0,0-.452.474,6.187,6.187,0,0,1-.338.6,3.418,3.418,0,0,0-.3.712c-.037.16-.247.815-.283.992s-.207.851-.207.91-.132.735-.154.854-.264,2.99-.264,2.99-.038,1.409-.038,1.487.036,1.169.036,1.169.056.873.074.971.018.832.04.892.109,1.289.109,1.289.115.851.133.912.093.516.112.592.131.538.168.635.171.417.209.518.2.3.242.377a2.409,2.409,0,0,0,.266.354,1.559,1.559,0,0,0,.413.358,1.593,1.593,0,0,0,.433.1,3.925,3.925,0,0,0,.943-.158,3.143,3.143,0,0,0,.526-.3,7.036,7.036,0,0,0,.624-.476c.055-.056.4-.549.451-.63s.322-.714.4-.854.282-.711.339-.869.113-.813.187-.971a6.1,6.1,0,0,0,.169-.894c.022-.077.115-.793.155-.91s.142-.782.163-.841.219-.91.219-.91l.276-1.738.169-2.187.013-1.278-.119-1.315-.246-.788Z"/>
    <path d="M53.993,120.117l-.134-.594-.2-.566-.231-.449-.312-.282-.3-.326-.327-.387-.314-.275-.283-.157L51.436,117l-.429-.042s-.289.072-.338.072-.3.1-.369.114-.32.179-.367.2a2.315,2.315,0,0,0-.29.191s-.274.239-.308.283-.326.453-.375.527-.316.619-.316.619-.182.516-.2.593-.186.745-.206.864-.107.776-.126.82-.076.668-.077.763-.057.654-.044.728.046.935.06,1.025-.025,1.432-.025,1.432.067.656.082.719.1.472.119.567a2.908,2.908,0,0,0,.231.55c.057.112.182.383.246.476s.307.4.341.45a2.793,2.793,0,0,0,.25.309,1.473,1.473,0,0,0,.3.2,3.049,3.049,0,0,1,.366.206c.094.066.2.033.367.083a1.719,1.719,0,0,0,.556-.037,1.633,1.633,0,0,0,.526-.2,4.351,4.351,0,0,0,.488-.389,6.158,6.158,0,0,0,.439-.537c.079-.108.443-.755.508-.861s.365-.819.432-.941.234-.77.3-.877.157-.726.2-.774a7.452,7.452,0,0,0,.178-.937l.085-1.222-.014-.974Z"/>
    <path d="M16.135,42.242l-1.966,3.577,0-.025-.006-.023-.23.482h0l-.114.24-.6,1.162-.682,1.523-.642,1.484-.523,1.4-.521,1.725-.4,2.083-.16,1.2-.241,1.684-.2,1.684-.2,1.564-.2,1.683-.12,2-.123,2.246.039,2.886.038,2.607-.039,1.4.277,4.251.2,1.645.239,2.044.28,1.885.32,2.126.32,1.964.439,1.685.442,1.924.6,2.087.68,2.325.639,1.925.641,1.885.681,2.006.561,1.724.722,2.046.919,2.164,1.363,2.888.761,1.765.921,1.524,1.081,2.047.962,1.763.962,1.606,1.12,1.684,1.484,2.247.841,1.364,1.162,1.563,1.042,1.483.88,1.246,1.044,1.2.842.96,1.681,1.967,1.042,1.124.763.721.84.763,1,.963,1.562,1.364,1.525,1.364,1.443,1,1.563.963,2.084,1,3.006,1.366,2.766,1.083,2.486.722,3.449,1.085,2.485.683,1.725.241,3.327.484,3.087.362,3.249.2,2.967.082,2.526.08,1.844,0,1.483-.079,1.605-.119,2.687-.2,2.245-.238,1.484-.241,1.724-.2,2.165-.358,1.6-.2,3.008-.641,1.724-.359,1.6-.282,1.524-.361,1.284-.4,1.324-.4,1.282-.44,1.805-.562,1.845-.679,1.323-.6.117-.058a14.108,14.108,0,0,0,2.724-3.886,35.192,35.192,0,0,0,2.817-8.688,27.8,27.8,0,0,0,.566-5.859c0-.045.11-4.871.115-4.967s-.046-1.135-.046-1.135l-.065-1.423-.095-1.522-.21-1.27s-.336-1.658-.33-1.819a7.591,7.591,0,0,0-.389-1.118l-.65-1.423-1.408-2.8.119-.915.37-2.458.459.491.591.58.74,1.006,1.348,1.878,1.034,2.023.76,2.622.5,1.7.6,2.323.165,2.175.062,1.455.023,1.584-.144,2.188c.022,8.647-3.036,13.7-2.869,14.287s1.245.738,1.753.406h0l.767-.468,1.567-1.061.071-.094,5.466-3.853h.058l.74-.561.761-.56.965-.722.8-.76.884-.722,1-.963.924-1,.922-1.042,1-1.282,1.324-1.725.883-1.362.883-1.485,1.926-3.728.964-1.964.6-1.12,1.043-2.286.523-1.123.561-1.4.8-2.326.561-1.445.884-1.923,1.124-2.966.4-1.6.441-1.483.4-1.444.32-1.443.322-1.685.282-1.683.281-1.483.282-1.925.282-2.606.2-2.687.16-1.4.082-1.441V78.525l-.017-.607.038-.128.1-.55.041-1.4.041-1.323.04-1.483.041-1.484-.038-1.362-.12-2.409-.041-1.6-.158-2.446-.119-1.563-.161-1.325-.239-1.484-.2-1.243-.2-1.283-.28-1.163-.36-1.2-.4-1.4-.562-1.644-.6-1.886-.521-1.283L145.7,47l-.6-1.244-.4-1-.6-1.283-.561-1.123-.72-1.566-.322-.681-1-1.8-.88-1.445-.962-1.364-.923-1.284-1.443-1.924-1.081-1.4-1.282-1.243-1.482-1.486-1.364-1.284-2.045-1.445-1.322-1.042-1.723-1.163-2.246-1.366L122.1,20.406l-2.046-1.164-2.2-1.083-2.246-.884-1.924-.681-1.845-.525-1.685-.28-1.843-.361-2.125-.362-2.124-.4-2.366-.323-2.406-.324-2.486-.2-2.246-.2-2.686-.122-2.245-.16-1.643.039-2.687-.041H83.8l-1.684.119-1.925.158-2.125.2-2.085.278-2.285.36-2.448.44-2.765.359L66,15.605l-1.685.28-2.487.6s-2.727.96-2.847.919-3.087,1.043-3.087,1.043l-2.888.96-3.049.961-2.727,1.16-2.247,1-2.325,1.082-2.207,1.163-2,1.041L36.4,26.856l-3.489,1.965L29.9,30.5l-1.686,1.163-1.565,1.16L24.769,34.07,22.8,35.792l-1.519,1.151.135,3.066.061,1.913.424,7.834s.223,4.982.205,5.039,0,2.779,0,2.779v1.354l.014.3.027.2.057.117.1-.014.157-.129L23,58.839l.522-.631.513-.7.465-.66.565-.961.411-.617.3-.414.466-.736.24-.589.213-.546.239-.6.2-.576.214-.731c.014-.044.126-.621.126-.621l.13-.774.2-.947.087-.716L28,47.171l.126-.85.044-.673.059-.761.041-1.076.043-.735V42.43l.057-.917.032-1L28.44,39.5l.044-.689a10.366,10.366,0,0,1,1.439-3.787,5.22,5.22,0,0,1,2.1-2.216,4.593,4.593,0,0,1,1.93-.276,3.821,3.821,0,0,1,.924.1c1.367.368,2.243,2.031,2.775,3.232A13.813,13.813,0,0,1,38.8,40.528a27.618,27.618,0,0,1-.187,4.479c-.475,4.932-2.778,8.823-5.519,12.866A29.072,29.072,0,0,1,28.317,63.7c-.929.8-2.008,1.288-2.983,1.995-.89.645-.461.758.355,1.113a7.939,7.939,0,0,1,1.882,1.182,16.692,16.692,0,0,1,2.932,3.37c.022.031.041.064.062.094a20.542,20.542,0,0,1,4,6.42C36.2,81.941,36.194,86.2,36.64,90.454c.372,3.555.847,7.521,3.273,10.337.165.191.338.376.519.553l.578.563s.474.369.49.406.495.364.517.4a3.069,3.069,0,0,0,.384.271l.373.245a3.9,3.9,0,0,1,.4.239,3.8,3.8,0,0,0,.461.218c.038.02,1.216.506,1.216.506l1.128.23s.971.172,1,.162.808.151.808.151l.7.028.675.063.568.044s.463.05.5.06.414.06.5.086a3.1,3.1,0,0,1,.512.16,4.544,4.544,0,0,0,.471.209c.049.04.454.222.454.222l.7.437s.542.372.559.4.419.344.454.39.348.314.386.367a2.6,2.6,0,0,1,.233.375c.019.078.172.371.182.406a3.794,3.794,0,0,1,.135.431c0,.065.065.589.065.589s.047.579.038.62-.067.42-.086.465-.094.517-.094.517a2.513,2.513,0,0,1-.138.4c-.05.069-.233.352-.249.381s-.254.346-.329.427-.312.375-.377.431-.424.36-.424.36l-.423.326-.87.549-.484.189s-.471.17-.522.181-.481.159-.481.159l-.49.1s-.368.064-.406.074-.966.084-.966.084-.672.049-.723.056-.615-.057-.645-.049-1.041-.1-1.07-.092-.441-.076-.441-.076l-1.265-.346-.827-.333-.743-.334-1.3-.8-1.38-.93c-3.158-2.13-4.779-5.081-6.118-8.558a42.2,42.2,0,0,1-1.9-9.035q-.307-2.117-.616-4.234l-.941-6.469a13.436,13.436,0,0,0-2.583-6.17c-.847-1.114-3.226-4.1-4.963-3.584v.044l-.021,1.993.037,1.471.578,9.638.1,1.73.1.83.083.645.037.522.01.354s0,.239,0,.273-.021.284-.021.314-.045.352-.045.352l-.21.592-.124.185-.213.239-.293.221-.33.2-.367.114s-.276.069-.3.078-.329.04-.376.047-.586-.038-.586-.038L20.618,93l-.411-.234-.238-.149-.225-.275-.15-.246-.114-.278-.123-.385s-.045-.278-.044-.3-.065-.575-.065-.575l-.1-.583-.063-.785-.243-3.841-.046-1.07-.018-.891-.006-3.169-.036-1.866-.01-1.3L18.6,73.371l-.038-1.664-.025-.872-.064-1.017L18.36,68.9l-.124-.968-.186-.91-.33-2.554L17.6,63.4,17.488,62.1l-.067-1.032-.072-2.7-.053-1.7-.039-1.09.069-2.932.029-1.539.095-2.681-.133-7.457M134.384,68.549c.164-.237.236-.349.451-.426a2.275,2.275,0,0,1,.8-.085,3.43,3.43,0,0,0,.461-.075l1.035-.021a7.706,7.706,0,0,0,.989-.223c.113-.055.225.034.338,0a.4.4,0,0,0,.3-.211,4.909,4.909,0,0,0-.4-.349,1.439,1.439,0,0,1-.47-.285c-.377-.173-.562-.481-.94-.66-.274-.249-.664-.417-.946-.664a.928.928,0,0,1-.593-.4c-.162-.127-.084-.376-.115-.571l.062-.248c.253-.3.316-.558.74-.537l.953.219a13.608,13.608,0,0,0,1.665.215l.268.054c.178.046.443.037.715.074a4.864,4.864,0,0,1,.665.061l.395.091a5.843,5.843,0,0,0,.892.038,6.454,6.454,0,0,1,1.079.15.809.809,0,0,1,.474.731,1.362,1.362,0,0,1-.275.647c-.451.241-1.154-.017-1.873-.076a1.322,1.322,0,0,1-.243-.044c-.172-.035-.306-.085-.487-.124l-.1-.025c-.228-.047-.473-.042-.56-.061-.293-.065-.511-.087-.64.052-.04.176.175.25.325.348s.262.087.429.181c.141.082.2.175.341.261.163.093.286.1.436.2a7.949,7.949,0,0,1,.781.532c.426.291.9.232,1.1.777a3.35,3.35,0,0,1-.025.535c-.038.161-.335.357-.478.506-.2.126-.572.036-.957-.053a4.891,4.891,0,0,0-.648-.011,7.067,7.067,0,0,0-1.079-.027,1.609,1.609,0,0,0-.551.152c-.02.075.075.091.174.116a4.193,4.193,0,0,1,.679.286,2.175,2.175,0,0,1,.458.254l.541.122a2.83,2.83,0,0,1,.685.241.742.742,0,0,1,.283.243c.063.109.26.323.209.5l-.013.074a.3.3,0,0,1-.178.236.511.511,0,0,1-.433.083l-.084-.015c-.431-.1-.723-.252-1.069-.353a14.488,14.488,0,0,1-1.817-.5c-.345-.08-.755-.238-1.223-.372l-.174-.039-.427-.1-.173-.046c-.195-.055-.323-.124-.5-.169-.261-.059-.453-.027-.68-.075a.887.887,0,0,1-.222-.076,1.657,1.657,0,0,1-.313-.426A1.188,1.188,0,0,1,134.384,68.549Zm-1.43,4.467a6.618,6.618,0,0,1,.266-.825c.049-.136.129-.22.172-.372.032-.107-.02-.192,0-.28l.043-.185a1,1,0,0,1,.052-.449l.025-.079c.026-.11.066-.2.087-.288l.022-.078.115-.2a.368.368,0,0,1,.283-.077c.045.011.1-.028.155-.04a1.239,1.239,0,0,1,.163.017.983.983,0,0,1,.4.277l.04.72c-.024.1-.052.157-.077.236a.5.5,0,0,0-.021.132c-.011.07-.027.079.036.162.112.193.424.2.691.317a3.532,3.532,0,0,0,.4.126c.344.126.544.2.881.311.616.2.965.279,1.562.475.269.086.4.146.669.253l.723.265c.284.11.46.157.743.277.025.016.075.02.062.081l.044.094a.885.885,0,0,1,.168.669.317.317,0,0,1-.152.193.684.684,0,0,1-.5.044c-.246-.062-.477-.217-.766-.292l-.038-.01-.089-.016c-.231-.066-.383-.138-.647-.206-.146-.04-.32-.117-.53-.182l-.171-.051-.468-.114-.181-.049c-.615-.171-.964-.293-1.574-.471l-.139-.04c-.191-.051-.343-.079-.532-.125l-.2-.055a.712.712,0,0,0-.466.011.1.1,0,0,0-.065.07,1.058,1.058,0,0,0,.022.242,2.786,2.786,0,0,1-.06.426l-.026.1a.438.438,0,0,1-.173.209.467.467,0,0,1-.4.12.761.761,0,0,1-.385-.2.826.826,0,0,1-.228-.5A1.248,1.248,0,0,1,132.954,73.016Zm-19.91-13.629.393-9.789s.642-13.467.672-13.581.11-2.445.11-2.725.109-1.465.138-1.719.168-1.095.222-1.265.415-1.149.468-1.291a7.138,7.138,0,0,1,.525-.9c.11-.139.633-.759.633-.759s.688-.647.77-.7.774-.509.855-.565,1.54-.587,1.652-.616c0,0,1.845-.338,1.953-.364s1.046-.195,1.046-.195,1.075-.14,1.212-.168,1.1-.026,1.185-.054a10.683,10.683,0,0,1,1.267.113c.163.029.769.194.851.222a5.656,5.656,0,0,0,.716.315c.109,0,.468.476.468.476l.276.42.3.592.219.676.084.7.11,1.014.3,5.03,1.2,16.54.512,14.338s-.221,2.728-.222,2.868-.028,1.126,0,1.324a4.986,4.986,0,0,1-.138.959,2.153,2.153,0,0,1-.3.615.893.893,0,0,1-.468.2c-.193.029-.551.056-.743.085a2.114,2.114,0,0,1-.607-.057.92.92,0,0,1-.384-.339,3.325,3.325,0,0,0-.276-.31s-.164-.7-.193-.79-.3-1.461-.3-1.461l-.654-6.1s-1.012-8.127-1.012-8.237-.222-1.269-.248-1.354-.135-.841-.165-.983-.247-.62-.275-.7-.327-.282-.384-.368-.661,0-.661,0a6.757,6.757,0,0,1-.852.254c-.136,0-.5.309-.578.363a2.112,2.112,0,0,0-.278.421l-.028.7-.081.872.159,5.541s.408,6.887.352,6.974a10.6,10.6,0,0,0,.028,1.32s-.112,1.239-.111,1.324-.193,1.151-.222,1.235-.219,1.038-.249,1.237a4.615,4.615,0,0,1-.384.844,9.079,9.079,0,0,1-.719.842c-.137.141-.522.424-.633.537a2.353,2.353,0,0,1-1.73.512,15.5,15.5,0,0,0,1.8-3.481,23.553,23.553,0,0,0,.869-3.587,11.812,11.812,0,0,0,.057-1.319c0-.141,0-.873-.029-1.1s-.163-1.184-.162-1.379a3.165,3.165,0,0,0-.275-.872c-.055-.086-.412-.9-.412-.9a9.624,9.624,0,0,0-.715-1.038c-.083-.031-.992-.595-1.072-.648s-.852-.285-.993-.34-.742-.113-.823-.141-.825,0-.991,0a5.526,5.526,0,0,0-.8.2s-.635.366-.743.423-.58.421-.662.447a3.785,3.785,0,0,0-.47.508l-.439.787ZM63.293,47.264c.053-.107.129-8.463.129-8.463l-.032-2.386s.035-.855.035-.918.018-.712.02-.792.054-.653.055-.776.11-.629.124-.772a3.277,3.277,0,0,1,.129-.428c.037-.122.128-.349.161-.489s.128-.243.128-.306a2.2,2.2,0,0,1,.289-.405c.054-.084.307-.328.362-.39a4.233,4.233,0,0,1,.432-.343c.093-.065.435-.33.435-.33s.849-.548.9-.608a4.85,4.85,0,0,1,.632-.286s.561-.2.652-.226.792-.18.937-.2.688-.123.811-.121a7.251,7.251,0,0,0,.761-.1c.074-.019.7,0,.755-.019s.868.061.868.061l1.154.163s1.48.347,1.607.347.775.291.866.29,1.171.406,1.171.406l.977.736.917.733.813.835.829.981.522.55.488.836.377.9.27,1,.309,1,.163.958.233,1.344.161,2,.034,1-.035.756V44.6l-.019.9-.145.711-.146.916-.233,1.059-.255,1.06-.287.918-.493,1.077s-.665,1.268-.686,1.329a6.889,6.889,0,0,1-.432.812c-.071.083-.524.877-.6.94s-.6.812-.635.877-.846.872-.846.872l-.849.756-1.118.813L74.2,58.928s-.523.241-.576.242a2.608,2.608,0,0,0-.4.287l-.255.263a.44.44,0,0,0,.147.287l.181.139.212.144.328.183.52.41.758.572.9.856,1.083,1.12,1.315,1.711.866,1.246,1.3,2,.413.656.633,1.056.664,1.308.595,1.364.6,1.344.232.759.129.485a6.117,6.117,0,0,1,.052.653c-.02.082-.053.654-.072.754a6.875,6.875,0,0,1-.2.856c-.053.123-.235.714-.27.818s-.235.589-.29.69-.272.529-.325.61a2.513,2.513,0,0,1-.527.429,2.348,2.348,0,0,1-.613.225c-.123-.021-.629.161-.721.141a6.46,6.46,0,0,1-.669-.063,7.286,7.286,0,0,1-.791-.246c-.035-.061-.578-.2-.633-.264s-.773-.45-.773-.45l-.758-.692s-.957-1.1-.994-1.163a4.726,4.726,0,0,0-.306-.529,3.646,3.646,0,0,1-.234-.732s-.2-.592-.235-.694-.2-.594-.213-.694-.239-.794-.271-.879-.253-.69-.253-.69l-.327-.8-.284-.651s-.363-.9-.4-.979-.377-.856-.43-.92-.321-.978-.343-1.038-.358-.691-.412-.858a5.537,5.537,0,0,0-.324-.612,2.716,2.716,0,0,1-.306-.506c0-.085-.31-.348-.31-.348l-.4-.508s-.486-.553-.541-.612-.575-.634-.629-.674-1.156-1.1-1.156-1.1l-.431-.309-.218-.159-.18-.022-.072.1-.056.286-.053.632-.272,4.4L67.3,73.981l-.221,4.545-.128,1.263-.089.733s-.055.674-.074.757-.055.507-.091.611a2.147,2.147,0,0,1-.2.345,1.342,1.342,0,0,1-.34.281c-.074.044-.326.186-.383.167s-.358.124-.465.1-.632.023-.724,0a3.574,3.574,0,0,0-.487-.024c-.072,0-.288-.281-.288-.281a1.032,1.032,0,0,1-.165-.161,1.567,1.567,0,0,1-.069-.273l-.019-.793V80.7l-.016-2.181.046-13.531-.159-9.052S63.237,47.361,63.293,47.264ZM50.781,103.537l-.52-.149-.863-.128s-.867-.127-.952-.154-.981-.189-.981-.189l-.893-.213s-.95-.158-1.038-.185-1.066-.326-1.066-.326l-.772-.355-.945-.662-.857-.661-.622-.769-.337-.452-.11-.426.134-.925.245-5.864s.038-2.1.011-2.218.107-1.064.11-1.231a1.636,1.636,0,0,1,.183-.5l.235-.278.466-.076.726-.07,3.386-.139,2.173-.156s.807.042.923.016.547.264.547.264l.224.4.219.677.271,2.731.82,12.284Zm9.489,24.375a2.941,2.941,0,0,0-.186.672c.027.113-.326.559-.326.559l-.7.461s-1.021.406-1.137.46-1.719.528-1.719.528-6.121.934-6.122,1.017-3.529.163-3.529.163l-1.272-.077-1.008-.386-.478-.541a4.085,4.085,0,0,1-.422-.793,10.748,10.748,0,0,0-.354-1.269l-.84-4.79-1-5.606-.276-2.366-.042-.844.039-.5.147-.138.287.087,1.091.414,1.529.281s.927-.011,1.07.018,1.268.274,1.413.276,1.272.079,1.474.112,1.534.027,1.7.059,1.857-.333,1.857-.333l1.254-.538,1.547-.79L55.385,113l.716-1.2.4-1.088.252-1.257-.091-1.41-.274-.815-.564-.881-.655-.63-.6-.576-.543-.371.329-7.156s.046-5.9.075-5.809-.035-2.948-.035-2.948l.22-1.038.3-.445s.324-.33.439-.327.731-.325.847-.3.9-.122.984-.092.9-.044,1.013-.01.6.093.6.093l.431.232a2.069,2.069,0,0,1,.279.541c.028.168.129.87.129.87s.121,1.406.118,1.52S59.9,100.1,59.9,100.1l.265,9.5-.015,12.27.18,4.5s.046.7.044.816S60.27,127.912,60.27,127.912Zm.008-54.434-.171,2.615-.075,2.975s-.173,1.6-.191,1.663-.056.534-.076.594a3.859,3.859,0,0,1-.135.476c-.034.06-.093.317-.149.355s-.244.276-.3.318-.356.3-.433.356-.491.217-.6.276-.528.2-.623.238a2.631,2.631,0,0,1-.548.1,2.124,2.124,0,0,1-.355.021c-.057-.021-.226-.061-.226-.061l-.134-.3-.114-.5-.092-.812-.112-1.309.173-4.316.042-6.563.079-4.1s-.055-.533-.055-.591-.076-.221-.093-.318-.115-.118-.172-.141-.321-.119-.321-.119l-.657.02c-.056,0-1.038.036-1.038.036l-.564.1s-.4.177-.451.2a1.523,1.523,0,0,0-.246.26l-.1.215-.055.32-.019.3-.039.375-.015.495-.041.617L52.3,69.292l-.058,2.676-.229,4.279L51.8,78.226l-.188,2.124-.169.927-.21.815-.224.612-.228.5-.3.413-.3.3-.509.3-.961.279-1.148.175-1.413.16-1.375.018-1.565.019-1.213,0a6.592,6.592,0,0,1-.735-.032,2.64,2.64,0,0,1-.452-.268l-.312-.534-.2-.743-.111-.863-.086-.654s-.141-1.755-.167-1.843-.028-1.248-.028-1.248l-.027-2.081.147-7.369s.09-9.632-.021-9.662.316-7.845.316-7.845l.489-9.96.114-1.508S41,39.554,41,39.5s.128-.554.128-.616.248-.492.248-.552a6.114,6.114,0,0,1,.3-.615s.283-.535.322-.633a4.911,4.911,0,0,1,.358-.518c.058-.076.358-.395.47-.532a5.412,5.412,0,0,1,.68-.615c.055-.019.547-.395.6-.438s.565-.355.641-.393.586-.275.7-.317.679-.315.808-.355.754-.276.829-.3.81-.316.867-.334,1.227-.44,1.227-.44l1.958-.173,1.958-.239,2.977.064c.076,0,.791.083.886.06a6.129,6.129,0,0,1,.6.119,4.111,4.111,0,0,1,.488.14l.436.239.263.3.358.358.32.357.394.553.265.836.224,1.007.15.735.132.93.055.933.076.893.072,1.386L61.11,45l.262,3.924-.139,7.748-.155,5.49L60.793,67.2Zm19.06,69.8c-.024.075-.132.6-.132.6a2.216,2.216,0,0,1-.247.491c-.078.055-.2.36-.3.42s-.439.411-.518.468-.535.361-.732.492c-.058.039-.114.074-.175.11-.21.125-.718.425-.782.452s-.878.384-.878.384l-.592.251a4.27,4.27,0,0,1-.65.216l-.9.222a4.551,4.551,0,0,1-.6.1l-1.166.12a4.333,4.333,0,0,1-.521.022l-1.156-.02-.824-.023a4.194,4.194,0,0,1-.528-.048l-.647-.1a3.991,3.991,0,0,1-.637-.151l-.764-.25a3.723,3.723,0,0,1-.547-.227l-1.165-.6a6.859,6.859,0,0,1-.651-.423c-.085-.087-.4-.372-.488-.486s-.524-.65-.585-.745-.387-.666-.446-.733c-.042-.049-.224-.436-.314-.631-.034-.073-.064-.145-.091-.22-.073-.2-.224-.62-.248-.69s-.145-.49-.226-.771a2.679,2.679,0,0,1-.094-.51l-.052-.61s-.046-.9-.052-.994.052-1.056.052-1.056l.066-.8a2.905,2.905,0,0,1,.066-.411l.2-.818c.016-.068.035-.136.056-.2l.187-.59a3.058,3.058,0,0,1,.15-.38l.35-.737.471-.928.34-.69c.035-.07.073-.14.113-.208l.538-.911.549-.932c.051-.088.108-.174.168-.258l.891-1.23a3.422,3.422,0,0,1,.337-.4l.918-.934.96-1.008c.069-.074.143-.145.22-.213l.753-.67.76-.685a3.878,3.878,0,0,1,.373-.3l.906-.633a4.08,4.08,0,0,1,.56-.327l1.374-.664.564-.277a4.262,4.262,0,0,1,.65-.256l.656-.2,1.009-.321c.077-.024.153-.046.231-.066.285-.074,1-.257,1.065-.264.084-.009.73-.1.73-.1l.467.075.533.312.321.356.071.327a2.656,2.656,0,0,1,.052.356l.049.631a2.668,2.668,0,0,1-.021.6l-.058.389-.147.844-.176.751-.161.782a3.118,3.118,0,0,1-.087.325l-.183.548-.15.49c-.023.075-.05.15-.079.223l-.488,1.224a3.429,3.429,0,0,1-.522.874c-.1.107-.365.33-.5.321a3.92,3.92,0,0,1-.543.032c-.139-.034-.439-.077-.439-.077l-.417-.154-.47-.167-.663-.154-.346-.07a4.1,4.1,0,0,0-.761-.083c-.2,0-.414-.007-.454,0-.081.009-.728.126-.838.113a3.636,3.636,0,0,0-.694.267s-.788.52-.871.554-.649.578-.649.578l-.355.34a3.431,3.431,0,0,0-.345.381l-.073.093a3.252,3.252,0,0,0-.348.552l-.158.319c-.029.057-.059.114-.092.171l-.324.564-.3.584a2.968,2.968,0,0,0-.164.382l-.113.326a3.207,3.207,0,0,0-.093.328l-.325,1.486a2.727,2.727,0,0,0-.048.294l-.092.845a2.636,2.636,0,0,0-.014.387l.041,1.184c0,.086.011.171.022.256l.057.43c.01.078.024.155.041.232l.086.384a1.734,1.734,0,0,0,.09.281,2.869,2.869,0,0,0,.533.82l.033.036a1.94,1.94,0,0,0,.255.231l.257.195.39.18.653.064c.131.013.263.019.4.02l.7,0a4.408,4.408,0,0,0,.783-.105c.068-.038.3-.132.471-.2a2.617,2.617,0,0,0,.334-.158l.265-.15a2.436,2.436,0,0,0,.288-.191l.389-.3c.086-.066.169-.136.247-.208l.255-.234a3.467,3.467,0,0,0,.363-.386l.245-.3a3.248,3.248,0,0,0,.235-.33l.495-.793.274-.488a2.037,2.037,0,0,1,.171-.256l.158-.2a2.247,2.247,0,0,1,.489-.457,2.5,2.5,0,0,1,.624-.314c.08-.027.15-.052.177-.064a1.57,1.57,0,0,1,.41.006l.362.134.394.276.177.2a2.955,2.955,0,0,1,.345.48l.222.39c.035.061.068.123.1.186l.386.814a3.722,3.722,0,0,1,.255.729c-.023.1.144.691.123.792S79.361,143.205,79.338,143.281Zm-.009-23.364-.985.073a1.991,1.991,0,0,1-1.381-.237,1.722,1.722,0,0,1-.586-1.2c-.184-1.748-.081-3.5-.162-5.265-.014-.3-.422-9.163-.422-9.163s-.4-8.319-.423-8.493-.115-1.308-.143-1.511-.055-1.261-.055-1.436-.059-1.258-.059-1.435S75,90.505,75,90.323a5.665,5.665,0,0,0-.144-.609c0-.08-.2-.282-.229-.364s-.429-.126-.545-.152a6.3,6.3,0,0,0-.658.024c-.145,0-.748.106-.891.105s-.975.2-1.059.176-1.232.231-1.232.231-3.845.713-3.987.794a12.464,12.464,0,0,1-1.607.325c-.373.052-.977.259-1.321.283a6.9,6.9,0,0,1-1.032.1,1.1,1.1,0,0,1-.8-.306.577.577,0,0,1-.228-.512c-.03-.207-.2-.59-.229-.872s-.172-2.1-.171-2.332.086-.714.085-.795a1.225,1.225,0,0,1,.433-.459,3.656,3.656,0,0,1,.659-.28c.115-.025.8-.23.948-.281s.945-.151,1.035-.181,1.144-.178,1.144-.178l8-.53,7.143-.478a7.177,7.177,0,0,0,1-.026,3.56,3.56,0,0,1,.832.1,4.033,4.033,0,0,0,.657.26c.118,0,.458.56.458.56l.144.617-.056.893-.059,1.153-.809,5.839-.695,7.708-.145,3.895-.723,8.6s-.09,1.787-.118,1.916-.088,1.716-.088,1.843c0,.7-.071,1.941-.68,2.35A1.42,1.42,0,0,1,79.329,119.917Zm18.4,15.115a4.477,4.477,0,0,1,.027,1.145c-.082.8-.228,2.157-.283,2.371a22.571,22.571,0,0,1-.9,2.182c-.2.4-.761,1.376-1.006,1.724s-.769,1.216-1.185,1.73a6.619,6.619,0,0,1-1.743,1.49,7.55,7.55,0,0,1-1.813.676,5.021,5.021,0,0,1-1.75-.011,6.4,6.4,0,0,1-1.752-.355,3.538,3.538,0,0,1-1.514-.925,9.351,9.351,0,0,0-1.035-.786,8.509,8.509,0,0,1-1.206-1.492,19.606,19.606,0,0,1-.989-1.792c-.143-.288-1.043-2.286-1.177-2.413a24.2,24.2,0,0,1-.881-3.891c-.01-.567-.159-1.482-.138-2.157a12.911,12.911,0,0,1,.159-1.95c.14-.929.21-1.394.341-2.018a15.214,15.214,0,0,1,.9-2.182,11.585,11.585,0,0,1,1.074-1.721c.481-.8.87-.918,1.328-1.442a8.638,8.638,0,0,1,1.316-1.074,15.449,15.449,0,0,1,1.283-.9,4.275,4.275,0,0,1,1.394-.5,5.369,5.369,0,0,1,1.339-.065,6.584,6.584,0,0,0,.855-.02c.235-.041.531.166.669.17s.657.134.9.192a8.244,8.244,0,0,1,1.059.454c.191.092.648.44.744.455a5.315,5.315,0,0,1,.79.729l.112.143a3.8,3.8,0,0,1,.949,1.394l.45.924.928,2.456a4.542,4.542,0,0,0,.173.58,20.962,20.962,0,0,1,.55,3.07s.136,1.751.132,1.874A8.359,8.359,0,0,0,97.731,135.032Zm5.789,5.148c-.031.033-.192.5-.218.572a4,4,0,0,1-.194.428,1.823,1.823,0,0,1-.263.369,2.237,2.237,0,0,0-.247.206.93.93,0,0,1-.37.252,2.008,2.008,0,0,1-.457.133,1.632,1.632,0,0,1-.47.056,2.468,2.468,0,0,1-.515-.095,1.922,1.922,0,0,1-.529-.277c-.134-.1-.31-.278-.39-.348a2.64,2.64,0,0,1-.341-.352c-.071-.11-.264-.449-.3-.514S99.02,140,99.02,140s-.107-.616-.113-.643-.029-.454-.029-.454c-.012-.055.014-.646.014-.646l.135-.651.156-.337.155-.224a1.2,1.2,0,0,1,.183-.186c.025-.007.134-.1.181-.124a2.373,2.373,0,0,1,.267-.134c.064-.02.163-.073.2-.078a1.071,1.071,0,0,1,.209-.05,1.9,1.9,0,0,0,.271-.046,1.854,1.854,0,0,1,.322,0,1.406,1.406,0,0,1,.4.07c.163.069.232.084.382.161a2.681,2.681,0,0,1,.4.2,2.117,2.117,0,0,1,.415.28,2.874,2.874,0,0,1,.36.349,3.393,3.393,0,0,1,.33.457c.06.135.1.236.174.438a2.53,2.53,0,0,1,.122.428c.033.149.03.357.05.483A4.431,4.431,0,0,1,103.52,140.18Zm9.045-41.942c0,.106-.06,1.193-.06,1.193s-.041.779-.026.962-.28,2.665-.28,2.665l-.142,2.125-.291,1.7-.208,1.24s-.458,1.454-.49,1.535-.471,1.172-.474,1.251-.518.986-.518.986a7.876,7.876,0,0,0-.542.8,7.211,7.211,0,0,1-.537.776s-.984.865-1.077.939a9.292,9.292,0,0,0-.823.608,7.571,7.571,0,0,1-.967.548,8.694,8.694,0,0,0-.983.311,6.066,6.066,0,0,1-.979.213l-1.121.071-1.161-.188-1.584-.6-1.377-.643-.811-.769-.8-.926-.564-1.016-.641-1.232-.381-1.135-.126-1.022s.11-1.033.116-1.166.249-1.392.249-1.392l.438-1.1a7.853,7.853,0,0,1,.507-.753c.093-.073.759-1.055.759-1.055l.981-.808,1.007-.754s.9-.5,1.052-.545,1.137-.41,1.137-.41l1.281-.325,1.064-.181.911-.031,1.053.029.074.288.093,1.67-.994-.128a8.477,8.477,0,0,0-1.059.023c-.089.048-.856.162-1.039.235s-.928.394-1.08.491a10.7,10.7,0,0,0-.887.708c-.062.076-.611.515-.8.737s-.719.876-.849,1.1-.491.99-.591,1.248a7.639,7.639,0,0,0-.3,1.181,4.05,4.05,0,0,0,.035,1.041c.043.262.28.873.3,1.006a2.885,2.885,0,0,0,.324.56,2.561,2.561,0,0,0,.725.8,2.758,2.758,0,0,0,.822.536,2.687,2.687,0,0,0,.991.1,5.429,5.429,0,0,0,.834-.268,3.724,3.724,0,0,0,1.026-.52c.213-.145,1.121-.7,1.121-.7l.821-1.131.561-1.217.411-1.176.337-1.419.377-1.643.206-1.158.105-1.452.06-1.141-.01-1.561-.318-1.839-.188-.918-.335-.929-.461-.7-.523-.655-.793-.532s-.422-.385-.51-.366a9.379,9.379,0,0,1-1.1-.316l-.879-.045a9.007,9.007,0,0,1-.89.191c-.119,0-1.676.641-1.856.71s-.759.48-.849.53-.6.774-.719.873-.6.88-.7,1.005a5.971,5.971,0,0,0-.555,1.091c-.008.129-.195.927-.229,1.055s-.222,1.467-.222,1.467-.134.879-.166.981-.168.932-.174,1.031-.03.622-.037.728-.062.647-.062.647l-.686.8-.568.8-.339.892a9.181,9.181,0,0,0-.311.921c-.006.13-.231,1.078-.237,1.186s-.116,1.113-.121,1.216-.014.934.006,1.069.263,1.754.256,1.859a7.34,7.34,0,0,0,.168.756,7.473,7.473,0,0,0,.282.747c.084.131.379.645.433.751s.973,1.064.973,1.064l1.226,1.234,1.022.651,1.182.4.985.284,1.065.367,1.044.212.79.091-1.54.86s-1.258.481-1.348.556-1.338.3-1.428.365-1.417.135-1.565.207-1.433-.1-1.525-.051a6.664,6.664,0,0,1-1.019-.1c-.119-.006-1.359-.405-1.359-.405l-1.456-.754-1.69-1.358-1.034-1.016-.788-1.263-1.061-1.614-.622-1.62-.7-1.779-.366-1.4-.29-1.234-.076-1.383-.282-1.917-.138-1.874,0-1.7s.128-1.37.132-1.473.288-1.547.323-1.65.44-1.745.477-1.927,1-2.966,1-2.966,1.206-2.877,1.235-2.8,1.177-1.889,1.177-1.889,1.1-1.528,1.14-1.605,1.121-1.321,1.157-1.4.958-1.02,1.051-1.093,2.235-1.809,2.323-1.829.789-.508.789-.508a10.745,10.745,0,0,1,1.086-.619c.089,0,1.221-.356,1.309-.376s1.132-.306,1.222-.329,1.24-.172,1.328-.166a10.657,10.657,0,0,1,1.288.066,10.387,10.387,0,0,1,1.1.317,12.785,12.785,0,0,0,1.207.53c.086.029,1.162.708,1.162.708l.816.771,1.234,1.1.967,1.141.742,1A10.8,10.8,0,0,1,110,86.347c-.006.108.841,1.916.841,1.916l.7,1.729.479,1.507.348,1.3.193,1.333s.008.986.032,1.147.092,1.591.092,1.591S112.57,98.134,112.565,98.238Zm.48-22.586c-.21-.022-.623-.025-.982-.058a2.832,2.832,0,0,1-.771-.083,5.4,5.4,0,0,0-.622-.156,4.238,4.238,0,0,1-.754-.309,7.651,7.651,0,0,1-.846-.623c-.1-.136-.471-.386-.525-.5s-.623-.561-.7-.7-.6-.565-.66-.662-.562-.64-.621-.737l-.523-.874s-.85-2-.887-2.056-.15-.584-.209-.716-.13-.682-.146-.741-.13-.987-.13-.987l-.078-.759-.113-1.278.06-1.691s-.021-2.617-.02-2.716.04-.5.04-.56-.075-1.455-.075-1.573-.113-.619-.129-.734-.282-.278-.342-.333a1.423,1.423,0,0,0-.508-.2,2.857,2.857,0,0,0-.45.116s-.566.366-.64.424-.475.583-.475.583l-.357.679-.189.7-.206,1.027-.345,4.7-.362,5.491s-.095,1.456-.113,1.533-.15,1.2-.134,1.261-.242.97-.264,1.064-.3.68-.34.776a2.92,2.92,0,0,1-.3.468,3.822,3.822,0,0,1-.527.405c-.1.042-.549.235-.663.291a3.639,3.639,0,0,1-.749.192,3.841,3.841,0,0,1-.473.039,1.68,1.68,0,0,1-.265-.211l-.131-.272.057-.523s.039-2.019.1-2.078.5-8.322.5-8.322l.077-2.117-.038-2.539s-.056-.774-.034-.853-.114-.681-.115-.757-.207-.582-.207-.681-.189-.448-.189-.5a2.032,2.032,0,0,0-.26-.365l-.378-.314-.471-.214s-.471-.193-.526-.214-.643-.06-.716-.076-.719.115-.793.1a4.527,4.527,0,0,0-.659.289A4.179,4.179,0,0,0,91.6,57.861a9.506,9.506,0,0,0-.549.8c0,.057-.319.6-.32.659s-.243.815-.243.815l-.322,1.184L89.807,63.7l-.135,3.028s-.17,2.351-.115,2.27-.226,2.522-.226,2.522l-.475,2.447a9.925,9.925,0,0,1-.284,1.2,7.707,7.707,0,0,0-.244.931c-.036.135-.321.913-.359,1.007s-.32.681-.394.813a3.389,3.389,0,0,1-.566.486,2.7,2.7,0,0,1-.643.234,1.441,1.441,0,0,1-.6-.042,2,2,0,0,1-.471-.309,1.093,1.093,0,0,1-.208-.386,2.8,2.8,0,0,1-.077-.428V76.6l.172-1.513.21-2.117s.931-8.865.874-8.885l.5-5.751s.8-13.531.83-13.618.258-7.976.231-8.121.028-1.575.028-1.745.116-.934.116-1.11a6.994,6.994,0,0,1,.2-.9,4.646,4.646,0,0,1,.285-.672c.054-.084.425-.637.565-.813s.734-.579.791-.668a6.634,6.634,0,0,1,.733-.5s.763-.318.876-.376a3.921,3.921,0,0,1,.734-.09l.681.031.535.233.708.235.421.346.285.5.137.553.2,1.718.22,6.491.617,9.137.279,1.632.113.435.2.262.143-.029.085-.288a5.249,5.249,0,0,0,.144-.815c-.032-.091.226-1.457.226-1.543s.706-4.656.706-4.656.854-4.859.882-4.948.909-5.674.909-5.674l.281-1.368s.285-.959.313-1.105a3.937,3.937,0,0,1,.312-.814,7.057,7.057,0,0,0,.31-.7,4.214,4.214,0,0,1,.625-.609c.085-.06.735-.437.816-.5s.936-.494,1.022-.552,1.046-.493,1.131-.524,1.157-.464,1.157-.464l.907-.345.479.025.284.205.224.553.112,1.165.2,3.668,0,3.054-.289,6.9-.185,9.883s-.118,4.869-.077,4.813.2,4.852.239,4.985.016.624.076.757.112.624.168.778.093.389.151.523.375.562.489.74a1.629,1.629,0,0,0,.415.407c.094.059.317.232.395.231s.339.118.394.119a5.587,5.587,0,0,0,.566-.02c.112-.018.434-.059.508-.076a2.891,2.891,0,0,0,.471-.194,6.213,6.213,0,0,0,.638-.388,6.913,6.913,0,0,0,.531-.6c.056-.1.453-.561.527-.656a7.5,7.5,0,0,0,.474-.7,5.883,5.883,0,0,1,.563-.74c.131-.153.47-.482.551-.58a8.828,8.828,0,0,1,.768-.58,2.443,2.443,0,0,1,.606-.311c.111-.02.507-.175.619-.194a4.639,4.639,0,0,1,.548-.019c.134,0,.678.136.792.157s.565.35.678.386.713.407.713.407l.567.68.375.933.186.914.078,1.53-.044,1.049s-.24,1.32-.281,1.377-.263,1.029-.263,1.029l-.417,1.085L118.809,71s-.734,1.222-.809,1.3-.621.891-.7,1.007-.62.6-.7.7a6.574,6.574,0,0,1-.867.754,5.565,5.565,0,0,1-.864.467c-.135.037-.583.31-.774.347A6.206,6.206,0,0,1,113.045,75.652Zm30.1,20.561c0-.1-.1,1.742-.1,1.742l-.46,2.072-.53,1.839-.918,2.305s-1.3,2.889-1.445,3.092-.705,1.315-.913,1.612-1.271,1.64-1.515,1.9-.954,1.287-1.163,1.516a15.724,15.724,0,0,1-1.379,1.278c-.315.227-1.228.986-1.793,1.35s-1.693.918-2.01,1.084a10.089,10.089,0,0,1-2.041.556c-.531.067-1.481.329-1.937.39a11.961,11.961,0,0,1-1.972.069c-.567-.034-1.375-.164-1.831-.233a1.718,1.718,0,0,1-.915-.527,7.077,7.077,0,0,1-.671-1.051c-.033-.1-.525-1.747-.525-1.876s-.491-3.028-.491-3.028-.63-4.475-.6-4.769-.032-.922,0-1.148.107-.923.143-1.153a7.676,7.676,0,0,1,.21-.793,3.09,3.09,0,0,1,.494-.591c.139-.061.6-.363.811-.455a1.729,1.729,0,0,1,.846,0,4.944,4.944,0,0,1,1.089.227c.248.1.984.362,1.2.46s1.092.4,1.235.432,1.266.328,1.266.328,1.655.268,1.939.268,1.409.064,1.551.062,1.088-.131,1.372-.193.949-.332,1.375-.493a5.439,5.439,0,0,0,1.16-.918,11.793,11.793,0,0,0,.985-1.284c.107-.131.741-1.25.847-1.443s.564-1.616.668-1.716,0-2.171.038-2.369-.035-1.477-.034-1.742a10.252,10.252,0,0,0-.453-1.611,6.779,6.779,0,0,0-.775-1.384,12.128,12.128,0,0,0-1.2-1.25c-.318-.23-1.3-.726-1.409-.823s-1.689-.626-1.864-.692-1.866-.1-2.078-.2-1.019,0-1.2-.067a8.764,8.764,0,0,0-1.306.1c-.105,0-1.16.425-1.373.457a13.591,13.591,0,0,0-1.621.854c-.6.329-1.057.855-1.549,1.181s-1.023,1.251-1.622,1.778-1.2,1.283-1.9,1.805-.67.727-1.34,1.153-.636.3-1.231.1-.495-.526-.883-1.15-.244-.789-.421-1.352-.277-1.182-.49-1.973a9.824,9.824,0,0,1-.242-1.842c-.072-.592-.176-1.349-.248-1.879a12.3,12.3,0,0,1-.068-1.936c.039-.465.1-1.283.21-1.874a3.242,3.242,0,0,1,.5-1.218,6.212,6.212,0,0,1,.846-1.087,7.922,7.922,0,0,1,1.3-.954c.279-.16,1.686-.95,2.076-1.115s1.548-.655,1.831-.723,1.8-.558,2.146-.589,1.728-.229,1.974-.292,1.692-.034,1.8-.065,1.9.068,1.9.068l1.408.294,1.8.529,1.793.757,1.9.854,2.146,1.22,1.652,1.285,1.233,1.118.987,1.549.595,1.837.91,3.525.279,2.432.073,2.766S143.15,96.309,143.149,96.213Z"/>
    <line x1="20.535" y1="37.511" x2="20.316" y2="37.676"/>
  </g>
  <g>
    <path d="M61.233,56.672l.139-7.748L61.11,45l-.319-3.666-.072-1.386-.076-.893-.055-.933-.132-.93-.15-.735-.224-1.007-.265-.836-.394-.553L59.1,33.7l-.358-.358-.263-.3-.436-.239a4.111,4.111,0,0,0-.488-.14,6.129,6.129,0,0,0-.6-.119c-.095.023-.81-.06-.886-.06l-2.977-.064-1.958.239-1.958.173s-1.171.416-1.227.44-.792.315-.867.334-.7.258-.829.3-.7.318-.808.355-.623.278-.7.317-.584.358-.641.393-.547.419-.6.438a5.412,5.412,0,0,0-.68.615c-.112.137-.412.456-.47.532A4.809,4.809,0,0,0,42,37.08c-.039.1-.322.633-.322.633a6.114,6.114,0,0,0-.3.615c0,.06-.247.493-.248.552S41,39.437,41,39.5s-.076.751-.076.751l-.114,1.508-.49,9.96S39.888,59.53,40,59.56s.021,9.662.021,9.662l-.147,7.369.027,2.081s0,1.16.028,1.248.167,1.843.167,1.843l.086.654.111.863.2.743.312.534a2.64,2.64,0,0,0,.452.268,6.592,6.592,0,0,0,.735.032l1.213,0,1.565-.019,1.375-.018,1.413-.16,1.148-.175.961-.279.509-.3.3-.3.3-.413.228-.5.224-.612.21-.815.169-.927.188-2.124.212-1.979.229-4.279.058-2.676.076-2.021.041-.617.015-.495.039-.375.019-.3.055-.32.1-.215a1.565,1.565,0,0,1,.246-.26c.054-.02.451-.2.451-.2l.564-.1s.982-.037,1.037-.036l.658-.02s.267.1.321.119.15.041.172.141.094.256.093.318.055.591.055.591l-.079,4.1-.042,6.563-.173,4.316.112,1.309.092.811.114.5.134.3s.169.04.226.061a2.124,2.124,0,0,0,.355-.021,2.631,2.631,0,0,0,.548-.1c.095-.039.509-.178.623-.238s.527-.218.6-.277.377-.317.433-.355.241-.279.3-.318.115-.3.149-.355a3.859,3.859,0,0,0,.135-.476c.02-.06.057-.536.076-.594s.191-1.663.191-1.663l.075-2.975.171-2.615.515-6.281.285-5.035ZM57.546,44.157l-.17,2.187L57.1,48.082s-.2.85-.219.91-.126.725-.163.841-.133.833-.155.91a6.1,6.1,0,0,1-.169.894c-.074.158-.13.812-.187.971s-.265.733-.339.869-.34.773-.4.854-.4.574-.451.63a7.036,7.036,0,0,1-.624.476,3.143,3.143,0,0,1-.526.3,3.925,3.925,0,0,1-.943.158,1.593,1.593,0,0,1-.433-.1,1.559,1.559,0,0,1-.413-.358,2.409,2.409,0,0,1-.266-.354c-.037-.082-.206-.277-.242-.377s-.17-.419-.209-.518-.148-.55-.168-.635-.094-.534-.112-.592-.133-.912-.133-.912-.093-1.23-.109-1.29-.021-.791-.04-.891-.074-.971-.074-.971-.037-1.087-.036-1.169.038-1.487.038-1.487.246-2.872.264-2.99.153-.794.154-.854.17-.732.207-.91.246-.832.283-.993a3.431,3.431,0,0,1,.3-.711,6.187,6.187,0,0,0,.338-.6,5.8,5.8,0,0,1,.452-.474,3.063,3.063,0,0,1,.55-.276c.111-.039.469-.119.565-.141s.487-.013.58-.037.3.141.358.141.51.257.566.257a3.3,3.3,0,0,1,.472.337l.432.5.376.495.3.4.263.4.247.788.118,1.315Z" fill="#fff"/>
    <path d="M133.123,74.151a.768.768,0,0,0,.385.2.47.47,0,0,0,.4-.12.438.438,0,0,0,.173-.209l.026-.1a2.786,2.786,0,0,0,.06-.426,1.058,1.058,0,0,1-.022-.242.1.1,0,0,1,.065-.07.706.706,0,0,1,.466-.011l.2.055c.189.046.341.074.532.125l.138.04c.611.178.96.3,1.575.471l.181.049.468.114.171.051c.21.065.384.142.53.182.264.068.416.14.647.206l.089.016.038.01c.289.075.52.23.766.292a.684.684,0,0,0,.5-.044.317.317,0,0,0,.152-.193.885.885,0,0,0-.168-.669l-.044-.094c.013-.061-.037-.065-.062-.081-.283-.12-.459-.167-.743-.277l-.723-.265c-.266-.107-.4-.167-.669-.253-.6-.2-.946-.273-1.562-.476-.337-.114-.537-.184-.881-.31a3.532,3.532,0,0,1-.4-.126c-.267-.117-.579-.124-.691-.317-.063-.083-.047-.092-.036-.162a.462.462,0,0,1,.021-.132c.025-.079.053-.139.077-.236l-.04-.72a.983.983,0,0,0-.4-.277,1.239,1.239,0,0,0-.163-.017c-.053.012-.11.051-.155.04a.368.368,0,0,0-.283.077l-.115.2-.022.078c-.021.086-.061.178-.087.288l-.025.079a1,1,0,0,0-.052.449l-.043.185c-.023.088.029.173,0,.28-.043.152-.123.236-.172.372a6.618,6.618,0,0,0-.266.825,1.248,1.248,0,0,0-.059.632A.826.826,0,0,0,133.123,74.151Z" fill="#fff"/>
    <path d="M134.729,69.609a.887.887,0,0,0,.222.076c.227.048.419.016.68.075.178.045.306.114.5.169l.173.046.427.1.174.039c.468.134.878.292,1.223.372a14.488,14.488,0,0,0,1.817.5c.346.1.638.254,1.068.353l.085.015a.511.511,0,0,0,.433-.083.3.3,0,0,0,.178-.236l.013-.074c.051-.176-.146-.39-.209-.5a.742.742,0,0,0-.283-.243,2.83,2.83,0,0,0-.685-.241l-.541-.122a2.223,2.223,0,0,0-.458-.255,4.276,4.276,0,0,0-.679-.285c-.1-.025-.194-.041-.174-.116a1.609,1.609,0,0,1,.551-.152,7.067,7.067,0,0,1,1.079.027,4.891,4.891,0,0,1,.648.011c.385.089.754.179.957.053.143-.149.44-.346.478-.506a3.19,3.19,0,0,0,.024-.535c-.194-.545-.669-.486-1.095-.777a7.949,7.949,0,0,0-.781-.532c-.15-.1-.273-.1-.436-.2-.142-.086-.2-.179-.342-.261-.166-.094-.294-.079-.428-.181-.15-.1-.365-.172-.325-.348.129-.139.347-.117.64-.052.087.019.332.014.56.061l.1.025c.181.039.315.089.487.124a1.322,1.322,0,0,0,.243.044c.719.059,1.422.317,1.873.076a1.362,1.362,0,0,0,.275-.647.809.809,0,0,0-.474-.731,6.454,6.454,0,0,0-1.079-.15,5.82,5.82,0,0,1-.891-.038l-.4-.091a4.864,4.864,0,0,0-.665-.061c-.272-.037-.537-.028-.715-.074l-.268-.054a13.608,13.608,0,0,1-1.665-.215l-.953-.219c-.424-.021-.487.24-.74.537l-.062.248c.031.195-.047.444.115.571a.928.928,0,0,0,.593.4c.282.247.672.415.946.664.378.179.563.487.94.66a1.439,1.439,0,0,0,.47.285,4.909,4.909,0,0,1,.4.349.4.4,0,0,1-.3.211c-.113.037-.225-.052-.338,0a7.706,7.706,0,0,1-.989.223l-1.035.021a3.456,3.456,0,0,1-.461.075,2.275,2.275,0,0,0-.8.085c-.215.077-.287.189-.451.426a1.188,1.188,0,0,0,.032.634A1.657,1.657,0,0,0,134.729,69.609Z" fill="#fff"/>
    <path d="M85.293,78.286a2,2,0,0,0,.471.309,1.441,1.441,0,0,0,.6.042,2.72,2.72,0,0,0,.643-.234,3.389,3.389,0,0,0,.566-.486c.075-.132.357-.712.394-.813s.323-.872.359-1.007a7.707,7.707,0,0,1,.244-.931,9.925,9.925,0,0,0,.284-1.2l.476-2.447s.285-2.6.225-2.522.115-2.27.115-2.27l.135-3.028.359-2.383.322-1.184s.243-.754.243-.815.321-.6.32-.659a9.506,9.506,0,0,1,.549-.8,8.19,8.19,0,0,1,.6-.677c.112-.08.584-.466.66-.486a4.527,4.527,0,0,1,.659-.289c.074.019.717-.117.793-.1s.659.057.716.076.526.214.526.214l.471.214.378.314a2.032,2.032,0,0,1,.26.365c0,.056.19.406.189.5s.208.6.207.681.129.676.115.757.034.853.034.853l.038,2.539-.077,2.117s-.443,8.266-.5,8.322-.1,2.078-.1,2.078l-.057.523.131.272a1.68,1.68,0,0,0,.265.211,3.841,3.841,0,0,0,.473-.039,3.639,3.639,0,0,0,.749-.192c.114-.056.567-.249.663-.291a3.822,3.822,0,0,0,.527-.405,2.92,2.92,0,0,0,.3-.468c.037-.1.32-.677.34-.776s.286-1.008.264-1.065.114-1.183.134-1.26.113-1.533.113-1.533l.362-5.491.345-4.695.206-1.027.189-.7.357-.679s.4-.523.475-.583.641-.424.641-.424a2.84,2.84,0,0,1,.449-.116,1.423,1.423,0,0,1,.508.2c.06.055.322.214.342.333s.129.619.129.734.074,1.515.075,1.573-.04.467-.04.56.02,2.716.02,2.716l-.06,1.691.113,1.278.078.759s.11.932.13.987.094.6.146.741.172.658.209.716.887,2.056.887,2.056l.523.874c.059.1.566.643.621.737s.584.527.66.662.64.581.7.7.429.368.525.5a7.651,7.651,0,0,0,.846.623,4.238,4.238,0,0,0,.754.309,5.45,5.45,0,0,1,.622.156,2.873,2.873,0,0,0,.771.083c.359.033.772.036.982.058a6.206,6.206,0,0,0,1.054-.08c.191-.037.639-.31.774-.347a5.565,5.565,0,0,0,.864-.467A6.574,6.574,0,0,0,116.6,74c.079-.1.623-.584.7-.7s.622-.929.7-1.007.809-1.3.809-1.3l.529-1.339.417-1.085s.229-.972.263-1.029.281-1.377.281-1.377l.044-1.049-.079-1.53-.185-.914-.375-.933-.567-.68s-.6-.369-.713-.407-.564-.367-.678-.386-.658-.157-.792-.157a4.639,4.639,0,0,0-.548.019c-.112.019-.508.174-.619.194a2.443,2.443,0,0,0-.606.311,8.828,8.828,0,0,0-.768.58c-.081.1-.42.427-.551.58a5.883,5.883,0,0,0-.563.74,7.5,7.5,0,0,1-.474.7c-.074.095-.471.559-.527.656a6.913,6.913,0,0,1-.531.6,6.213,6.213,0,0,1-.638.388,2.891,2.891,0,0,1-.471.194c-.074.017-.4.058-.508.076a5.587,5.587,0,0,1-.566.02c-.055,0-.319-.12-.393-.119s-.3-.172-.4-.231a1.647,1.647,0,0,1-.416-.407c-.113-.178-.431-.6-.489-.74s-.094-.371-.15-.523-.114-.64-.168-.778-.035-.621-.077-.757-.2-5.043-.238-4.985.077-4.813.077-4.813l.185-9.883.289-6.9,0-3.054-.2-3.668L107.5,27.15l-.224-.553L107,26.392l-.48-.025-.906.345s-1.074.435-1.157.464-1.048.467-1.131.524-.933.493-1.022.552-.731.436-.816.5a4.214,4.214,0,0,0-.625.609,7.057,7.057,0,0,1-.31.7,3.994,3.994,0,0,0-.312.814c-.028.146-.313,1.105-.313,1.105l-.281,1.368s-.881,5.588-.909,5.674-.882,4.948-.882,4.948-.706,4.57-.706,4.656-.258,1.452-.226,1.543a5.249,5.249,0,0,1-.144.815l-.085.288-.143.029-.2-.262-.113-.435-.279-1.632-.617-9.137-.221-6.491-.2-1.718-.137-.553-.285-.5-.421-.346-.708-.235-.535-.233-.681-.031a3.921,3.921,0,0,0-.734.09c-.113.058-.876.376-.876.376a6.634,6.634,0,0,0-.733.5c-.057.089-.654.5-.791.668s-.511.729-.565.813a4.646,4.646,0,0,0-.285.672,6.994,6.994,0,0,0-.2.9c0,.176-.116.932-.116,1.11s-.054,1.6-.028,1.745-.2,8.033-.231,8.121-.83,13.618-.83,13.618l-.5,5.751c.057.02-.874,8.885-.874,8.885l-.434,2.117L84.561,76.6v.872s.264.348.3.429A3,3,0,0,0,85.293,78.286Z" fill="#fff"/>
    <path d="M113.869,59.721c.082-.027.55-.391.662-.447s.743-.423.743-.423a5.526,5.526,0,0,1,.8-.2c.166,0,.911-.026.991,0s.688.084.823.141.91.283.993.34.989.617,1.072.648a9.624,9.624,0,0,1,.715,1.038s.358.815.412.9a3.165,3.165,0,0,1,.275.872c0,.2.137,1.154.162,1.379s.028.955.029,1.1a11.812,11.812,0,0,1-.057,1.319,23.553,23.553,0,0,1-.869,3.587,15.5,15.5,0,0,1-1.8,3.481,2.353,2.353,0,0,0,1.73-.512c.111-.113.5-.4.633-.537a9.079,9.079,0,0,0,.719-.842,4.615,4.615,0,0,0,.384-.844c.03-.2.223-1.152.249-1.237s.222-1.151.222-1.235.111-1.324.111-1.324a10.6,10.6,0,0,1-.028-1.32c.056-.087-.352-6.974-.352-6.974l-.159-5.541.081-.872.028-.7a2.112,2.112,0,0,1,.278-.421c.081-.054.442-.363.578-.363a6.757,6.757,0,0,0,.852-.254s.608-.084.661,0,.358.283.384.368.248.562.275.7.14.9.165.983.248,1.238.248,1.354,1.012,8.237,1.012,8.237l.654,6.1s.276,1.379.3,1.461.193.79.193.79a3.325,3.325,0,0,1,.276.31.92.92,0,0,0,.384.339,2.114,2.114,0,0,0,.607.057c.192-.029.55-.056.743-.085a.893.893,0,0,0,.468-.2,2.1,2.1,0,0,0,.3-.615,4.907,4.907,0,0,0,.139-.959c-.027-.2,0-1.183,0-1.324s.222-2.868.222-2.868L130.667,50.8l-1.2-16.54-.3-5.03-.11-1.014-.084-.7-.219-.676-.3-.592-.276-.42s-.359-.477-.468-.476A5.656,5.656,0,0,1,127,25.03c-.082-.028-.688-.193-.851-.222a10.685,10.685,0,0,0-1.266-.113c-.086.028-1.049.026-1.186.054s-1.211.168-1.211.168-.938.166-1.047.195-1.953.364-1.953.364c-.112.029-1.572.56-1.652.616s-.772.507-.855.565-.77.7-.77.7-.523.62-.633.759a7.138,7.138,0,0,0-.525.9c-.053.142-.409,1.122-.468,1.291s-.2,1.015-.221,1.265-.139,1.438-.138,1.719-.087,2.613-.111,2.725-.672,13.581-.672,13.581l-.393,9.789-.084,1.629.44-.787A3.77,3.77,0,0,1,113.869,59.721Zm6.569-24.059s.329-1.4.383-1.736a10.638,10.638,0,0,1,.579-1.541,8.63,8.63,0,0,1,.5-.975,4.722,4.722,0,0,1,.52-.559,4.58,4.58,0,0,1,.716-.281c.082-.028.773.112.855.113a4.583,4.583,0,0,1,.66.392l.36.449.465.533a7.5,7.5,0,0,1,.575.976c0,.114.387.98.388,1.095s.245,1.2.244,1.452-.054,1.654-.054,1.654-.138,1.652-.222,2.1a18.405,18.405,0,0,1-.524,1.986,7.366,7.366,0,0,1-.717,1.542,6.287,6.287,0,0,1-.717.978,2.247,2.247,0,0,1-.716.56,1.813,1.813,0,0,1-.606.223,1.637,1.637,0,0,1-.827-.086c-.191-.112-.494-.222-.605-.389a3.088,3.088,0,0,1-.356-.869,10.253,10.253,0,0,0-.3-.982c-.084-.252-.192-1.037-.274-1.287s-.11-.925-.219-1.26-.054-1.094-.137-1.457a10.822,10.822,0,0,1-.083-1.343A8.73,8.73,0,0,1,120.438,35.662Z" fill="#fff"/>
    <path d="M40.959,97.943l-.134.925.11.426.337.452.622.769.857.661.945.662.772.355s.978.3,1.067.325,1.037.186,1.037.186l.893.213s.895.157.981.189.952.154.952.154l.863.128.52.149.717.238-.82-12.284-.271-2.731-.219-.677-.224-.4s-.429-.289-.547-.264-.923-.016-.923-.016l-2.173.156-3.386.139-.726.07-.466.076-.235.278a1.636,1.636,0,0,0-.183.5c0,.167-.137,1.117-.11,1.231s-.011,2.218-.011,2.218Z" fill="#fff"/>
    <path d="M63.588,64.992l-.045,13.531.018,2.181v.547l.017.793a1.542,1.542,0,0,0,.068.273,1.038,1.038,0,0,0,.164.161s.216.281.288.281a3.574,3.574,0,0,1,.487.024c.092.024.613-.022.724,0s.414-.124.465-.1.309-.123.383-.167a1.364,1.364,0,0,0,.34-.281,2.147,2.147,0,0,0,.2-.345c.036-.1.074-.534.091-.611s.074-.757.074-.757l.089-.733.128-1.263.221-4.545.311-5.217.272-4.4.053-.632.056-.286.072-.1.18.023.218.159.431.309s1.1,1.059,1.156,1.1.576.612.629.674.541.612.541.612l.4.508s.309.263.31.348a2.716,2.716,0,0,0,.306.506,5.537,5.537,0,0,1,.324.612c.053.167.4.8.412.858s.292.977.343,1.038.4.838.43.92.4.979.4.979l.284.651.327.8s.216.611.253.69.253.778.271.879.178.588.213.694.235.694.235.694a3.583,3.583,0,0,0,.234.732,4.726,4.726,0,0,1,.306.529c.037.061.994,1.163.994,1.163l.758.692s.723.392.773.45.6.2.633.264a7.286,7.286,0,0,0,.791.246,6.46,6.46,0,0,0,.669.063c.092.02.6-.162.721-.141a2.348,2.348,0,0,0,.613-.225,2.513,2.513,0,0,0,.527-.429c.053-.081.271-.509.324-.61s.253-.589.291-.69.217-.695.271-.818a7.05,7.05,0,0,0,.2-.856c.019-.1.052-.672.072-.754a6.117,6.117,0,0,0-.052-.653l-.129-.485-.232-.759-.6-1.344L82.3,71.406,81.632,70.1,81,69.042l-.413-.656-1.3-2-.866-1.246-1.315-1.711-1.083-1.12-.9-.856-.758-.572-.519-.41-.329-.183-.212-.144-.181-.138a.444.444,0,0,1-.147-.288l.255-.263a2.608,2.608,0,0,1,.4-.287c.053,0,.576-.242.576-.242l1.791-1.284,1.118-.813.849-.756s.813-.814.846-.872.561-.818.635-.877.525-.857.6-.94a6.889,6.889,0,0,0,.432-.812c.021-.061.686-1.329.686-1.329l.493-1.077.287-.918.255-1.06.233-1.059.146-.916.147-.81.018-1.613.035-.756-.04-1.074-.177-1.924-.222-1.345-.157-.957-.307-1-.269-1-.375-.9-.488-.836-.522-.55-.83-.981-.812-.835-.917-.733-.977-.736s-1.083-.405-1.171-.406-.74-.29-.866-.29-1.607-.347-1.607-.347l-1.154-.163s-.811-.081-.868-.061-.681,0-.755.019a7.251,7.251,0,0,1-.761.1c-.123,0-.663.1-.811.121s-.847.183-.937.2-.652.226-.652.226a4.85,4.85,0,0,0-.632.286c-.052.06-.9.608-.9.608s-.342.265-.435.33a4.233,4.233,0,0,0-.432.343c-.055.062-.308.306-.362.39a2.2,2.2,0,0,0-.289.405c0,.063-.09.161-.128.306s-.124.367-.16.489a3.128,3.128,0,0,0-.13.428c-.014.143-.124.652-.124.772s-.057.7-.055.776-.02.735-.02.792-.036.918-.036.918l.033,2.386s-.076,8.356-.129,8.463.136,8.676.136,8.676Zm6-22.089c0-.121.057-.957.077-1.019s.112-.937.134-1.1.2-1.059.225-1.159.226-.8.226-.8.3-.734.357-.836.4-.65.436-.715.357-.383.357-.383a3.572,3.572,0,0,1,.34-.267c.057-.017.359-.244.434-.262s.378-.166.434-.165A3.763,3.763,0,0,0,73,36.1l.51.041.544.1.34.2.375.369.4.51.357.426.378.366.278.593.248.754.168.8.054,1.162.037,1.3-.075,1.63a11.337,11.337,0,0,1-.189,1.265c-.057.062-.149.9-.228,1.04s-.263,1.017-.339,1.182-.417,1.12-.488,1.262-.5,1.022-.588,1.16a6.668,6.668,0,0,1-.51.733,5.689,5.689,0,0,1-.566.534,1.911,1.911,0,0,1-.62.281,1.848,1.848,0,0,1-.659.061c-.189-.061-.32-.023-.434-.1a3.953,3.953,0,0,0-.433-.266,1.5,1.5,0,0,1-.356-.266,2.711,2.711,0,0,1-.3-.405c-.038-.061-.34-.47-.416-.591s-.227-.49-.3-.633a4.383,4.383,0,0,1-.28-.735c-.019-.124-.133-.672-.151-.752s-.115-.961-.115-.961.022-1.791,0-1.912-.073-1.267-.092-1.367S69.587,43.025,69.587,42.9Z" fill="#fff"/>
    <path d="M42.875,113.092l.743.334.827.333,1.265.346s.412.084.441.076,1.043.1,1.07.092.6.059.645.049.723-.056.723-.056.926-.073.967-.084.405-.074.405-.074l.49-.1s.435-.15.481-.159.522-.181.522-.181l.484-.189.87-.549.423-.326s.356-.3.424-.36.3-.342.377-.431.307-.395.329-.427.2-.312.249-.381a2.513,2.513,0,0,0,.138-.4s.076-.469.094-.517.079-.427.086-.465-.039-.62-.039-.62-.064-.524-.064-.589a4.013,4.013,0,0,0-.134-.431c-.011-.035-.164-.328-.183-.406a2.6,2.6,0,0,0-.233-.375c-.038-.053-.345-.319-.386-.367s-.432-.361-.454-.39-.559-.4-.559-.4l-.7-.437s-.4-.182-.454-.222a4.544,4.544,0,0,1-.471-.209,3.1,3.1,0,0,0-.512-.16c-.086-.027-.463-.075-.5-.086s-.5-.06-.5-.06l-.568-.044-.675-.063-.7-.028s-.782-.161-.808-.151-1-.162-1-.162l-1.128-.23s-1.178-.486-1.216-.506a3.8,3.8,0,0,1-.461-.218,3.9,3.9,0,0,0-.4-.239l-.374-.245a3.148,3.148,0,0,1-.385-.271c-.021-.034-.494-.358-.516-.4s-.49-.406-.49-.406l-.578-.563c-.181-.177-.354-.362-.519-.553-2.426-2.816-2.9-6.782-3.273-10.337-.446-4.258-.437-8.513-2.072-12.579a20.526,20.526,0,0,0-4-6.419c-.021-.031-.04-.064-.062-.095a16.692,16.692,0,0,0-2.932-3.37,7.939,7.939,0,0,0-1.882-1.182c-.816-.355-1.245-.468-.355-1.113.975-.707,2.055-1.19,2.982-1.995a29.042,29.042,0,0,0,4.78-5.828c2.741-4.043,5.044-7.934,5.519-12.866a27.618,27.618,0,0,0,.187-4.479,13.813,13.813,0,0,0-1.151-4.661c-.532-1.2-1.408-2.864-2.775-3.232a3.821,3.821,0,0,0-.924-.1,4.593,4.593,0,0,0-1.93.276,5.228,5.228,0,0,0-2.1,2.216,10.382,10.382,0,0,0-1.438,3.787l-.044.689L28.4,40.509l-.032,1-.057.917v.646l-.043.735-.041,1.076-.027.761-.061.672L28,47.171l-.116.846-.089.716-.2.947-.131.774s-.112.577-.125.621-.215.731-.215.731l-.2.576-.239.6-.213.546-.24.589-.466.736-.3.414-.41.617-.565.961-.465.66-.51.7-.519.631-.53.561.006.129.079.014v-.117l-.063-.2.063-.3V57.574s-.247-2.722-.226-2.779-.431-5.039-.431-5.039l-.424-7.834-.061-1.913-.135-3.066-3.967,4.025.133,7.457-.094,2.681-.03,1.539-.069,2.932.039,1.09.053,1.7.072,2.7.067,1.032L17.6,63.4l.12,1.076.33,2.554.186.91.124.968.113.915.064,1.017.025.872.038,1.664.128,3.676.01,1.3.036,1.866.006,3.169.018.891.046,1.07.243,3.841.063.785.1.583s.065.547.065.575.044.3.044.3l.123.385.114.278.15.246.225.275.238.149.411.234.509.112s.536.048.586.037.346-.036.375-.046.3-.078.3-.078l.365-.114.326-.2.3-.221.213-.239.124-.185.21-.592.041-.307.025-.352,0-.445-.034-.711-.076-.645-.079-.83-.07-1.73-.518-9.638.085-1.471.264-1.993v-.044c1-.52,3.735,2.61,4.582,3.724a12.775,12.775,0,0,1,2.478,6.03q.471,3.236.941,6.469.307,2.118.616,4.234a42.2,42.2,0,0,0,1.9,9.035c1.339,3.477,2.96,6.428,6.118,8.558l1.38.93Z" fill="#fff"/>
    <path d="M60.147,121.874l.015-12.27-.265-9.5s-.139-10.081-.138-10.193-.118-1.52-.118-1.52-.1-.7-.129-.87a2.069,2.069,0,0,0-.279-.541l-.431-.232s-.491-.065-.6-.093-.927.036-1.013.01-.869.123-.984.092-.73.3-.847.3-.439.327-.439.327l-.3.445-.22,1.038s.062,3.033.035,2.948-.075,5.809-.075,5.809l-.329,7.156.543.371.6.576.655.63.564.881.274.815.091,1.41-.252,1.257-.4,1.088-.716,1.2-1.119,1.045-1.547.79-1.254.538s-1.683.361-1.857.333-1.5-.027-1.7-.059-1.33-.109-1.474-.112-1.267-.247-1.413-.276-1.07-.018-1.07-.018l-1.529-.281-1.091-.414-.287-.087-.147.138-.039.5.042.843.276,2.367,1,5.606.84,4.79a10.694,10.694,0,0,1,.354,1.269,4.085,4.085,0,0,0,.422.793l.478.541,1.007.386,1.273.077s3.527-.077,3.529-.163,6.122-1.017,6.122-1.017,1.6-.473,1.719-.528,1.137-.46,1.137-.46l.7-.461s.353-.446.326-.559a2.941,2.941,0,0,1,.186-.672s.1-.615.1-.727-.044-.816-.044-.816Zm-6.193,1.312a7.44,7.44,0,0,1-.177.937c-.047.048-.137.67-.2.774s-.237.759-.3.877-.366.832-.432.941-.429.753-.508.861a5.982,5.982,0,0,1-.44.537,4.243,4.243,0,0,1-.487.389,1.633,1.633,0,0,1-.526.2,1.719,1.719,0,0,1-.556.037c-.162-.05-.273-.017-.367-.083a3.049,3.049,0,0,0-.366-.206,1.473,1.473,0,0,1-.3-.2,2.793,2.793,0,0,1-.25-.309c-.034-.047-.28-.357-.342-.45s-.188-.364-.245-.476a2.908,2.908,0,0,1-.231-.55c-.015-.095-.1-.507-.119-.567s-.082-.719-.082-.719.04-1.337.025-1.432-.048-.947-.06-1.025.043-.638.044-.728.061-.715.077-.763.11-.7.126-.82.188-.79.206-.864.2-.593.2-.593.265-.54.316-.619.343-.48.375-.527.308-.283.308-.283a2.315,2.315,0,0,1,.29-.191c.047-.018.3-.18.367-.2s.324-.115.369-.114.338-.072.338-.072l.429.042.461.085.283.157.314.275.327.387.3.326.312.282.231.449.2.566.135.594.033.873.014.974Z" fill="#fff"/>
    <path d="M119.633,118.6l-.165-2.175-.6-2.323-.5-1.7-.76-2.622-1.034-2.023-1.348-1.878-.74-1.006-.591-.58-.459-.491-.37,2.458-.119.915,1.408,2.8.65,1.423a7.591,7.591,0,0,1,.389,1.118c-.006.161.33,1.819.33,1.819l.21,1.271.094,1.521.066,1.423s.051,1.037.046,1.135-.114,4.922-.115,4.967a27.8,27.8,0,0,1-.566,5.859,35.192,35.192,0,0,1-2.817,8.688,14.151,14.151,0,0,1-2.724,3.886l-.117.058s2.465-1.068,4.852-2.332a35.807,35.807,0,0,0,3.807-2.287h0c-.507.332-1.585.177-1.753-.406s2.891-5.64,2.869-14.287l.144-2.188-.023-1.584Z" fill="#fff"/>
    <path d="M143.152,91.835l-.279-2.432-.911-3.525-.594-1.837-.987-1.549-1.232-1.118L137.5,80.089l-2.146-1.22-1.9-.854-1.793-.757-1.8-.529-1.408-.294s-1.8-.106-1.9-.068-1.548,0-1.8.064-1.618.258-1.974.293-1.866.526-2.146.589-1.444.556-1.831.723-1.8.955-2.076,1.115a7.922,7.922,0,0,0-1.3.954,6.212,6.212,0,0,0-.846,1.087,3.242,3.242,0,0,0-.5,1.218c-.105.591-.171,1.409-.21,1.874a12.3,12.3,0,0,0,.068,1.936c.072.53.176,1.287.248,1.879a9.824,9.824,0,0,0,.242,1.842c.214.791.318,1.413.49,1.973s.037.725.422,1.352.284.95.882,1.15.566.328,1.231-.1.635-.628,1.34-1.153,1.3-1.277,1.9-1.805,1.13-1.446,1.622-1.778.951-.852,1.549-1.181a13.591,13.591,0,0,1,1.621-.854c.213-.032,1.268-.458,1.373-.457a8.894,8.894,0,0,1,1.306-.1c.177.065.984-.031,1.2.068s1.9.132,2.078.2,1.759.591,1.864.692,1.091.593,1.409.823a12.128,12.128,0,0,1,1.2,1.25,6.779,6.779,0,0,1,.775,1.384,10.146,10.146,0,0,1,.453,1.611c0,.265.073,1.548.034,1.742s.071,2.27-.038,2.369-.563,1.514-.668,1.716-.74,1.312-.847,1.443a11.793,11.793,0,0,1-.985,1.284,5.439,5.439,0,0,1-1.16.918c-.426.16-1.095.425-1.375.493s-1.234.194-1.372.193-1.274-.061-1.551-.062-1.939-.268-1.939-.268-1.127-.3-1.266-.328-1.023-.335-1.235-.432-.947-.364-1.2-.46a4.944,4.944,0,0,0-1.089-.227,1.729,1.729,0,0,0-.846,0c-.208.092-.672.394-.811.455a3.09,3.09,0,0,0-.494.591,7.676,7.676,0,0,0-.21.793c-.036.23-.106.921-.143,1.153s.036.851,0,1.148.6,4.769.6,4.769.493,2.894.491,3.028.492,1.776.525,1.876a7.077,7.077,0,0,0,.671,1.051,1.718,1.718,0,0,0,.915.527c.456.069,1.264.2,1.831.233a11.961,11.961,0,0,0,1.972-.069c.456-.061,1.406-.323,1.937-.39a10.089,10.089,0,0,0,2.041-.556c.317-.166,1.445-.723,2.01-1.084s1.478-1.123,1.793-1.35a15.724,15.724,0,0,0,1.379-1.278c.209-.229.911-1.25,1.163-1.516s1.3-1.61,1.515-1.9.773-1.419.913-1.612,1.445-3.092,1.445-3.092l.918-2.305.53-1.839.46-2.072s.106-1.844.1-1.742.076-1.612.076-1.612Z" fill="#fff"/>
    <path d="M79.024,140.925l-.386-.814c-.03-.063-.063-.125-.1-.187l-.222-.389a2.955,2.955,0,0,0-.345-.48l-.177-.2-.394-.276-.362-.134a1.57,1.57,0,0,0-.41-.006c-.027.012-.1.037-.177.064a2.5,2.5,0,0,0-.624.314,2.247,2.247,0,0,0-.489.457l-.158.2a2.037,2.037,0,0,0-.171.256l-.274.488-.495.793a3.248,3.248,0,0,1-.235.33l-.244.3a3.573,3.573,0,0,1-.364.386l-.255.234c-.078.072-.161.142-.247.208l-.389.3a2.436,2.436,0,0,1-.288.191l-.265.15a2.617,2.617,0,0,1-.334.158c-.166.064-.4.158-.471.2a4.408,4.408,0,0,1-.783.105l-.7,0c-.133,0-.265-.007-.4-.02l-.653-.064-.39-.18-.257-.195a1.94,1.94,0,0,1-.255-.231l-.033-.036a2.869,2.869,0,0,1-.533-.82,1.734,1.734,0,0,1-.09-.281l-.086-.384c-.017-.077-.031-.154-.041-.232l-.057-.43c-.011-.085-.018-.17-.022-.256l-.041-1.184a2.636,2.636,0,0,1,.014-.387l.092-.845q.017-.147.048-.294l.325-1.486a2.971,2.971,0,0,1,.093-.328l.113-.326a3.115,3.115,0,0,1,.164-.382l.3-.584.324-.564c.033-.057.063-.114.092-.171l.158-.319a3.252,3.252,0,0,1,.348-.552l.073-.093a3.431,3.431,0,0,1,.345-.381l.355-.34s.572-.546.649-.578.871-.554.871-.554a3.636,3.636,0,0,1,.694-.267c.11.013.757-.1.838-.113.04,0,.252,0,.454,0a4.1,4.1,0,0,1,.761.083l.346.07.663.154.469.167.418.154s.3.043.439.077a3.92,3.92,0,0,0,.543-.032c.136.009.4-.214.5-.321a3.429,3.429,0,0,0,.522-.874l.488-1.224c.029-.073.056-.148.079-.223l.15-.49.182-.549a2.877,2.877,0,0,0,.088-.324l.161-.783.176-.75.148-.844.057-.389a2.668,2.668,0,0,0,.021-.6l-.049-.631a2.656,2.656,0,0,0-.052-.356l-.071-.327-.322-.356-.532-.312-.468-.075s-.645.093-.729.1c-.064.007-.78.19-1.065.264-.078.02-.154.042-.231.066l-1.009.321-.656.2a4.262,4.262,0,0,0-.65.256l-.564.277-1.374.664a4.08,4.08,0,0,0-.56.327l-.906.633a3.878,3.878,0,0,0-.373.3l-.76.685-.753.67c-.077.068-.151.139-.22.213l-.96,1.008-.918.934a3.422,3.422,0,0,0-.337.4l-.891,1.23c-.06.084-.117.17-.168.258l-.549.932-.538.911c-.04.068-.078.138-.113.208l-.34.69-.471.928-.35.737a3.058,3.058,0,0,0-.15.38l-.187.59c-.021.067-.04.135-.056.2l-.2.818a2.905,2.905,0,0,0-.066.411l-.066.8s-.056.959-.052,1.056.052.994.052.994l.052.61a2.679,2.679,0,0,0,.094.51c.081.281.205.707.226.771s.175.489.248.69c.027.075.057.147.091.22.09.195.272.582.314.631.059.067.388.642.446.733s.5.632.585.745.4.4.488.486a6.859,6.859,0,0,0,.651.423l1.165.6a3.723,3.723,0,0,0,.547.227l.764.25a3.991,3.991,0,0,0,.637.151l.647.1a4.194,4.194,0,0,0,.528.048l.824.023,1.156.02a4.333,4.333,0,0,0,.521-.022l1.167-.12a4.564,4.564,0,0,0,.6-.1l.9-.222a4.357,4.357,0,0,0,.651-.216l.592-.251s.8-.353.878-.384.572-.327.782-.452c.061-.036.117-.071.175-.11.2-.131.668-.445.732-.492s.413-.409.518-.468.226-.365.3-.42a2.216,2.216,0,0,0,.247-.491s.108-.525.132-.6.043-.736.064-.835-.146-.691-.123-.792A3.722,3.722,0,0,0,79.024,140.925Z" fill="#fff"/>
    <path d="M110.594,110.912c0-.079.44-1.176.474-1.251s.49-1.535.49-1.535l.208-1.24.291-1.7.142-2.125s.3-2.481.28-2.665.025-.962.025-.962.057-1.087.061-1.193.123-1.372.123-1.372-.071-1.434-.092-1.591-.032-1.147-.032-1.147l-.193-1.333-.348-1.3-.479-1.507-.7-1.729S110,86.455,110,86.347a10.8,10.8,0,0,0-.644-1.147l-.742-1.005-.967-1.14-1.234-1.1-.816-.771s-1.076-.679-1.162-.708a12.785,12.785,0,0,1-1.207-.53,10.387,10.387,0,0,0-1.1-.317,10.876,10.876,0,0,0-1.288-.067c-.088,0-1.241.147-1.328.167s-1.13.3-1.222.329-1.22.38-1.309.376a10.745,10.745,0,0,0-1.086.619s-.7.485-.789.508-2.229,1.755-2.323,1.829-1.019,1.016-1.051,1.093-1.126,1.32-1.157,1.4-1.14,1.605-1.14,1.605-1.158,1.971-1.177,1.889-1.235,2.8-1.235,2.8-.962,2.786-1,2.966-.445,1.827-.477,1.926-.316,1.547-.323,1.651-.132,1.473-.132,1.473l0,1.7.138,1.874.282,1.917.076,1.383.29,1.234.366,1.4.7,1.779.622,1.62,1.061,1.614.788,1.263,1.034,1.016,1.69,1.358,1.456.754s1.24.4,1.359.405a6.664,6.664,0,0,0,1.019.1c.092-.047,1.376.125,1.525.051s1.472-.131,1.565-.207,1.336-.3,1.428-.365,1.348-.556,1.348-.556l1.54-.86-.79-.091-1.044-.213L100.484,117l-.985-.284-1.182-.4-1.022-.651-1.226-1.234s-.92-.955-.973-1.064-.349-.62-.433-.751a7.473,7.473,0,0,1-.282-.747,7.34,7.34,0,0,1-.168-.756c.007-.105-.237-1.73-.256-1.859s-.012-.964-.006-1.069.116-1.113.121-1.216.231-1.056.237-1.186a9.181,9.181,0,0,1,.311-.921l.339-.892.568-.8.686-.8s.056-.542.062-.648.033-.621.037-.727.139-.927.174-1.031.166-.981.166-.981.187-1.341.222-1.467.221-.926.229-1.055a5.914,5.914,0,0,1,.556-1.091c.093-.125.574-.908.7-1.005s.628-.824.719-.873.67-.459.849-.53,1.737-.715,1.856-.71a9.007,9.007,0,0,0,.89-.191l.879.045a9.435,9.435,0,0,0,1.1.316c.088-.019.51.366.51.366l.793.532.523.654.461.7.335.929.188.918.318,1.839.01,1.561-.06,1.141-.105,1.452-.206,1.158-.378,1.643-.336,1.419-.411,1.176-.561,1.216-.821,1.132s-.908.552-1.121.7a3.724,3.724,0,0,1-1.026.52,5.429,5.429,0,0,1-.834.268,2.687,2.687,0,0,1-.991-.1,2.758,2.758,0,0,1-.822-.536,2.561,2.561,0,0,1-.725-.8,2.829,2.829,0,0,1-.324-.56c-.019-.133-.256-.744-.3-1.006a4.05,4.05,0,0,1-.035-1.041,7.639,7.639,0,0,1,.3-1.181c.1-.258.462-1.019.591-1.248s.661-.873.849-1.1.738-.661.8-.737a10.7,10.7,0,0,1,.887-.708c.152-.1.9-.424,1.08-.491s.95-.187,1.039-.235a8.477,8.477,0,0,1,1.059-.023l.994.128-.093-1.67-.074-.288-1.053-.029-.911.031-1.064.181-1.281.325s-.987.364-1.137.41-1.052.545-1.052.545l-1.007.754-.981.808s-.666.982-.759,1.055a7.853,7.853,0,0,0-.507.753l-.438,1.1s-.243,1.262-.249,1.392-.116,1.166-.116,1.166l.126,1.022.381,1.135.641,1.232.564,1.016.8.926.811.769,1.377.643,1.584.6,1.161.188,1.121-.071a5.973,5.973,0,0,0,.979-.214,8.876,8.876,0,0,1,.983-.31,7.571,7.571,0,0,0,.967-.548,9.1,9.1,0,0,1,.823-.608c.093-.074,1.077-.939,1.077-.939a7.211,7.211,0,0,0,.537-.776,7.876,7.876,0,0,1,.542-.8S110.588,110.987,110.594,110.912Z" fill="#fff"/>
    <path d="M103.548,138.806a2.627,2.627,0,0,0-.122-.428c-.076-.2-.114-.3-.174-.438a3.393,3.393,0,0,0-.33-.457,2.874,2.874,0,0,0-.36-.349,2.117,2.117,0,0,0-.415-.28,2.681,2.681,0,0,0-.4-.2c-.15-.077-.219-.092-.382-.161a1.406,1.406,0,0,0-.4-.07,1.854,1.854,0,0,0-.322,0,1.9,1.9,0,0,1-.271.046,1.071,1.071,0,0,0-.209.05c-.037,0-.136.058-.2.078a2.291,2.291,0,0,0-.267.134c-.047.026-.156.117-.181.124a1.2,1.2,0,0,0-.183.186l-.155.224-.156.337-.135.651s-.026.591-.014.646c0,0,.023.427.029.454s.113.643.113.643.175.543.209.609.226.4.3.514a2.64,2.64,0,0,0,.341.352c.08.07.256.246.389.348a1.942,1.942,0,0,0,.53.277,2.468,2.468,0,0,0,.515.095,1.632,1.632,0,0,0,.47-.056,2.008,2.008,0,0,0,.457-.133.93.93,0,0,0,.37-.252,2.335,2.335,0,0,1,.247-.206,1.823,1.823,0,0,0,.263-.369,4,4,0,0,0,.194-.428c.026-.068.187-.539.218-.572a4.431,4.431,0,0,0,.078-.891C103.578,139.163,103.581,138.955,103.548,138.806Z" fill="#fff"/>
    <path d="M80.8,115.545c.028-.129.118-1.916.118-1.916l.723-8.6.145-3.895.695-7.708.809-5.839.059-1.153.056-.893-.144-.617s-.34-.56-.458-.56a4.033,4.033,0,0,1-.657-.26,3.56,3.56,0,0,0-.832-.1,7.177,7.177,0,0,1-1,.026l-7.143.478-8,.53s-1.06.153-1.144.178-.891.127-1.035.181-.833.256-.948.281a3.656,3.656,0,0,0-.659.28,1.212,1.212,0,0,0-.432.459c0,.081-.086.567-.086.795s.142,2.051.171,2.332.2.665.229.872a.577.577,0,0,0,.228.512,1.1,1.1,0,0,0,.8.306,6.9,6.9,0,0,0,1.032-.1c.344-.024.948-.231,1.321-.283a12.464,12.464,0,0,0,1.607-.325c.142-.081,3.987-.794,3.987-.794s1.146-.257,1.232-.231.919-.176,1.059-.176.746-.1.891-.105a6.3,6.3,0,0,1,.658-.024c.116.026.517.078.545.152s.23.284.229.364a5.665,5.665,0,0,1,.144.609c0,.182.112.747.112.924s.059,1.255.059,1.435.027,1.232.055,1.436.115,1.328.142,1.511.424,8.493.424,8.493.408,8.867.422,9.163c.081,1.768-.022,3.517.162,5.265a1.722,1.722,0,0,0,.586,1.2,1.991,1.991,0,0,0,1.381.237l.985-.073a1.42,1.42,0,0,0,.706-.179c.609-.409.681-1.645.68-2.35C80.715,117.261,80.775,115.673,80.8,115.545Z" fill="#fff"/>
    <path d="M97.7,131.214a20.807,20.807,0,0,0-.549-3.07,4.542,4.542,0,0,1-.173-.58l-.928-2.456-.45-.924a3.792,3.792,0,0,0-.949-1.394l-.112-.143a5.315,5.315,0,0,0-.79-.729c-.1-.015-.553-.363-.744-.455a8.244,8.244,0,0,0-1.059-.454c-.247-.058-.766-.186-.9-.192s-.434-.211-.67-.17a6.568,6.568,0,0,1-.854.02,5.369,5.369,0,0,0-1.339.065,4.283,4.283,0,0,0-1.394.5,15.449,15.449,0,0,0-1.283.9,8.638,8.638,0,0,0-1.316,1.074c-.458.524-.847.646-1.328,1.442a11.68,11.68,0,0,0-1.075,1.721,15.316,15.316,0,0,0-.9,2.182c-.131.624-.2,1.089-.341,2.018a13.043,13.043,0,0,0-.159,1.95c-.021.675.128,1.59.138,2.157a24.2,24.2,0,0,0,.881,3.891c.134.127,1.033,2.125,1.177,2.413a19.606,19.606,0,0,0,.989,1.792,8.509,8.509,0,0,0,1.206,1.492,9.351,9.351,0,0,1,1.035.786,3.538,3.538,0,0,0,1.514.925,6.4,6.4,0,0,0,1.752.355,5.021,5.021,0,0,0,1.75.011,7.566,7.566,0,0,0,1.813-.676,6.619,6.619,0,0,0,1.743-1.49c.416-.514.94-1.381,1.185-1.73s.8-1.325,1.006-1.724a22.675,22.675,0,0,0,.9-2.182c.055-.214.2-1.573.283-2.371a4.477,4.477,0,0,0-.027-1.145,8.359,8.359,0,0,1,.1-1.944C97.839,132.965,97.7,131.214,97.7,131.214Zm-5.017,2.255c-.112.475-.2.964-.32,1.342a6,6,0,0,1-.8,1.448,1.713,1.713,0,0,1-1.082.688c-.472.082-.426-.052-1.238-.509s-.786-.851-1.081-1.526a3.318,3.318,0,0,1-.338-1.474c-.086-.79-.156-2.01-.149-2.662a10.481,10.481,0,0,1,.746-2.629,3.9,3.9,0,0,1,1.119-1.389c.212-.177.842-.057,1.222.128a4.7,4.7,0,0,1,1.032.908,5.337,5.337,0,0,1,.726,1.415l.3.957a8.216,8.216,0,0,1,.067.937c-.021.208.02.664.022,1.009A6.871,6.871,0,0,1,92.685,133.469Z" fill="#fff"/>
  </g>
</svg>
