<svg xmlns="http://www.w3.org/2000/svg" width="704" height="160" viewBox="0 0 704 160">
  <title>logo-type-thursday</title>
  <g>
    <path d="M609.01,144.485c-.641-3.139.226-14.773,1.258-18,6.115,1.323,12.16,3.106,18.328,3.83a110.005,110.005,0,0,0,19.383.52c5.348-.323,8.53-2.9,8.727-9.624-11.329,5.643-23.135,4.408-34.939,2.693a17.538,17.538,0,0,1-5.6-1.973c-4.557-2.438-7.354-6.083-7.307-11.539.059-6.811.014-13.621.014-20.357,3.8-.907,25.6-1.138,33.943-.382.051,1.688.149,3.457.149,5.227,0,3.828-.169,7.66-.053,11.484.112,3.708,1.921,5.353,5.649,5.539,5.058.253,8.2-2.6,8.293-7.693.085-4.8.018-9.6.018-14.6,1.362-.128,2.321-.3,3.28-.3,9.158-.019,18.315-.041,27.472.02A29.65,29.65,0,0,1,692,90v42c0,3-1.223,9.973-11.87,13.293C656.268,152.729,622.743,148.012,609.01,144.485Z"/>
    <path d="M82,9V33H66.916c-.687,10.107.15,19.94-.214,30H26V33.636c-4.722-.962-9.38-.278-14-.343V9Z"/>
    <path d="M88.51,70.3c.386-5.307.74-10.42,1.152-15.528a17.5,17.5,0,0,1,.678-2.662,91.06,91.06,0,0,0,28.588,5.5,39.728,39.728,0,0,0,4.768-.133c10.032-.845,12.4-2.046,13.072-10.255-8.825,5.208-18.433,4.8-28.006,4.014a44.366,44.366,0,0,1-10.626-2.391C91.781,46.661,89.081,42.72,89,36.126c-.077-6.621-.017-13.244-.017-20.126H123v7.333c0,3.163-.113,6.33.028,9.487.149,3.353,1.639,4.77,4.939,5.036a15.973,15.973,0,0,0,2.494,0c4.339-.334,6.542-2.631,6.626-7.134.09-4.8.021-9.6.021-14.363,3.841-.77,26.742-.976,34.7-.314.059,1.228.166,2.5.173,3.777.055,10.653.16,21.306.086,31.957a44.33,44.33,0,0,1-.981,8.367c-1.113,5.535-4.777,9.011-9.823,11.074a53.059,53.059,0,0,1-16.5,3.419c-4.467.315-8.947.84-13.409.735-13.774-.325-27.541-.918-40.979-4.425C89.759,70.785,89.168,70.532,88.51,70.3Z"/>
    <path d="M218,54.321V73.254c-3.415.814-30.4.942-36,.1V16h36.124c-.092,2.044-.184,4.1-.306,6.777,3.744-2.881,7.125-5.3,11.3-6.418a48.083,48.083,0,0,1,24.028-.424c8.985,2.165,14.694,9.251,15.281,18.589a64.846,64.846,0,0,1,0,9.474c-1.045,12.46-6.732,17.563-17.053,19.375a50.486,50.486,0,0,1-18.751-.356,20.686,20.686,0,0,1-12.6-7.288A10.85,10.85,0,0,0,218.6,54.4C218.508,54.318,218.31,54.356,218,54.321Zm-.082-10.349c3.817,1.717,7.615,1.128,11.355.911a7.668,7.668,0,0,0,2.8-.92,6.543,6.543,0,0,0,3.718-6.916,5.888,5.888,0,0,0-5.362-5.069,19.869,19.869,0,0,0-5.919.012,7.582,7.582,0,0,0-6.541,6.559A31.631,31.631,0,0,0,217.918,43.972Z"/>
    <path d="M513,80v56H476v-8.978a6.836,6.836,0,0,1-1.594,2.835,18.015,18.015,0,0,1-8.962,6.044,46.309,46.309,0,0,1-24.6.787c-7.141-1.7-12.082-5.972-13.959-13.372a39.1,39.1,0,0,1-.4-17.791c1.763-8.332,7.045-13.606,15.472-15.772,7.592-1.951,15.078-1.549,22.636.04,4.507.947,12.409,6.1,12.409,6.1V80Zm-35.69,25.542a32.527,32.527,0,0,0-11.9-.4,9.293,9.293,0,0,0-4.7,2.525c-2.493,2.376-2.1,6.658.5,8.9,4.471,3.854,13.866,1.465,15.518-4.121C477.353,110.327,477.132,107.959,477.31,105.542Z"/>
    <path d="M89,135.951V80h36v20.533c5.154-8.434,12.726-11.412,21.872-12.084a43.01,43.01,0,0,1,17.08,1.841c6.57,2.194,10.11,7.167,10.386,13.738.444,10.546.119,21.124.119,31.972H138.6c0-2.115-.01-4.2,0-6.293.024-4.137.156-8.275.062-12.409-.084-3.683-1.368-5.354-4.111-5.892-4.163-.816-7.571.445-8.884,3.593a13.434,13.434,0,0,0-.894,4.791c-.107,5.281-.04,10.564-.04,15.789C120.971,136.456,97.481,136.692,89,135.951Z"/>
    <path d="M234,89h37v47H234.664c-.838-3.24.153-6.7-.432-10.581a10.889,10.889,0,0,0-1.467,1.392c-3.559,5.291-8.877,7.986-14.852,9.32a44.363,44.363,0,0,1-18.875.23c-10.336-2.149-14.376-9.707-14.088-16.659.246-5.951.05-11.92.05-17.881V89h35.291c.138,1.584.4,2.544.372,3.5-.139,5.149-.476,10.294-.5,15.442-.02,5.065,1.912,7.139,6.2,7.184,4.884.051,7.53-2.276,7.714-7.154.169-4.494.041-9-.082-13.5Z"/>
    <path d="M352.717,46.276c.526,4.865,1.007,9.3,1.508,13.922-4.658,1.944-9.5,2.006-14.18,2.6-12.078,1.544-24.235,1.541-36.393,1.206A49.2,49.2,0,0,1,287.6,60.774c-8.5-3.2-12.836-9.636-13.571-18.57a62.6,62.6,0,0,1-.057-6.485c.172-8,4.17-13.461,11.328-16.712,13.145-5.972,49.638-5.172,60.482-.945,7,2.729,10.153,8.961,8.015,16.133a10.407,10.407,0,0,1-6.724,6.878c-11.95,4.52-24.61,2.059-39.238,2.059,1.95,5.5,4.354,7.193,27.7,5.6C341.148,48.353,346.7,47.17,352.717,46.276Zm-44.73-11.341c3.867,0,7.324.05,10.777-.034a11.435,11.435,0,0,0,2.882-.69,3.392,3.392,0,0,0,2.584-3.766,3.428,3.428,0,0,0-3.116-3.374,27.425,27.425,0,0,0-5.957-.274C310.486,27.1,308.839,28.88,307.987,34.935Z"/>
    <path d="M523,109.105V91.724c2.977-.494,5.882-1.135,8.822-1.433,11.575-1.171,23.153-2.64,34.813-2.089a139.965,139.965,0,0,1,15.293,1.921,23.933,23.933,0,0,1,5.645,1.89c7.108,3.091,10.771,8.579,11.034,16.317.063,1.83-.028,3.666.016,5.5.182,7.463-.693,14.976,1.307,22.715-1.522.125-2.788.313-4.056.318q-11.246.043-22.491.011c-5.723-.012-6.2-.471-6.66-6.091a13.02,13.02,0,0,0-.426-1.724c-5.5,6.268-12.645,7.686-20.338,8.16a54.1,54.1,0,0,1-16.232-1.179,17.951,17.951,0,0,1-3.271-1.174c-8.443-3.884-7.055-15.883-1.591-19.178a32.119,32.119,0,0,1,8.114-3.644c10.6-2.835,21.412-2.368,32.594-1.744.03-.665.412-1.765.032-2.42a6.047,6.047,0,0,0-2.705-2.718,20.12,20.12,0,0,0-6.318-1.11,109.8,109.8,0,0,0-30.949,4.488C524.868,108.752,524.079,108.875,523,109.105Zm43.087,9.292c-4.528-1.919-8.927-1.5-13.271-.225a3.408,3.408,0,0,0-2.757,3.666,3.25,3.25,0,0,0,3,2.892c3.453.553,6.954.72,10.15-1.19C565,122.473,566.438,121.161,566.087,118.4Z"/>
    <path d="M342,133.513V120.119c5.818,1.534,11.169,3.29,16.656,4.3,5.531,1.015,11.2,1.311,16.807,1.86a16.392,16.392,0,0,0,2.982-.178c1.608-.139,3.056-.656,3.173-2.511.123-1.938-1.352-2.481-2.931-2.706-2.293-.327-4.587-.677-6.894-.882-6.611-.59-13.239-1.048-19.659-2.914-1.112-.323-2.218-.672-3.305-1.07-4.916-1.8-7.6-5.49-7.727-10.561-.12-4.864,1.732-9.031,6.169-11.758,4.514-2.772,9.528-3.938,14.637-4.543,22.724-2.686,48.057,1.219,56.378,3.132-.281,4.618-.539,8.876-.8,13.2-11.036-3.471-21.951-6.162-33.389-5.777-1.96.065-4.1-.223-5.253,2.311.484,2.308,2.384,2.772,4.439,2.96,21.638,1.975,40.861,1.932,35.868,21.521C414.868,143.289,359.948,138.04,342,133.513Z"/>
    <path d="M336.777,89.616c-.362,8.378-.725,16.766-1.1,25.521-1.673-.166-3.129-.208-4.545-.467-7.188-1.314-11.595,2.124-11.855,9.466-.14,3.981-.025,7.971-.025,11.961-3.27.968-32.287,1.2-38.248.262V90.188c3.02-1.1,23.529-1.383,29.912-.293-.232,3.143-.47,6.354-.744,10.075C317.9,88.6,323.532,87.7,336.777,89.616Z"/>
  </g>
  <path d="M82,82v24H66.916c-.687,10.107.15,19.94-.214,30H26V106.636c-4.722-.962-9.38-.278-14-.343V82Z"/>
</svg>
