<svg xmlns="http://www.w3.org/2000/svg" width="608" height="128" viewBox="0 0 608 128">
  <title>logo-horizontal-tj-2018</title>
  <g>
    <path d="M63.348,34.2c-1.018-3.727,1.845-7.647,1.009-11.418-.793-3.576-4.8-5.695-8.456-5.557S48.886,19.2,45.752,21.1s-6.314,3.935-9.925,4.543a53.7,53.7,0,0,0-5.684.749,17.917,17.917,0,0,0-4.931,2.583l-7.626,5.069a16.334,16.334,0,0,0-4.709,4.088,13.78,13.78,0,0,0-1.891,5.223,24.977,24.977,0,0,0,.167,11.781,13.527,13.527,0,0,0,7.408,8.8c3.669,1.5,8.369.64,10.777-2.511.64.015,1.607.27,2.247.285,1.262,1.479-.265,3.594-1.242,5.275A18.229,18.229,0,0,0,28.5,73.472L26.514,86.381c-.473,3.081-.9,6.439.658,9.139,1.408,2.439,4.106,3.763,6.319,5.505,3.551,2.795,5.992,6.833,9.643,9.5,4.86,3.546,11.188,4.209,17.192,4.6,3.049.2,11.157.355,14.119-.395a10.472,10.472,0,0,0,7.091-5.322c.6-1.3.837-2.745,1.425-4.052a6.6,6.6,0,0,1,6.3-4.041c2.651.257,4.925,3.068,4.159,5.618a32.128,32.128,0,0,0-1.433,10.5c.2,4.971,5.7,8.985,10.489,7.658,2.474-.684,4.55-2.491,7.064-3.009,4.766-.983,4.122,2.845,8.9,3.761,5.38,1.032,10.72-1.7,16.173-2.215,3.386-.322,7.077.148,9.938-1.69,3.485-2.237,4.263-6.873,6-10.631.68-1.469,1.74-2.991,3.337-3.255,2.6-.43,4.42,2.819,4.078,5.43s-1.924,4.908-2.476,7.483a3.013,3.013,0,0,0,.065,1.875,3.2,3.2,0,0,0,2.611,1.465,14.307,14.307,0,0,0,6.483-.559,15.8,15.8,0,0,1,3.856-1.1,33.307,33.307,0,0,1,8.717,1.263,42.289,42.289,0,0,0,5.268,2.047c4.622,1.351,9.945,1.087,13.833-1.754s5.726-8.611,3.277-12.757c-1.8-3.048-5.29-4.591-7.988-6.884s-4.61-6.569-2.3-9.249a2.925,2.925,0,0,1,2.018-1.084c2.025-.083,3.032,2.319,4.007,4.1,1.9,3.461,5.552,5.687,9.359,6.734s7.812,1.061,11.761,1.067a38.235,38.235,0,0,0,10.507-.957c3.4-.962,6.639-3.027,8.212-6.186,1-2,1.46-4.552,3.435-5.6,2.727-1.448,5.792,1.107,7.82,3.434,5.3,6.083,17.253,12.025,25.317,11.758,2.494-.082,5-.621,7.467-.254a25.594,25.594,0,0,1,6.143,2.165,43.919,43.919,0,0,0,17.135,3.326c3.81.065,9.127,1.694,12.108-1.685,1.216-1.379,1.689-3.305,2.958-4.634,1.019-1.066,2.5-1.69,3.27-2.946a6.907,6.907,0,0,0,.647-3.818l-.267-11.588a7.911,7.911,0,0,0-.479-3.063c-1.306-2.931-5.31-3.157-8.511-2.933l-6.767.475c-6.416.449-12.837.9-19.269.909-4.207.006-12.988-.745-14.261-6.122-.542-2.286,2.853-3.2,5.2-3L298.2,77.223c7.915.681,17.2.819,22.21-5.346,4.433-5.454,3.415-13.368,2.163-20.284-.619-3.417-1.028-6.583-2.389-9.83a33.578,33.578,0,0,0-4.569-8.5c-2.045-2.5-5.007-4.442-8.236-4.5-1.779-.031-3.606.5-5.311-.012-2.617-.786-3.944-3.663-6.117-5.321-2.554-1.949-6.019-2.046-9.232-2.062l-11-.053c-3.579-.017-7.266-.014-10.58,1.338a19.473,19.473,0,0,0-5.671,3.782C257.5,28.232,245.842,41.465,243.279,40.4a3.261,3.261,0,0,1-1.235-1.177,29.392,29.392,0,0,0-43.773-3.737c-3.459,3.281-6.462,7.61-11.111,8.664-2.081-3.556,1.773-7.758,1.787-11.878.016-4.874-5.453-8.1-10.326-8.165s-13.538,1.912-18.38,2.464c-4.305.492-8.651-.151-12.984-.163s-8.916.718-12.238,3.5-4.78,8.11-2.183,11.579c.9,1.2,2.17,2.071,3.1,3.248,2.284,2.905,1.961,7.341-.231,10.315a13.093,13.093,0,0,1-9.587,4.855c-2.957.227-6.184-.435-8.174-2.634-3.239-3.577-1.844-9.25.172-13.634s4.53-9.225,2.934-13.779c-2.343-6.686-11.282-7.585-18.36-7.3-4.1.164-8.278.342-12.148,1.716-3.538,1.257-7.151,4.778-5.73,8.254a7.763,7.763,0,0,1,.851,2.13c.141,1.568-1.623,2.738-3.2,2.68s-2.984-.915-4.414-1.573C74.025,33.91,67.59,32.929,63.348,34.2Z"/>
    <path d="M70.747,65.617a14.34,14.34,0,0,1-3.954-2.043,23.948,23.948,0,0,0-2.213-1.912,2.533,2.533,0,0,0-2.752-.164c-.982,1.748.393,3.81.97,5.731.706,2.353.164,4.87-.1,7.313s-.131,5.183,1.568,6.958c1.863,1.946,4.9,2.032,7.589,1.9a8.9,8.9,0,0,0,2.556-.385,45.546,45.546,0,0,1,6.093-1.853c1.643-.364,3.53-1.7,4.951-2.606,3.6-2.28-.605-7.774-2.956-9.284C79.223,67.166,74.374,67.037,70.747,65.617Z" fill="#fff"/>
    <path d="M92.958,84.88a5.948,5.948,0,0,0,1.254,7.867c2.31,1.569,5.323.759,7.938,1.548a18.356,18.356,0,0,1,3.634,1.833c8.221,4.687,19.234,4.585,25.879-2.531a8.961,8.961,0,0,0,2.7-5.488c.105-2.129-1.273-4.435-3.2-4.532-1.872-.094-3.292,1.716-4.826,2.907-4.055,3.149-9.55,2.118-14.392.956a74.951,74.951,0,0,1-10.97-3.2C98.334,83.164,95.1,81.888,92.958,84.88Z" fill="#fff"/>
    <path d="M191.906,69.287c-.055,1.69-.039,3.575,1.124,4.8a4.935,4.935,0,0,0,4.241,1.13c1.507-.194,2.957-.73,4.469-.884,2.764-.281,5.506.729,8.284.712a11.279,11.279,0,1,0-4.773-21.539c-2.094.955-3.963,2.736-6.217,3.309-1.732.441-4.461-.773-5.846.187C190.855,58.621,191.984,66.9,191.906,69.287Z" fill="#fff"/>
    <path d="M272.111,56.427a5.781,5.781,0,0,1,3.79-3.475c.6-.139,1.221-.154,1.8-.344a9.18,9.18,0,0,0,2.415-1.562,10.374,10.374,0,0,1,12.995.979,7.456,7.456,0,0,1,2.261,4.306,4.935,4.935,0,0,1-1.687,4.432,6.784,6.784,0,0,1-5.248.9,27.955,27.955,0,0,0-5.413-.774,23.923,23.923,0,0,0-5.554,1.385C272.619,63.674,270.014,61.341,272.111,56.427Z" fill="#fff"/>
    <path d="M362.213,44.5a3.832,3.832,0,0,0,3.721-3.765c-2.045-1.323-4.7-1.221-6.946-2.157a15.94,15.94,0,0,1-3.7-2.431,24.825,24.825,0,0,1-5.721-5.7c-1.456-2.278-2.119-5.243-1.029-7.718.421-.956,1.075-1.788,1.588-2.7a38.289,38.289,0,0,0,1.9-4.677c3.418-8.547,13.491-14.32,22.289-11.612,1.95.6,3.779,1.563,5.752,2.085,2.889.763,6.084.588,8.666,2.092,4.661,2.713,5,9.3,4.053,14.606a24.506,24.506,0,0,1-3.021,8.8,11.313,11.313,0,0,1-7.352,5.348c-1.588.273-3.469.218-4.468,1.484-1.109,1.4-.253,3.634,1.262,4.586s3.411.987,5.2.991c3.366.008,7.2-.028,8.375-3.416,1.086-3.124-.25-6.251,2.773-8.826a12.208,12.208,0,0,0,2.013-1.7,12.355,12.355,0,0,0,1.177-2.814c1.133-2.686,4.146-4.188,7.055-4.375,7.155-.459,13.694,3.769,20.726,3.957,2.7.072,5.419-.6,8.093-.193,6.4.965,10.26,7.455,12.948,13.345a10.873,10.873,0,0,0,2.733,4.175c1.31,1.052,3.395,1.349,4.608.186,1.717-1.646.523-4.527-.875-6.452s-3-4.419-1.791-6.471a5.849,5.849,0,0,1,2.009-1.793c2.715-1.751,5.745-3.577,8.944-3.125,1.188.168,2.312.647,3.5.84,3.568.581,11.247-1.477,14.753-.594a8.324,8.324,0,0,1,5.513,5.473,15.532,15.532,0,0,1,.255,8,12.607,12.607,0,0,0-.441,4.589c.275,1.522,1.523,3.013,3.068,2.933s2.588-1.593,3.162-3.027c1.135-2.834,1.407-5.941,2.384-8.834s2.963-5.76,5.94-6.436c6.288-1.428,12.6-3.492,19.042-3.253s13.442,4.02,14.556,10.372c.321,1.836.133,3.765.729,5.531s2.431,3.366,4.2,2.769c2.613-.884,1.947-4.65,2.078-7.405.186-3.893,3.019-7.167,6.15-9.489a25.459,25.459,0,0,1,17.081-5.227c6.136.534,11.749,3.679,16.686,7.36a18.079,18.079,0,0,1,4.062,3.834c1.685,2.364,2.286,5.31,2.812,8.165q3.128,16.971,4.617,34.19a39.289,39.289,0,0,1-.08,10.448c-.624,3.413-2.106,6.7-2.064,10.171.031,2.534.878,4.989,1.092,7.514s-.4,5.4-2.53,6.775a9.645,9.645,0,0,1-4.877,1.067,117.775,117.775,0,0,0-19.029,2.455c-2.921.623-6.286,1.265-8.637-.577-2.05-1.606-2.5-4.585-2.028-7.146s1.676-4.928,2.351-7.443a17.361,17.361,0,0,0,.184-8.4c-.447-1.923-1.243-3.753-1.658-5.683-.764-3.555-.2-7.239.07-10.865s.2-7.478-1.647-10.609-6.012-5.153-9.26-3.516c-3.511,1.77-4.161,6.609-3.2,10.423s3.036,7.361,3.326,11.283c.5,6.839-4.522,13.338-3.434,20.108.642,4,3.225,8.572.568,11.625-1.578,1.813-4.357,2-6.7,1.476s-4.573-1.6-6.967-1.822c-3.676-.348-7.192,1.331-10.713,2.441s-7.761,1.532-10.554-.884c-3.6-3.112-2.711-8.776-1.923-13.469A80.7,80.7,0,0,0,504.574,69.6a14.729,14.729,0,0,0-2.046-5.247,7.827,7.827,0,0,0-6.823-3.268,7.135,7.135,0,0,0-6.026,4.453c-1.665,4.45,1.639,9.075,2.574,13.733,1.423,7.094-2.77,14.155-2.7,21.39.032,3.5.828,7.653-1.809,9.952-3.235,2.819-12.229.051-16.5.512-2.49.269-4.713,1.675-7.155,2.232-6.416,1.463-12.893-3.092-19.43-2.33-2.028.237-4.3.926-5.95-.279-1.262-.924-1.626-2.626-1.82-4.178a48.424,48.424,0,0,1-.1-11.165,5.7,5.7,0,0,0-5.622,1.964,16.786,16.786,0,0,0-2.9,5.53c-1.675,4.472-5.595,6.425-10.135,7.9-4.739,1.544-9.57,3.1-14.554,3.156-4.506.048-8.924-1.139-13.274-2.317a14.812,14.812,0,0,1-4.457-1.743c-2.67-1.787-4.505-5.416-7.718-5.359a7.719,7.719,0,0,0-3.943,1.649l-6.249,4.133c-3.229,2.135-6.961,4.369-10.724,3.459-1.58-.382-3-1.3-4.583-1.648-3.052-.67-6.1.837-9.093,1.722s-6.874.839-8.509-1.824c-2.195-3.577,1.6-8.343.208-12.3-.951-2.706-4.233-4.811-3.5-7.584.256-.968.987-1.749,1.284-2.7.708-2.281-1.208-4.866-.233-7.046.775-1.733,3.048-2.275,4.91-1.911s3.532,1.38,5.353,1.914a21.435,21.435,0,0,0,7.449.379,3.095,3.095,0,0,0,3.6-3.025c1.465-6.786,2.813-14.357-.81-20.279a31.125,31.125,0,0,1-2.272-3.659,7.451,7.451,0,0,1,1.355-7.865C354.292,45.891,359.4,44.466,362.213,44.5Z"/>
    <path d="M389.427,64.7a2.674,2.674,0,0,0,3.027.414,27.9,27.9,0,0,0,2.783-1.7c2.377-1.339,5.27-1.229,7.993-1.082L426.771,63.6a4.285,4.285,0,0,0,2.063-.227,2.943,2.943,0,0,0,1.253-3.47,8.589,8.589,0,0,0-2.218-3.3l-3.742-4.033a17.425,17.425,0,0,0-4.022-3.525c-4.121-2.321-9.431-.894-13.353,1.75-1.9,1.28-3.689,2.859-5.909,3.423-2.885.733-8.032-1.023-9.933,1.8C390.02,57.334,388.5,63.623,389.427,64.7Z" fill="#fff"/>
    <path d="M424.468,85.914a7.342,7.342,0,0,1-6.76,2.387,5.08,5.08,0,0,1-1.781-.225c-.592-.225-1.079-.66-1.647-.939-1.049-.514-2.292-.458-3.384-.873a4.744,4.744,0,0,1-2.865-4.475,6.17,6.17,0,0,1,2.663-4.764,8.911,8.911,0,0,1,5.357-1.509c3.216.068,9.34.141,12.115,2.056C432.21,80.363,426.7,83.8,424.468,85.914Z" fill="#fff"/>
    <path d="M223.965,37.828c1.161-.634,2.55.188,3.629.952s2.544,1.512,3.635.765a2.235,2.235,0,0,0,.434-2.89,5.273,5.273,0,0,0-2.479-1.962,18.348,18.348,0,0,0-7.884-1.711,2.448,2.448,0,0,0-1.947.646,2.391,2.391,0,0,0,.565,3.237,4.149,4.149,0,0,0,3.5.546" fill="#fff"/>
    <path d="M113.944,33.006c.614,2.232-.361,4.571-1.442,6.618a6.194,6.194,0,0,1-1.4,1.947,2.269,2.269,0,0,1-2.248.475c-1.19-.495-1.407-2.077-1.307-3.362s.277-2.755-.6-3.695c-1.735-1.848-4.094-4.9.1-5.766C109.713,28.672,113.2,30.291,113.944,33.006Z" fill="#fff"/>
    <path d="M110.266,57.73c1.227.309,2.8-.675,2.533-1.913-.217-1-1.341-1.389-1.689-2.3-.306-.8.241-2.522-.2-3.1-.7-.925-1.485-.487-2.423.046C105.137,52.366,107.006,56.906,110.266,57.73Z" fill="#fff"/>
    <path d="M211.3,33.065a4.39,4.39,0,0,0-3.408.772,2.346,2.346,0,0,0-.438,3.2,3.529,3.529,0,0,0,2.875.769,3.807,3.807,0,0,0,1.461-.276c1.3-.616,1.552-2.342,1.509-3.782l-.649-.044" fill="#fff"/>
    <path d="M314.934,45.784a1.173,1.173,0,0,1-.183.655,1.248,1.248,0,0,1-.814.362c-1.32.23-2.974.323-3.689-.811-.569-.9-.2-2.117-.557-3.121-.9-2.493-5.129-1.816-5.784-4.293-.478-1.8,1.438-2.553,2.93-2.783C312.236,34.963,315.237,41.226,314.934,45.784Z" fill="#fff"/>
    <path d="M315.582,50.181a1.706,1.706,0,0,0-2.286.365,2.284,2.284,0,0,0-.131,2.425c.6,1.128,1.952,1.772,2.354,2.985.232.7.141,1.571.687,2.069a1.483,1.483,0,0,0,2.045-.342,3.712,3.712,0,0,0,.623-2.2c.081-1.856-.285-3.984-1.854-4.978" fill="#fff"/>
    <path d="M315.768,92.285l.413,3.291a2.175,2.175,0,0,1-.072,1.184,1.524,1.524,0,0,1-.585.62,2.667,2.667,0,0,1-3.588-.853c-.25-.421-.375-.906-.613-1.335-1.229-2.214-5.848-4.182-1.876-6.652C312.747,86.489,315.366,89.078,315.768,92.285Z" fill="#fff"/>
    <path d="M172,31.335l4.545-.006a2.468,2.468,0,0,1,1.381.271,2.368,2.368,0,0,1,.807,1.687,25.305,25.305,0,0,1,.311,4.77,4.644,4.644,0,0,1-.68,2.668,1.819,1.819,0,0,1-2.447.547c-.917-.723-.567-2.263-1.269-3.2a3.377,3.377,0,0,0-1.39-.927c-1.207-.543-2.512-1.2-3.022-2.422s.473-3.009,1.755-2.68" fill="#fff"/>
    <path d="M186.966,110.382a16.871,16.871,0,0,0,3.742,1.876,4.209,4.209,0,0,1,2.658,3.011c.23,2.174-2.563,3.679-4.636,2.986s-3.378-2.728-4.263-4.727a3.519,3.519,0,0,1-.332-2.828c.411-.889,1.94-1.162,2.3-.252" fill="#fff"/>
    <path d="M52.245,23.81c1.411-1.1,3.245-2.252,4.855-1.476,1.771.854,1.835,3.382,1.209,5.245s-1.688,3.753-1.253,5.67c-.418.4-1.157-.017-1.349-.565a9.513,9.513,0,0,1-.158-1.729c-.212-1.389-1.53-2.279-2.5-3.293s-1.584-2.835-.475-3.7" fill="#fff"/>
    <path d="M61.969,86.433a28.132,28.132,0,0,1,3.4.8,2.513,2.513,0,0,1,1.7,2.708,2.2,2.2,0,0,1-1.971,1.441,7.031,7.031,0,0,1-2,0c-1.465-.192-8.348-1.183-7.842-3.615C55.7,85.579,60.557,86.029,61.969,86.433Z" fill="#fff"/>
    <path d="M377.849,11.612a7.451,7.451,0,0,1,7.827,2.529,4.309,4.309,0,0,1,.836,4.237c-.618,1.38-2.7,2.027-3.718.909a12.129,12.129,0,0,1-.92-1.6,5.474,5.474,0,0,0-3.056-1.821,5.475,5.475,0,0,1-3.057-1.819c-.67-1.007-.3-2.734.9-2.908" fill="#fff"/>
    <path d="M386.341,24.341c-2.336-1.122-5.308,1.027-5.569,3.605a2.529,2.529,0,0,0,.2,1.412c.616,1.2,2.481,1.188,3.507.309a6.8,6.8,0,0,0,1.77-3.573" fill="#fff"/>
    <path d="M432.032,31.13a7.354,7.354,0,0,1,6.01,3.55,17.075,17.075,0,0,1,2.265,6.868c-1.305.932-3.188.311-4.39-.752s-2.031-2.5-3.258-3.534c-1.27-1.07-3-1.762-3.654-3.288a7.877,7.877,0,0,0,2.939-2.381" fill="#fff"/>
    <path d="M480.889,32.866a6.312,6.312,0,0,1,1.375,3.685,6.133,6.133,0,0,1-.341,3.826c-.636,1.139-2.339,1.75-3.282.849-1.179-1.129-.215-3.378-1.3-4.6-1.064-1.206-3.891-1.929-2.283-4.053C476.292,30.947,479.672,31.624,480.889,32.866Z" fill="#fff"/>
    <path d="M529.783,40.729a4.839,4.839,0,0,1-.295,2.821,2.28,2.28,0,0,1-2.33,1.326c-1.191-.234-1.783-1.567-2.07-2.746s-.552-2.52-1.574-3.174c-1.829-1.17-4.461-.327-5.059-3.165-.41-1.946.643-3.05,2.448-3.406C525.387,31.5,529.265,36.952,529.783,40.729Z" fill="#fff"/>
    <path d="M537.317,85.242c-.475,1.067-1.17,2.293-2.335,2.358a2.216,2.216,0,0,1-2.064-1.984,6.678,6.678,0,0,1,.506-3.067c.719-2.188-1.219-6.655,2.729-5.877S538.377,82.86,537.317,85.242Z" fill="#fff"/>
    <path d="M582.563,40.039a3.492,3.492,0,0,1-.57,2.438,2.809,2.809,0,0,1-3.048.841A3.852,3.852,0,0,1,576.654,41a27.391,27.391,0,0,0-.815-2.642c-.741-1.472-11-8.211-3.25-8.132C576.526,30.263,582.232,36.259,582.563,40.039Z" fill="#fff"/>
    <path d="M584.7,49.858a2.67,2.67,0,0,0-3.245,1.755,4.34,4.34,0,0,0,.822,3.874c.763,1.028,1.892,1.967,1.894,3.247a2.79,2.79,0,0,0,.064,1.245,1.147,1.147,0,0,0,1.664.223,3.319,3.319,0,0,0,.975-1.614,12.043,12.043,0,0,0,.963-4.025A4.087,4.087,0,0,0,586.082,51" fill="#fff"/>
  </g>
</svg>
