<svg id="Layer_1" data-name="Layer 1" xmlns="http://www.w3.org/2000/svg" viewBox="0 0 256 64"><defs><style>.cls-1{fill:#fff;}</style></defs><title>logo</title><path d="M21.1,11.92l-2.24.18L1.18,20.27,1,31.94l5.3-.72s-1.8,12,4.31,17.14c6.67,5.59,19.12,3.41,19.12,3.41L32.77,38s-11.13,3.32-11.4-1.44.09-5.74.09-5.74A14.19,14.19,0,0,0,31.7,32.83C32.05,31.13,33.22,19,33.22,19l-12-1.26Z"/><path d="M32.05,14.88c-2.06,9.78-5.21,25.4,8.62,27.37a32.93,32.93,0,0,0,12.3-1s1.53,4.22-4.58,4.4S33.76,44.23,30.53,42.8c.54,2.87,4,14.81,4,14.81s13.37,1.26,19.21.54,8.71-2.78,9.42-7.45,3.32-35.63,3.32-35.63L53.15,15l.09,14.36s-7.09,1.88-7.81-1.53,1.35-12.92,1.35-12.92Z"/><path d="M63.65,56.44l-.72-41.38,11.76.09L76.3,22s6.37-10.68,18.49-7,12,28.36-1.35,33.12A19.25,19.25,0,0,1,78,47v9.87Z"/><path d="M117.14,14.88c15.44,0,18.22,8.35,18.22,21.81H112c0,5.3,7.54,5.39,21.72,1.8,0,.81-1.53,13.1-1.53,13.1S100.36,58,98.38,38.85,108.43,14.88,117.14,14.88Z"/><path d="M148.37,22.78,165.43,22s.36,14.36-1.53,21.9-9.51,12-23,9.07c-.36-2.6-1.35-13.73-1.35-13.73s7.36,2.15,9.15.18S148.37,22.78,148.37,22.78Z"/><path d="M167,12.89c0,4.25-2.42,7.7-9.87,7.7s-9.87-3.45-9.87-7.7,2.42-7.7,9.87-7.7S167,8.64,167,12.89Z"/><path d="M164.53,28.43l4.21-13.37a82.13,82.13,0,0,1,14.63,0c6.53.57,11.49,6.73,12.21,14.81s0,21.81,0,21.81h-8.17l-2-6s-1.8,5.83-11.13,7.27-15-3-15.8-9.15,2-12.83,13.64-13.64a50.53,50.53,0,0,1,10.68.9s1.26-4.67-5.74-4.76A36,36,0,0,0,164.53,28.43Z"/><polygon points="193.88 16.05 193.88 51.59 208.69 51.59 208.69 24.04 206.62 16.05 193.88 16.05"/><path d="M208.06,24.76c2.06-7.45,6.82-12,16.6-8.62,5.21,2.15,7.63,8.8,7.63,20.82V52.22H216.14V34.72c0-4.49-4.22-5.65-7.18-4C207.61,29.24,208.06,24.76,208.06,24.76Z"/><path d="M230.77,24.76c2.06-7.45,6.82-12,16.6-8.62C252.58,18.3,255,24.94,255,37V52.22H238.84V34.72c0-4.49-4.22-5.65-7.18-4C230.32,29.24,230.77,24.76,230.77,24.76Z"/><path class="cls-1" d="M78.37,29v4.94a8.81,8.81,0,0,0,8.44,1.53c5.3-1.53,3.5-7.81-1.44-7.9S78.37,29,78.37,29Z"/><path class="cls-1" d="M112,30.68c1.17-5,8.71-6.73,10.14-.18C120.64,30.5,112,30.68,112,30.68Z"/><path class="cls-1" d="M183.42,36.92V40s-3.1,2.78-6.87,2-3.81-5.16,1.75-5.21C179.43,36.78,183.42,36.92,183.42,36.92Z"/></svg>