<?xml version="1.0" encoding="utf-8"?>
<!-- Generator: Adobe Illustrator 22.0.1, SVG Export Plug-In . SVG Version: 6.00 Build 0)  -->
<svg version="1.1" id="Layer_1" xmlns="http://www.w3.org/2000/svg" xmlns:xlink="http://www.w3.org/1999/xlink" x="0px" y="0px"
	 viewBox="0 0 106 40" style="enable-background:new 0 0 106 40;" xml:space="preserve">
<title>logo-glyphs</title>
<g>
	<polyline points="37.1,29.7 37,29.7 37.1,29.7 	"/>
	<polygon points="34.2,28.3 34.2,5.5 29.9,5.5 29.9,6.8 32.6,6.8 32.6,28.4 29.8,28.4 29.8,29.7 37,29.7 37,28.3 	"/>
	<path d="M48.2,15h2.5L46,28.4L40.8,15h2.6v-1.3h-6.8V15h2.3l6.2,15.4L44.9,31c-1.4,3.6-3.4,4.6-6.8,4.7l0.1,1.4
		c4.7,0,6.9-2,8.2-5.6l6-16.5h2.3v-1.3h-6.5V15z"/>
	<path d="M65.3,13.2c-1.8,0-3.6,0.7-4.8,2h-0.1l-0.2-1.6h-4.1V15h2.7v21.5H56v1.3h7.3v-1.3h-2.8v-7.2c1.1,0.4,2.3,0.7,3.5,0.7
		c4.7,0,7.3-2.9,7.3-8.7C71.3,16,69.2,13.2,65.3,13.2z M64.1,28.6c-1.2,0-2.4-0.3-3.5-0.8V16.9c1.1-1.3,2.8-2.1,4.5-2.1
		c3,0,4.6,2.3,4.6,6.7C69.6,26.2,67.7,28.6,64.1,28.6z"/>
	<path d="M88.3,28.3v-9.8c0-3.4-1.5-5.1-4.5-5.1c-2.1,0-3.9,0.9-6.2,2.6V5.5h-4.3v1.4h2.7v21.5h-2.8v1.3h7.1v-1.3h-2.7V17.5
		c2.4-1.9,4.1-2.7,5.8-2.7c2.2,0,3.2,1.3,3.2,3.8v9.7H84v1.3h7v-1.4H88.3z"/>
	<polygon points="91,29.7 91.1,29.7 91,29.7 	"/>
	<path d="M95,17.1c0-1.7,1.3-2.5,3.8-2.5c1,0,2,0.1,2.9,0.4h0v2.7h1.5V14c-1.4-0.5-2.9-0.7-4.4-0.7c-3.3,0-5.4,1.1-5.4,3.9
		c0,5.6,9,4.1,9,8.8c0,1.9-1.4,2.8-3.9,2.8c-1.3,0-2.6-0.2-3.8-0.7v-2.8h-1.5v3.8c1.7,0.7,3.5,1,5.3,1c3.2,0,5.5-1.1,5.5-4.1
		C104,20.1,95,21.6,95,17.1z"/>
	<path d="M25.8,5.8c-3-0.4-6-0.7-9-0.7C6.4,5.2,2,8.9,2,17.9c0,9,4.3,12.7,14.7,12.7c3.1,0,6.1-0.3,9.1-0.9l1.3-0.2V15.7h-0.8l1-9.7
		L25.8,5.8z M15.9,20.2h0.6v-2.9h9.1v10.9c-2.9,0.6-5.9,0.9-8.9,0.9c-9.6,0-13.1-2.9-13.1-11.1c0-8,3.6-11.1,13.3-11.1
		c2.9,0,5.9,0.2,8.8,0.6l-0.8,8.3c-2.5-0.2-4.6-0.4-6.5-0.4c-3.5,0-4.3,0.5-4.3,2.4C14,19.5,14.6,20.2,15.9,20.2z"/>
</g>
</svg>
