<svg xmlns="http://www.w3.org/2000/svg" width="64" height="64" viewBox="0 0 64 64">
  <title>logo-cheesesandwichco</title>
  <g>
    <rect x="6.398" y="6.898" width="50.205" height="50.205" rx="8.452" ry="8.452" transform="translate(-13.401 31.646) rotate(-45)" fill="#fff"/>
    <g>
      <rect x="17" y="22" width="30" height="27" rx="4" ry="4" fill="#000100" stroke="#000100" stroke-linejoin="round" stroke-width="2"/>
      <g>
        <rect x="17.151" y="17.151" width="29.698" height="29.698" rx="5" ry="5" transform="translate(-13.255 32) rotate(-45)" fill="#fff"/>
        <rect x="17.151" y="17.151" width="29.698" height="29.698" rx="5" ry="5" transform="translate(-13.255 32) rotate(-45)" fill="none" stroke="#000100" stroke-linejoin="round" stroke-width="2"/>
      </g>
      <path d="M43,46H21a4,4,0,0,1-4-4V23c0-2.209,1.791-3,4-3H43c2.209,0,4,.791,4,3V42A4,4,0,0,1,43,46Z" fill="#000100" stroke="#000100" stroke-linejoin="round" stroke-width="2"/>
      <rect x="17" y="17" width="30" height="26" rx="4" ry="4" fill="#fff" stroke="#000100" stroke-linejoin="round" stroke-width="2"/>
      <path d="M37.5,36.5h0a30.757,30.757,0,0,1-11,0h0" fill="none" stroke="#000100" stroke-linejoin="round" stroke-width="2"/>
      <circle cx="37" cy="29" r="4" fill="none" stroke="#000100" stroke-linecap="round" stroke-linejoin="round" stroke-width="2"/>
      <path d="M29.828,31.828a4,4,0,1,1,0-5.656" fill="none" stroke="#000100" stroke-linejoin="round" stroke-width="2"/>
    </g>
  </g>
</svg>
