<svg id="Layer_1" data-name="Layer 1" xmlns="http://www.w3.org/2000/svg" viewBox="0 0 200 40"><title>logo-verycool</title><path d="M132.23,8.9a3.47,3.47,0,0,1-3.77-3.77,3.77,3.77,0,1,1,7.55,0A3.47,3.47,0,0,1,132.23,8.9Z"/><polygon points="124.25 1.99 117.34 1.99 123.89 14.76 123.89 18.9 129.83 18.9 129.83 13.01 124.25 1.99"/><polygon points="71.24 18.89 64 1.99 71.38 1.99 77.15 16.22 76.4 18.89 71.24 18.89"/><rect x="101.63" y="1.99" width="6.3" height="16.91"/><rect x="84.5" y="1.99" width="6.43" height="16.91"/><rect x="120.09" y="21.54" width="6.33" height="17.01"/><path d="M110,9.48V2h2c1.88,0,3.18.38,4,1.17a3.84,3.84,0,0,1,.93,2.89c0,2.4-1.5,3.43-4.89,3.43Z"/><path d="M72.3,38.65c-4.59,0-6.75-2.71-6.81-8.53,0-3.22.65-5.57,2-7a6.43,6.43,0,0,1,4.77-1.69h.24V38.65Z"/><path d="M90.14,38.65c-4.59,0-6.75-2.71-6.81-8.53,0-3.22.65-5.57,2-7a6.44,6.44,0,0,1,4.77-1.69h.24V38.65Z"/><path d="M92.43,38.65V21.44h.24c4.59,0,6.75,2.68,6.81,8.43,0,3.26-.67,5.65-2.09,7.08a6.38,6.38,0,0,1-4.73,1.7Z"/><path d="M108.52,38.65c-4.59,0-6.75-2.71-6.81-8.53,0-3.22.65-5.57,2-7a6.43,6.43,0,0,1,4.77-1.69h.24V38.65Z"/><path d="M110.81,38.65V21.44H111c4.59,0,6.75,2.68,6.81,8.43,0,3.26-.67,5.65-2.09,7.08a6.38,6.38,0,0,1-4.73,1.7Z"/><path d="M116.23,19.1C112.15,19.1,110,17,110,13V11.32h2.19a5.74,5.74,0,0,1,4.27,1.36c.9.92,1.33,2.34,1.3,4.34l0,2.08Z"/><path d="M128.1,38.48v-.09c.09-5.17,2.28-8.25,5.87-8.25h.42v8.35Z"/><path d="M79,9.27A3.59,3.59,0,0,1,75.1,5.37a3.91,3.91,0,1,1,7.82,0A3.59,3.59,0,0,1,79,9.27Z"/><path d="M78.08,28.83a3.6,3.6,0,0,1-3.91-3.91,3.91,3.91,0,1,1,7.83,0A3.6,3.6,0,0,1,78.08,28.83Z"/><path d="M98.26,9.22c-3.7,0-5.38-2.19-5.45-7.09V2h6.4V9.22Z"/><path d="M92.81,18.9h0c.07-4.9,1.75-7.12,5.45-7.12h1V18.9Z"/><path d="M74.15,38.47V36.27c0-3.91,1.46-5.57,4.87-5.57l2,0v1.5c0,2.84-.94,6.23-5.42,6.23Z"/></svg>