<svg xmlns="http://www.w3.org/2000/svg" width="1024" height="256" viewBox="0 0 1024 256">
  <title>london-title</title>
  <g>
    <path d="M1006.62,57.373c-2.48-6.2-8.634-10.152-14.839-12.624-9.05-3.606-19.274-4.914-28.6-2.086s-17.5,10.22-19.818,19.684,2.253,20.568,11.184,24.459c2.678,1.167,2.077,20.417,2.749,23.275.708,3.012,1.778,5.952,2.137,9.026s-.1,6.417-2.107,8.77c-9.825,11.51-20.22-12.543-21.326-19.137-1.326-7.909-1.785-16.393-6.407-22.947-1.913-2.713-4.44-4.926-6.64-7.413-5.244-5.927-8.531-13.284-12.717-20s-9.779-13.156-17.368-15.4c-18.251-5.387-38.2-.376-56.772,3.782a16.586,16.586,0,0,0-5.194,1.817,13.462,13.462,0,0,0-3.543,3.465,30.189,30.189,0,0,0-5.4,11.974c-.653,3.144.249,8.219-4.582,7.676a9.234,9.234,0,0,1-4.159-1.881c-4.1-2.9-7.5-6.67-11.411-9.827-5.831-4.712-13.16-8.026-19.868-11.31A72.1,72.1,0,0,0,761,42.346c-14.7-2.225-29.772-.827-44.31,1.857-5.342.986-10.721,2.144-15.6,4.53-12.2,5.962-19.562,18.628-24.859,31.126-.795,1.875-1.651,3.876-3.354,4.992-3.932,2.578-9.256-1.555-10.325-6.133-2.63-11.264-15.14-19.2-25.669-23.986a163.394,163.394,0,0,0-113.933-7.54,27.582,27.582,0,0,1-7.748,1.625c-3.285.019-6.424-1.225-9.578-2.146-10.7-3.125-22.085-2.587-33.221-2.021-4.381.223-8.858.465-12.926,2.107-6.992,2.822-11.957,9.727-13.175,17.167s1.07,15.23,5.482,21.344c2.628,3.643,5.965,6.74,8.5,10.451s4.229,8.375,2.994,12.694-6.312,7.611-10.386,5.719c-2.555-1.187-3.987-3.89-5.241-6.413L433.52,79.292a75.635,75.635,0,0,1-4.678-10.785c-1.555-4.928-2.139-10.267-4.863-14.659-4.462-7.2-13.488-10.049-21.885-11.165-15.407-2.048-31.033-.139-46.458,1.77-3.868.479-7.812.979-11.334,2.647a18.44,18.44,0,0,0-9.623,12.386,7.927,7.927,0,0,1-6.784.2c-3.539-1.647-5.784-5.122-8.274-8.128-7.936-9.581-34.828-15.4-47.1-17.442s-24.926-.527-36.939,2.709c-5.874,1.582-11.7,3.6-16.8,6.929-11.438,7.464-19.893,20.955-19.273,34.6.311,6.837.619,13.73-.445,20.49-.652,4.145-1.818,8.218-2.069,12.406a19.12,19.12,0,0,0,3.43,11.7c5.615,8.475,7.194,19.412,14.041,26.928,6.925,7.6,17.832,10.107,28.1,10.7,8.115.47,17.083-.334,22.877-6.036,7.261-7.145,6.667-18.976,4.182-28.855-1.605-6.382-3.953-12.89-8.764-17.38s-12.684-6.277-18.07-2.5c-4.213,2.959-7.429,9.094-12.46,8.008-2.731-.588-4.549-3.395-4.82-6.175s2.443-5.192,2.182-7.974c-.292-3.114.554-6.212,1.235-9.264.821-3.679,1.752-7.567,4.408-10.242,5.643-5.683,15.176-2.877,22.534.285,6.71,2.884,13.777,6.053,17.925,12.065,3.221,4.669,4.251,10.466,6.493,15.676,2.071,4.812,5.188,9.14,7.018,14.049,5.355,14.356,2.837,32.891-6.962,44.671-9.022,10.847-24.369,14.01-38.477,14.017-8.566,0-17.282-.935-25.152-4.318s-14.856-9.457-17.927-17.454c-2.061-5.365-2.288-11.278-4.149-16.716-2.163-6.322-6.606-10.926-9.388-16.735-3.069-6.411-1.439-14.628.709-21.129,1.74-5.264,4.471-10.747,2.947-16.078-.434-1.517-1.2-2.926-1.607-4.451a19.853,19.853,0,0,1-.444-5.189l.023-9.1c.012-4.838,6.049-9.02,5.333-13.9-.8-5.447-8-6.708-12.736-6.753-3.757-.036-7.659.4-10.881,2.333s-5.587,5.674-4.957,9.379c1.571,9.232-6.144,17.1-9.628,25.573a109.285,109.285,0,0,0-7.4,28.244c-.5,4.129.025,11.661-2.706,15.021-1.8,2.22-7.2,3.346-9.664,5.519-6.1,5.386-9.676,13.46-11.613,21.212-.814,3.259-1.495,6.645-3.344,9.449s-5.238,4.914-8.506,4.135a40.855,40.855,0,0,1-4.184-1.751c-3.443-1.241-7.465-.239-10.766-1.819-5.265-2.521-5.732-9.707-5.442-15.538q1.248-25.071,2.5-50.141a13.9,13.9,0,0,1,.793-4.736c1.93-4.581,7.768-5.679,11.979-8.321,8.733-5.48,10.093-17.427,10.544-27.727.221-5.025.355-10.4-2.3-14.668-3.1-4.977-9.187-7.155-14.941-8.277a72.646,72.646,0,0,0-36.145,2.192c-4.348,1.411-8.615,3.247-13.157,3.767-3.913.448-7.892-.1-11.8.38a22.5,22.5,0,0,0-12.907,38.5C29.47,86.2,36.542,91.051,39.533,96.6c2.354,4.366,2.294,9.584,2.175,14.543q-.37,15.406-.74,30.814c-.15,6.277-.385,12.864-3.57,18.276-2.161,3.673-5.5,6.472-8.465,9.532-6.139,6.329-10.986,14.456-11.246,23.269s5.1,18.111,13.621,20.376c6.857,1.824,13.964-.983,20.872-2.6,30.524-7.156,62.222,9.053,93.352,5.333,4.041-.483,8.155-1.347,11.553-3.585,4.521-2.976,4.695-9.121,8.229-11.855,4.656-3.6,10.714,1.167,14.993,3.985a119.428,119.428,0,0,0,64.735,19.21,100.145,100.145,0,0,0,35.638-6.011c10.049-3.692,21.115-2.765,29.765-10.286,2.419-2.1,4.452-4.676,7.146-6.414s6.418-2.464,9.034-.612c3.351,2.371,3.186,7.434,5.526,10.806,2.959,4.263,8.958,4.772,14.147,4.841,15.035.2,32.129,2.255,46.9-.957,9.668-2.1,18.9-9.661,19.59-19.53.414-5.89-2.18-11.55-5.023-16.725a12.909,12.909,0,0,0-3.4-4.429c-3.125-2.279-7.683-1.566-10.892-3.725-6.38-4.294-4.516-19.035-4.384-25.571.066-3.251.2-6.725,2.1-9.369,7.364-10.275,13.989,9.238,15.621,13.821a69.18,69.18,0,0,0,10.119,18.682c3.781,4.965,8.262,9.46,11.194,14.969,2.135,4.013,3.385,8.454,5.576,12.436,4.985,9.057,14.585,14.984,24.687,17.183s20.676,1.014,30.7-1.529c3.506-.89,8.825-2.01,11.054-5.117,1.087-1.513,2.022-3.287,3.7-4.1,4.959-2.413,8.544,3.412,12.312,5.244,6.008,2.922,14.425,2.469,20.927,2.583,22.042.388,44.091.206,66.136.024,7.081-.059,14.313-.142,21-2.482,13.4-4.692,28.35-7.777,34.964-20.341,1.631-3.1,2.868-6.44,4.991-9.225s5.439-5,8.919-4.614a11.562,11.562,0,0,1,5.97,3c7.639,6.462,11.561,16.632,19.6,22.588,3.678,2.725,8.011,4.4,12.3,6.008,7.882,2.954,15.87,5.8,24.186,7.093s16.814,1.025,25.24.747c14.787-.489,31.373-1.792,41.062-12.973,3.067-3.538,5.648-9,10.612-9.974,5.8-1.136,10.012,3.438,11.146,8.57,1.556,7.043,2.025,12.172,9.93,15.211,5.518,2.12,11.642,1.787,17.526,1.212s11.886-1.354,17.65-.041c3.485.794,6.775,2.335,10.283,3.027,12.112,2.39,24.881-6.994,27.41-19.078s-4.479-25.129-15.4-30.888c-3.315-1.748-7.19-3.138-9.01-6.413-3.637-6.544-5.848-27.51,7.364-20.266,9.749,5.345,17.295,13.973,22.333,23.874,5.513,10.832,6.351,23.524,11.513,34.527,1.579,3.369,3.647,6.649,6.729,8.733,3.029,2.048,6.745,2.754,10.354,3.344q9.715,1.588,19.524,2.511c6.642.624,13.4,1.011,19.94-.288s12.936-4.462,16.944-9.795c6.815-9.067,5.272-21.846,1.911-32.679s-8.277-21.7-7.2-32.987c.991-10.409,7.058-20.3,5.645-30.655-.692-5.077-2.945-10.981.492-14.781a25.771,25.771,0,0,1,3.8-2.868c5.669-4.3,6.527-12.345,6.912-19.451C1008.077,66.244,1008.3,61.566,1006.62,57.373ZM353.406,109.646c-.2,4.07-2.586,7.649-4.27,11.36-1.7,3.743-1.581,10.007-4.478,12.773-3.521-1.529-2.475-5.881-2.076-9.024,1.382-10.869-3.73-21.413-8.944-31.049a11.044,11.044,0,0,1-1.6-4.263,5.7,5.7,0,0,1,6-5.851c2.934.308,5.17,2.892,8.05,3.529,1.323.293,2.82.2,3.881,1.037.862.683,1.332,2.135,1.6,3.858.492,3.178.291,7.273.578,9.144C352.587,103.994,353.55,106.783,353.406,109.646ZM522.6,129.312c-.479,9.226-1.094,18.456-2.377,27.6-.5,3.534-1.184,7.259-3.549,9.932s-6.976,3.666-9.471,1.114c-1.44-1.474-1.813-3.67-1.952-5.726-.867-12.859,4.644-25.9,1.659-38.438-1.061-4.46-3.163-8.623-4.184-13.092s-.754-9.633,2.361-13c10.912-11.783,15.389,13.9,16.888,19.658C522.98,121.244,522.8,125.315,522.6,129.312Zm91.185,30.9c-2.3,2.974-5.337,5.548-8.98,6.476-2.886.735-5.924.394-8.882.048-7.724-.9-16.272-2.242-21.127-8.318-3.293-4.123-4.181-9.727-3.78-14.988s1.956-10.355,3.051-15.517a93.962,93.962,0,0,0,1.6-26.854c-.42-5.44-2.132-14.54,4.454-17.15,8.232-3.262,27.238,9.341,30.365,16.388,2.6,5.872,1.109,12.714,2.31,19.024,1.085,5.7,4.331,10.763,5.859,16.359A28.49,28.49,0,0,1,613.782,160.209Zm156.64,6.784c-7.479,1.964-14.754-3.328-20.622-8.362q-6.814-5.845-13.508-11.829c-3.091-2.763-6.245-5.658-7.965-9.431-3.663-8.034.11-17.474-1.1-26.221-.665-4.821-2.846-9.372-3.169-14.227s2.151-10.553,6.956-11.32c6.747-1.078,19.917,3.869,24.23,9.537,6.418,8.433,9.054,20.427,14.679,29.585,4.333,7.056,9.4,14.013,10.824,22.17S778.43,164.889,770.422,166.993Zm79.236-15.274a24.73,24.73,0,0,1-4.109,12.142c-1.459,2.305-3.3,4.52-5.811,5.579s-5.822.619-7.4-1.606c-1.455-2.053-1.062-4.892-.147-7.235s2.291-4.546,2.685-7.031c.519-3.286-.747-6.555-1.3-9.835-2.491-14.816,6.653-27.568-2.008-41.6-1.82-2.949-6.012-6.624-4.407-10.429,2.643-6.266,10.872-2.786,13.691,1.126,3.944,5.472,4.686,12.606,4.542,19.35s-1.036,13.555.164,20.193C846.736,138.888,849.9,145.108,849.658,151.719Z"/>
    <g>
      <path d="M983.9,53.192c4.857-1.055,10.1,1.772,12.474,6.139,1.655,3.044,1.971,7.042-.049,9.857s-6.7,3.593-9,1c-1.1-1.235-1.5-2.939-2.449-4.288a19.619,19.619,0,0,0-3.71-3.37,6.088,6.088,0,0,1-2.522-4.178c-.052-1.676,1.6-3.408,3.182-2.86" fill="#fff"/>
      <path d="M987.822,187.965c-8.3,6.7-13.9-10.959-5.833-14.887C991.224,168.579,993.652,183.256,987.822,187.965Z" fill="#fff"/>
      <path d="M904.543,72.241a5.963,5.963,0,0,1,1.364,2.655,3.328,3.328,0,0,1-.885,2.31c-7.119,8.575-17.95-9.689-15.667-16.3C894.924,44.777,902.1,68.61,904.543,72.241Z" fill="#fff"/>
      <path d="M875.388,176.664a2.884,2.884,0,0,1,4.362.846,3.95,3.95,0,0,1-1.127,4.656,6.384,6.384,0,0,1-4.878,1.23,4.533,4.533,0,0,1-3.219-1.6,3.511,3.511,0,0,1,.15-4,5.121,5.121,0,0,1,3.676-1.93" fill="#fff"/>
      <path d="M795.566,78.956a3.794,3.794,0,0,1-1.716.517c-8.289.839-9.951-6.5-14.569-11.065-3.1-3.06-6.591-2.1-1.782-5.457C787.121,56.23,803.5,73.731,795.566,78.956Z" fill="#fff"/>
      <path d="M648.407,83.307c.047,3.009-3.025,5.327-6.027,5.53-7.762.526-25.954-9.288-16.391-17.946C634.055,63.588,648.258,73.732,648.407,83.307Z" fill="#fff"/>
      <path d="M430.291,102.6a10.746,10.746,0,0,1,.938,5.054,4.7,4.7,0,0,1-2.875,3.994c-2.072.7-4.274-.589-5.914-2.037a25.023,25.023,0,0,1-8.174-15.426c-.509-3.982-5.508-6.557-2.755-11.106,1.554-2.567,5.067-3.251,7.8-2.519C426.278,82.428,427.95,96.619,430.291,102.6Z" fill="#fff"/>
      <path d="M89.728,46.472l-7.989.391c-1.756,1.057-1.511,3.779-.351,5.47s2.949,2.9,3.963,4.684c1.03,1.813,1.135,3.985,1.659,6s1.762,4.138,3.809,4.533c1.685.325,3.339-.629,4.7-1.669,3.5-2.666,6.481-6.48,6.733-10.873s-3.142-9.09-7.542-9.023" fill="#fff"/>
      <path d="M298.776,62.673c2.351,2.079,5.769,2.273,8.906,2.361a4.1,4.1,0,0,0,1.331-.108,3.3,3.3,0,0,0,1.855-2,7.79,7.79,0,0,0,.562-3.843,12.032,12.032,0,0,0-6.992-9.179C292.612,44.583,291.363,56.116,298.776,62.673Z" fill="#fff"/>
      <path d="M247.476,123.271a10.288,10.288,0,0,0-2.308,6.171,6.019,6.019,0,0,0,3.272,5.443,8.982,8.982,0,0,0,3.208.593c2.361.12,4.971,0,6.709-1.6,2.186-2.014,2.027-5.681.458-8.206s-4.187-4.175-6.715-5.739" fill="#fff"/>
    </g>
  </g>
</svg>
