<svg id="Layer_1" data-name="Layer 1" xmlns="http://www.w3.org/2000/svg" viewBox="0 0 160 160"><defs><style>.cls-1{fill:none;}.cls-2{fill:#fff;}</style></defs><title>mascot</title><path class="cls-1" d="M49.28,84A8.27,8.27,0,0,1,53,83.14a10.11,10.11,0,0,1,2.38.29A11.33,11.33,0,0,1,59.53,82c-1.12-1.28-2.21-2.62-3.23-4a6,6,0,0,1-.87.23,15.78,15.78,0,0,0-6,2.15,4.9,4.9,0,0,0-1.92,2.09,3,3,0,0,0-.24,1.2,4.07,4.07,0,0,0,.34,1.53A7.08,7.08,0,0,1,49.28,84Z"/><path class="cls-2" d="M118.73,127.23l-.35-1.09-.65.94a1.51,1.51,0,0,1-1.24.65h-1.15l.7.91a1.51,1.51,0,0,1,.23,1.38l-.36,1.09,1.08-.38a1.51,1.51,0,0,1,1.38.2l.93.68,0-1.15a1.51,1.51,0,0,1,.62-1.25l.93-.67-1.1-.33A1.51,1.51,0,0,1,118.73,127.23Z"/><path d="M124.6,126.53l-3.26-1-1-3.23a1.5,1.5,0,0,0-2.66-.39l-1.93,2.8h-3.4a1.5,1.5,0,0,0-1.2,2.41l2.06,2.7-1.06,3.23a1.5,1.5,0,0,0,1.92,1.88l3.21-1.13,2.75,2a1.5,1.5,0,0,0,2.38-1.25l-.08-3.4,2.75-2a1.5,1.5,0,0,0-.45-2.65Zm-4.7,2.68a1.51,1.51,0,0,0-.62,1.25l0,1.15-.93-.68a1.51,1.51,0,0,0-1.38-.2l-1.08.38.36-1.09a1.51,1.51,0,0,0-.23-1.38l-.7-.91h1.15a1.51,1.51,0,0,0,1.24-.65l.65-.94.35,1.09a1.51,1.51,0,0,0,1,1l1.1.33Z"/><path class="cls-2" d="M82.3,140.36a1.51,1.51,0,0,1-.4-1.34l.51-2.59L80,137.6a1.51,1.51,0,0,1-1.4,0l-2.31-1.29.38,2.62a1.51,1.51,0,0,1-.47,1.32L74.32,142l2.6.45a1.51,1.51,0,0,1,1.11.85l1.11,2.4,1.23-2.34a1.51,1.51,0,0,1,1.15-.79l2.62-.31Z"/><path d="M85,138.83l1-4.8a1.5,1.5,0,0,0-2.13-1.64l-4.39,2.16-4.27-2.39a1.5,1.5,0,0,0-2.22,1.52l.7,4.84L70,141.86a1.5,1.5,0,0,0,.76,2.58l4.82.83,2,4.44a1.5,1.5,0,0,0,2.69.07l2.28-4.33,4.86-.58a1.5,1.5,0,0,0,.9-2.54Zm-4.63,4.52-1.23,2.34L78,143.3a1.51,1.51,0,0,0-1.11-.85l-2.6-.45,1.94-1.79a1.51,1.51,0,0,0,.47-1.32l-.38-2.62,2.31,1.29a1.51,1.51,0,0,0,1.4,0l2.37-1.17L81.9,139a1.51,1.51,0,0,0,.4,1.34l1.84,1.89-2.62.31A1.51,1.51,0,0,0,80.37,143.36Z"/><path class="cls-2" d="M29,110.1l-1.14-2.31-1.14,2.31a1.51,1.51,0,0,1-1.13.82l-2.55.37,1.84,1.8a1.51,1.51,0,0,1,.43,1.33L24.84,117l2.28-1.2a1.51,1.51,0,0,1,1.4,0L30.8,117l-.44-2.54a1.51,1.51,0,0,1,.43-1.33l1.84-1.8-2.55-.37A1.51,1.51,0,0,1,29,110.1Z"/><path d="M36.08,108.76l-4.78-.69-2.14-4.33a1.5,1.5,0,0,0-2.69,0l-2.14,4.33-4.78.69a1.5,1.5,0,0,0-.83,2.56l3.46,3.37-.82,4.76A1.5,1.5,0,0,0,23.55,121l4.27-2.25L32.09,121a1.5,1.5,0,0,0,2.18-1.58l-.82-4.76,3.46-3.37a1.5,1.5,0,0,0-.83-2.56Zm-5.28,4.33a1.51,1.51,0,0,0-.43,1.33L30.8,117l-2.28-1.2a1.51,1.51,0,0,0-1.4,0L24.84,117l.44-2.54a1.51,1.51,0,0,0-.43-1.33L23,111.29l2.55-.37a1.51,1.51,0,0,0,1.13-.82l1.14-2.31L29,110.1a1.51,1.51,0,0,0,1.13.82l2.55.37Z"/><path d="M141.6,106.37a1.5,1.5,0,0,0-1.21-1l-2.3-.33-1-2.09a1.5,1.5,0,0,0-2.69,0l-1,2.09-2.3.33a1.5,1.5,0,0,0-.83,2.56l1.67,1.63-.39,2.29a1.5,1.5,0,0,0,2.18,1.58l2.06-1.08,2.06,1.08a1.5,1.5,0,0,0,2.18-1.58l-.39-2.29,1.67-1.63A1.5,1.5,0,0,0,141.6,106.37Z"/><path d="M53.15,130.47,52,130.3l-.52-1.05a1.5,1.5,0,0,0-2.69,0l-.52,1.05-1.16.17a1.5,1.5,0,0,0-.83,2.56l.84.82-.2,1.16a1.5,1.5,0,0,0,2.18,1.58l1-.55,1,.55A1.5,1.5,0,0,0,53.34,135l-.2-1.16L54,133a1.5,1.5,0,0,0-.83-2.56Z"/><path d="M100.4,130.27l-.79-.49,0-.93a1.5,1.5,0,0,0-2.47-1.08l-.71.6-.89-.24a1.5,1.5,0,0,0-1.79,2l.35.86-.51.77a1.5,1.5,0,0,0,1.36,2.32l.92-.07.58.72a1.5,1.5,0,0,0,2.63-.58l.22-.9.87-.33a1.5,1.5,0,0,0,.26-2.68Z"/><path class="cls-2" d="M49.79,93.26a11.36,11.36,0,0,1,2.46-7.07,4.88,4.88,0,0,0-1.62.47A4.35,4.35,0,0,0,49,88a9,9,0,0,0-1.36,5.22,10.32,10.32,0,0,0,.78,4.2,5.44,5.44,0,0,0,1,1.53,9.22,9.22,0,0,1,1.6-.48A11.36,11.36,0,0,1,49.79,93.26Z"/><path class="cls-2" d="M62.09,91.81a1.5,1.5,0,0,1-1.86-1.46V84.9a8.41,8.41,0,0,0-5.59,13.61A10.21,10.21,0,0,1,59,100.67a12.82,12.82,0,0,1,1,.91,8.47,8.47,0,0,0,1.21.1,7.09,7.09,0,0,0,1.72-.2L67.44,91.1c0-.2-.05-.41-.09-.6Z"/><path class="cls-2" d="M125.5,85.16a11.38,11.38,0,0,1-10-10,5.11,5.11,0,0,0-.68,1.11,4.21,4.21,0,0,0-.35,1.7,5.86,5.86,0,0,0,.71,2.65A12.31,12.31,0,0,0,120,85.48a5.86,5.86,0,0,0,2.65.71,4.21,4.21,0,0,0,1.7-.35A5.11,5.11,0,0,0,125.5,85.16Z"/><path class="cls-2" d="M131.89,80.55a4.58,4.58,0,0,1-2.75-1.93,4.59,4.59,0,0,1-2.63-1.3l-2.5,1h0a1.5,1.5,0,1,1-1.14-2.77l4.29-1.77a2.54,2.54,0,1,0-1.94-4.7l-4.29,1.77a1.5,1.5,0,0,1-1.77-.5,8.41,8.41,0,0,0,12.73,10.16Z"/><path class="cls-1" d="M50.63,86.66A4.35,4.35,0,0,0,49,88a9,9,0,0,0-1.36,5.22,10.32,10.32,0,0,0,.78,4.2,5.44,5.44,0,0,0,1,1.53,9.22,9.22,0,0,1,1.6-.48,11.37,11.37,0,0,1,1.17-12.32A4.88,4.88,0,0,0,50.63,86.66Z"/><path class="cls-1" d="M61.88,114.57a5.85,5.85,0,0,0-1.34-.85,2.17,2.17,0,0,0-.85-.2,1.57,1.57,0,0,0-.91.31,5.14,5.14,0,0,0-1.07,1,5,5,0,0,0-.61.91,1.27,1.27,0,0,0-.15.56,1.36,1.36,0,0,0,.28.75,6.75,6.75,0,0,0,1.44,1.47,10,10,0,0,0,2.5,1.5,5.9,5.9,0,0,0,2.16.48,2.42,2.42,0,0,0,.88-.14,1,1,0,0,0,.44-.31,1.21,1.21,0,0,0,.23-.79,4.53,4.53,0,0,0-.73-2.18A9.72,9.72,0,0,0,61.88,114.57Z"/><path class="cls-1" d="M69.1,81.84h4.85a5.84,5.84,0,0,1,.29-.84l-11-2.75V88.43l11-2.75a5.84,5.84,0,0,1-.29-.84H69.1a1.5,1.5,0,0,1,0-3Z"/><path class="cls-1" d="M55.25,87.31a8.41,8.41,0,0,0-.61,11.21A10.21,10.21,0,0,1,59,100.67a12.82,12.82,0,0,1,1,.91,8.47,8.47,0,0,0,1.21.1,7.09,7.09,0,0,0,1.72-.2L67.44,91.1c0-.2-.05-.41-.09-.6l-5.25,1.31a1.5,1.5,0,0,1-1.86-1.46V84.9A8.38,8.38,0,0,0,55.25,87.31Z"/><path class="cls-1" d="M66.55,112.4a15.22,15.22,0,0,0-5-3.36,1.49,1.49,0,0,1-.76-.8A13.06,13.06,0,0,0,57.1,103a6.76,6.76,0,0,0-4.29-1.67,6.19,6.19,0,0,0-3.05.85,11.93,11.93,0,0,1,2.36.68,15.9,15.9,0,0,1,4,2.37,11,11,0,0,1,2.5,2.69,5.41,5.41,0,0,1,.84,2.63l.26,0a5.16,5.16,0,0,1,2,.44,8.79,8.79,0,0,1,2.05,1.28l-.94,1.17.94-1.17a12.7,12.7,0,0,1,3,3.35,9.7,9.7,0,0,1,.57,1.14,4.34,4.34,0,0,0,.4-1.72,3.21,3.21,0,0,0-.24-1.22A4.84,4.84,0,0,0,66.55,112.4Z"/><path class="cls-1" d="M54.2,107.56l.94-1.17-.94,1.17A12.91,12.91,0,0,0,51,105.64a7.73,7.73,0,0,0-2.83-.63,3.39,3.39,0,0,0-1.24.21,1.65,1.65,0,0,0-.7.49,1.87,1.87,0,0,0-.37,1.22,6,6,0,0,0,1,2.91,12.5,12.5,0,0,0,2.9,3.28,8.47,8.47,0,0,0,1.89,1.2,3.16,3.16,0,0,0,1.26.3,2.15,2.15,0,0,0,1.21-.39,5.89,5.89,0,0,0,1.3-1.25,6.33,6.33,0,0,0,.82-1.25,2.33,2.33,0,0,0,.25-1,2.35,2.35,0,0,0-.41-1.26A8.05,8.05,0,0,0,54.2,107.56Z"/><path class="cls-1" d="M49.28,84A8.27,8.27,0,0,1,53,83.14a10.11,10.11,0,0,1,2.38.29A11.33,11.33,0,0,1,59.53,82c-1.12-1.28-2.21-2.62-3.23-4a6,6,0,0,1-.87.23,15.78,15.78,0,0,0-6,2.15,4.9,4.9,0,0,0-1.92,2.09,3,3,0,0,0-.24,1.2,4.07,4.07,0,0,0,.34,1.53A7.08,7.08,0,0,1,49.28,84Z"/><path class="cls-1" d="M91.79,35.08A13.59,13.59,0,0,0,95,31a10.39,10.39,0,0,0,1-4.57,16.41,16.41,0,0,0-1.28-6c-.26-.64-.52-1.19-.74-1.62-.57.23-1.31.55-2.17,1a33.07,33.07,0,0,0-3.44,1.94,15.44,15.44,0,0,1,1.14,5.64,15.84,15.84,0,0,1-1.42,6.36,21.81,21.81,0,0,1-1.33,2.53,16.11,16.11,0,0,1,2.29,1A23.18,23.18,0,0,0,91.79,35.08Z"/><path class="cls-1" d="M75.8,35.45a23.1,23.1,0,0,1,2.49-.29V28a1.5,1.5,0,0,1,3,0v7.15a23.12,23.12,0,0,1,2.42.28,19.53,19.53,0,0,0,1.65-3,12.86,12.86,0,0,0,1.17-5.15,12.81,12.81,0,0,0-1.13-5.08,21,21,0,0,0-2.6-4.34,27.89,27.89,0,0,0-3-3.36c-.42.39-.94.9-1.51,1.53a23.17,23.17,0,0,0-4.1,6.1A12.86,12.86,0,0,0,73,27.3a12.81,12.81,0,0,0,1.13,5.08A19.55,19.55,0,0,0,75.8,35.45Z"/><path class="cls-1" d="M67.58,35a23.21,23.21,0,0,0,2.87,2.2,16.11,16.11,0,0,1,2.28-1,21.93,21.93,0,0,1-1.34-2.55A15.84,15.84,0,0,1,70,27.3a15.44,15.44,0,0,1,1.14-5.65c-.37-.24-.73-.46-1.09-.67a35.33,35.33,0,0,0-4.52-2.22c-.21.41-.46.94-.71,1.54a16.47,16.47,0,0,0-1.31,6.11,10.4,10.4,0,0,0,1,4.57A13.45,13.45,0,0,0,67.58,35Z"/><circle class="cls-1" cx="79.62" cy="83.34" r="2.88"/><path class="cls-1" d="M129.15,78.62a4.59,4.59,0,0,1-2.63-1.3l-2.5,1h0a1.5,1.5,0,1,1-1.14-2.77l4.29-1.77a2.54,2.54,0,1,0-1.94-4.7l-4.29,1.77a1.5,1.5,0,0,1-1.77-.5,8.41,8.41,0,0,0,12.73,10.16A4.58,4.58,0,0,1,129.15,78.62Z"/><path class="cls-1" d="M137,68.24c-.11-.11-.23-.22-.35-.33a8.54,8.54,0,0,1-3.82,9.75H133a5.55,5.55,0,0,0,3.87-1.57h0a5.55,5.55,0,0,0,1.68-3.91h0v-.08A5.55,5.55,0,0,0,137,68.25Z"/><path class="cls-1" d="M133.46,72.75a5.55,5.55,0,0,0,.26-4.24h0a5.53,5.53,0,0,0-2.08-2.73,19.7,19.7,0,0,1-1.16,2.17,5.55,5.55,0,0,1,.85,1.41h0a5.53,5.53,0,0,1-1.51,6.3,1.56,1.56,0,0,0,.46-.08h0a5.55,5.55,0,0,0,3.18-2.82Z"/><path class="cls-1" d="M102,114.87h0a5.14,5.14,0,0,0-1.07-1,1.57,1.57,0,0,0-.91-.31,2.17,2.17,0,0,0-.85.2,5.84,5.84,0,0,0-1.34.85l-.94-1.17.94,1.17a9.72,9.72,0,0,0-2.26,2.55,4.53,4.53,0,0,0-.73,2.18,1.2,1.2,0,0,0,.23.79,1,1,0,0,0,.44.31,2.42,2.42,0,0,0,.88.14,5.9,5.9,0,0,0,2.16-.48,10.05,10.05,0,0,0,2.5-1.5,6.75,6.75,0,0,0,1.44-1.47,1.36,1.36,0,0,0,.28-.75,1.27,1.27,0,0,0-.15-.56A5,5,0,0,0,102,114.87Z"/><path class="cls-1" d="M115.51,75.17a5.11,5.11,0,0,0-.68,1.11,4.21,4.21,0,0,0-.35,1.7,5.86,5.86,0,0,0,.71,2.65A12.31,12.31,0,0,0,120,85.48a5.86,5.86,0,0,0,2.65.71,4.21,4.21,0,0,0,1.7-.35,5.11,5.11,0,0,0,1.11-.68,11.38,11.38,0,0,1-10-10Z"/><path class="cls-1" d="M105.53,107.56a8.05,8.05,0,0,0-1.83,1.93,2.35,2.35,0,0,0-.41,1.26,2.33,2.33,0,0,0,.25,1,6.33,6.33,0,0,0,.82,1.25,5.89,5.89,0,0,0,1.3,1.25,2.15,2.15,0,0,0,1.21.39,3.16,3.16,0,0,0,1.26-.3,8.47,8.47,0,0,0,1.89-1.2,12.5,12.5,0,0,0,2.9-3.28,6,6,0,0,0,1-2.91,1.87,1.87,0,0,0-.37-1.22,1.65,1.65,0,0,0-.7-.49,3.39,3.39,0,0,0-1.24-.21,7.73,7.73,0,0,0-2.83.63A12.91,12.91,0,0,0,105.53,107.56Z"/><path class="cls-1" d="M85.3,81.84h4.85a1.5,1.5,0,0,1,0,3H85.3a5.84,5.84,0,0,1-.29.84l11,2.75V78.25L85,81A5.84,5.84,0,0,1,85.3,81.84Z"/><path class="cls-1" d="M95.21,35.89c-.45.5-.92,1-1.42,1.42a25.34,25.34,0,0,1-2.24,1.78,1.5,1.5,0,0,1-2.35,1.68,11.39,11.39,0,0,0-3.89-1.91,20.43,20.43,0,0,0-11.3.07A10.69,10.69,0,0,0,70.1,41,1.5,1.5,0,0,1,68,40.89,1.48,1.48,0,0,1,67.89,39a25.28,25.28,0,0,1-2.19-1.73c-.49-.44-1-.92-1.42-1.42-7.69,3.33-13.44,9.75-13.44,20.43,0,6.48,3.47,14.48,9.38,21.81V76.33a1.5,1.5,0,0,1,1.86-1.46l14.29,3.57a5.87,5.87,0,0,1,6.49,0l14.29-3.57A1.5,1.5,0,0,1,99,76.33v2.12c6.06-7.41,9.63-15.55,9.63-22.12C108.65,45.64,102.9,39.23,95.21,35.89Z"/><path class="cls-1" d="M92.45,116.72a9.7,9.7,0,0,1,.57-1.14,12.69,12.69,0,0,1,3-3.35h0A8.79,8.79,0,0,1,98,111a5.16,5.16,0,0,1,2-.44l.26,0a5.41,5.41,0,0,1,.84-2.63,11,11,0,0,1,2.5-2.69l.94,1.17-.94-1.17a15.9,15.9,0,0,1,4-2.37,11.93,11.93,0,0,1,2.36-.68,6.19,6.19,0,0,0-3.05-.85,6.76,6.76,0,0,0-4.29,1.67A13.06,13.06,0,0,0,99,108.24a1.49,1.49,0,0,1-.76.8A18.26,18.26,0,0,0,94,111.61a5.83,5.83,0,0,0-1.7,2.18A3.21,3.21,0,0,0,92,115,4.34,4.34,0,0,0,92.45,116.72Z"/><path class="cls-1" d="M126.19,65.92a5.51,5.51,0,0,1,1.81.32,16.64,16.64,0,0,0,1.55-3.36h0a19.11,19.11,0,0,0,.93-6q0-.23,0-.45h0a2.3,2.3,0,0,0-2.3-2.26h0a2.3,2.3,0,0,0-2.26,2.3v0h0q0,.18,0,.36a14.54,14.54,0,0,1-.7,4.57h0a9.86,9.86,0,0,1-.75,1.6c-.31.56-.69,1.15-1.08,1.74a25.2,25.2,0,0,1-2.13,2.76l2.88-1.18A5.53,5.53,0,0,1,126.19,65.92Z"/><path d="M139.17,66.15a8.55,8.55,0,0,0-5.42-2.55,8.51,8.51,0,0,0-1.09-.73,22.51,22.51,0,0,0,.82-6q0-.26,0-.51h0a5.3,5.3,0,0,0-5.3-5.2h-.11a5.3,5.3,0,0,0-5.2,5.3v.11h0q0,.15,0,.29a11.56,11.56,0,0,1-.55,3.63,7.19,7.19,0,0,1-.52,1.09,24.45,24.45,0,0,1-1.5,2.32,17.64,17.64,0,0,1-1.55,1.89h0a11.36,11.36,0,0,0-3,5.22,10.09,10.09,0,0,0-1.89,1.47,8.52,8.52,0,0,0-1.83,2.63,7.22,7.22,0,0,0-.6,2.89,8.13,8.13,0,0,0,.38,2.37,4.14,4.14,0,0,1-1.64.39,3,3,0,0,1-1.2-.24,4.9,4.9,0,0,1-2.09-1.92,13.25,13.25,0,0,1-1.61-3.69c3.78-5.92,6.34-12.45,6.34-18.56,0-11.23-5.8-18.84-14.57-22.9.23-.37.45-.75.65-1.15l-1.35-.65,1.35.65A13.4,13.4,0,0,0,99,26.41a19.42,19.42,0,0,0-1.54-7.25,20.11,20.11,0,0,0-1.56-3.08,1.5,1.5,0,0,0-1.73-.61,36.41,36.41,0,0,0-5.94,2.74c-.39.22-.78.46-1.17.71A28,28,0,0,0,83.48,14a27.11,27.11,0,0,0-2.79-2.69,1.5,1.5,0,0,0-1.87,0,29.38,29.38,0,0,0-4.39,4.58,26.27,26.27,0,0,0-2,3A36.59,36.59,0,0,0,69,17a33.66,33.66,0,0,0-3.68-1.55,1.5,1.5,0,0,0-1.73.6A20.11,20.11,0,0,0,62,19.16a19.42,19.42,0,0,0-1.54,7.25,13.4,13.4,0,0,0,1.3,5.87c.19.4.42.78.65,1.15-8.77,4.05-14.57,11.67-14.57,22.9a29.32,29.32,0,0,0,2.3,10.78,28.25,28.25,0,0,0-4.29,1.54A19.08,19.08,0,0,0,38,75a15.13,15.13,0,0,0-2.74,8.68,16.11,16.11,0,0,0,1.49,6.71A18.18,18.18,0,0,0,43.46,98a18.72,18.72,0,0,0,2.62,1.41,8.82,8.82,0,0,0,.52.83c.07.1.16.2.24.3a14.23,14.23,0,0,0-3,3.43l0,.05a4.91,4.91,0,0,0-.92,2.93,8.92,8.92,0,0,0,1.38,4.44,15.47,15.47,0,0,0,3.6,4.09,11.41,11.41,0,0,0,2.57,1.62,6.14,6.14,0,0,0,2.46.55,4.87,4.87,0,0,0,1.25-.17,4.79,4.79,0,0,0,.59,1.26,9.61,9.61,0,0,0,2.07,2.18A13,13,0,0,0,60,122.84a8.84,8.84,0,0,0,3.28.7,5.39,5.39,0,0,0,2-.35A4,4,0,0,0,67,122a3.67,3.67,0,0,0,.22-.34,1.49,1.49,0,0,0,.82-.51,15.38,15.38,0,0,0,1.79-2.69,7.62,7.62,0,0,0,.89-3.43,6.15,6.15,0,0,0-.1-1.08L78.83,95a9.05,9.05,0,0,0,.92.05,9.18,9.18,0,0,0,1.1-.07l.1.11,8.2,18.85A6.15,6.15,0,0,0,89,115a7.62,7.62,0,0,0,.89,3.43,15.38,15.38,0,0,0,1.79,2.69,1.49,1.49,0,0,0,.82.51,3.69,3.69,0,0,0,.22.34,4,4,0,0,0,1.67,1.21,5.39,5.39,0,0,0,2,.35,8.85,8.85,0,0,0,3.28-.7,13,13,0,0,0,3.26-1.94,9.61,9.61,0,0,0,2.07-2.18,4.79,4.79,0,0,0,.59-1.26,4.87,4.87,0,0,0,1.25.17,6.14,6.14,0,0,0,2.46-.55,11.41,11.41,0,0,0,2.57-1.62,15.48,15.48,0,0,0,3.6-4.09,8.92,8.92,0,0,0,1.38-4.44A4.91,4.91,0,0,0,116,104l0-.05a13.42,13.42,0,0,0-4.12-4.19,9.26,9.26,0,0,0-4.9-1.44,9.76,9.76,0,0,0-6.19,2.35,14.18,14.18,0,0,0-2.85,3.25L92.05,90.53l5.1,1.28A1.5,1.5,0,0,0,99,90.35V87.82A16.66,16.66,0,0,0,101.54,90a15.13,15.13,0,0,0,8.68,2.74,16.11,16.11,0,0,0,6.71-1.49,17.73,17.73,0,0,0,3.73-2.33,8,8,0,0,0,2,.27,7.22,7.22,0,0,0,2.89-.6,8.52,8.52,0,0,0,2.63-1.83,10.09,10.09,0,0,0,1.47-1.89,11.35,11.35,0,0,0,5.22-3A10.09,10.09,0,0,0,136.42,80a8.54,8.54,0,0,0,5.17-7.74v-.13A8.55,8.55,0,0,0,139.17,66.15ZM88.1,33.66a15.84,15.84,0,0,0,1.42-6.36,15.44,15.44,0,0,0-1.14-5.64,33.07,33.07,0,0,1,3.44-1.94c.85-.42,1.6-.73,2.17-1,.22.43.48,1,.74,1.62a16.41,16.41,0,0,1,1.28,6A10.39,10.39,0,0,1,95,31a13.59,13.59,0,0,1-3.23,4.1,23.18,23.18,0,0,1-2.72,2.06,16.11,16.11,0,0,0-2.29-1A21.81,21.81,0,0,0,88.1,33.66Zm-14-11.51a23.17,23.17,0,0,1,4.1-6.1c.57-.63,1.09-1.14,1.51-1.53a27.89,27.89,0,0,1,3,3.36,21,21,0,0,1,2.6,4.34,12.81,12.81,0,0,1,1.13,5.08,12.86,12.86,0,0,1-1.17,5.15,19.53,19.53,0,0,1-1.65,3,23.12,23.12,0,0,0-2.42-.28V28a1.5,1.5,0,0,0-3,0v7.15a23.1,23.1,0,0,0-2.49.29,19.55,19.55,0,0,1-1.7-3.07A12.81,12.81,0,0,1,73,27.3,12.86,12.86,0,0,1,74.14,22.15ZM64.79,20.3c.25-.61.5-1.13.71-1.54A35.33,35.33,0,0,1,70,21c.36.21.73.44,1.09.67A15.44,15.44,0,0,0,70,27.3a15.84,15.84,0,0,0,1.42,6.36,21.93,21.93,0,0,0,1.34,2.55,16.11,16.11,0,0,0-2.28,1A23.21,23.21,0,0,1,67.58,35a13.45,13.45,0,0,1-3.11-4,10.4,10.4,0,0,1-1-4.57A16.47,16.47,0,0,1,64.79,20.3ZM47.54,82.43a4.9,4.9,0,0,1,1.92-2.09,15.78,15.78,0,0,1,6-2.15A6,6,0,0,0,56.3,78c1,1.39,2.11,2.73,3.23,4a11.33,11.33,0,0,0-4.12,1.46A10.11,10.11,0,0,0,53,83.14a8.27,8.27,0,0,0-3.75.84,7.08,7.08,0,0,0-1.65,1.18,4.07,4.07,0,0,1-.34-1.53A3,3,0,0,1,47.54,82.43Zm13.27,9.1a1.5,1.5,0,0,0,1.29.27l5.25-1.31c0,.19.06.4.09.6l-4.51,10.38a7.09,7.09,0,0,1-1.72.2,8.47,8.47,0,0,1-1.21-.1,12.82,12.82,0,0,0-1-.91,10.21,10.21,0,0,0-4.36-2.15A8.41,8.41,0,0,1,60.23,84.9v5.45A1.5,1.5,0,0,0,60.8,91.53Zm-9.73,7a9.22,9.22,0,0,0-1.6.48,5.44,5.44,0,0,1-1-1.53,10.32,10.32,0,0,1-.78-4.2A9,9,0,0,1,49,88a4.35,4.35,0,0,1,1.59-1.38,4.88,4.88,0,0,1,1.62-.47,11.37,11.37,0,0,0-1.17,12.32Zm5.11,13.22a6.33,6.33,0,0,1-.82,1.25,5.89,5.89,0,0,1-1.3,1.25,2.15,2.15,0,0,1-1.21.39,3.16,3.16,0,0,1-1.26-.3,8.47,8.47,0,0,1-1.89-1.2,12.5,12.5,0,0,1-2.9-3.28,6,6,0,0,1-1-2.91,1.87,1.87,0,0,1,.37-1.22,1.65,1.65,0,0,1,.7-.49,3.39,3.39,0,0,1,1.24-.21,7.73,7.73,0,0,1,2.83.63,12.91,12.91,0,0,1,3.21,1.92h0A8.05,8.05,0,0,1,56,109.49a2.35,2.35,0,0,1,.41,1.26A2.33,2.33,0,0,1,56.19,111.74Zm8.44,8.35a1,1,0,0,1-.44.31,2.42,2.42,0,0,1-.88.14,5.9,5.9,0,0,1-2.16-.48,10,10,0,0,1-2.5-1.5,6.75,6.75,0,0,1-1.44-1.47,1.36,1.36,0,0,1-.28-.75,1.27,1.27,0,0,1,.15-.56,5,5,0,0,1,.61-.91,5.14,5.14,0,0,1,1.07-1,1.57,1.57,0,0,1,.91-.31,2.17,2.17,0,0,1,.85.2,5.85,5.85,0,0,1,1.34.85,9.72,9.72,0,0,1,2.26,2.55,4.53,4.53,0,0,1,.73,2.18A1.21,1.21,0,0,1,64.63,120.09Zm2.65-3.36a9.7,9.7,0,0,0-.57-1.14,12.7,12.7,0,0,0-3-3.35h0A8.79,8.79,0,0,0,61.71,111a5.16,5.16,0,0,0-2-.44l-.26,0a5.41,5.41,0,0,0-.84-2.63,11,11,0,0,0-2.5-2.69,15.9,15.9,0,0,0-4-2.37,11.93,11.93,0,0,0-2.36-.68,6.19,6.19,0,0,1,3.05-.85A6.76,6.76,0,0,1,57.1,103a13.06,13.06,0,0,1,3.64,5.26,1.49,1.49,0,0,0,.76.8,15.22,15.22,0,0,1,5,3.36,4.84,4.84,0,0,1,.9,1.4,3.21,3.21,0,0,1,.24,1.22A4.34,4.34,0,0,1,67.28,116.72ZM69.1,84.84h4.85a5.84,5.84,0,0,0,.29.84l-11,2.75V78.25l11,2.75a5.84,5.84,0,0,0-.29.84H69.1a1.5,1.5,0,0,0,0,3Zm10.52,1.38a2.88,2.88,0,1,1,2.88-2.88A2.88,2.88,0,0,1,79.62,86.22Zm22.89,30.87a6.75,6.75,0,0,1-1.44,1.47,10.05,10.05,0,0,1-2.5,1.5,5.9,5.9,0,0,1-2.16.48,2.42,2.42,0,0,1-.88-.14,1,1,0,0,1-.44-.31,1.2,1.2,0,0,1-.23-.79,4.53,4.53,0,0,1,.73-2.18,9.72,9.72,0,0,1,2.26-2.55l-.94-1.17.94,1.17a5.84,5.84,0,0,1,1.34-.85,2.17,2.17,0,0,1,.85-.2,1.57,1.57,0,0,1,.91.31,5.14,5.14,0,0,1,1.07,1h0a5,5,0,0,1,.61.91,1.27,1.27,0,0,1,.15.56A1.36,1.36,0,0,1,102.52,117.09Zm10.3-11.87a1.65,1.65,0,0,1,.7.49,1.87,1.87,0,0,1,.37,1.22,6,6,0,0,1-1,2.91,12.5,12.5,0,0,1-2.9,3.28,8.47,8.47,0,0,1-1.89,1.2,3.16,3.16,0,0,1-1.26.3,2.15,2.15,0,0,1-1.21-.39,5.89,5.89,0,0,1-1.3-1.25,6.33,6.33,0,0,1-.82-1.25,2.33,2.33,0,0,1-.25-1,2.35,2.35,0,0,1,.41-1.26,8.05,8.05,0,0,1,1.83-1.93,12.91,12.91,0,0,1,3.21-1.92,7.73,7.73,0,0,1,2.83-.63A3.39,3.39,0,0,1,112.81,105.21Zm-20.53,8.58a5.83,5.83,0,0,1,1.7-2.18A18.26,18.26,0,0,1,98.23,109a1.49,1.49,0,0,0,.76-.8,13.06,13.06,0,0,1,3.64-5.26,6.76,6.76,0,0,1,4.29-1.67,6.19,6.19,0,0,1,3.05.85,11.93,11.93,0,0,0-2.36.68,15.9,15.9,0,0,0-4,2.37h0a11,11,0,0,0-2.5,2.69,5.41,5.41,0,0,0-.84,2.63l-.26,0a5.16,5.16,0,0,0-2,.44A8.79,8.79,0,0,0,96,112.23h0a12.69,12.69,0,0,0-3,3.35,9.7,9.7,0,0,0-.57,1.14A4.34,4.34,0,0,1,92,115,3.21,3.21,0,0,1,92.29,113.79ZM96,88.43,85,85.68a5.84,5.84,0,0,0,.29-.84h4.85a1.5,1.5,0,0,0,0-3H85.3A5.84,5.84,0,0,0,85,81l11-2.75Zm3-10V76.33a1.5,1.5,0,0,0-1.86-1.46L82.87,78.45a5.87,5.87,0,0,0-6.49,0L62.09,74.88a1.5,1.5,0,0,0-1.86,1.46v1.81c-5.9-7.33-9.38-15.33-9.38-21.81,0-10.68,5.74-17.1,13.44-20.43.45.5.92,1,1.42,1.42A25.28,25.28,0,0,0,67.89,39,1.48,1.48,0,0,0,68,40.89,1.5,1.5,0,0,0,70.1,41,10.69,10.69,0,0,1,74,38.94a20.43,20.43,0,0,1,11.3-.07,11.39,11.39,0,0,1,3.89,1.91,1.5,1.5,0,0,0,2.35-1.68,25.34,25.34,0,0,0,2.24-1.78c.49-.44,1-.92,1.42-1.42,7.69,3.33,13.44,9.75,13.44,20.43C108.65,62.9,105.08,71,99,78.45Zm24.32-13.68c.4-.59.77-1.18,1.08-1.74a9.86,9.86,0,0,0,.75-1.6h0a14.54,14.54,0,0,0,.7-4.57q0-.18,0-.36h0v0a2.3,2.3,0,0,1,2.26-2.3h0a2.3,2.3,0,0,1,2.3,2.26h0q0,.22,0,.45a19.11,19.11,0,0,1-.93,6h0A16.64,16.64,0,0,1,128,66.24a5.43,5.43,0,0,0-3.92.1l-2.88,1.18A25.2,25.2,0,0,0,123.34,64.77Zm1,21.07a4.21,4.21,0,0,1-1.7.35,5.86,5.86,0,0,1-2.65-.71,12.31,12.31,0,0,1-4.86-4.86,5.86,5.86,0,0,1-.71-2.65,4.21,4.21,0,0,1,.35-1.7,5.11,5.11,0,0,1,.68-1.11,11.38,11.38,0,0,0,10,10A5.11,5.11,0,0,1,124.39,85.83Zm2.45-3.59a8.4,8.4,0,0,1-7.67-11.86,1.5,1.5,0,0,0,1.77.5l4.29-1.77a2.54,2.54,0,1,1,1.94,4.7l-4.29,1.77A1.5,1.5,0,1,0,124,78.35h0l2.5-1a4.59,4.59,0,0,0,2.63,1.3,4.58,4.58,0,0,0,2.75,1.93A8.38,8.38,0,0,1,126.84,82.24Zm3.43-6.67h0a1.56,1.56,0,0,1-.46.08,5.53,5.53,0,0,0,1.51-6.3h0a5.55,5.55,0,0,0-.85-1.41,19.7,19.7,0,0,0,1.16-2.17,5.53,5.53,0,0,1,2.08,2.73h0a5.55,5.55,0,0,1-.26,4.24h0A5.55,5.55,0,0,1,130.27,75.58Zm8.32-3.38h0a5.55,5.55,0,0,1-1.68,3.91h0A5.55,5.55,0,0,1,133,77.68h-.19a8.52,8.52,0,0,0,3.82-9.75c.12.1.24.21.35.33h0a5.55,5.55,0,0,1,1.57,3.87Z"/><polygon class="cls-2" points="79.76 70.91 81.66 66.81 77.85 66.81 79.76 70.91"/><path class="cls-2" d="M50.85,56.33c0,6.48,3.47,14.48,9.38,21.81V76.33a1.5,1.5,0,0,1,1.86-1.46l14.29,3.57a5.87,5.87,0,0,1,6.49,0l14.29-3.57A1.5,1.5,0,0,1,99,76.33v2.12c6.06-7.41,9.63-15.55,9.63-22.12,0-10.68-5.74-17.1-13.44-20.43-.45.5-.92,1-1.42,1.42a25.34,25.34,0,0,1-2.24,1.78,1.5,1.5,0,0,1-2.35,1.68,11.39,11.39,0,0,0-3.89-1.91,20.43,20.43,0,0,0-11.3.07A10.69,10.69,0,0,0,70.1,41,1.5,1.5,0,0,1,68,40.89,1.48,1.48,0,0,1,67.89,39a25.28,25.28,0,0,1-2.19-1.73c-.49-.44-1-.92-1.42-1.42C56.59,39.23,50.85,45.64,50.85,56.33Zm35.9-2.51-4.8-1.89A1.5,1.5,0,0,1,83,49.14L87.85,51a1.5,1.5,0,0,1-1.1,2.79Zm1.08,4.83a1.5,1.5,0,0,1-3,0,.83.83,0,1,0-1.67,0,1.5,1.5,0,0,1-3,0,3.83,3.83,0,1,1,7.67,0ZM78.26,50a1.5,1.5,0,0,1-.85,1.94l-4.8,1.89A1.5,1.5,0,1,1,71.51,51l4.8-1.89A1.5,1.5,0,0,1,78.26,50Zm-3.09,4.83A3.83,3.83,0,0,1,79,58.65a1.5,1.5,0,0,1-3,0,.83.83,0,1,0-1.67,0,1.5,1.5,0,0,1-3,0A3.83,3.83,0,0,1,75.18,54.81ZM88.66,69.68a1.5,1.5,0,0,1,0,3,5.9,5.9,0,0,1-5.07-2.89l-2.45,5.32a1.5,1.5,0,0,1-2.72,0l-2.49-5.34a5.9,5.9,0,0,1-5.08,2.91,1.5,1.5,0,0,1,0-3,2.91,2.91,0,0,0,0-5.81,1.5,1.5,0,0,1,0-3,5.9,5.9,0,0,1,5.1,2.94h7.62a5.9,5.9,0,0,1,5.1-2.94,1.5,1.5,0,0,1,0,3,2.91,2.91,0,0,0,0,5.81Zm5.45-5.12a1.5,1.5,0,1,1,2.12-2.12l.93.93.93-.93a1.5,1.5,0,1,1,2.12,2.12l-.93.93.93.93a1.5,1.5,0,1,1-2.12,2.12l-.93-.93-.93.93a1.5,1.5,0,1,1-2.12-2.12l.93-.93Zm-34.59,0a1.5,1.5,0,1,1,2.12-2.12l.93.93.93-.93a1.5,1.5,0,1,1,2.12,2.12l-.93.93.93.93a1.5,1.5,0,1,1-2.12,2.12l-.93-.93-.93.93a1.5,1.5,0,0,1-2.12-2.12l.93-.93Z"/><path class="cls-2" d="M66.55,112.4a15.22,15.22,0,0,0-5-3.36,1.49,1.49,0,0,1-.76-.8A13.06,13.06,0,0,0,57.1,103a6.76,6.76,0,0,0-4.29-1.67,6.19,6.19,0,0,0-3.05.85,11.93,11.93,0,0,1,2.36.68,15.9,15.9,0,0,1,4,2.37,11,11,0,0,1,2.5,2.69,5.41,5.41,0,0,1,.84,2.63l.26,0a5.16,5.16,0,0,1,2,.44,8.79,8.79,0,0,1,2.05,1.28h0a12.7,12.7,0,0,1,3,3.35,9.7,9.7,0,0,1,.57,1.14,4.34,4.34,0,0,0,.4-1.72,3.21,3.21,0,0,0-.24-1.22A4.84,4.84,0,0,0,66.55,112.4Z"/><path class="cls-2" d="M57.22,117.09a6.75,6.75,0,0,0,1.44,1.47,10,10,0,0,0,2.5,1.5,5.9,5.9,0,0,0,2.16.48,2.42,2.42,0,0,0,.88-.14,1,1,0,0,0,.44-.31,1.21,1.21,0,0,0,.23-.79,4.53,4.53,0,0,0-.73-2.18,9.72,9.72,0,0,0-2.26-2.55h0a5.85,5.85,0,0,0-1.34-.85,2.17,2.17,0,0,0-.85-.2,1.57,1.57,0,0,0-.91.31,5.14,5.14,0,0,0-1.07,1,5,5,0,0,0-.61.91,1.27,1.27,0,0,0-.15.56A1.36,1.36,0,0,0,57.22,117.09Z"/><path class="cls-2" d="M55.37,113a6.33,6.33,0,0,0,.82-1.25,2.33,2.33,0,0,0,.25-1,2.35,2.35,0,0,0-.41-1.26,8.05,8.05,0,0,0-1.83-1.93h0A12.91,12.91,0,0,0,51,105.64a7.73,7.73,0,0,0-2.83-.63,3.39,3.39,0,0,0-1.24.21,1.65,1.65,0,0,0-.7.49,1.87,1.87,0,0,0-.37,1.22,6,6,0,0,0,1,2.91,12.5,12.5,0,0,0,2.9,3.28,8.47,8.47,0,0,0,1.89,1.2,3.16,3.16,0,0,0,1.26.3,2.15,2.15,0,0,0,1.21-.39A5.89,5.89,0,0,0,55.37,113Z"/><path class="cls-2" d="M94,111.61a5.83,5.83,0,0,0-1.7,2.18A3.21,3.21,0,0,0,92,115a4.34,4.34,0,0,0,.4,1.72,9.7,9.7,0,0,1,.57-1.14,12.69,12.69,0,0,1,3-3.35h0A8.79,8.79,0,0,1,98,111a5.16,5.16,0,0,1,2-.44l.26,0a5.41,5.41,0,0,1,.84-2.63,11,11,0,0,1,2.5-2.69h0a15.9,15.9,0,0,1,4-2.37,11.93,11.93,0,0,1,2.36-.68,6.19,6.19,0,0,0-3.05-.85,6.76,6.76,0,0,0-4.29,1.67A13.06,13.06,0,0,0,99,108.24a1.49,1.49,0,0,1-.76.8A18.26,18.26,0,0,0,94,111.61Z"/><path class="cls-2" d="M102.64,115.78a5,5,0,0,0-.61-.91h0a5.14,5.14,0,0,0-1.07-1,1.57,1.57,0,0,0-.91-.31,2.17,2.17,0,0,0-.85.2,5.84,5.84,0,0,0-1.34.85h0a9.72,9.72,0,0,0-2.26,2.55,4.53,4.53,0,0,0-.73,2.18,1.2,1.2,0,0,0,.23.79,1,1,0,0,0,.44.31,2.42,2.42,0,0,0,.88.14,5.9,5.9,0,0,0,2.16-.48,10.05,10.05,0,0,0,2.5-1.5,6.75,6.75,0,0,0,1.44-1.47,1.36,1.36,0,0,0,.28-.75A1.27,1.27,0,0,0,102.64,115.78Z"/><path class="cls-2" d="M113.89,106.93a1.87,1.87,0,0,0-.37-1.22,1.65,1.65,0,0,0-.7-.49,3.39,3.39,0,0,0-1.24-.21,7.73,7.73,0,0,0-2.83.63,12.91,12.91,0,0,0-3.21,1.92h0a8.05,8.05,0,0,0-1.83,1.93,2.35,2.35,0,0,0-.41,1.26,2.33,2.33,0,0,0,.25,1,6.33,6.33,0,0,0,.82,1.25,5.89,5.89,0,0,0,1.3,1.25,2.15,2.15,0,0,0,1.21.39,3.16,3.16,0,0,0,1.26-.3,8.47,8.47,0,0,0,1.89-1.2,12.5,12.5,0,0,0,2.9-3.28A6,6,0,0,0,113.89,106.93Z"/><path class="cls-2" d="M94.74,20.38c-.26-.64-.52-1.19-.74-1.62-.57.23-1.31.55-2.17,1a33.07,33.07,0,0,0-3.44,1.94,15.44,15.44,0,0,1,1.14,5.64,15.84,15.84,0,0,1-1.42,6.36,21.81,21.81,0,0,1-1.33,2.53,16.11,16.11,0,0,1,2.29,1,23.18,23.18,0,0,0,2.72-2.06A13.59,13.59,0,0,0,95,31h0a10.39,10.39,0,0,0,1-4.57A16.41,16.41,0,0,0,94.74,20.38Z"/><path class="cls-2" d="M67.58,35a23.21,23.21,0,0,0,2.87,2.2,16.11,16.11,0,0,1,2.28-1,21.93,21.93,0,0,1-1.34-2.55A15.84,15.84,0,0,1,70,27.3a15.44,15.44,0,0,1,1.14-5.65c-.37-.24-.73-.46-1.09-.67a35.33,35.33,0,0,0-4.52-2.22c-.21.41-.46.94-.71,1.54a16.47,16.47,0,0,0-1.31,6.11,10.4,10.4,0,0,0,1,4.57A13.45,13.45,0,0,0,67.58,35Z"/><path class="cls-2" d="M74.14,22.15A12.86,12.86,0,0,0,73,27.3a12.81,12.81,0,0,0,1.13,5.08,19.55,19.55,0,0,0,1.7,3.07,23.1,23.1,0,0,1,2.49-.29V28a1.5,1.5,0,0,1,3,0v7.15a23.12,23.12,0,0,1,2.42.28,19.53,19.53,0,0,0,1.65-3,12.86,12.86,0,0,0,1.17-5.15,12.81,12.81,0,0,0-1.13-5.08,21,21,0,0,0-2.6-4.34,27.89,27.89,0,0,0-3-3.36c-.42.39-.94.9-1.51,1.53A23.17,23.17,0,0,0,74.14,22.15Z"/><path d="M88.66,63.87a1.5,1.5,0,0,0,0-3,5.9,5.9,0,0,0-5.1,2.94H75.94a5.9,5.9,0,0,0-5.1-2.94,1.5,1.5,0,0,0,0,3,2.91,2.91,0,0,1,0,5.81,1.5,1.5,0,0,0,0,3,5.9,5.9,0,0,0,5.08-2.91l2.49,5.34a1.5,1.5,0,0,0,2.72,0l2.45-5.32a5.9,5.9,0,0,0,5.07,2.89,1.5,1.5,0,0,0,0-3,2.91,2.91,0,0,1,0-5.81Zm-8.89,7-1.91-4.11h3.81Z"/><path d="M71.51,51a1.5,1.5,0,1,0,1.1,2.79l4.8-1.89a1.5,1.5,0,1,0-1.1-2.79Z"/><path d="M88.69,53A1.5,1.5,0,0,0,87.85,51L83,49.14a1.5,1.5,0,0,0-1.1,2.79l4.8,1.89A1.5,1.5,0,0,0,88.69,53Z"/><path d="M59.52,68.54a1.5,1.5,0,0,0,2.12,0l.93-.93.93.93a1.5,1.5,0,1,0,2.12-2.12l-.93-.93.93-.93a1.5,1.5,0,1,0-2.12-2.12l-.93.93-.93-.93a1.5,1.5,0,1,0-2.12,2.12l.93.93-.93.93A1.5,1.5,0,0,0,59.52,68.54Z"/><path d="M94.11,68.54a1.5,1.5,0,0,0,2.12,0l.93-.93.93.93a1.5,1.5,0,1,0,2.12-2.12l-.93-.93.93-.93a1.5,1.5,0,1,0-2.12-2.12l-.93.93-.93-.93a1.5,1.5,0,1,0-2.12,2.12l.93.93-.93.93A1.5,1.5,0,0,0,94.11,68.54Z"/><path class="cls-2" d="M96,78.25,85,81a5.84,5.84,0,0,1,.29.84h4.85a1.5,1.5,0,0,1,0,3H85.3a5.84,5.84,0,0,1-.29.84l11,2.75Z"/><path class="cls-2" d="M73.95,84.84H69.1a1.5,1.5,0,0,1,0-3h4.85a5.84,5.84,0,0,1,.29-.84l-11-2.75V88.43l11-2.75A5.84,5.84,0,0,1,73.95,84.84Z"/><circle class="cls-2" cx="79.62" cy="83.34" r="2.88"/><path class="cls-2" d="M137,68.24c-.11-.11-.23-.22-.35-.33a8.48,8.48,0,0,1-.51,6.15h0a8.55,8.55,0,0,1-3.31,3.6H133a5.55,5.55,0,0,0,3.87-1.57h0a5.55,5.55,0,0,0,1.68-3.91h0v-.08A5.55,5.55,0,0,0,137,68.25Z"/><polygon points="139.16 66.15 139.17 66.15 139.17 66.16 139.16 66.15"/><polygon points="139 78.26 139 78.26 139 78.26 139 78.26"/><polygon points="141.59 72.24 141.59 72.24 141.59 72.24 141.59 72.24"/><path class="cls-2" d="M131.32,69.35h0a5.53,5.53,0,0,1-1.51,6.3,1.56,1.56,0,0,0,.46-.08h0a5.55,5.55,0,0,0,3.18-2.82h0a5.55,5.55,0,0,0,.26-4.24h0a5.53,5.53,0,0,0-2.08-2.73,19.7,19.7,0,0,1-1.16,2.17A5.55,5.55,0,0,1,131.32,69.35Z"/><polygon points="136.15 74.07 136.15 74.07 136.15 74.07 136.15 74.07"/><path class="cls-2" d="M123.34,64.77a25.2,25.2,0,0,1-2.13,2.76l2.88-1.18a5.43,5.43,0,0,1,3.92-.1,16.64,16.64,0,0,0,1.55-3.36h0a19.11,19.11,0,0,0,.93-6q0-.23,0-.45h0a2.3,2.3,0,0,0-2.3-2.26h0a2.3,2.3,0,0,0-2.26,2.3v0h0q0,.18,0,.36a14.54,14.54,0,0,1-.7,4.57h0a9.86,9.86,0,0,1-.75,1.6C124.11,63.58,123.74,64.18,123.34,64.77Z"/><path d="M72.84,60.15a1.5,1.5,0,0,0,1.5-1.5.83.83,0,1,1,1.67,0,1.5,1.5,0,0,0,3,0,3.83,3.83,0,1,0-7.67,0A1.5,1.5,0,0,0,72.84,60.15Z"/><path d="M84,54.81a3.83,3.83,0,0,0-3.83,3.83,1.5,1.5,0,0,0,3,0,.83.83,0,1,1,1.67,0,1.5,1.5,0,0,0,3,0A3.83,3.83,0,0,0,84,54.81Z"/></svg>